<svg xmlns="http://www.w3.org/2000/svg" viewBox="0 0 1920 1080"><defs><style>.cls-1{fill:#f7f8fa;}.cls-2{fill:#e5e3e3;}.cls-17,.cls-3{fill:#fff;}.cls-11,.cls-21,.cls-3{stroke:#31434d;}.cls-10,.cls-11,.cls-12,.cls-19,.cls-21,.cls-3,.cls-6,.cls-8,.cls-9{stroke-linecap:round;stroke-miterlimit:10;}.cls-4{fill:#7b176e;}.cls-5{fill:#53bcf7;}.cls-6{fill:#f0f0f0;}.cls-10,.cls-19,.cls-6,.cls-9{stroke:#fff;}.cls-7{fill:#f6a001;}.cls-11,.cls-19,.cls-8,.cls-9{fill:none;}.cls-8{stroke:#f6a001;stroke-width:4px;}.cls-10{fill:#d9d9d9;}.cls-12{fill:#ededed;stroke:#d9d9d9;stroke-width:5px;}.cls-13{fill:#052251;}.cls-14{fill:#09102d;}.cls-15{fill:#0c2c7a;}.cls-16{fill:#0f379a;}.cls-18{fill:#ffe1cf;}.cls-19{stroke-width:2px;}.cls-20,.cls-21{fill:#276ce4;}</style></defs><title>2019-nCov15</title><g id="background"><path class="cls-1" d="M329.85,1025.43h977.69c87.07,0,158.31-89.78,158.31-199.51v-4.38a253.59,253.59,0,0,0-3.4-41.45,6,6,0,0,1,6.1-6.74h62.55c155,0,281.86-159.84,281.86-355.2v-8.77c0-195.36-126.84-355.2-281.86-355.2h-960c-155,0-281.85,159.84-281.85,355.2v4.38c0,71.94,17,139.11,46.18,195.48,2,3.88-1,8.41-5.54,8.41h0c-87.07,0-158.31,89.78-158.31,199.51v8.76C171.54,935.65,242.78,1025.43,329.85,1025.43Z"/><ellipse class="cls-2" cx="437.77" cy="998.44" rx="149.74" ry="10.75"/><ellipse class="cls-2" cx="1560.81" cy="998.11" rx="149.74" ry="10.75"/><ellipse class="cls-2" cx="989.72" cy="987.69" rx="379.13" ry="17.88"/><rect class="cls-3" x="191.83" y="625.13" width="48.26" height="154.93" transform="translate(-486.63 918.55) rotate(-90)"/><rect class="cls-4" x="1806.72" y="253.09" width="29.3" height="29.3"/><rect class="cls-3" x="171.54" y="206.53" width="46.02" height="46.02"/><rect class="cls-3" x="1767.33" y="644.72" width="22.33" height="99.38"/><rect class="cls-4" x="118.03" y="439.38" width="27.08" height="27.08"/><rect class="cls-3" x="1690.61" y="326.16" width="39.88" height="39.88"/><rect class="cls-3" x="1707.68" y="503.43" width="131.83" height="49.59"/><rect class="cls-3" x="1547.16" y="97.3" width="46.41" height="22.64"/><rect class="cls-3" x="215.96" y="908.76" width="46.41" height="22.64"/><rect class="cls-3" x="215.96" y="348.98" width="72.07" height="35.15"/><rect class="cls-3" x="1681.13" y="839.86" width="58.85" height="32.24"/><rect class="cls-5" x="1692.12" y="138.99" width="36.86" height="36.86"/><rect class="cls-5" x="331.05" y="157.42" width="36.86" height="36.86"/><path class="cls-1" d="M795.69,936.44c-23.46-.51-53.15.11-69.42-12.75-7.22-5.71-12-14-15.66-22.42-29.62-68.09-.2-173,49.76-225.43,17.14-18,39.11-30.49,60.4-43.33s42.68-26.72,57.65-46.58c22.45-29.77,23.12-60.68-4-85.28-28.42-25.76-58.59-49.84-83.8-78.75-23.84-27.34-96.54-144.43-33.38-165.36,15.24-5.05,31.79-.55,47.34,3.46a767,767,0,0,0,401.82-5.5c12.78-3.68,26.78-7.64,39-2.39,12.91,5.55,19.9,20.29,20.41,34.33,2.15,58.93-37.61,124.46-78.43,164.08a281.52,281.52,0,0,1-36.73,30.24c-14.21,9.73-38.19,13.82-46,31.05-9.16,20.25,4.68,54.89,15.87,71.59,22.82,34.06,63.29,50.92,95.36,76.46,52.23,41.58,64.86,96.3,81.11,157,9.35,34.9,3.4,75-16.47,105.37-20,30.59-59.82,32.87-93.65,31.79-83.73-2.65-167.49-4.61-251.17-8.75-41.87-2.06-83.76-4.51-125.53-8.17C805.79,936.72,800.9,936.55,795.69,936.44Z"/><ellipse class="cls-6" cx="997.71" cy="938.09" rx="317.3" ry="32.79"/><circle class="cls-7" cx="865.12" cy="370.76" r="28.9"/><line class="cls-8" x1="860.75" y1="389.6" x2="861.11" y2="417.94"/><line class="cls-8" x1="826.3" y1="342.72" x2="849.16" y2="357.09"/><line class="cls-8" x1="878.03" y1="356.19" x2="893.04" y2="329.45"/><line class="cls-8" x1="843.85" y1="378.97" x2="824.59" y2="380.92"/><line class="cls-8" x1="867.88" y1="327.02" x2="866.2" y2="361.85"/><polyline class="cls-8" points="896.74 350.56 878.77 367.4 912.05 366.83"/><line class="cls-8" x1="851.25" y1="383.62" x2="837.55" y2="403.13"/><line class="cls-8" x1="868.53" y1="381.08" x2="878.41" y2="405.38"/><line class="cls-8" x1="875.58" y1="377.34" x2="900.02" y2="393.87"/><path class="cls-8" d="M830.46,361.45c8.07,1.3,9,2.8,17,4.1"/><path class="cls-8" d="M847.67,339.54c2.61,6.82,5.66,9.21,8.27,16"/><circle class="cls-7" cx="914.02" cy="366.56" r="7.45"/><circle class="cls-7" cx="826.3" cy="342.72" r="7.45"/><circle class="cls-7" cx="900.07" cy="347.95" r="7.45"/><circle class="cls-7" cx="846.32" cy="336.25" r="7.45"/><circle class="cls-7" cx="868.42" cy="329.42" r="7.45"/><circle class="cls-7" cx="827.25" cy="359.43" r="7.45"/><circle class="cls-7" cx="893.8" cy="327.65" r="7.45"/><circle class="cls-7" cx="837.2" cy="403.68" r="7.45"/><circle class="cls-7" cx="822.71" cy="380.65" r="7.45"/><circle class="cls-7" cx="879.91" cy="408.67" r="7.45"/><circle class="cls-7" cx="904.05" cy="396.4" r="7.45"/><circle class="cls-7" cx="860.76" cy="418.49" r="7.45"/><circle class="cls-9" cx="856.9" cy="364.68" r="7.62"/><circle class="cls-9" cx="877.27" cy="365.66" r="2.48"/><circle class="cls-9" cx="867.92" cy="381.68" r="4.34"/><circle class="cls-7" cx="1194.73" cy="337.23" r="21.55"/><line class="cls-8" x1="1191.47" y1="351.28" x2="1191.74" y2="372.41"/><line class="cls-8" x1="1165.79" y1="316.32" x2="1182.83" y2="327.03"/><line class="cls-8" x1="1204.36" y1="326.36" x2="1215.55" y2="306.42"/><line class="cls-8" x1="1178.87" y1="343.35" x2="1164.51" y2="344.81"/><line class="cls-8" x1="1196.79" y1="304.61" x2="1195.54" y2="330.59"/><polyline class="cls-8" points="1218.31 322.16 1204.91 334.73 1229.73 334.3"/><line class="cls-8" x1="1184.39" y1="346.82" x2="1174.17" y2="361.37"/><line class="cls-8" x1="1197.27" y1="344.92" x2="1204.64" y2="363.04"/><line class="cls-8" x1="1202.53" y1="342.14" x2="1220.75" y2="354.46"/><path class="cls-8" d="M1168.89,330.29c6,1,6.69,2.08,12.71,3"/><path class="cls-8" d="M1181.72,314c1.94,5.09,4.22,6.87,6.16,11.95"/><circle class="cls-7" cx="1231.2" cy="334.09" r="5.55"/><circle class="cls-7" cx="1165.79" cy="316.32" r="5.55"/><circle class="cls-7" cx="1220.79" cy="320.22" r="5.55"/><circle class="cls-7" cx="1180.71" cy="311.5" r="5.55"/><circle class="cls-7" cx="1197.19" cy="306.4" r="5.55"/><circle class="cls-7" cx="1166.49" cy="328.78" r="5.55"/><circle class="cls-7" cx="1216.12" cy="305.09" r="5.55"/><circle class="cls-7" cx="1173.91" cy="361.78" r="5.55"/><circle class="cls-7" cx="1163.1" cy="344.61" r="5.55"/><circle class="cls-7" cx="1205.76" cy="365.5" r="5.55"/><circle class="cls-7" cx="1223.76" cy="356.35" r="5.55"/><circle class="cls-7" cx="1191.48" cy="372.82" r="5.55"/><circle class="cls-9" cx="1188.6" cy="332.7" r="5.68"/><circle class="cls-9" cx="1203.79" cy="333.43" r="1.85"/><circle class="cls-9" cx="1196.82" cy="345.37" r="3.24"/><circle class="cls-7" cx="948.85" cy="442.74" r="21.55"/><line class="cls-8" x1="958.1" y1="453.8" x2="975.12" y2="466.33"/><line class="cls-8" x1="914.72" y1="453.22" x2="933.54" y2="446.08"/><line class="cls-8" x1="945.99" y1="428.5" x2="936.83" y2="407.55"/><line class="cls-8" x1="944.17" y1="459.08" x2="936.68" y2="471.41"/><line class="cls-8" x1="924.07" y1="421.42" x2="944.04" y2="438.09"/><polyline class="cls-8" points="951.05 414.84 952.99 433.1 967.62 413.05"/><line class="cls-8" x1="950.27" y1="456.77" x2="955.72" y2="473.69"/><line class="cls-8" x1="956.52" y1="445.35" x2="975.43" y2="450.39"/><line class="cls-8" x1="957.47" y1="439.47" x2="978.29" y2="432.36"/><path class="cls-8" d="M927.74,459.17c4.4-4.22,5.69-4.08,10.09-8.3"/><path class="cls-8" d="M922.44,439.08c5.23,1.51,8,.78,13.25,2.29"/><circle class="cls-7" cx="968.34" cy="411.75" r="5.55"/><circle class="cls-7" cx="914.72" cy="453.22" r="5.55"/><circle class="cls-7" cx="950.99" cy="411.69" r="5.55"/><circle class="cls-7" cx="919.87" cy="438.41" r="5.55"/><circle class="cls-7" cx="925.74" cy="422.19" r="5.55"/><circle class="cls-7" cx="925.09" cy="460.17" r="5.55"/><circle class="cls-7" cx="936.1" cy="406.29" r="5.55"/><circle class="cls-7" cx="955.89" cy="474.14" r="5.55"/><circle class="cls-7" cx="935.67" cy="472.41" r="5.55"/><circle class="cls-7" cx="978.06" cy="450.98" r="5.55"/><circle class="cls-7" cx="981.61" cy="431.1" r="5.55"/><circle class="cls-7" cx="975.29" cy="466.79" r="5.55"/><circle class="cls-9" cx="941.54" cy="444.89" r="5.68"/><circle class="cls-9" cx="951.28" cy="433.22" r="1.85"/><circle class="cls-9" cx="956.61" cy="445.97" r="3.24"/><circle class="cls-7" cx="956.33" cy="512.5" r="16.34"/><line class="cls-8" x1="953.87" y1="523.15" x2="954.07" y2="539.17"/><line class="cls-8" x1="934.39" y1="496.65" x2="947.31" y2="504.77"/><line class="cls-8" x1="963.63" y1="504.27" x2="972.12" y2="489.15"/><line class="cls-8" x1="944.31" y1="517.14" x2="933.42" y2="518.25"/><line class="cls-8" x1="957.9" y1="487.78" x2="956.95" y2="507.47"/><polyline class="cls-8" points="974.21 501.08 964.05 510.6 982.87 510.28"/><line class="cls-8" x1="948.5" y1="519.77" x2="940.75" y2="530.8"/><line class="cls-8" x1="958.26" y1="518.34" x2="963.85" y2="532.07"/><line class="cls-8" x1="962.25" y1="516.22" x2="976.06" y2="525.56"/><path class="cls-8" d="M936.75,507.24c4.56.74,5.07,1.58,9.63,2.32"/><path class="cls-8" d="M946.47,494.86c1.48,3.85,3.2,5.2,4.68,9.06"/><circle class="cls-7" cx="983.98" cy="510.13" r="4.21"/><circle class="cls-7" cx="934.39" cy="496.65" r="4.21"/><circle class="cls-7" cx="976.09" cy="499.61" r="4.21"/><circle class="cls-7" cx="945.71" cy="492.99" r="4.21"/><circle class="cls-7" cx="958.2" cy="489.13" r="4.21"/><circle class="cls-7" cx="934.93" cy="506.1" r="4.21"/><circle class="cls-7" cx="972.55" cy="488.14" r="4.21"/><circle class="cls-7" cx="940.55" cy="531.11" r="4.21"/><circle class="cls-7" cx="932.36" cy="518.09" r="4.21"/><circle class="cls-7" cx="964.7" cy="533.93" r="4.21"/><circle class="cls-7" cx="978.34" cy="527" r="4.21"/><circle class="cls-7" cx="953.87" cy="539.48" r="4.21"/><circle class="cls-9" cx="951.69" cy="509.07" r="4.31"/><circle class="cls-9" cx="963.2" cy="509.62" r="1.4"/><circle class="cls-9" cx="957.92" cy="518.68" r="2.45"/><circle class="cls-7" cx="1115.58" cy="338.83" r="16.34"/><line class="cls-8" x1="1113.12" y1="349.48" x2="1113.32" y2="365.5"/><line class="cls-8" x1="1093.64" y1="322.97" x2="1106.56" y2="331.1"/><line class="cls-8" x1="1122.88" y1="330.59" x2="1131.37" y2="315.47"/><line class="cls-8" x1="1103.56" y1="343.47" x2="1092.67" y2="344.57"/><line class="cls-8" x1="1117.15" y1="314.1" x2="1116.2" y2="333.79"/><polyline class="cls-8" points="1133.46 327.41 1123.3 336.93 1142.12 336.61"/><line class="cls-8" x1="1107.74" y1="346.1" x2="1100" y2="357.12"/><line class="cls-8" x1="1117.51" y1="344.66" x2="1123.1" y2="358.4"/><line class="cls-8" x1="1121.5" y1="342.55" x2="1135.31" y2="351.89"/><path class="cls-8" d="M1096,333.57c4.57.73,5.07,1.57,9.64,2.31"/><path class="cls-8" d="M1105.72,321.18c1.48,3.86,3.2,5.21,4.67,9.06"/><circle class="cls-7" cx="1143.23" cy="336.45" r="4.21"/><circle class="cls-7" cx="1093.64" cy="322.97" r="4.21"/><circle class="cls-7" cx="1135.34" cy="325.93" r="4.21"/><circle class="cls-7" cx="1104.96" cy="319.32" r="4.21"/><circle class="cls-7" cx="1117.45" cy="315.46" r="4.21"/><circle class="cls-7" cx="1094.18" cy="332.42" r="4.21"/><circle class="cls-7" cx="1131.8" cy="314.46" r="4.21"/><circle class="cls-7" cx="1099.8" cy="357.44" r="4.21"/><circle class="cls-7" cx="1091.61" cy="344.42" r="4.21"/><circle class="cls-7" cx="1123.95" cy="360.26" r="4.21"/><circle class="cls-7" cx="1137.59" cy="353.32" r="4.21"/><circle class="cls-7" cx="1113.12" cy="365.81" r="4.21"/><circle class="cls-9" cx="1110.94" cy="335.39" r="4.31"/><circle class="cls-9" cx="1122.45" cy="335.95" r="1.4"/><circle class="cls-9" cx="1117.17" cy="345" r="2.45"/><circle class="cls-7" cx="1031.68" cy="468.24" r="16.34"/><line class="cls-8" x1="1021.01" y1="470.6" x2="1006.63" y2="477.67"/><line class="cls-8" x1="1036.55" y1="441.62" x2="1034.78" y2="456.77"/><line class="cls-8" x1="1042.26" y1="471.29" x2="1059.55" y2="472.44"/><line class="cls-8" x1="1022.32" y1="459.39" x2="1016.64" y2="450.04"/><line class="cls-8" x1="1054.67" y1="459.02" x2="1036.49" y2="466.63"/><polyline class="cls-8" points="1049.68 479.46 1036.72 474.39 1045.1 491.24"/><line class="cls-8" x1="1021.74" y1="464.3" x2="1008.46" y2="462.05"/><line class="cls-8" x1="1027.24" y1="472.49" x2="1017.25" y2="483.45"/><line class="cls-8" x1="1030.87" y1="475.18" x2="1028.38" y2="491.67"/><path class="cls-8" d="M1028,448.3c1.3,4.43.76,5.25,2.06,9.69"/><path class="cls-8" d="M1043.36,451.75c-2.84,3-3.32,5.12-6.16,8.12"/><circle class="cls-7" cx="1045.72" cy="492.18" r="4.21"/><circle class="cls-7" cx="1036.55" cy="441.62" r="4.21"/><circle class="cls-7" cx="1051.82" cy="480.53" r="4.21"/><circle class="cls-7" cx="1044.72" cy="450.26" r="4.21"/><circle class="cls-7" cx="1053.58" cy="459.87" r="4.21"/><circle class="cls-7" cx="1028.25" cy="446.17" r="4.21"/><circle class="cls-7" cx="1060.65" cy="472.39" r="4.21"/><circle class="cls-7" cx="1008.09" cy="462.01" r="4.21"/><circle class="cls-7" cx="1016.32" cy="449.01" r="4.21"/><circle class="cls-7" cx="1015.93" cy="485.01" r="4.21"/><circle class="cls-7" cx="1028.07" cy="494.35" r="4.21"/><circle class="cls-7" cx="1006.26" cy="477.63" r="4.21"/><circle class="cls-9" cx="1032.78" cy="462.57" r="4.31"/><circle class="cls-9" cx="1037.24" cy="473.2" r="1.4"/><circle class="cls-9" cx="1026.79" cy="472.33" r="2.45"/><circle class="cls-7" cx="878.07" cy="458.18" r="16.34"/><line class="cls-8" x1="875.6" y1="468.83" x2="875.8" y2="484.85"/><line class="cls-8" x1="856.13" y1="442.33" x2="869.05" y2="450.45"/><line class="cls-8" x1="885.37" y1="449.95" x2="893.86" y2="434.83"/><line class="cls-8" x1="866.05" y1="462.82" x2="855.16" y2="463.92"/><line class="cls-8" x1="879.64" y1="433.46" x2="878.68" y2="453.15"/><polyline class="cls-8" points="895.95 446.76 885.79 456.28 904.6 455.96"/><line class="cls-8" x1="870.23" y1="465.45" x2="862.49" y2="476.48"/><line class="cls-8" x1="880" y1="464.02" x2="885.59" y2="477.75"/><line class="cls-8" x1="883.99" y1="461.9" x2="897.8" y2="471.24"/><path class="cls-8" d="M858.48,452.92c4.57.74,5.07,1.58,9.64,2.32"/><path class="cls-8" d="M868.21,440.54c1.48,3.85,3.2,5.2,4.67,9"/><circle class="cls-7" cx="905.72" cy="455.81" r="4.21"/><circle class="cls-7" cx="856.13" cy="442.33" r="4.21"/><circle class="cls-7" cx="897.83" cy="445.29" r="4.21"/><circle class="cls-7" cx="867.44" cy="438.67" r="4.21"/><circle class="cls-7" cx="879.94" cy="434.81" r="4.21"/><circle class="cls-7" cx="856.67" cy="451.78" r="4.21"/><circle class="cls-7" cx="894.28" cy="433.81" r="4.21"/><circle class="cls-7" cx="862.29" cy="476.79" r="4.21"/><circle class="cls-7" cx="854.1" cy="463.77" r="4.21"/><circle class="cls-7" cx="886.43" cy="479.61" r="4.21"/><circle class="cls-7" cx="900.08" cy="472.68" r="4.21"/><circle class="cls-7" cx="875.61" cy="485.16" r="4.21"/><circle class="cls-9" cx="873.43" cy="454.75" r="4.31"/><circle class="cls-9" cx="884.94" cy="455.3" r="1.4"/><circle class="cls-9" cx="879.66" cy="464.36" r="2.45"/><circle class="cls-7" cx="1089.5" cy="415.41" r="23.09"/><line class="cls-8" x1="1086.01" y1="430.46" x2="1086.3" y2="453.1"/><line class="cls-8" x1="1058.5" y1="393.01" x2="1076.75" y2="404.49"/><line class="cls-8" x1="1099.82" y1="403.77" x2="1111.81" y2="382.41"/><line class="cls-8" x1="1072.51" y1="421.97" x2="1057.12" y2="423.53"/><line class="cls-8" x1="1091.71" y1="380.47" x2="1090.37" y2="408.29"/><polyline class="cls-8" points="1114.76 399.27 1100.4 412.73 1126.99 412.27"/><line class="cls-8" x1="1078.42" y1="425.69" x2="1067.48" y2="441.27"/><line class="cls-8" x1="1092.22" y1="423.65" x2="1100.12" y2="443.07"/><line class="cls-8" x1="1097.86" y1="420.67" x2="1117.38" y2="433.87"/><path class="cls-8" d="M1061.82,408c6.45,1,7.16,2.23,13.61,3.27"/><path class="cls-8" d="M1075.56,390.48c2.09,5.44,4.52,7.35,6.61,12.8"/><circle class="cls-7" cx="1128.57" cy="412.05" r="5.95"/><circle class="cls-7" cx="1058.5" cy="393.01" r="5.95"/><circle class="cls-7" cx="1117.42" cy="397.19" r="5.95"/><circle class="cls-7" cx="1074.48" cy="387.84" r="5.95"/><circle class="cls-7" cx="1092.14" cy="382.39" r="5.95"/><circle class="cls-7" cx="1059.25" cy="406.36" r="5.95"/><circle class="cls-7" cx="1112.41" cy="380.98" r="5.95"/><circle class="cls-7" cx="1067.2" cy="441.71" r="5.95"/><circle class="cls-7" cx="1055.62" cy="423.31" r="5.95"/><circle class="cls-7" cx="1101.32" cy="445.7" r="5.95"/><circle class="cls-7" cx="1120.6" cy="435.89" r="5.95"/><circle class="cls-7" cx="1086.02" cy="453.54" r="5.95"/><circle class="cls-9" cx="1082.93" cy="410.55" r="6.09"/><circle class="cls-9" cx="1099.2" cy="411.34" r="1.98"/><circle class="cls-9" cx="1091.74" cy="424.13" r="3.47"/><circle class="cls-7" cx="992.93" cy="391.53" r="12.94"/><line class="cls-8" x1="990.98" y1="399.96" x2="991.14" y2="412.65"/><line class="cls-8" x1="975.56" y1="378.97" x2="985.79" y2="385.41"/><line class="cls-8" x1="998.72" y1="385.01" x2="1005.44" y2="373.03"/><line class="cls-8" x1="983.41" y1="395.2" x2="974.79" y2="396.08"/><line class="cls-8" x1="994.17" y1="371.94" x2="993.42" y2="387.54"/><polyline class="cls-8" points="1007.09 382.48 999.05 390.02 1013.95 389.77"/><line class="cls-8" x1="986.73" y1="397.29" x2="980.59" y2="406.02"/><line class="cls-8" x1="994.46" y1="396.15" x2="998.89" y2="407.03"/><line class="cls-8" x1="997.62" y1="394.47" x2="1008.56" y2="401.87"/><path class="cls-8" d="M977.42,387.36c3.61.58,4,1.25,7.63,1.84"/><path class="cls-8" d="M985.12,377.55c1.17,3.06,2.54,4.13,3.71,7.18"/><circle class="cls-7" cx="1014.83" cy="389.65" r="3.33"/><circle class="cls-7" cx="975.56" cy="378.97" r="3.33"/><circle class="cls-7" cx="1008.58" cy="381.32" r="3.33"/><circle class="cls-7" cx="984.52" cy="376.08" r="3.33"/><circle class="cls-7" cx="994.41" cy="373.02" r="3.33"/><circle class="cls-7" cx="975.98" cy="386.46" r="3.33"/><circle class="cls-7" cx="1005.78" cy="372.23" r="3.33"/><circle class="cls-7" cx="980.44" cy="406.27" r="3.33"/><circle class="cls-7" cx="973.95" cy="395.96" r="3.33"/><circle class="cls-7" cx="999.56" cy="408.5" r="3.33"/><circle class="cls-7" cx="1010.37" cy="403.01" r="3.33"/><circle class="cls-7" cx="990.98" cy="412.9" r="3.33"/><circle class="cls-9" cx="989.26" cy="388.81" r="3.41"/><circle class="cls-9" cx="998.37" cy="389.25" r="1.11"/><circle class="cls-9" cx="994.19" cy="396.42" r="1.94"/><circle class="cls-7" cx="791.82" cy="378.71" r="12.94"/><line class="cls-8" x1="789.86" y1="387.14" x2="790.02" y2="399.83"/><line class="cls-8" x1="774.44" y1="366.15" x2="784.67" y2="372.58"/><line class="cls-8" x1="797.6" y1="372.18" x2="804.32" y2="360.21"/><line class="cls-8" x1="782.29" y1="382.38" x2="773.67" y2="383.26"/><line class="cls-8" x1="793.06" y1="359.12" x2="792.3" y2="374.72"/><polyline class="cls-8" points="805.97 369.66 797.93 377.2 812.83 376.95"/><line class="cls-8" x1="785.61" y1="384.47" x2="779.48" y2="393.2"/><line class="cls-8" x1="793.34" y1="383.33" x2="797.77" y2="394.21"/><line class="cls-8" x1="796.5" y1="381.65" x2="807.44" y2="389.05"/><path class="cls-8" d="M776.3,374.54c3.62.58,4,1.25,7.63,1.83"/><path class="cls-8" d="M784,364.73c1.17,3,2.53,4.12,3.7,7.18"/><circle class="cls-7" cx="813.71" cy="376.82" r="3.33"/><circle class="cls-7" cx="774.44" cy="366.15" r="3.33"/><circle class="cls-7" cx="807.47" cy="368.49" r="3.33"/><circle class="cls-7" cx="783.4" cy="363.26" r="3.33"/><circle class="cls-7" cx="793.3" cy="360.2" r="3.33"/><circle class="cls-7" cx="774.87" cy="373.64" r="3.33"/><circle class="cls-7" cx="804.66" cy="359.41" r="3.33"/><circle class="cls-7" cx="779.32" cy="393.45" r="3.33"/><circle class="cls-7" cx="772.83" cy="383.14" r="3.33"/><circle class="cls-7" cx="798.44" cy="395.68" r="3.33"/><circle class="cls-7" cx="809.25" cy="390.19" r="3.33"/><circle class="cls-7" cx="789.87" cy="400.08" r="3.33"/><circle class="cls-9" cx="788.14" cy="375.98" r="3.41"/><circle class="cls-9" cx="797.26" cy="376.42" r="1.11"/><circle class="cls-9" cx="793.07" cy="383.6" r="1.94"/><circle class="cls-7" cx="1167.43" cy="416.33" r="12.94"/><line class="cls-8" x1="1165.48" y1="424.76" x2="1165.64" y2="437.45"/><line class="cls-8" x1="1150.05" y1="403.77" x2="1160.29" y2="410.21"/><line class="cls-8" x1="1173.21" y1="409.8" x2="1179.93" y2="397.83"/><line class="cls-8" x1="1157.91" y1="420" x2="1149.29" y2="420.88"/><line class="cls-8" x1="1168.67" y1="396.74" x2="1167.92" y2="412.34"/><polyline class="cls-8" points="1181.59 407.28 1173.54 414.82 1188.45 414.57"/><line class="cls-8" x1="1161.22" y1="422.09" x2="1155.09" y2="430.82"/><line class="cls-8" x1="1168.96" y1="420.95" x2="1173.38" y2="431.83"/><line class="cls-8" x1="1172.12" y1="419.27" x2="1183.06" y2="426.67"/><path class="cls-8" d="M1151.92,412.16c3.61.58,4,1.25,7.63,1.83"/><path class="cls-8" d="M1159.62,402.35c1.17,3.06,2.53,4.12,3.7,7.18"/><circle class="cls-7" cx="1189.33" cy="414.45" r="3.33"/><circle class="cls-7" cx="1150.05" cy="403.77" r="3.33"/><circle class="cls-7" cx="1183.08" cy="406.12" r="3.33"/><circle class="cls-7" cx="1159.01" cy="400.88" r="3.33"/><circle class="cls-7" cx="1168.91" cy="397.82" r="3.33"/><circle class="cls-7" cx="1150.48" cy="411.26" r="3.33"/><circle class="cls-7" cx="1180.27" cy="397.03" r="3.33"/><circle class="cls-7" cx="1154.93" cy="431.07" r="3.33"/><circle class="cls-7" cx="1148.44" cy="420.76" r="3.33"/><circle class="cls-7" cx="1174.05" cy="433.3" r="3.33"/><circle class="cls-7" cx="1184.86" cy="427.81" r="3.33"/><circle class="cls-7" cx="1165.48" cy="437.7" r="3.33"/><circle class="cls-9" cx="1163.75" cy="413.61" r="3.41"/><circle class="cls-9" cx="1172.87" cy="414.05" r="1.11"/><circle class="cls-9" cx="1168.69" cy="421.22" r="1.94"/><path class="cls-10" d="M1315.13,929.59c-1.3-.34-25.27,11.52-28.9,12.55a329.15,329.15,0,0,1-45.62,9.33c-98.3,13.65-197.71,17.73-296.87,16.33-49.69-.7-99.35-2.78-149-5.71-23-1.36-50.06.58-72.42-4.85C712.16,954.76,678,928,671.44,929.76c-24.75,6.72-38.7,14.33-38.7,22.38,0,27.42,161.56,49.64,360.85,49.64s360.85-22.22,360.85-49.64C1354.44,944,1340.26,936.35,1315.13,929.59Z"/><path class="cls-1" d="M1122.89,960q35.64-2.09,71.25-4.39c36-2.28,75.79-4.26,109.38-18.56a64.88,64.88,0,0,0,11.61-7.46c-59.72-16.08-181.28-27.09-321.54-27.09-140.75,0-262.66,11.09-322.15,27.26,35.39,26.56,70.7,27.29,113.58,31.07,46.13,4.08,92.45,5.76,138.76,5.89C990.21,966.91,1056.58,963.88,1122.89,960Z"/><path class="cls-11" d="M646.43,179.15c-12,115.72,42.75,236,137.88,303,23.06,16.23,49.18,30.49,63.47,54.8,2.54,4.32,4.7,9.34,3.58,14.23-2,8.7-12.5,11.8-21.18,13.87-125,29.74-194.12,170.44-191.6,290.65.77,37,8.39,56,35.61,74.32"/><path class="cls-11" d="M1340.75,179.15c12,115.72-42.75,236-137.88,303-23.06,16.23-49.18,30.49-63.47,54.8-2.54,4.32-4.71,9.34-3.58,14.23,2,8.7,12.5,11.8,21.18,13.87,125,29.74,194.12,170.44,191.6,290.65-.72,34.59-10.24,52.76-31.08,74.56"/><ellipse class="cls-12" cx="993.59" cy="179.9" rx="360.85" ry="49.64"/><ellipse class="cls-11" cx="993.59" cy="952.14" rx="360.85" ry="49.64"/><path class="cls-11" d="M739.9,345.1C760.13,374.78,795,459.38,878.26,499.82c25.65,12.46,13.63,56.8.57,81.05C865,606.52,837,620.44,811.29,634.18c-64,34.21-108,115.48-111,187.57"/><path class="cls-11" d="M1258.06,345.1c-20.22,29.68-55.14,114.28-138.35,154.72-25.65,12.46-13.64,56.8-.58,81.05,13.82,25.65,41.85,39.57,67.55,53.31,64,34.21,108,115.48,111,187.57"/><path class="cls-11" d="M700.47,953.42a2028.59,2028.59,0,0,0,575.28-6.31"/><ellipse class="cls-11" cx="989.72" cy="175.85" rx="289.25" ry="34.43"/><path class="cls-11" d="M912.25,465.39a132.54,132.54,0,0,1,8.94,93"/><path class="cls-11" d="M1072.42,470.32a174.94,174.94,0,0,0-6.37,86.26"/></g><g id="man"><path class="cls-13" d="M1099.16,619.45a1.34,1.34,0,0,1-1.57,1.31l-1.85-.33-.28-.08c-4.77-1.92-9.2-6.31-11.69-11-.3-.58-1.3-.6-1.43,0-2.52,12.87-16.56,17-16.56,17a13.13,13.13,0,0,1-3.32,1.34,10.68,10.68,0,0,1-9-1.37c-3-2.23-4.34-6.17-4.69-10-.44-4.83-.45-9.63,2-14a10.19,10.19,0,0,1,5.68-5,5.86,5.86,0,0,0,1.73-.63,5,5,0,0,0,1.49-2.63c3.21-8.81,13-10.53,20.83-7.48a16.38,16.38,0,0,1,25.65,9c6.11-.76,11.87,4.76,12.55,10.88s-2.7,11.89-7.52,15.5c.29-5.85-3.38-11.71-10.27-9.52a2.72,2.72,0,0,0-1.79,2.66Z"/><path class="cls-14" d="M836.26,928.83l-.55.56c-7.05,3.55-11.07,12.34-18.8,13.94-6.4,1.33-12.51-2.86-17.71-6.83l-18.41-14.06c-3.85-3-7.78-6-10.63-9.9-3.51-4.83-5.19-10.75-6.56-16.57a227.75,227.75,0,0,1-4.44-24.88,4.36,4.36,0,0,1,.51-3.36c1.33-1.59,3.88-.59,5.64.5l24.89,15.46h0q6.15,3.79,12.3,7.63c1.31.82,5.07,1.45,6.61.62C817,905.11,825.21,917.81,836.26,928.83Z"/><path class="cls-14" d="M815.36,877.38q-5.05,4-10.07,8.08c1.27,2.17,2.54,4.34,3.83,6.49-1.54.83-5.3.2-6.61-.62q-6.15-3.83-12.3-7.63h0a46.71,46.71,0,0,1-6.36-22.12,2.13,2.13,0,0,1,2.68-2.12c5.45,1.6,9.7,6.56,14.26,10.3A40.86,40.86,0,0,0,815.36,877.38Z"/><path class="cls-15" d="M995.54,828.55c16.84,36.06,48.73,63.57,86.47,76.3-65.55-5.9-89.86-63.14-90.54-62.41-27,29.11-109.38,95.36-112.94,97.66a3.16,3.16,0,0,1-2.95.26c-2.26-1-6.63-5.82-10-9.87,42.24-33.22,88-69.81,126.42-103.65C992.75,826.17,995.12,827.64,995.54,828.55Z"/><path class="cls-16" d="M1061.58,797.5c3,4.17,5.93,8.36,8.87,12.53l2.48,3.71a44.27,44.27,0,0,0,16.3,14.6,147.3,147.3,0,0,0,91.41,14.4c-3.88,13.94-8.94,27.62-17.1,39.51-9.21,13.41-22.8,24.41-38.73,27.65-11.43,2.32-23.33.56-34.57-2.53-2.76-.77-5.51-1.6-8.23-2.52-37.74-12.73-70.84-40.24-87.68-76.3a1.48,1.48,0,0,0-2.33-.5c-38.45,33.84-84.18,70.43-126.42,103.65q-6.36,5-12.62,9.91a1,1,0,0,1-1.18,0,107.26,107.26,0,0,1-15.52-12.82c-11-11-19.29-23.72-27.14-36.88-1.29-2.15-2.56-4.32-3.83-6.49q5-4.05,10.07-8.08,48.38-38.77,97.82-76.17,27.75-21,55.88-41.48c10.22-7.45,20.81-15.62,32.5-20.94a10,10,0,0,1,10.66,1.52,206.32,206.32,0,0,1,17.83,17.3,340.64,340.64,0,0,1,21.74,26.45Q1056.78,790.72,1061.58,797.5Z"/><path class="cls-17" d="M1053.33,740.82a113.39,113.39,0,0,1-19-3.31q-3.37-.88-6.67-2c2.48-11.9,5.82-26.36,10-37.33,4.57-12.07,11.77-25.15,24.37-28,4.35-1,8.88-.56,13.32-.13L1095.4,672c1.78,4,3.38,7.92,4.5,11.05a24.71,24.71,0,0,0,16.9,3.73c5.85-.85,10.16-3.89,14-8.41l.35-.07c-.92-2.6-1.85-5.13-2.8-7.61,8.87,1.81,17.66,4,26.36,6.56,6.56,1.93,13.19,4.13,18.72,8.16,12.15,8.88,16.66,24.72,19.24,39.55a347.62,347.62,0,0,1,4.89,48.79c-2.07.18-4.14.33-6.2.43a166,166,0,0,1-43.84-3.65,137.12,137.12,0,0,1-4.28,35.8,543.28,543.28,0,0,0-81.65-8.86q-4.8-6.76-9.79-13.44Q1052.55,762.45,1053.33,740.82Z"/><path class="cls-18" d="M1053.33,740.82q-.76,21.61-1.54,43.24a340.64,340.64,0,0,0-21.74-26.45c1.17-6.71,3-13.4,4.27-20.1A113.39,113.39,0,0,0,1053.33,740.82Z"/><path class="cls-18" d="M1143.23,806.36a137.12,137.12,0,0,0,4.28-35.8,166,166,0,0,0,43.84,3.65c-1.54,22.91-3.14,46-8.91,68.23-.6.11-1.19.21-1.8.3a147.3,147.3,0,0,1-91.41-14.4,44.27,44.27,0,0,1-16.3-14.6l-2.48-3.71c-2.94-4.17-5.87-8.36-8.87-12.53A543.28,543.28,0,0,1,1143.23,806.36Z"/><path class="cls-18" d="M1128.34,670.72c1,2.48,1.88,5,2.8,7.61l-.35.07c-3.83,4.52-8.14,7.56-14,8.41a24.71,24.71,0,0,1-16.9-3.73c-1.12-3.13-2.72-7.05-4.5-11.05-1.6-3.63-3.34-7.34-4.94-10.59a20,20,0,0,1-4.28,1.61,8.69,8.69,0,0,1-7.74-1.82c-8.55-7.24-12.07-24.19-15.89-33.1l-.09-.42a13.13,13.13,0,0,0,3.32-1.34s14-4.08,16.56-17c.13-.65,1.13-.63,1.43,0,2.49,4.67,6.92,9.06,11.69,11l.28.08,1.85.33a1.34,1.34,0,0,0,1.57-1.31l-.1-4.3a2.72,2.72,0,0,1,1.79-2.66c6.89-2.19,10.56,3.67,10.27,9.52a12.14,12.14,0,0,1-1.06,4.4C1115.78,640.55,1122.16,654.39,1128.34,670.72Z"/><path class="cls-17" d="M1103.26,646.69c.49-.94.94-1.87,1.34-2.77,3.18-7.21,3.81-15.8.38-22.89-.35-.74-1-1.58-1.79-1.39a2,2,0,0,0-1,.94,57.17,57.17,0,0,1-30.66,22.65c-2.74.83-2.69.47-2.4,3,.2,1.81,1.74,4.14,2.57,5.75a29.36,29.36,0,0,0,6.77,9.22,8.69,8.69,0,0,0,7.74,1.82C1093.49,661.22,1099.63,653.61,1103.26,646.69Z"/><path class="cls-19" d="M844,935.82q74.65-60.95,147.1-124.56a3.57,3.57,0,0,1,5.54,1c28.7,55.75,91.48,101.53,157.82,77.32"/><path class="cls-19" d="M763.84,897h0c4.89,7.28,10.08,14.15,13.63,17.63,4.06,4,8.91,7,13.75,10q8,4.91,16.13,9.58c2.82,1.62,6.53,5.48,10.35,8.88"/><path class="cls-11" d="M1129.09,670.63c9,1.83,16.77,4.06,25.61,6.65,6.56,1.93,13.19,4.13,18.72,8.16,12.15,8.88,16.66,24.72,19.24,39.55a347.62,347.62,0,0,1,4.89,48.79"/><path class="cls-11" d="M1027.65,735.53c2.48-11.9,5.82-26.36,10-37.33,4.57-12.07,11.77-25.15,24.37-28,4.35-1,8.88-.56,13.32-.13L1095.4,672"/><path class="cls-11" d="M1147.51,770.56a137.12,137.12,0,0,1-4.28,35.8"/><path class="cls-11" d="M1054,722.58l-2.25,62.76"/><path class="cls-11" d="M1142.08,724.56a430.89,430.89,0,0,0-4.76,43.43"/><path class="cls-11" d="M1053.33,740.82a113.16,113.16,0,0,1-25.68-5.29"/><path class="cls-11" d="M1137.32,768q5,1.46,10.19,2.57a166,166,0,0,0,43.84,3.65c2.06-.1,4.13-.25,6.2-.43"/><path class="cls-11" d="M1110.05,626.4c6.59,16.29,14,32.17,21.09,51.93"/><path class="cls-11" d="M1100,683.32c0-.08-.06-.16-.08-.24-1.12-3.13-2.72-7.05-4.5-11.05-1.6-3.63-3.34-7.34-4.94-10.59"/><path class="cls-11" d="M1099.83,683.05a24.85,24.85,0,0,0,17,3.77c5.86-.85,10.16-3.9,14-8.42"/><path class="cls-11" d="M1062.56,628.13c3.81,8.91,7.33,25.86,15.87,33.1a8.73,8.73,0,0,0,7.76,1.82c6.63-1.63,11.82-6.66,15.29-12.44,3.13-5.21,5-11.05,6.89-16.83"/><path class="cls-11" d="M1099.16,619.45l-.1-4.3a2.7,2.7,0,0,1,1.8-2.66c8.66-2.76,12.26,7.25,9.19,13.91"/><path class="cls-11" d="M1068.84,644.38a72,72,0,0,0,33.32-22.31"/><path class="cls-11" d="M1182.44,842.44c5.81-22.36,7.39-45.65,9-68.72"/><path class="cls-11" d="M1148.47,807.35a546.58,546.58,0,0,0-88.36-9.9"/><path class="cls-11" d="M1034.32,737.51c-1.28,6.7-3.1,13.39-4.27,20.1"/><path class="cls-11" d="M815.36,877.38a40.86,40.86,0,0,1-14.58-7.63c-4.56-3.74-8.81-8.7-14.26-10.3a2.13,2.13,0,0,0-2.68,2.12,46.71,46.71,0,0,0,6.36,22.12h0"/><path class="cls-11" d="M1101.86,615.79a3.76,3.76,0,0,1,5.2,4.09"/><path class="cls-11" d="M1074.55,633.27a19.85,19.85,0,0,1,1.21,8.53"/><path d="M1082.51,632.75a1.5,1.5,0,0,0,0-3,1.5,1.5,0,0,0,0,3Z"/><path d="M1069.43,637.82a1.5,1.5,0,0,0,0-3,1.5,1.5,0,0,0,0,3Z"/><path class="cls-11" d="M1078.57,626a11.6,11.6,0,0,1,8.28-.38"/><path class="cls-11" d="M1069.75,629.54a6,6,0,0,0-5.78,3.81"/></g><g id="doctors"><path class="cls-5" d="M399,385.41a4.19,4.19,0,1,0,4.19,4.19A4.19,4.19,0,0,0,399,385.41Z"/><path class="cls-14" d="M562.44,495.09l-1.86,3.66a20.36,20.36,0,0,1,8.72,3.58l2-1.74a1.94,1.94,0,0,0-.35-3.17l-5.87-3.16A1.94,1.94,0,0,0,562.44,495.09Z"/><path class="cls-17" d="M565.83,507.13c1.11-1.54,2.26-3.14,3.47-4.8a20.36,20.36,0,0,0-8.72-3.58l-8.46,11.82a2.27,2.27,0,0,1-1.61,3.1l-.72.15c-8,11.2-16.42,22.94-22.88,31.95a108.41,108.41,0,0,1,13.67-1.83c7.09-10.42,12.64-19,21-30.81l-.31-.14c-1.12-.52-2.28-1.33-2.44-2.55-.28-2.14,2.53-3.21,4.7-3.3C564.27,507.11,565.05,507.1,565.83,507.13Z"/><path class="cls-20" d="M317.2,946.27a428.93,428.93,0,0,0-4.44,47.6c34.32,4.08,73.57,5.36,107.77,5.82a2.5,2.5,0,0,0,1.72-4.35c-11.84-10.9-23.41-22.71-37.25-31,.5-5.12,1.13-10.24,1.38-15.37C363,950.29,341,948,317.2,946.27Z"/><path class="cls-20" d="M437.46,949c-1.5,14.56-2.46,35-2.34,49.42a929.93,929.93,0,0,0,110.27,3.08l2.79-.71a1,1,0,0,0,.49-1.61,150.22,150.22,0,0,0-45.07-34.39,127.65,127.65,0,0,1-.33-15.89q-15.69.9-31.42,1.36C460.39,950.62,448.74,950.76,437.46,949Z"/><path class="cls-5" d="M421.44,668.63q7.69,52.67,17.69,105a26.45,26.45,0,0,1,.46,6c-.65,18.51-4.11,117-5.93,168.75,1.26.25,2.53.46,3.8.66,11.28,1.74,22.93,1.6,34.39,1.26q15.72-.46,31.42-1.36c5.57-.31,11.15-.68,16.72-1.08-2.12-66.13-5.2-189-5.2-189a577,577,0,0,0-38.33-177.08q-9.12,1.9-18.35,3.2l-.47.12c.63,2.56,1.2,5.05,1.7,7.43-18,7.81-37.4,10.81-56.94,11.24-12.41.28-39.42,3.07-48.26-7.3-2.69-3.15-4.32-7-5.81-10.92-2.09-5.43-4-11-5.77-16.6-22.83,45-5.33,98.8-3.38,146.81,3.38,83.75-11.77,149.24-26.9,230.22l4.92.35C341,948,363,950.29,386.38,949q6.53-.35,13.21-1.1c8.87-65.74,22.1-181.14,22.1-181.14,1-3.12.67-13.65.52-16.93Q420.44,709.26,421.44,668.63Z"/><path class="cls-17" d="M434.34,417.73c-3.91,4.35-10.88,3.32-16.55,1.84l-.15.34a51.28,51.28,0,0,0,31,3.63h0a1.33,1.33,0,0,0,1.07-1.22q1.5-18.3,2.41-36.63a19.48,19.48,0,0,1-3.34,1.16q-4.5,1.11-9.06,1.89-1.12,9.78-2.24,19.56C437.08,411.64,436.6,415.22,434.34,417.73Z"/><path class="cls-20" d="M554.79,544.49a1.71,1.71,0,0,0-1.27-.68,109.55,109.55,0,0,0-12.94.13,108.41,108.41,0,0,0-13.67,1.83c-1.15.23-2.3.48-3.45.74l-5.45.31q-16.36,2.31-32.66,4.95-18,2.9-35.91,6.18a279.72,279.72,0,0,1,8.2,27.09l.47-.12q9.22-1.29,18.35-3.21c2.35-.49,4.69-1,7-1.55,4.9-1.14,13.31,1.76,18.77,1.48,5.83-.3,11.46-1.63,17.25-2.16a24.38,24.38,0,0,0,3.2-.44,22.18,22.18,0,0,1,5.2-.53c5.3.11,10.1-1.55,13.93-1.77,3.53-.22,7.43-.94,9.53-3.78-.08-1.35-1.89-1.71-3.25-1.69-1,0-2-.11-3,0a7.44,7.44,0,0,1-1.94-.15c-2.08-.34-4.16-.43-6.25-.6.67-.45,2.15,0,3-.06,1.35-.11,2.7-.29,4-.52a49,49,0,0,0,8.1-2.14,2.15,2.15,0,0,0-.16-4.09,17.41,17.41,0,0,0-3.93-.44c-2.6,0-5.21-.06-7.81,0l-3.77,0a17.72,17.72,0,0,1-1.78.05l-.85-.15,7-1.67a65.4,65.4,0,0,1,7.9-1.31,13.73,13.73,0,0,0,5.27-1.35l0,0a2.4,2.4,0,0,0-1.24-4.45c-3.68,0-7.36-.11-11-.12-1.84,0-3.69,0-5.53,0-.86,0-1.73.11-2.59.08-.43,0-1.16-.34-1.39-.34,1.86,0,3.19-.81,4.89-1.32a22,22,0,0,1,4.14-.59c3-.29,5.24-1.4,8-2.6,1.92-.83,4.51-1.35,5.66-3.07A1.68,1.68,0,0,0,554.79,544.49Z"/><path class="cls-20" d="M563.5,507.14c-2.17.09-5,1.16-4.7,3.3.16,1.22,1.32,2,2.44,2.55l.31.14c-8.33,11.8-13.88,20.39-21,30.81a109.55,109.55,0,0,1,12.94-.13,1.71,1.71,0,0,1,1.27.68,13.37,13.37,0,0,0,8.85-3.17c.5-.48,3.27-6,2.69-6,3.42-.61,9-14.11,6.52-16.91a8.67,8.67,0,0,0,2.63-9.27l-.77-.6a34.23,34.23,0,0,0-8.88-1.41C565.05,507.1,564.27,507.11,563.5,507.14Z"/><path class="cls-20" d="M549.65,513.67a.79.79,0,0,1,.42-.25c.39-.06.79,0,1.18,0a1.69,1.69,0,0,0,1.17-1.89c-.48-3.64-7.56-4.67-10.34-4.91a42.78,42.78,0,0,0-11.55.86,11.91,11.91,0,0,0-4.83,2.05c-.27.19-.56.38-.85.55-2.32,1.35-6.71,4.51-9.1,6.27a8.08,8.08,0,0,1-3.71,1.51l-26.74,3.79c-.82,10-.37,22,.05,30.16q16.31-2.64,32.66-4.95l5.45-.31c1.15-.26,2.3-.51,3.45-.74.62-.12,2-2.85,2.45-3.42.93-1.3,1.87-2.6,2.8-3.91l6-8.36,6.3-8.8c1.06-1.49,2.13-3,3.19-4.45A21.59,21.59,0,0,1,549.65,513.67Z"/><path class="cls-5" d="M458.73,449.19c2.46,2.56,3.92,5.91,5.26,9.19,8.64,21.13,14.58,41.16,17.63,63.56,1.39-.09,2.61-.18,3-.24l.67-.09c-.82,10-.37,22,.05,30.16q-18,2.9-35.91,6.18a279.72,279.72,0,0,1,8.2,27.09c.63,2.56,1.2,5.05,1.7,7.43-18,7.81-37.4,10.81-56.94,11.24-12.41.28-39.42,3.07-48.26-7.3-2.69-3.15-4.32-7-5.81-10.92-2.09-5.43-4-11-5.77-16.6a275.64,275.64,0,0,1-7.48-29.66c-3.58-18.52-6.19-38.26-2.49-57,3-15,9.16-26.28,21.24-35.62,7-5.39,18.41-9.07,28.58-10.18,2-18.75,3.51-38,5.25-56.57.41-4.32.94-8.81,3.24-12.5a21,21,0,0,1,9.29-7.52c14.4-6.68,33-2.69,43.42,9.29a36.15,36.15,0,0,1,9.86,6.64c1.35,1.28,2.69,2.83,2.76,4.7.11,2.42-1.8,4.1-4.13,5.21a19.48,19.48,0,0,1-3.34,1.16q-4.5,1.11-9.06,1.89-1.12,9.78-2.24,19.56c-.38,3.34-.86,6.92-3.12,9.43-3.91,4.35-10.88,3.32-16.55,1.84l-.15.34a51,51,0,0,0,8.68,3l-.89,13.75C439.54,438.59,451,441.11,458.73,449.19ZM399,393.79a4.19,4.19,0,1,0-4.18-4.19A4.2,4.2,0,0,0,399,393.79Z"/><path class="cls-18" d="M411.4,392.41l.27-1.75c.16-1.06,10.05.1,11.15,0,5.7-.27,11.32-1.35,17-1.95-.87,6.35-2.34,13.14-2.34,19.54-.38,3.34-.86,6.92-3.12,9.43-5.3,5.88-17,2.89-22.56-1a7.29,7.29,0,0,1-2.49-2.57,8.43,8.43,0,0,1-.43-4.68C409.48,403.78,410.49,398.1,411.4,392.41Z"/><path class="cls-17" d="M410.1,400.47c8.78,3.07,18.33,5.19,27.67,2.38a53.19,53.19,0,0,0-.31,5.45c-.38,3.34-.86,6.92-3.12,9.43-5.3,5.88-17,2.89-22.56-1a7.29,7.29,0,0,1-2.49-2.57,8.43,8.43,0,0,1-.43-4.68C409.19,406.49,409.63,403.48,410.1,400.47Z"/><path class="cls-11" d="M312.27,945.92h0c15.13-81,30.28-146.47,26.9-230.22-1.94-48-19.45-101.77,3.38-146.81"/><path class="cls-11" d="M520,947.84c-2.12-66.13-5.2-189-5.2-189a577.05,577.05,0,0,0-38.33-177.09"/><path class="cls-11" d="M399.59,947.92c8.87-65.74,22.1-181.14,22.1-181.14,1-3.12.67-13.65.52-16.93q-1.77-40.59-.77-81.22.68-28,2.68-55.91"/><path class="cls-11" d="M391.4,554.2c0-27.25-6.79-62-12.51-92.64"/><path class="cls-11" d="M391.62,436.2c-11.63-.84-28.56,3.3-37.79,10.42-12.08,9.34-18.28,20.64-21.24,35.62-3.7,18.73-1.09,38.47,2.49,57a275.57,275.57,0,0,0,13.25,46.26c1.49,3.87,3.12,7.77,5.81,10.92C363,606.78,390,604,402.4,603.71c19.54-.43,38.94-3.43,56.94-11.24"/><path class="cls-11" d="M481.65,521.32c-3-22.47-9-41.75-17.66-62.94-1.34-3.28-2.8-6.63-5.26-9.19-8.58-8.93-21.62-11.06-37.82-13.09"/><path class="cls-11" d="M445.77,548.58c1.23,2.86,2.45,6,3.67,9.37a272.73,272.73,0,0,1,9.9,34.52"/><path class="cls-11" d="M445.77,548.58c-23.33,1-46.56,3.11-69.2,8.89"/><path class="cls-11" d="M529.57,554.81c3.6-.36,8-2.32,11.6-2.69,3-.29,5.24-1.4,8-2.6,1.92-.83,4.51-1.35,5.66-3.07a1.7,1.7,0,0,0-1.32-2.64,109,109,0,0,0-30.06,2.7l-5.45.31Q483.62,551.7,449.44,558"/><path class="cls-11" d="M529.55,554.59c7.45-.56,15.5-.3,23.14-.23a2.4,2.4,0,0,1,1.24,4.45l0,0a14.06,14.06,0,0,1-5.28,1.35c-5.65.67-11.92,2.51-17.56,3.19"/><path class="cls-11" d="M531.05,563.38q8.41-.24,16.84-.1a18,18,0,0,1,3.93.44,2.15,2.15,0,0,1,.16,4.09,48,48,0,0,1-20.91,2.6"/><path class="cls-11" d="M531.07,570.41c7-.15,10,1,17,.86,1.36,0,3.18.33,3.26,1.69-2.1,2.84-6,3.56-9.53,3.78-3.83.23-8.63,1.88-13.93,1.77a22.73,22.73,0,0,0-5.2.53,24.38,24.38,0,0,1-3.2.44c-5.78.53-11.42,1.86-17.25,2.16-5.46.28-13.88-2.62-18.77-1.48q-12.57,3-25.38,4.76"/><path class="cls-11" d="M537.58,515a55.67,55.67,0,0,0,12.93-1.32,2.28,2.28,0,0,0,.7-4.17,20.59,20.59,0,0,0-9.13-2.92,42.88,42.88,0,0,0-11.56.86,12.13,12.13,0,0,0-4.82,2h0a9.74,9.74,0,0,1-.86.56c-2.31,1.35-6.7,4.51-9.09,6.27a8.19,8.19,0,0,1-3.71,1.51l-26.74,3.79-.67.09c-1,.14-7.17.49-8.17.62"/><path class="cls-11" d="M566.89,514.48a16.15,16.15,0,0,1-5.34-1.35c-.23-.09-.47-.22-.7-.3a3,3,0,0,1-1.71-1.37c-1.46-2.82,1.87-4.22,4.36-4.32.77,0,1.55,0,2.33,0a34.23,34.23,0,0,1,8.88,1.41,2.77,2.77,0,0,1,1,1.68,8.74,8.74,0,0,1-2.52,7.85.6.6,0,0,0-.14.71c2,3.7-.88,9.78-2.89,12.89-1.16,1.77-2.91,2.6-4.12,4.06s-1.37,3.59-2.39,5.11a9.41,9.41,0,0,1-8.67,3.59"/><path class="cls-11" d="M485.3,521.61c-.82,10-.37,22,.05,30.16"/><path class="cls-11" d="M569.3,502.33a20.36,20.36,0,0,0-8.72-3.58"/><path class="cls-11" d="M561.55,513.13c-8.33,11.8-13.88,20.39-21,30.81"/><path class="cls-11" d="M549.79,513.82c-8,11.2-16.42,22.94-22.88,31.95a1,1,0,0,1-.09.13"/><path class="cls-11" d="M565.83,507.13c1.11-1.54,2.26-3.14,3.47-4.8l2-1.74a1.94,1.94,0,0,0-.35-3.17l-5.87-3.16a1.94,1.94,0,0,0-2.65.84l-1.85,3.65-8.46,11.82"/><path class="cls-11" d="M464.36,473.39a298.26,298.26,0,0,1,5.31,80.44"/><path class="cls-11" d="M520.18,520.65a16.27,16.27,0,0,0-1.34,12.59"/><path class="cls-11" d="M519.25,533.25A16.54,16.54,0,0,0,518,539.8"/><path class="cls-11" d="M382.35,436.25c2-18.94,3.55-37.65,5.32-56.38.4-4.32.93-8.81,3.23-12.49,2.14-3.44,5.62-5.84,9.28-7.53,14.44-6.69,33.08-2.67,43.49,9.37"/><path class="cls-11" d="M425.43,436.69l.89-13.75"/><path class="cls-11" d="M411.55,391.21l-2.32,19.58"/><path class="cls-11" d="M442.92,368.83a36.27,36.27,0,0,1,10.55,6.95c1.36,1.28,2.69,2.83,2.77,4.69.15,3.56-4,5.52-7.48,6.38a128.24,128.24,0,0,1-42.18,3.23"/><path class="cls-11" d="M409.36,415.16a51.15,51.15,0,0,0,39.25,8.38h0a1.35,1.35,0,0,0,1.08-1.22q1.5-18.3,2.4-36.63"/><circle class="cls-21" cx="398.96" cy="389.6" r="4.19"/><path class="cls-11" d="M439.17,372.38a33.93,33.93,0,0,0-36-3.57"/><path class="cls-11" d="M394,406.24l-1,27.36"/><path class="cls-11" d="M439.7,388.74q-1.12,9.78-2.24,19.56c-.38,3.34-.86,6.92-3.12,9.43-3.91,4.35-10.88,3.32-16.55,1.84"/><path class="cls-11" d="M433.66,948.36c1.82-51.74,5.28-150.24,5.93-168.74a27,27,0,0,0-.46-6q-10-52.29-17.69-105"/><path class="cls-11" d="M399.59,947.92q-6.69.76-13.21,1.1c-23.35,1.27-45.41-1-69.18-2.75l-4.92-.35h0"/><path class="cls-11" d="M520,947.84c-5.57.4-11.15.77-16.72,1.08q-15.69.9-31.42,1.36c-11.46.34-23.11.48-34.39-1.26-1.27-.2-2.54-.41-3.8-.66"/><path class="cls-11" d="M437.46,949c-1.5,14.56-2.46,35-2.34,49.42"/><path class="cls-11" d="M317.2,946.27a428.93,428.93,0,0,0-4.44,47.6"/><path class="cls-11" d="M503.27,948.92a127.65,127.65,0,0,0,.33,15.89"/><path class="cls-11" d="M385,964.39c.5-5.12,1.13-10.24,1.38-15.37"/><path class="cls-11" d="M385,964.39c13.84,8.24,25.41,20.05,37.25,31a2.5,2.5,0,0,1-1.72,4.35c-34.2-.46-73.45-1.74-107.77-5.82"/><path class="cls-11" d="M503.6,964.81a150.22,150.22,0,0,1,45.07,34.39,1,1,0,0,1-.49,1.61l-2.79.71a929.93,929.93,0,0,1-110.27-3.08"/><path class="cls-11" d="M437.61,402.77c-8.88,1.24-18.67,2.3-26.16-2.64"/><path class="cls-11" d="M431.83,397.33a9.78,9.78,0,0,0,.84,5.64"/><path d="M436.52,398a1.5,1.5,0,0,0,0-3,1.5,1.5,0,0,0,0,3Z"/><path d="M426.32,398.34a1.5,1.5,0,0,0,0-3,1.5,1.5,0,0,0,0,3Z"/><path class="cls-11" d="M427.74,393.07a5.42,5.42,0,0,0-4.26.67"/><path class="cls-11" d="M439.23,393.17a3.55,3.55,0,0,0-3.74-.57"/><path class="cls-20" d="M1484,417.75l-2.11,1.73c2.41.32,4.81.71,7.21,1.14A24.09,24.09,0,0,0,1484,417.75Z"/><path class="cls-20" d="M1466,413.27c-.41,1.73.56,3.47.71,5.24v.16c.27,0,.54,0,.82,0l6.8-5.71-.14-.17a10.92,10.92,0,0,0-2.64-1.6,3.89,3.89,0,0,0-4.8.67A3.24,3.24,0,0,0,1466,413.27Z"/><path class="cls-5" d="M1570.36,389.06a3.62,3.62,0,1,0,3.62,3.63A3.62,3.62,0,0,0,1570.36,389.06Z"/><path class="cls-17" d="M1420.23,511a78.47,78.47,0,0,1-8.11-4.41l-.09.15a64.84,64.84,0,0,1,8.31,6.39q1.67,1.5,3.2,3.13a6.37,6.37,0,0,1,1.67,2.53,2.44,2.44,0,0,1-.83,2.72,3.58,3.58,0,0,1-3.07-.17l-.59-.24a59.39,59.39,0,0,1-7.68-3.67l-.11.17a28.8,28.8,0,0,1,7.6,6.09l.34.42a10.4,10.4,0,0,1,1,1.54,1.76,1.76,0,0,1-.84,2.44l.94,19.2a7,7,0,0,0,7.44,6.68c3.72-.21,3.41-3.31,3.41-7,0-.09-.47-11.91-.47-11.91l-.14-2.4-1.56-27.5a1.11,1.11,0,0,1-.46.36,2.42,2.42,0,0,1-1.69-.11,39.49,39.49,0,0,1-8.79-4.15c-.81-.5-1.59-1-2.36-1.61l2.39,2.29q3.67,3.51,7.33,7a3.25,3.25,0,0,1,1.36,2.5,2.2,2.2,0,0,1-2,1.69,6.17,6.17,0,0,1-2.78-.63C1422.5,512,1421.36,511.53,1420.23,511Z"/><path class="cls-17" d="M1418.05,466.65l.81,16.64.43,8.62a109.44,109.44,0,0,1,10.41,9.67,8.24,8.24,0,0,1,.86,1l-.78-13.71-.07-1.61-.8-20.61Z"/><path class="cls-17" d="M1439.57,442.08a4.6,4.6,0,0,0-.22,6.88,4.77,4.77,0,0,0,6.32.2l17.47-13.49.11-.25c-1.92-.87-3.19-2.43-.54-4.44,2.13-1.61,5-2,7.61-2-.31-.06-9.68-1.37-13-1.85v0Z"/><path class="cls-17" d="M1474.32,412.93l-6.8,5.71a88.22,88.22,0,0,1,14.4.84l2.11-1.73,15.82-12.94-6.66-7.71-18.61,15.61Z"/><path class="cls-5" d="M1420.4,457.11a2.91,2.91,0,0,0-2.89,3.15l.54,6.39h10.86l.58-6.38a2.91,2.91,0,0,0-2.89-3.16Z"/><path class="cls-7" d="M1496.37,393.49l-3.18,3.61,6.66,7.71,3.89-2.23a1.27,1.27,0,0,0,.31-1.75l-5.83-7A1.31,1.31,0,0,0,1496.37,393.49Z"/><path class="cls-20" d="M1471,968.65c-11.65,7.86-22.93,17.05-33.79,26a2,2,0,0,0,1.24,3.46c31.58-.8,69.37-1.29,101-2.1-1-14.54-2.51-35.17-3.65-48V948a532.23,532.23,0,0,1-67.18,1.19l-.07,1.39c.49,6,1.78,11.9,2.26,17.85Z"/><path class="cls-20" d="M1554.18,994a2,2,0,0,0,1.25,3.47c32.21-.8,70.73-1.29,103-2.1-1-14.54-2.56-34.37-3.72-47.15-22.34,1.91-44.78,2.74-67.19,2.49.49,6,1,11.9,1.46,17.86Q1571,980.44,1554.18,994Z"/><path class="cls-20" d="M1412.93,517.59l.11-.17a59.39,59.39,0,0,0,7.68,3.67l.59.24a3.58,3.58,0,0,0,3.07.17,2.44,2.44,0,0,0,.83-2.72,6.37,6.37,0,0,0-1.67-2.53q-1.53-1.63-3.2-3.13a64.84,64.84,0,0,0-8.31-6.39l.09-.15a78.47,78.47,0,0,0,8.11,4.41c1.13.54,2.27,1,3.42,1.52a6.17,6.17,0,0,0,2.78.63,2.2,2.2,0,0,0,2-1.69,3.25,3.25,0,0,0-1.36-2.5q-3.66-3.52-7.33-7l-2.39-2.29c.77.57,1.55,1.11,2.36,1.61a39.49,39.49,0,0,0,8.79,4.15,2.42,2.42,0,0,0,1.69.11,1.11,1.11,0,0,0,.46-.36l-.13-2.55a8.24,8.24,0,0,0-.86-1,109.44,109.44,0,0,0-10.41-9.67l-.43-8.62a15.53,15.53,0,0,0-5.65.59,11.92,11.92,0,0,0-4.49,1.84c-2.41,1.79-3.34,5-3.54,8s.22,6-.17,9c-.6,4.42-3.16,9.77-1.51,14.44,1.89,5.36,9,7.56,13.68,9.91a15.3,15.3,0,0,0,2.75,1.13,1.7,1.7,0,0,0,1.14-.08,1.76,1.76,0,0,0,.84-2.44,10.4,10.4,0,0,0-1-1.54l-.34-.42A28.8,28.8,0,0,0,1412.93,517.59Z"/><path class="cls-20" d="M1429.78,488.87l.78,13.71a3,3,0,0,1,.43.91,1.87,1.87,0,0,1-.3,1.64l1.56,27.5h.14a144.55,144.55,0,0,0,16.68,10.82c6.5-11.85,7.33-22.84,9.28-35l-.26,0c-6.1-6.38-20.15-16.21-28.31-21.16h-.07Z"/><path class="cls-20" d="M1485.92,439.58a42.69,42.69,0,0,0-5.91-1.22Zm3.21-19h0c2,.37,4.1.76,6.13,1.17a18.53,18.53,0,0,1,6.65,2.76l1.49,1a12.39,12.39,0,0,1,2.15,1.67,136.31,136.31,0,0,1,13,16.35,369.34,369.34,0,0,1,19.91,32.61,134.38,134.38,0,0,1-31,16.14,19.29,19.29,0,0,0-2.22-6,119.53,119.53,0,0,0-7-10.86c-6.07-8.39-14.88-18.07-24.86-21.36a25.51,25.51,0,0,1-9-4.75,2.25,2.25,0,0,1,1-3.86,8.53,8.53,0,0,1,3.34-.06c2.16.38,4,.19,13.14,3q-7.58-2.42-15.14-4.79c-1.18-.38-2.5-.89-2.92-2.05-.77-2.18,2.21-3.7,4.5-3.9a58,58,0,0,1,11.71.61c-4.75-1-9.62-1.41-14.41-2.23a9.56,9.56,0,0,1-2.31-.7c-1.92-.87-3.19-2.43-.54-4.44,2.13-1.61,5-2,7.61-2-.31-.06-9.68-1.37-13-1.85l-1.11-.16c-1.51-.27-3.2-.75-3.58-2.48a3,3,0,0,1,.49-2.31c1.1-1.62,3-2.13,4.8-2.49a56.56,56.56,0,0,1,8.76-1c.27,0,.54,0,.82,0a88.22,88.22,0,0,1,14.4.84C1484.33,419.8,1486.73,420.19,1489.13,420.62Z"/><path class="cls-5" d="M1448.11,545.15,1461,558.62c9,9.43,26.68,25.1,38.9,28.71q1-2.21,1.92-4.36a11.43,11.43,0,0,0,1-4.56c.18-15,2.63-29.6,3.1-44.38a171.24,171.24,0,0,1-25.8-10.78,75.21,75.21,0,0,1-13.64-9.16c-2.38-2.06-5.51-4.23-8-6.12,0,.16-.06.33-.08.49-1.95,12.14-2.78,23.13-9.28,35C1448.77,544,1448.44,544.58,1448.11,545.15Z"/><path class="cls-5" d="M1480.08,523.25l.05-.69c4.21-16.45,11.65-31.39,18.14-47.07a119.53,119.53,0,0,1,7,10.86,19.29,19.29,0,0,1,2.22,6,134.38,134.38,0,0,0,31-16.14,369.34,369.34,0,0,0-19.91-32.61,42.17,42.17,0,0,1,25.89-8.48l.6,0c-.15-2.58-.28-5.15-.43-7.72-6.91.08-13.29-1.79-22.67-5.67a3.46,3.46,0,0,1-2.1-2.62c-1-5.67-3.84-22.83-4.16-32.26l-.06-2.42a7.77,7.77,0,0,1,.5-2.9c3.82-10.05,13.84-16.76,24.06-20.45,15-5.41,40.07-2,44.39,16.33,1.45,6.14.74,12.56.16,18.85q-1.93,20.91-1.88,41.94c37.87,4.69,49.84,17.57,56.54,41.34,2,7.12,2.37,14.59,2.51,22,.52,25.58-7.23,54.6-11.55,79.81,11,29.92,7.54,62.91,5.63,94.73a894.53,894.53,0,0,0,25.4,271.6c-2.22.21-4.43.41-6.65.59-22.34,1.91-44.78,2.74-67.19,2.49q-5.27-.06-10.55-.19-15.2-88.18-23.43-177.37l.12-2.87q-1.93-37.93-3.93-75.86-9.67,39.44-16.07,79.58s2.17,104.06,5.8,173.68c-1.22.1-2.43.21-3.66.3a532.23,532.23,0,0,1-67.18,1.19q-6.87-.3-13.73-.79c-1.71-66.91.46-182.94.46-182.94,5.3-58.77,22.13-126.69,44.49-178.1q1-2.21,1.92-4.36a11.43,11.43,0,0,0,1-4.56c.18-15,2.63-29.6,3.1-44.38A171.24,171.24,0,0,1,1480.08,523.25Zm90.28-126.95a3.62,3.62,0,1,0-3.62-3.61A3.62,3.62,0,0,0,1570.36,396.3Z"/><path class="cls-18" d="M1542.81,421.91c6.4,2.13,12.8-.17,18.86-2.23.36-.12.77-.28.9-.64a1.27,1.27,0,0,0,0-.67c-.71-4.06-1.55-8-1.91-12.14a82.28,82.28,0,0,1-.05-12.56c0-.42,0-.92-.33-1.15a1.21,1.21,0,0,0-.68-.11c-3.88.14-7.78.36-11.66.32-5-.05-9.79-1.39-14.73-2.08a.69.69,0,0,0-.55.07c-.2.14-.19.44-.17.68a148.72,148.72,0,0,0,5,25.52C1538.2,419.5,1540.31,421.06,1542.81,421.91Z"/><path class="cls-17" d="M1560.58,405c0,.4,0,.8.08,1.19.36,4.13,1.2,8.08,1.91,12.14a1.27,1.27,0,0,1,0,.67c-.13.36-.54.52-.9.64-6.06,2.06-12.46,4.36-18.86,2.23-2.5-.85-4.61-2.41-5.35-5-1.12-3.87-2.07-7.8-2.86-11.76C1542.63,408.86,1551.87,407.08,1560.58,405Z"/><path class="cls-11" d="M1661.37,947.62A894.53,894.53,0,0,1,1636,676c1.91-31.82,5.38-64.81-5.63-94.73"/><path class="cls-11" d="M1505.78,522.87c1,18.62-2.78,36.84-3,55.54a11.43,11.43,0,0,1-1,4.56c-23.3,51.88-41,122-46.41,182.46,0,0-2.17,116-.46,182.94"/><path class="cls-11" d="M1549.74,694.41q-9.67,39.44-16.07,79.58s2.17,104.06,5.8,173.68"/><path class="cls-11" d="M1577,950.51q-15.2-88.18-23.43-177.37l.12-2.87q-1.93-37.93-3.93-75.86-1.82-34.8-3.69-69.6"/><path class="cls-11" d="M1539.47,947.67a534.19,534.19,0,0,1-84.57.7"/><path class="cls-11" d="M1661.37,947.62a703.35,703.35,0,0,1-84.39,2.89"/><path class="cls-11" d="M1582.18,438.06c38.39,4.62,50.46,17.52,57.2,41.43,2,7.12,2.37,14.59,2.51,22,.51,25.57-7.23,54.61-11.55,79.82"/><path class="cls-11" d="M1498.27,475.49c-6.49,15.68-13.93,30.62-18.14,47.07"/><path class="cls-11" d="M1544.43,435.1a42.17,42.17,0,0,0-25.89,8.48"/><path class="cls-11" d="M1586.46,474.4a203.37,203.37,0,0,0-21.1,37"/><path class="cls-11" d="M1545.12,427.49c.15,2.75-.21,4.57-.06,7.33"/><path class="cls-11" d="M1470.32,429c-.37-.07-13.72-1.94-14.09-2-1.51-.27-3.2-.75-3.58-2.48a3,3,0,0,1,.49-2.31c1.1-1.62,3-2.13,4.8-2.49a56.3,56.3,0,0,1,9.58-1.06,88.22,88.22,0,0,1,14.4.84c4.48.6,8.93,1.43,13.35,2.32a18.53,18.53,0,0,1,6.65,2.76l1.49,1a12.39,12.39,0,0,1,2.15,1.67,136.31,136.31,0,0,1,13,16.35,369.34,369.34,0,0,1,19.91,32.61l.38.69c10.72,13.43,15.61,19.92,26.53,34.53,5.74,7.66,13.13,17.56,23.89,31.86"/><path class="cls-11" d="M1560.94,392.64a113.58,113.58,0,0,0,2.38,29.31"/><path class="cls-11" d="M1555.46,392.55a63.15,63.15,0,0,1-34.59-6.87"/><path class="cls-11" d="M1560.72,424.43c-15.71,4.64-23,3.78-38.79-2.75a3.46,3.46,0,0,1-2.1-2.61c-1-5.68-3.84-22.84-4.16-32.27l-.06-2.42a7.77,7.77,0,0,1,.5-2.9c3.82-10.05,13.85-16.76,24.05-20.45,15-5.41,40.08-2,44.4,16.33,1.45,6.14.74,12.56.16,18.85-1.29,14-1.92,28-1.88,42"/><path class="cls-11" d="M1485.92,439.58l-5.91-1.22c-4.77-1-9.64-1.43-14.45-2.24-2.67-.45-6.53-2.36-2.85-5.14,2.13-1.61,5-2,7.61-2,.91,0,1.83,0,2.73.1a116.68,116.68,0,0,1,14.7,2.63"/><path class="cls-11" d="M1485.92,439.58a60.34,60.34,0,0,0-17.65-1.84c-2.3.2-5.28,1.72-4.51,3.9.41,1.16,1.74,1.67,2.92,2l16,5.08"/><path class="cls-11" d="M1634,493.8a331.51,331.51,0,0,1-43,75c-5.85,7.67-12.35,15.33-20.85,19.71a14.65,14.65,0,0,1-4.52,1.44l-2.39.38a15.68,15.68,0,0,1-11.51-2.65c-14.45-10.18-25-25.52-31.94-41.89-7.41-17.45-9-34.74-12.27-53.24a2.38,2.38,0,0,0,0-.26,19.29,19.29,0,0,0-2.22-6,119.53,119.53,0,0,0-7-10.86c-6.07-8.39-14.88-18.07-24.86-21.36a25.51,25.51,0,0,1-9-4.75,2.25,2.25,0,0,1,1-3.86,8.53,8.53,0,0,1,3.34-.06c2.23.38,4.17.18,14,3.3"/><path class="cls-11" d="M1538.45,476.19a134.38,134.38,0,0,1-31,16.14"/><path class="cls-11" d="M1458.43,508c-2.11,12.91-2.85,24.5-10.32,37.18"/><path class="cls-11" d="M1530,376.15c7.52-4,15.58-7.46,24.09-7.77s17.58,3.12,22.06,10.36c5.49,8.88,2.82,20.25,1.34,30.59a116.23,116.23,0,0,0-.49,28.93"/><circle class="cls-21" cx="1570.36" cy="392.68" r="3.62"/><path class="cls-11" d="M1505.9,534c-13.27-4.49-28.87-10.77-39.46-19.94-2.38-2.06-5.51-4.23-8-6.12"/><path class="cls-11" d="M1499.85,587.33c-12.22-3.61-29.92-19.28-38.9-28.71l-12.84-13.47"/><path class="cls-11" d="M1413.66,487.61q2.88,2.06,5.63,4.3a109.44,109.44,0,0,1,10.41,9.67,4.7,4.7,0,0,1,1.29,1.91,1.69,1.69,0,0,1-.76,2,2.42,2.42,0,0,1-1.69-.11,39.49,39.49,0,0,1-8.79-4.15c-.81-.5-1.59-1-2.36-1.61-.45-.33-1.69-1.48-2.12-1.82"/><path class="cls-11" d="M1417.39,499.62l2.39,2.29q3.67,3.51,7.33,7a3.25,3.25,0,0,1,1.36,2.5,2.2,2.2,0,0,1-2,1.69,6.17,6.17,0,0,1-2.78-.63c-1.15-.48-2.29-1-3.42-1.52a76.82,76.82,0,0,1-8.17-4.45"/><path class="cls-11" d="M1412,506.73a64.84,64.84,0,0,1,8.31,6.39q1.67,1.5,3.2,3.13a6.37,6.37,0,0,1,1.67,2.53,2.44,2.44,0,0,1-.83,2.72,3.58,3.58,0,0,1-3.07-.17l-.59-.24a59.9,59.9,0,0,1-10-5"/><path class="cls-11" d="M1410,516c4,2.15,7.57,4.25,10.51,7.71l.34.42a10.4,10.4,0,0,1,1,1.54,1.76,1.76,0,0,1-.84,2.44,1.7,1.7,0,0,1-1.14.08,15.3,15.3,0,0,1-2.75-1.13c-4.67-2.35-11.79-4.55-13.68-9.91-1.65-4.67.91-10,1.51-14.44.39-3,0-6,.17-9s1.13-6.18,3.54-8a11.92,11.92,0,0,1,4.49-1.84,15.53,15.53,0,0,1,5.65-.59"/><path class="cls-11" d="M1458.09,508.42c-6.1-6.38-20.15-16.21-28.31-21.16"/><path class="cls-11" d="M1421.07,528.08l.94,19.2a7,7,0,0,0,7.44,6.68c3.72-.21,3.41-3.31,3.41-7,0-.09-.47-11.91-.47-11.91l-2.61-46.16-.87-22.22h-10.86l.81,16.64.43,8.62"/><path class="cls-11" d="M1449.07,543.44a144.55,144.55,0,0,1-16.68-10.82"/><path class="cls-11" d="M1466.69,418.51c-.15-1.77-1.12-3.51-.71-5.24a3.4,3.4,0,0,1,.76-1.44,3.89,3.89,0,0,1,4.8-.67,10.62,10.62,0,0,1,2.64,1.6"/><path class="cls-11" d="M1481.92,419.48l17.93-14.67-6.66-7.71-18.61,15.61-7.06,5.93A88.22,88.22,0,0,1,1481.92,419.48Z"/><path class="cls-11" d="M1457.34,427.18l-17.77,14.9a4.6,4.6,0,0,0-.22,6.88,4.77,4.77,0,0,0,6.32.2l17.47-13.49"/><path class="cls-11" d="M1493.19,397.11l3.18-3.62a1.31,1.31,0,0,1,1.85.33l5.83,7a1.29,1.29,0,0,1-.31,1.76l-3.89,2.22"/><path class="cls-11" d="M1418.05,466.65l-.54-6.39a2.9,2.9,0,0,1,2.89-3.15h6.19a2.91,2.91,0,0,1,2.9,3.17l-.58,6.37"/><path class="cls-11" d="M1658.44,995.36c-1-14.54-2.56-34.37-3.72-47.15"/><path class="cls-11" d="M1587.53,950.7c.49,6,1,11.9,1.46,17.86"/><path class="cls-11" d="M1658.44,995.36c-32.28.81-70.8,1.3-103,2.1a2,2,0,0,1-1.27-3.47Q1571,980.45,1589,968.56"/><path class="cls-11" d="M1539.47,996c-1-14.54-2.51-35.17-3.65-48"/><path class="cls-11" d="M1468.56,950.55c.49,6,1.78,11.9,2.26,17.85"/><path class="cls-11" d="M1539.47,996c-31.67.81-69.46,1.3-101,2.1a2,2,0,0,1-1.23-3.47c11-9,22.37-18.32,34.15-26.24"/><path class="cls-11" d="M1488.29,420a14.38,14.38,0,0,0-4.42-2.32"/><path class="cls-11" d="M1532,390.84l4,21.32a16.29,16.29,0,0,0,2,6.13c2.9,4.36,9.13,4.88,14.3,4a44.89,44.89,0,0,0,10.35-3"/><path class="cls-11" d="M1561,404.79a44.55,44.55,0,0,1-25.85.2"/><path class="cls-11" d="M1540.16,400.31a25.68,25.68,0,0,1-.26,5.54"/><path d="M1546.68,400.8v.32a1.06,1.06,0,0,0,.13.58,1.36,1.36,0,0,0,.79.79,1.06,1.06,0,0,0,.58.13l.39-.05a1.47,1.47,0,0,0,.67-.39l.23-.3a1.45,1.45,0,0,0,.21-.76v-.32a1.27,1.27,0,0,0-.13-.58,1.34,1.34,0,0,0-.8-.79,1,1,0,0,0-.57-.13l-.4.05a1.39,1.39,0,0,0-.66.39l-.24.3a1.54,1.54,0,0,0-.2.76Z"/><path d="M1534.43,400.15v.33a1.27,1.27,0,0,0,.13.58,1.24,1.24,0,0,0,.31.48,1.11,1.11,0,0,0,.49.31,1.14,1.14,0,0,0,.57.13l.4-.05a1.47,1.47,0,0,0,.67-.39l.23-.3a1.47,1.47,0,0,0,.2-.76v-.33a1.13,1.13,0,0,0-.12-.57,1.32,1.32,0,0,0-.8-.8,1.27,1.27,0,0,0-.58-.13l-.39.06a1.54,1.54,0,0,0-.67.38l-.23.31a1.51,1.51,0,0,0-.21.75Z"/><path class="cls-11" d="M1552.27,398.76a7,7,0,0,0-4.61-.87"/><path class="cls-11" d="M1537.9,397.21a5.39,5.39,0,0,0-3.23.09"/></g></svg>