<svg xmlns="http://www.w3.org/2000/svg" viewBox="0 0 1920 1080"><defs><style>.cls-1{fill:#f7f8fa;}.cls-2{fill:#729ce4;}.cls-14,.cls-3{fill:#fff;}.cls-17,.cls-20,.cls-3{stroke:#31434d;}.cls-17,.cls-19,.cls-3,.cls-8,.cls-9{stroke-linecap:round;}.cls-17,.cls-18,.cls-19,.cls-20,.cls-23,.cls-3,.cls-8,.cls-9{stroke-miterlimit:10;}.cls-4{fill:#7b176e;}.cls-5{fill:#53bcf7;}.cls-6{fill:#edeeef;}.cls-7{fill:#f6d080;}.cls-17,.cls-18,.cls-19,.cls-20,.cls-23,.cls-8,.cls-9{fill:none;}.cls-8{stroke:#f6d080;stroke-width:4px;}.cls-19,.cls-9{stroke:#fff;}.cls-10{fill:#052251;}.cls-11{fill:#276ce4;}.cls-12{fill:#0f379a;}.cls-13{fill:#09102d;}.cls-15{fill:#ffe1cf;}.cls-16{fill:#31434d;}.cls-18{stroke:#b2d3f7;}.cls-18,.cls-19{stroke-width:2px;}.cls-21{fill:#dde7fe;}.cls-22{fill:#0c2c7a;}.cls-23{stroke:#53bcf7;}.cls-24{fill:#f6a001;}</style></defs><title>2019-nCov11</title><g id="background"><path class="cls-1" d="M435.07,1015H1278.4c75.1,0,136.55-86.07,136.55-191.27V819a45.47,45.47,0,0,1,45.39-45.72h10.89c114.92,0,193-107.47,223.63-207.31,41.75-136.16-26.73-277.11-130.1-368.32C1472.83,116.54,1354.57,70.71,1234.92,44A1263.7,1263.7,0,0,0,888.84,15.53c-122,6.85-246.73,33.09-347,103S370.5,308.92,384.81,430.31c5.8,49.25,25.57,96.82,25.75,146.76.17,47.25-46.79,71.12-76.35,103C287.3,730.79,274.67,807.88,296,872.64,316.18,934,361.42,1015,435.07,1015Z"/><rect class="cls-2" x="629.84" y="124.9" width="55.01" height="34.1"/><rect class="cls-2" x="80.04" y="124.9" width="55.01" height="34.1"/><rect class="cls-2" x="1237.13" y="124.9" width="55.01" height="34.1"/><rect class="cls-2" x="1758.87" y="124.9" width="55.01" height="34.1"/><rect class="cls-3" x="437.05" y="617.03" width="87.37" height="30.48"/><rect class="cls-4" x="1383.06" y="687.45" width="25.42" height="25.42"/><rect class="cls-3" x="1297.22" y="725.54" width="121.31" height="30.67"/><rect class="cls-3" x="540.59" y="711.65" width="46.55" height="46.55"/><rect class="cls-5" x="1147.82" y="950.47" width="34.6" height="34.6"/><ellipse class="cls-6" cx="357.43" cy="999.57" rx="197.51" ry="15.39"/><ellipse class="cls-6" cx="1573.76" cy="1004.46" rx="197.51" ry="15.39"/><ellipse class="cls-6" cx="947.99" cy="999.49" rx="197.51" ry="15.39"/><ellipse class="cls-7" cx="556.18" cy="270.95" rx="30.14" ry="28.83"/><line class="cls-8" x1="537.09" y1="277.19" x2="512.2" y2="292.43"/><line class="cls-8" x1="559.6" y1="223.3" x2="559.48" y2="250.23"/><line class="cls-8" x1="576.2" y1="274.2" x2="608.15" y2="272.81"/><line class="cls-8" x1="537.18" y1="257.27" x2="524.83" y2="241.99"/><line class="cls-8" x1="596.43" y1="250.22" x2="564.66" y2="267.17"/><polyline class="cls-8" points="591.5 287.07 566.68 280.74 585.53 308.62"/><line class="cls-8" x1="537.14" y1="265.99" x2="512.32" y2="264.68"/><line class="cls-8" x1="548.92" y1="279.28" x2="532.86" y2="300.46"/><line class="cls-8" x1="556.12" y1="283.28" x2="554.97" y2="312.69"/><path class="cls-8" d="M545.31,236.7c3.3,7.52,2.47,9.07,5.77,16.59"/><path class="cls-8" d="M574.19,239.71c-4.6,5.81-5,9.65-9.63,15.46"/><ellipse class="cls-7" cx="586.87" cy="310.14" rx="7.77" ry="7.43"/><ellipse class="cls-7" cx="559.6" cy="223.3" rx="7.77" ry="7.43"/><ellipse class="cls-7" cx="595.64" cy="288.51" rx="7.77" ry="7.43"/><ellipse class="cls-7" cx="576.36" cy="236.83" rx="7.77" ry="7.43"/><ellipse class="cls-7" cx="594.6" cy="251.94" rx="7.77" ry="7.43"/><ellipse class="cls-7" cx="545.33" cy="232.91" rx="7.77" ry="7.43"/><ellipse class="cls-7" cx="610.15" cy="272.5" rx="7.77" ry="7.43"/><ellipse class="cls-7" cx="511.64" cy="264.67" rx="7.77" ry="7.43"/><ellipse class="cls-7" cx="524.03" cy="240.26" rx="7.77" ry="7.43"/><ellipse class="cls-7" cx="530.77" cy="303.47" rx="7.77" ry="7.43"/><ellipse class="cls-7" cx="554.94" cy="317.44" rx="7.77" ry="7.43"/><ellipse class="cls-7" cx="511.52" cy="292.43" rx="7.77" ry="7.43"/><ellipse class="cls-9" cx="557.03" cy="260.78" rx="7.95" ry="7.6"/><ellipse class="cls-9" cx="567.39" cy="278.55" rx="2.58" ry="2.47"/><ellipse class="cls-9" cx="548.06" cy="279.09" rx="4.53" ry="4.33"/><ellipse class="cls-7" cx="1741.74" cy="361.28" rx="34.64" ry="33.13"/><line class="cls-8" x1="1719.81" y1="368.45" x2="1691.2" y2="385.97"/><line class="cls-8" x1="1745.67" y1="306.53" x2="1745.54" y2="337.47"/><line class="cls-8" x1="1764.74" y1="365.02" x2="1801.46" y2="363.42"/><line class="cls-8" x1="1719.91" y1="345.56" x2="1705.72" y2="328.01"/><line class="cls-8" x1="1787.99" y1="337.47" x2="1751.49" y2="356.94"/><polyline class="cls-8" points="1782.32 379.81 1753.8 372.53 1775.47 404.57"/><line class="cls-8" x1="1719.86" y1="355.59" x2="1691.34" y2="354.08"/><line class="cls-8" x1="1733.4" y1="370.85" x2="1714.94" y2="395.2"/><line class="cls-8" x1="1741.67" y1="375.45" x2="1740.35" y2="409.25"/><path class="cls-8" d="M1729.25,321.93c3.79,8.64,2.84,10.42,6.63,19.06"/><path class="cls-8" d="M1762.44,325.39c-5.28,6.67-5.78,11.08-11.07,17.76"/><ellipse class="cls-7" cx="1777" cy="406.32" rx="8.92" ry="8.54"/><ellipse class="cls-7" cx="1745.67" cy="306.53" rx="8.92" ry="8.54"/><ellipse class="cls-7" cx="1787.09" cy="381.47" rx="8.92" ry="8.54"/><ellipse class="cls-7" cx="1764.93" cy="322.08" rx="8.92" ry="8.54"/><ellipse class="cls-7" cx="1785.88" cy="339.44" rx="8.92" ry="8.54"/><ellipse class="cls-7" cx="1729.27" cy="317.58" rx="8.92" ry="8.54"/><ellipse class="cls-7" cx="1803.76" cy="363.07" rx="8.92" ry="8.54"/><ellipse class="cls-7" cx="1690.56" cy="354.07" rx="8.92" ry="8.54"/><ellipse class="cls-7" cx="1704.8" cy="326.01" rx="8.92" ry="8.54"/><ellipse class="cls-7" cx="1712.54" cy="398.65" rx="8.92" ry="8.54"/><ellipse class="cls-7" cx="1740.32" cy="414.71" rx="8.92" ry="8.54"/><ellipse class="cls-7" cx="1690.42" cy="385.97" rx="8.92" ry="8.54"/><ellipse class="cls-9" cx="1742.71" cy="349.6" rx="9.14" ry="8.74"/><ellipse class="cls-9" cx="1754.62" cy="370.02" rx="2.97" ry="2.84"/><ellipse class="cls-9" cx="1732.41" cy="370.63" rx="5.2" ry="4.98"/><ellipse class="cls-7" cx="540.19" cy="889.8" rx="25.53" ry="24.42"/><line class="cls-8" x1="524.03" y1="895.09" x2="502.94" y2="908"/><line class="cls-8" x1="543.1" y1="849.44" x2="542.99" y2="872.25"/><line class="cls-8" x1="557.15" y1="892.56" x2="584.22" y2="891.38"/><line class="cls-8" x1="524.1" y1="878.21" x2="513.64" y2="865.27"/><line class="cls-8" x1="574.29" y1="872.25" x2="547.38" y2="886.6"/><polyline class="cls-8" points="570.11 903.46 549.09 898.1 565.06 921.72"/><line class="cls-8" x1="524.07" y1="885.61" x2="503.04" y2="884.49"/><line class="cls-8" x1="534.05" y1="896.86" x2="520.44" y2="914.81"/><line class="cls-8" x1="540.15" y1="900.25" x2="539.17" y2="925.16"/><path class="cls-8" d="M531,860.79c2.79,6.37,2.09,7.68,4.89,14.05"/><path class="cls-8" d="M555.45,863.35c-3.89,4.91-4.26,8.17-8.15,13.08"/><ellipse class="cls-7" cx="566.19" cy="923.01" rx="6.58" ry="6.29"/><ellipse class="cls-7" cx="543.1" cy="849.44" rx="6.58" ry="6.29"/><ellipse class="cls-7" cx="573.63" cy="904.68" rx="6.58" ry="6.29"/><ellipse class="cls-7" cx="557.29" cy="860.9" rx="6.58" ry="6.29"/><ellipse class="cls-7" cx="572.74" cy="873.7" rx="6.58" ry="6.29"/><ellipse class="cls-7" cx="531" cy="857.59" rx="6.58" ry="6.29"/><ellipse class="cls-7" cx="585.92" cy="891.12" rx="6.58" ry="6.29"/><ellipse class="cls-7" cx="502.47" cy="884.49" rx="6.58" ry="6.29"/><ellipse class="cls-7" cx="512.97" cy="863.8" rx="6.58" ry="6.29"/><ellipse class="cls-7" cx="518.67" cy="917.35" rx="6.58" ry="6.29"/><ellipse class="cls-7" cx="539.15" cy="929.19" rx="6.58" ry="6.29"/><ellipse class="cls-7" cx="502.36" cy="908" rx="6.58" ry="6.29"/><ellipse class="cls-9" cx="540.91" cy="881.19" rx="6.73" ry="6.44"/><ellipse class="cls-9" cx="549.69" cy="896.24" rx="2.19" ry="2.09"/><ellipse class="cls-9" cx="533.31" cy="896.7" rx="3.84" ry="3.67"/><rect class="cls-3" x="80.04" y="160.6" width="1732.64" height="24.27"/><rect class="cls-3" x="248.41" y="580.31" width="815.95" height="24.27" transform="translate(1248.83 -63.95) rotate(90)"/><rect class="cls-3" x="855.66" y="580.31" width="815.95" height="24.27" transform="translate(1856.08 -671.2) rotate(90)"/><rect class="cls-5" x="407.67" y="163.83" width="85.92" height="24.27"/><rect class="cls-5" x="444.67" y="187.47" width="9.73" height="45.11"/><rect class="cls-5" x="1391.94" y="159.83" width="85.92" height="24.27"/><rect class="cls-5" x="1428.94" y="184.47" width="9.73" height="26.11"/><rect class="cls-5" x="1011.94" y="163.83" width="85.92" height="24.27"/><rect class="cls-5" x="1048.94" y="187.47" width="9.73" height="24.11"/></g><g id="man2"><path class="cls-10" d="M1587.8,328.39a16.32,16.32,0,0,1-.42,5.94,15.06,15.06,0,0,1-1.65,4.15,15.57,15.57,0,0,1-2.79,3.49c-.06.17-.12.33-.17.5-2.54,1.82-6,2-9.13,2q-14.3,0-28.56-1.2a4.81,4.81,0,0,0-2.14.14c-1.14.44-1.75,1.64-2.53,2.59a7.35,7.35,0,0,1-4.57,2.61l0-.23c-7.22-2.16-9,1.6-9.28,5.31h-.08a16.43,16.43,0,0,1,7.06-26.8,8.17,8.17,0,0,0,2.1-.84,7.77,7.77,0,0,0,1.91-2.23,22.15,22.15,0,0,1,32.91-4,9.37,9.37,0,0,0,2.23,1.69c2.52,1.14,5.41-.64,8.18-.53C1584.52,321.1,1587.3,324.73,1587.8,328.39Z"/><path class="cls-11" d="M1611.5,501.18v26.06c-5.16,2.16-10.27,4.49-15.38,7l-.72.34-46.68,6.81a54.41,54.41,0,0,0-17.73,5.39V506Z"/><path class="cls-12" d="M1531,506v40.71a29.56,29.56,0,0,0-7.93,6,23.66,23.66,0,0,0-3.53,4.92l-1.87-73.29Z"/><polygon class="cls-5" points="1595.4 479.1 1611.5 501.18 1530.99 506.03 1517.66 484.38 1595.4 479.1"/><path class="cls-13" d="M1659.78,961c20.22,10.06,40.55,22.48,56.24,38.45a2.59,2.59,0,0,1-1.79,4.39c-33.63.76-110.45-2.44-114.15-2.43a1.53,1.53,0,0,1-1.55-1.42c-1.17-17.33-.58-38.27-1.62-53.54v-.1a538.35,538.35,0,0,0,59.58-1.1c1.11,5.88,2.21,9.8,3.32,15.69Z"/><path class="cls-13" d="M1451.09,962.1l0,0c1.22-5.89,2.43-10.79,3.65-16.68,1.17.11,2.35.2,3.52.29,18.62,1.45,37.41,2.89,56,2.05-1.32,15.26-3.13,37.16-4.63,54.47a1.53,1.53,0,0,1-1.57,1.39c-3.7-.08-78.57,1.74-112.17.36a2.58,2.58,0,0,1-1.72-4.41C1410.15,983.84,1430.71,971.79,1451.09,962.1Z"/><path class="cls-12" d="M1525.47,574.85a2.76,2.76,0,0,0-.32.84l0,.2a2.62,2.62,0,0,0,2.17,3.09,21.44,21.44,0,0,0,6.57,0c28-6,49.49-9.24,69.62-11.87h.18c1.11,0,7.22-.06,16.14-.48,19.5,125.45,36.89,252.24,52.18,378.28q-7.73.8-15.49,1.37a538.35,538.35,0,0,1-59.58,1.1l-6.17-.27c-14.67-84.17-18.57-194-31.31-310.29-13,102.89-27,208.75-39.94,311.61-1.74.12-3.49.22-5.23.29-18.61.84-37.4-.6-56-2.05-1.17-.09-2.35-.18-3.52-.29a115.46,115.46,0,0,1-11.9-1.49c13-128.55,25.85-231.92,49.58-383.88a121.68,121.68,0,0,0,27.68,3.11l.35.18a5.66,5.66,0,0,0-.69,1.55,3.14,3.14,0,0,0,.81,3.14c.62.53,3.27-.22,4.92-1l-.38.28c-1.33,1-2.72,2.25-2.91,3.91s1.49,3.31,2.88,2.68Z"/><path class="cls-14" d="M1445.89,298.66a20.45,20.45,0,0,1,.27-2.91,102,102,0,0,0-38.54-1.62l-.1.79c-12.74,75.47-14.87,96.84-11.94,147a15,15,0,0,0,10.74,13.49c20.45,6,44,9.91,61.62,13,9.68,1.7,19.51,3.27,29.31,3.32-4.79,31.05-3.7,55.46-4.64,87.92l-.21,1.35a121.68,121.68,0,0,0,27.68,3.11l.35.18a13.54,13.54,0,0,1,1-1.38c.18-.22.36-.43.55-.64a9.15,9.15,0,0,0-2.32.82c-.66.27-1.27.43-1.67.11s-.35-1.14-.15-1.73a25.25,25.25,0,0,1,1.68-3.81l-1.87-73.29,77.74-5.28,16.1,22.08v26.06c-5.16,2.16-10.27,4.49-15.38,7a47.09,47.09,0,0,1,4,9.21c2.4,7.51,3.21,15.64,3.52,23.7,1.11,0,7.22-.06,16.14-.48,22.93-1.07,64.45-4.53,87.23-15.66a12.81,12.81,0,0,0,6.89-8.69l.33-1.46c.13-9.7-7.69-21.1-16.58-27.26-4.34-3-60.8-87.2-60.8-87.2a32.27,32.27,0,0,0-3.67-4.64l-4.61-4.82c-5.19-6.12-13.71-8.06-21.66-9.17a200.68,200.68,0,0,0-39.73-1.53l.63,10.84-1,2c-13.6,7.72-23.45,4.36-34.1-.36l-1.48-1.85q.15-3.22.33-6.53c-26-4.19-56.71-5.3-90.3-3l0-.66c3.22-39,6.23-71.06,4.64-106.64,0-.46,0-.92,0-1.38M1633,518.94a33.44,33.44,0,0,0-3.6,1,24.23,24.23,0,0,1-2.87,1.06s-.07,0-.1,0c-4.49,1.78-8.79,4.09-13.45,5.45a.82.82,0,0,1-1-.56c-.79-5.12.7-10.23,1.26-15.29.66-5.89-.48-11.79-.07-17.69a.81.81,0,0,1,1.49-.41c.14.26.26.52.39.78a1.08,1.08,0,0,1,.9.86c.17.74.31,1.49.45,2.23a.71.71,0,0,1,.68.38l.63,1a1,1,0,0,1,.28.36c0,.11.09.23.14.34,1.19,1.95,2.47,3.84,3.79,5.7a34.49,34.49,0,0,1,3.87,5.19c.68.84,1.38,1.67,2.14,2.47a12.76,12.76,0,0,1,3,4.11.91.91,0,0,1,.11.22,4.28,4.28,0,0,1,2.28,1.43A.81.81,0,0,1,1633,518.94Z"/><path class="cls-15" d="M1525.06,574.81c-1.39.63-3.07-1.1-2.88-2.68s1.58-2.89,2.91-3.91l.38-.28c-1.65.83-4.3,1.58-4.92,1a3.14,3.14,0,0,1-.81-3.14,5.66,5.66,0,0,1,.69-1.55,13.54,13.54,0,0,1,1-1.38c.18-.22.36-.43.55-.64a9.15,9.15,0,0,0-2.32.82c-.66.27-1.27.43-1.67.11s-.35-1.14-.15-1.73a25.25,25.25,0,0,1,1.68-3.81,23.66,23.66,0,0,1,3.53-4.92,29.56,29.56,0,0,1,7.93-6,54.41,54.41,0,0,1,17.73-5.39l46.68-6.81.72-.34a47.09,47.09,0,0,1,4,9.21c2.4,7.51,3.21,15.64,3.52,23.7h-.18c-20.13,2.63-41.67,5.87-69.62,11.87a21.44,21.44,0,0,1-6.57,0,2.62,2.62,0,0,1-2.17-3.09l0-.2a2.76,2.76,0,0,1,.32-.84Zm.43-6.88a3.41,3.41,0,0,0,1.3-1C1526.35,567.28,1525.92,567.59,1525.49,567.93Z"/><path class="cls-15" d="M1426.51,243.16c0-.89,0-1.67,0-2.27C1426.48,241.65,1426.49,242.4,1426.51,243.16Zm28.38.45c1.85,7.12-1.25,15.74-2.72,22.58-1.86,8.6-3.1,16.82-5.08,25.38l-.71,3.08c-.08.37-.15.73-.22,1.1a102,102,0,0,0-38.54-1.62l.85-6.76c0-7.2.39-14.58,1-21.77.43-5.56,2.41-10.82,3.77-16.19,1.1-4.34,1.48-10.15,5.93-12.49a17.83,17.83,0,0,1,7.73-1.56,154.79,154.79,0,0,1,19.26.67c2.27.2,4.75.53,6.32,2.18a7.68,7.68,0,0,1,1.51,2.54A22.82,22.82,0,0,1,1454.89,243.61Z"/><path class="cls-15" d="M1535.84,348.59a7.35,7.35,0,0,0,4.57-2.61c.78-1,1.39-2.15,2.53-2.59a4.81,4.81,0,0,1,2.14-.14q14.25,1.25,28.56,1.2c3.17,0,6.59-.16,9.13-2-1.66,5-1.75,10.49-1.86,15.9-.15,7.65-.34,15.2-5,21.21A18.31,18.31,0,0,1,1566,386q.59,10.1,1.18,20.2l.63,10.84-1,2c-13.6,7.72-23.45,4.36-34.1-.36l-1.48-1.85q.15-3.22.33-6.53c.85-15.23,2.28-31.6,2.94-46.44v-.38a7.91,7.91,0,0,1-7.92-6.74,17.93,17.93,0,0,1-.09-3.06c.25-3.71,2.06-7.47,9.28-5.31Z"/><path class="cls-16" d="M1546.89,380.19c2,9.86,10.43,15,19.69,15.32-.18-3.1-.37-6.2-.55-9.3C1559.36,386.31,1551.46,386.59,1546.89,380.19Z"/><path class="cls-14" d="M1570.68,360.38a66.08,66.08,0,0,1-10.33.42c-.62,0-1.24-.1-1.86-.17-5.75-.62-14.41-1.64-18.4-6.37a19.73,19.73,0,0,0-1.93-2.33,1.51,1.51,0,0,0-1-.45c-.68,0-1.08.79-1.21,1.46-1.57,8.49,3.09,19.1,8.43,25.42l.51-.63a25.51,25.51,0,0,0,4,3.8c8,6,20.36,6.5,27-1.95,4.7-6,4.89-13.56,5-21.21v-.11C1580.9,359.18,1571.69,360.28,1570.68,360.38Z"/><path class="cls-17" d="M1434.9,407.82c36.1-3,69-2,96.7,2.47"/><path class="cls-17" d="M1498.29,465.52c-6,34.09-4.68,59.55-5.68,94.14"/><path class="cls-17" d="M1566,386q.59,10.1,1.18,20.2l.54,9.18c.32,5.54-5.79,6.35-9.93,7.39a27.81,27.81,0,0,1-8.86.77c-5.06-.38-17.9-2.32-17.56-9.06.06-1.39.14-2.78.21-4.19.85-15.23,2.28-31.6,2.94-46.44"/><path class="cls-17" d="M1535.8,348.36c-9.3-2.77-9.63,4.27-9.19,8.37s3.74,7.35,7.8,6.66"/><path class="cls-17" d="M1595.4,534.54l.72-.34c5.11-2.47,10.22-4.8,15.38-7,21.14-8.89,43.15-15,69.57-16.35"/><path class="cls-17" d="M1522.28,562.3a1.37,1.37,0,0,0-.29,0,9.15,9.15,0,0,0-2.32.82c-.66.27-1.27.43-1.67.11s-.35-1.14-.15-1.73a25.25,25.25,0,0,1,1.68-3.81,23.66,23.66,0,0,1,3.53-4.92,29.56,29.56,0,0,1,7.93-6,54.41,54.41,0,0,1,17.73-5.39l46.68-6.81"/><path class="cls-17" d="M1542.73,550.12a67.34,67.34,0,0,0-11.74,5.21c-1.39.8-2.74,1.65-4,2.56a31,31,0,0,0-5,4.39c-.19.21-.37.42-.55.64a7.88,7.88,0,0,0-1.7,2.93,3.14,3.14,0,0,0,.81,3.14c.62.53,3.27-.22,4.92-1h0a3.41,3.41,0,0,0,1.3-1"/><path class="cls-17" d="M1567.2,406.2a200.68,200.68,0,0,1,39.73,1.53c8,1.11,16.47,3,21.66,9.17l4.61,4.82a32.27,32.27,0,0,1,3.67,4.64s56.46,84.18,60.8,87.2c8.89,6.16,16.71,17.56,16.58,27.26l-.33,1.46A12.81,12.81,0,0,1,1707,551c-32.6,15.93-103.55,16.14-103.55,16.14-20.13,2.63-41.67,5.87-69.62,11.87a21.44,21.44,0,0,1-6.57,0,2.62,2.62,0,0,1-2.17-3.09l0-.2a2.66,2.66,0,0,1,.91-1.53c4.09-3.3,18.4-5.89,23.49-7.19"/><path class="cls-17" d="M1525.26,574.71c-1.42.89-3.28-.92-3.08-2.58s1.58-2.89,2.91-3.91l.38-.28h0c.43-.34.86-.65,1.3-1a46.84,46.84,0,0,1,4.2-2.67c.2-.12.4-.24.61-.35h0a65.59,65.59,0,0,1,15.57-5.71"/><path class="cls-17" d="M1596.12,534.2a47.09,47.09,0,0,1,4,9.21c2.4,7.51,3.21,15.64,3.52,23.7"/><line class="cls-17" x1="1611.5" y1="527.24" x2="1611.5" y2="501.18"/><line class="cls-17" x1="1531.61" y1="563.95" x2="1531.6" y2="563.95"/><path class="cls-17" d="M1492,560.92a121.66,121.66,0,0,0,28.07,3.2"/><path class="cls-17" d="M1540.45,372.28c4.8,7.93,12.49,15,22.3,14.28a18.44,18.44,0,0,0,13.12-7c8.14-10.41,2.75-25.41,7.07-37.61h0"/><path class="cls-17" d="M1538.28,352.13c5.54,9.43,21.22,9.47,30.68,8.42a97.25,97.25,0,0,0,12-2.18"/><path class="cls-17" d="M1534.16,351.72a3.81,3.81,0,1,0-1.16,7.53"/><path class="cls-17" d="M1446,297a20,20,0,0,0-.1,3.09c1.6,35.59-1.42,67.66-4.64,106.64"/><line class="cls-17" x1="1407.52" y1="294.92" x2="1408.01" y2="291.07"/><path class="cls-17" d="M1497.25,471.74c-9.8-.05-19.63-1.62-29.31-3.32-17.64-3.07-41.17-7-61.62-13A15,15,0,0,1,1395.58,442c-2.93-50.19-.8-71.56,11.94-147"/><path class="cls-17" d="M1408.34,294.17a91.84,91.84,0,0,1,37.41,1.73"/><path class="cls-17" d="M1571,353.55a26.52,26.52,0,0,0,.3,6.66"/><path d="M1558.15,354.48v.27a1.14,1.14,0,0,0,.12.58,1.11,1.11,0,0,0,.31.48,1.23,1.23,0,0,0,.49.32,1.14,1.14,0,0,0,.58.12l.39-.05a1.47,1.47,0,0,0,.67-.39l.23-.3a1.52,1.52,0,0,0,.21-.76v-.27a1.25,1.25,0,0,0-.13-.57,1.32,1.32,0,0,0-.8-.8,1.25,1.25,0,0,0-.57-.13l-.4.06a1.54,1.54,0,0,0-.67.38l-.23.31a1.41,1.41,0,0,0-.2.75Z"/><path d="M1575.48,353.79v.27a1.15,1.15,0,0,0,.13.58,1.17,1.17,0,0,0,.31.48,1.14,1.14,0,0,0,.48.31,1.08,1.08,0,0,0,.58.13l.4-.05a1.39,1.39,0,0,0,.66-.39l.24-.3a1.57,1.57,0,0,0,.2-.76v-.27a1.06,1.06,0,0,0-.13-.58,1.14,1.14,0,0,0-.31-.48,1,1,0,0,0-.48-.31,1.15,1.15,0,0,0-.58-.13l-.4,0a1.59,1.59,0,0,0-.66.39l-.23.3a1.48,1.48,0,0,0-.21.76Z"/><path class="cls-17" d="M1555.64,350.63a12.33,12.33,0,0,1,6.51-.95"/><path class="cls-17" d="M1573.76,349.14a11.52,11.52,0,0,1,6.48.15"/><line class="cls-18" x1="1627.7" y1="467.52" x2="1638.24" y2="451.02"/><line class="cls-18" x1="1418.09" y1="420" x2="1431.56" y2="434.38"/><line class="cls-18" x1="1644.26" y1="548.97" x2="1671.98" y2="535.92"/><line class="cls-18" x1="1514.26" y1="440.1" x2="1495.45" y2="451.02"/><line class="cls-18" x1="1428.54" y1="303.92" x2="1440.65" y2="320.39"/><path class="cls-17" d="M1611.05,448.47c4.3,25.68,2.54,51.87.68,77.85"/><path class="cls-17" d="M1614,491.69c4.56,8.81,13.47,19.92,20.45,27"/><path class="cls-19" d="M1451.66,946.86c12.12-123.27,31.24-252,50.7-367.62"/><path class="cls-19" d="M1394.21,999.49c36.34-3,72.49.33,116.34-8.06"/><path class="cls-19" d="M1597.91,990.78c23.38,6.44,50.39,6.6,74.81,6.65l41.32.09"/><path class="cls-1" d="M1413.19,256.11a4.26,4.26,0,0,1-1.72-3.46,8.4,8.4,0,0,1,.61-2.35l.84-2.33a29.63,29.63,0,0,0,4.89,5.3,4.45,4.45,0,0,1,1.18,1.19,4.88,4.88,0,0,1,.42,1.18,12.43,12.43,0,0,0,1,2.49,3.67,3.67,0,0,0,1.28,1.55,1.54,1.54,0,0,0,1.88-.17c.41-.45.56-1.3,1.17-1.3a1.23,1.23,0,0,1,.64.26c3.16,2,7.59,1.73,11.11.95a1,1,0,0,1,.44,0,1.22,1.22,0,0,1,.47.38,2.13,2.13,0,0,0,2.19.44,3.11,3.11,0,0,0,1.68-1.59,1.84,1.84,0,0,1,.32-.54,1.57,1.57,0,0,1,.54-.29c1.24-.46,1.75-1.08,2.42.13a29.92,29.92,0,0,1,1.33,3.07.86.86,0,0,1,.11.52c0,.31-.4.47-.7.58a39.45,39.45,0,0,1-13.57,2.49,23.22,23.22,0,0,1-13.06-4c-.93-.65-1.8-1.39-2.67-2.13Z"/><path class="cls-1" d="M1448.48,260.07c2.37-2.23,4.64-4.58,6.79-7a11.54,11.54,0,0,0,2-2.85c1.22-2.69.4-5.81-.43-8.63a3.45,3.45,0,0,0-.65-1.38c-1.61-1.73-1.87,2-2.09,2.94q-.72,2.9-1.59,5.74A116.83,116.83,0,0,1,1448.48,260.07Z"/><path class="cls-15" d="M1426.51,243.16c0-.89,0-1.67,0-2.27C1426.48,241.65,1426.49,242.4,1426.51,243.16Zm27.24.38a44.77,44.77,0,0,1-5,15.56c-.43.79-1,1.67-1.93,1.74a1.89,1.89,0,0,1-1.68-1,4.88,4.88,0,0,1-.54-2,28.35,28.35,0,0,1-.08-5.21,7,7,0,0,0-.36-3.95,78.93,78.93,0,0,1-2.71,8c-.6,1.51-2.39,4.9-4,2.27a6.21,6.21,0,0,1-.66-2.8l-.77-9.93a32.17,32.17,0,0,1-5.91,13.9,31.67,31.67,0,0,1-4.17-10.53c-.29,3.7-.61,7.56-2.55,10.73-3.23-2.15-4.3-6.35-4.86-10.19-.37-2.49-.62-5-.87-7.48-.21-2-.43-4.45,1.28-5.78,1.91-1.48,5.6-1.46,7.87-1.55a154.79,154.79,0,0,1,19.26.67c2.27.2,4.75.53,6.32,2.18a4.57,4.57,0,0,1,1.54,3.11C1453.92,242.06,1453.84,242.8,1453.75,243.54Z"/><path class="cls-20" d="M1432.9,264.88a27.27,27.27,0,1,1,27.27-27.27A27.3,27.3,0,0,1,1432.9,264.88Z"/><path class="cls-17" d="M1440.67,258.57a31.3,31.3,0,0,0,3.81-2"/><path class="cls-20" d="M1430.53,259.76a23.21,23.21,0,0,0,2.37.12,22.24,22.24,0,0,0,4.42-.44"/><path class="cls-20" d="M1424.69,258.32a22.65,22.65,0,0,0,3.76,1.12"/><path class="cls-17" d="M1454.72,242.09a22,22,0,0,0,.45-4.48,22.27,22.27,0,0,0-44.54,0c0,7.44,2.74,12.81,8.36,16.85"/><path class="cls-17" d="M1426.48,240.89c0,5.25.32,10.51.86,15.73.16,1.64,1.15,3.84,2.71,3.3a2.69,2.69,0,0,0,1.31-1.35,48.57,48.57,0,0,0,5.29-16"/><path class="cls-17" d="M1436.65,242.57a109.6,109.6,0,0,0,.06,11.32,28.24,28.24,0,0,0,.65,5.3,1.61,1.61,0,0,0,2.88.17c2.24-3.92,3.8-10.23,4.56-14.68"/><path class="cls-17" d="M1418.09,242c.11,4.34.3,14.48,3.63,17.82a1.43,1.43,0,0,0,2.28-.44c1.67-3.55,2.73-14.61,2.48-18.53"/><path class="cls-17" d="M1445,244.21a56.18,56.18,0,0,0,0,14.77c.12.85.43,1.88,1.27,2s1.4-.49,1.87-1.08c3.34-4.15,5.27-13.68,6.57-18.85"/><path class="cls-17" d="M1454.08,255.25c-.46,3-1,5.36-1.66,8.85"/><path class="cls-17" d="M1413.55,248.6q.5-1.86.9-3.72c.63-2.87,1.46-6,3.92-7.63a10.75,10.75,0,0,1,4.85-1.32,101.41,101.41,0,0,1,23.36.34c2.31.3,4.78.77,6.38,2.46.89.93,1.4,1.12,1.73,2.37"/><path class="cls-17" d="M1409.65,263.4c.61-3,1.45-5,2.3-8"/><path class="cls-17" d="M1452.42,264.1c-2.17,12.17-4.9,25.62-5.33,27.47l-.71,3.08a20,20,0,0,0-.38,2.3"/><path class="cls-17" d="M1408,291.07l.46-3.7c.46-7.8-.39-16.3,1.18-24"/></g><g id="man1"><path class="cls-21" d="M844.63,730.86l-.11,1-5.67,7.8a7,7,0,0,1-6.3,2.84l-10.75-1a6.94,6.94,0,0,1-5.61-3.92l-4.89-10.2Z"/><path class="cls-11" d="M851.55,792.94l-96.44-7.44A10.53,10.53,0,0,1,745.45,774l8.41-85.17,11.56,33.67,45.88,4.86,4.89,10.2a6.94,6.94,0,0,0,5.61,3.92l10.75,1a7,7,0,0,0,6.3-2.84l5.67-7.8.11-1,9.21,1q-2.33,29-2.29,58.11c0,1,0,2,0,3Z"/><path class="cls-5" d="M811.3,727.33l-45.88-4.86L753.86,688.8,792,692.69l64.26,6.55,1,.12q-2.06,16.18-3.36,32.47l-9.21-1Z"/><path class="cls-10" d="M959,355.14c-1.88.85-3.89-.86-5.15-2.5a45.71,45.71,0,0,1-4.86-7.86,47.41,47.41,0,0,1-29.64,4.46v0l-.66-.08c-7.33-1-7.75-6.14-7.26-10s2.94-7.45,5.94-10.08c1.9-1.66,5.46-2.55,7.69-3.72,3.21-5.85,11-8,17.49-6.38,6.07,1.51,9.63,6.73,15,8.69,5.94,2.18,11.71.18,14.72,8,2.68,6.93-1,14.67-5.57,20.57l-1.23.2c-1.57-1.54-4.11-1.69-6.48-1.51Z"/><path class="cls-12" d="M936.38,696q-4.2,20.13-9.1,40.09c-5.46,22.31-2.8,46.55-2.33,69.45.93,44.66,3,90.31,6.3,134.86q-3.18.38-6.36.69a461,461,0,0,1-60.25,2.27c-3.11-.07-6.21-.19-9.31-.33-1-38.54-2.07-78.09-3.11-116.62-.3-11.17-.6-22.34-.66-33.51,0-1,0-2,0-3q0-29.09,2.29-58.11,1.3-16.27,3.36-32.47,2.67-21.18,6.61-42.17h0a712.15,712.15,0,0,1,24.11-93.49l.33.11c38,6.69,76.9,10.47,113.51-9.3,13.2,20.23,17.36,42.64,16.18,66.82-1.19,24.41-6.41,48.47-8.28,72.85a267.72,267.72,0,0,0,2.42,61.64c2.43,15.51,6.22,30.77,10,46,11.08,44.65,22.17,90.3,33.25,134.94q-3.9.74-7.81,1.37a291.07,291.07,0,0,1-64.4,3.13l-3.24-.22c-7-57.78-30.89-113.56-38.37-171.34C938.38,745.4,938.12,720.55,936.38,696Z"/><path class="cls-22" d="M927.25,640.11a1.45,1.45,0,0,0-2.78.71c4.08,46.42-9.12,78.95-12.9,117.67-5,60.79,4.58,121.59,17.16,181.23l2.52-.28q-4.9-66.83-6.3-133.86c-.47-22.9-3.13-47.14,2.33-69.45q4.83-19.71,9-39.59C936.88,677.33,935.12,658.35,927.25,640.11Z"/><path class="cls-13" d="M1047.53,937.13c1.23,14.63,3.84,34.91,5,51.83a4.15,4.15,0,0,1-3.62,4.41c-33.77,4.43-77.26,5.89-109.41,4.58a1.62,1.62,0,0,1-1.19-2.66C949.65,981.71,968.66,971.75,983,962q-.25-10.87.09-21.77A291.07,291.07,0,0,0,1047.53,937.13Z"/><path class="cls-13" d="M924.89,940.13c.89,15.53,1.32,37.2,1.11,54.76a4.13,4.13,0,0,1-3.6,4.07c-11,1.38-22.1,1.91-33.18,2.42L832.66,1004c-6.41.31-12.85.6-19.26.32a1.77,1.77,0,0,1-1.3-2.86c13.61-17.08,33.57-31.07,52-41.66q-.12-8.73.55-17.43A461,461,0,0,0,924.89,940.13Z"/><path class="cls-15" d="M821.39,658.22l.49.51a16.86,16.86,0,0,1,3.32-2.25c.87-.45,1.91-.83,2.78.14a2.5,2.5,0,0,1,.39,2.54l-5.29,14.24.28.11,5.47-11.31c1.23-2.56,3.89-5.59,6.3-4.08,1.78,1.13,1.5,3.76,1,5.81q-1.78,7.32-3.56,14.64l1,.25c1.37-4.74,2.85-9.68,5.37-13.85a2.51,2.51,0,0,1,4.63,1.37,91.64,91.64,0,0,1-1.14,12.7l.73.12a18.25,18.25,0,0,1,1.68-5.78,8.85,8.85,0,0,1,3.25-3.53,2,2,0,0,1,3,1.81,81.82,81.82,0,0,1-2.34,16.84l.12.32.77-.28-.06-.17c5.08-11.31,10.86-19.2,13.26-31.36l.93.18h0l.15-.76a70.28,70.28,0,0,0-30.63-9.65C829.36,650.59,825.37,654.42,821.39,658.22Z"/><path class="cls-14" d="M1082.85,321.9q-1.92-14.34-3.72-28.7c-12.2-2-24.65-.68-35.39,1.74l-.35.05a123.44,123.44,0,0,1,1.3,16.32c.22,14.44-.87,28.89-.56,43.33.36,17.37.36,35.2,2.59,52.56-27.67-3.3-53.35-5.7-84.39-4.16.21,3.63.46,7.73.77,12.56a1.57,1.57,0,0,1-.56,1.31c-7.73,6.29-20.76,8.86-29.22.25a1.61,1.61,0,0,1-.44-1.16q.29-7.37.58-14.72l-24.85,2c-6.73.53-13.68,1.13-19.61,4.36-11.47,6.24-15.88,20.24-18.75,33-9.29,41.19-7.64,106-7.64,106-11,47-21.47,77.24-28.68,100.17l-.39-.12-.2.19A70.28,70.28,0,0,1,864,656.43a712.65,712.65,0,0,1,24-92.73l.33.11c38,6.69,76.9,10.47,113.51-9.3-.12-.2-.25-.39-.38-.59-3.5-33.89-5.83-55.28-6.85-88.89a222.2,222.2,0,0,0,82.16-9.21,18.46,18.46,0,0,0,13-16.67c.27-5.18.38-10.38.41-15.55C1090.35,389.57,1087.36,355.6,1082.85,321.9Z"/><path class="cls-15" d="M823.08,673.4l.28.11,5.47-11.31c1.23-2.56,3.89-5.59,6.3-4.08,1.78,1.13,1.5,3.76,1,5.81q-1.78,7.32-3.56,14.64l1,.25c1.37-4.74,2.85-9.68,5.37-13.85a2.51,2.51,0,0,1,4.63,1.37,91.64,91.64,0,0,1-1.14,12.7l.73.12a18.25,18.25,0,0,1,1.68-5.78,8.85,8.85,0,0,1,3.25-3.53,2,2,0,0,1,3,1.81,81.82,81.82,0,0,1-2.34,16.84l.12.32c-15.66,5.59-30,2.92-36.91-4.61a6.62,6.62,0,0,1-.26-8.66,6.36,6.36,0,0,0,1-1.76,62.54,62.54,0,0,1,4-8.67,24.57,24.57,0,0,1,5.09-6.39,16.86,16.86,0,0,1,3.32-2.25c.87-.45,1.91-.83,2.78.14a2.5,2.5,0,0,1,.39,2.54Z"/><path class="cls-15" d="M1050.34,257a38.58,38.58,0,0,0-1-4.49Zm-6.25,1.68c-.11-.29-.21-.59-.31-.88C1043.85,258,1044,258.32,1044.09,258.67Zm.36.94c-.07-.16-.13-.33-.19-.49l-.15-.41a4.14,4.14,0,0,0,.15.41C1044.32,259.28,1044.38,259.44,1044.45,259.61Zm33.72,25.71,1,7.88c-12.2-2-24.65-.68-35.39,1.74l-.35.05c-1.61-11-4.64-21.41-8.67-32.73-1.93-5.4-3.67-12,0-16.39,2.22-2.65,5.79-3.63,9.14-4.48a44,44,0,0,1,11.13-1.81c3.77,0,7.68,1.17,10.34,3.84,2.35,2.35,3.49,5.62,4.56,8.77C1073.76,263.56,1076.74,273.51,1078.17,285.32Z"/><path class="cls-15" d="M962.33,403c.21,3.63.46,7.73.77,12.56a1.57,1.57,0,0,1-.56,1.31c-7.73,6.29-20.76,8.86-29.22.25a1.61,1.61,0,0,1-.44-1.16q.29-7.37.58-14.72l.69-17.79,0-1.12c10,0,19.94-6.69,23.2-16.24l1.93-.3q.33,0,.66-.06l.06.61C961.25,382,961.52,389.16,962.33,403Z"/><path class="cls-16" d="M953.31,373.25a25.36,25.36,0,0,1-19.14,9.12l0,1.12c-.07,1.88-.14,3.75-.22,5.63C943.62,390.78,951.7,383,953.31,373.25Z"/><path class="cls-15" d="M958.93,354.94c2.37-.18,4.91,0,6.48,1.51a4,4,0,0,1,.5.58,5.16,5.16,0,0,1-.6,6.2,8.27,8.27,0,0,1-5.35,2.54q-.33,0-.66.06l-1.93.3c-3.26,9.55-13.18,16.26-23.2,16.24a21.53,21.53,0,0,1-3.66-.31,13.18,13.18,0,0,1-6.14-2.51c-3.9-3.16-4.49-8.78-4.78-13.79-.33-5.76-.67-10.52-1-16.28l0-.29.66.08v0a47.41,47.41,0,0,0,29.64-4.46,45.71,45.71,0,0,0,4.86,7.86c1.26,1.64,3.27,3.35,5.15,2.5Z"/><path class="cls-15" d="M956.58,355.05a8.11,8.11,0,0,1-2.78-2.41,45,45,0,0,1-4.52-7.19.75.75,0,0,0-1-.33,47.39,47.39,0,0,1-29,4.12v0l-.66-.08,0,.29c.22,3.73.44,7,.66,10.49C933.37,361.61,948,363.55,956.58,355.05Z"/><path class="cls-14" d="M919.45,360a30.75,30.75,0,0,0,.14,5.76c.29,5,.88,10.63,4.78,13.79a13.18,13.18,0,0,0,6.14,2.51,21.53,21.53,0,0,0,3.66.31,25.29,25.29,0,0,0,17.46-7.27,19.3,19.3,0,0,0,4.91-7.52c1.15-3.24,2.68-7.05,1.84-10.51a.9.9,0,0,0-.31-.56,1,1,0,0,0-.92.07,59.2,59.2,0,0,1-19.38,4.29c-1.42.1-18.64.51-18.22-1.42C919.51,359.63,919.48,359.81,919.45,360Z"/><circle class="cls-23" cx="963.93" cy="497.57" r="6.02"/><circle class="cls-23" cx="1026.82" cy="424.12" r="5.75"/><circle class="cls-23" cx="1068.13" cy="322.25" r="5.75"/><circle class="cls-23" cx="862.88" cy="602.52" r="5.75"/><circle class="cls-23" cx="895.36" cy="428.4" r="5.75"/><path class="cls-17" d="M994.39,455.38c0,38.95,3.5,63.22,7,98.54"/><path class="cls-17" d="M895.36,452.24q-4.74,55.32-6.61,110.84"/><path class="cls-17" d="M888.26,563.81c38,6.69,76.9,10.47,113.51-9.3"/><path class="cls-17" d="M833.79,647.15c7.22-23,17.76-53.31,28.82-100.61,0,0-1.65-64.76,7.64-105.95,2.87-12.73,7.28-26.73,18.75-33,5.93-3.23,12.88-3.83,19.61-4.36l24.85-2"/><path class="cls-17" d="M823.36,673.51l5.47-11.31c1.24-2.56,3.89-5.59,6.3-4.07,1.78,1.12,1.5,3.76,1,5.8l-4,16.59"/><path class="cls-17" d="M832.63,678.82A60.36,60.36,0,0,1,839,665a2.51,2.51,0,0,1,4.64,1.37,82.22,82.22,0,0,1-2.18,17.1"/><path class="cls-17" d="M842,682.17a30.16,30.16,0,0,1,2.94-8.79,8.92,8.92,0,0,1,3.25-3.53,2,2,0,0,1,3,1.81,82.49,82.49,0,0,1-2.33,16.84"/><path class="cls-17" d="M833.54,646.59l-12.39,11.87"/><path class="cls-17" d="M840.64,649.31a49.18,49.18,0,0,1,13.77,2.8"/><path class="cls-17" d="M849.8,688.5c-16,6-30.77,3.38-37.8-4.28a6.64,6.64,0,0,1-.25-8.67h0a6.58,6.58,0,0,0,1-1.76c2.69-6.82,6-14,12.44-17.31.86-.45,1.91-.83,2.77.14a2.5,2.5,0,0,1,.39,2.54L822,676.34"/><path class="cls-17" d="M862.88,657c-2.4,12.17-8.18,20-13.26,31.36"/><path class="cls-17" d="M962.21,403.05c34.48-1.73,62.33,1.42,93.63,5.25"/><path class="cls-17" d="M1033.15,258a30.42,30.42,0,0,0,1.57,4.23c6,16.69,9.71,31.34,10,49.05.22,14.45-.86,28.9-.56,43.33.36,17.37.36,35.2,2.59,52.56"/><path class="cls-17" d="M994.54,465a222.2,222.2,0,0,0,82.16-9.21,18.46,18.46,0,0,0,13-16.67c.27-5.18.38-10.38.41-15.55.22-34-2.77-68-7.28-101.7q-2.44-18.27-4.68-36.58c-1.19-9.83-3.45-17.38-6.41-26.53"/><path class="cls-17" d="M960,366.38c1.54,19.75,1.56,25.92,3.07,49.22a1.55,1.55,0,0,1-.56,1.31c-7.73,6.3-20.76,8.86-29.22.25a1.56,1.56,0,0,1-.43-1.16c.42-10.84.84-22.67,1.26-33.51"/><path class="cls-17" d="M957.75,355.05c2.93-.33,6.45-.42,8.17,2a5.17,5.17,0,0,1-.61,6.2,8.59,8.59,0,0,1-6,2.6"/><path class="cls-17" d="M918.59,349.48c.33,5.76.67,10.52,1,16.28.29,5,.88,10.63,4.78,13.79a13.21,13.21,0,0,0,6.15,2.51c11.16,1.93,23.19-5.21,26.85-15.93"/><path class="cls-17" d="M919.8,359.9c6.21,1.88,11.48,1.52,16.8,1.13A93.65,93.65,0,0,0,955,357.77"/><path class="cls-17" d="M1043.74,294.94c10.74-2.42,23.19-3.76,35.39-1.74"/><path class="cls-17" d="M792,692.64c5.64-14,12.14-23.27,24.9-27.94"/><path class="cls-17" d="M960,357.45a2.58,2.58,0,1,1,1,5"/><path class="cls-17" d="M929.63,356c.08,1.8.53,3.63-.55,5.08"/><path d="M922.5,356v.2a1.06,1.06,0,0,0,.13.58,1.14,1.14,0,0,0,.31.48,1.08,1.08,0,0,0,.48.31,1.15,1.15,0,0,0,.58.13l.4-.05a1.59,1.59,0,0,0,.66-.39l.23-.3a1.48,1.48,0,0,0,.21-.76V356a1.15,1.15,0,0,0-.13-.58,1,1,0,0,0-.31-.48,1.14,1.14,0,0,0-.48-.31,1.06,1.06,0,0,0-.58-.13l-.4.05a1.49,1.49,0,0,0-.66.39l-.24.3a1.54,1.54,0,0,0-.2.76Z"/><path d="M935,356v.2a1.06,1.06,0,0,0,.13.58,1.14,1.14,0,0,0,.31.48,1,1,0,0,0,.48.31,1.15,1.15,0,0,0,.58.13l.4-.05a1.59,1.59,0,0,0,.66-.39l.23-.3a1.48,1.48,0,0,0,.21-.76V356a1.15,1.15,0,0,0-.13-.58,1,1,0,0,0-.31-.48,1.14,1.14,0,0,0-.48-.31,1.08,1.08,0,0,0-.58-.13l-.4.05a1.44,1.44,0,0,0-.66.39l-.24.3a1.54,1.54,0,0,0-.2.76Z"/><path class="cls-17" d="M934.52,351.81a6.91,6.91,0,0,1,5.68.69"/><path class="cls-17" d="M925.83,351.25a6.86,6.86,0,0,0-5.12,1.05"/><path class="cls-19" d="M999.59,579.24a247.8,247.8,0,0,1,1.19,73.61c-2.5,18.68-9.15,37.21-8.86,56,.25,15.69,2.91,31.09,6.56,46.35,14.65,61.31,27.61,122.61,42,183.92"/><path class="cls-19" d="M939.88,993.51c15.88,1.81,32,.13,48-1.55,21.54-2.27,43.25-3.71,64.35-7.78"/><path class="cls-19" d="M812.62,1000.85h0c38.08-.61,76.09-4,113.41-11.45"/><path class="cls-1" d="M1071.12,251.48a20.9,20.9,0,0,1-8.48,7,3.47,3.47,0,0,0-1.32.82c-.82,1-.38,2.66-1.34,3.48a1.92,1.92,0,0,1-2.42-.17,4.68,4.68,0,0,1-1.28-2.26c-.42-.13-.83.3-.92.73s0,.88-.06,1.32c-.31,2.29-2.12,1.21-3.26.85-.54-.17-.32-.63-.87-.35-.34.17-.91,1.89-1.35,2.3.26.62,1.1.68,1.77.62,7.42-.61,14.47-2.72,20-7.95a1.74,1.74,0,0,0,.55-.77,1.77,1.77,0,0,0-.12-1l-.78-2.52a1.61,1.61,0,0,0-.71-1.08c-.4-.18-1,.26-.78.64"/><path class="cls-1" d="M1035.43,259.28c-1.81-1.66-4.36-3.13-3.85-5.89a47.14,47.14,0,0,1,1.22-5,72.88,72.88,0,0,1,4.82,10.77,21.22,21.22,0,0,1,.62,2.34A17.65,17.65,0,0,1,1035.43,259.28Z"/><path class="cls-20" d="M1052.9,265.88a27.27,27.27,0,1,1,27.28-27.27A27.3,27.3,0,0,1,1052.9,265.88Z"/><path class="cls-20" d="M1052.9,216.34a22.27,22.27,0,1,0,22.28,22.27A22.29,22.29,0,0,0,1052.9,216.34Z"/><path class="cls-15" d="M1050.34,257a38.58,38.58,0,0,0-1-4.49Zm-6.25,1.68c-.11-.29-.21-.59-.31-.88C1043.85,258,1044,258.32,1044.09,258.67Zm.36.94c-.07-.16-.13-.33-.19-.49l-.15-.41a4.14,4.14,0,0,0,.15.41C1044.32,259.28,1044.38,259.44,1044.45,259.61Zm15.08,3.12a1.45,1.45,0,0,1-1.44.38c-.9-.29-1.18-1.41-1.31-2.34-.23-1.53-.11-3.33-.91-4.69a13.91,13.91,0,0,1-.08,3.2c-.08.93-.36,1.88-.51,2.81s-.75,2.18-1.68,1.93a1.66,1.66,0,0,1-.85-.72,10.73,10.73,0,0,1-1.89-4.59c1,2.85-.31,9.43-4.24,5.5-.32.56,0,1-.11,1.65a1.44,1.44,0,0,1-1.32,1.15,3.18,3.18,0,0,1-1.79-.46c-3.83-2-5.77-6.34-7.07-10.45q-1.08-3.42-1.82-6.93c-1.12-5.23,5.48-6.8,9.36-7.78a44,44,0,0,1,11.13-1.81c2.58,0,6.74.21,7.73,3.2a5.18,5.18,0,0,1,.2,1.3,23,23,0,0,1,.09,2.49c-.07,2.24-.72,4.48-1,6.72a35.76,35.76,0,0,1-1.42,7.67A4.18,4.18,0,0,1,1059.53,262.73Z"/><path class="cls-17" d="M1048.74,249.51l2.33,10.85a10.62,10.62,0,0,0,1.2,3.3,1.5,1.5,0,0,0,2.75-.61,54.39,54.39,0,0,0,0-15.5"/><path class="cls-17" d="M1042.22,252.5a56.22,56.22,0,0,0,3.36,9.81c.65,1.45,1.75,3.09,3.33,2.94a2.73,2.73,0,0,0,2.16-2.6,62.51,62.51,0,0,0-1.69-10.15"/><path class="cls-17" d="M1055.34,247.6l1.48,13c.14,1.26.58,2.84,1.84,3s2.11-1.63,2.33-3q1-6.71,1.39-13.48"/><path class="cls-17" d="M1036.42,255.69c1.34,4.18,3,8.74,6.78,10.92,1.14.65,3,.77,3.37-.48a2.5,2.5,0,0,0-.11-1.35c-.33-1.22-2.39-5.89-2.72-7.11"/><path class="cls-17" d="M1069.9,252.19c-1.07-3.15-2.21-6.41-4.56-8.77-2.66-2.67-6.57-3.8-10.34-3.84a43.59,43.59,0,0,0-11.13,1.82c-3.35.84-6.92,1.82-9.13,4.47a8.59,8.59,0,0,0-1.63,2.95"/></g><g id="woman"><path class="cls-13" d="M408.83,959.71a4.41,4.41,0,0,0,1.65,3.46c13.79,11.11,29.56,23.8,41.89,36.2a2.11,2.11,0,0,1-.05,3,2.16,2.16,0,0,1-1.38.57c-30.88.87-64.63.17-95.66-.26a2.29,2.29,0,0,1-2.26-2.28c-.06-8.36-.25-37.92.26-52.07a528.93,528.93,0,0,0,55.88-4C408.9,948.41,408.84,956,408.83,959.71Z"/><path class="cls-13" d="M344.38,999.8a2.7,2.7,0,0,1-1.86,4.66c-29.59-.15-59.88-.84-97.24-3.6a2.31,2.31,0,0,1-2.11-2.64c2.5-16.33,5.58-37.21,7.76-51.39,18.09,1.26,32.53,2.53,54.2,2.15-.53,4.12-1.06,8.81-1.59,13.28a4.42,4.42,0,0,0,1.58,4C311.62,971.56,333.46,989.61,344.38,999.8Z"/><path class="cls-12" d="M421.14,944.71q-5.94.9-12,1.65c-12.21,1.53-24.66,3.08-37,4-6.33.5-12.64.84-18.87,1-3.95.07-7.86-.9-11.73-.92-.26-16.94-.35-34-.39-51.11v-1.9q0-16,0-32,0-16.5,0-32.94,0-7.08,0-14.14h0q0-7.25-.08-14.47-9,73.32-23.94,145.74c-4.24.17-8.21.28-12,.35-21.67.38-36.11-.89-54.2-2.15-5.11-.35-10.52-.7-16.47-1a1354,1354,0,0,1,32.28-140.06l1.83-9.75c9.84-39.86,16.66-81.45,12.28-122.27-1.52-14.13-3.88-28.17-4.83-42.34a213.06,213.06,0,0,1,9.85-79.48c11.08-.68,22.11-1.75,31.78-3.21l.49,0,20.31-1.43a19.22,19.22,0,0,1,11.06,2.21c2.85,1.55,6.44,3.42,9.47,4.77a12.6,12.6,0,0,0,3.35,1,12.34,12.34,0,0,0,4.2-.07,85.85,85.85,0,0,0,18.68-5.85l.21.47c8.87,39.55,17.11,79.69,20.65,120.07l2,20.76C414.38,775.23,416.49,861,421.14,944.71Z"/><path class="cls-22" d="M372.15,950.4c-6.33.5-12.64.84-18.87,1-3.95.07-7.86-.9-11.73-.92-.26-16.94-.35-34-.39-51.11v-1.9q0-16,0-32,0-16.5,0-32.94,0-7.08,0-14.14h0c15.62-71.44,15.53-140.18,13.65-217.07a1.48,1.48,0,0,1,2.41-1.08c2.31,23.17,6.55,46.08,10,69.11q.69,4.68,1.27,9.35,1.19,12.09,2.22,24.48c.8,13,1,26,.85,39.06-.35,24.8-1.65,49.58-2.07,74.38-.42,24.6.74,49.16,1.07,73.75.13,10.42.26,20.84.54,31.26q.19,7.65.52,15.3c0,3.65.35,7.3.43,11C372,948.42,372.09,949.4,372.15,950.4Z"/><path class="cls-10" d="M369.19,379.84c-2.27-4.9-6.44-8.66-10.81-11.84-4-2.92-8.43-5.53-13.33-6.32A22.25,22.25,0,0,0,331.59,364c-1.39-4.93-2.69-9.5-6.37-13.69-18.33-20.89-50.47-8.56-53.08,18.19-.7,7.18.19,14.91-3.41,21.17a16.16,16.16,0,0,1-11.57,7.55,1.33,1.33,0,0,0-.94,2,28.61,28.61,0,0,0,7.57,7.9c7.15,5,16.64,5.51,25,3C302.29,406,304,390.37,304,378.36c0-7.5,3.76-12.95,12.05-10.22a12,12,0,0,1,5.42,3.73q-.31.35-.6.69l-.75.93c-3.7,4.75-6.45,10.4-7,16.4s.85,13.47,4.59,18.49c2.45,3.26,7.88,5.72,12.54,5.26.05-.33.11-.65.16-1,.56-3.39,1.06-6.52,1.41-9.14-1.68.84-3.88-.15-5.05-1.67a7,7,0,0,1,5.84-11.35s16.8-1.62,24-12.84l.11-.08c2.54,3.33,4.87,6.13,8.57,8.18h.24a74.5,74.5,0,0,1-1.26,12.65,19.66,19.66,0,0,0,3.72-3.27C371.48,391,371.47,384.74,369.19,379.84Z"/><path class="cls-14" d="M381,472.07a28,28,0,0,1-.27,18.73H324.93v39.46l-5.07-.09q-1.1,9.72-1.72,19.5l-.49,0c-9.67,1.46-20.7,2.53-31.78,3.21a366.32,366.32,0,0,1-45.46.18,87.43,87.43,0,0,1-10.61-1.21c-3.8-.75-6.61-2.26-10.16-3.66a17.3,17.3,0,0,1-10.95-13.59c-1.09-8.06,3.8-14.15,8.48-19.8,0,0,63.49-73.35,64.42-74.08,11.75-9.22,27.88-13.22,42.78-12.53a27.54,27.54,0,0,0,3.4,0c-.87,5.15-1.66,10-2.15,13.66a2.52,2.52,0,0,0,.5,1.84c4.32,5.61,14.69,8.68,19.45,2.36.21-4.18.53-10.68.83-16.83,13.73-1.62,27.62-1.6,41.46-1.56,10.47,0,30.4,3.68,43.7,4.79l.05-.68c0-26.52,9-69.59,14.56-99.54l0-.16c.73-.12,1.47-.22,2.2-.32a94.17,94.17,0,0,1,21.29-.37l1.76.19c1.06,39.85,1.77,85.16-.79,124.3a4.24,4.24,0,0,1-3.5,3.91q-39.51,6.92-79.36,11.68C385.54,471.76,383.28,472,381,472.07ZM258,523.24c12.59.89,26.27,2.75,39.69,4.47v0c2.24-11.53,2.27-29.38,1-42.3A430.92,430.92,0,0,1,258,523Z"/><path class="cls-24" d="M392.58,490.8l-1.4,50.3c-5.07-.57-10.33.26-15.46.73-6.61.6-13.85.42-19.08-3.65l-.86-1.06a.84.84,0,0,1,.21-1.26,54.87,54.87,0,0,1,8.66-4.28A1.49,1.49,0,0,0,365,529l-.77-.6a1.5,1.5,0,0,0-.72-.31,41.32,41.32,0,0,0-19.33,1.8h0a39.9,39.9,0,0,1-9.21.54l-10.05-.2V490.8h67.65Z"/><path class="cls-15" d="M394.33,543.74l-1.71,2.6a1.52,1.52,0,0,1-.54.5c-2.23,1.24-4.53,2.39-6.87,3.42a85.85,85.85,0,0,1-18.68,5.85,12.34,12.34,0,0,1-4.2.07,12.6,12.6,0,0,1-3.35-1c-3-1.35-6.62-3.22-9.47-4.77a19.22,19.22,0,0,0-11.06-2.21l-20.31,1.43q.62-9.76,1.72-19.5l5.07.09,10.05.2a39.9,39.9,0,0,0,9.21-.54l-.08,0c.14,0,.42-.1.5-.12l-.4.08a41.32,41.32,0,0,1,19.33-1.8,1.5,1.5,0,0,1,.72.31l.77.6a1.49,1.49,0,0,1-.38,2.56,54.87,54.87,0,0,0-8.66,4.28.84.84,0,0,0-.21,1.26l.86,1.06c5.23,4.07,12.47,4.25,19.08,3.65,5.13-.47,10.39-1.3,15.46-.73.74.08,1.48.2,2.22.35A1.49,1.49,0,0,1,394.33,543.74Z"/><path class="cls-15" d="M442.69,286.58c-.23-.17-.54,0-.8.08"/><path class="cls-15" d="M441.89,286.66a2.16,2.16,0,0,1-2.76-1.83,5.32,5.32,0,0,1,.36-2,40.68,40.68,0,0,1,2.66-6.27A8.48,8.48,0,0,1,444,274c1.51-1.27,3.43-.05,4.35-1.74a3.61,3.61,0,0,1,2.46-1.79,7.08,7.08,0,0,1,1.95,0c2.28.2,5.36-.16,7.41.94,2.31,1.24,3.82,3.82,4.69,6.21,1.75,4.81,2.35,10,2.94,15a329.83,329.83,0,0,1,1.85,38.62l0,.18a94.17,94.17,0,0,0-21.29.37c-2-8-4.64-17.17-6.33-25a46.55,46.55,0,0,1-1-11.77c.05-1.25.35-2.77,1.53-3.19a1.22,1.22,0,0,1,.46-.09c.32,0-.05-4.22-.12-4.72a.7.7,0,0,0-.2-.48"/><path class="cls-15" d="M346.85,420.09c-.13,2.69-.29,5.88-.45,9.17-.3,6.15-.62,12.65-.83,16.83-4.76,6.32-15.13,3.25-19.45-2.36a2.52,2.52,0,0,1-.5-1.84c.49-3.67,1.28-8.51,2.15-13.66.82-4.82,1.71-9.91,2.49-14.59.05-.33.11-.65.16-1,.56-3.39,1.06-6.52,1.41-9.14-1.68.84-3.88-.15-5.05-1.67a7,7,0,0,1,5.84-11.35s16.8-1.62,24-12.84l.11-.08c2.54,3.33,4.87,6.13,8.57,8.18h.24a74.5,74.5,0,0,1-1.26,12.65c-.37,2-.83,4-1.36,6-1.08,4-2.53,7.9-5.18,11S351,420.66,347,420.11Z"/><path class="cls-14" d="M347,419.91a12.21,12.21,0,0,0,10.75-4.51c2.65-3.1,4.1-7,5.18-11,.53-2,1-4,1.36-6,.07-.37.12-.74.19-1.11A75.47,75.47,0,0,1,347,399a37.52,37.52,0,0,1-7.54-1,27.22,27.22,0,0,1-4.52-1.66,2.45,2.45,0,0,0-1.17-.32c-1.07.06-1.56,1.35-1.7,2.42C330.93,407.07,337.79,418.85,347,419.91Z"/><path class="cls-19" d="M245.07,947.44c15.8-59.51,32.06-119.11,44.5-179.37,4.15-20.1,7-40.42,6.95-60.94-.06-42.73-14.36-95.21,1.19-135"/><path class="cls-19" d="M353,993.16a414.58,414.58,0,0,0,60.91,5.68c12.74.24,25.5-.09,38.23.27"/><path class="cls-19" d="M243.9,993.42q50.53,5.61,101.34,8.37"/><circle class="cls-18" cx="301.56" cy="454.29" r="5.77"/><circle class="cls-18" cx="456.4" cy="407.99" r="5.77"/><circle class="cls-18" cx="402.9" cy="458.34" r="5.77"/><circle class="cls-18" cx="234.46" cy="535.81" r="5.77"/><path class="cls-17" d="M446.17,332.27c-5.53,30-14.56,73-14.56,99.54"/><path class="cls-17" d="M386.68,460.35l-7.25,7.31"/><path class="cls-17" d="M298.16,480.51c1.79,12.93,2.09,34.11-.45,47.18"/><path class="cls-17" d="M346.4,429.26c13.73-1.62,27.62-1.6,41.46-1.56,12.32,0,37.71,5.08,50,5.11"/><path class="cls-17" d="M379,467.62a27.42,27.42,0,0,1,1.79,23.18"/><path class="cls-17" d="M471.4,331.61c1.06,39.85,1.77,85.16-.79,124.3a4.24,4.24,0,0,1-3.5,3.91q-39.51,6.92-79.36,11.68c-2.21.26-4.47.53-6.71.57"/><path class="cls-17" d="M258,523a430.92,430.92,0,0,0,40.69-37.62"/><path class="cls-17" d="M243.63,522.7c22.09-.08,50.17,5,74.73,7.44"/><path class="cls-17" d="M318.36,530.14l16.62.32a38.06,38.06,0,0,0,9.66-.64s-1,.29-.45.1a41.28,41.28,0,0,1,19.35-1.81,1.5,1.5,0,0,1,.72.31l.77.6a1.49,1.49,0,0,1-.38,2.56,54.87,54.87,0,0,0-8.66,4.28.84.84,0,0,0-.21,1.26l.86,1.06c5.23,4.07,12.47,4.25,19.08,3.65,5.89-.54,11.94-1.55,17.68-.38a1.49,1.49,0,0,1,.93,2.29l-1.71,2.6a1.52,1.52,0,0,1-.54.5,85.89,85.89,0,0,1-25.55,9.27,12.34,12.34,0,0,1-4.2.07,12.6,12.6,0,0,1-3.35-1c-3-1.35-6.62-3.22-9.47-4.77a19.22,19.22,0,0,0-11.06-2.21l-20.8,1.46c-24,3.63-56.51,4.89-77.24,3.39a87.43,87.43,0,0,1-10.61-1.21c-3.8-.75-6.61-2.26-10.16-3.66a17.3,17.3,0,0,1-10.95-13.59c-1.09-8.06,3.8-14.15,8.48-19.8,0,0,63.49-73.35,64.42-74.08,11.75-9.22,27.88-13.22,42.78-12.53a27.54,27.54,0,0,0,3.4,0"/><path class="cls-17" d="M371.48,549.7A70.83,70.83,0,0,0,393.55,543"/><path class="cls-17" d="M346.85,420.09c-.13,2.69-.29,5.88-.45,9.17-.3,6.15-.62,12.65-.83,16.83-4.76,6.32-15.13,3.25-19.45-2.36a2.52,2.52,0,0,1-.5-1.84c.49-3.67,1.28-8.51,2.15-13.66.82-4.82,1.71-9.91,2.49-14.59.05-.33.11-.65.16-1,.56-3.39,1.06-6.52,1.41-9.14h0"/><path class="cls-17" d="M365.57,385.52a74.51,74.51,0,0,1-1.27,12.91c-.37,2-.83,4-1.36,6-1.08,4-2.53,7.9-5.18,11S351,420.66,347,420.11l-.14,0c-7.43-1.48-13.14-8.92-14.87-16"/><path class="cls-17" d="M446,332.13a93.88,93.88,0,0,1,25.39-.52"/><path class="cls-17" d="M469.66,331.24a327.67,327.67,0,0,0-1.85-38.62c-.59-5.08-1.19-10.22-2.94-15a15.08,15.08,0,0,0-.84-1.9"/><path class="cls-17" d="M448.35,331.79c-2-8-4.64-17.17-6.33-25a46.55,46.55,0,0,1-1-11.77c.05-1.25.35-2.77,1.53-3.19a2.24,2.24,0,0,1,2.38.82,6.51,6.51,0,0,1,1.1,2.42l1.71,5.65"/><path class="cls-17" d="M442.86,286.46a20.4,20.4,0,0,1,.15,5.35"/><path class="cls-17" d="M332.62,390.51a7,7,0,0,0-5.84,11.35c1.24,1.61,3.63,2.62,5.34,1.51"/><path class="cls-17" d="M319.87,530q-1.11,9.9-1.75,19.85"/><path class="cls-17" d="M364.49,397.89c-10.06,1.78-21.67,3.36-30.77-1.89"/><path class="cls-17" d="M357.1,394.36a16.1,16.1,0,0,0,.19,4"/><path class="cls-17" d="M330.46,393.26a4.17,4.17,0,0,0-1.61,5.41"/><path d="M350.41,395.65h.21a1,1,0,0,0,.57-.13,1.34,1.34,0,0,0,.8-.79,1.27,1.27,0,0,0,.13-.58l-.06-.4a1.57,1.57,0,0,0-.38-.66l-.31-.23a1.42,1.42,0,0,0-.75-.21h-.21a1.14,1.14,0,0,0-.57.13,1.21,1.21,0,0,0-.49.31,1.24,1.24,0,0,0-.31.48,1.29,1.29,0,0,0-.13.58l.06.4a1.51,1.51,0,0,0,.38.66l.31.24a1.5,1.5,0,0,0,.75.2Z"/><path d="M361.71,395.86h.2a1.27,1.27,0,0,0,.58-.13,1.24,1.24,0,0,0,.48-.31,1.11,1.11,0,0,0,.31-.49,1.14,1.14,0,0,0,.13-.57l-.05-.4a1.56,1.56,0,0,0-.39-.67l-.3-.23a1.47,1.47,0,0,0-.76-.2h-.2a1.14,1.14,0,0,0-.58.12,1.21,1.21,0,0,0-.48.31,1.11,1.11,0,0,0-.31.49,1.06,1.06,0,0,0-.13.58l.05.39a1.47,1.47,0,0,0,.39.67l.3.23a1.55,1.55,0,0,0,.76.21Z"/><path class="cls-17" d="M358.67,390a6.29,6.29,0,0,1,5.28.11"/><path class="cls-17" d="M346.39,390.14a7.11,7.11,0,0,1,6.06-.89"/><path class="cls-1" d="M459.92,278.34c-.62.29-1.25.58-1.88.84-1.24.53-2.58.85-3.8,1.39a15.51,15.51,0,0,1-3.33,1.25,3.34,3.34,0,0,0-1,.32,4,4,0,0,0-.74.62,6.74,6.74,0,0,1-3.18,1.66c-.9.2-2,.3-2.41,1.09a.42.42,0,0,0-.07.28c0,.13.17.19.3.24a15.48,15.48,0,0,0,6.86.85,26,26,0,0,0,8.47-2.07c2.56-1.1,4.69-3.1,6.95-4.73a5.19,5.19,0,0,0,1.08-.95.74.74,0,0,0,.19-.41c0-.52-.74-1.14-1.06-1.49a3.51,3.51,0,0,1-1-2A40.73,40.73,0,0,1,459.92,278.34Z"/><path class="cls-20" d="M439.05,285.15c-.4-.15-.79-.31-1.18-.48m6,1.79-.73-.14m-5.25-1.65a27.27,27.27,0,1,1,10.76,2.21,26.89,26.89,0,0,1-4.78-.42"/><path class="cls-17" d="M464,275.69a22.26,22.26,0,1,0-23.63,4.62"/><path class="cls-17" d="M464,275.69c-1.5-2.87-4-5.37-7-4.92-3.84.57-5.85,5.45-7.56,8.37-3.87,6.59,7.36.11,8.82-.89"/><path class="cls-17" d="M456.4,270.81c-8.16-.6-7-.45-8.5,2.4l-4,7.73a3.44,3.44,0,0,0-.52,1.59c.05,3.93,4.86,1.51,5.9,0"/><path class="cls-17" d="M444.89,284.78c-1.12.28-.89.28-1.75,1.05s-2.18,1.37-3.13.71-.86-2.16-.55-3.32a30.27,30.27,0,0,1,3.86-8.67c1.13-1.73,2.16-1.25,4.2-1.55"/></g></svg>