<svg xmlns="http://www.w3.org/2000/svg" viewBox="0 0 1920 1080"><defs><style>.cls-1{fill:#f7f8fa;}.cls-2,.cls-9{fill:#fff;}.cls-12,.cls-13,.cls-2{stroke:#31434d;}.cls-12,.cls-13,.cls-2,.cls-6,.cls-7{stroke-linecap:round;stroke-miterlimit:10;}.cls-3{fill:#7b176e;}.cls-4{fill:#53bcf7;}.cls-5{fill:#f6a001;}.cls-12,.cls-6,.cls-7{fill:none;}.cls-6{stroke:#f6a001;stroke-width:4px;}.cls-7{stroke:#fff;}.cls-8{fill:#e5e6e8;}.cls-10,.cls-13{fill:#276ce4;}.cls-11{fill:#ffe1cf;}</style></defs><title>2019-nC0v10</title><g id="background"><path class="cls-1" d="M1570.77,559.55c0,284.79-269.68,478.13-598.83,478.13S378.81,844.34,378.81,559.55,645.64,43.9,974.79,43.9,1570.77,274.77,1570.77,559.55Z"/><rect class="cls-2" x="439.41" y="66.2" width="45.3" height="145.45"/><rect class="cls-3" x="347.88" y="195" width="55.01" height="34.1"/><rect class="cls-2" x="242.72" y="322.46" width="174.74" height="60.96"/><rect class="cls-2" x="1607.31" y="539.16" width="41.92" height="142.18"/><rect class="cls-3" x="1685.77" y="655.92" width="50.84" height="50.84"/><rect class="cls-2" x="1465.44" y="872.78" width="141.22" height="83.22"/><rect class="cls-2" x="1669.34" y="799.59" width="46.55" height="46.55"/><rect class="cls-4" x="1553.36" y="777.9" width="34.6" height="34.6"/><rect class="cls-2" x="231.05" y="144.85" width="147.07" height="34.45"/><circle class="cls-5" cx="1581.37" cy="199.27" r="52.25"/><line class="cls-6" x1="1573.48" y1="233.33" x2="1574.12" y2="284.56"/><line class="cls-6" x1="1511.21" y1="148.57" x2="1552.52" y2="174.55"/><line class="cls-6" x1="1604.72" y1="172.93" x2="1631.85" y2="124.59"/><line class="cls-6" x1="1542.92" y1="214.11" x2="1508.1" y2="217.64"/><line class="cls-6" x1="1586.38" y1="120.19" x2="1583.33" y2="183.16"/><polyline class="cls-6" points="1638.53 162.75 1606.05 193.2 1666.22 192.18"/><line class="cls-6" x1="1556.3" y1="222.53" x2="1531.53" y2="257.79"/><line class="cls-6" x1="1587.53" y1="217.93" x2="1605.41" y2="261.86"/><line class="cls-6" x1="1600.29" y1="211.17" x2="1644.47" y2="241.04"/><path class="cls-6" d="M1518.72,182.45c14.6,2.35,16.22,5.05,30.81,7.4"/><path class="cls-6" d="M1549.83,142.84c4.72,12.33,10.23,16.64,15,29"/><circle class="cls-5" cx="1669.79" cy="191.67" r="13.46"/><circle class="cls-5" cx="1511.21" cy="148.57" r="13.46"/><circle class="cls-5" cx="1644.56" cy="158.03" r="13.46"/><circle class="cls-5" cx="1547.38" cy="136.88" r="13.46"/><circle class="cls-5" cx="1587.34" cy="124.54" r="13.46"/><circle class="cls-5" cx="1512.92" cy="178.8" r="13.46"/><circle class="cls-5" cx="1633.22" cy="121.34" r="13.46"/><circle class="cls-5" cx="1530.9" cy="258.79" r="13.46"/><circle class="cls-5" cx="1504.7" cy="217.15" r="13.46"/><circle class="cls-5" cx="1608.11" cy="267.81" r="13.46"/><circle class="cls-5" cx="1651.76" cy="245.63" r="13.46"/><circle class="cls-5" cx="1573.49" cy="285.56" r="13.46"/><circle class="cls-7" cx="1566.51" cy="188.28" r="13.78"/><circle class="cls-7" cx="1603.33" cy="190.05" r="4.48"/><circle class="cls-7" cx="1586.45" cy="219.01" r="7.85"/><circle class="cls-5" cx="325.75" cy="836.78" r="38.62"/><line class="cls-6" x1="319.92" y1="861.95" x2="320.39" y2="899.82"/><line class="cls-6" x1="273.89" y1="799.3" x2="304.43" y2="818.5"/><line class="cls-6" x1="343.01" y1="817.31" x2="363.07" y2="781.57"/><line class="cls-6" x1="297.33" y1="847.74" x2="271.6" y2="850.35"/><line class="cls-6" x1="329.45" y1="778.33" x2="327.2" y2="824.87"/><polyline class="cls-6" points="368 809.78 343.99 832.29 388.47 831.53"/><line class="cls-6" x1="307.22" y1="853.97" x2="288.91" y2="880.03"/><line class="cls-6" x1="330.31" y1="850.57" x2="343.52" y2="883.04"/><line class="cls-6" x1="339.73" y1="845.57" x2="372.39" y2="867.65"/><path class="cls-6" d="M279.45,824.34c10.78,1.74,12,3.73,22.77,5.47"/><path class="cls-6" d="M302.44,795.07c3.49,9.11,7.56,12.3,11.05,21.41"/><circle class="cls-5" cx="391.1" cy="831.16" r="9.95"/><circle class="cls-5" cx="273.89" cy="799.3" r="9.95"/><circle class="cls-5" cx="372.46" cy="806.3" r="9.95"/><circle class="cls-5" cx="300.63" cy="790.66" r="9.95"/><circle class="cls-5" cx="330.16" cy="781.54" r="9.95"/><circle class="cls-5" cx="275.15" cy="821.64" r="9.95"/><circle class="cls-5" cx="364.08" cy="779.18" r="9.95"/><circle class="cls-5" cx="288.45" cy="880.77" r="9.95"/><circle class="cls-5" cx="269.08" cy="849.99" r="9.95"/><circle class="cls-5" cx="345.52" cy="887.44" r="9.95"/><circle class="cls-5" cx="377.78" cy="871.04" r="9.95"/><circle class="cls-5" cx="319.93" cy="900.56" r="9.95"/><circle class="cls-7" cx="314.77" cy="828.65" r="10.19"/><circle class="cls-7" cx="341.99" cy="829.96" r="3.31"/><circle class="cls-7" cx="329.5" cy="851.37" r="5.8"/><circle class="cls-5" cx="495.98" cy="954.88" r="20"/><line class="cls-6" x1="492.96" y1="967.92" x2="493.21" y2="987.53"/><line class="cls-6" x1="469.13" y1="935.47" x2="484.94" y2="945.42"/><line class="cls-6" x1="504.92" y1="944.8" x2="515.31" y2="926.29"/><line class="cls-6" x1="481.26" y1="960.56" x2="467.94" y2="961.91"/><line class="cls-6" x1="497.9" y1="924.61" x2="496.73" y2="948.72"/><polyline class="cls-6" points="517.87 940.9 505.43 952.56 528.47 952.17"/><line class="cls-6" x1="486.39" y1="963.78" x2="476.91" y2="977.28"/><line class="cls-6" x1="498.34" y1="962.02" x2="505.19" y2="978.84"/><line class="cls-6" x1="503.23" y1="959.44" x2="520.14" y2="970.87"/><path class="cls-6" d="M472,948.44c5.59.9,6.21,1.93,11.8,2.83"/><path class="cls-6" d="M483.91,933.28c1.81,4.72,3.92,6.37,5.72,11.09"/><circle class="cls-5" cx="529.83" cy="951.97" r="5.15"/><circle class="cls-5" cx="469.13" cy="935.47" r="5.15"/><circle class="cls-5" cx="520.17" cy="939.1" r="5.15"/><circle class="cls-5" cx="482.97" cy="931" r="5.15"/><circle class="cls-5" cx="498.27" cy="926.27" r="5.15"/><circle class="cls-5" cx="469.78" cy="947.04" r="5.15"/><circle class="cls-5" cx="515.83" cy="925.05" r="5.15"/><circle class="cls-5" cx="476.67" cy="977.66" r="5.15"/><circle class="cls-5" cx="466.64" cy="961.73" r="5.15"/><circle class="cls-5" cx="506.22" cy="981.12" r="5.15"/><circle class="cls-5" cx="522.93" cy="972.63" r="5.15"/><circle class="cls-5" cx="492.97" cy="987.91" r="5.15"/><circle class="cls-7" cx="490.3" cy="950.67" r="5.28"/><circle class="cls-7" cx="504.39" cy="951.35" r="1.71"/><circle class="cls-7" cx="497.93" cy="962.44" r="3"/><circle class="cls-5" cx="345.64" cy="590.75" r="20"/><line class="cls-6" x1="342.61" y1="603.78" x2="342.86" y2="623.4"/><line class="cls-6" x1="318.78" y1="571.34" x2="334.59" y2="581.28"/><line class="cls-6" x1="354.57" y1="580.66" x2="364.96" y2="562.16"/><line class="cls-6" x1="330.92" y1="596.43" x2="317.59" y2="597.78"/><line class="cls-6" x1="347.55" y1="560.48" x2="346.39" y2="584.58"/><polyline class="cls-6" points="367.52 576.77 355.08 588.42 378.12 588.03"/><line class="cls-6" x1="336.04" y1="599.65" x2="326.56" y2="613.15"/><line class="cls-6" x1="348" y1="597.89" x2="354.84" y2="614.71"/><line class="cls-6" x1="352.88" y1="595.3" x2="369.79" y2="606.74"/><path class="cls-6" d="M321.65,584.31c5.59.9,6.21,1.93,11.8,2.83"/><path class="cls-6" d="M333.56,569.15c1.81,4.71,3.92,6.37,5.72,11.08"/><circle class="cls-5" cx="379.48" cy="587.84" r="5.15"/><circle class="cls-5" cx="318.78" cy="571.34" r="5.15"/><circle class="cls-5" cx="369.82" cy="574.96" r="5.15"/><circle class="cls-5" cx="332.63" cy="566.87" r="5.15"/><circle class="cls-5" cx="347.92" cy="562.14" r="5.15"/><circle class="cls-5" cx="319.43" cy="582.91" r="5.15"/><circle class="cls-5" cx="365.49" cy="560.92" r="5.15"/><circle class="cls-5" cx="326.32" cy="613.53" r="5.15"/><circle class="cls-5" cx="316.29" cy="597.59" r="5.15"/><circle class="cls-5" cx="355.87" cy="616.98" r="5.15"/><circle class="cls-5" cx="372.58" cy="608.49" r="5.15"/><circle class="cls-5" cx="342.62" cy="623.78" r="5.15"/><circle class="cls-7" cx="339.95" cy="586.54" r="5.28"/><circle class="cls-7" cx="354.04" cy="587.22" r="1.71"/><circle class="cls-7" cx="347.58" cy="598.31" r="3"/><circle class="cls-5" cx="1352.81" cy="108.78" r="25.51"/><line class="cls-6" x1="1348.96" y1="125.41" x2="1349.27" y2="150.43"/><line class="cls-6" x1="1318.55" y1="84.03" x2="1338.73" y2="96.71"/><line class="cls-6" x1="1364.21" y1="95.92" x2="1377.47" y2="72.31"/><line class="cls-6" x1="1334.04" y1="116.03" x2="1317.04" y2="117.75"/><line class="cls-6" x1="1355.26" y1="70.17" x2="1353.77" y2="100.92"/><polyline class="cls-6" points="1380.73 90.95 1364.87 105.82 1394.25 105.32"/><line class="cls-6" x1="1340.57" y1="120.14" x2="1328.48" y2="137.35"/><line class="cls-6" x1="1355.82" y1="117.89" x2="1364.55" y2="139.34"/><line class="cls-6" x1="1362.05" y1="114.59" x2="1383.63" y2="129.18"/><path class="cls-6" d="M1322.22,100.57c7.13,1.14,7.92,2.46,15,3.61"/><path class="cls-6" d="M1337.41,81.23c2.31,6,5,8.12,7.3,14.14"/><circle class="cls-5" cx="1395.99" cy="105.07" r="6.57"/><circle class="cls-5" cx="1318.55" cy="84.03" r="6.57"/><circle class="cls-5" cx="1383.67" cy="88.65" r="6.57"/><circle class="cls-5" cx="1336.22" cy="78.32" r="6.57"/><circle class="cls-5" cx="1355.73" cy="72.29" r="6.57"/><circle class="cls-5" cx="1319.39" cy="98.78" r="6.57"/><circle class="cls-5" cx="1378.13" cy="70.73" r="6.57"/><circle class="cls-5" cx="1328.17" cy="137.84" r="6.57"/><circle class="cls-5" cx="1315.38" cy="117.51" r="6.57"/><circle class="cls-5" cx="1365.87" cy="142.25" r="6.57"/><circle class="cls-5" cx="1387.19" cy="131.42" r="6.57"/><circle class="cls-5" cx="1348.97" cy="150.92" r="6.57"/><circle class="cls-7" cx="1345.56" cy="103.41" r="6.73"/><circle class="cls-7" cx="1363.54" cy="104.28" r="2.19"/><circle class="cls-7" cx="1355.29" cy="118.42" r="3.83"/><circle class="cls-5" cx="1593.84" cy="429.26" r="17.91"/><line class="cls-6" x1="1591.13" y1="440.94" x2="1591.35" y2="458.51"/><line class="cls-6" x1="1569.78" y1="411.88" x2="1583.95" y2="420.79"/><line class="cls-6" x1="1601.84" y1="420.23" x2="1611.15" y2="403.66"/><line class="cls-6" x1="1580.66" y1="434.35" x2="1568.72" y2="435.56"/><line class="cls-6" x1="1595.56" y1="402.15" x2="1594.51" y2="423.74"/><polyline class="cls-6" points="1613.44 416.74 1602.3 427.18 1622.93 426.83"/><line class="cls-6" x1="1585.24" y1="437.24" x2="1576.75" y2="449.33"/><line class="cls-6" x1="1595.95" y1="435.66" x2="1602.08" y2="450.72"/><line class="cls-6" x1="1600.32" y1="433.34" x2="1615.47" y2="443.59"/><path class="cls-6" d="M1572.36,423.49c5,.81,5.56,1.74,10.56,2.54"/><path class="cls-6" d="M1583,409.92c1.61,4.22,3.5,5.7,5.12,9.93"/><circle class="cls-5" cx="1624.15" cy="426.66" r="4.62"/><circle class="cls-5" cx="1569.78" cy="411.88" r="4.62"/><circle class="cls-5" cx="1615.5" cy="415.13" r="4.62"/><circle class="cls-5" cx="1582.19" cy="407.87" r="4.62"/><circle class="cls-5" cx="1595.89" cy="403.64" r="4.62"/><circle class="cls-5" cx="1570.37" cy="422.24" r="4.62"/><circle class="cls-5" cx="1611.62" cy="402.55" r="4.62"/><circle class="cls-5" cx="1576.54" cy="449.67" r="4.62"/><circle class="cls-5" cx="1567.55" cy="435.39" r="4.62"/><circle class="cls-5" cx="1603.01" cy="452.76" r="4.62"/><circle class="cls-5" cx="1617.97" cy="445.16" r="4.62"/><circle class="cls-5" cx="1591.14" cy="458.85" r="4.62"/><circle class="cls-7" cx="1588.75" cy="425.5" r="4.72"/><circle class="cls-7" cx="1601.37" cy="426.1" r="1.54"/><circle class="cls-7" cx="1595.58" cy="436.03" r="2.69"/><ellipse class="cls-8" cx="961.09" cy="1003.05" rx="426.1" ry="18.09"/></g><g id="doctor2"><path class="cls-4" d="M1266.74,237.1a5.2,5.2,0,1,1-5.2,5.2A5.19,5.19,0,0,1,1266.74,237.1Z"/><path class="cls-3" d="M1063.77,373.28l2.3,4.54c-4.28.63-7,2-10.82,4.45l-2.49-2.17a2.4,2.4,0,0,1,.44-3.93l7.29-3.92A2.4,2.4,0,0,1,1063.77,373.28Z"/><path class="cls-9" d="M1059.56,388.22c-1.38-1.91-2.81-3.89-4.31-6,3.78-2.41,6.54-3.82,10.82-4.45l10.51,14.68a2.82,2.82,0,0,0,2,3.85c.3.07.59.13.89.18l28.41,39.67a132.75,132.75,0,0,0-17-2.27c-8.81-12.94-15.7-23.61-26-38.26l.39-.17c1.38-.64,2.82-1.65,3-3.16.35-2.66-3.14-4-5.83-4.1C1061.49,388.2,1060.52,388.19,1059.56,388.22Z"/><path class="cls-10" d="M1368.26,933.46a534.3,534.3,0,0,1,5.51,59.1c-42.62,5.07-91.35,6.65-133.81,7.23a3.11,3.11,0,0,1-2.14-5.41c14.71-13.53,29.07-28.19,46.25-38.42-.61-6.36-1.4-12.72-1.71-19.08C1311.35,938.45,1338.74,935.63,1368.26,933.46Z"/><path class="cls-10" d="M1218.94,936.87c1.86,18.08,3.06,43.48,2.9,61.36a1156.18,1156.18,0,0,1-136.9,3.83l-3.47-.88a1.23,1.23,0,0,1-.61-2,186.45,186.45,0,0,1,56-42.7,158.42,158.42,0,0,0,.41-19.73q19.49,1.13,39,1.69C1190.47,938.86,1204.94,939,1218.94,936.87Z"/><path class="cls-4" d="M1238.83,588.74q-9.55,65.38-22,130.32a33.52,33.52,0,0,0-.58,7.48c.81,23,5.11,145.27,7.37,209.51-1.57.31-3.14.58-4.72.82-14,2.16-28.47,2-42.7,1.57q-19.52-.57-39-1.69-10.38-.59-20.76-1.34c2.63-82.11,6.46-234.71,6.46-234.71a716.65,716.65,0,0,1,47.59-219.87q11.32,2.37,22.78,4l.59.15c-.79,3.17-1.5,6.27-2.12,9.22,22.35,9.7,46.44,13.42,70.7,14,15.41.34,48.94,3.81,59.92-9.06,3.34-3.92,5.36-8.76,7.21-13.56,2.6-6.75,5-13.64,7.17-20.61,28.35,55.92,6.61,122.67,4.2,182.28-4.2,104,14.61,185.29,33.4,285.84l-6.11.43c-29.52,2.17-56.91,5-85.9,3.42q-8.1-.43-16.4-1.37c-11-81.62-27.44-224.9-27.44-224.9-1.28-3.88-.83-17-.65-21Q1240.07,639.19,1238.83,588.74Z"/><path class="cls-9" d="M1222.81,277.22c4.86,5.41,13.51,4.13,20.55,2.29l.19.42a63.75,63.75,0,0,1-38.45,4.51h0a1.67,1.67,0,0,1-1.34-1.51q-1.86-22.73-3-45.49a23,23,0,0,0,4.15,1.44q5.58,1.38,11.25,2.35,1.39,12.15,2.78,24.29C1219.41,269.67,1220,274.11,1222.81,277.22Z"/><path class="cls-10" d="M1073.26,434.61a2.11,2.11,0,0,1,1.58-.84,135,135,0,0,1,33,2.43c1.43.28,2.86.59,4.28.92l6.77.38q20.31,2.88,40.55,6.15,22.33,3.59,44.59,7.67A348.49,348.49,0,0,0,1193.89,485l-.59-.15q-11.44-1.6-22.78-4-4.38-.9-8.73-1.92c-6.08-1.42-16.53,2.18-23.3,1.83-7.24-.37-14.24-2-21.42-2.68a31.21,31.21,0,0,1-4-.54,27.44,27.44,0,0,0-6.45-.66c-6.58.14-12.54-1.92-17.3-2.2-4.38-.27-9.22-1.17-11.83-4.69.1-1.68,2.35-2.13,4-2.1,1.29,0,2.49-.13,3.77,0a8.91,8.91,0,0,0,2.41-.18c2.58-.42,5.16-.54,7.75-.74-.83-.57-2.67,0-3.67-.08-1.67-.14-3.35-.36-5-.65a59.41,59.41,0,0,1-10.06-2.66,2.66,2.66,0,0,1,.2-5.07,21.8,21.8,0,0,1,4.88-.55c3.23-.05,6.47-.07,9.7-.05,1.56,0,3.12,0,4.68,0,.72,0,1.5.12,2.21.06.13,0,1.07-.18,1.06-.18l-8.73-2.08a82.93,82.93,0,0,0-9.81-1.63,17,17,0,0,1-6.55-1.67l-.06,0a3,3,0,0,1,1.54-5.53c4.57,0,9.14-.13,13.71-.14,2.29,0,4.58,0,6.86.06,1.07,0,2.16.13,3.22.1.53,0,1.44-.43,1.72-.42-2.31,0-4-1-6.06-1.65a28.41,28.41,0,0,0-5.14-.72c-3.72-.36-6.51-1.75-10-3.23-2.38-1-5.6-1.68-7-3.82A2.1,2.1,0,0,1,1073.26,434.61Z"/><path class="cls-10" d="M1062.45,388.24c2.69.11,6.18,1.44,5.83,4.1-.2,1.51-1.64,2.52-3,3.16l-.39.17c10.34,14.65,17.23,25.32,26,38.26a132.57,132.57,0,0,0-16.07-.16,2.11,2.11,0,0,0-1.58.84,16.62,16.62,0,0,1-11-3.93c-.62-.6-4.07-7.46-3.35-7.46-4.24-.75-11.21-17.52-8.09-21a10.76,10.76,0,0,1-3.26-11.51l1-.75a42.9,42.9,0,0,1,11-1.75C1060.52,388.19,1061.49,388.2,1062.45,388.24Z"/><path class="cls-10" d="M1079.64,396.34a1,1,0,0,0-.51-.3c-.49-.08-1,0-1.47-.06a2.11,2.11,0,0,1-1.46-2.35c.6-4.5,9.39-5.78,12.84-6.09a53.33,53.33,0,0,1,14.35,1.07,14.82,14.82,0,0,1,6,2.54c.34.24.7.48,1.06.69,2.88,1.67,8.33,5.6,11.29,7.78a10.11,10.11,0,0,0,4.61,1.88l33.2,4.7c1,12.47.46,27.34-.06,37.45q-20.24-3.27-40.55-6.15l-6.77-.38c-1.42-.33-2.85-.64-4.28-.92-.77-.15-2.54-3.54-3-4.24l-3.48-4.85-7.44-10.39-7.82-10.93-4-5.52C1081.63,399.55,1080.56,397.19,1079.64,396.34Z"/><path class="cls-4" d="M1233.88,300.76l-1.11-17.07a63.15,63.15,0,0,0,10.78-3.76l-.19-.42c-7,1.84-15.69,3.12-20.55-2.29-2.8-3.11-3.4-7.55-3.87-11.7q-1.39-12.13-2.78-24.29-5.67-1-11.25-2.35a23,23,0,0,1-4.15-1.44c-2.89-1.37-5.26-3.46-5.13-6.47.09-2.32,1.75-4.24,3.43-5.83a44.93,44.93,0,0,1,12.25-8.24c12.93-14.88,36-19.83,53.91-11.54,4.56,2.1,8.87,5.09,11.53,9.34,2.85,4.58,3.51,10.15,4,15.52,2.16,23,4.09,47,6.52,70.24,12.63,1.37,26.81,5.94,35.48,12.64,15,11.59,22.7,25.62,26.38,44.22,4.59,23.25,1.35,47.76-3.1,70.76a342.75,342.75,0,0,1-9.28,36.83c-2.18,7-4.57,13.86-7.17,20.61-1.85,4.8-3.87,9.64-7.21,13.56-11,12.87-44.51,9.4-59.92,9.06-24.26-.54-48.35-4.26-70.7-14,.62-2.95,1.33-6.05,2.12-9.22a348.49,348.49,0,0,1,10.18-33.64q-22.24-4.08-44.59-7.67c.52-10.11,1.08-25,.06-37.45l.83.12c.5.07,2,.18,3.74.29,3.79-27.81,11.16-52.68,21.89-78.91,1.66-4.08,3.48-8.23,6.53-11.41C1202.17,306.25,1216.36,303.13,1233.88,300.76Zm38-58.46a5.2,5.2,0,1,0-5.19,5.2A5.19,5.19,0,0,0,1271.93,242.3Z"/><path class="cls-11" d="M1251.3,245.79c-.12-.72-.23-1.45-.34-2.17-.2-1.32-12.48.12-13.84.06-7.09-.34-14-1.67-21.08-2.42,1.07,7.88,2.9,16.32,2.9,24.26.47,4.15,1.07,8.59,3.87,11.7,6.58,7.31,21.07,3.6,28-1.19a9.07,9.07,0,0,0,3.1-3.18c.88-1.76.73-3.85.52-5.81C1253.68,259.91,1252.42,252.85,1251.3,245.79Z"/><path class="cls-9" d="M1252.91,255.8c-10.9,3.81-22.76,6.44-34.35,3a67.41,67.41,0,0,1,.38,6.76c.47,4.15,1.07,8.59,3.87,11.7,6.58,7.31,21.07,3.6,28-1.19a9.07,9.07,0,0,0,3.1-3.18c.88-1.76.73-3.85.52-5.81C1254,263.28,1253.5,259.53,1252.91,255.8Z"/><path class="cls-3" d="M1092.82,421.09a12.69,12.69,0,0,1-.53,1.5c-.18.45-.28.93-.47,1.38a20.5,20.5,0,0,1-1.46,2.68.49.49,0,0,0,.42.73,30.42,30.42,0,0,0,3.31.11,10.8,10.8,0,0,0,1.7-.2c.49-.08,1.26-.19,1.5-.7a.5.5,0,0,0-.17-.65c-.46-.32-1.2-.05-1.69.05s-1,.18-1.51.27a11.79,11.79,0,0,1-3.14.14l.42.74a22.42,22.42,0,0,0,1.45-2.9,5.16,5.16,0,0,0,.41-1.44,8.59,8.59,0,0,0-.06-1.68c0-.1-.15-.14-.18,0Z"/><path class="cls-12" d="M1374.38,933h0c-18.8-100.55-37.6-181.86-33.4-285.84,2.41-59.6,24.15-126.36-4.2-182.28"/><path class="cls-12" d="M1116.47,935.41c2.63-82.11,6.46-234.71,6.46-234.71a716.71,716.71,0,0,1,47.59-219.88"/><path class="cls-12" d="M1266,935.51c-11-81.62-27.44-224.9-27.44-224.9-1.28-3.88-.83-17-.65-21q2.2-50.39,1-100.84-.84-34.74-3.33-69.41"/><path class="cls-12" d="M1276.13,446.67c0-33.84,8.43-77,15.53-115"/><path class="cls-12" d="M1275.86,300.16c14.43-1.05,35.46,4.1,46.91,12.94,15,11.59,22.7,25.62,26.38,44.22,4.59,23.25,1.35,47.76-3.1,70.76a341.86,341.86,0,0,1-16.45,57.44c-1.85,4.8-3.87,9.64-7.21,13.56-11,12.87-44.51,9.4-59.92,9.06-24.26-.54-48.35-4.26-70.7-14"/><path class="cls-12" d="M1164.08,405.84c3.78-27.9,11.16-51.84,21.92-78.14,1.66-4.08,3.48-8.23,6.53-11.41,10.65-11.09,26.85-13.74,47-16.26"/><path class="cls-12" d="M1208.62,439.69c-1.52,3.55-3,7.47-4.55,11.63a338.59,338.59,0,0,0-12.3,42.86"/><path class="cls-12" d="M1208.62,439.69c29,1.29,57.81,3.86,85.92,11"/><path class="cls-12" d="M1104.58,447.42c-4.47-.44-9.93-2.88-14.4-3.33-3.72-.36-6.51-1.75-10-3.23-2.38-1-5.6-1.68-7-3.82a2.1,2.1,0,0,1,1.64-3.27,134.64,134.64,0,0,1,37.32,3.35l6.77.38q42.71,6.06,85.14,13.82"/><path class="cls-12" d="M1104.6,447.16c-9.25-.7-19.25-.38-28.73-.29a3,3,0,0,0-1.54,5.52l.06,0a17.19,17.19,0,0,0,6.55,1.68c7,.83,14.79,3.12,21.8,3.95"/><path class="cls-12" d="M1102.74,458.06q-10.44-.29-20.91-.11a20.7,20.7,0,0,0-4.88.55,2.66,2.66,0,0,0-.2,5.07,59.43,59.43,0,0,0,26,3.22"/><path class="cls-12" d="M1102.72,466.79c-8.7-.19-12.46,1.26-21.17,1.07-1.69,0-3.94.42-4,2.11,2.61,3.52,7.45,4.41,11.83,4.68,4.76.29,10.72,2.34,17.3,2.21a26.92,26.92,0,0,1,6.45.66,33.09,33.09,0,0,0,4,.53c7.18.66,14.18,2.32,21.42,2.69,6.77.34,17.22-3.26,23.3-1.84q15.62,3.66,31.51,5.92"/><path class="cls-12" d="M1094.63,398a69.27,69.27,0,0,1-16.05-1.63,2.84,2.84,0,0,1-.87-5.18,25.48,25.48,0,0,1,11.33-3.63,53.33,53.33,0,0,1,14.35,1.07,15.1,15.1,0,0,1,6,2.54h0a12,12,0,0,0,1.06.69c2.88,1.67,8.32,5.61,11.29,7.78a10.24,10.24,0,0,0,4.61,1.89l33.2,4.69.83.12c1.24.17,8.91.6,10.15.77"/><path class="cls-12" d="M1058.24,397.35a19.75,19.75,0,0,0,6.63-1.68c.29-.11.58-.27.88-.37a3.65,3.65,0,0,0,2.11-1.7c1.81-3.5-2.32-5.23-5.41-5.36-1,0-1.93-.05-2.89,0a42.9,42.9,0,0,0-11,1.75,3.53,3.53,0,0,0-1.31,2.1,10.86,10.86,0,0,0,3.14,9.74.73.73,0,0,1,.16.88c-2.44,4.6,1.1,12.14,3.6,16,1.43,2.21,3.61,3.24,5.12,5.05s1.7,4.46,3,6.34c2.18,3.25,6.91,5,10.77,4.46"/><path class="cls-12" d="M1159.54,406.2c1,12.47.46,27.34-.06,37.45"/><path class="cls-12" d="M1055.25,382.27c3.78-2.41,6.54-3.82,10.82-4.45"/><path class="cls-12" d="M1064.87,395.67c10.34,14.65,17.23,25.32,26,38.26"/><path class="cls-12" d="M1079.47,396.53l28.41,39.67.11.16"/><path class="cls-12" d="M1059.56,388.22c-1.38-1.91-2.81-3.89-4.31-6l-2.49-2.16a2.41,2.41,0,0,1,.44-3.94l7.29-3.92a2.4,2.4,0,0,1,3.28,1l2.3,4.53,10.51,14.68"/><path class="cls-12" d="M1185.54,346.34a370.24,370.24,0,0,0-6.59,99.87"/><path class="cls-12" d="M1116.23,405a20.18,20.18,0,0,1,1.67,15.62"/><path class="cls-12" d="M1117.39,420.66a20.44,20.44,0,0,1,1.53,8.13"/><path class="cls-12" d="M1287.37,300.23c-2.48-23.53-4.42-46.75-6.6-70-.51-5.37-1.17-10.93-4-15.51-2.66-4.26-7-7.24-11.53-9.35-17.92-8.3-41.07-3.31-54,11.63"/><path class="cls-12" d="M1233.88,300.76l-1.11-17.07"/><path class="cls-12" d="M1251.11,244.3l2.88,24.31"/><path class="cls-12" d="M1212.16,216.52a45.19,45.19,0,0,0-13.1,8.62c-1.68,1.59-3.34,3.52-3.43,5.83-.19,4.42,5,6.85,9.28,7.91a159.17,159.17,0,0,0,52.37,4"/><path class="cls-12" d="M1253.83,274a63.54,63.54,0,0,1-48.73,10.41h0a1.66,1.66,0,0,1-1.34-1.51q-1.86-22.73-3-45.49"/><circle class="cls-13" cx="1266.74" cy="242.3" r="5.2"/><path class="cls-12" d="M1216.82,220.92a42.11,42.11,0,0,1,44.65-4.43"/><path class="cls-12" d="M1273,263l1.21,34"/><path class="cls-12" d="M1216.16,241.23q1.39,12.15,2.78,24.29c.47,4.15,1.07,8.59,3.87,11.7,4.86,5.41,13.51,4.13,20.55,2.29"/><path class="cls-12" d="M1223.66,936.05c-2.26-64.23-6.56-186.53-7.37-209.5a33.57,33.57,0,0,1,.58-7.49q12.41-64.9,22-130.32"/><path class="cls-12" d="M1266,935.51q8.31.94,16.4,1.37c29,1.57,56.38-1.25,85.9-3.42l6.11-.43h0"/><path class="cls-12" d="M1116.47,935.41q10.38.75,20.76,1.34,19.49,1.13,39,1.69c14.23.42,28.7.59,42.7-1.57,1.58-.24,3.15-.51,4.72-.82"/><path class="cls-12" d="M1218.94,936.87c1.86,18.08,3.06,43.48,2.9,61.36"/><path class="cls-12" d="M1368.26,933.46a534.3,534.3,0,0,1,5.51,59.1"/><path class="cls-12" d="M1137.23,936.75a158.42,158.42,0,0,1-.41,19.73"/><path class="cls-12" d="M1284.07,956c-.61-6.36-1.4-12.72-1.71-19.08"/><path class="cls-12" d="M1284.07,956c-17.18,10.23-31.54,24.89-46.25,38.42a3.11,3.11,0,0,0,2.14,5.41c42.46-.58,91.19-2.16,133.81-7.23"/><path class="cls-12" d="M1136.82,956.48a186.45,186.45,0,0,0-56,42.7,1.23,1.23,0,0,0,.61,2l3.47.88a1156.18,1156.18,0,0,0,136.9-3.83"/><path class="cls-12" d="M1218.75,258.65c11,1.54,23.18,2.85,32.49-3.27"/><path class="cls-12" d="M1225.93,251.9a12.11,12.11,0,0,1-1,7"/><path d="M1220.11,252.32a1.5,1.5,0,0,0,0-3,1.5,1.5,0,0,0,0,3Z"/><path d="M1232.77,252.79a1.5,1.5,0,0,0,0-3,1.5,1.5,0,0,0,0,3Z"/><path class="cls-12" d="M1231,246.61a6.71,6.71,0,0,1,5.28.83"/><path class="cls-12" d="M1216.75,246.74c.81-1.09,3.48-1.41,4.64-.71"/></g><g id="doctor1"><path class="cls-10" d="M782.17,281.85l2.62,2.15c-3,.4-6,.88-9,1.42A29.54,29.54,0,0,1,782.17,281.85Z"/><path class="cls-10" d="M804.6,276.28c.51,2.15-.7,4.31-.88,6.51v.2l-1,0-8.46-7.09.18-.21a13.46,13.46,0,0,1,3.28-2,4.83,4.83,0,0,1,6,.83A4.12,4.12,0,0,1,804.6,276.28Z"/><path class="cls-4" d="M674.89,246.2a4.5,4.5,0,1,1-4.5,4.5A4.5,4.5,0,0,1,674.89,246.2Z"/><path class="cls-9" d="M861.45,397.72a97.3,97.3,0,0,0,10.08-5.49l.11.19a80,80,0,0,0-10.32,7.94q-2.07,1.86-4,3.89a8,8,0,0,0-2.08,3.14,3,3,0,0,0,1,3.38c1.12.69,2.57.27,3.81-.21l.73-.29a74,74,0,0,0,9.55-4.57l.13.22a35.65,35.65,0,0,0-9.44,7.57c-.14.17-.29.34-.43.52a12.8,12.8,0,0,0-1.29,1.91,2.19,2.19,0,0,0,1,3l-1.17,23.86a8.75,8.75,0,0,1-9.24,8.3c-4.63-.26-4.24-4.11-4.24-8.72,0-.11.58-14.8.58-14.8l.17-3,1.94-34.17a1.41,1.41,0,0,0,.57.45,3,3,0,0,0,2.11-.14,48.9,48.9,0,0,0,10.92-5.15c1-.63,2-1.3,2.93-2l-3,2.85-9.11,8.75c-.88.84-1.84,1.89-1.69,3.1a2.73,2.73,0,0,0,2.54,2.11,7.61,7.61,0,0,0,3.45-.79Q859.35,398.72,861.45,397.72Z"/><path class="cls-9" d="M864.16,342.62l-1,20.67L862.62,374a134.81,134.81,0,0,0-12.94,12,11.37,11.37,0,0,0-1.06,1.24l1-17,.08-2,1-25.61Z"/><path class="cls-9" d="M837.42,312.08a5.71,5.71,0,0,1,.27,8.55,5.91,5.91,0,0,1-7.85.25l-21.71-16.77-.14-.31c2.39-1.08,4-3,.67-5.51-2.65-2-6.24-2.45-9.45-2.48.38-.07,12-1.7,16.12-2.29v0Z"/><path class="cls-9" d="M794.23,275.86l8.46,7.09a109.86,109.86,0,0,0-17.9,1.05l-2.62-2.15-19.66-16.08,8.27-9.58,23.13,19.4Z"/><path class="cls-3" d="M861.24,330.76a3.61,3.61,0,0,1,3.59,3.91l-.67,7.95H850.67l-.72-7.93a3.61,3.61,0,0,1,3.59-3.93Z"/><path class="cls-3" d="M766.83,251.7l3.95,4.49-8.27,9.58L757.68,263a1.58,1.58,0,0,1-.39-2.18l7.25-8.71A1.62,1.62,0,0,1,766.83,251.7Z"/><path class="cls-10" d="M798.38,966.43c14.48,9.77,28.5,21.19,42,32.31a2.43,2.43,0,0,1-1.54,4.31c-39.25-1-86.21-1.61-125.57-2.61,1.23-18.07,3.13-43.71,4.54-59.59v-.11a662.78,662.78,0,0,0,83.49,1.48l.08,1.72c-.61,7.4-2.21,14.79-2.81,22.19Z"/><path class="cls-10" d="M695,997.93a2.42,2.42,0,0,1-1.56,4.31c-40-1-87.89-1.61-128-2.61,1.25-18.07,3.19-42.71,4.63-58.59,27.76,2.37,55.64,3.4,83.49,3.09q-.91,11.1-1.81,22.19Q674.12,981.08,695,997.93Z"/><path class="cls-10" d="M870.52,405.92l-.13-.22a74,74,0,0,1-9.55,4.57l-.73.29c-1.24.48-2.69.9-3.81.21a3,3,0,0,1-1-3.38,8,8,0,0,1,2.08-3.14q1.9-2,4-3.89a80,80,0,0,1,10.32-7.94l-.11-.19a97.3,97.3,0,0,1-10.08,5.49q-2.1,1-4.25,1.88a7.61,7.61,0,0,1-3.45.79,2.73,2.73,0,0,1-2.54-2.11c-.15-1.21.81-2.26,1.69-3.1l9.11-8.75,3-2.85c-1,.71-1.93,1.38-2.93,2a48.9,48.9,0,0,1-10.92,5.15,3,3,0,0,1-2.11.14,1.41,1.41,0,0,1-.57-.45l.17-3.17a11.37,11.37,0,0,1,1.06-1.24,134.81,134.81,0,0,1,12.94-12l.53-10.72a19.58,19.58,0,0,1,7,.73,15,15,0,0,1,5.58,2.29c3,2.23,4.15,6.18,4.39,9.91s-.27,7.48.22,11.17c.74,5.49,3.92,12.14,1.87,17.94-2.35,6.66-11.2,9.4-17,12.32a19.41,19.41,0,0,1-3.41,1.4,2.07,2.07,0,0,1-1.42-.1,2.19,2.19,0,0,1-1-3,12.8,12.8,0,0,1,1.29-1.91c.14-.18.29-.35.43-.52A35.65,35.65,0,0,1,870.52,405.92Z"/><path class="cls-10" d="M849.59,370.23l-1,17a3.73,3.73,0,0,0-.54,1.14,2.32,2.32,0,0,0,.37,2l-1.94,34.17h-.17c-5.25,4-14.86,10.46-20.73,13.45-8.07-14.73-9.1-28.38-11.53-43.47l.32-.05c7.58-7.93,25-20.14,35.19-26.29h.08Z"/><path class="cls-10" d="M787.16,307.46a52.2,52.2,0,0,0-7.34,1.52ZM784.79,284a109.86,109.86,0,0,1,17.9-1.05l1,0a70.34,70.34,0,0,1,10.88,1.28c2.25.45,4.6,1.08,6,3.1a3.71,3.71,0,0,1,.61,2.86c-.48,2.16-2.58,2.75-4.45,3.09l-1.39.2c-4.09.59-15.74,2.22-16.12,2.29,3.21,0,6.8.48,9.45,2.48,3.3,2.49,1.72,4.43-.67,5.51a11.55,11.55,0,0,1-2.87.88c-6,1-12,1.54-17.91,2.77a71.09,71.09,0,0,1,14.55-.76c2.85.25,6.55,2.14,5.6,4.84-.52,1.45-2.17,2.08-3.63,2.55L784.91,320c11.3-3.51,13.65-3.28,16.33-3.75a10.59,10.59,0,0,1,4.16.08,2.79,2.79,0,0,1,1.2,4.79c-3.07,2.76-7.21,4.58-11.23,5.91C783,331.15,772,343.17,764.47,353.6a148.57,148.57,0,0,0-8.7,13.5,24.24,24.24,0,0,0-2.76,7.43,167.13,167.13,0,0,1-38.47-20.06,464.59,464.59,0,0,1,24.74-40.53,171.34,171.34,0,0,1,16.13-20.31,15.89,15.89,0,0,1,2.68-2.08l1.85-1.24a23.08,23.08,0,0,1,8.26-3.43c2.53-.51,5.07-1,7.62-1.45h0C778.81,284.88,781.8,284.4,784.79,284Z"/><path class="cls-4" d="M826.81,440.16l-16,16.74c-11.16,11.72-33.15,31.2-48.34,35.68-.79-1.83-1.59-3.63-2.39-5.42a14.23,14.23,0,0,1-1.25-5.67c-.23-18.58-3.27-36.78-3.85-55.15,10.3-3.49,21.73-7.84,32.06-13.39A93.94,93.94,0,0,0,804,401.57c3-2.56,6.84-5.26,10-7.61,0,.2.07.41.1.61,2.43,15.09,3.46,28.74,11.53,43.47C826,438.74,826.39,439.45,826.81,440.16Z"/><path class="cls-4" d="M755,426.34c.58,18.37,3.62,36.57,3.85,55.15a14.23,14.23,0,0,0,1.25,5.67c.8,1.79,1.6,3.59,2.39,5.42,27.78,63.88,48.7,148.29,55.29,221.32,0,0,2.69,144.19.57,227.34q-8.52.6-17.06,1a662.78,662.78,0,0,1-83.49-1.48l-4.55-.38c4.51-86.51,7.21-215.82,7.21-215.82q-7.92-49.83-20-98.89-2.47,47.13-4.88,94.26l.15,3.57q-10.21,110.73-29.12,220.41c-4.37.12-8.74.19-13.11.24-27.85.31-55.73-.72-83.49-3.09-2.76-.23-5.51-.48-8.27-.74a1111.59,1111.59,0,0,0,31.57-337.51c-2.38-39.54-6.69-80.53,7-117.71-5.37-31.33-15-67.4-14.35-99.18.18-9.2.63-18.48,3.12-27.33,8.32-29.54,23.2-45.55,70.26-51.37q.07-26.1-2.34-52.12c-.72-7.81-1.6-15.79.2-23.42,5.37-22.76,36.57-27,55.17-20.3,12.69,4.59,25.15,12.93,29.89,25.42a9.42,9.42,0,0,1,.62,3.6l-.07,3c-.4,11.71-4,33-5.17,40.09a4.3,4.3,0,0,1-2.61,3.25c-11.66,4.82-19.58,7.15-28.17,7-.18,3.19-.35,6.39-.53,9.59l.74,0a52.45,52.45,0,0,1,32.17,10.53,464.59,464.59,0,0,0-24.74,40.53A167.13,167.13,0,0,0,753,374.53a24.24,24.24,0,0,1,2.76-7.43,148.57,148.57,0,0,1,8.7-13.5c8.07,19.48,17.31,38,22.54,58.49l.07.86C776.75,418.5,765.32,422.85,755,426.34ZM679.39,250.7a4.5,4.5,0,1,0-4.5,4.49A4.5,4.5,0,0,0,679.39,250.7Z"/><path class="cls-11" d="M709.13,287c-8,2.65-15.91-.2-23.45-2.77a1.65,1.65,0,0,1-1.11-.79,1.6,1.6,0,0,1,0-.84c.88-5,1.93-9.95,2.38-15.08a103.09,103.09,0,0,0,0-15.62c0-.51,0-1.14.42-1.41a1.42,1.42,0,0,1,.84-.14c4.83.17,9.66.45,14.49.4,6.26-.07,12.17-1.73,18.31-2.59a.89.89,0,0,1,.68.08c.25.18.24.55.21.86a186.08,186.08,0,0,1-6.17,31.71C714.86,284,712.23,286,709.13,287Z"/><path class="cls-9" d="M687,266.05c0,.49,0,1-.09,1.48-.45,5.13-1.5,10-2.38,15.08a1.6,1.6,0,0,0,0,.84,1.65,1.65,0,0,0,1.11.79c7.54,2.57,15.49,5.42,23.45,2.77,3.1-1.05,5.73-3,6.65-6.19q2.07-7.23,3.55-14.62C709.35,270.8,697.87,268.58,687,266.05Z"/><path class="cls-12" d="M561.79,940.3a1111.59,1111.59,0,0,0,31.57-337.51c-2.38-39.54-6.69-80.53,7-117.71"/><path class="cls-12" d="M755.14,412.48c-1.24,23.13,3.45,45.78,3.73,69a14.23,14.23,0,0,0,1.25,5.67c29,64.47,50.9,151.63,57.68,226.74,0,0,2.69,144.19.57,227.34"/><path class="cls-12" d="M700.51,625.65q12,49,20,98.89s-2.7,129.31-7.21,215.82"/><path class="cls-12" d="M666.66,943.89q18.89-109.57,29.12-220.41l-.15-3.57q2.4-47.13,4.88-94.26,2.26-43.24,4.59-86.49"/><path class="cls-12" d="M713.27,940.36a664.49,664.49,0,0,0,105.1.88"/><path class="cls-12" d="M561.79,940.3a872.09,872.09,0,0,0,104.87,3.59"/><path class="cls-12" d="M660.21,307.09c-47.72,5.74-62.72,21.76-71.08,51.47-2.5,8.85-3,18.14-3.13,27.34-.64,31.77,9,67.85,14.35,99.18"/><path class="cls-12" d="M764.47,353.6c8.07,19.48,17.31,38,22.54,58.49"/><path class="cls-12" d="M707.11,303.41a52.45,52.45,0,0,1,32.17,10.53"/><path class="cls-12" d="M654.88,352.25a251.67,251.67,0,0,1,26.22,46"/><path class="cls-12" d="M706.26,294c-.19,3.42.26,5.68.07,9.11"/><path class="cls-12" d="M799.21,295.81c.46-.08,17-2.41,17.51-2.49,1.87-.34,4-.93,4.45-3.09a3.71,3.71,0,0,0-.61-2.86c-1.37-2-3.72-2.65-6-3.1a71.29,71.29,0,0,0-11.9-1.32,109.86,109.86,0,0,0-17.9,1.05c-5.56.74-11.1,1.78-16.59,2.88a23.08,23.08,0,0,0-8.26,3.43l-1.85,1.24a15.89,15.89,0,0,0-2.68,2.08,171.34,171.34,0,0,0-16.13,20.31,464.59,464.59,0,0,0-24.74,40.53l-.47.86c-13.32,16.68-19.4,24.75-33,42.91-7.13,9.52-16.31,21.82-29.68,39.59"/><path class="cls-12" d="M686.6,250.64a141.41,141.41,0,0,1-3,36.42"/><path class="cls-12" d="M693.4,250.53a78.53,78.53,0,0,0,43-8.54"/><path class="cls-12" d="M686.87,290.14c19.52,5.77,28.55,4.71,48.2-3.41a4.33,4.33,0,0,0,2.62-3.25c1.21-7.05,4.76-28.38,5.16-40.09l.07-3a9.45,9.45,0,0,0-.62-3.6c-4.74-12.49-17.2-20.82-29.89-25.41-18.59-6.73-49.8-2.46-55.17,20.29-1.8,7.64-.92,15.61-.2,23.43,1.61,17.33,2.39,34.75,2.34,52.16"/><path class="cls-12" d="M779.82,309l7.34-1.52c5.94-1.24,12-1.78,18-2.78,3.32-.57,8.11-2.95,3.54-6.4-2.65-2-6.23-2.44-9.45-2.47-1.14,0-2.28.05-3.4.13a143.44,143.44,0,0,0-18.26,3.27"/><path class="cls-12" d="M779.82,309a75.11,75.11,0,0,1,21.94-2.29c2.85.26,6.55,2.15,5.6,4.85-.52,1.44-2.17,2.08-3.63,2.54l-19.94,6.31"/><path class="cls-12" d="M595.79,376.35a412.4,412.4,0,0,0,53.43,93.25c7.27,9.53,15.34,19,25.91,24.5a18.4,18.4,0,0,0,5.61,1.79l3,.47a19.51,19.51,0,0,0,14.31-3.3c18-12.65,31-31.71,39.68-52.05,9.22-21.68,11.18-43.17,15.25-66.16l.06-.32a24.24,24.24,0,0,1,2.76-7.43,148.57,148.57,0,0,1,8.7-13.5c7.55-10.43,18.49-22.45,30.9-26.54,4-1.33,8.16-3.15,11.23-5.91a2.79,2.79,0,0,0-1.2-4.79,10.59,10.59,0,0,0-4.16-.08c-2.77.48-5.18.22-17.45,4.1"/><path class="cls-12" d="M714.54,354.47A167.13,167.13,0,0,0,753,374.53"/><path class="cls-12" d="M814,394c2.62,16.05,3.54,30.45,12.83,46.2"/><path class="cls-12" d="M725.07,230.15c-9.35-5-19.37-9.27-29.94-9.65s-21.84,3.87-27.41,12.87c-6.82,11-3.5,25.16-1.66,38a144.74,144.74,0,0,1,.6,36"/><circle class="cls-13" cx="674.89" cy="250.69" r="4.5"/><path class="cls-12" d="M755,426.35c16.49-5.58,35.88-13.39,49-24.78,3-2.56,6.84-5.26,10-7.61"/><path class="cls-12" d="M762.51,492.58c15.19-4.48,37.18-24,48.34-35.68l16-16.74"/><path class="cls-12" d="M869.62,368.66q-3.58,2.55-7,5.35a134.81,134.81,0,0,0-12.94,12,5.84,5.84,0,0,0-1.6,2.38,2.09,2.09,0,0,0,.94,2.48,3,3,0,0,0,2.11-.14,48.9,48.9,0,0,0,10.92-5.15c1-.63,2-1.3,2.93-2,.56-.4,2.1-1.83,2.64-2.26"/><path class="cls-12" d="M865,383.58l-3,2.85-9.11,8.75c-.88.84-1.84,1.89-1.69,3.1a2.73,2.73,0,0,0,2.54,2.11,7.61,7.61,0,0,0,3.45-.79q2.14-.89,4.25-1.88a97,97,0,0,0,10.16-5.54"/><path class="cls-12" d="M871.64,392.42a80,80,0,0,0-10.32,7.94q-2.07,1.86-4,3.89a8,8,0,0,0-2.08,3.14,3,3,0,0,0,1,3.38c1.12.69,2.57.27,3.81-.21l.73-.29A74,74,0,0,0,873.21,404"/><path class="cls-12" d="M874.14,403.9c-5,2.68-9.41,5.29-13.06,9.59-.14.17-.29.34-.43.52a12.8,12.8,0,0,0-1.29,1.91,2.19,2.19,0,0,0,1,3,2.07,2.07,0,0,0,1.42.1,19.41,19.41,0,0,0,3.41-1.4c5.8-2.92,14.65-5.66,17-12.32,2-5.8-1.13-12.45-1.87-17.94-.49-3.69,0-7.45-.22-11.17s-1.4-7.68-4.39-9.91a15,15,0,0,0-5.58-2.29,19.58,19.58,0,0,0-7-.73"/><path class="cls-12" d="M814.4,394.52c7.58-7.93,25-20.14,35.19-26.29"/><path class="cls-12" d="M860.41,419l-1.17,23.86a8.75,8.75,0,0,1-9.24,8.3c-4.63-.26-4.24-4.11-4.24-8.72,0-.11.58-14.8.58-14.8l3.25-57.36,1.08-27.61h13.49l-1,20.67L862.62,374"/><path class="cls-12" d="M825.61,438c5.87-3,15.48-9.49,20.73-13.45"/><path class="cls-12" d="M803.72,282.79c.18-2.2,1.39-4.36.88-6.51a4.12,4.12,0,0,0-.94-1.79,4.82,4.82,0,0,0-6-.83,12.87,12.87,0,0,0-3.28,2"/><path class="cls-12" d="M784.79,284l-22.28-18.23,8.27-9.58,23.13,19.4,8.78,7.36A109.86,109.86,0,0,0,784.79,284Z"/><path class="cls-12" d="M815.34,293.56l22.08,18.52a5.71,5.71,0,0,1,.27,8.55,5.91,5.91,0,0,1-7.85.25l-21.71-16.77"/><path class="cls-12" d="M770.78,256.19l-3.94-4.49a1.64,1.64,0,0,0-2.3.4l-7.25,8.72a1.59,1.59,0,0,0,.39,2.18l4.83,2.76"/><path class="cls-12" d="M864.16,342.62l.68-7.95a3.62,3.62,0,0,0-3.6-3.92h-7.7a3.61,3.61,0,0,0-3.59,3.94l.72,7.93"/><path class="cls-12" d="M565.43,999.63c1.25-18.07,3.19-42.71,4.63-58.59"/><path class="cls-12" d="M653.55,944.13q-.91,11.1-1.81,22.19"/><path class="cls-12" d="M565.43,999.63c40.12,1,88,1.61,128,2.6a2.42,2.42,0,0,0,1.57-4.31q-20.87-16.83-43.27-31.6"/><path class="cls-12" d="M713.27,1000.44c1.23-18.07,3.13-43.71,4.54-59.59"/><path class="cls-12" d="M801.39,943.94c-.61,7.4-2.21,14.79-2.81,22.19"/><path class="cls-12" d="M713.27,1000.44c39.36,1,86.32,1.61,125.57,2.6a2.43,2.43,0,0,0,1.54-4.31c-13.63-11.22-27.8-22.77-42.44-32.6"/><path class="cls-12" d="M776.88,284.66a17.61,17.61,0,0,1,5.49-2.89"/><path class="cls-12" d="M722.57,248.41l-4.93,26.49c-.49,2.64-1,5.37-2.5,7.61-3.61,5.43-11.34,6.07-17.77,5a56.72,56.72,0,0,1-12.87-3.7"/><path class="cls-12" d="M686.54,265.73a55.38,55.38,0,0,0,32.13.26"/><path class="cls-12" d="M712.42,260.17a32.43,32.43,0,0,0,.32,6.89"/><path d="M701,260.78v.4a1.06,1.06,0,0,0,.13.58,1.36,1.36,0,0,0,.79.79,1.06,1.06,0,0,0,.58.13l.4-.05a1.49,1.49,0,0,0,.66-.39l.23-.3a1.48,1.48,0,0,0,.21-.76v-.4a1.15,1.15,0,0,0-.13-.58,1.11,1.11,0,0,0-.31-.48,1.14,1.14,0,0,0-.48-.31,1.08,1.08,0,0,0-.58-.13l-.4.05a1.39,1.39,0,0,0-.66.39l-.24.3a1.54,1.54,0,0,0-.2.76Z"/><path d="M716.17,260v.4a1.06,1.06,0,0,0,.13.58,1,1,0,0,0,.31.48,1.08,1.08,0,0,0,.48.31,1.06,1.06,0,0,0,.58.13l.4-.05a1.49,1.49,0,0,0,.66-.39l.23-.3a1.45,1.45,0,0,0,.21-.76V260a1.15,1.15,0,0,0-.13-.58,1.08,1.08,0,0,0-.31-.48,1.14,1.14,0,0,0-.48-.31,1.06,1.06,0,0,0-.58-.13l-.4,0a1.49,1.49,0,0,0-.66.39l-.24.3a1.57,1.57,0,0,0-.2.76Z"/><path class="cls-12" d="M697.37,258.25a8.61,8.61,0,0,1,5.72-1.08"/><path class="cls-12" d="M715.23,256.32a6.54,6.54,0,0,1,4,.12"/></g></svg>