<svg xmlns="http://www.w3.org/2000/svg" viewBox="0 0 1920 1080"><defs><style>.cls-1{fill:#f7f8fa;}.cls-2{fill:#e8e9eb;}.cls-13,.cls-3{fill:#fff;}.cls-17,.cls-3{stroke:#31434d;}.cls-17,.cls-22,.cls-23,.cls-25,.cls-3,.cls-5,.cls-9{stroke-linecap:round;}.cls-17,.cls-22,.cls-23,.cls-25,.cls-3,.cls-5{stroke-miterlimit:10;}.cls-4{fill:#53bcf7;}.cls-5,.cls-6{fill:#88cff7;}.cls-5{stroke:#42494d;}.cls-7{fill:#f6b336;}.cls-8{fill:#7b176e;}.cls-17,.cls-22,.cls-23,.cls-25,.cls-9{fill:none;}.cls-9{stroke:#d6b2d1;stroke-linejoin:round;stroke-width:2.96px;}.cls-10{fill:#d6b2d1;}.cls-11{fill:#c6d6fe;}.cls-12{fill:#dde7fe;}.cls-14{fill:#276ce4;}.cls-15{fill:#cedcfe;}.cls-16{fill:#fff2eb;}.cls-18{fill:#ffe1cf;}.cls-19{fill:#09102d;}.cls-20{fill:#0f379a;}.cls-21{fill:#0c2c7a;}.cls-22{stroke:#276ce4;stroke-width:7px;}.cls-23{stroke:#53bcf7;stroke-width:14px;}.cls-24{fill:#052251;}.cls-25{stroke:#fff;stroke-width:2px;}</style></defs><title>2019-nCov5</title><g id="background"><path class="cls-1" d="M465.3,974.8h780.09c69.47,0,126.31-82.64,126.31-183.65v-4a267,267,0,0,0-3.68-44.36h55.75c150.33,0,214.64-154,216-283.72,2.23-208-159.47-332.69-346.93-379.65C1122.64,36.75,919,20.57,747.81,65.47,651,90.89,558.44,142.71,499,223.31c-75.61,102.59-79.84,262.6-25.74,376.13h-8C395.82,599.44,339,682.08,339,783.08v8.07C339,892.16,395.82,974.8,465.3,974.8Z"/><ellipse class="cls-2" cx="924.72" cy="992.7" rx="518.53" ry="33.05"/><polygon class="cls-3" points="1638.89 889.63 1586.25 889.63 1586.25 836.99 1564.49 836.99 1564.49 889.63 1511.85 889.63 1511.85 911.39 1564.49 911.39 1564.49 964.03 1586.25 964.03 1586.25 911.39 1638.89 911.39 1638.89 889.63"/><rect class="cls-4" x="395.86" y="654.5" width="20.67" height="20.67"/><rect class="cls-4" x="1745.29" y="287.62" width="20.67" height="20.67"/><rect class="cls-4" x="278.49" y="705.23" width="19.85" height="19.85"/><path class="cls-5" d="M436.58,558.66a2.46,2.46,0,0,1-1.07-3.3,2.42,2.42,0,0,1,3.3-1.07,12.18,12.18,0,0,1,6.62,8,13.3,13.3,0,0,1-1.12,9.26,2.45,2.45,0,0,1-4.37-2.23,8.32,8.32,0,0,0,.76-5.81,7.4,7.4,0,0,0-4.12-4.81Z"/><path class="cls-6" d="M450.57,565.2c-.22-4.67-2.62-9.27-8-12.22h0l-.27-.17-.06,0-.29-.15h0l-22.49-11.46-14.31,28.08,22.49,11.46h0l.41.21.05,0,.38.19,0,0c8.88,4,16.65-.62,20.12-7.44l.05-.09,0,0v0l.07-.15,0-.06.05-.08v0l0-.06.05-.09v0l0-.1,0-.06v0l.05-.09,0,0v0a.91.91,0,0,0,.12-.31h0a16.68,16.68,0,0,0,1.31-7.18Z"/><path class="cls-7" d="M415.11,538.94l-22.49-11.46h0c-6.62-3.37-12.65-2-16.85,1.65l-.07.07a18,18,0,0,0-4.08,5.27,17.64,17.64,0,0,0-1.86,6.39h0v0c-.51,5.53,1.88,11.27,8.56,14.67h0L400.8,567Z"/><path class="cls-5" d="M1670.13,520.91a2.34,2.34,0,0,1,.87,4.59,11.58,11.58,0,0,1-9.64-2.15,12.7,12.7,0,0,1-4.55-7.64,2.32,2.32,0,0,1,1.86-2.73,2.3,2.3,0,0,1,2.73,1.86,7.93,7.93,0,0,0,2.82,4.83,7,7,0,0,0,5.91,1.24Z"/><path class="cls-6" d="M1655.76,524.12a13.79,13.79,0,0,0,13.14,4.57h0l.31,0h.06l.31,0h0l23.65-4.46-5.56-29.54L1664,499.06h0l-.42.08h-.07l-.39.07h0c-9,2.17-12.21,10.17-10.86,17.34l0,.09v.09l0,.15,0,.07v.18l0,.09v0l.05.09v.09l0,.09v.09a1,1,0,0,0,.09.3h0a15.92,15.92,0,0,0,3.2,6.19Z"/><path class="cls-7" d="M1697.83,523.27l23.66-4.45h0c7-1.31,10.69-5.88,11.75-11.06v-.1a17,17,0,0,0-2.31-12.26h0v0c-2.85-4.48-8-7.41-15-6.09h0l-23.65,4.46Z"/><path class="cls-5" d="M286.16,924.57a2.31,2.31,0,1,1,2-4.14,11.46,11.46,0,0,1,6.33,7.44,12.53,12.53,0,0,1-1,8.75,2.31,2.31,0,1,1-4.15-2,7.88,7.88,0,0,0,.66-5.5,7,7,0,0,0-3.93-4.5Z"/><path class="cls-6" d="M299.43,930.6a13.68,13.68,0,0,0-7.66-11.44h0l-.27-.17-.05,0-.28-.14h0l-21.34-10.58L256.62,934.9,278,945.48h0l.39.19,0,0,.36.18h0c8.42,3.66,15.7-.75,18.91-7.22l0-.09,0-.05v0l.07-.14,0-.05,0-.09v0l0-.06,0-.08,0,0v-.1l0,0v0l0-.08,0-.06v0a.92.92,0,0,0,.11-.29h0a15.77,15.77,0,0,0,1.17-6.79Z"/><path class="cls-7" d="M265.68,906.19l-21.35-10.58h0c-6.28-3.11-12-1.73-15.88,1.74l-.07.07a16.71,16.71,0,0,0-3.79,5,16.51,16.51,0,0,0-1.69,6.05h0l0,0c-.42,5.23,1.9,10.62,8.24,13.75l0,0,21.35,10.58Z"/><path class="cls-5" d="M1432.21,835.24a2.22,2.22,0,0,1,3.17,3.1,11,11,0,0,1-8.65,3.57,12.05,12.05,0,0,1-7.68-3.46,2.21,2.21,0,1,1,3.09-3.17,7.51,7.51,0,0,0,4.81,2.22,6.64,6.64,0,0,0,5.26-2.26Z"/><path class="cls-6" d="M1422.81,845.55a13.05,13.05,0,0,0,12.67-3.6h0l.23-.19,0,0,.21-.22h0l15.92-16.31-20.38-19.88-15.92,16.32h0l-.28.29,0,0-.26.28,0,0c-5.81,6.59-3.94,14.52,1,19.34l.06.07,0,0,0,0,.11.1,0,0,.06.06,0,0,.05,0,.06.06,0,0,.09,0,0,0,0,0,.06.06,0,0,0,0a.71.71,0,0,0,.23.19h0a15.12,15.12,0,0,0,5.84,3.06Z"/><path class="cls-7" d="M1455,822l15.92-16.32,0,0c4.68-4.8,5.09-10.38,3.1-15l0-.08a16.07,16.07,0,0,0-8.45-8.25h0l0,0c-4.64-1.92-10.23-1.4-15,3.44l0,0-15.92,16.32Z"/><path class="cls-3" d="M1503.4,628.37,1502,495.66a7.77,7.77,0,0,0-7.84-7.67l-23.76.25a7.78,7.78,0,0,0-7.67,7.84l1.43,132a40.29,40.29,0,1,0,39.28.25Z"/><path class="cls-8" d="M1472.38,518.83l1.42,131.76c.09,7.89,4.7,14.3,10.25,14.24s10-6.57,9.94-14.46l-1.42-131.76Z"/><path class="cls-4" d="M1473,576.93l.82,75.68c.07,6.78,4.67,12.28,10.22,12.22s10-5.66,10-12.44l-.81-75.46Z"/><circle class="cls-4" cx="1483.54" cy="663.42" r="24.89"/><polyline class="cls-9" points="901.66 105.16 912.05 151.18 971.92 103.18"/><circle class="cls-10" cx="910.56" cy="163.55" r="27.21"/><circle class="cls-10" cx="901.66" cy="105.16" r="13.36"/><circle class="cls-10" cx="971.92" cy="103.18" r="10.39"/><polyline class="cls-9" points="1680.49 385.15 1717.03 380.83 1684.67 330.49"/><circle class="cls-10" cx="1726.5" cy="382.99" r="21.23" transform="translate(1165.5 2060.12) rotate(-84.01)"/><circle class="cls-10" cx="1680.49" cy="385.15" r="10.42" transform="translate(1122.13 2016.29) rotate(-84.01)"/><circle class="cls-10" cx="1684.67" cy="330.48" r="8.1"/><polyline class="cls-9" points="384.93 824.44 393.37 851.87 427.45 819.97"/><circle class="cls-10" cx="393.05" cy="859.45" r="16.56" transform="translate(-64.67 32.63) rotate(-4.39)"/><circle class="cls-10" cx="384.92" cy="824.44" r="8.13" transform="translate(-62.01 31.9) rotate(-4.39)"/><circle class="cls-10" cx="427.45" cy="819.97" r="6.32"/><polygon class="cls-3" points="559.79 203 485.11 203 485.11 125.63 457.09 125.63 457.09 203 382.41 203 382.41 232.03 457.09 232.03 457.09 309.41 485.11 309.41 485.11 232.03 559.79 232.03 559.79 203"/><circle class="cls-3" cx="1664.08" cy="664.83" r="35.66"/><circle class="cls-3" cx="1575.37" cy="426.94" r="19.92"/><circle class="cls-3" cx="1691.83" cy="252.46" r="15.9"/><circle class="cls-3" cx="489.97" cy="499.33" r="16.76"/><circle class="cls-3" cx="375.11" cy="339" r="8.43"/></g><g id="man2"><path class="cls-11" d="M1303.52,244.31l-.34,0c-7.18.33-15.37.66-22.55,1h0c-.11-1.52-.22-3.05-.3-4.6l.78,0c7.19-1.05,14.37-1.25,21.51-2.59l.09,0C1303.05,240.13,1303.31,242.22,1303.52,244.31Z"/><path class="cls-12" d="M1238.59,236.79c-.38-14.16,7.41-23.87,17.78-26.49,8.46-2.14,20.18-2.68,28.25.81,11.9,5.13,16.2,15.57,18.08,27l-.09,0c-7.14,1.34-14.32,1.54-21.51,2.59l-.78,0c-.08-1.39-.14-2.78-.16-4.2a1.27,1.27,0,0,0-1.39-1.24c-12.7,1.33-27.67-.76-40.11,1.82Z"/><ellipse class="cls-4" cx="1070.99" cy="236.1" rx="7.26" ry="10.73"/><path class="cls-13" d="M1104.89,249.58q.64,3.51,1.1,7.1l-1.72.23c-.19-1.17-.93-2.74-1.88-3.11-6-2.31-12.45.18-18.51,2.35a12.35,12.35,0,0,0-1.57-5.24c-2.63-3.94-6.58-4-11.32-4.08,4,0,7.26-4.81,7.26-10.73s-3.25-10.73-7.26-10.73c9.35-1.23,19.75-1.29,26.12,5.66a28.47,28.47,0,0,1,5.42,9.71A54.86,54.86,0,0,1,1104.89,249.58Z"/><path class="cls-13" d="M1106,256.68c1.64,12.75,1.43,26.07-1.65,38.44a16.68,16.68,0,0,1-2.89,6.6,10.12,10.12,0,0,1-2.45,2.2c-3.28,2-7,1-9.81-2.28a18.86,18.86,0,0,1-3.42-7.27,38.65,38.65,0,0,1-1.18-9.3c6.24-.53,10.55-.5,15.46-2.13,2.13-.7,2.24-4.77.12-5.48l-.05,0a12.69,12.69,0,0,0-4.84-.26c-3.19.24-7.38.48-10.56.72l-.07-.51c5.28-.76,7.59-.54,12.89-1.31a10,10,0,0,0,4.71-1.53c1.32-1,2-3,1.1-4.39-.83-1.21-2.5-1.43-4-1.51-2.5-.14-7.71.37-11.44.66a78.17,78.17,0,0,0,13.74-2.77c1.85-.61,3-.89,2.78-2.82s-1.3-2.64-3.08-2.94a13.54,13.54,0,0,0-2.27-.13,18.09,18.09,0,0,0,3.07-.86c1-.42,2.15-1,2.13-2.41a4.07,4.07,0,0,0,0-.47Z"/><path class="cls-14" d="M1085.43,269.48c.63,0,1.34-.06,2.11-.14Zm16-8.7c1.78.3,2.89,1.14,3.08,2.94s-.93,2.21-2.78,2.82a78.17,78.17,0,0,1-13.74,2.77c3.73-.29,8.94-.8,11.44-.66,1.47.08,3.14.3,4,1.51,1,1.37.22,3.38-1.1,4.39a10,10,0,0,1-4.71,1.53c-5.3.77-7.61.55-12.89,1.31l.07.51c3.18-.24,7.37-.48,10.56-.72a12.69,12.69,0,0,1,4.84.26l.05,0c2.12.71,2,4.78-.12,5.48-4.91,1.63-9.22,1.6-15.46,2.13a38.65,38.65,0,0,0,1.18,9.3c-.8-.62-1.58-1.24-2.35-1.87l-.13-.11a14.38,14.38,0,0,0-1.43-1,14,14,0,0,1-6.66-11.8c0-.13,0-.25,0-.38a59.11,59.11,0,0,1,3.66-18.92,6.25,6.25,0,0,1,1.72-2.47,6.44,6.44,0,0,1,2.07-1.21l1.22-.43c6.06-2.17,12.48-4.66,18.51-2.35.95.37,1.69,1.94,1.88,3.11a4.07,4.07,0,0,1,0,.47c0,1.4-1.09,2-2.13,2.41a18.09,18.09,0,0,1-3.07.86,84.35,84.35,0,0,0-10,.93,49.81,49.81,0,0,0,10-.93A13.54,13.54,0,0,1,1101.38,260.78Z"/><path class="cls-14" d="M1129.42,281.94l.07,0c-5,12.16-10.4,19.52-19,30-3.44-2.53-7.41-5.24-11.54-8.08a10.12,10.12,0,0,0,2.45-2.2,16.68,16.68,0,0,0,2.89-6.6c3.08-12.37,3.29-25.69,1.65-38.44q-.45-3.59-1.1-7.1a13.85,13.85,0,0,1,9.86,5.15C1120.32,261.81,1125.42,273.86,1129.42,281.94Z"/><path class="cls-14" d="M1120.52,501.13c-6.77,10.45-7.81,10.64-10.61,14.27-1.53,2-4.57,4-6.13,2.07a4,4,0,0,1-.46-3c.78-6.47,5.9-14.77,9.18-20.4-3.33,4.37-9,13.61-12.32,18a3.31,3.31,0,0,1-4.45,1.07c-2-3.51-1.36-5.87.26-9.56.32-.73.63-1.39,1-2a42.73,42.73,0,0,1-5.6,6.12,4.21,4.21,0,0,1-2.35,1.29c-2.56.19-3.25-3.52-2.65-6,1.75-7.41,6-13.95,10.19-20.31,3.82-5.83,7.83-11.84,13.77-15.47,11.47-7,30-10.23,43.55-9.86q4,14.43,7.27,29l-.31.07a33.54,33.54,0,0,0-27.58,13.06c-4.06,5.37-9.44,15-14,19.91-.8.88-1.85,1.76-3,1.6-2.12-.3-1.31-3.29-.85-5.38C1116.22,511.62,1118.79,505.54,1120.52,501.13Z"/><path class="cls-14" d="M1303.4,954.76l-.14-.21V939.18a235.9,235.9,0,0,0,58.13-4.77c1.25,16.48,4.27,41.31,5.66,59.7a2.48,2.48,0,0,1-2.2,2.65c-36.23,3.88-74.85,6.18-113,6.67a4.62,4.62,0,0,1-3.69-7.46C1260.33,980.65,1287.65,965.07,1303.4,954.76Z"/><path class="cls-14" d="M1141,953.33c.86-4.3,1.45-10.51,2.06-16.61a281.58,281.58,0,0,0,55,3.57c0,18.49-1.24,43.48-2.38,62.35-38.42,2.14-83.27,1.37-119.53,1.94H1076a4.86,4.86,0,0,1-2.9-8.54c17.85-15.52,47.29-30.38,67.65-42.77Z"/><path class="cls-12" d="M1250.84,632.76c-11.67,38.68-28.07,75.49-33.29,86.85a21,21,0,0,0-1.67,7.61C1211.17,805,1207,868.07,1204.08,940c-2,.11-4,.2-6,.25a281.58,281.58,0,0,1-55-3.57l-1.76-.29c-4.58-66.23,2.12-199.28,3.23-220.17a31.93,31.93,0,0,1,.76-5.5c17.65-77.64,30.17-119.68,63.22-211.43,32.82,2.23,64.79,2.18,97.36-1.67a16.5,16.5,0,0,0,8.25-3.42,16.77,16.77,0,0,0,3.53-3.8c8-11.95,15.17-23.28,21.3-34.6,23.66,79.59,9.12,174.7-2.76,260.19q14,108.89,28,217.76l-2.85.62a235.9,235.9,0,0,1-58.13,4.77l-3.79-.15c-18.69-74.55-37.12-151-47.56-224.18a39.52,39.52,0,0,1-.39-6C1251.62,700,1251.82,671.64,1250.84,632.76Z"/><path class="cls-15" d="M1249.28,577.09c-13.35,35.6-41.31,118.1-47.08,135.59a27.09,27.09,0,0,0-1.31,7c-.94,17-4.14,90.25,7.25,137.13,2.28-41.29,4.91-82.76,7.74-129.56a21,21,0,0,1,1.67-7.61c4.94-10.74,20.86-44.24,32.34-80.55C1248.89,618.74,1248.55,597.41,1249.28,577.09Z"/><path class="cls-12" d="M1339,455.33c-6.13,11.32-13.3,22.65-21.3,34.6a16.77,16.77,0,0,1-3.53,3.8,16.5,16.5,0,0,1-8.25,3.42c-32.57,3.85-64.54,3.9-97.36,1.67-14.93-1-30-2.48-45.46-4.28-.63-2.93-1.27-5.86-2-8.78q-3.31-14.6-7.27-29l-.4-1.45c19.52-2,45.61-3.83,68.69-5.36q-1.73-17.1-2.59-34.27c-3.72,5-7.8,9.53-12.13,12.09-4.8,2.83-10.84,2.95-16.18,1.36s-10.08-4.71-14.5-8.09c-16.77-12.86-29.93-29.94-40.51-48.23s-19-40.12-27.11-59.58c.49-.57,1-1.14,1.42-1.72,8.55-10.51,13.91-17.87,19-30,.21-.51.43-1,.64-1.58,18.18,24.32,39.85,50.38,58.08,75.22q12.7-20.4,25.92-40.5c2.29-3.48,4.71-7.07,8.29-9.21s7.85-2.53,12-2.89q9.28-.81,18.57-1.56c.63-4.64,1.1-8.67,1.42-14.52a12.64,12.64,0,0,1-5.24-2.48c-4.82-4-5.06-11.16-4.9-17.41.07-3,.15-5.92.22-8.87,11.77-.46,22.63-.45,34.66-1a2.16,2.16,0,0,0,2.07-2.19c-.08-3.22-.34-6.4-.58-9.61h0c7.18-.33,15.37-.66,22.55-1l.34,0c.21,2.06.38,4.14.53,6.19a429.28,429.28,0,0,1,.71,49.05c21.07,3.08,40.93,15.59,50.47,34.55,7.25,14.44,8.25,31.27,6.87,47.37C1359.68,409.27,1351.45,432.3,1339,455.33Z"/><path class="cls-4" d="M1282.06,278l.09-.19a8.68,8.68,0,0,0,.51-2.95,33,33,0,0,0-3.39-16.08c-1.68-3.38-34.81,0-34.8-.6-.07,2.95-.15,5.91-.22,8.87-.17,6.73.19,16.55,7.85,19,8.35,2.68,19,.07,26.25-4.41A9.06,9.06,0,0,0,1282.06,278Z"/><path class="cls-16" d="M1244.47,258.17c-1.47.05-3,.12-4.47.19a1.92,1.92,0,0,1-2-1.95,150.38,150.38,0,0,0-1-18.63c0-.1,0-.2,0-.29.55-.14,1.11-.26,1.68-.38,12.44-2.58,27.41-.49,40.11-1.82a1.27,1.27,0,0,1,1.39,1.24c0,1.42.08,2.81.16,4.2.08,1.55.19,3.08.3,4.6.24,3.21.5,6.39.58,9.61a2.16,2.16,0,0,1-2.07,2.19C1267.1,257.72,1256.24,257.71,1244.47,258.17Z"/><path d="M1266.05,249.31v.27a1.06,1.06,0,0,0,.13.58,1.14,1.14,0,0,0,.31.48,1,1,0,0,0,.48.31,1.15,1.15,0,0,0,.58.13l.4-.05a1.59,1.59,0,0,0,.66-.39l.23-.3a1.48,1.48,0,0,0,.21-.76v-.27a1.15,1.15,0,0,0-.13-.58,1.17,1.17,0,0,0-.31-.48,1.14,1.14,0,0,0-.48-.31,1.17,1.17,0,0,0-.58-.13l-.4.05a1.44,1.44,0,0,0-.66.39l-.24.3a1.57,1.57,0,0,0-.2.76Z"/><path d="M1245.13,249.35v.27a1.06,1.06,0,0,0,.13.58,1,1,0,0,0,.31.48,1.13,1.13,0,0,0,.48.32,1.14,1.14,0,0,0,.58.12l.4-.05a1.49,1.49,0,0,0,.66-.39l.23-.3a1.43,1.43,0,0,0,.21-.76v-.27a1.14,1.14,0,0,0-.13-.57,1.21,1.21,0,0,0-.31-.49,1.24,1.24,0,0,0-.48-.31,1.29,1.29,0,0,0-.58-.13l-.4.06a1.51,1.51,0,0,0-.66.38l-.24.31a1.5,1.5,0,0,0-.2.75Z"/><path class="cls-17" d="M1339,455.8c23.67,79.6,9.13,174.73-2.75,260.23"/><path class="cls-17" d="M1364.24,933.79q-14-108.88-28-217.76"/><path class="cls-17" d="M1250.84,632.75h0c-11.67,38.68-28.07,75.49-33.29,86.85a21,21,0,0,0-1.67,7.61C1211.17,805,1207,868.07,1204.08,940"/><path class="cls-17" d="M1141.32,936.43c-4.58-66.23,2.12-199.28,3.23-220.17a31.93,31.93,0,0,1,.76-5.5c17.65-77.64,30.17-119.68,63.22-211.43"/><path class="cls-17" d="M1299.47,939c-18.69-74.55-37.12-151-47.56-224.18a39.52,39.52,0,0,1-.39-6c.1-8.91.3-37.25-.68-76.13,0,0,0,0,0,0-.7-28.07-2-61.64-4.41-97.35"/><path class="cls-17" d="M1141.32,936.43a282.48,282.48,0,0,0,62.76,3.61"/><path class="cls-17" d="M1299.47,939c24.76,1.16,45.7-.91,64.77-5.24"/><path class="cls-17" d="M1303.26,954.55V939.18"/><path class="cls-17" d="M1238.59,236.79c-.38-14.16,7.41-23.87,17.78-26.49,8.46-2.14,20.18-2.68,28.25.8,16.17,7,18.3,23.75,19.43,39.4a428.41,428.41,0,0,1,.44,54.46"/><path class="cls-17" d="M1254.39,286.93c-.48,8.71-1.29,13.4-2.45,22.05"/><path class="cls-17" d="M1304.76,299.55c21.07,3.08,40.93,15.59,50.47,34.55,7.25,14.44,8.25,31.27,6.87,47.37-3.61,42.24-20.15,72.72-44.43,109a16.77,16.77,0,0,1-3.53,3.8,16.5,16.5,0,0,1-8.25,3.42c-32.57,3.85-64.54,3.9-97.36,1.67-14.93-1-30-2.48-45.46-4.28"/><path class="cls-17" d="M1153.45,455.8c36.86-3.81,97.19-6.88,116.3-8.72a10.65,10.65,0,0,0,8.6-6c15.69-33.09,25.17-54.65,36.14-85.17"/><path class="cls-17" d="M1163.07,495.05q-4.23-19.76-9.62-39.25"/><path class="cls-17" d="M1097,501.49a42.37,42.37,0,0,1-5.61,6.14,4.21,4.21,0,0,1-2.35,1.29c-2.56.19-3.25-3.52-2.65-6,1.75-7.41,6-13.95,10.19-20.31,3.82-5.83,7.83-11.84,13.77-15.47,11.47-7,30-10.23,43.55-9.86"/><path class="cls-17" d="M1105.31,487.9c-4.92,8.15-6.88,10.09-9.32,15.63-1.62,3.69-2.23,6.05-.26,9.56a3.31,3.31,0,0,0,4.45-1.07c3.32-4.36,9-13.6,12.32-18"/><path class="cls-17" d="M1112.5,494.05c-3.28,5.63-8.4,13.93-9.19,20.4a4.07,4.07,0,0,0,.47,3c1.56,2,4.6-.09,6.13-2.07,2.95-3.83,3.95-3.83,11.77-16.07"/><path class="cls-17" d="M1121.3,499.1c-1.62,4.38-4.94,11.87-5.94,16.43-.46,2.09-1.27,5.08.85,5.38,1.18.16,2.23-.72,3-1.6,4.55-5,9.93-14.54,14-19.91a33.49,33.49,0,0,1,27.57-13.06"/><path class="cls-17" d="M1282.88,278.09A33.35,33.35,0,0,1,1259,287.5a21.88,21.88,0,0,1-4.63-.57,12.64,12.64,0,0,1-5.24-2.48c-4.82-4-5.06-11.16-4.9-17.41.07-3,.15-6,.22-9"/><path class="cls-17" d="M1237,237.78a150.38,150.38,0,0,1,1,18.63,1.92,1.92,0,0,0,2,1.95c13.54-.66,25.59-.57,39.13-1.23a2.17,2.17,0,0,0,2.07-2.2c-.15-6.1-1-12.09-1-18.4a1.31,1.31,0,0,0-1.39-1.24c-20.08,0-29-1-41.79,2.2C1237,237.58,1237,237.68,1237,237.78Z"/><path class="cls-17" d="M1258.69,312.73c13.18,8.24,20.38,9.42,30.3-.26"/><path class="cls-17" d="M1188.21,355.61q12.7-20.4,25.92-40.5c2.29-3.48,4.71-7.07,8.29-9.21s7.85-2.53,12-2.89c6.29-.55,11.59-1.08,17.88-1.59"/><path class="cls-17" d="M1109,313.47c8.1,19.52,16.63,41.53,27.21,59.83s23.74,35.37,40.51,48.23c4.42,3.38,9.17,6.51,14.5,8.09s11.38,1.47,16.18-1.36c4.33-2.56,8.42-7.05,12.13-12.1"/><path class="cls-17" d="M1222.14,450.44q-1.73-17.1-2.59-34.27s0,0,0,0A703.55,703.55,0,0,1,1220,336"/><path class="cls-17" d="M1279.29,259.52a20.62,20.62,0,0,1,3.58,12.25"/><path class="cls-17" d="M1281.1,240.69c7.19-1.05,14.37-1.25,21.51-2.59"/><path class="cls-17" d="M1280.63,245.32c7.18-.32,15.37-.65,22.55-1"/><path class="cls-17" d="M1130.13,280.39c19.46,26,42.93,54.06,61.89,80.46"/><path class="cls-17" d="M1089.14,261.58a84.35,84.35,0,0,1,10-.93,13.54,13.54,0,0,1,2.27.13c1.78.3,2.89,1.14,3.08,2.94s-.93,2.21-2.78,2.82a78.17,78.17,0,0,1-13.74,2.77l-.4,0c-.77.08-1.48.13-2.11.14h-.29"/><path class="cls-17" d="M1085.14,269.49h.29l2.11-.14.4,0c3.73-.29,8.94-.8,11.44-.66,1.47.08,3.14.3,4,1.51,1,1.37.22,3.38-1.1,4.39a10,10,0,0,1-4.71,1.53c-5.32.77-7.63.55-13,1.32"/><path class="cls-17" d="M1104.7,249.55c4.22-.11,7.44,1.87,10,5.18,5.57,7.08,10.67,19.13,14.67,27.21"/><path class="cls-17" d="M1085.77,294.37c-.8-.62-1.58-1.24-2.35-1.87l-.13-.11a14.38,14.38,0,0,0-1.43-1,14,14,0,0,1-6.66-11.8c0-.13,0-.25,0-.38a59.11,59.11,0,0,1,3.66-18.92,6.25,6.25,0,0,1,1.72-2.47,6.44,6.44,0,0,1,2.07-1.21l1.22-.43c6.06-2.17,12.48-4.66,18.51-2.35,1.08.42,1.9,2.42,1.92,3.58,0,1.4-1.09,2-2.13,2.41a18.09,18.09,0,0,1-3.07.86,49.81,49.81,0,0,1-10,.93"/><path class="cls-17" d="M1099,303.92c4.13,2.84,8.1,5.55,11.54,8.08"/><path class="cls-17" d="M1084.72,277.89c3.18-.23,7.37-.47,10.55-.71a12.73,12.73,0,0,1,4.85.26l0,0c2.13.71,2,4.78-.11,5.48-5.54,1.83-10.3,1.57-17.94,2.36"/><path class="cls-17" d="M1130.13,280.39c-5.23,13.12-10.67,20.65-19.59,31.61-.58.74-1.19,1.47-1.81,2.19"/><path class="cls-17" d="M1071,225.37c9.35-1.23,19.75-1.29,26.12,5.66a28.47,28.47,0,0,1,5.42,9.71,54.86,54.86,0,0,1,2.36,8.84c2.71,14.82,3.11,30.85-.55,45.54a16.68,16.68,0,0,1-2.89,6.6,10.12,10.12,0,0,1-2.45,2.2c-3.28,2-7,1-9.81-2.28a18.86,18.86,0,0,1-3.42-7.27,38.87,38.87,0,0,1-1.18-9.44"/><path class="cls-17" d="M1071,246.83c4.74,0,8.69.14,11.32,4.08a12.35,12.35,0,0,1,1.57,5.24"/><ellipse class="cls-17" cx="1070.99" cy="236.1" rx="7.26" ry="10.73"/><path class="cls-17" d="M1261.73,293.21c7.18,0,12.11,1.16,19.48-7.9"/><path class="cls-17" d="M1256.93,249.12a17.94,17.94,0,0,1-3.29,8.08"/><path class="cls-17" d="M1264.41,244.76a6.63,6.63,0,0,1,7,1.12"/><path class="cls-17" d="M1242.35,245.37a5.61,5.61,0,0,1,6.41-1.07"/></g><g id="man1"><path class="cls-18" d="M903.08,244.23a1.63,1.63,0,0,1,3,.94,13.11,13.11,0,0,1-1.22,5.26l.2.13c-4.19,6.53-12.89,21-19.45,22.45-.73.16-.51-1.8-.13-3.77a84.07,84.07,0,0,0,15.37-20.92C901.57,247,902.26,245.54,903.08,244.23Z"/><path class="cls-18" d="M885.48,269.24c-.38,2-.6,3.93.13,3.77,6.56-1.42,15.26-15.92,19.45-22.45.44-.7.84-1.32,1.18-1.81a41.72,41.72,0,0,1,6.17-7.74c.78-.69,2.12-1.27,2.72-.42a1.89,1.89,0,0,1,.2,1.23,21.74,21.74,0,0,1-2.78,9.22l.16.11c1.42-2.17,2.77-4.31,4-6.36a27.24,27.24,0,0,1,2-2.89,1.47,1.47,0,0,1,2.57,1.23,41.91,41.91,0,0,1-4.65,12.31,61.24,61.24,0,0,1,5.83-6.76c.6-.6,1.64.33,1.52,1.17-2.6,19.56-13.8,35.16-29.32,46.76l-13.41,10c-8.43,19.49-31,80-37.3,96.76-5.55,14.75-12,29.49-22.46,41.28-3,3.43-6.49,6.64-10.67,8.49s-9.25,2.21-13.27,0c-4.8-2.6-7.21-8.14-8.28-13.49-.17-.85-.31-1.7-.43-2.55-2.83-20.05,8-39.72,18.42-57.33.25-.42.5-.85.76-1.27a650.77,650.77,0,0,1,46.71-68.75c10.86-14,14-40,29.39-49.69a2.08,2.08,0,0,1,1.51-.43c.92.22,1.19,1.39,1.17,2.33a21.92,21.92,0,0,1-.52,3.58C886.17,266.15,885.77,267.7,885.48,269.24Z"/><path class="cls-19" d="M868.17,984.46a3.93,3.93,0,0,1-3.16,6.19c-44.68.61-81.78.09-126.13-1.51h0c2.57-22.41,5-50.88,8.08-71.21a578.89,578.89,0,0,0,72.15.93q-1.27,10.33-2.56,20.68A145.62,145.62,0,0,1,868.17,984.46Z"/><path class="cls-20" d="M740.33,659.17c-10.54,91.61-23.82,172.53-42.75,259h-4q-5.93,0-11.84-.14A520.53,520.53,0,0,1,613,912c-1.19-.18-6.38-.37-7.57-.56,13.54-67.54,39.19-142.05,50-209.38,3.69-23,6.1-46.38,3.71-69.54-3.24-31.28-15.15-61.27-17.29-92.65a150.85,150.85,0,0,1,6.5-54.84h0c1.39-4.46,3-8.87,4.78-13.18q6.55,21.15,15.14,41.61a10.64,10.64,0,0,0,2,3c.25.29.66.74.88,1,17.77,24.07,57.14,60.76,81,80.29a3,3,0,0,1,1,2.95c-1.51,7.24-3.07,14.48-4.55,21.73a1.36,1.36,0,0,0,2.37,1.15c3.27-3.83,7.84-9,8.87-8.49a1.41,1.41,0,0,1,.79,1c2.35,9.33.8,19.67.9,29.3a2.11,2.11,0,0,0,1,1.81c1.13.64,2.25-.37,2.94-1.33,1.25-1.7,3.82-11.57,4.93-15.48-1.16,4.3-4,16.38-3.33,18.87a1.32,1.32,0,0,0,2.41.32c1.5-2.69,5.74-14.23,7.65-19.2a.22.22,0,0,1,.41.14c-1.83,6.22-7.68,22-3.07,20.15a4.76,4.76,0,0,0,2.15-1.85,57.53,57.53,0,0,0,9.52-25.08c1.63-12.06-.26-25-6.73-35.47-5.1-8.23-12.06-15.11-18.52-22.32-21.47-24-35-52.57-51.89-79.55a20.47,20.47,0,0,1-2.33-5.18l-.34-1.15c-.13-.46-.25-.92-.35-1.38-.17-.79-.35-1.58-.51-2.37,25.8-1.56,47.61-1.15,74.94-10.23,1.12-.37,2.24-.76,3.38-1.16,38,142.8,46.45,299.41,52.57,453.93q-8.62.57-17.25,1a578.89,578.89,0,0,1-72.15-.93c-3.24-.27-6.47-.56-9.7-.89A1592.52,1592.52,0,0,0,740.33,659.17Z"/><path class="cls-21" d="M751.6,623.78c-.09-3.1-1-6.12-1.54-9.15-1.25-6.54-4.67-20.27-8.52-25.7,1.48,2.08,1.37,37.59,1,44-.57,10.56-2.23,21.31-2.92,32,.23-1.93.46-3.85.68-5.79q3.72,53.24,3.82,106.65C751.19,719.86,753.24,677.37,751.6,623.78Z"/><path class="cls-20" d="M753.18,600.79a3,3,0,0,0-1-2.95c-2.11-1.72-4.34-3.59-6.66-5.55,1.8,8.14,3.23,16.31,4.35,24.5Q751.5,608.78,753.18,600.79Z"/><path class="cls-13" d="M808,378.54c-.26.42-.51.85-.76,1.27-10.44,17.61-21.25,37.28-18.42,57.33a31.22,31.22,0,0,1-2.91-3.5c.89-38.12-3.37-89.53-13-116a33.61,33.61,0,0,1,3.23,1.64c9.18,5.34,12.16,15.68,16.92,24.4C797.73,352.19,803.75,367.47,808,378.54Z"/><line class="cls-22" x1="627.79" y1="759.01" x2="759.87" y2="615.18"/><path class="cls-23" d="M744.86,633.19l14.54-14.58"/><path class="cls-18" d="M770.4,630.43c-1.11,3.91-3.68,13.78-4.93,15.48-.69,1-1.81,2-2.94,1.33a2.11,2.11,0,0,1-1-1.81c-.1-9.63,1.45-20-.9-29.3a1.41,1.41,0,0,0-.79-1c-1-.47-5.6,4.66-8.87,8.49a1.36,1.36,0,0,1-2.37-1.15c1.48-7.25,3-14.49,4.55-21.73a3,3,0,0,0-1-2.95c-23.9-19.53-63.27-56.22-81-80.29-.22-.31-.63-.76-.88-1a10.64,10.64,0,0,1-2-3Q659.7,493,653.12,471.84q-4.89-15.69-8.63-31.72A157.72,157.72,0,0,0,696.38,432q4.27,22.25,9.09,44.36c.16.79.34,1.58.51,2.37.1.46.22.92.35,1.38l.34,1.15a20.47,20.47,0,0,0,2.33,5.18c16.91,27,30.42,55.59,51.89,79.55,6.46,7.21,13.42,14.09,18.52,22.32,6.47,10.45,8.36,23.41,6.73,35.47a57.53,57.53,0,0,1-9.52,25.08,4.76,4.76,0,0,1-2.15,1.85c-4.61,1.89,1.24-13.93,3.07-20.15a.22.22,0,0,0-.41-.14c-1.91,5-6.15,16.51-7.65,19.2a1.32,1.32,0,0,1-2.41-.32C766.42,646.81,769.24,634.73,770.4,630.43Z"/><path class="cls-4" d="M772.92,317.61c9.64,26.5,13.9,77.91,13,116a244.46,244.46,0,0,1-2.32,30.66l.18.67c-1.14.4-2.26.79-3.38,1.16-.32-41.8-8.93-123.58-34.62-153.79C755.32,312.64,765.43,314.28,772.92,317.61Z"/><path class="cls-11" d="M736.06,323.61c-.38-4.35-.69-7.93-1-11a95.78,95.78,0,0,1,10.69-.24c25.69,30.21,34.3,112,34.62,153.79-27.33,9.08-49.14,8.67-74.94,10.23q-4.82-22.12-9.09-44.36c.22-.06.43-.14.65-.21a4.17,4.17,0,0,0,2.8-4.63q-1.22-7.14-2.47-14.27c4.39-17.18,7.63-34.76,7.6-52.49,0-16-2.81-32.17-9.42-46.69,3.1-.23,6.2-.39,9.29-.51-.19,4.38-.36,8.49-.5,11.95C714.32,329.52,727.72,330.63,736.06,323.61Z"/><path class="cls-13" d="M745.79,312.34a95.78,95.78,0,0,0-10.69.24c.27,3.1.58,6.68,1,11-8.34,7-21.74,5.91-31.73,1.54.14-3.46.31-7.57.5-11.95-3.09.12-6.19.28-9.29.51,6.61,14.52,9.39,30.7,9.42,46.69,0,17.73-3.21,35.31-7.6,52.49.53,3,1,6,1.56,9,3.56,11.78,7.46,23.48,11.36,35.19-3.9-11.71-7.8-23.41-11.36-35.19.3,1.75.61,3.51.91,5.26a4.17,4.17,0,0,1-2.8,4.63c-.22.07-.43.15-.65.21q4.27,22.25,9.09,44.36c25.8-1.56,47.61-1.15,74.94-10.23C780.09,424.33,771.48,342.55,745.79,312.34Z"/><path class="cls-24" d="M750.13,226.11c8.56-2,12.43,9.94,8.36,15.79a11.37,11.37,0,0,1-3,2.91,22,22,0,0,1-8.39,3.2,48.54,48.54,0,0,1-22-.81,12.68,12.68,0,0,1-1.87-.68l-.14-.07A19.94,19.94,0,0,1,711.61,261h-.89c-5.17-7.81-11.22-4.43-12.8.35a12.73,12.73,0,0,1-7.66-8.48c-1.36-4.77-.33-9.93,1.56-14.52,1.34-3.28,4.45-6.91,7.73-5.57,2.55-5.07,5.85-10.12,10.93-12.63s12.29-1.43,14.94,3.58c2.73-3.38,6.71-6,11.06-6.17s8.91,2.37,10.24,6.51c.27.84.5,1.82,1.29,2.19A3.3,3.3,0,0,0,750.13,226.11Z"/><path class="cls-19" d="M711.45,252.83c-2.36-1.46-4.47-4.79-6.33-3.32-6.65,5.27-12.57.57-15-5.9a19.08,19.08,0,0,0,.11,9.23,12.73,12.73,0,0,0,7.66,8.48c1.58-4.78,7.63-8.16,12.8-.35h.89a20,20,0,0,0,11.28-13.4c-.43,1.75-7.7,6-9.58,5.91A3.62,3.62,0,0,1,711.45,252.83Z"/><path class="cls-24" d="M724.43,247l.4.13A.3.3,0,0,0,724.43,247Z"/><path class="cls-18" d="M755.8,264.29a57.86,57.86,0,0,1-.88,12.27c-1,4.78-3.16,9.47-6.87,12.65a19.49,19.49,0,0,1-14,4.24v0c.06,6.3.39,11,1.07,19.09.27,3.1.58,6.68,1,11-8.34,7-21.74,5.91-31.73,1.54.14-3.46.31-7.57.5-11.95.71-16.41,1.65-36.68,1.88-41.54a1.08,1.08,0,0,0-1-1.13c-7.44-.52-9.09-5.33-7.8-9.21,1.58-4.78,7.63-8.16,12.8-.35h.89a19.94,19.94,0,0,0,11.52-14.51l.14.07a12.68,12.68,0,0,0,1.87.68,48.54,48.54,0,0,0,22,.81,22,22,0,0,0,8.39-3.2l.24,17.14Z"/><path class="cls-4" d="M734,293.45a19.49,19.49,0,0,0,14-4.24c3.71-3.18,5.87-7.87,6.87-12.65.35-1.66,2.35-10.28.58-11.32a4,4,0,0,0-3.11.06c-14.06,4.07-27.4,2.56-41.09-1.72l-2.66,5.9A5.66,5.66,0,0,0,708,272a5.15,5.15,0,0,0,.58,2,38.66,38.66,0,0,0,10.37,13.3c4.16,3.4,10.1,5.81,15.15,7.52,0-.42,0-.85,0-1.29Z"/><path class="cls-19" d="M725.09,984.83A3.46,3.46,0,0,1,721.9,990c-29.76-1.36-87.32-3-118.43-5.41a4.18,4.18,0,0,1-3.76-5C604.65,954.64,608.91,930,613,912a520.53,520.53,0,0,0,68.74,6.07l-4,20.3C697.76,952.37,713.86,964.27,725.09,984.83Z"/><path class="cls-13" d="M682.42,315.1c4.35-.62,8.73-1.07,13.12-1.39,6.61,14.52,9.39,30.7,9.42,46.69,0,17.73-3.21,35.31-7.6,52.49q1.26,7.14,2.47,14.27a4.17,4.17,0,0,1-2.8,4.63c-.22.07-.43.15-.65.21a157.72,157.72,0,0,1-51.89,8.12c-2,0-4.06-.09-6.09-.2a6.14,6.14,0,0,1-5.55-4.33c-.89-2.86-1.71-5.75-2.44-8.65a181.14,181.14,0,0,1-3.22-75c.82-4.82,1.87-9.72,4.48-13.85,2.77-4.4,7.1-7.6,11.59-10.24C655.21,320.8,668.63,317.07,682.42,315.1Z"/><path class="cls-4" d="M699.83,427.16q-1.22-7.14-2.47-14.27c4.39-17.18,7.63-34.76,7.6-52.49,0-16-2.81-32.17-9.42-46.69-4.39.32-8.77.77-13.12,1.39q-4,.57-7.92,1.35c14.75,35.27,17.88,73.74,25.37,111.28A3.64,3.64,0,0,0,699.83,427.16Z"/><path class="cls-4" d="M629.91,316.9c15.89-9,36.29-10.14,52.51-1.8-13.79,2-27.21,5.7-39.16,12.73-4.49,2.64-8.82,5.84-11.59,10.24-2.61,4.13-3.66,9-4.48,13.85a181.14,181.14,0,0,0,3.22,75l-2.62.68c.32,19.92,4.15,41.76,9.47,61l-9.07,2.93c-7.27,2.35-15.79.55-22.11-3.77s-7.34-8.87-7.79-16.42a742.34,742.34,0,0,1,.14-92.19c0-.35.05-.69.07-1h0c1.71-23.33,9-47.82,30.21-60.53C629.11,317.35,629.51,317.12,629.91,316.9Z"/><path class="cls-4" d="M653.12,471.84c-1.8,4.31-3.39,8.72-4.78,13.18h0l-11.07,3.58h0c-5.32-19.23-9.15-41.07-9.47-61l2.62-.68c.73,2.9,1.55,5.79,2.44,8.65a6.14,6.14,0,0,0,5.55,4.33c2,.11,4.06.17,6.09.2Q648.23,456.13,653.12,471.84Z"/><path class="cls-14" d="M515.86,831c13-28.33,28.17-59.16,47.16-93.33l60.07,5.08a13.87,13.87,0,0,1,12.12,17.77L576.85,956.76a18.95,18.95,0,1,0-29.34,24L471.1,968.29a18.91,18.91,0,0,0-8.64-15.85C479.35,916.19,494.79,876.89,515.86,831Z"/><path class="cls-4" d="M629.91,316.9c-.4.22-.8.45-1.19.69-21.24,12.71-28.5,37.2-30.21,60.53h0l-.79-.06c-3.47.56-6.61-2.77-7.11-6.25s1.93-13,3.44-16.2C602,338.82,609.17,321,629.91,316.9Z"/><path class="cls-19" d="M576.85,956.76a18.95,18.95,0,1,0,3.95,11.58A18.91,18.91,0,0,0,576.85,956.76Z"/><path class="cls-4" d="M515.86,831c-21.07,45.87-36.51,85.17-53.4,121.42a18.82,18.82,0,0,0-10.3-3.05,18.19,18.19,0,0,0-2.57.18c23.92-87.79,57.58-161.79,107.78-212.36l5.65.48C544,771.86,528.87,802.69,515.86,831Z"/><path class="cls-19" d="M462.46,952.44a18.82,18.82,0,0,0-10.3-3.05,18.19,18.19,0,0,0-2.57.18,18.95,18.95,0,1,0,21.51,18.77v-.05A18.91,18.91,0,0,0,462.46,952.44Z"/><path class="cls-17" d="M734,293.49c.08,8.72.68,14.47,2,30.13"/><path class="cls-17" d="M713.6,281.71c4.23,5,9.63,9.19,15.93,11s13.55.79,18.52-3.46c3.71-3.18,5.87-7.87,6.87-12.65a57.86,57.86,0,0,0,.88-12.27l0-2.34-.24-17.14"/><path class="cls-17" d="M710.72,261c-9.35-14.14-21.62,8.39-5,9.56a1.08,1.08,0,0,1,1,1.13c-.29,6.16-1.73,37-2.38,53.49"/><path class="cls-17" d="M713.6,264.85c14.53,4.45,30.92,3.78,42.2-.56"/><path class="cls-17" d="M736.08,323.59c-8.34,7-21.76,5.93-31.75,1.56"/><path class="cls-17" d="M735.1,312.58a95.78,95.78,0,0,1,10.69-.24c9.53.3,19.64,1.94,27.13,5.27a33.61,33.61,0,0,1,3.23,1.64c9.18,5.34,12.16,15.68,16.92,24.4,4.66,8.54,10.68,23.82,14.95,34.89"/><path class="cls-17" d="M695.54,313.71c6.61,14.52,9.39,30.7,9.42,46.69,0,17.73-3.21,35.31-7.6,52.49"/><path class="cls-17" d="M783.61,464.3a244.46,244.46,0,0,0,2.32-30.66c.89-38.12-3.37-89.53-13-116"/><path class="cls-17" d="M745.79,312.34c25.69,30.21,34.3,112,34.62,153.79"/><path class="cls-17" d="M648.34,485h0l-11.08,3.58-9.07,2.93c-7.27,2.35-15.79.55-22.11-3.77s-7.34-8.87-7.79-16.42a742.34,742.34,0,0,1,.14-92.19c1.58-23.64,8.73-48.67,30.29-61.57,16-9.62,36.07-12,52.7-3.49"/><path class="cls-17" d="M630.17,316.85c-20.94,4-28.12,21.9-36.13,38.76-1.51,3.18-3.95,12.71-3.44,16.2s3.64,6.81,7.11,6.25"/><path class="cls-17" d="M627.79,427.62c.32,20.06,4.21,41.08,9.59,60.41"/><path class="cls-17" d="M680.83,331q9.24,40.75,16.53,81.91,1.26,7.14,2.47,14.27a4.17,4.17,0,0,1-2.8,4.63c-.22.07-.43.15-.65.21a157.72,157.72,0,0,1-51.89,8.12c-2,0-4.06-.09-6.09-.2a6.14,6.14,0,0,1-5.55-4.33,181.41,181.41,0,0,1-5.66-83.67c.82-4.82,1.87-9.72,4.48-13.85,2.77-4.4,7.1-7.6,11.59-10.24,12-7,25.37-10.76,39.16-12.73,4.35-.62,8.73-1.07,13.12-1.39,3.1-.23,6.2-.39,9.29-.51"/><path class="cls-17" d="M770.69,629.42c-.08.26-.18.61-.29,1-1.11,3.91-3.68,13.78-4.93,15.48-.69,1-1.81,2-2.94,1.33a2.11,2.11,0,0,1-1-1.81c-.1-9.63,1.45-20-.9-29.3a1.41,1.41,0,0,0-.79-1c-1-.47-5.6,4.66-8.87,8.49a1.36,1.36,0,0,1-2.37-1.15c1.48-7.25,3-14.49,4.55-21.73a3,3,0,0,0-1-2.95c-23.9-19.53-63.27-56.22-81-80.29-.22-.31-.63-.76-.88-1a10.64,10.64,0,0,1-2-3Q659.7,493,653.12,471.84q-4.89-15.69-8.63-31.72"/><path class="cls-17" d="M770.76,629.19l-.07.23c-.08.25-.17.59-.29,1-1.16,4.3-4,16.38-3.33,18.87a1.32,1.32,0,0,0,2.41.32c1.5-2.69,5.74-14.23,7.65-19.2a.22.22,0,0,1,.41.14c-1.83,6.22-7.68,22-3.07,20.15a4.76,4.76,0,0,0,2.15-1.85,57.53,57.53,0,0,0,9.52-25.08c1.63-12.06-.26-25-6.73-35.47-5.1-8.23-12.06-15.11-18.52-22.32-21.47-24-35-52.57-51.89-79.55a20.47,20.47,0,0,1-2.33-5.18l-.34-1.15c-.13-.46-.25-.92-.35-1.38q-5.1-23.31-9.6-46.73"/><path class="cls-17" d="M892.62,281.94c15-6.27,17.14-20.61,29.84-33.27.6-.59,1.63.34,1.52,1.18-2.6,19.56-13.8,35.16-29.32,46.76l-13.41,10"/><path class="cls-17" d="M916,256.55a42.28,42.28,0,0,0,5.29-13.42,1.47,1.47,0,0,0-2.57-1.23,25.82,25.82,0,0,0-2,2.89c-6.09,9.85-14,21.81-23.22,28.83"/><path class="cls-17" d="M912.55,251a21.74,21.74,0,0,0,2.78-9.22,1.84,1.84,0,0,0-.21-1.23c-.59-.85-1.93-.28-2.71.42a41.72,41.72,0,0,0-6.17,7.74c-3.47,5.07-13.36,22.69-20.63,24.26-1.3.28.41-6.13.67-7.43a22.08,22.08,0,0,0,.52-3.58c0-.94-.25-2.11-1.17-2.33a2.08,2.08,0,0,0-1.51.43c-15.34,9.69-18.53,35.7-29.4,49.69a657,657,0,0,0-47.47,70c-10.87,18.36-22.16,38.95-18,59.88,1.06,5.35,3.48,10.89,8.28,13.49,4,2.19,9.08,1.84,13.27,0s7.63-5.06,10.67-8.49c10.45-11.79,16.91-26.54,22.46-41.28,6.31-16.79,28.87-77.27,37.3-96.76"/><path class="cls-17" d="M904.86,250.43a13.15,13.15,0,0,0,1.22-5.26,1.63,1.63,0,0,0-3-.94c-.82,1.31-1.51,2.72-2.23,4.09a84.29,84.29,0,0,1-15.64,21.19"/><path class="cls-17" d="M705.32,476.37c25.87-1.57,47.71-1.14,75.09-10.24,1.12-.37,2.24-.76,3.38-1.16"/><path class="cls-17" d="M788.84,437.14a31.22,31.22,0,0,1-2.91-3.5"/><path class="cls-17" d="M681.73,918.07l-4,20.3"/><path class="cls-17" d="M738.88,989.13c2.57-22.41,5-50.88,8.08-71.21"/><path class="cls-17" d="M819.11,918.85q-1.27,10.33-2.56,20.68"/><path class="cls-17" d="M462.46,952.44C489.78,893.8,513.29,827.18,563,737.69"/><path class="cls-25" d="M498.94,827.47a253.84,253.84,0,0,0,66.52,7.28"/><path class="cls-25" d="M601.15,972.23c40,9.61,81.6,9.83,122.9,10.76h0"/><path class="cls-25" d="M739.93,979.6c42.42,6,85.51,8.22,128.1,4.67"/><path d="M751.93,256.51h-.4a1.15,1.15,0,0,0-.58.13,1,1,0,0,0-.48.31,1.14,1.14,0,0,0-.31.48,1.06,1.06,0,0,0-.13.58l.05.4a1.49,1.49,0,0,0,.39.66l.3.24a1.54,1.54,0,0,0,.76.2h.4a1.06,1.06,0,0,0,.58-.13,1,1,0,0,0,.48-.31,1.08,1.08,0,0,0,.31-.48,1.06,1.06,0,0,0,.13-.58l0-.4A1.49,1.49,0,0,0,753,257l-.3-.23a1.48,1.48,0,0,0-.76-.21Z"/><path d="M733.49,257.75h-.41a1.06,1.06,0,0,0-.58.13,1.14,1.14,0,0,0-.48.31,1,1,0,0,0-.31.48,1.15,1.15,0,0,0-.13.58l0,.39a1.56,1.56,0,0,0,.39.67l.3.23a1.48,1.48,0,0,0,.76.21h.41a1.25,1.25,0,0,0,.57-.13,1.32,1.32,0,0,0,.8-.8,1.22,1.22,0,0,0,.13-.57l-.06-.4a1.45,1.45,0,0,0-.38-.66l-.31-.24a1.5,1.5,0,0,0-.75-.2Z"/><path class="cls-17" d="M745.44,257.2a15.46,15.46,0,0,0,2,8.49"/><path class="cls-17" d="M727.25,255.56a12.13,12.13,0,0,1,7.28-1.15"/><path class="cls-17" d="M747.87,253.12a8,8,0,0,1,5.29,0"/><path class="cls-17" d="M706,260.61a3.14,3.14,0,0,0-4.74,3.51"/><path class="cls-25" d="M662.58,505.62c-6.9,42.72,14.6,82.28,16.49,124.47,2.11,46.95-11.18,91.56-17.17,137.35-6.44,49.23-19.86,98.5-29.75,147.17"/><circle class="cls-14" cx="452.15" cy="968.34" r="9.27"/><circle class="cls-14" cx="561.85" cy="968.92" r="9.27"/></g></svg>