<svg xmlns="http://www.w3.org/2000/svg" viewBox="0 0 1920 1080"><defs><style>.cls-1{fill:#f7f8fa;}.cls-12,.cls-2,.cls-7{fill:#fff;}.cls-2,.cls-20{stroke:#31434d;}.cls-10,.cls-18,.cls-2,.cls-20,.cls-25,.cls-9{stroke-linecap:round;}.cls-10,.cls-18,.cls-19,.cls-2,.cls-20,.cls-25,.cls-5,.cls-7,.cls-9{stroke-miterlimit:10;}.cls-3{fill:#7b176e;}.cls-4{fill:#53bcf7;}.cls-10,.cls-18,.cls-19,.cls-20,.cls-25,.cls-5,.cls-9{fill:none;}.cls-5,.cls-7,.cls-9{stroke:#f6a001;}.cls-5{stroke-width:5px;}.cls-6{fill:#f6a001;}.cls-7{stroke-width:3px;}.cls-8{fill:#eaebed;}.cls-9{stroke-width:4px;}.cls-10,.cls-18{stroke:#fff;}.cls-11{fill:#052251;}.cls-13{fill:#0f379a;}.cls-14{fill:#0c2c7a;}.cls-15{fill:#09102d;}.cls-16{fill:#ffe1cf;}.cls-17{fill:#31434d;}.cls-18,.cls-25{stroke-width:2px;}.cls-19{stroke:#53bcf7;}.cls-21{fill:#276ce4;}.cls-22{fill:#3f7ee4;}.cls-23{fill:#dde7fe;}.cls-24{fill:#969ba8;}.cls-25{stroke:#b2d3f7;}</style></defs><title>2019-nCov6</title><g id="background"><path class="cls-1" d="M1449.64,74.56c-74.33-33.39-160.14-39.41-238.15-15.49-68.41,21-125.47,64.08-196.63,75-72.42,11.08-146.52,2.46-218.84-5-111.61-11.55-256.85-20.66-340,70.36-82.65,90.52-105.4,233.49-105.4,351.26,0,223,94.49,405.46,210,405.46H1262c115.48,0,210-182.46,210-405.46q0-28.47-2-56a44,44,0,0,1,16.33-37.88c37.21-29.28,63.61-100,63.61-182,0-63.83-12.36-147.47-71.49-184.85A232.86,232.86,0,0,0,1449.64,74.56Z"/><rect class="cls-2" x="1572.33" y="320.32" width="45.3" height="145.45"/><rect class="cls-3" x="175.71" y="534.84" width="55.01" height="34.1"/><rect class="cls-2" x="203.21" y="643.78" width="150.69" height="44.07"/><rect class="cls-2" x="271.27" y="429.24" width="41.92" height="142.18"/><rect class="cls-3" x="1674.1" y="183.53" width="50.84" height="50.84"/><rect class="cls-2" x="1475.45" y="652.1" width="185.96" height="53.99"/><rect class="cls-4" x="1587.34" y="577.16" width="34.6" height="34.6"/><rect class="cls-2" x="1597.32" y="270.53" width="128.17" height="28.37"/><line class="cls-5" x1="614.88" y1="165.05" x2="1311.09" y2="165.05"/><polygon class="cls-6" points="622.7 147.25 614.09 164.15 623.51 182.85 579.98 164.15 622.7 147.25"/><polygon class="cls-6" points="1295.33 147.25 1303.95 164.15 1294.52 182.85 1338.05 164.15 1295.33 147.25"/><circle class="cls-7" cx="959.02" cy="165.05" r="76.85"/><path class="cls-6" d="M919.44,183.53v-3.4l4.35-4.22C934.24,166,939,160.67,939,154.5c0-4.15-2-8-8.12-8a14,14,0,0,0-8.69,3.46l-1.76-3.9A17.93,17.93,0,0,1,932,141.91c8.81,0,12.52,6.05,12.52,11.9,0,7.56-5.47,13.66-14.1,22l-3.27,3v.12h18.38v4.6Z"/><path class="cls-6" d="M953.51,161.3c0-3.15-.07-5.73-.25-8.24h4.84l.26,4.91h.18a10.51,10.51,0,0,1,9.57-5.61,9,9,0,0,1,8.63,6.11h.13a12.67,12.67,0,0,1,3.39-4,10.46,10.46,0,0,1,6.74-2.14c4,0,10,2.65,10,13.22v17.95H991.6V166.28c0-5.86-2.14-9.38-6.61-9.38a7.17,7.17,0,0,0-6.55,5,9.24,9.24,0,0,0-.44,2.77v18.83h-5.42V165.27c0-4.85-2.14-8.37-6.35-8.37-3.47,0-6,2.77-6.87,5.54a7.69,7.69,0,0,0-.44,2.7v18.39h-5.41Z"/><ellipse class="cls-8" cx="915.46" cy="947.22" rx="498.11" ry="22.06"/><circle class="cls-2" cx="230.72" cy="250.89" r="16.31"/><circle class="cls-2" cx="344.72" cy="126.37" r="20.87"/><circle class="cls-2" cx="1699.52" cy="109.07" r="20.87"/><circle class="cls-2" cx="388.7" cy="412.75" r="13.42"/><circle class="cls-2" cx="1529.44" cy="506.23" r="13.42"/><circle class="cls-6" cx="1599.52" cy="185.58" r="21.78"/><line class="cls-9" x1="1596.24" y1="199.77" x2="1596.5" y2="221.13"/><line class="cls-9" x1="1570.28" y1="164.45" x2="1587.5" y2="175.27"/><line class="cls-9" x1="1609.26" y1="174.6" x2="1620.57" y2="154.45"/><line class="cls-9" x1="1583.5" y1="191.76" x2="1568.99" y2="193.23"/><line class="cls-9" x1="1601.61" y1="152.62" x2="1600.34" y2="178.87"/><polyline class="cls-9" points="1623.35 170.35 1609.81 183.05 1634.89 182.62"/><line class="cls-9" x1="1589.08" y1="195.27" x2="1578.75" y2="209.97"/><line class="cls-9" x1="1602.09" y1="193.35" x2="1609.54" y2="211.66"/><line class="cls-9" x1="1607.41" y1="190.54" x2="1625.82" y2="202.99"/><path class="cls-9" d="M1573.41,178.57c6.09,1,6.76,2.1,12.85,3.08"/><path class="cls-9" d="M1586.38,162.06c2,5.14,4.26,6.93,6.23,12.07"/><circle class="cls-6" cx="1636.38" cy="182.41" r="5.61"/><circle class="cls-6" cx="1570.28" cy="164.45" r="5.61"/><circle class="cls-6" cx="1625.86" cy="168.39" r="5.61"/><circle class="cls-6" cx="1585.36" cy="159.58" r="5.61"/><circle class="cls-6" cx="1602.01" cy="154.43" r="5.61"/><circle class="cls-6" cx="1570.99" cy="177.04" r="5.61"/><circle class="cls-6" cx="1621.14" cy="153.1" r="5.61"/><circle class="cls-6" cx="1578.49" cy="210.38" r="5.61"/><circle class="cls-6" cx="1567.57" cy="193.03" r="5.61"/><circle class="cls-6" cx="1610.67" cy="214.15" r="5.61"/><circle class="cls-6" cx="1628.86" cy="204.9" r="5.61"/><circle class="cls-6" cx="1596.24" cy="221.54" r="5.61"/><circle class="cls-10" cx="1593.33" cy="181" r="5.74"/><circle class="cls-10" cx="1608.68" cy="181.74" r="1.87"/><circle class="cls-10" cx="1601.64" cy="193.81" r="3.27"/><circle class="cls-6" cx="1678.99" cy="542.45" r="17.4"/><line class="cls-9" x1="1676.36" y1="553.79" x2="1676.57" y2="570.85"/><line class="cls-9" x1="1655.63" y1="525.57" x2="1669.38" y2="534.22"/><line class="cls-9" x1="1686.76" y1="533.68" x2="1695.79" y2="517.58"/><line class="cls-9" x1="1666.18" y1="547.39" x2="1654.59" y2="548.57"/><line class="cls-9" x1="1680.65" y1="516.12" x2="1679.64" y2="537.09"/><polyline class="cls-9" points="1698.02 530.29 1687.2 540.43 1707.24 540.09"/><line class="cls-9" x1="1670.64" y1="550.19" x2="1662.39" y2="561.93"/><line class="cls-9" x1="1681.04" y1="548.66" x2="1686.99" y2="563.29"/><line class="cls-9" x1="1685.28" y1="546.41" x2="1699.99" y2="556.36"/><path class="cls-9" d="M1658.13,536.85c4.86.78,5.4,1.68,10.26,2.46"/><path class="cls-9" d="M1668.49,523.66c1.57,4.11,3.4,5.54,5,9.65"/><circle class="cls-6" cx="1708.42" cy="539.92" r="4.48"/><circle class="cls-6" cx="1655.63" cy="525.57" r="4.48"/><circle class="cls-6" cx="1700.02" cy="528.72" r="4.48"/><circle class="cls-6" cx="1667.67" cy="521.68" r="4.48"/><circle class="cls-6" cx="1680.97" cy="517.57" r="4.48"/><circle class="cls-6" cx="1656.2" cy="535.63" r="4.48"/><circle class="cls-6" cx="1696.25" cy="516.5" r="4.48"/><circle class="cls-6" cx="1662.18" cy="562.26" r="4.48"/><circle class="cls-6" cx="1653.46" cy="548.4" r="4.48"/><circle class="cls-6" cx="1687.89" cy="565.27" r="4.48"/><circle class="cls-6" cx="1702.42" cy="557.88" r="4.48"/><circle class="cls-6" cx="1676.36" cy="571.18" r="4.48"/><circle class="cls-10" cx="1674.04" cy="538.79" r="4.59"/><circle class="cls-10" cx="1686.3" cy="539.38" r="1.49"/><circle class="cls-10" cx="1680.68" cy="549.02" r="2.61"/><circle class="cls-6" cx="360.45" cy="280.26" r="17.4"/><line class="cls-9" x1="357.82" y1="291.6" x2="358.03" y2="308.66"/><line class="cls-9" x1="337.09" y1="263.38" x2="350.84" y2="272.03"/><line class="cls-9" x1="368.22" y1="271.49" x2="377.26" y2="255.39"/><line class="cls-9" x1="347.65" y1="285.2" x2="336.05" y2="286.37"/><line class="cls-9" x1="362.12" y1="253.93" x2="361.1" y2="274.9"/><polyline class="cls-9" points="379.48 268.1 368.67 278.24 388.7 277.9"/><line class="cls-9" x1="352.1" y1="288" x2="343.86" y2="299.74"/><line class="cls-9" x1="362.5" y1="286.47" x2="368.45" y2="301.1"/><line class="cls-9" x1="366.75" y1="284.22" x2="381.46" y2="294.17"/><path class="cls-9" d="M339.59,274.66c4.86.78,5.4,1.68,10.26,2.46"/><path class="cls-9" d="M350,261.47c1.57,4.1,3.4,5.54,5,9.64"/><circle class="cls-6" cx="389.89" cy="277.73" r="4.48"/><circle class="cls-6" cx="337.09" cy="263.38" r="4.48"/><circle class="cls-6" cx="381.49" cy="266.53" r="4.48"/><circle class="cls-6" cx="349.13" cy="259.49" r="4.48"/><circle class="cls-6" cx="362.44" cy="255.38" r="4.48"/><circle class="cls-6" cx="337.66" cy="273.44" r="4.48"/><circle class="cls-6" cx="377.71" cy="254.31" r="4.48"/><circle class="cls-6" cx="343.65" cy="300.07" r="4.48"/><circle class="cls-6" cx="334.92" cy="286.21" r="4.48"/><circle class="cls-6" cx="369.35" cy="303.08" r="4.48"/><circle class="cls-6" cx="383.89" cy="295.69" r="4.48"/><circle class="cls-6" cx="357.83" cy="308.99" r="4.48"/><circle class="cls-10" cx="355.5" cy="276.6" r="4.59"/><circle class="cls-10" cx="367.76" cy="277.19" r="1.49"/><circle class="cls-10" cx="362.14" cy="286.83" r="2.61"/><circle class="cls-6" cx="200.76" cy="449.16" r="21.78"/><line class="cls-9" x1="197.47" y1="463.35" x2="197.74" y2="484.71"/><line class="cls-9" x1="171.52" y1="428.03" x2="188.74" y2="438.86"/><line class="cls-9" x1="210.5" y1="438.18" x2="221.81" y2="418.03"/><line class="cls-9" x1="184.74" y1="455.34" x2="170.23" y2="456.81"/><line class="cls-9" x1="202.85" y1="416.2" x2="201.58" y2="442.45"/><polyline class="cls-9" points="224.59 433.94 211.05 446.63 236.13 446.2"/><line class="cls-9" x1="190.32" y1="458.85" x2="179.99" y2="473.55"/><line class="cls-9" x1="203.33" y1="456.94" x2="210.78" y2="475.25"/><line class="cls-9" x1="208.65" y1="454.12" x2="227.06" y2="466.57"/><path class="cls-9" d="M174.65,442.15c6.09,1,6.76,2.1,12.84,3.08"/><path class="cls-9" d="M187.62,425.64c2,5.14,4.26,6.94,6.23,12.07"/><circle class="cls-6" cx="237.62" cy="445.99" r="5.61"/><circle class="cls-6" cx="171.52" cy="428.03" r="5.61"/><circle class="cls-6" cx="227.1" cy="431.97" r="5.61"/><circle class="cls-6" cx="186.6" cy="423.16" r="5.61"/><circle class="cls-6" cx="203.25" cy="418.01" r="5.61"/><circle class="cls-6" cx="172.23" cy="440.63" r="5.61"/><circle class="cls-6" cx="222.38" cy="416.68" r="5.61"/><circle class="cls-6" cx="179.73" cy="473.96" r="5.61"/><circle class="cls-6" cx="168.81" cy="456.61" r="5.61"/><circle class="cls-6" cx="211.91" cy="477.73" r="5.61"/><circle class="cls-6" cx="230.1" cy="468.48" r="5.61"/><circle class="cls-6" cx="197.48" cy="485.13" r="5.61"/><circle class="cls-10" cx="194.57" cy="444.58" r="5.74"/><circle class="cls-10" cx="209.92" cy="445.32" r="1.87"/><circle class="cls-10" cx="202.88" cy="457.39" r="3.27"/></g><g id="man2"><path class="cls-11" d="M1265.3,296.61l-.61-.09a2.65,2.65,0,0,1-2.23-2.71,21.26,21.26,0,0,1,6.41-14.24c4.32-4.32,10.15-6.92,16.13-8.19a31.2,31.2,0,0,1,16.39.51c5.24,1.77,9.93,5.59,12,10.72,1.07,2.65,1.87,5.58,3.34,8.06,1.62,2.72,4.08,4.45,5.5,7.33,5,10.21-2.88,22.21-13.27,24.39-.15-2.31-.27-4.48-.35-6.43,2.48.44,4.38-2.25,5-4.69s.54-5.38-1.15-7.3-5.34-2.08-6.54.19c0,0-1.31,2.95-2.41,3.16a5.45,5.45,0,0,1-6.07-3.85,27,27,0,0,1-.26-4.32c-.14-1.44-.82-3-2.2-3.44a5,5,0,0,0-2.65.21C1284.29,298,1273.89,297.94,1265.3,296.61Z"/><path class="cls-12" d="M1232.72,439.94h2.5l3.07,0c.19,7.84.63,15.75,1.37,24h0a34.37,34.37,0,0,1-4,15.63c-8.68,16.09-24.81-1.35-31.27-9.94a128.42,128.42,0,0,1-12.93-21.09,55,55,0,0,0,20.15-9v-.19Q1222.12,439.93,1232.72,439.94Z"/><path class="cls-12" d="M1238.29,439.91l-3.07,0h-2.5a257.66,257.66,0,0,1-1.76-42.2,8.35,8.35,0,0,1-1.29.34c-1.54,0-3.08-.07-4.62-.08h0c4.86-27,14-37.21,32.81-41.83a102.63,102.63,0,0,1,15.16-2.59q4.88-.45,9.75-.75c.06,2.65.11,5.3.17,8,2,4,10.09,7.09,14.64,7.07,5.78,0,10.46-2,13.78-6.74,0-2.29-.15-4.88-.3-7.66a135.76,135.76,0,0,1,37.73,5.57c7.77,2.3,16.74,6.54,19.55,14.81,1.16,3.43,2.53,8.09,2.57,11.71.36,43.39-6.1,70.46-10.51,108.2,0,.25.09.51.13.76-36.9,14.73-79.51,16.05-116.47,1.32l-.35.05c-1.83-11.49-3.15-22-4-32C1238.92,455.66,1238.48,447.75,1238.29,439.91Z"/><path class="cls-13" d="M1269.09,659.5H1269c-16.88,85.42-18.22,154.44-25,223.82-1.44,0-2.87,0-4.31,0q-30.2-.16-60.31-2.82-5.4-.48-10.79-1c3.36-41.07,7.54-82.08,12-123.05,4.8-43.7,9.13-85.37,22.06-127.56,13.55-44.18,28.39-88,41.16-132.38l-.09-.58.35-.05c37,14.73,79.57,13.41,116.47-1.32,7.92,45.55-6.29,91.86-8.08,138.08-2.12,54.64,8.24,93.87,28.26,160.83,8.35,27.93,16.12,56,24.18,84-3.06.64-6.14,1.23-9.22,1.75-20.25,3.48-40.94,4.67-61.64,5.17-3.55.08-7.11.15-10.66.2-14.21-52.75-34.73-103.56-49-156.32C1268.12,705,1268,682.8,1269.09,659.5Z"/><path class="cls-14" d="M1244.2,701.47c-5.44,40.39-3,80.17,4.83,120.76,3.83-50,8-102.25,19.94-162.74h.12c-.13,2.89-.24,5.76-.33,8.63,1.25-24.7.66-48.79,2.44-73.66C1259.2,630.47,1249.2,665.47,1244.2,701.47Z"/><path class="cls-15" d="M1410.12,935a4.16,4.16,0,0,1-3.23,4.93c-32.57,6.75-74.23,12.6-104.37,14.34a2.46,2.46,0,0,1-2.06-4c8.72-11,18.34-18.45,30.58-28.92a70.44,70.44,0,0,0,6.22-6.24,4.14,4.14,0,0,0,1-3.4c5.45.36,11,.92,16.33.93a76.18,76.18,0,0,0,46.14-15.87C1404.26,909.64,1407.64,923.38,1410.12,935Z"/><path class="cls-15" d="M1237.17,907.13l2.24-1.1c-.22,14.45-.56,29.91-.94,43.28a1.34,1.34,0,0,1-1.33,1.3c-45.46.54-69.17.16-106.13,1.07a3.32,3.32,0,0,1-2.26-5.83c15.63-13.48,49.48-32.35,49.49-32.54a1.09,1.09,0,0,1,0-.18,153.52,153.52,0,0,1,18.45.48c7.14.62,14.35,1.73,21.42.61C1224.84,913.15,1231.06,910.12,1237.17,907.13Z"/><path class="cls-16" d="M1395.67,879.2c1.67,5.43,3.39,11.41,5.08,17.6a76.18,76.18,0,0,1-46.14,15.87c-5.38,0-10.88-.57-16.33-.93q-2.12-13.68-4.25-27.37C1354.73,883.87,1375.42,882.68,1395.67,879.2Z"/><path class="cls-16" d="M1239.65,883.29c0,6.9-.12,14.66-.24,22.74l-2.24,1.1c-6.11,3-12.33,6-19.05,7.09-7.07,1.12-14.28,0-21.42-.61a153.52,153.52,0,0,0-18.45-.48c.36-9.28.72-23.44,1.09-32.66Q1209.42,883.11,1239.65,883.29Z"/><path class="cls-16" d="M1067.38,412.63l-.27.12h0c-8.07-2.36-13.84-14.2-17.85-22-.43-.84-.84-1.94-.2-2.64s2.11-.21,3,.43l10.07,7.09.69-.13A83.82,83.82,0,0,0,1067.38,412.63Z"/><path class="cls-16" d="M1070.3,354.56,1066,340.29a1.49,1.49,0,0,1,2.54-1.41c5.87,6.59,8.3,18.93,10.28,26.19,3.09,11.33,5.66,23.09,12,33.18a4.73,4.73,0,0,0,.32.46,5.94,5.94,0,0,0,5,2.39c26.4-1.14,52.84-2.35,79.27-2.92,13-.29,26-.43,39-.32,3.57,0,7.13.06,10.69.14,1.54,0,3.08,0,4.62.08a8.35,8.35,0,0,0,1.29-.34,257.66,257.66,0,0,0,1.76,42.2q-10.59,0-21.16-.63c-4.32-.24-8.63-.57-12.93-1l-11.89-.67c-20.35-1.14-62-3.52-85.94-5.22-5.6-.4-11.27-.81-16.58-2.65-8.59-3-13.62-9.35-16.84-17.18a83.82,83.82,0,0,1-4.55-17.13c-1.41-8-2.28-16.1-3.9-22.81-1.9-7.87-4.81-15.8-5-23.9,0-1.16.41-2.75,1.57-2.63a2.06,2.06,0,0,1,1.22.86c4.77,5.67,7,13,9.13,20.08q.84,2.79,1.67,5.57l.23-.07c-2.56-8.62-5.13-18.31-7.69-26.28-.34-1.08-.69-2.17-1-3.28a1.88,1.88,0,0,1,2.79-2.06,10.83,10.83,0,0,1,3.59,3.83,46,46,0,0,1,4.75,9.78Z"/><path class="cls-16" d="M1211.56,439.31v.19a55,55,0,0,1-20.15,9q-2.58-5.28-4.66-10.82l11.89.67C1202.93,438.74,1207.24,439.07,1211.56,439.31Z"/><path class="cls-16" d="M1153.33,295.19c-1.75-3.84-3.17-6.52-6.69-13.11a14.28,14.28,0,0,1-1.54-3.71,1.5,1.5,0,0,1,1.89-1.77,11.9,11.9,0,0,1,5.28,3.7,46.06,46.06,0,0,1,5.49,7.21c4.93,9,7.83,14,12.07,23.36,4.85,10.74,5.56,21.31,10.3,32,8.66,19.59,26,40,34.23,54.95-13-.11-26,0-39,.32q-5.52-20.21-11.06-40.41c-2.57-9.36-8.21-18.81-12.71-27.44a124.43,124.43,0,0,1-6.66-15.28,1.53,1.53,0,0,1,1.45-2,85.77,85.77,0,0,1-8.24-17.82,1.42,1.42,0,0,1,1.93-1.71,4,4,0,0,1,1.93,1.94l.15-.07q-1.37-3.07-2.75-6.15c-.57-1.28-.68-3.4.71-3.48a2.2,2.2,0,0,1,1.6,1,45.85,45.85,0,0,1,7.32,11.75,49.65,49.65,0,0,0-3-7c-1.73-3.32-3.9-6.74-4.15-10.39a1,1,0,0,1,1.55-.9C1146.59,282.48,1150.45,289.08,1153.33,295.19Zm.31.69c.46,1,.95,2.16,1.51,3.47C1154.7,298.25,1154.19,297.08,1153.64,295.88Z"/><path class="cls-16" d="M1311.06,353.45c.15,2.78.26,5.37.3,7.66-3.32,4.73-8,6.7-13.78,6.74-4.55,0-12.66-3-14.64-7.07-.06-2.66-.11-5.31-.17-8l-.33-15.72c8.89-1.16,17.82-7.61,23.8-14.28l2.74-.17C1309.57,332.07,1310.56,343.87,1311.06,353.45Z"/><path class="cls-17" d="M1301.59,326.39c-5.51,4.82-12.34,9.82-19.15,10.71l.12,5.93C1292,341.9,1299.17,334.59,1301.59,326.39Z"/><path class="cls-16" d="M1306.24,322.82c-6,6.67-14.91,13.12-23.8,14.28a19.43,19.43,0,0,1-8.17-.59c-3.69-1.11-7.94-5-8.89-8.5a18.41,18.41,0,0,1-.47-4.69c0-3.77.21-7.49.42-11.2a91.31,91.31,0,0,0,0-15.51c8.59,1.33,19,1.41,27-.69a5,5,0,0,1,2.65-.21c1.38.43,2.06,2,2.2,3.44a27,27,0,0,0,.26,4.32,5.45,5.45,0,0,0,6.07,3.85c1.1-.21,2.41-3.16,2.41-3.16,1.2-2.27,4.85-2.12,6.54-.19s1.77,4.81,1.15,7.3-2.51,5.13-5,4.69c.08,2,.2,4.12.35,6.43,0,.09,0,.17,0,.26Z"/><path class="cls-12" d="M1305.44,310.63v-.21a.73.73,0,0,0-.19-.63.76.76,0,0,0-.72,0,74.06,74.06,0,0,1-18.8,3.69c-1.86.16-20.51.51-20.37-1.83l0,.47c-.21,3.71-.45,7.43-.42,11.2a18.41,18.41,0,0,0,.47,4.69c.95,3.48,5.2,7.39,8.89,8.5a19.43,19.43,0,0,0,8.17.59c8.21-1.08,25.3-9.15,24.15-19.26C1306.31,315.38,1305.44,313.09,1305.44,310.63Z"/><path class="cls-18" d="M1351.3,522c3.77,44.76-8.58,70.68-12.37,106-1.71,15.92-3.42,32-2.28,47.92,1.51,21.11,5.95,41.52,12.35,61.69,15,47.46,26.87,94.93,41.25,142.4"/><path class="cls-18" d="M1127.89,949.71c9.11-.15,18.25-1,27.33-1.81,13.22-1.21,26.44-1.42,39.66-2.62,14.66-1.34,29.45,1.4,43.72-.55"/><path class="cls-18" d="M1299.93,951.83c54.29-7.1,82-7.6,108.59-21.07"/><circle class="cls-19" cx="1264.27" cy="477.37" r="6.69"/><circle class="cls-19" cx="1338.28" cy="393.04" r="6.69"/><circle class="cls-19" cx="1320.03" cy="447.77" r="6.69"/><circle class="cls-19" cx="1257.58" cy="370.99" r="6.69"/><circle class="cls-19" cx="1340.99" cy="484.07" r="6.69"/><path class="cls-20" d="M1243.8,496.45a414,414,0,0,1-5.51-56.54"/><path class="cls-20" d="M1241.87,371c-.85,8.44-1.57,16.33-2.15,23.87"/><path class="cls-20" d="M1338.28,911.74q-2.12-13.69-4.25-27.37"/><path class="cls-20" d="M1395.67,879.2c2.15,7,4.39,14.92,6.54,23"/><path class="cls-20" d="M1239.4,906c.12-8.08.21-15.85.25-22.74"/><path class="cls-20" d="M1179.34,880.47c-.37,9.28-.73,23.56-1.1,32.84"/><path class="cls-20" d="M1282.44,337.1q.22,10.83.46,21.67a5.92,5.92,0,0,0,2,4.38,22.69,22.69,0,0,0,12.7,4.7c5.46,0,9.93-1.8,13.21-6a2.69,2.69,0,0,0,.55-1.71c-.27-10.32-1.64-26-2.38-37.77-.15-2.31-.27-4.48-.35-6.43"/><path class="cls-20" d="M1306.24,322.82c-6,6.67-14.91,13.12-23.8,14.28a19.43,19.43,0,0,1-8.17-.59c-3.69-1.11-7.94-5-8.89-8.5a18.41,18.41,0,0,1-.47-4.69c-.08-9,1.39-17.64.39-26.71,0,0,0-.07,0-.11"/><path class="cls-20" d="M1308.61,316c2.48.44,4.38-2.25,5-4.69s.54-5.38-1.15-7.3-5.34-2.08-6.54.19c0,0-1.31,2.95-2.41,3.16"/><path class="cls-20" d="M1266,312.12c4.13,2.27,24.31,2.4,37.83-1.66"/><path class="cls-20" d="M1311.06,353.45a135.76,135.76,0,0,1,37.73,5.57c7.77,2.29,16.74,6.54,19.55,14.8,1.16,3.43,2.53,8.09,2.56,11.71.37,43.4-6.09,70.47-10.5,108.21"/><path class="cls-20" d="M1225.05,398c4.86-27,14-37.2,32.81-41.82a102.63,102.63,0,0,1,15.16-2.59q4.88-.45,9.75-.75"/><path class="cls-20" d="M1244.06,495.82c37,14.75,79.69,13.41,116.63-1.38"/><path class="cls-20" d="M1075.76,372.45,1066,340.29a1.49,1.49,0,0,1,2.54-1.41c5.87,6.59,8.3,18.93,10.28,26.19,3.09,11.33,5.66,23.09,12,33.18a4.73,4.73,0,0,0,.32.46,5.94,5.94,0,0,0,5,2.39c26.4-1.14,52.84-2.35,79.27-2.92,13-.29,26-.43,39-.32q7.67,0,15.31.22c.4,0,4.07-1.23,10-3.22,17.36-5.77,54.27-17.85,87.81-24"/><path class="cls-20" d="M1362.21,412.77c-10.78,8.55-24.3,12.76-37.65,16.07a380.26,380.26,0,0,1-86.27,11.07l-3.07,0q-18.33.1-36.59-1.58l-11.89-.67c-20.35-1.14-62-3.52-85.94-5.22-5.6-.4-11.27-.81-16.58-2.65-22.11-7.63-20.68-38-25.29-57.12-1.9-7.87-4.81-15.8-5-23.9,0-1.16.41-2.75,1.57-2.63a2.06,2.06,0,0,1,1.22.86c4.77,5.67,7,13,9.13,20.08q1.85,6.13,3.68,12.26"/><path class="cls-20" d="M1076.2,374.67c-1.67-5.69-4.33-14.39-6-20.08a46,46,0,0,0-4.75-9.78,10.74,10.74,0,0,0-3.59-3.83,1.88,1.88,0,0,0-2.79,2.06c.26,1.1.6,2.19,1,3.27,3.15,9.82,6.32,22.23,9.47,32.05"/><path class="cls-20" d="M1067.11,412.75h0c-8.07-2.36-13.84-14.2-17.85-22-.43-.84-.84-1.94-.2-2.64s2.11-.21,3,.43l10.07,7.09"/><path class="cls-20" d="M1158.12,306.36c-5.56-13.18-5.56-13.18-11.48-24.28a14.28,14.28,0,0,1-1.54-3.71,1.5,1.5,0,0,1,1.89-1.77,11.9,11.9,0,0,1,5.28,3.7,46.06,46.06,0,0,1,5.49,7.21c4.93,9,7.83,14,12.07,23.36,4.85,10.74,5.56,21.31,10.3,32,8.66,19.59,26,40,34.23,54.95"/><path class="cls-20" d="M1239.62,463.9a34.37,34.37,0,0,1-4,15.63c-8.68,16.09-24.81-1.35-31.27-9.94a127.27,127.27,0,0,1-17.59-31.91"/><path class="cls-20" d="M1158,322c-1-1.46-6.93-5.86-10.74-8.61a1.53,1.53,0,0,0-2.36,1.7,124.43,124.43,0,0,0,6.66,15.28c4.5,8.63,10.14,18.08,12.71,27.44q5.54,20.21,11.06,40.41"/><path class="cls-20" d="M1155.2,299.46c-2.84-6.93-7.84-16.44-11.79-19.25a1,1,0,0,0-1.56.91c.26,3.64,2.43,7.06,4.16,10.39,2.22,4.25,3,7,5.77,13.51"/><path class="cls-20" d="M1149.46,299.54a46.46,46.46,0,0,0-7.77-12.78,2.14,2.14,0,0,0-1.6-1c-1.4.08-1.28,2.19-.71,3.47l8.39,18.74"/><path class="cls-20" d="M1144.22,300.05c-.15-1.24-3-6-4.17-6.52a1.41,1.41,0,0,0-1.93,1.7c2.2,7.35,6.12,15.35,8.13,18.16"/><path class="cls-20" d="M1231,397.48a258.47,258.47,0,0,0,1.76,42.63"/><path class="cls-20" d="M1191.16,448.55a54.92,54.92,0,0,0,20.39-9.06"/><path class="cls-20" d="M1338.28,911.74c5.45.36,11,.92,16.33.93a76.18,76.18,0,0,0,46.14-15.87"/><path class="cls-20" d="M1178.25,913.13a153.52,153.52,0,0,1,18.45.48c7.14.62,14.35,1.73,21.42.61,6.72-1.07,12.94-4.1,19.05-7.09l2.24-1.1"/><path class="cls-20" d="M1307.19,306.34a1.71,1.71,0,0,1,2.58-.75,3.29,3.29,0,0,1,1.16,2.81,4.53,4.53,0,0,1-1.42,3.37"/><path d="M1268.36,309.73a1.5,1.5,0,0,0,0-3,1.5,1.5,0,0,0,0,3Z"/><path d="M1284.72,310a1.5,1.5,0,0,0,0-3,1.5,1.5,0,0,0,0,3Z"/><path class="cls-20" d="M1274.73,307.38c-.89,2-.79,4-1.68,5.94"/><path class="cls-20" d="M1281.91,303.65a8.51,8.51,0,0,1,7.73.49"/><path class="cls-20" d="M1271.17,303.84a6,6,0,0,0-5.68.49"/></g><g id="man1"><path class="cls-21" d="M852.93,604.61l-2,84.24a9.07,9.07,0,0,1-9.29,9.06L719.92,694.8a9.06,9.06,0,0,1-8.84-9.06l-1-81.13a9,9,0,0,1,4.2-7.64l11.87,36.11a10.77,10.77,0,0,0,8.56,7.09A335.59,335.59,0,0,0,776,643.89v6.47a7,7,0,0,0,7,7h5.75a7,7,0,0,0,7-7v-6.58A280.68,280.68,0,0,0,830,640.34a10.75,10.75,0,0,0,8.6-7.71l9.52-36A9,9,0,0,1,852.93,604.61Z"/><path class="cls-22" d="M749.24,595.55h94.63a13.31,13.31,0,0,1,5.23,1.06l-9.52,36c-1.13,4-5.48,8-9.6,8.71-11.29,1.85-21.7,2-33.22,2.44-6.55.25-14.15,1.28-20.77,1.11a335.59,335.59,0,0,1-41.28-3.72c-4-.59-8.24-4.33-9.56-8.09L713.28,597a12.79,12.79,0,0,1,5.87-1.42h30.09Z"/><path class="cls-21" d="M818.15,595.55h-6.83a34.06,34.06,0,0,0-16.61-30.79c1.26-1.87,1.28-4.35.59-6.9C808.72,563.46,818.15,577.05,818.15,595.55Z"/><path class="cls-16" d="M783.07,462.12c-4.3-.29-8-.55-11.18-1C775.92,461.69,779.59,462,783.07,462.12Zm-18.36-11.31a332.79,332.79,0,0,1,41.93,6.12c2.25.47,4.61,1,6.31,2.58-.44,2.12-3.24,2.57-5.41,2.53-8.64-.12-16,.42-24.46.08,5.94.41,13,.87,21.32,1.92,2.26.28,4.62.65,6.4,2.06a1.31,1.31,0,0,1,.58.85,2.58,2.58,0,0,1-1.56,2.14,149.32,149.32,0,0,1-20,.79c3.68.5,7.24,1.1,11.56,1.71,1.88.26,6.87.63,8.54,1.46a1.8,1.8,0,0,1-.36,3.36,24.27,24.27,0,0,1-4.17.53q-12.64.81-25.34.88a222.54,222.54,0,0,1,24.84,2.63,1.88,1.88,0,0,1,.28,3.65c-13.05,4-31.56,3.56-45.33,2-11.9-1.36-23.81-.79-35.71-2.08a149.08,149.08,0,0,1,8-34.63c1.36,1.26,3.89.87,5.82.25a294.69,294.69,0,0,0,31.66-12.35,9,9,0,0,1,3.62-1.08,3,3,0,0,1,3,1.91c.45,1.57-.87,3-2.07,4.12Q769.43,446.53,764.71,450.81Z"/><path class="cls-23" d="M795.76,643.78v6.58a7,7,0,0,1-7,7H783a7,7,0,0,1-7-7v-6.47Q785.92,644.15,795.76,643.78Z"/><path class="cls-16" d="M794.71,564.76a5.08,5.08,0,0,1-.73.89,15.37,15.37,0,0,0-3.42,4.85A8.53,8.53,0,0,1,786.1,575c-1.18.49-2.53.73-3.44,1.62a11.6,11.6,0,0,0-1.44,2.18,6.89,6.89,0,0,1-5,3,11.9,11.9,0,0,0-4.6,1.32,11.32,11.32,0,0,1-2.75,1.2,8.75,8.75,0,0,1-6.89-3.33c-2.34-2.77-3.41-6.34-4.94-9.62,1.93-2.72,4.47-5.23,7.73-5.7l1.16-.18-.24-1.6c-.22-1.43-.28-3.22,1-4a2.58,2.58,0,0,1,3,.63,8.8,8.8,0,0,1,1.61,2.87,36.53,36.53,0,0,0,4.75,8.18l.63-.22a25.56,25.56,0,0,1-4-15.4q1.29-.29,2.61-.48a33.61,33.61,0,0,1,5.48,6.27,53.28,53.28,0,0,1-2.3-6.61c.83,0,1.68-.08,2.53-.08a38.45,38.45,0,0,1,4.58.27q.29.47.54.93a15.26,15.26,0,0,0,1,2.28,18,18,0,0,0-1-2.28c-.11-.29-.21-.59-.31-.9a36.41,36.41,0,0,1,9.56,2.52C796,560.41,796,562.89,794.71,564.76Z"/><path class="cls-16" d="M787.18,546.14c2.94,1.85,6.8,6.92,8.12,11.72a36.41,36.41,0,0,0-9.56-2.52,20.8,20.8,0,0,1-.93-6.53,12.88,12.88,0,0,1,.09-1.54A1.51,1.51,0,0,1,787.18,546.14Z"/><path class="cls-16" d="M785.74,555.34l-.23,0a17.83,17.83,0,0,0-4.62-4.94,2.2,2.2,0,0,0-2.32-.22c-1.1.61-.94,1.82-.71,2.83.17.72.35,1.43.54,2.14-1.07.07-2.13.18-3.18.34l-.88-.79a1,1,0,0,0-1.69.67c0,.2,0,.4,0,.6a35.42,35.42,0,0,0-18.42,10.59,72.55,72.55,0,0,0-10.78-11.45c-3.83-3.45-9.22-6.43-13.77-8.84l4.07-3.91c6.4-6.14,12.9-12.41,17.93-19.65,11.57,7.59,23.8,14.83,33.26,24.59a12.88,12.88,0,0,0-.09,1.54A20.8,20.8,0,0,0,785.74,555.34Z"/><path class="cls-16" d="M780.89,550.37a17.83,17.83,0,0,1,4.62,4.94,38.45,38.45,0,0,0-4.58-.27c-.85,0-1.7,0-2.53.08-.19-.71-.37-1.42-.54-2.14-.23-1-.39-2.22.71-2.83A2.2,2.2,0,0,1,780.89,550.37Z"/><path class="cls-21" d="M780.7,561.73a33.61,33.61,0,0,0-5.48-6.27c1-.16,2.11-.27,3.18-.34A53.28,53.28,0,0,0,780.7,561.73Z"/><path class="cls-21" d="M776.62,571.34l-.63.22a36.53,36.53,0,0,1-4.75-8.18,8.8,8.8,0,0,0-1.61-2.87,2.58,2.58,0,0,0-3-.63c-1.24.75-1.18,2.54-1,4l.24,1.6-1.16.18c-3.26.47-5.8,3-7.73,5.7-.07-.16-.14-.32-.22-.47a30.58,30.58,0,0,0-2.59-4.33,35.42,35.42,0,0,1,18.42-10.59A25.56,25.56,0,0,0,776.62,571.34Z"/><path class="cls-21" d="M756.78,570.86c.08.15.15.31.22.47-.2.28-.39.55-.57.83a44.05,44.05,0,0,0-7.19,23.39h-5.52c0-12,4-22,10.47-29A30.58,30.58,0,0,1,756.78,570.86Z"/><path class="cls-12" d="M754.08,518.91c-.76,1.29-1.57,2.54-2.44,3.77-5,7.24-11.53,13.51-17.93,19.65l-4.07,3.91-7.46,7.16c-28.26-19.69-58.22-47-79.7-72.77,22.32,2.05,45.73,3.85,67.6,5q6.42,6.15,13.25,11.83C731.68,504.42,743.92,512.57,754.08,518.91Z"/><path class="cls-12" d="M732.12,449.37a149.08,149.08,0,0,0-8,34.63c-.08.75-.16,1.51-.23,2.27q-6.79-.27-13.85-.64c-21.87-1.15-45.28-2.95-67.6-5-6.53-.59-13-1.21-19.24-1.84-5.37-.53-10.62-1.08-15.72-1.63-10-1.07-19.95-2.09-29.88-3.41-10.17-1.35-12.07-4.94-18.25-13.06a357.61,357.61,0,0,1-27.18-41.39c-6-10.6-11.43-21.8-14.15-33.55h0a67.54,67.54,0,0,1-1.77-13.16c-.51-16.61,7.2-34.43,22.23-41.5,13.11-6.16,28.23-3.16,42.87-2.81-.82,4-1.68,7.87-2.58,11.56a3.83,3.83,0,0,0,1.8,4.21c8.62,5,18.8,5.36,23.21,5.22a2.55,2.55,0,0,0,2.46-2.26l1.31-11.89.72.08c10.55-.25,22.32-.06,30,7.23A33.64,33.64,0,0,1,645,352.6c6.45,13.62,9.7,28.49,14.24,42.85a247.42,247.42,0,0,0,17.8,42.27c18.32,3.1,36.65,6.49,55.55,10.32Z"/><path class="cls-15" d="M689.47,941.73a3.28,3.28,0,0,1-1.43,5.65c-30.67,8.06-62.56,2.71-93.91-2.92-7.77-1.39-15.75-3.15-22.9-6.3a4.38,4.38,0,0,1-2.56-4.58c2.53-19.15,6.84-44.29,10-60.75,19.94,4.2,37.41,7.07,56.3,6.81v.18c-.15.68-.3,2.36-.46,3-1,4.48-3.56,15.79-3.82,17C630.71,899.83,670.86,925.75,689.47,941.73Z"/><path class="cls-13" d="M622.94,494.75c17.65,72.78,31.48,146,45.49,219.58a39.82,39.82,0,0,1,.68,9c-.8,21.21-9.28,113.41-12.36,155.65A174.16,174.16,0,0,1,635,880.64c-18.89.26-36.36-2.61-56.3-6.81l-5.36-1.14c4.66-54.66,10.28-110.32,15-165a13,13,0,0,0-1.15-6.55c-1.23-2.67-3.2-6.94-5.69-12.32-10.67-23.15-30.89-66.93-43.23-93.33a339.79,339.79,0,0,1-19-49.4c-6.45-22.43-9.66-45.51-7-68.59,37.6,9.28,73.73,13.83,110.86,16.74,0,.15,0,.29,0,.44Z"/><path class="cls-16" d="M609.2,320.52l-1.61,14.59L606.28,347a2.55,2.55,0,0,1-2.46,2.26c-4.41.14-14.59-.18-23.21-5.22a3.83,3.83,0,0,1-1.8-4.21c.9-3.69,1.76-7.58,2.58-11.56,2.49-12.07,4.58-25,6-36.22a6.54,6.54,0,0,1-5.34-6.69,8.11,8.11,0,0,1,4.2-6.83l-.2-.35c-2.6-2.73-4.47-6.57-3.61-10.24s4.21-6.24,7.8-7.17,7.4-.41,11,.38a10.27,10.27,0,0,0,4.91.31,13.39,13.39,0,0,0,3.4-1.89,17.65,17.65,0,0,1,15.55-1.6,7.09,7.09,0,0,0,2.37.65,16.34,16.34,0,0,0,2.87-.67c2.47-.46,4.92,1.23,6.27,3.35A10.51,10.51,0,0,1,630.74,277l-.07-.23-1.49.06c-11.89.44-18.08-1.88-25.91-4.95a2.12,2.12,0,0,0-1.47-.19,2.08,2.08,0,0,0-1,1.06c-1.94,3.52-4.87,8-6.8,11.55l-.23.19c2.42,3.07,2.54,7.39,2.39,11.33a3.93,3.93,0,0,0,.46,2.54c.85,1.18,2.68,1,4,.42s2.55-1.58,4-1.67a3.53,3.53,0,0,1,2.48.9,4.25,4.25,0,0,0,4.57.79l5.18-2.4c2.57-1.18,6.81-2.3,9-.52l.56.13a114,114,0,0,1-4,13.64c-1.39,3.81-3.26,7.85-6.88,9.69a12.44,12.44,0,0,1-5.28,1.17Z"/><path class="cls-11" d="M636.6,261.3c-1.35-2.12-3.8-3.81-6.27-3.35a16.34,16.34,0,0,1-2.87.67,7.09,7.09,0,0,1-2.37-.65,17.65,17.65,0,0,0-15.55,1.6,13.39,13.39,0,0,1-3.4,1.89,10.27,10.27,0,0,1-4.91-.31c-3.63-.79-7.43-1.3-11-.38s-7,3.55-7.8,7.17c-.72,3.08.68,8.59,3.81,10.05,1.27.6,2.75-.16,4,.85,1.76,1.42,1.25,3.85,1,5.8-.53,3.59.58,7.36-.23,10.79a50.55,50.55,0,0,0-1.26,4.95c-.43,3.29.85,6.6,2.71,9.34,3.67,5.41,10.08,10.62,16.82,10.8h1.08a12.44,12.44,0,0,0,5.28-1.17c3.62-1.84,5.49-5.88,6.88-9.69a114,114,0,0,0,4-13.64l-.56-.13c-2.2-1.78-6.44-.66-9,.52l-5.18,2.4a4.25,4.25,0,0,1-4.57-.79,3.53,3.53,0,0,0-2.48-.9c-1.46.09-2.69,1.05-4,1.67s-3.15.76-4-.42a3.93,3.93,0,0,1-.46-2.54c.15-3.94,0-8.26-2.39-11.33l.23-.19c1.93-3.51,4.86-8,6.8-11.55a2.08,2.08,0,0,1,1-1.06,2.12,2.12,0,0,1,1.47.19c7.83,3.07,14,5.39,25.91,4.95l1.49-.06.07.23a10.51,10.51,0,0,0,5.86-15.71Z"/><path class="cls-16" d="M629.18,276.84v.25A115.14,115.14,0,0,1,626.47,296l-.56-.13c-2.2-1.78-6.44-.66-9,.52l-5.18,2.4a4.25,4.25,0,0,1-4.57-.79,3.53,3.53,0,0,0-2.48-.9c-1.46.09-2.69,1.05-4,1.67s-3.15.76-4-.42a3.93,3.93,0,0,1-.46-2.54c.15-3.94,0-8.26-2.39-11.33l.23-.19c1.93-3.51,4.86-8,6.8-11.55a2.08,2.08,0,0,1,1-1.06,2.12,2.12,0,0,1,1.47.19C611.1,275,617.29,277.28,629.18,276.84Z"/><path class="cls-12" d="M623.24,478.79c.1,5.4.06,11.11-.11,15.48-37.13-2.91-73.26-7.46-110.86-16.74,0-.23.05-.45.08-.68l-.17-.68c1-30.22,2.45-60.4,5.88-90.42,2.72,11.75,8.2,22.95,14.15,33.55a357.61,357.61,0,0,0,27.18,41.39c6.18,8.12,8.08,11.71,18.25,13.06,9.93,1.32,19.92,2.34,29.88,3.41C612.62,477.71,617.87,478.26,623.24,478.79Z"/><path class="cls-14" d="M448.81,863.87A116.36,116.36,0,0,1,402.17,839c-1.36-1.19-2.68-2.41-4-3.67,19.47-40.57,44.34-79.44,70.54-116,10.26-14.32,25.78-38,33.92-50.45a48.81,48.81,0,0,0,7.22-18.43,672.83,672.83,0,0,0,9.36-105.37c4.88,16.94,12.6,34.5,20,50.4,12.34,26.4,32.56,70.18,43.23,93.33-15.55,44.64-84.41,136.22-113.95,178.45A112.85,112.85,0,0,1,448.81,863.87Z"/><path class="cls-15" d="M478.62,934.63a3.13,3.13,0,0,1-3,4.63c-29.53-2.63-55.91-17.74-81.73-32.93-7.3-4.29-14.69-9.1-20.33-15.29,8.38-16.94,20.22-37.47,28.65-52a116.36,116.36,0,0,0,46.64,24.85c-2.29,3.71-8.1,13.08-8.7,14C440.11,877.92,467.27,914.23,478.62,934.63Z"/><path class="cls-18" d="M530.1,513.31c13.55,43.06,27.29,86.54,50.1,125.5,8.18,14,17.6,27.54,22,43.13,4.58,16.36,3.23,33.71,1.85,50.65q-5.88,72-11.76,143.93"/><path class="cls-18" d="M378,882.36a321.9,321.9,0,0,0,101,54.48"/><path class="cls-18" d="M569.4,928.21a311,311,0,0,0,120.43,13.88"/><path class="cls-20" d="M608.31,335.19c10.55-.25,22.32-.06,30,7.23A33.64,33.64,0,0,1,645,352.6c6.45,13.62,9.7,28.49,14.24,42.85a247.42,247.42,0,0,0,17.8,42.27"/><path class="cls-20" d="M581.39,328.27c-14.64-.35-29.76-3.35-42.87,2.81-15,7.07-22.74,24.89-22.23,41.5s7.79,32.23,15.92,46.72a357.61,357.61,0,0,0,27.18,41.39c6.18,8.12,8.08,11.71,18.25,13.06,9.93,1.32,19.92,2.34,29.88,3.41,11.05,1.19,22.84,2.37,35,3.47,22.32,2.05,45.73,3.85,67.6,5q7,.36,13.85.64"/><path class="cls-20" d="M561.62,346.77c13.7,21.48,35.06,62.19,42.15,75.85a10,10,0,0,0,7.53,5.27C653,433.39,691.41,439.7,732.6,448"/><path class="cls-20" d="M723.93,486.27A149.76,149.76,0,0,1,732.6,448"/><path class="cls-20" d="M512.18,476.17c1-30.22,2.45-60.41,5.88-90.43"/><path class="cls-20" d="M630.44,373.41q-1.61,28.29-4.43,56.48"/><path class="cls-20" d="M623.11,494.71c0-.15,0-.29,0-.44.17-4.37.21-10.08.11-15.48"/><path class="cls-20" d="M642.48,480.63c21.48,25.77,51.44,53.08,79.7,72.77"/><path class="cls-20" d="M710.08,485.63q6.42,6.15,13.25,11.83c8.35,7,20.59,15.11,30.75,21.45"/><path class="cls-20" d="M512.27,477.53c37.6,9.28,73.73,13.83,110.86,16.74"/><path class="cls-20" d="M609.2,320.52,606.28,347a2.55,2.55,0,0,1-2.46,2.26c-4.41.14-14.59-.18-23.21-5.22a3.83,3.83,0,0,1-1.8-4.21c.9-3.69,1.76-7.58,2.58-11.56,2.52-12.2,4.63-24.34,6-35.59"/><path class="cls-20" d="M732.6,448.7c1.11,2,3.13,1.64,5.34.92a293.82,293.82,0,0,0,31.66-12.34,9.14,9.14,0,0,1,3.63-1.09,3,3,0,0,1,3,1.92c.44,1.56-.87,3-2.07,4.12l-9.53,8.67"/><path class="cls-20" d="M724.43,483.92c12.15,1.39,23.29.78,35.44,2.17,13.78,1.57,32.28,2,45.33-2a1.88,1.88,0,0,0-.28-3.65,228.87,228.87,0,0,0-36.13-2.93"/><path class="cls-20" d="M764.55,450.8a332.34,332.34,0,0,1,42.1,6.13c2.25.48,4.6,1,6.3,2.58-.43,2.13-3.24,2.57-5.41,2.54-12.19-.18-21.77,1-35.65-.9"/><path class="cls-20" d="M771.89,461.15c7.56,1,18.2,1.08,32.52,2.89,2.25.29,4.62.66,6.4,2.07a1.28,1.28,0,0,1,.57.84,2.58,2.58,0,0,1-1.56,2.14c-10.81,1.52-31.51-.48-39-.92"/><path class="cls-20" d="M770.88,468.69c14.1,0,20.1,1.44,30.54,2.9,1.87.27,6.86.63,8.53,1.46a1.8,1.8,0,0,1-.36,3.36,24,24,0,0,1-4.16.53q-18.4,1.19-36.86.79"/><path class="cls-20" d="M722.18,553.4l11.53-11.07c7.49-7.18,15.1-14.54,20.37-23.42"/><path class="cls-20" d="M787.66,560.31a17.9,17.9,0,0,0-6.76-9.94,2.19,2.19,0,0,0-2.33-.21c-1.1.61-.94,1.81-.7,2.82a53.92,53.92,0,0,0,5.19,13.66"/><path class="cls-20" d="M782.74,565.86c-1.41-4.3-5-8.2-8.39-11.19a1,1,0,0,0-1.7.67c-.47,5.26.94,11.68,4,16"/><path class="cls-20" d="M776,571.56a37.24,37.24,0,0,1-4.75-8.17,8.76,8.76,0,0,0-1.61-2.88,2.56,2.56,0,0,0-3-.62c-1.24.74-1.18,2.53-1,4l2,13.15"/><path class="cls-20" d="M787.77,559.61a19.14,19.14,0,0,1-3-10.8,12.85,12.85,0,0,1,.1-1.54,1.5,1.5,0,0,1,2.28-1.12c4.77,3,11.93,14.44,6.8,19.5a15.57,15.57,0,0,0-3.43,4.85A8.5,8.5,0,0,1,786.1,575c-1.18.49-2.52.73-3.44,1.62a12.47,12.47,0,0,0-1.44,2.18,6.87,6.87,0,0,1-5,3,12,12,0,0,0-4.6,1.32,11.11,11.11,0,0,1-2.76,1.2,8.79,8.79,0,0,1-6.89-3.32c-2.44-2.9-3.51-6.68-5.16-10.1-2.91-6-8.46-11.35-13.37-15.78-3.83-3.45-9.22-6.43-13.77-8.84"/><path class="cls-20" d="M784.91,547.27c-9.46-9.76-21.7-17-33.27-24.59"/><path class="cls-20" d="M719.15,595.55H843.87a9.07,9.07,0,0,1,9.07,9.07l-2,84.23a9.08,9.08,0,0,1-9.3,9.07L719.93,694.8a9.07,9.07,0,0,1-8.85-9.06l-1-81.12A9.07,9.07,0,0,1,719.15,595.55Z"/><path class="cls-20" d="M795.76,643.78v6.58a7,7,0,0,1-7,7H783a7,7,0,0,1-7-7v-6.47"/><path class="cls-20" d="M764.73,565.63c-3.59.53-6.3,3.5-8.29,6.53a44.1,44.1,0,0,0-7.21,23.73"/><path class="cls-20" d="M794.9,565.3c11.18,6,17.28,17.89,16.41,30.56"/><path class="cls-20" d="M629.19,277.09a114.5,114.5,0,0,1-6.75,32.57c-1.39,3.81-3.25,7.85-6.87,9.69a12.2,12.2,0,0,1-5.29,1.17c-6.89.18-15.41-5.32-18.4-12.09"/><path class="cls-20" d="M590.88,279.45c-4.56-2.16-8.89.87-8.86,5.91,0,4.44,3.45,7.32,7.85,6.76"/><path class="cls-20" d="M589.44,281.84a3.65,3.65,0,0,0-4.12,5.63"/><path d="M613,286.18v.27a1.08,1.08,0,0,0,.13.58,1.14,1.14,0,0,0,.31.48,1,1,0,0,0,.48.31,1.15,1.15,0,0,0,.58.13l.4-.06a1.57,1.57,0,0,0,.66-.38l.23-.3a1.48,1.48,0,0,0,.21-.76v-.27a1.27,1.27,0,0,0-.13-.58,1.34,1.34,0,0,0-.8-.79,1,1,0,0,0-.57-.13l-.4.05a1.39,1.39,0,0,0-.66.39l-.24.3a1.57,1.57,0,0,0-.2.76Z"/><path d="M624.51,287.34v.27a1.27,1.27,0,0,0,.13.58,1.24,1.24,0,0,0,.31.48,1.72,1.72,0,0,0,1.06.44l.4-.05a1.47,1.47,0,0,0,.66-.39l.24-.3a1.57,1.57,0,0,0,.2-.76v-.27a1.06,1.06,0,0,0-.13-.58,1.08,1.08,0,0,0-.31-.48,1,1,0,0,0-.48-.31,1.06,1.06,0,0,0-.58-.13l-.39.05a1.47,1.47,0,0,0-.67.39l-.23.3a1.48,1.48,0,0,0-.21.76Z"/><path class="cls-20" d="M622.76,290.33l1,4.07"/><path class="cls-24" d="M614.07,307.09c0,1.8-2.37,2.26-4.07,2.26a3.17,3.17,0,0,1-3.06-3.26"/><path class="cls-20" d="M623.61,283.25a3.49,3.49,0,0,1,4.51.71"/><path class="cls-20" d="M617.09,282.1a9.1,9.1,0,0,0-7.36,1.36"/><line class="cls-25" x1="523.68" y1="436.19" x2="530.96" y2="449.51"/><line class="cls-25" x1="606.94" y1="385.61" x2="620.1" y2="373.41"/><line class="cls-25" x1="685.48" y1="450.9" x2="698.28" y2="462.24"/><line class="cls-25" x1="710.08" y1="531.17" x2="728.27" y2="518.91"/><line class="cls-25" x1="545.52" y1="379.94" x2="561.62" y2="365.82"/><line class="cls-25" x1="581.49" y1="439.73" x2="587.03" y2="454.23"/></g></svg>