<svg xmlns="http://www.w3.org/2000/svg" viewBox="0 0 1920 1080"><defs><style>.cls-1{fill:#f7f8fa;}.cls-2,.cls-4,.cls-8{fill:#fff;}.cls-2{stroke:#adbcc4;}.cls-11,.cls-13,.cls-15,.cls-2,.cls-23,.cls-3,.cls-5,.cls-6,.cls-8{stroke-linecap:round;stroke-miterlimit:10;}.cls-15,.cls-2,.cls-5{stroke-width:4px;}.cls-3{fill:#adbcc4;}.cls-23,.cls-3,.cls-5,.cls-6{stroke:#fff;}.cls-13,.cls-15,.cls-23,.cls-5,.cls-6{fill:none;}.cls-7{fill:#ebeced;}.cls-11,.cls-13,.cls-8{stroke:#31434d;}.cls-9{fill:#7b176e;}.cls-10,.cls-11{fill:#53bcf7;}.cls-12{fill:#31434d;}.cls-14{fill:#f6b333;}.cls-15{stroke:#f6b333;}.cls-16{fill:#09102d;}.cls-17{fill:#2464d4;}.cls-18{fill:#205abf;}.cls-19{fill:#276ce4;}.cls-20{fill:#ffe1cf;}.cls-21{fill:#052251;}.cls-22{fill:#225dc4;}.cls-23{stroke-width:2px;}</style></defs><title>2019-nCov12</title><g id="background"><ellipse class="cls-1" cx="1016.35" cy="550.18" rx="549.25" ry="472.54"/><rect class="cls-2" x="640.68" y="51.82" width="779.33" height="504.81"/><rect class="cls-3" x="684.84" y="93.41" width="691.01" height="421.63"/><ellipse class="cls-4" cx="1064.3" cy="316.89" rx="24.68" ry="24.41"/><line class="cls-5" x1="1076.96" y1="306.4" x2="1091.28" y2="287.09"/><line class="cls-5" x1="1076.37" y1="355.53" x2="1068.16" y2="334.22"/><line class="cls-5" x1="1048.01" y1="320.15" x2="1024.03" y2="330.57"/><line class="cls-5" x1="1083.03" y1="322.16" x2="1097.17" y2="330.63"/><line class="cls-5" x1="1039.94" y1="344.99" x2="1058.98" y2="322.35"/><polyline class="cls-5" points="1032.35 314.45 1053.26 312.21 1030.27 295.68"/><line class="cls-5" x1="1080.37" y1="315.25" x2="1099.74" y2="309.06"/><line class="cls-5" x1="1067.28" y1="308.19" x2="1073.02" y2="286.77"/><line class="cls-5" x1="1060.54" y1="307.13" x2="1052.37" y2="283.56"/><path class="cls-5" d="M1083.16,340.78c-4.84-5-4.69-6.45-9.52-11.43"/><path class="cls-5" d="M1060.16,346.81c1.73-5.92.88-9.08,2.6-15"/><ellipse class="cls-4" cx="1028.78" cy="294.87" rx="6.36" ry="6.29"/><ellipse class="cls-4" cx="1076.37" cy="355.53" rx="6.36" ry="6.29"/><ellipse class="cls-4" cx="1028.74" cy="314.51" rx="6.36" ry="6.29"/><ellipse class="cls-4" cx="1059.39" cy="349.72" rx="6.36" ry="6.29"/><ellipse class="cls-4" cx="1040.81" cy="343.1" rx="6.36" ry="6.29"/><ellipse class="cls-4" cx="1084.31" cy="343.77" rx="6.36" ry="6.29"/><ellipse class="cls-4" cx="1022.59" cy="331.39" rx="6.36" ry="6.29"/><ellipse class="cls-4" cx="1100.26" cy="308.86" rx="6.36" ry="6.29"/><ellipse class="cls-4" cx="1098.31" cy="331.77" rx="6.36" ry="6.29"/><ellipse class="cls-4" cx="1073.69" cy="283.79" rx="6.36" ry="6.29"/><ellipse class="cls-4" cx="1050.92" cy="279.8" rx="6.36" ry="6.29"/><ellipse class="cls-4" cx="1091.8" cy="286.9" rx="6.36" ry="6.29"/><ellipse class="cls-6" cx="1066.78" cy="325.17" rx="6.51" ry="6.44"/><ellipse class="cls-6" cx="1053.39" cy="314.15" rx="2.12" ry="2.09"/><ellipse class="cls-6" cx="1068" cy="308.09" rx="3.71" ry="3.67"/><ellipse class="cls-4" cx="700.99" cy="497.95" rx="30.92" ry="30.59"/><line class="cls-5" x1="716.84" y1="484.8" x2="734.78" y2="460.62"/><line class="cls-5" x1="716.1" y1="546.36" x2="705.82" y2="519.66"/><line class="cls-5" x1="680.57" y1="502.04" x2="650.53" y2="515.08"/><line class="cls-5" x1="724.45" y1="504.55" x2="742.16" y2="515.16"/><line class="cls-5" x1="670.46" y1="533.16" x2="694.32" y2="504.79"/><polyline class="cls-5" points="660.96 494.89 687.16 492.09 658.35 471.38"/><line class="cls-5" x1="721.11" y1="495.9" x2="745.38" y2="488.14"/><line class="cls-5" x1="704.71" y1="487.05" x2="711.91" y2="460.22"/><line class="cls-5" x1="696.28" y1="485.72" x2="686.03" y2="456.19"/><path class="cls-5" d="M724.61,527.88c-6.06-6.24-5.87-8.08-11.93-14.32"/><path class="cls-5" d="M695.8,535.44c2.16-7.43,1.09-11.39,3.25-18.81"/><ellipse class="cls-4" cx="656.48" cy="470.36" rx="7.97" ry="7.88"/><ellipse class="cls-4" cx="716.1" cy="546.36" rx="7.97" ry="7.88"/><ellipse class="cls-4" cx="656.43" cy="494.97" rx="7.97" ry="7.88"/><ellipse class="cls-4" cx="694.84" cy="539.08" rx="7.97" ry="7.88"/><ellipse class="cls-4" cx="671.55" cy="530.79" rx="7.97" ry="7.88"/><ellipse class="cls-4" cx="726.05" cy="531.63" rx="7.97" ry="7.88"/><ellipse class="cls-4" cx="648.73" cy="516.12" rx="7.97" ry="7.88"/><ellipse class="cls-4" cx="746.03" cy="487.89" rx="7.97" ry="7.88"/><ellipse class="cls-4" cx="743.59" cy="516.58" rx="7.97" ry="7.88"/><ellipse class="cls-4" cx="712.75" cy="456.48" rx="7.97" ry="7.88"/><ellipse class="cls-4" cx="684.22" cy="451.48" rx="7.97" ry="7.88"/><ellipse class="cls-4" cx="735.43" cy="460.37" rx="7.97" ry="7.88"/><ellipse class="cls-6" cx="704.09" cy="508.32" rx="8.15" ry="8.07"/><ellipse class="cls-6" cx="687.32" cy="494.52" rx="2.65" ry="2.62"/><ellipse class="cls-6" cx="705.62" cy="486.93" rx="4.64" ry="4.59"/><circle class="cls-4" cx="1292.47" cy="458.15" r="22.61"/><line class="cls-5" x1="1277.35" y1="457.64" x2="1255.65" y2="462.19"/><line class="cls-5" x1="1308.14" y1="424.12" x2="1300.56" y2="443.84"/><line class="cls-5" x1="1305.61" y1="465.86" x2="1328.4" y2="473.35"/><line class="cls-5" x1="1282.96" y1="443.06" x2="1278.55" y2="428.57"/><line class="cls-5" x1="1326.47" y1="453.67" x2="1299.47" y2="457.64"/><polyline class="cls-5" points="1312.75 479.37 1297.11 468.12 1302.57 493.59"/><line class="cls-5" x1="1280.5" y1="449.45" x2="1263.46" y2="441.87"/><line class="cls-5" x1="1285.06" y1="462.32" x2="1267.9" y2="473.58"/><line class="cls-5" x1="1289" y1="467.18" x2="1280" y2="488.43"/><path class="cls-5" d="M1294.39,430.14c.22,6.4-.8,7.31-.58,13.7"/><path class="cls-5" d="M1313.8,440c-4.84,3-6.21,5.74-11,8.77"/><circle class="cls-4" cx="1303.08" cy="495.06" r="5.83"/><circle class="cls-4" cx="1308.14" cy="424.12" r="5.83"/><circle class="cls-4" cx="1315.26" cy="481.54" r="5.83"/><circle class="cls-4" cx="1316.13" cy="438.51" r="5.83"/><circle class="cls-4" cx="1324.7" cy="454.44" r="5.83"/><circle class="cls-4" cx="1295.45" cy="427.37" r="5.83"/><circle class="cls-4" cx="1329.89" cy="473.66" r="5.83"/><circle class="cls-4" cx="1262.99" cy="441.69" r="5.83"/><circle class="cls-4" cx="1278.48" cy="427.09" r="5.83"/><circle class="cls-4" cx="1265.6" cy="475.23" r="5.83"/><circle class="cls-4" cx="1278.66" cy="491.91" r="5.83"/><circle class="cls-4" cx="1255.17" cy="462.01" r="5.83"/><circle class="cls-6" cx="1295.9" cy="450.92" r="5.96"/><circle class="cls-6" cx="1298.22" cy="466.71" r="1.94"/><circle class="cls-6" cx="1284.51" cy="461.95" r="3.4"/><circle class="cls-4" cx="976.82" cy="486.04" r="34.19"/><line class="cls-5" x1="974.5" y1="463.29" x2="963.27" y2="431.7"/><line class="cls-5" x1="1030.99" y1="502.59" x2="999.91" y2="495.25"/><line class="cls-5" x1="967.93" y1="507.29" x2="961.36" y2="542.96"/><line class="cls-5" x1="997.49" y1="468.72" x2="1018.3" y2="459.17"/><line class="cls-5" x1="990.45" y1="536.06" x2="979.01" y2="496.43"/><polyline class="cls-5" points="949.15 520.75 962.82 495.02 925.78 508.39"/><line class="cls-5" x1="987.42" y1="466.34" x2="995.3" y2="439.27"/><line class="cls-5" x1="969.06" y1="475.8" x2="948.7" y2="452.38"/><line class="cls-5" x1="962.59" y1="482.68" x2="928.91" y2="473.53"/><path class="cls-5" d="M1019.17,483.21c-9.54,1.63-11.11.3-20.65,1.93"/><path class="cls-5" d="M1008.28,514.31c-5.53-6.63-9.85-8.14-15.38-14.77"/><circle class="cls-4" cx="923.68" cy="509.45" r="8.81"/><circle class="cls-4" cx="1030.99" cy="502.59" r="8.81"/><circle class="cls-4" cx="946.42" cy="524.94" r="8.81"/><circle class="cls-4" cx="1011.06" cy="517.48" r="8.81"/><circle class="cls-4" cx="988.93" cy="533.58" r="8.81"/><circle class="cls-4" cx="1023.53" cy="484.24" r="8.81"/><circle class="cls-4" cx="961.2" cy="545.26" r="8.81"/><circle class="cls-4" cx="995.48" cy="438.52" r="8.81"/><circle class="cls-4" cx="1020.51" cy="458.75" r="8.81"/><circle class="cls-4" cx="945.76" cy="449.26" r="8.81"/><circle class="cls-4" cx="923.43" cy="472.23" r="8.81"/><circle class="cls-4" cx="963.44" cy="430.95" r="8.81"/><circle class="cls-6" cx="988.34" cy="489.71" r="9.02"/><circle class="cls-6" cx="965.17" cy="496.4" r="2.93"/><circle class="cls-6" cx="969.5" cy="474.89" r="5.14"/><circle class="cls-4" cx="737.62" cy="138.4" r="23.15"/><line class="cls-5" x1="722.14" y1="137.88" x2="699.93" y2="142.54"/><line class="cls-5" x1="753.66" y1="103.57" x2="745.9" y2="123.75"/><line class="cls-5" x1="751.06" y1="146.3" x2="774.4" y2="153.96"/><line class="cls-5" x1="727.88" y1="122.95" x2="723.37" y2="108.12"/><line class="cls-5" x1="772.42" y1="133.82" x2="744.79" y2="137.87"/><polyline class="cls-5" points="758.38 160.12 742.37 148.61 747.96 174.68"/><line class="cls-5" x1="725.37" y1="129.49" x2="707.92" y2="121.74"/><line class="cls-5" x1="730.04" y1="142.67" x2="712.47" y2="154.2"/><line class="cls-5" x1="734.07" y1="147.64" x2="724.86" y2="169.4"/><path class="cls-5" d="M739.58,109.73c.22,6.54-.81,7.48-.59,14"/><path class="cls-5" d="M759.45,119.87c-5,3.1-6.36,5.86-11.31,9"/><circle class="cls-4" cx="748.48" cy="176.18" r="5.96"/><circle class="cls-4" cx="753.66" cy="103.57" r="5.96"/><circle class="cls-4" cx="760.95" cy="162.34" r="5.96"/><circle class="cls-4" cx="761.83" cy="118.29" r="5.96"/><circle class="cls-4" cx="770.61" cy="134.61" r="5.96"/><circle class="cls-4" cx="740.67" cy="106.89" r="5.96"/><circle class="cls-4" cx="775.92" cy="154.28" r="5.96"/><circle class="cls-4" cx="707.44" cy="121.55" r="5.96"/><circle class="cls-4" cx="723.29" cy="106.6" r="5.96"/><circle class="cls-4" cx="710.11" cy="155.88" r="5.96"/><circle class="cls-4" cx="723.49" cy="172.96" r="5.96"/><circle class="cls-4" cx="699.44" cy="142.35" r="5.96"/><circle class="cls-6" cx="741.13" cy="131" r="6.1"/><circle class="cls-6" cx="743.5" cy="147.16" r="1.98"/><circle class="cls-6" cx="729.47" cy="142.29" r="3.48"/><ellipse class="cls-7" cx="553.26" cy="1013.56" rx="199.31" ry="20.17"/><ellipse class="cls-7" cx="1552.53" cy="1013.56" rx="184.2" ry="20.17"/><rect class="cls-8" x="1074.93" y="121.41" width="282.24" height="201.63"/><rect class="cls-9" x="354.58" y="331.21" width="55.01" height="34.1"/><rect class="cls-8" x="779.2" y="161.01" width="181.69" height="220.44" rx="14.06" transform="translate(104.72 -223.57) rotate(15.57)"/><rect class="cls-8" x="268.32" y="351.78" width="40.49" height="142.18"/><rect class="cls-9" x="1632.51" y="231.86" width="25.42" height="25.42"/><rect class="cls-8" x="1682.09" y="261.01" width="84.82" height="26.15"/><polygon class="cls-8" points="382.09 599.98 352.75 599.98 352.75 570.64 326.6 570.64 326.6 599.98 297.27 599.98 297.27 626.13 326.6 626.13 326.6 655.46 352.75 655.46 352.75 626.13 382.09 626.13 382.09 599.98"/><rect class="cls-10" x="1723.9" y="152.91" width="34.6" height="34.6"/><rect class="cls-10" x="161.98" y="522.61" width="103.25" height="33.45"/><rect class="cls-8" x="1660.16" y="379.1" width="135.13" height="43.61" transform="translate(2128.64 -1326.82) rotate(90)"/><path class="cls-11" d="M783.25,295.31a1,1,0,0,0,1.13,1.08c11.86-.65,32-.18,43.22-.91,4.5-.3,9.1-.61,13.26-2.29,9.14-3.68,14.28-13.1,17.06-22.25a83,83,0,0,0,3.38-30c-1.06-14.64-4.14-28.51,2-42.42a1.48,1.48,0,0,0-1.19-1.77,4.46,4.46,0,0,0-2.41.28c-20.15,6.46-41.11,23.29-53.54,39.58C793.16,253.67,784.6,274.14,783.25,295.31Z"/><path class="cls-11" d="M818.32,321.92c19.53-1.3,29.58-12,34.17-28.36a1.31,1.31,0,0,0-2-1.36c-8.87,5.88-17.61,8.07-29.09,8.33-12.26.28-24.8-1.31-36.61,2.08a4.16,4.16,0,0,0-2,1.26c-6.81,7.8,16.14,15.25,21,16.67A42.25,42.25,0,0,0,818.32,321.92Z"/><path class="cls-11" d="M873,214.42a26.25,26.25,0,0,0-1.75-15.28,1.44,1.44,0,0,0-2.43-.26,25.29,25.29,0,0,0-4.68,14.69c-.1,4.4,0,11.7,2.55,15.48a.86.86,0,0,0,1.42,0C870.78,224.87,872.25,219.14,873,214.42Z"/><path class="cls-11" d="M923,335.14a1.09,1.09,0,0,1-1.57.32c-9.55-6.75-26.63-16.88-35.65-23.39-3.6-2.6-7.26-5.27-9.79-8.86-5.54-7.86-4.44-18.43-1.54-27.54a84.85,84.85,0,0,1,14.34-26.87c9.26-11.7,19.78-21.7,22.6-36.56a1.58,1.58,0,0,1,2-.86,4.24,4.24,0,0,1,1.85,1.51c13.17,16,21.08,41,22.16,61.15C938.57,295.11,934,316.72,923,335.14Z"/><path class="cls-11" d="M878.46,339.06c-15.6-11.31-17.87-25.56-12.37-41.62a1.35,1.35,0,0,1,2.49-.08c4.06,9.57,10.12,16,19.57,22.2,10.11,6.66,21.51,11.89,29.46,20.91a4,4,0,0,1,1,2.11c1.23,10.09-22.24,4.31-27.15,2.94A41.51,41.51,0,0,1,878.46,339.06Z"/><path class="cls-11" d="M894.22,220.46a27.65,27.65,0,0,1,10.2-11.87,1.43,1.43,0,0,1,2.19,1.06c.27,5.14-1.62,10.33-4.49,14.74-2.43,3.74-6.71,9.78-11,11.62a.83.83,0,0,1-1.17-.76C890.09,230.37,892.14,224.81,894.22,220.46Z"/><path class="cls-12" d="M881.4,227.38c-1.39,5.9-4.18,12.15-3.14,18.32,1.07,6.35,5.13,12.45,7.32,18.45a46,46,0,0,1,3,10.7c.4,3.92-.75,7.31-2.15,10.9-1.63,4.22-4.6,10.35-1.52,14.53a.88.88,0,0,0,1.63-.44c.22-3.39.06-6.37,1.24-9.67,1-2.71,2.26-5.3,3.08-8.07,1.65-5.59.46-10.73-1.29-16.16-1.9-5.86-4.58-11.21-7-16.85-3.11-7.31.74-14.05.6-21.47a.91.91,0,0,0-1.77-.24Z"/><path class="cls-12" d="M881.67,227.27c-7.57,10.33-19.79,15.52-32.19,16.63-8.94.8-21.14.78-27.64,8.1a1.26,1.26,0,0,0,1.52,2,44.34,44.34,0,0,1,17.89-6.4c6.16-.8,12.46-1.06,18.46-2.77,8.94-2.56,18.37-8.72,23.15-16.83.46-.78-.67-1.39-1.19-.69Z"/><path class="cls-12" d="M881.47,227.4c-1.76,8-9,13.5-15.85,17.17-6.19,3.33-12.16,6.51-17.28,11.42-9.58,9.19-18.05,31.46-34.62,21.74a1,1,0,0,0-1.2,1.56c4.26,4.84,12,3.69,17.2,1.06,7.81-4,11.68-12.35,17.21-18.69,7-8,16.05-11.44,24.69-17.1,5.6-3.67,11-10,11.48-16.94a.83.83,0,0,0-1.63-.22Z"/><path class="cls-12" d="M882.16,229.15c-.37,5.62-.68,13.5,3.09,18.22,3.43,4.29,9.64,4.46,13.3,8.45,7.26,7.88,3.35,20.88,11.76,28.36,1.11,1,2.75-.65,1.64-1.64-7.59-6.75-5-18.22-10.17-26.3-2.11-3.26-5.14-4.9-8.62-6.43-4.2-1.85-7.1-3.89-8.39-8.57a49,49,0,0,1-1.24-12.09.69.69,0,0,0-1.37,0Z"/><path class="cls-12" d="M840.81,221.14c-5.78,11.69,3.88,25.19,16.86,23.76,1.18-.13,1.22-2,0-1.89-11.43,1-20.35-10.42-15.68-21.17.35-.8-.79-1.51-1.18-.7Z"/><path class="cls-12" d="M910,237.19c4,4.43,7.5,10.85,1,15-3.23,2.06-7.32,1.31-10.43,3.18a.84.84,0,0,0,.19,1.52c4.94,1.27,12.28-1.81,14.87-6.22,3-5.19-.41-11.33-4.93-14.34-.53-.36-1.06.41-.66.85Z"/><path class="cls-12" d="M889.24,272.81c-.12,3.58.77,7.31,1.24,10.85.53,4.1.4,8.4,1.61,12.37,2.24,7.31,9.22,11.51,16.63,11.52a1.11,1.11,0,0,0,0-2.22,15.67,15.67,0,0,1-12.08-5.23c-3.11-3.62-3.43-8.17-3.91-12.71a138.57,138.57,0,0,0-2.32-14.74c-.15-.67-1.14-.49-1.17.16Z"/><path class="cls-12" d="M822,264c4.35,5,13.75,7,19.42,3.14.78-.53.32-1.92-.67-1.6-6.59,2.07-12.37,1.83-18-2.51-.58-.45-1.18.48-.74,1Z"/><path class="cls-12" d="M904.5,268.52c6.59,1.09,10.12,13.16,17.7,10.35a.91.91,0,0,0-.24-1.77c-7.77-.06-9.74-9.54-17.28-9.93-.76,0-.95,1.22-.18,1.35Z"/><path class="cls-12" d="M827.21,236.11c2.34-.54,4.39-1.46,6.87-1.35a14,14,0,0,1,7.16,2.35c1.14.74,2.24-1.12,1.07-1.84-4.4-2.7-11.39-3.69-15.63-.07-.44.37,0,1,.53.91Z"/><path class="cls-12" d="M840.1,267.08c-3.81,5.14-4.61,13.76-.38,18.91.74.91,2-.24,1.55-1.2-2.81-5.36-3.4-11.71.1-17,.53-.8-.72-1.48-1.27-.74Z"/><path class="cls-12" d="M890.54,281.68a13.57,13.57,0,0,0,9.76,7.16c2.48.41,7.13.5,9.24-1a.72.72,0,0,0-.17-1.3c-2.17-.67-4.94.58-7.25.5-4.84-.17-7.37-2.93-10.72-6a.55.55,0,0,0-.86.66Z"/><path class="cls-12" d="M910.73,254.65a8.85,8.85,0,0,1,4.45,4.31,8.07,8.07,0,0,1,.78,3,11.07,11.07,0,0,0,.09,2.7.81.81,0,0,0,1.34.35c1.47-1.78.55-4.89-.38-6.77a10.5,10.5,0,0,0-5.66-5c-.84-.33-1.45,1.1-.62,1.47Z"/><path class="cls-12" d="M916,259.23a21,21,0,0,0,3.05,1.21c1.19.4,2.3,1.1,3.49,1.42.56.16,1.18-.52.8-1-1.44-2-4.72-2.07-6.92-2.59-.58-.13-1,.71-.42,1Z"/><path class="cls-12" d="M839.48,245.79c-2.36,1.76-4.28,4.51-6.07,6.84a13.21,13.21,0,0,0-3.14,6.88c-.11,1.24,1.91,1.5,2.18.29a17.76,17.76,0,0,1,3.35-7c1.49-2,3.43-4,4.46-6.26.21-.45-.27-1.16-.78-.78Z"/><path class="cls-12" d="M851.79,219.81c-3,.25-6.31,2.09-8.78,3.71-2,1.33-3.86,2.83-4.14,5.36-.14,1.3,1.89,1.28,2,0,.27-2.29,3.48-3.88,5.25-4.95s4.08-1.82,5.94-3c.45-.3.32-1.16-.3-1.11Z"/><path class="cls-12" d="M836.39,220.62c.36,1.14,1.25,2.06,1.62,3.24s.38,2.29,1.09,3.2a.76.76,0,0,0,1.27-.33c.35-1.26-.35-2.76-.88-3.89a5.55,5.55,0,0,0-2.39-2.92c-.41-.17-.82.32-.71.7Z"/><path class="cls-12" d="M816.84,243.71c.76,3.58,4.72,4.35,7.85,4.65,3.48.34,8.85.92,12.06-.79a.86.86,0,0,0-.43-1.59c-4.77-.39-15.73,3.22-18.27-2.78-.31-.72-1.36-.18-1.21.51Z"/><path class="cls-12" d="M850.87,255.47c-2,3.3-2.62,10.19,1,12.75a.78.78,0,0,0,1.17-.68c-.18-1.75-1.27-3.22-1.58-5a12.53,12.53,0,0,1,.72-6.55c.28-.74-.87-1.18-1.26-.53Z"/><path class="cls-12" d="M881.67,230.56c3.31-4.7,4.51-11.11,6.31-16.45,2-5.86,4.08-11.66,5.81-17.59a1.75,1.75,0,0,0-.42-1.74,1.52,1.52,0,0,0-1.81-.51,1.89,1.89,0,0,0-1.35,1.23c-1.93,5.87-3.48,11.84-5.18,17.77-1.56,5.41-4.21,11.41-4.13,17.07a.42.42,0,0,0,.77.22Z"/><path class="cls-12" d="M891.4,196.53c-1.63,5.8-2.85,11.69-4.85,17.4-.89,2.55-1.87,5.07-2.91,7.57s-3.52,6-3.22,8.83a.92.92,0,0,0,1.51.65c2.24-1.71,2.91-5.43,3.83-7.95,1-2.81,2-5.66,2.78-8.54a118.3,118.3,0,0,0,3.82-17.82c.07-.54-.82-.66-1-.14Z"/><line class="cls-13" x1="1093.63" y1="155.66" x2="1093.63" y2="304.05"/><line class="cls-13" x1="1112.25" y1="137.88" x2="1333.47" y2="137.88"/><circle class="cls-8" cx="382.09" cy="203.42" r="34.79"/><circle class="cls-8" cx="1700.77" cy="541.75" r="13.41"/><path class="cls-9" d="M930.54,300.93a2.58,2.58,0,0,0-3.52.74l-2.33-2.47a2.6,2.6,0,1,0-2.35-.89l-1.43,1.34a10,10,0,0,0-13.73-3.8l-.48-.93a2.48,2.48,0,0,0,1.1-1,2.59,2.59,0,1,0-1.17,1c.17.32.33.63.5.91a10,10,0,0,0-4.66,6c-.32-.1-.67-.19-1.09-.29a2.56,2.56,0,1,0-.21.43,3.24,3.24,0,0,0,.19-.37l1.1.26a10.05,10.05,0,1,0,19.66,1.41l4.46-.07a2.59,2.59,0,1,0,4-2.32Z"/><circle class="cls-9" cx="898.65" cy="294.83" r="2.59"/><path class="cls-9" d="M911.92,292.4a2.59,2.59,0,1,0-.81-3.58A2.59,2.59,0,0,0,911.92,292.4Z"/><path class="cls-9" d="M920.75,291.78a2.59,2.59,0,1,0-.82-3.57A2.59,2.59,0,0,0,920.75,291.78Z"/><path class="cls-9" d="M903.82,313.84a2.59,2.59,0,1,0,.81,3.57A2.59,2.59,0,0,0,903.82,313.84Z"/><path class="cls-9" d="M898.78,305.83a2.59,2.59,0,1,0,.81,3.57A2.59,2.59,0,0,0,898.78,305.83Z"/><path class="cls-9" d="M918.67,315.58a2.59,2.59,0,1,0,.82,3.57A2.58,2.58,0,0,0,918.67,315.58Z"/><path class="cls-9" d="M927.07,311.31a2.59,2.59,0,1,0,.82,3.57A2.59,2.59,0,0,0,927.07,311.31Z"/><path class="cls-9" d="M912,319a2.59,2.59,0,1,0,.82,3.57A2.58,2.58,0,0,0,912,319Z"/><path class="cls-9" d="M850.48,228.07a2.11,2.11,0,0,0-2.87.61l-1.9-2a2.11,2.11,0,1,0-1.91-.72L842.63,227a8.11,8.11,0,0,0-2.77-2.91,8.2,8.2,0,0,0-8.41-.19l-.39-.75a2,2,0,1,0-.06,0c.14.26.27.51.41.75a8,8,0,0,0-2.84,2.73,8,8,0,0,0-1,2.16c-.27-.08-.55-.16-.89-.24a2.08,2.08,0,1,0-.17.35,2.8,2.8,0,0,0,.15-.3l.9.21a8.19,8.19,0,1,0,16,1.15l3.63-.06a2.11,2.11,0,1,0,3.23-1.89Z"/><circle class="cls-9" cx="824.5" cy="223.1" r="2.11"/><path class="cls-9" d="M835.31,221.12a2.11,2.11,0,1,0-.66-2.91A2.11,2.11,0,0,0,835.31,221.12Z"/><path class="cls-9" d="M842.5,220.62a2.11,2.11,0,1,0-.66-2.91A2.11,2.11,0,0,0,842.5,220.62Z"/><path class="cls-9" d="M828.71,238.59a2.11,2.11,0,1,0,.67,2.91A2.12,2.12,0,0,0,828.71,238.59Z"/><path class="cls-9" d="M824.61,232.07a2.11,2.11,0,1,0,.66,2.9A2.11,2.11,0,0,0,824.61,232.07Z"/><path class="cls-9" d="M840.81,240a2.11,2.11,0,1,0,.66,2.91A2.11,2.11,0,0,0,840.81,240Z"/><path class="cls-9" d="M847.65,236.53a2.11,2.11,0,1,0,.66,2.91A2.11,2.11,0,0,0,847.65,236.53Z"/><path class="cls-9" d="M835.39,242.78a2.11,2.11,0,1,0,.66,2.91A2.11,2.11,0,0,0,835.39,242.78Z"/></g><g id="virus"><circle class="cls-14" cx="1215.93" cy="225.12" r="46.14"/><line class="cls-15" x1="1185.07" y1="224.08" x2="1140.78" y2="233.37"/><line class="cls-15" x1="1247.9" y1="155.68" x2="1232.43" y2="195.91"/><line class="cls-15" x1="1242.73" y1="240.86" x2="1289.25" y2="256.14"/><line class="cls-15" x1="1196.52" y1="194.33" x2="1187.53" y2="164.76"/><line class="cls-15" x1="1285.3" y1="215.98" x2="1230.22" y2="224.08"/><polyline class="cls-15" points="1257.32 268.43 1225.39 245.47 1236.54 297.44"/><line class="cls-15" x1="1191.5" y1="207.36" x2="1156.73" y2="191.91"/><line class="cls-15" x1="1200.81" y1="233.64" x2="1165.79" y2="256.61"/><line class="cls-15" x1="1208.84" y1="243.54" x2="1190.48" y2="286.92"/><path class="cls-15" d="M1219.83,168c.45,13-1.61,14.91-1.16,28"/><path class="cls-15" d="M1259.45,188.17c-9.87,6.2-12.68,11.7-22.55,17.89"/><circle class="cls-14" cx="1237.58" cy="300.44" r="11.89"/><circle class="cls-14" cx="1247.9" cy="155.68" r="11.89"/><circle class="cls-14" cx="1262.43" cy="272.85" r="11.89"/><circle class="cls-14" cx="1264.2" cy="185.04" r="11.89"/><circle class="cls-14" cx="1281.7" cy="217.56" r="11.89"/><circle class="cls-14" cx="1222.01" cy="162.32" r="11.89"/><circle class="cls-14" cx="1292.29" cy="256.77" r="11.89"/><circle class="cls-14" cx="1155.76" cy="191.53" r="11.89"/><circle class="cls-14" cx="1187.37" cy="161.73" r="11.89"/><circle class="cls-14" cx="1161.09" cy="259.97" r="11.89"/><circle class="cls-14" cx="1187.75" cy="294.02" r="11.89"/><circle class="cls-14" cx="1139.81" cy="233" r="11.89"/><circle class="cls-6" cx="1222.92" cy="210.37" r="12.17"/><circle class="cls-6" cx="1227.66" cy="242.58" r="3.96"/><circle class="cls-6" cx="1199.68" cy="232.88" r="6.93"/></g><g id="nurse2"><path class="cls-16" d="M455.72,933.5A251.65,251.65,0,0,1,466.51,908c-20.24-8.07-36.67-16.09-52.17-27.16-10.78,17.47-37.55,69-35.16,70.41,29,17.47,91.94,47.51,108.22,55.34a2.82,2.82,0,0,0,4-2.83c-1.16-12.71-8.06-24.5-14.75-35.57Q466.19,950.85,455.72,933.5Z"/><path class="cls-16" d="M662.38,960.61h0c-.63-6.3-1.27-12.58-1.9-18.88a224.31,224.31,0,0,1-61,.45c-.79,23.29-.4,49.76,2.54,72.09.05.28,84.46,5.17,131.42,5.77a3.74,3.74,0,0,0,3.4-5.4c-5.49-11.3-17.43-19.22-28.53-26Z"/><path class="cls-17" d="M579.82,773.64c4,54.31,5.18,112.72,9.73,167,3.31.58,6.63,1.08,10,1.52a224.31,224.31,0,0,0,61-.45c4.93-.7,9.85-1.59,14.72-2.63-6.5-69.17-15.3-163.28-29-260.12a110,110,0,0,1-23.92-.67,15.86,15.86,0,0,0-6.77.57,16.35,16.35,0,0,1-4.75.69h-.62l-.59,0c-4-.12-7.9-.07-11.86.09q.78,26.83.48,53.68a13,13,0,0,1-1.17,5.25C591.69,750.19,585.94,761.92,579.82,773.64Z"/><path class="cls-18" d="M617.69,750.12c1,0-2.39-71.8-4.17-71.25-1.55.47-1.15.69-2.75.69h-.62l-.59,0c-4-.12-7.9-.07-11.86.09q.78,26.83.48,53.68a13,13,0,0,1-1.17,5.25c-5.32,11.64-11.07,23.37-17.19,35.09,4,54.31,5.18,112.72,9.73,167,3.31.58,6.63,1.08,10,1.52q7.72,1,15.52,1.46C609.75,892,618.69,755.12,617.69,750.12Z"/><path class="cls-19" d="M410.36,877.89q2,1.5,4,2.93c15.5,11.07,31.93,19.09,52.17,27.16,3.63,1.44,7.38,2.88,11.26,4.35C517,866.81,550.94,829,579.82,773.64c6.12-11.72,11.87-23.45,17.19-35.09a13,13,0,0,0,1.17-5.25q.3-26.84-.48-53.68c-22.83.94-45.53,5.94-68.36,8.22a205.41,205.41,0,0,1-20.82,1.06c.82,2.87,1.56,5.33,2.14,7.27a12.81,12.81,0,0,1-.68,9.17C481.18,766.21,441.8,822,410.36,877.89Z"/><path class="cls-20" d="M601.33,488.22c-.9-.13-1.8-.23-2.7-.32Zm21.54,5.91c1.1.47,2.41,1.55,1.82,2.59a22.6,22.6,0,0,1-8.08,1.92,62.71,62.71,0,0,1-12.52-.87c-5.18-.72-9.35-1.44-14.5-2.16l-.1.71c8.52,2.29,17,3.92,25.26,6.9a1.18,1.18,0,0,1-.1,2.25c-7.85,2.16-16.16,1.4-24.29-.7A115.21,115.21,0,0,1,575,499.51c-13.66-5.62-27.7-12.37-42.41-11.13l-.21,0a272,272,0,0,1,7.21-34.22q22.8.66,45.51,2.59,8.83.75,17.69,1.7c1.49.16,3.33.61,3.66,2.07s-1.16,2.7-2.52,3.39A29.33,29.33,0,0,1,592.22,467a70.13,70.13,0,0,1,16.16,3c6.48,1.88,12.87,4.36,19.19,6.54a12.15,12.15,0,0,1,3.36,1.62,2,2,0,0,1-.58,3.48,12,12,0,0,1-5,.21l-21.11-2.43a91.85,91.85,0,0,1,22.88,7.66c.86.41,1.86,1.31,1.36,2.13a1.72,1.72,0,0,1-1.15.61c-4.24.94-8.66.44-13-.07s-8.42-1-12.64-1.47A83.54,83.54,0,0,1,622.87,494.13Z"/><path class="cls-20" d="M818.93,360.76l-.45-.16-.24.07a146.83,146.83,0,0,1,14,36.24c10.91-7.83,23.39-13.83,35.47-19.65,6-2.88,11.11-6.54,16.63-10.24,9.84-6.61,18.37-15.57,22.06-26.83a1.3,1.3,0,0,0-1.83-1.55,41.42,41.42,0,0,0-11.48,8.88l-.06,0a90.62,90.62,0,0,0,11.84-17.37c.52-1,1-2.24.4-3.19-1-1.48-3.26-.53-4.64.56a84.11,84.11,0,0,0-7.7,6.92,55.47,55.47,0,0,1-6.56,7.41,82.49,82.49,0,0,1,6.56-7.41,48.39,48.39,0,0,0,6.29-11.55c.59-1.57.89-3.78-.61-4.53-1.29-.64-2.75.45-3.79,1.46q-9.82,9.71-18.66,20.36l-.29-.27a194.36,194.36,0,0,0,14.47-20.32c1.15-1.84,2.31-4,1.82-6.08-2-1-4.27.59-5.94,2.08l-31.41,28.15c2-3.4,4.1-5.95,6.16-9.43a6.84,6.84,0,0,0,1.11-2.8,2.31,2.31,0,0,0-1.38-2.44c-1-.31-2,.34-2.84,1-6.64,5.06-12.2,11.37-18.24,17.15S826.89,358.27,818.93,360.76Z"/><path class="cls-19" d="M565.5,354.35l-.29.16a172,172,0,0,0,20.11,29.16,1.75,1.75,0,0,0,3-.61,166.34,166.34,0,0,0,6.22-30.83l-.57,0A23.21,23.21,0,0,1,565.5,354.35Z"/><path class="cls-4" d="M587.75,389.7h.08c8.2-5.88,14.91-13.89,23.28-22.41a3.71,3.71,0,0,0,.87-2.07c0-1.06-9.09-6.2-12.3-9,4.11-2.19,9.24-6.44,13.37-8.63.62-.34,1.3-.76,1.46-1.45-4.5-2.81-14.56-5.23-19.07-8q-.15,7.08-.9,14.13a166.34,166.34,0,0,1-6.22,30.83,1.75,1.75,0,0,1-3,.61,172,172,0,0,1-20.11-29.16,135.19,135.19,0,0,1-8.27-18.34c-5.11,5.3-13.58,9.6-18.19,15.5a1.11,1.11,0,0,0,.42,1.72c7.78,3.34,16,5,24.33,6.52-1.85,2.53-5.75,9.15-7.6,11.68a1.64,1.64,0,0,0-.4.84c0,.73.84,1,1.46,1.38a306.56,306.56,0,0,0,30.77,15.9h0Z"/><path class="cls-4" d="M616.61,498.64a62.71,62.71,0,0,1-12.52-.87c-5.18-.72-9.35-1.44-14.5-2.16l-.1.71c8.52,2.29,17,3.92,25.26,6.9a1.18,1.18,0,0,1-.1,2.25c-7.85,2.16-16.16,1.4-24.29-.7l-.08.31c3.55,62.27,11.47,121.31,19.28,174.45l.59,0h.62a16.35,16.35,0,0,0,4.75-.69,15.86,15.86,0,0,1,6.77-.57,110,110,0,0,0,23.92.67c3-.24,6-.61,9-1.11A879.93,879.93,0,0,0,616.61,498.64Z"/><path class="cls-4" d="M608.38,470c.71-14,2.14-29.47,4.32-43.61,8.15-2.14,14.86-8.86,17.91-16.79,0-.1.07-.19.1-.29a570.48,570.48,0,0,0,97.85,53.14,7.18,7.18,0,0,0,6-.19,489.15,489.15,0,0,0,97.8-65.11,1.55,1.55,0,0,0-.05-.23,146.83,146.83,0,0,0-14-36.24c-17.58,5-76.12,27-88.73,31.82a5.23,5.23,0,0,1-4.62-.46c-23.52-14.63-51.74-31.81-75.44-45.49-8.06-4.66-16.41-9.36-25.63-10.59-8.28-1.1-19.15,0-28.38,2.15,4.51,2.8,14.57,5.22,19.07,8-.16.69-.84,1.11-1.46,1.45-4.13,2.19-9.26,6.44-13.37,8.63,3.21,2.82,12.3,8,12.3,9a3.71,3.71,0,0,1-.87,2.07c-8.15,8.52-15.08,16.53-23.28,22.41h-.08a215.45,215.45,0,0,0-2.59,66.36l0,.65q8.83.75,17.69,1.7c1.49.16,3.33.61,3.66,2.07s-1.16,2.7-2.52,3.39A29.33,29.33,0,0,1,592.22,467,70.13,70.13,0,0,1,608.38,470Z"/><path class="cls-4" d="M477,442.26a.2.2,0,0,0,.11.35l43.19,5.77c3-8.43,3.58-17.6,4.08-26.58q.79-13.94,1.58-27.84l-.34-.22C508.41,421.22,480.24,439,477,442.26Zm55.38,46.09q-.37,2.67-.71,5.34a175.56,175.56,0,0,1-32.25,3.47c-27.75.45-56.43-5.21-80-16.81a18.81,18.81,0,0,1-9.62-11.14,18.45,18.45,0,0,1-.91-5.65v-.1c.21-40.45,48.4-65.77,73.29-92.22,19-20.16,33.86-40.15,74.76-35.07-5.11,5.3-13.58,9.6-18.19,15.5a1.11,1.11,0,0,0,.42,1.72c7.78,3.34,16,5,24.33,6.52-1.85,2.53-5.75,9.15-7.6,11.68a1.64,1.64,0,0,0-.4.84c0,.73.84,1,1.46,1.38a306.56,306.56,0,0,0,30.77,15.9h0a215.45,215.45,0,0,0-2.59,66.36l0,.65q-22.71-1.94-45.51-2.59A272,272,0,0,0,532.39,488.35Z"/><path class="cls-4" d="M499.43,497.16A1011.26,1011.26,0,0,0,464.4,681c13.64,5.74,28.86,7.88,44.12,7.95a205.41,205.41,0,0,0,20.82-1.06c22.83-2.28,45.53-7.28,68.36-8.22,4-.16,7.9-.21,11.86-.09-7.81-53.14-15.73-112.18-19.28-174.45l.08-.31A115.21,115.21,0,0,1,575,499.51c-13.66-5.62-27.7-12.37-42.41-11.13l-.21,0q-.37,2.67-.71,5.34A175.56,175.56,0,0,1,499.43,497.16Z"/><path class="cls-21" d="M610.05,296.34c-.82,4.33-2,8.65-3.21,12.82-.82,2.86-1.76,5.9-3.64,8.13a26.57,26.57,0,0,0,10.32.9c4.42-.67,8.82-3.67,9.7-8.05.79-3.87-1.22-7.68-2.32-11.46-2.42-8.31-.48-17.27-1.83-25.82-2.69-17.05-19.63-30.16-36.89-29.9s-33.25,12.79-39,29c-.93,2.59-1.67,5.36-3.47,7.43-2.07,2.36-5.19,3.47-7.69,5.37-8.54,6.47-7.11,20.86.64,28.27s19.35,9.16,30,8.59l.39,0c.32-6.86.61-13.31,1.06-21.87l1.13-.26a7.63,7.63,0,0,1-7.31-7.89c.34-4.09,5.71-4.3,9.73-3.5,0,0,26-11,33.91-23.64a.78.78,0,0,1,1.34.15c1.38,2.68,5,6.59,5.82,8.66C611.83,280.58,611.55,288.48,610.05,296.34Z"/><path class="cls-20" d="M608.75,273.34c-.87-2.07-4.44-6-5.82-8.66a.78.78,0,0,0-1.34-.15c-8,12.68-33.91,23.64-33.91,23.64-4-.8-9.39-.59-9.73,3.5a7.63,7.63,0,0,0,7.31,7.89l-1.13.25c-.45,8.57-.74,15-1.06,21.88-.21,4.65-.44,9.48-.75,15.27q-2.76-.46-5.38-.79a135.19,135.19,0,0,0,8.27,18.34l.29-.16A23.21,23.21,0,0,0,594,352.2l.57,0q.75-7.05.9-14.13c-1.34.3-2.64.63-3.9,1-.77-5.94-1.25-11.9-1.5-17.87,4.29.46,8.61-.23,11.57-2.41a9.5,9.5,0,0,0,1.59-1.51c1.88-2.23,2.82-5.27,3.64-8.13,1.2-4.17,2.39-8.49,3.21-12.82C611.55,288.48,611.83,280.58,608.75,273.34Z"/><path class="cls-13" d="M499.43,497.16A1011.26,1011.26,0,0,0,464.4,681"/><path class="cls-13" d="M597.7,679.62q.78,26.83.48,53.68a13,13,0,0,1-1.17,5.25c-5.32,11.64-11.07,23.37-17.19,35.09"/><path class="cls-13" d="M655.24,677.86a879.93,879.93,0,0,0-38.63-179.22"/><path class="cls-13" d="M655.24,677.86c-3,.5-6,.87-9,1.11a110,110,0,0,1-23.92-.67,15.86,15.86,0,0,0-6.77.57,16.35,16.35,0,0,1-4.75.69h-.62c-4.15-.14-8.3-.1-12.45.07-22.83.94-45.53,5.94-68.36,8.22a205.41,205.41,0,0,1-20.82,1.06c-15.26-.07-30.48-2.21-44.12-7.95"/><path class="cls-13" d="M531.68,493.69a175.56,175.56,0,0,1-32.25,3.47c-27.75.45-56.43-5.21-80-16.81a18.81,18.81,0,0,1-9.62-11.14,18.45,18.45,0,0,1-.91-5.65v-.1c.21-40.45,48.4-65.77,73.29-92.22,19-20.16,33.86-40.15,74.76-35.07q2.63.33,5.38.79"/><path class="cls-13" d="M832.65,396.87a489.4,489.4,0,0,1-98.11,65.38,7.16,7.16,0,0,1-6,.19,569.82,569.82,0,0,1-97.86-53.14"/><path class="cls-13" d="M591.54,339.08c1.26-.35,2.56-.68,3.9-1,9.23-2.13,20.1-3.25,28.38-2.15,9.22,1.23,17.57,5.93,25.63,10.59,23.7,13.68,51.92,30.86,75.44,45.49a5.23,5.23,0,0,0,4.62.46c12.68-4.81,71.7-27.07,89-31.89"/><path class="cls-13" d="M564.13,299.82c-.76,14.36-1,22.79-1.81,37.14"/><path class="cls-13" d="M591.54,339.08c-.77-5.94-1.25-11.9-1.5-17.87"/><path class="cls-13" d="M636.07,375.77l-5.7,6.72"/><path class="cls-13" d="M526,394q-.79,13.92-1.58,27.84c-.5,9-1.06,18.15-4.08,26.58"/><path class="cls-13" d="M612.7,426.38c8.15-2.14,14.86-8.86,17.91-16.79,0-.1.07-.19.1-.29,3.22-8.63,2.54-18.37-.48-27.07"/><path class="cls-13" d="M612.7,426.38a443,443,0,0,0-4.35,44.17"/><path class="cls-13" d="M531.68,493.69a273,273,0,0,1,8.33-41,1.41,1.41,0,0,0-1.17-1.8l-61.72-8.25a.21.21,0,0,1-.12-.35c3.24-3.23,31.47-21.07,48.68-48.6"/><path class="cls-13" d="M591.64,467a29.23,29.23,0,0,0,12.3-3.15c1.36-.69,2.86-1.91,2.52-3.39s-2.17-1.91-3.66-2.07q-31.51-3.37-63.2-4.29"/><path class="cls-13" d="M590.55,467c12.72.21,25,5.43,37,9.59a12.17,12.17,0,0,1,3.35,1.6,2,2,0,0,1-.58,3.49,12,12,0,0,1-5,.21L595.5,478.4"/><path class="cls-13" d="M597.11,478.29a93,93,0,0,1,30,8.77c.86.42,1.87,1.32,1.37,2.14a1.68,1.68,0,0,1-1.14.61c-4.25.94-8.67.44-13-.07l-20.47-2.39"/><path class="cls-13" d="M594.43,487.58a83.29,83.29,0,0,1,28.44,6.55c1.1.47,2.41,1.55,1.82,2.59-6.34,2.92-13.69,2-20.6,1-5.25-.73-9.48-1.46-14.73-2.19"/><path class="cls-13" d="M589.48,496.32c8.53,2.29,17,3.91,25.27,6.9a1.18,1.18,0,0,1-.1,2.25c-12.91,3.54-27.06-.79-39.64-6-13.66-5.62-27.7-12.37-42.41-11.13"/><path class="cls-13" d="M818.93,360.76c8-2.49,14.71-7.86,20.74-13.63S851.26,335,857.91,330c.83-.63,1.84-1.27,2.84-1a2.33,2.33,0,0,1,1.39,2.44,6.9,6.9,0,0,1-1.12,2.79c-2.15,3.65-4.3,6.28-6.44,9.93"/><path class="cls-13" d="M854.09,344.38l32.18-28.84c1.67-1.5,4-3.09,6-2.08.48,2.12-.68,4.24-1.83,6.09a194.24,194.24,0,0,1-14.47,20.31"/><path class="cls-13" d="M876.21,340.13q8.82-10.63,18.67-20.36c1-1,2.49-2.1,3.78-1.46,1.5.75,1.2,3,.61,4.53-3.62,9.54-9.88,17-17.91,23.33"/><path class="cls-13" d="M885.08,343.53a87.17,87.17,0,0,1,15.59-16.06c1.39-1.1,3.68-2,4.65-.56.62.94.12,2.19-.4,3.19a90.89,90.89,0,0,1-17.29,23.13"/><path class="cls-13" d="M891.78,349.11a41.3,41.3,0,0,1,12.84-10.47,1.29,1.29,0,0,1,1.82,1.55c-3.68,11.26-12.21,20.22-22.05,26.82-5.52,3.71-10.65,7.37-16.64,10.25-12.62,6.09-25.69,12.36-36.94,20.72"/><path class="cls-13" d="M832.34,397.14a1.55,1.55,0,0,0-.05-.23,146.83,146.83,0,0,0-14-36.24"/><path class="cls-13" d="M567.69,288.17c-4-.8-9.41-.59-9.74,3.51a7.62,7.62,0,0,0,7.55,7.88"/><path class="cls-13" d="M577.74,315.81c5.1,5.52,17.58,7.64,23.87,3,3-2.22,4.2-6.06,5.23-9.65,1.93-6.73,4.23-12.76,4.85-19.74.85-9.46-1.75-18.76-9-24.94"/><path class="cls-13" d="M556.84,335.92c6.19,17.28,16.56,33.69,28.49,47.75a1.74,1.74,0,0,0,3-.62,166.63,166.63,0,0,0,7.12-45.12"/><path class="cls-13" d="M556.94,336.17c-5.11,5.3-13.58,9.6-18.19,15.5a1.12,1.12,0,0,0,.42,1.72c7.78,3.34,16,5,24.33,6.53-1.85,2.52-5.75,9.14-7.6,11.67a1.57,1.57,0,0,0-.4.84c0,.72,22.46,12.89,32.23,17.28"/><path class="cls-13" d="M595.44,338.1c4.5,2.8,14.57,5.23,19.07,8-.15.69-.84,1.11-1.47,1.44-4.11,2.2-9.25,6.45-13.37,8.64,3.21,2.83,12.31,8,12.32,9,0,.76-16,18.6-24.17,24.47"/><path class="cls-13" d="M587.76,389.66a216.07,216.07,0,0,0-2.61,66.41"/><path class="cls-13" d="M609.56,679.53c-7.81-53.14-15.73-112.18-19.28-174.45"/><path class="cls-13" d="M594,352.2a23.21,23.21,0,0,1-28.47,2.15"/><path class="cls-13" d="M564.65,290.07a2.49,2.49,0,0,0-1.2,4.84"/><path d="M607.27,291.11a1.5,1.5,0,0,0,0-3,1.5,1.5,0,0,0,0,3Z"/><path d="M591.47,290.51a1.5,1.5,0,0,0,0-3,1.5,1.5,0,0,0,0,3Z"/><path class="cls-13" d="M593.58,283.94a6.91,6.91,0,0,0-7,1.1"/><path class="cls-13" d="M604.26,284.41a4.31,4.31,0,0,1,5.38,1.16"/><path class="cls-13" d="M601.43,284.69l2,7.37c.42,1.56.82,3.26.18,4.74s-4.83,2.32-5.9,1.11"/><path class="cls-13" d="M585.75,305a5.75,5.75,0,0,0,5.34,3.3"/></g><g id="nurse"><path class="cls-4" d="M1543.42,486.26c-9.13,1.18-18.58,1.73-27.41-.89a19.09,19.09,0,0,1-8.79-4.92,8.68,8.68,0,0,0-2.69-2.41,6.59,6.59,0,0,0-2.42-.36l-13.72-.26c-2.13,0-4.34.36-6.45.1-1.52-.18-3.78-1.58-5.21-.94a2.81,2.81,0,0,0-1.1,1.14,401.24,401.24,0,0,0-22.74,39.66c-22.8,45.17-38.52,93.48-49.44,142.82a3.26,3.26,0,0,0,.13,2.5,3.33,3.33,0,0,0,1.93,1.08c34.08,10.35,61.56,15.05,92.92,17.1,15.73,1,31.5.4,47.26.28,3.83,0,44.72-2.49,44.72-2.49a585.08,585.08,0,0,0,6.51-93c-.29-29.57-1-60.65-7.9-89.48a6.74,6.74,0,0,0-1.15-2.8,6.38,6.38,0,0,0-2.82-1.68c-7.18-2.63-14.94-1.5-21.94-3.94S1550.87,485.29,1543.42,486.26Z"/><path class="cls-4" d="M1491.88,382.6c-29.88,11.68-56.82,21.22-87.86,29.12a4.94,4.94,0,0,1-2.67,0c-4.92-1.36-9.09-4.76-13-8.08a801.27,801.27,0,0,1-83.64-82c.76-.9,1.52-1.8,2.25-2.72,1-1.17,1.92-2.37,2.84-3.58a172.11,172.11,0,0,0,12.08-17.78c.34-.53.64-1.06,1-1.6,28.27,22.44,57.4,41.15,90.54,55.47,22.54-8.05,41.12-17.06,64.31-23,11.65-3,23.7-6.61,35.64-8.21,10.66-1.43,17,3.85,32,8.63-2,6-4.13,12.13-5.83,17.08-3.46,11.64,21.3,11.43,28.15,9.07l2.31-2.17c.29-4.09.57-10.79.93-18A216.9,216.9,0,0,1,1614,352.57a30.68,30.68,0,0,1,13,13.59q14.73,30.19,28.68,60.76c5.44,11.95,10.77,24,15.77,36.1,3.46,8.38,8.2,16.82,9.06,26,1.22,13.12-5.94,13.3-17.13,15.25-16.14,2.82-46.11-1.19-70.41-5.88-10.43-2-19.8-4.18-26.61-6l.12-2.9q.54-14.43,1.1-28.85l1.24,0h.06c3.2-.13,11.6-.51,16.23-.93l.35,0c4-.38,22.57-.22,36.7.12-11.31-17.38-24.5-45.85-32.07-63.54a.75.75,0,0,0-1.41.12c-5.84,20.11-7.68,41.84-5.18,59.08l-.24,0a80.56,80.56,0,0,1-26.15,3.85l0,.22a154.86,154.86,0,0,1-44.26-12.7c-2.69-1.23-6-2.44-8.74-1.9a2.16,2.16,0,0,0-1.09,3.63,18.15,18.15,0,0,0,9.79,5.09v0a64.35,64.35,0,0,0-17.25-1c1.86-2.37,3.74-4.61,5.59-6.71l-.43.44c-.48-7.18-.93-19.45-1.4-26.62-6.81-1.13-11.21-8.14-12.35-15A30.93,30.93,0,0,1,1491.88,382.6Z"/><path class="cls-16" d="M1659.55,965.31c.08.39.15.79.22,1.18.77,4.57-72.18,36.7-88.57,44.69a2.7,2.7,0,0,1-3.8-3.06,136.21,136.21,0,0,1,22.54-48.43c2-2.7,4.09-5.35,6-8.12-2.78-7.33-5.53-15.7-8.28-23,.55,1.47,31.06-14,33.64-15.33,3.57-1.79,14.38-6.39,14.38-6.39S1656.78,950.82,1659.55,965.31Z"/><path class="cls-22" d="M1548.29,681.63c-6,1-12.55.38-18-.2-2.09,4.24-4.14,8.53-6.11,13-1.19,2.66-2.81,6.61-2.75,9.52.87,43.37,3.54,87.45,6.62,131.44,16.14,32.78,33.16,65.66,49,98.61q5.31-2.24,10.57-4.34c16.14-6.56,32-12.84,48.28-21.74l2.49-1.37C1609.3,832.71,1577.39,755.41,1548.29,681.63Z"/><path class="cls-21" d="M1534.79,291.3c-1.93,6.44-2.44,13,.11,19.58a13.85,13.85,0,0,0,7.39,7.52l-.33.75c-7.88,2.78-17.51-2.4-22.2-9.34-2-3-3.09-6-1.16-9a21.69,21.69,0,0,1,2.91-3.16c4.91-5.12,5.3-12.9,7.27-19.71,4.29-14.77,18.26-26.61,33.63-27s30.53,11.62,32.33,26.9c1.15,9.68-.12,18.25,4.94,27.13,2,3.44,4.62,7.14,3.58,11a8.51,8.51,0,0,1-5.46,5.35c-8.21,3-17.78,4-26.29,1.64.42-6.91.93-13.24,1.58-17.13,3.39-1,6.94-2.27,8.94-5.46a5.76,5.76,0,0,0,.39-5.8c-1.61-2.94-5.11-1-8.36-.53a4.38,4.38,0,0,1-3.31-.86c-8.35-6.32-22.89-15.77-25.37-24.86C1541.79,275.46,1537.19,283.27,1534.79,291.3Z"/><path class="cls-16" d="M1589.87,315.46l0,0c-7.79,5.19-13.44-1.73-16.95-8.45-.55,3.92-1,9.62-1.38,15.8,8.51,2.34,18.08,1.38,26.29-1.64a10,10,0,0,0,3.71-2.39,20.59,20.59,0,0,1-7.07-3.65A3.38,3.38,0,0,0,1589.87,315.46Z"/><path class="cls-16" d="M1537.73,315.22a17.4,17.4,0,0,1-13.24-5.56,28.1,28.1,0,0,1-5.76-9.07c0,.06-.09.11-.13.18-1.93,3-.85,6.06,1.16,9,4.69,6.94,14.32,12.12,22.2,9.34l.33-.75A14.41,14.41,0,0,1,1537.73,315.22Z"/><path class="cls-19" d="M1503.79,479.07l0-.38h-.32c0,.15-.09.3-.13.45Z"/><path class="cls-19" d="M1522.52,703.9a19.75,19.75,0,0,1,1.7-8.47c2.12-4.73,6.08-8.54,7.2-13.77-6.67-1-13.8-.36-20.56-.55q-11.46-.32-22.89-1.23a433,433,0,0,1-44.24-5.75c-.45-.09-3,9.42-3.16,10.15a30.48,30.48,0,0,0-.87,9.7c2,28.6,12.54,174.44,24.93,252.6l10.55-.69q10.47-.67,20.93-1.38c9.68-.64,19.45-1.29,29-2.84,3.84-.61,7.66-1.36,11.41-2.33-2.26-34.36-5-69.16-7.39-104C1526.06,791.35,1523.39,747.27,1522.52,703.9Z"/><path class="cls-4" d="M1583.45,455.61c.56,1.35,1.08,2.72,1.59,4.09-4.63.42-13,.8-16.23.93h-.06q-5.88-.31-11.74-1.08l0-.22a80.56,80.56,0,0,0,26.15-3.85l.24,0A1,1,0,0,0,1583.45,455.61Z"/><path class="cls-12" d="M1562.51,315.49a32.62,32.62,0,0,1-15.4,4.14c.37,0,.75.08,1.13.09v.54l-1.89,5.55C1553.28,326.38,1560.35,323.39,1562.51,315.49Z"/><path class="cls-20" d="M1582.42,294.45c-1.61-2.94-5.11-1-8.36-.53a4.38,4.38,0,0,1-3.31-.86c-8.35-6.32-22.89-15.77-25.37-24.86-3.59,7.26-8.19,15.07-10.59,23.1-.07.2-.12.41-.18.62l-.08,0c-.39-.12-.8,2.88-1.07,5.41-.13.91-.21,1.82-.26,2.74,0,.29,0,.5,0,.58v.28a25.72,25.72,0,0,0,1.73,10,13,13,0,0,0,1.17,2.29,14.83,14.83,0,0,0,1.21,1.56,12.87,12.87,0,0,0,1.43,1.43,13.37,13.37,0,0,0,1.1.85,14.54,14.54,0,0,0,2.48,1.39,15.88,15.88,0,0,0,6,1.32v.19h0v.35c-.92,2.7-1.92,5.62-2.93,8.6-2,6-4.13,12.13-5.83,17.08-3.46,11.64,21.3,11.43,28.15,9.07l2.31-2.17c.29-4.09.57-10.79.93-18,.2-3.95.41-8.06.65-12,.42-6.91.93-13.24,1.58-17.13,3.39-1,6.94-2.27,8.94-5.46A5.76,5.76,0,0,0,1582.42,294.45Z"/><path class="cls-12" d="M1561.55,315.65a21.62,21.62,0,0,1-13.32,3.53v.08c-.55,1.62-1.13,4.32-1.73,6.06C1552.7,326,1558.89,323,1561.55,315.65Z"/><path class="cls-20" d="M1483.77,469.31c-3.07,0-6.26,0-9.09-1.22-.47-.21-1-.53-1-1a1.4,1.4,0,0,1,.47-.95c2.87-3,7.44-3.6,11.6-4,1-.09,2-.15,3-.19,5.4-.27,10.8,0,16.2-.49l0-.07c-4.89-1.25-10.09-.6-15.15-.29l-.51,0a31.26,31.26,0,0,1-11-1,2,2,0,0,1,0-3.68,65.28,65.28,0,0,1,34.54-2.78v0a18.15,18.15,0,0,1-9.79-5.09A2.16,2.16,0,0,1,1504,445c2.71-.54,6,.67,8.74,1.9a154.86,154.86,0,0,0,44.26,12.7q5.85.76,11.74,1.08l-1.24,0q-.54,14.43-1.1,28.85c-25-3.55-50.62,1.19-75.57-2.65a18.77,18.77,0,0,1-4.25-1.06,1.86,1.86,0,0,1,.29-3.52,131.29,131.29,0,0,1,16.91-3.22l0-.38-13-.33a49.15,49.15,0,0,1-11.06-1.14c-.59-.15-1.17-.31-1.74-.51-1.11-.39-2.43-1.49-1.81-2.48a2.05,2.05,0,0,1,1.37-.76c3.45-.85,6.94-1.56,10.43-2.2,1.59-.29,3.2-.65,4.79-.87a30.82,30.82,0,0,1,4.23-.7l-11.9-.37Z"/><path class="cls-16" d="M1474.09,972.08c.36-7.81.73-17.74,1.09-26.19q10.47-.67,20.93-1.38c9.68-.64,19.45-1.29,29-2.84,1.19,23.89,2.12,45.79,2.77,69.61a1.91,1.91,0,0,1-1.76,2c-36.32,2.7-74.8,6.39-106.14,6.79a2.55,2.55,0,0,1-2.06-4.09c12.79-17.21,33.68-31.67,55.83-43.87Z"/><path class="cls-20" d="M1273.46,256.33a16.2,16.2,0,0,1,9.43.19,17.59,17.59,0,0,1,5.48,3.71c8.7,7.86,13.09,19.69,21.49,27,4,3.45,8,6.91,12,10.37a172.11,172.11,0,0,1-12.08,17.78c-7-7.66-11.7-13-21.6-23.18l-.79-.06c-3.34-.29-7.76-2.74-10.92-3.83a16.35,16.35,0,0,1-6.35-3.85,1.91,1.91,0,0,1,1.05-3.21,66.51,66.51,0,0,1,12.32-.65l.47-.79c-1.77-2.9-3.6-5.86-6.32-7.92s-4.07-3.06-7.43-2.55c-.14,0-12.27,8.5-13.09,9.28-2.79,2.64-3.07-1-3.26-2.72-.53.26-2,.82-2.54.28a1.33,1.33,0,0,1-.25-.92c0-2.71,1.64-5.14,3.43-7.18C1258.53,263.45,1266.12,258.1,1273.46,256.33Z"/><path d="M1540.21,288a1.5,1.5,0,0,0,0-3,1.5,1.5,0,0,0,0,3Z"/><path d="M1556.11,291.19a1.5,1.5,0,0,0,0-3,1.5,1.5,0,0,0,0,3Z"/><path class="cls-4" d="M1482.47,469.55a.75.75,0,0,0-.44.12.67.67,0,0,0-.2.43l-.47,2.19c4.71-.77,9.68-1.2,14.29-2.38-1.19-1.36-3.83-.54-5.43-.53C1487.64,469.4,1485.06,469.45,1482.47,469.55Z"/><path class="cls-13" d="M1585,459.7c-.51-1.37-1-2.74-1.59-4.09"/><path class="cls-13" d="M1548.23,320.26c-2.77,8.11-6.22,18.26-8.76,25.68-3.31,11.12,19.16,11.43,27.13,9.37a4.07,4.07,0,0,0,1.72-1h0a5.54,5.54,0,0,0,1.75-3.73c.39-6.76.83-17.86,1.44-27.78.42-6.91.93-13.24,1.58-17.13"/><path class="cls-13" d="M1561.64,314.94c-13.63,9.21-23.73,3.63-26.74-4.06-5.74-14.7,4-29.57,10.49-42.68"/><path class="cls-13" d="M1574.06,293.92c3.25-.48,6.76-2.42,8.36.53a5.8,5.8,0,0,1-.39,5.81c-2,3.18-5.55,4.4-9,5.45"/><path class="cls-13" d="M1583.63,456.81c-2.8-17.46-1-39.81,5-60.44a.75.75,0,0,1,1.41-.12c7.57,17.69,20.76,46.16,32.07,63.54"/><path class="cls-13" d="M1566.29,492.42c6.81,1.79,16.18,3.95,26.61,6,24.3,4.69,54.27,8.7,70.41,5.88,11.19-1.95,18.35-2.13,17.13-15.25-.86-9.18-5.6-17.62-9.06-26-5-12.14-10.33-24.15-15.77-36.1q-13.89-30.6-28.68-60.76a30.68,30.68,0,0,0-13-13.59,216.9,216.9,0,0,0-43.11-17.75"/><path class="cls-13" d="M1413.36,351.43c22.54-8.05,41.12-17.06,64.3-23,11.65-3,23.71-6.62,35.65-8.21,10.73-1.44,16,3.92,31.23,8.72"/><path class="cls-13" d="M1489.23,461.13c-.19.26-.37.53-.56.81"/><path class="cls-13" d="M1499.22,419.85c.47,7.17.92,19.44,1.4,26.62l.43-.44c-1.85,2.1-3.73,4.34-5.59,6.71"/><path class="cls-13" d="M1487.91,362.56c2.23,4.76,4.35,11.62,7.37,15.93"/><path class="cls-13" d="M1495.28,378.49a30.83,30.83,0,0,0-8.41,26.41c1.14,6.81,5.54,13.82,12.35,15"/><path class="cls-13" d="M1566.29,492.42l.12-2.9q.54-14.43,1.1-28.85l1.24,0c3.18-.13,11.64-.51,16.29-.93l.35,0c4-.38,22.57-.22,36.7.12,3.4.09,6.55.17,9.18.26"/><path class="cls-13" d="M1569.2,460.66a154.57,154.57,0,0,1-56.45-13.81c-2.69-1.23-6-2.44-8.73-1.9a2.17,2.17,0,0,0-1.1,3.64,18.09,18.09,0,0,0,11.63,5.3"/><path class="cls-13" d="M1505.89,461.66c-5.18-1.63-10.74-.9-16.15-.57l-.51,0a31.26,31.26,0,0,1-11-1,2,2,0,0,1,0-3.68,65.06,65.06,0,0,1,38.52-1.87"/><path class="cls-13" d="M1504.87,469.33l-18.46.23-2.6,0a23.62,23.62,0,0,1-9.13-1.49c-.47-.21-1-.53-1-1a1.4,1.4,0,0,1,.47-.95c2.87-3,7.44-3.6,11.6-4,1-.09,2-.15,3-.19,5.4-.27,10.8,0,16.2-.49"/><path class="cls-13" d="M1503.75,478.69l-13-.33a49.15,49.15,0,0,1-11.06-1.14c-.59-.15-1.17-.31-1.74-.51-1.11-.39-2.43-1.49-1.81-2.48a2.05,2.05,0,0,1,1.37-.76c1.56-.39,3.11-.75,4.69-1.07a119.29,119.29,0,0,1,22.71-2.51"/><path class="cls-13" d="M1503.79,479.08a129.58,129.58,0,0,0-16.91,3.21,1.87,1.87,0,0,0-.29,3.52,18.77,18.77,0,0,0,4.25,1.06c25,3.85,50.74-.93,75.8,2.68"/><path class="cls-13" d="M1583.19,455.48a80.29,80.29,0,0,1-26.15,3.85"/><path class="cls-13" d="M1304.69,321.64a801.27,801.27,0,0,0,83.64,82c3.93,3.32,8.11,6.72,13,8.08a5.29,5.29,0,0,0,2.68,0c31.21-8,58.29-17.57,88.38-29.33"/><path class="cls-13" d="M1322.82,296c28.27,22.44,57.4,41.15,90.54,55.47"/><path class="cls-13" d="M1322.82,296c-.32.54-.62,1.07-1,1.6a172.34,172.34,0,0,1-14.92,21.36c-.73.92-1.49,1.82-2.25,2.72"/><path class="cls-13" d="M1322,297.69l-.15-.13c-4-3.46-8-6.92-12-10.37-9.07-7.86-13.47-21-23.68-28.78a13.14,13.14,0,0,0-3.29-1.89c-7.49-2.77-14,3-19.27,7.38-3.47,2.86-8.14,9.09-9.56,13.35a2.06,2.06,0,0,0-.11,1.27c.38,1.22,2.26.94,3.17.06s13-9.26,13.09-9.28c3.36-.52,4.73.49,7.44,2.55,2,1.52,4.25,5.58,5.27,7.57a.77.77,0,0,1-.69,1.12,62.16,62.16,0,0,0-11.06.67,1.91,1.91,0,0,0-1.05,3.21,16.35,16.35,0,0,0,6.35,3.85c3.16,1.09,7.58,3.54,10.92,3.83l.79.06c9.91,10.14,14.59,15.51,21.6,23.18"/><path class="cls-13" d="M1274.12,256.85c-11.66,3-15.33,6.66-18.84,10.59-1.73,1.95-3.5,4.18-4.18,6.61a2,2,0,0,0,2.64,2.45"/><path class="cls-13" d="M1576.21,296.55a4.6,4.6,0,0,1,1.71-.36,1.56,1.56,0,0,1,1.41.89,1.93,1.93,0,0,1-.22,1.51,5.84,5.84,0,0,1-1.86,2.18"/><path class="cls-13" d="M1554.81,285a5.2,5.2,0,0,1,5.71,2.15"/><path class="cls-13" d="M1543.47,282.6a3.43,3.43,0,0,0-4.48-.43"/><path class="cls-23" d="M1417.51,1016.83q47.49-4.8,94.71-11.81c5.18-.77,10.54-1.64,15.37-3.53"/><circle class="cls-10" cx="1576.92" cy="302.55" r="1.96"/><path class="cls-23" d="M1568,1005.88c30.92-13.74,61.88-28,90-46.5"/><path class="cls-13" d="M1546,286.22a15.64,15.64,0,0,1-5.26,7.75c-.72.57-1.59,1.27-1.48,2.18.15,1.28,3.9,2.51,5.18,2.39"/><path class="cls-13" d="M1542.47,307.26a18.65,18.65,0,0,0,6.89-.73"/><path class="cls-13" d="M1589.43,497.71c10,59.59,10.89,121.43,1.63,180.56"/><path class="cls-13" d="M1402.53,662.59c7.94-36.53,18.45-72.53,33-107,11.5-27.26,25.14-54.64,41.13-79.51"/><path class="cls-13" d="M1402.53,662.59a295.38,295.38,0,0,0,39.85,11.13h0l.83.17c28,5.76,57.63,8.14,86.86,8h.41q8.91,0,17.76-.38c14.53-.55,28.88-1.68,42.81-3.27"/><path class="cls-13" d="M1513.39,488.79c-21.79,63.83-40.74,143.14-48.76,173.8"/><path class="cls-13" d="M1535.34,377.25c-10.8,28.4-7.55,45.66-9.8,67.57"/><path class="cls-13" d="M1477.89,473l2.57-3.07"/></g></svg>