<svg xmlns="http://www.w3.org/2000/svg" viewBox="0 0 1920 1080"><defs><style>.cls-1{fill:#f7f8fa;}.cls-14,.cls-2{fill:#fff;}.cls-17,.cls-2{stroke:#31434d;}.cls-15,.cls-16,.cls-17,.cls-18,.cls-2,.cls-24,.cls-6,.cls-7{stroke-linecap:round;}.cls-15,.cls-16,.cls-17,.cls-18,.cls-2,.cls-22,.cls-23,.cls-24,.cls-6,.cls-7{stroke-miterlimit:10;}.cls-3{fill:#7b176e;}.cls-4{fill:#53bcf7;}.cls-5{fill:#f6a001;}.cls-15,.cls-16,.cls-17,.cls-18,.cls-22,.cls-23,.cls-24,.cls-6,.cls-7{fill:none;}.cls-6{stroke:#f6a001;stroke-width:4px;}.cls-18,.cls-7{stroke:#fff;}.cls-8{fill:#276ce4;}.cls-9{fill:#09102d;}.cls-10{fill:#225dc4;}.cls-11{fill:#052251;}.cls-12{fill:#ffe1cf;}.cls-13{fill:#31434d;}.cls-15{stroke:#0c2c7a;}.cls-15,.cls-18,.cls-23{stroke-width:2px;}.cls-16{stroke:#0f379a;}.cls-19{fill:#0f379a;}.cls-20{fill:#ff1d25;}.cls-21{fill:#0c2c7a;}.cls-22{stroke:#7b176e;}.cls-23{stroke:#b2d3f7;}.cls-24{stroke:#464646;}</style></defs><title>2019-nCov20</title><g id="background"><ellipse class="cls-1" cx="1006.16" cy="491.58" rx="422.71" ry="388.68"/><circle class="cls-1" cx="1643" cy="699.53" r="94.8"/><circle class="cls-1" cx="1547.48" cy="419.47" r="37.75"/><circle class="cls-1" cx="1676.47" cy="317.39" r="26.55"/><circle class="cls-1" cx="437.11" cy="208.87" r="148.24"/><circle class="cls-1" cx="485.69" cy="794.33" r="81.82"/><rect class="cls-2" x="533.89" y="182.63" width="45.3" height="145.45"/><rect class="cls-3" x="517.66" y="585.62" width="55.01" height="34.1"/><rect class="cls-2" x="386.05" y="743.65" width="174.74" height="60.96"/><rect class="cls-2" x="267.91" y="386.56" width="41.92" height="142.18"/><rect class="cls-3" x="1613.12" y="730.94" width="25.42" height="25.42"/><rect class="cls-2" x="1667.29" y="427.92" width="107.97" height="107.97"/><rect class="cls-2" x="1421.43" y="219.81" width="107.97" height="107.97"/><rect class="cls-2" x="1428.87" y="680.46" width="46.55" height="46.55"/><rect class="cls-4" x="1512.13" y="464.39" width="34.6" height="34.6"/><circle class="cls-5" cx="1629.49" cy="165.8" r="26.39"/><line class="cls-6" x1="1625.51" y1="183" x2="1625.83" y2="208.87"/><line class="cls-6" x1="1594.06" y1="140.19" x2="1614.92" y2="153.31"/><line class="cls-6" x1="1641.28" y1="152.5" x2="1654.99" y2="128.08"/><line class="cls-6" x1="1610.07" y1="173.29" x2="1592.49" y2="175.07"/><line class="cls-6" x1="1632.02" y1="125.86" x2="1630.48" y2="157.66"/><polyline class="cls-6" points="1658.36 147.35 1641.95 162.73 1672.34 162.21"/><line class="cls-6" x1="1616.83" y1="177.54" x2="1604.32" y2="195.35"/><line class="cls-6" x1="1632.6" y1="175.22" x2="1641.63" y2="197.4"/><line class="cls-6" x1="1639.04" y1="171.8" x2="1661.36" y2="186.89"/><path class="cls-6" d="M1597.85,157.3c7.37,1.19,8.19,2.55,15.56,3.74"/><path class="cls-6" d="M1613.56,137.3c2.39,6.22,5.17,8.4,7.55,14.63"/><circle class="cls-5" cx="1674.14" cy="161.96" r="6.8"/><circle class="cls-5" cx="1594.06" cy="140.19" r="6.8"/><circle class="cls-5" cx="1661.4" cy="144.97" r="6.8"/><circle class="cls-5" cx="1612.33" cy="134.29" r="6.8"/><circle class="cls-5" cx="1632.51" cy="128.06" r="6.8"/><circle class="cls-5" cx="1594.92" cy="155.46" r="6.8"/><circle class="cls-5" cx="1655.68" cy="126.44" r="6.8"/><circle class="cls-5" cx="1604.01" cy="195.85" r="6.8"/><circle class="cls-5" cx="1590.77" cy="174.83" r="6.8"/><circle class="cls-5" cx="1643" cy="200.41" r="6.8"/><circle class="cls-5" cx="1665.04" cy="189.21" r="6.8"/><circle class="cls-5" cx="1625.51" cy="209.38" r="6.8"/><circle class="cls-7" cx="1621.99" cy="160.25" r="6.96"/><circle class="cls-7" cx="1640.58" cy="161.14" r="2.26"/><circle class="cls-7" cx="1632.05" cy="175.77" r="3.96"/><circle class="cls-5" cx="317.52" cy="607.65" r="23.02"/><line class="cls-6" x1="314.04" y1="622.65" x2="314.33" y2="645.22"/><line class="cls-6" x1="286.61" y1="585.31" x2="304.81" y2="596.75"/><line class="cls-6" x1="327.81" y1="596.04" x2="339.76" y2="574.74"/><line class="cls-6" x1="300.58" y1="614.18" x2="285.24" y2="615.74"/><line class="cls-6" x1="319.73" y1="572.81" x2="318.38" y2="600.55"/><polyline class="cls-6" points="342.7 591.55 328.39 604.97 354.9 604.52"/><line class="cls-6" x1="306.48" y1="617.89" x2="295.56" y2="633.43"/><line class="cls-6" x1="320.23" y1="615.86" x2="328.11" y2="635.22"/><line class="cls-6" x1="325.85" y1="612.89" x2="345.32" y2="626.05"/><path class="cls-6" d="M289.92,600.23c6.43,1,7.14,2.23,13.57,3.26"/><path class="cls-6" d="M303.62,582.78c2.08,5.43,4.51,7.34,6.59,12.77"/><circle class="cls-5" cx="356.47" cy="604.3" r="5.93"/><circle class="cls-5" cx="286.61" cy="585.31" r="5.93"/><circle class="cls-5" cx="345.36" cy="589.48" r="5.93"/><circle class="cls-5" cx="302.55" cy="580.16" r="5.93"/><circle class="cls-5" cx="320.15" cy="574.72" r="5.93"/><circle class="cls-5" cx="287.36" cy="598.62" r="5.93"/><circle class="cls-5" cx="340.36" cy="573.31" r="5.93"/><circle class="cls-5" cx="295.29" cy="633.87" r="5.93"/><circle class="cls-5" cx="283.74" cy="615.52" r="5.93"/><circle class="cls-5" cx="329.3" cy="637.84" r="5.93"/><circle class="cls-5" cx="348.53" cy="628.07" r="5.93"/><circle class="cls-5" cx="314.05" cy="645.66" r="5.93"/><circle class="cls-7" cx="310.97" cy="602.8" r="6.07"/><circle class="cls-7" cx="327.2" cy="603.59" r="1.97"/><circle class="cls-7" cx="319.76" cy="616.34" r="3.46"/><circle class="cls-5" cx="688.72" cy="145.68" r="20.94"/><line class="cls-6" x1="685.56" y1="159.33" x2="685.82" y2="179.87"/><line class="cls-6" x1="660.6" y1="125.36" x2="677.16" y2="135.77"/><line class="cls-6" x1="698.08" y1="135.12" x2="708.96" y2="115.74"/><line class="cls-6" x1="673.31" y1="151.63" x2="659.36" y2="153.04"/><line class="cls-6" x1="690.73" y1="113.98" x2="689.51" y2="139.22"/><polyline class="cls-6" points="711.64 131.04 698.62 143.24 722.74 142.83"/><line class="cls-6" x1="678.68" y1="155" x2="668.75" y2="169.13"/><line class="cls-6" x1="691.2" y1="153.15" x2="698.36" y2="170.76"/><line class="cls-6" x1="696.31" y1="150.44" x2="714.02" y2="162.42"/><path class="cls-6" d="M663.61,138.93c5.85.95,6.5,2,12.35,3"/><path class="cls-6" d="M676.08,123.06c1.89,4.94,4.1,6.67,6,11.61"/><circle class="cls-5" cx="724.17" cy="142.63" r="5.4"/><circle class="cls-5" cx="660.6" cy="125.36" r="5.4"/><circle class="cls-5" cx="714.05" cy="129.15" r="5.4"/><circle class="cls-5" cx="675.1" cy="120.67" r="5.4"/><circle class="cls-5" cx="691.12" cy="115.72" r="5.4"/><circle class="cls-5" cx="661.29" cy="137.47" r="5.4"/><circle class="cls-5" cx="709.51" cy="114.44" r="5.4"/><circle class="cls-5" cx="668.5" cy="169.53" r="5.4"/><circle class="cls-5" cx="657.99" cy="152.85" r="5.4"/><circle class="cls-5" cx="699.44" cy="173.15" r="5.4"/><circle class="cls-5" cx="716.94" cy="164.26" r="5.4"/><circle class="cls-5" cx="685.57" cy="180.27" r="5.4"/><circle class="cls-7" cx="682.77" cy="141.27" r="5.52"/><circle class="cls-7" cx="697.53" cy="141.98" r="1.8"/><circle class="cls-7" cx="690.76" cy="153.59" r="3.15"/><circle class="cls-5" cx="1529.6" cy="846.69" r="24.34"/><line class="cls-6" x1="1525.92" y1="862.56" x2="1526.22" y2="886.43"/><line class="cls-6" x1="1496.91" y1="823.07" x2="1516.16" y2="835.18"/><line class="cls-6" x1="1540.48" y1="834.42" x2="1553.12" y2="811.9"/><line class="cls-6" x1="1511.69" y1="853.61" x2="1495.47" y2="855.25"/><line class="cls-6" x1="1531.93" y1="809.85" x2="1530.51" y2="839.19"/><polyline class="cls-6" points="1556.23 829.68 1541.1 843.87 1569.13 843.39"/><line class="cls-6" x1="1517.92" y1="857.53" x2="1506.38" y2="873.96"/><line class="cls-6" x1="1532.47" y1="855.39" x2="1540.8" y2="875.85"/><line class="cls-6" x1="1538.41" y1="852.24" x2="1559" y2="866.15"/><path class="cls-6" d="M1500.41,838.86c6.8,1.09,7.56,2.35,14.36,3.44"/><path class="cls-6" d="M1514.91,820.4c2.2,5.75,4.76,7.76,7,13.5"/><circle class="cls-5" cx="1570.79" cy="843.15" r="6.27"/><circle class="cls-5" cx="1496.91" cy="823.07" r="6.27"/><circle class="cls-5" cx="1559.04" cy="827.48" r="6.27"/><circle class="cls-5" cx="1513.77" cy="817.63" r="6.27"/><circle class="cls-5" cx="1532.38" cy="811.88" r="6.27"/><circle class="cls-5" cx="1497.71" cy="837.15" r="6.27"/><circle class="cls-5" cx="1553.76" cy="810.39" r="6.27"/><circle class="cls-5" cx="1506.09" cy="874.42" r="6.27"/><circle class="cls-5" cx="1493.88" cy="855.03" r="6.27"/><circle class="cls-5" cx="1542.06" cy="878.62" r="6.27"/><circle class="cls-5" cx="1562.39" cy="868.29" r="6.27"/><circle class="cls-5" cx="1525.93" cy="886.89" r="6.27"/><circle class="cls-7" cx="1522.68" cy="841.57" r="6.42"/><circle class="cls-7" cx="1539.83" cy="842.4" r="2.09"/><circle class="cls-7" cx="1531.96" cy="855.89" r="3.66"/><circle class="cls-2" cx="1373.31" cy="121.06" r="18.16"/><circle class="cls-2" cx="487.42" cy="413.92" r="14"/><circle class="cls-2" cx="517.66" cy="81.31" r="10.34"/><circle class="cls-2" cx="1507.99" cy="68.8" r="8.17"/><circle class="cls-2" cx="1720.41" cy="614.14" r="17.39"/><circle class="cls-2" cx="217.57" cy="755.31" r="18.82"/><circle class="cls-2" cx="1703.54" cy="849.75" r="22.6"/><circle class="cls-2" cx="608.56" cy="711.58" r="12.86"/></g><g id="nurse"><rect class="cls-4" x="991.33" y="289.96" width="6.09" height="11.37" transform="translate(1682.21 1072.23) rotate(-148.09)"/><path class="cls-8" d="M1000,292.43l9.36-1c2.13-.22,4.28,2.12,3.35,3.63l-11.31,18.16c-1,1.57-4.21.5-4.79-1.59L994,302.08"/><path class="cls-8" d="M781.81,392c27.83,10.88,52.93,19.77,81.84,27.13a4.64,4.64,0,0,0,2.48,0c4.59-1.27,8.47-4.44,12.14-7.53a746,746,0,0,0,77.9-76.37q-1.06-1.24-2.1-2.52c-.9-1.1-1.78-2.22-2.64-3.34a161.26,161.26,0,0,1-11.25-16.56c-.32-.5-.6-1-.89-1.49C913,332.18,885.82,349.61,855,363c-21-7.5-38.3-15.9-59.9-21.42-10.85-2.77-22.09-6.16-33.2-7.65-9.93-1.33-15.85,3.59-29.8,8,1.9,5.55,3.85,11.3,5.42,15.92,3.24,10.84-19.84,10.64-26.21,8.44l-2.16-2c-.26-3.81-.52-10.05-.86-16.79A202.62,202.62,0,0,0,668.08,364,28.53,28.53,0,0,0,656,376.67q-13.72,28.13-26.72,56.59c-5.06,11.14-10,22.32-14.69,33.63-3.22,7.8-7.64,15.67-8.43,24.22-1.14,12.22,5.53,12.39,16,14.21,15,2.62,43-1.11,65.59-5.49,9.71-1.88,18.45-3.88,24.78-5.55,0-.9-.07-1.8-.11-2.7q-.5-13.44-1-26.87l-1.16,0h-.05c-3-.13-10.81-.48-15.12-.87l-.32,0c-3.76-.36-21-.2-34.19.11,10.54-16.18,22.82-42.7,29.87-59.19a.7.7,0,0,1,1.31.11c5.45,18.74,7.16,39,4.83,55l.22,0a75.12,75.12,0,0,0,24.36,3.58l0,.21a144.23,144.23,0,0,0,41.23-11.83c2.5-1.15,5.62-2.27,8.14-1.77a2,2,0,0,1,1,3.38,16.81,16.81,0,0,1-9.11,4.74v0a60.1,60.1,0,0,1,16.07-.9c-1.74-2.2-3.49-4.29-5.21-6.25l.4.42c.44-6.69.86-18.12,1.3-24.8,6.35-1.06,10.44-7.58,11.51-13.93A28.86,28.86,0,0,0,781.81,392Z"/><path class="cls-9" d="M625.62,934.77c-.07.37-.13.73-.2,1.1-.72,4.26,67.24,34.18,82.5,41.62a2.51,2.51,0,0,0,3.54-2.85,126.82,126.82,0,0,0-21-45.1c-1.85-2.52-3.81-5-5.56-7.57,2.58-6.83,5.15-14.62,7.71-21.44-.52,1.37-28.94-13.07-31.33-14.27-3.33-1.68-13.4-6-13.4-6S628.2,921.27,625.62,934.77Z"/><path class="cls-10" d="M645.32,880l2.32,1.29c15.17,8.28,29.94,14.13,45,20.24q4.89,2,9.84,4c14.73-30.69,30.59-61.31,45.62-91.84,2.87-41,5.36-82,6.17-122.45,0-2.71-1.46-6.38-2.57-8.86-6.14-13.8-13-26.27-20-39.7q-.48,10.08-.36,20.16a11.52,11.52,0,0,1-.79,4.38C703.11,737,672.86,810.16,645.32,880Z"/><path class="cls-11" d="M741.84,306.93c1.79,6,2.27,12.15-.11,18.25a12.89,12.89,0,0,1-6.88,7l.31.69c7.34,2.6,16.31-2.23,20.68-8.69,1.87-2.77,2.87-5.6,1.08-8.42a19.82,19.82,0,0,0-2.71-2.94c-4.57-4.77-4.94-12-6.78-18.36-4-13.76-17-24.79-31.32-25.19S687.67,280.09,686,294.32c-1.06,9,.12,17-4.6,25.27-1.82,3.21-4.3,6.65-3.33,10.22a7.89,7.89,0,0,0,5.08,5c7.65,2.82,16.56,3.71,24.49,1.53-.39-6.43-.87-12.33-1.46-15.95-3.17-1-6.48-2.12-8.34-5.08a5.39,5.39,0,0,1-.36-5.41c1.5-2.74,4.76-.95,7.79-.49a4.1,4.1,0,0,0,3.08-.8c7.78-5.89,21.32-14.69,23.63-23.16C735.32,292.18,739.6,299.46,741.84,306.93Z"/><path class="cls-9" d="M690.53,329.44l0,0c7.25,4.83,12.52-1.62,15.79-7.87.51,3.65.93,9,1.28,14.71-7.93,2.18-16.84,1.29-24.49-1.53a9.15,9.15,0,0,1-3.45-2.22,19.31,19.31,0,0,0,6.59-3.4A3.15,3.15,0,0,1,690.53,329.44Z"/><path class="cls-9" d="M739.1,329.22A16.21,16.21,0,0,0,751.43,324a26,26,0,0,0,5.36-8.45,1.92,1.92,0,0,1,.13.17c1.79,2.82.79,5.65-1.08,8.42-4.37,6.46-13.34,11.29-20.68,8.69l-.31-.69A13.44,13.44,0,0,0,739.1,329.22Z"/><path class="cls-8" d="M827.39,664.31c6.43-14.28,13.55-33.43,17.78-45.2a35,35,0,0,0,.45-22.37c-8.34-26.45-21.78-50.83-33.58-75.82-5.55-11.73-11.61-22.8-16.21-34.76-.77-2-1.66-4-2.65-6a46.1,46.1,0,0,1-10.31,1.06l-12.12.31,0,.35a122.32,122.32,0,0,1,15.76,3,1.74,1.74,0,0,1,.26,3.28,17.73,17.73,0,0,1-4,1c-23.24,3.57-47.13-.84-70.4,2.47,0,.9.08,1.8.11,2.7-6.33,1.67-15.07,3.67-24.78,5.55-1.61,26.48,4,53.94,13.54,78.66,8.5,22.13,19.55,43.14,30.46,64.21,6.94,13.43,13.83,26.88,20,40.68a18.44,18.44,0,0,1,1.59,7.88c-.81,40.41-3.3,81.46-6.17,122.45-2.27,32.45-4.78,64.86-6.88,96.87,3.49.9,7,1.6,10.62,2.17,8.91,1.44,18,2,27,2.65l19.5,1.28,9.82.64c11.55-72.81,21.36-208.65,23.22-235.29a28.68,28.68,0,0,0-.8-9c-.74-2.89-1.47-5.78-2.22-8.67Z"/><path class="cls-8" d="M770.71,481.84l0-.35h.3l.12.43Z"/><path class="cls-8" d="M687.71,499.83c9.71-1.88,18.45-3.88,24.78-5.55,0-.9-.07-1.8-.11-2.7,20.19-2.87,40.84.06,61.14-1.44,12.26,43.11,25,86.29,38.47,130.18,4.53,14.25,9.51,28.51,16.33,41.91-.31.7-.62,1.4-.93,2.08h0c.75,2.89,1.48,5.78,2.22,8.67a28.68,28.68,0,0,1,.8,9c-1.86,26.64-11.67,162.48-23.22,235.29l-9.82-.64-19.5-1.28c-9-.6-18.12-1.21-27-2.65-3.57-.57-7.13-1.27-10.62-2.17,2.1-32,4.61-64.42,6.88-96.87,2.87-41,5.36-82,6.17-122.45a18.44,18.44,0,0,0-1.59-7.88c-6.14-13.8-13-27.25-20-40.68-10.91-21.07-22-42.08-30.46-64.21C691.76,553.77,686.1,526.31,687.71,499.83Z"/><path class="cls-8" d="M696.51,460c-.52,1.26-1,2.53-1.48,3.81,4.31.39,12.13.74,15.12.87h.05c3.65-.2,7.31-.53,10.94-1l0-.21a75.12,75.12,0,0,1-24.36-3.58l-.22,0A.77.77,0,0,1,696.51,460Z"/><path class="cls-12" d="M729.31,333.41a15,15,0,0,0,5.54-1.23,12.89,12.89,0,0,0,6.88-7c2.38-6.1,1.9-12.24.11-18.25-2.24-7.47-6.52-14.75-9.87-21.51-2.31,8.47-15.85,17.27-23.63,23.16a4.1,4.1,0,0,1-3.08.8c-3-.46-6.29-2.25-7.79.49a5.39,5.39,0,0,0,.36,5.41c1.86,3,5.17,4.1,8.34,5.08.59,3.62,1.07,9.52,1.46,15.95.23,3.65.43,7.48.61,11.16.34,6.74.6,13,.86,16.79l2.16,2c6.37,2.2,29.45,2.4,26.21-8.44-1.57-4.62-3.52-10.37-5.42-15.92-.94-2.77-1.87-5.49-2.73-8Z"/><path class="cls-13" d="M716,329.47a30.47,30.47,0,0,0,14.34,3.86c-.35,0-.69.07-1.05.08v.5c.56,1.65,1.16,3.39,1.76,5.17C724.61,339.62,718,336.83,716,329.47Z"/><path class="cls-14" d="M705.47,314.28c.23-.73.9-1.22,2.28-1.26a131.88,131.88,0,0,0,34.33-5.52c.59-.18,1.27,7.53,1.27,8.13a25.9,25.9,0,0,1-1.62,9.55,12.89,12.89,0,0,1-6.88,7,15,15,0,0,1-5.54,1.23v.17c0,.07-10.07-2.59-11-3.09-3.94-2.23-8.13-5.42-10.36-9.42C707.14,319.55,704.88,316.14,705.47,314.28Z"/><path class="cls-12" d="M789.36,472.75c2.86,0,5.83,0,8.47-1.14.44-.2.93-.49,1-1a1.31,1.31,0,0,0-.44-.88c-2.68-2.83-6.93-3.35-10.8-3.7-.93-.08-1.84-.14-2.76-.18-5-.24-10,0-15.08-.45l0-.07c4.56-1.16,9.39-.56,14.11-.26l.47,0a29.39,29.39,0,0,0,10.27-.9,1.82,1.82,0,0,0,0-3.43,60.63,60.63,0,0,0-32.17-2.59v0a16.81,16.81,0,0,0,9.11-4.74,2,2,0,0,0-1-3.38c-2.52-.5-5.64.62-8.14,1.77a144.23,144.23,0,0,1-41.23,11.83c-3.63.48-7.29.81-10.94,1l1.16,0q.51,13.44,1,26.87c23.27-3.31,47.16,1.1,70.4-2.47a17.73,17.73,0,0,0,4-1,1.74,1.74,0,0,0-.26-3.28,122.32,122.32,0,0,0-15.76-3l0-.35,12.12-.31a46.1,46.1,0,0,0,10.31-1.06c.54-.14,1.08-.29,1.61-.48,1-.36,2.26-1.38,1.69-2.31a2,2,0,0,0-1.28-.71c-3.21-.79-6.46-1.45-9.72-2-1.47-.27-3-.61-4.45-.82a29.81,29.81,0,0,0-3.95-.65l11.09-.34Z"/><path class="cls-9" d="M798.38,941.07c-.34-7.27-.68-16.52-1-24.39l-19.5-1.28c-9-.6-18.12-1.21-27-2.65-1.11,22.25-2,42.65-2.57,64.84a1.76,1.76,0,0,0,1.63,1.82c33.84,2.52,69.68,6,98.87,6.33a2.38,2.38,0,0,0,1.92-3.81c-11.91-16-31.37-29.5-52-40.87Z"/><path class="cls-12" d="M985.26,274.36a15.1,15.1,0,0,0-8.78.18,16.2,16.2,0,0,0-5.1,3.45c-8.11,7.33-12.19,18.35-20,25.11l-11.18,9.67a161.26,161.26,0,0,0,11.25,16.56c6.53-7.14,10.9-12.14,20.12-21.59l.74-.06c3.11-.27,7.23-2.55,10.17-3.57a15.35,15.35,0,0,0,5.92-3.58,1.78,1.78,0,0,0-1-3,61.92,61.92,0,0,0-11.48-.61l-.44-.73c1.66-2.7,3.36-5.47,5.89-7.38s3.79-2.85,6.92-2.37c.13,0,11.43,7.91,12.19,8.63,2.6,2.47,2.86-.95,3-2.53.5.25,1.89.76,2.36.27a1.24,1.24,0,0,0,.24-.87c0-2.52-1.53-4.78-3.19-6.68C999.17,281,992.1,276,985.26,274.36Z"/><path d="M736.79,304a1.5,1.5,0,0,0,0-3,1.5,1.5,0,0,0,0,3Z"/><path d="M722,306.94a1.5,1.5,0,0,0,0-3,1.5,1.5,0,0,0,0,3Z"/><path class="cls-8" d="M790.57,473a.69.69,0,0,1,.42.1.73.73,0,0,1,.18.41l.43,2c-4.38-.72-9-1.12-13.31-2.22,1.12-1.27,3.58-.5,5.06-.49C785.76,472.83,788.16,472.88,790.57,473Z"/><path class="cls-15" d="M741.74,362.35c82.45,102.34,179.58,103.53,227.44-51.63"/><path class="cls-16" d="M829.61,673q-22.29-88.22-50.73-174.74"/><path class="cls-17" d="M695,463.8c.47-1.28,1-2.55,1.48-3.81"/><path class="cls-17" d="M729.32,333.91c2.58,7.55,5.79,17,8.15,23.93,3.09,10.36-17.84,10.64-25.27,8.72a3.75,3.75,0,0,1-1.6-.9h0a5.19,5.19,0,0,1-1.63-3.47c-.36-6.29-.77-16.64-1.34-25.88-.39-6.43-.87-12.33-1.46-15.95"/><path class="cls-17" d="M715.89,329c12.71,8.57,23,3.37,25.84-3.79,5.35-13.69-3.71-27.54-9.76-39.75"/><path class="cls-17" d="M705.26,309.38c-3-.46-6.3-2.25-7.79.49a5.42,5.42,0,0,0,.36,5.41c1.86,3,5.17,4.1,8.34,5.08"/><path class="cls-17" d="M741.45,307.4c-2,1.6-4.6,2.22-7.12,2.73a155.51,155.51,0,0,1-28.54,3.09"/><path class="cls-17" d="M696.34,461.1c2.61-16.25.95-37.07-4.64-56.3a.7.7,0,0,0-1.31-.11c-7,16.49-19.33,43-29.87,59.19"/><path class="cls-17" d="M712.49,494.28c-6.33,1.67-15.07,3.67-24.78,5.55-22.64,4.38-50.55,8.11-65.59,5.49-10.42-1.82-17.09-2-16-14.21.79-8.55,5.21-16.42,8.43-24.22,4.66-11.31,9.63-22.49,14.69-33.63q12.94-28.5,26.72-56.59A28.53,28.53,0,0,1,668.08,364a202.62,202.62,0,0,1,40.16-16.54"/><path class="cls-17" d="M855,363c-21-7.5-38.3-15.89-59.9-21.41-10.85-2.78-22.09-6.17-33.2-7.66-10-1.34-15,3.65-29.1,8.13"/><path class="cls-17" d="M784.27,465.13c.18.24.35.5.52.75"/><path class="cls-17" d="M775,426.68c-.44,6.68-.86,18.11-1.3,24.8l-.4-.42c1.72,2,3.47,4.05,5.21,6.25"/><path class="cls-17" d="M785.51,373.31c-2.09,4.43-4.06,10.83-6.87,14.84"/><path class="cls-17" d="M778.64,388.15a28.79,28.79,0,0,1,7.84,24.61c-1.07,6.34-5.17,12.86-11.51,13.92"/><path class="cls-17" d="M712.49,494.28c0-.9-.07-1.8-.11-2.7q-.5-13.44-1-26.87l-1.16,0c-3-.13-10.84-.48-15.17-.87l-.32,0c-3.76-.36-21-.2-34.19.11-3.17.08-6.1.16-8.55.25"/><path class="cls-17" d="M709.79,464.69a143.88,143.88,0,0,0,52.57-12.86c2.52-1.15,5.63-2.28,8.14-1.77a2,2,0,0,1,1,3.39,16.79,16.79,0,0,1-10.83,4.93"/><path class="cls-17" d="M768.76,465.63c4.82-1.52,10-.85,15-.53l.47,0a29.39,29.39,0,0,0,10.27-.9,1.82,1.82,0,0,0,0-3.43,60.44,60.44,0,0,0-35.88-1.74"/><path class="cls-17" d="M769.71,472.77l17.19.21,2.43,0a22,22,0,0,0,8.5-1.39c.44-.2.93-.49,1-1a1.31,1.31,0,0,0-.44-.88c-2.68-2.83-6.93-3.35-10.8-3.7-.93-.08-1.84-.14-2.76-.18-5-.24-10,0-15.08-.45"/><path class="cls-17" d="M770.75,481.49l12.12-.31a46.1,46.1,0,0,0,10.31-1.06c.54-.14,1.08-.29,1.61-.48,1-.36,2.26-1.38,1.69-2.31a2,2,0,0,0-1.28-.71c-1.45-.36-2.9-.69-4.36-1a112.19,112.19,0,0,0-21.16-2.33"/><path class="cls-17" d="M770.71,481.85a120.15,120.15,0,0,1,15.75,3,1.74,1.74,0,0,1,.28,3.28,18.09,18.09,0,0,1-4,1c-23.31,3.59-47.27-.87-70.61,2.5"/><path class="cls-17" d="M696.75,459.87a74.85,74.85,0,0,0,24.36,3.58"/><path class="cls-17" d="M956.17,335.19a746,746,0,0,1-77.9,76.37c-3.66,3.1-7.56,6.26-12.13,7.53a4.93,4.93,0,0,1-2.5,0c-29.07-7.41-54.3-16.36-82.32-27.31"/><path class="cls-17" d="M939.29,311.28C913,332.18,885.82,349.61,855,363"/><path class="cls-17" d="M939.29,311.28c.29.5.57,1,.89,1.49a162.58,162.58,0,0,0,13.89,19.9q1,1.27,2.1,2.52"/><path class="cls-17" d="M940,312.89l.14-.12c3.72-3.22,7.46-6.44,11.18-9.67,8.45-7.31,12.54-19.58,22.06-26.8a12.11,12.11,0,0,1,3.06-1.76c7-2.58,13,2.83,17.95,6.87,3.23,2.67,7.58,8.47,8.9,12.44a1.86,1.86,0,0,1,.11,1.18c-.35,1.14-2.11.88-3,.05s-12.06-8.62-12.19-8.64c-3.13-.48-4.41.46-6.93,2.38-1.87,1.42-4,5.2-4.91,7.05a.71.71,0,0,0,.65,1,58.55,58.55,0,0,1,10.3.63,1.78,1.78,0,0,1,1,3,15.35,15.35,0,0,1-5.92,3.58c-2.94,1-7.06,3.3-10.17,3.57l-.74.06c-9.23,9.45-13.59,14.45-20.12,21.59"/><path class="cls-17" d="M984.65,274.85c10.86,2.8,14.28,6.2,17.55,9.86a16.75,16.75,0,0,1,3.89,6.16,1.88,1.88,0,0,1-2.46,2.28"/><path class="cls-17" d="M703.26,311.83a4.25,4.25,0,0,0-1.6-.34,1.47,1.47,0,0,0-1.31.83,1.79,1.79,0,0,0,.2,1.4,5.4,5.4,0,0,0,1.73,2"/><path class="cls-17" d="M731.71,303.08a11.78,11.78,0,0,0,2.58,6.35"/><path class="cls-17" d="M723.19,301a4.85,4.85,0,0,0-5.32,2"/><path class="cls-17" d="M733.75,298.83a3.22,3.22,0,0,1,4.18-.4"/><path class="cls-18" d="M851.08,982.76q-44.22-4.49-88.22-11a65.91,65.91,0,0,1-14.32-3.28"/><path class="cls-18" d="M743.35,320.54c4.33,10.43,3.74,30.34-1.14,40.45a2.15,2.15,0,0,1-2.33,1.18c-21.37-4-37.66-23.25-38-45"/><circle class="cls-4" cx="701.66" cy="315.55" r="1.82"/><path class="cls-18" d="M710.93,972.56c-28.8-12.8-57.64-26.07-83.83-43.32"/></g><g id="man"><path class="cls-9" d="M1322.22,947.51a23.17,23.17,0,0,0,4.38,1.54,42.89,42.89,0,0,0,15,.83c14.49-2.16,28.63-5.31,41.77-11.25a270.43,270.43,0,0,1,3.76,34,2.94,2.94,0,0,1-2.59,3c-17.8,2.14-35.7,3.33-53.61,3.94-15.71.53-34,1.34-50,.06a1.64,1.64,0,0,1-1-2.86c12.17-10.83,28.55-20.14,42.33-28.37h0C1322.22,948.13,1322.22,947.82,1322.22,947.51Z"/><path class="cls-9" d="M1221.52,940.35c.63,12.55,1,27.38,1,38.61a3.19,3.19,0,0,1-3,3.18c-35.31,2.52-71.06,4.27-106.46,3.35a1.53,1.53,0,0,1-.85-2.75c16.08-11.87,32.14-23.42,49.55-33.39l.21-.13h0a121.82,121.82,0,0,1,16.45-1.69c5,0,9.93.07,14.89-.17C1202.94,946.9,1212.45,944.12,1221.52,940.35Z"/><path class="cls-12" d="M1380.55,923.75c1,4.65,1.91,9.67,2.79,14.88-13.14,5.94-27.28,9.09-41.77,11.25a42.89,42.89,0,0,1-15-.83,23.17,23.17,0,0,1-4.38-1.54c.14-7.53.12-13.3,0-21C1341.29,927,1361.54,925.72,1380.55,923.75Z"/><path class="cls-12" d="M1178.46,947.53a121.82,121.82,0,0,0-16.45,1.69h0l-.21,0c.27-6.1.55-15.25.84-21.33,19.4,1.25,38.84,1.8,58.14.32.28,3.59.53,7.7.75,12.11-9.07,3.77-18.58,6.55-28.17,7C1188.39,947.6,1183.43,947.48,1178.46,947.53Z"/><path class="cls-11" d="M1283.8,279.44a16.5,16.5,0,0,1,10.57-3.56,20.37,20.37,0,0,1,14.57,7.09,5.5,5.5,0,0,0,1.75,1.55c1.13.52,2.45.12,3.68-.15a9.1,9.1,0,0,1,6,.4c6.08,3,5,14.61,2.42,19.34a16.38,16.38,0,0,1-6,6.4,7.27,7.27,0,0,0-1.64-1.54,5.54,5.54,0,0,0-6.25.34c-2.85,2.08-1.74,4.8-1.82,7.84a1.5,1.5,0,0,1-2.34,1.18,11.72,11.72,0,0,1-3.74-4.67,20.21,20.21,0,0,1-.88-2.12c-1.28-3.63-1.6-7.53-2.42-11.3-.28-1.31-.73-2.78-2.6-2.77a4,4,0,0,0-2,.61,34.62,34.62,0,0,1-25.9,3.59l-.38-.11-.71-.19c-2.25-.67-4.58-1.69-5.82-3.68-1.68-2.69-.81-6.25.78-9A20.6,20.6,0,0,1,1283.8,279.44Z"/><path class="cls-14" d="M1355.15,479.53a126.84,126.84,0,0,1-42.66-21.88c-6.39,10.83-11.66,21.27-19.38,31.28l.09.31c-14.8,4.21-29.74,5.42-44.73,5.83v-.4c-.81-7.21-1.54-14.44-2.15-21.68a38.05,38.05,0,0,1-7.36,5.58,18.36,18.36,0,0,0,1-6.41l0-.66c0-.51,0-1-.09-1.52-1.91-17.53-11.47-33.13-20.39-48.44,2.88-11,6-21.91,9.94-32.56,2.68-7.21,5.8-14.4,10.68-20.34,10.07-12.21,27.63-17.53,42.83-13.33-.15,4.82-.3,9.61-.44,14.06a1.81,1.81,0,0,0,1,1.67c9.07,4.93,18.1,5.08,27.1.34a1.83,1.83,0,0,0,1-1.55c.15-4.4.2-9.47.15-14.76,9.28-.92,18.61-1.56,27.85-.4,10.9,1.39,21.81,5.54,29.33,13.56,7.73,8.23,11.16,19.78,11.66,31.06s-1.7,22.49-3.87,33.57c-4.6,23.54-15.61,63.24-20.3,87l-.42-.08c-8.08.63-13.14,1.27-21.15,1.9A9.45,9.45,0,0,0,1336,520,238.9,238.9,0,0,0,1355.15,479.53Z"/><path class="cls-19" d="M1356.2,520.3c-1.22,61.09-2,114.9-8.42,175.66,0,0,24.32,149.7,39.41,227.08-2.19.25-4.41.48-6.64.71-19,2-39.26,3.27-58.35,2.78q-3.33-.09-6.62-.25c-7-33.9-13.65-70.48-20.35-107.06-7.17-39.25-14.34-78.49-21.86-114.44a13.47,13.47,0,0,1-.85-5q.84-47,1.21-94c-9,29.93-31.46,55.21-40.7,85.41,0,0-.67,66.6-3.11,95.6q-5.93,70.36-5.2,141.06c-1.31.13-2.64.23-4,.34-19.3,1.48-38.74.93-58.14-.32-3.66-.23-7.32-.49-11-.77,2.4-80.3,7.24-163.94,14.51-243.59a33.81,33.81,0,0,1,.84-4.91,31.07,31.07,0,0,1,1.66-5q31.83-74.68,65.57-148.52c31.6,3.36,63.94,3.4,94.82-.57a9.33,9.33,0,0,0,5.66-2.92c8-.63,13.07-1.27,21.15-1.9l.42.08Z"/><path class="cls-20" d="M1167.93,285.56a48.86,48.86,0,0,0,1.65,5.1c.6,1.71,1.23,3.39,1.89,5.07q2,5.06,4,10.06,4.15,10.08,8.24,20.19l2.24,5.55c.37.92.74,1.85,1.12,2.77a7.89,7.89,0,0,0,1.34,2.63.34.34,0,0,0,.57-.24,6.69,6.69,0,0,0-.71-2.46c-.34-.85-.69-1.7-1-2.54l-2-5.09c-1.34-3.35-2.7-6.7-4-10.06-2.69-6.75-5.34-13.51-8.07-20.24-.73-1.8-1.43-3.64-2.29-5.38s-1.6-3.73-2.64-5.48a.15.15,0,0,0-.27.12Z"/><path class="cls-21" d="M1274.28,550.64c-20.2,37.64-33,80.17-61.75,112.38a43.47,43.47,0,0,0-11,30.31c2.47,78.35-2.74,157.2-1.87,235.7,5.65-.12,15.44-.36,21.07-.79,1.31-.11,2.64-.21,4-.34q-.73-70.59,5.2-141.06c2.43-29,3.11-95.6,3.11-95.6,9-29.36,30.45-54.07,39.91-82.92A264.25,264.25,0,0,0,1274.28,550.64Z"/><path class="cls-22" d="M1188.24,337.35c1.67.74,1.43-2.76,1-4.65-.79-3.38-2.55-6.44-3.79-9.66s-2.47-6.38-3.72-9.56c-2.43-6.2-4.8-12.42-7.27-18.6-1.28-3.2-2.46-6.46-3.89-9.6s-2.92-6.13-4.33-9.21c-1.55-3.39-3.13-6.77-4.58-10.2-.79-1.86-1.58-3.73-2.34-5.6a19.41,19.41,0,0,0-2.37-4.73.61.61,0,0,0-1,.42c.16,2.78,1.56,5.52,2.48,8.11q1.47,4.14,2.89,8.3l2.76,8.05c.94,2.76,1.71,5.58,2.81,8.27,4.37,10.7,8.89,21.33,13.22,32.05,1.22,3,2.46,6.06,3.75,9.07.88,2.06,1.56,4.77,3.1,6.44A4.19,4.19,0,0,0,1188.24,337.35Z"/><path class="cls-12" d="M1334.73,521.65a9.33,9.33,0,0,1-5.66,2.92c-30.88,4-63.22,3.93-94.82.57-13.94-1.46-27.74-3.59-41.2-6.29l.13,0a25.52,25.52,0,0,1-18.59,7.05c-2.37-.1-4.94-.51-7,.69a10.23,10.23,0,0,0-2.81,2.83A182.55,182.55,0,0,1,1150,545.89a1.53,1.53,0,0,1-2.51-.53,3,3,0,0,1-.18-1.06,7.38,7.38,0,0,1,1.08-3.11c2.13-4,6.32-10.12,8.45-14.16l-.07,0a107.12,107.12,0,0,1-15,15.72c-1.12,1-2.78,1.91-3.91,1s-.6-2.56,0-3.8a61.73,61.73,0,0,1,6.14-10.21c-3.42,3.36-6.85,6.57-10.27,10.24-.52.56-1.15,1.16-1.9,1.08-1.62-.15-1.35-2.6-.58-4q3.76-6.94,8.19-13.47-5.75,6.66-11.71,13.12a2.16,2.16,0,0,1-1.5.91c-1,0-1.43-1.2-1.37-2.15.79-11.78,10.74-21.68,20.54-27.09,10-5.51,21.43-7.81,32.72-9.54,2.29-.35,10.36-.78,10.36-.78,19.94-3.13,40-2.32,60-2.89,15-.41,29.93-1.62,44.73-5.83l-.09-.31c7.72-10,13-20.45,19.38-31.28a126.84,126.84,0,0,0,42.66,21.88A238.9,238.9,0,0,1,1336,520,9.45,9.45,0,0,1,1334.73,521.65Z"/><path class="cls-12" d="M1170.22,327l.06.07a33.21,33.21,0,0,1,12.62-6.17,2.78,2.78,0,0,1,2.54.26c1.16,1.11-.18,3-1.47,3.91-4.63,3.37-4.88,2.61-11.62,9.19l0,0a28.86,28.86,0,0,1,12-6.18,1.86,1.86,0,0,1,2,2.85l-9.21,11.43q.93,2,1.92,4c11,22.62,27,52,39,72.89.43.76.88,1.51,1.31,2.28,8.92,15.31,18.48,30.91,20.39,48.44.05.5.08,1,.09,1.52l0,.66a18.36,18.36,0,0,1-1,6.41,17,17,0,0,1-9.84,10.31,21.93,21.93,0,0,1-11.44,1.21c-9.11-1.55-16.71-8.22-21.55-16.09s-7.35-16.93-9.8-25.85l-32-116.75a4.41,4.41,0,0,1-.12-1.54,4,4,0,0,1,.36-1.32,36,36,0,0,1,10.14-12.69,36.44,36.44,0,0,1,3.64-2.61c2.32-1.48,6.38-4.52,9.29-3.64,4.93,1.49.85,4.3-2.13,5.66a24.66,24.66,0,0,0-11.37,9.62l.07.06c4.67-5.09,8.2-8,16.21-10.07a1.76,1.76,0,0,1,1.62.6c1,1.06-.27,2.65-1.4,3.51C1177.16,321.65,1173.69,324.3,1170.22,327Z"/><path class="cls-12" d="M1310.48,325.26c.65,8.4,1.08,19.5,1.15,29.81,0,5.29,0,10.36-.15,14.76a1.83,1.83,0,0,1-1,1.55c-9,4.74-18,4.59-27.1-.34a1.81,1.81,0,0,1-1-1.67c.14-4.45.29-9.24.44-14.06.13-4.2.26-8.43.39-12.43a13.66,13.66,0,0,1-1.9-.22c-8.47-1.58-13.36-10.85-14.25-19.43-.29-2.76-.43-5.31-.47-7.87h.23a44.44,44.44,0,0,0,33.52-1.38l.62-.32a11.72,11.72,0,0,0,3.74,4.67,1.5,1.5,0,0,0,2.34-1.18c.08-2.91-1.25-6.24,1.72-8.08a6.14,6.14,0,0,1,6.35-.1,7.27,7.27,0,0,1,1.64,1.54,8.5,8.5,0,0,1,1.57,6.73c-.62,3.07-5,6.71-7.83,8Z"/><path class="cls-13" d="M1303.21,330.56c-5.48,4.79-12.33,10.49-19.93,12.59,0,1.36-.09,2.76-.13,4.16C1293.89,347.31,1301.43,338.56,1303.21,330.56Z"/><path class="cls-14" d="M1304.83,318.62a12.6,12.6,0,0,0-2.51-4.25,1.74,1.74,0,0,0-.8-.6,1.94,1.94,0,0,0-1.11.12c-5.48,1.8-10.06,3.68-15.85,4a44.49,44.49,0,0,1-8.86-.38c-2.76-.4-6.13-2.18-8.8-2.18h-.23c0,2.56.18,5.11.47,7.87.62,6,3.06,12.36,7.77,16.3,5.4,4.5,13.06,3.09,18.78.08a23.17,23.17,0,0,0,4.39-3.18C1303.31,331.9,1307,324.92,1304.83,318.62Z"/><path class="cls-12" d="M1300.16,311.54a20.21,20.21,0,0,0,.88,2.12l-.62.32a44.44,44.44,0,0,1-33.52,1.38h-.23c-.07-4.31.1-8.6.19-13.8l.38.11a34.62,34.62,0,0,0,25.9-3.59,4,4,0,0,1,2-.61c1.87,0,2.32,1.46,2.6,2.77C1298.56,304,1298.88,307.91,1300.16,311.54Z"/><line class="cls-23" x1="1279.8" y1="419.47" x2="1299.99" y2="406.46"/><line class="cls-23" x1="1344.51" y1="435.1" x2="1360.48" y2="455.66"/><line class="cls-23" x1="1248.46" y1="368.85" x2="1259.42" y2="387.71"/><line class="cls-23" x1="1259.42" y1="480.16" x2="1281.4" y2="467.61"/><path class="cls-24" d="M1311.63,355.07c9.28-.92,18.61-1.56,27.85-.4,10.9,1.39,21.81,5.54,29.33,13.56,7.73,8.23,11.16,19.78,11.66,31.06s-1.7,22.49-3.87,33.57c-4.63,23.69-15.76,63.75-20.4,87.44"/><path class="cls-24" d="M1219.45,421.54c2.88-11,6-21.91,9.94-32.56,2.68-7.21,5.8-14.4,10.68-20.34,10.07-12.21,27.63-17.53,42.83-13.33"/><path class="cls-24" d="M1310.47,325c1,12.72,1.45,31.78,1,44.87a1.81,1.81,0,0,1-1,1.55c-9,4.74-18,4.59-27.11-.34a1.86,1.86,0,0,1-1-1.68c.15-4.43.3-9.23.45-14.05.13-4.2.26-8.43.39-12.43"/><path class="cls-24" d="M1266.86,301.56c-.14,8.28-.51,14.27.28,21.67.89,8.58,5.78,17.85,14.25,19.43,8.68,1.62,16.46-5.36,22.06-12.18"/><path class="cls-24" d="M1307.12,317.15c.08-2.95-1.26-6.12,1.59-8a6.55,6.55,0,0,1,6.48-.14,7.27,7.27,0,0,1,1.64,1.54,8.5,8.5,0,0,1,1.57,6.73c-.62,3.07-5,6.71-7.83,8"/><path class="cls-24" d="M1310,455.66c7.56-22.52,10-41.77,16.74-62.31"/><path class="cls-24" d="M1243.52,396.86a789.2,789.2,0,0,0,4.94,97.81"/><path class="cls-24" d="M1310,455.66a127.22,127.22,0,0,0,47.39,24.5"/><path class="cls-24" d="M1293.11,488.93c7.72-10,13-20.45,19.38-31.28"/><path class="cls-24" d="M1164.19,324.93c4.67-5.07,8.21-8,16.21-10.06a1.73,1.73,0,0,1,1.62.6c1,1.06-.27,2.65-1.4,3.51l-14.21,10.91"/><path class="cls-24" d="M1168.73,328.35a33.25,33.25,0,0,1,14.17-7.48,2.75,2.75,0,0,1,2.54.27c1.16,1.1-.18,3-1.47,3.9-4.89,3.55-4.89,2.52-12.82,10.36"/><path class="cls-24" d="M1172.4,334.27a28.86,28.86,0,0,1,12-6.17,1.86,1.86,0,0,1,2,2.84l-9.21,11.43"/><path class="cls-24" d="M1163.85,325.3a24.77,24.77,0,0,1,11.64-10c3-1.36,7.06-4.17,2.13-5.66-2.91-.88-7,2.16-9.29,3.64a36.44,36.44,0,0,0-3.64,2.61,36,36,0,0,0-10.14,12.69,4,4,0,0,0-.36,1.32,4.41,4.41,0,0,0,.12,1.54l32,116.75c2.45,8.92,5,18,9.8,25.85s12.44,14.54,21.55,16.09a21.93,21.93,0,0,0,11.44-1.21A17.35,17.35,0,0,0,1240,472.16l0-.66c0-.51,0-1-.09-1.52-2-18.4-12.43-34.67-21.7-50.72-12.05-20.89-28-50.27-39-72.89q-1-2-1.92-4"/><path class="cls-24" d="M1238.49,478.83a37.8,37.8,0,0,0,7.92-5.92"/><path class="cls-24" d="M1266.9,315.36a44.39,44.39,0,0,0,33.52-1.38"/><path class="cls-24" d="M1334.44,521.67c8.18-.64,13.26-1.28,21.44-1.92"/><path class="cls-24" d="M1293.89,489c-34.8,10.13-70.35,3.4-105.44,8.91,0,0-8.07.45-10.37.8-11.29,1.71-22.71,4-32.71,9.53-9.82,5.41-19.77,15.31-20.54,27.09-.07,1,.41,2.13,1.36,2.15a2.21,2.21,0,0,0,1.5-.91q7.41-8,14.48-16.36"/><path class="cls-24" d="M1141.82,520a161.64,161.64,0,0,0-10.61,17c-.77,1.42-1,3.87.58,4a2.54,2.54,0,0,0,1.9-1.09c5.15-5.52,10.31-10,15.46-15.53"/><path class="cls-24" d="M1149.58,523.09a62.22,62.22,0,0,0-11.76,16.79c-.59,1.23-1,2.92,0,3.8s2.79,0,3.91-1a107.62,107.62,0,0,0,15-15.72"/><path class="cls-24" d="M1156.81,527c-2.14,4-6.34,10.15-8.47,14.18a7.14,7.14,0,0,0-1.07,3.11,3,3,0,0,0,.17,1.07,1.53,1.53,0,0,0,2.51.52,185.48,185.48,0,0,0,14.83-16.43,10.33,10.33,0,0,1,2.81-2.82c2.06-1.2,4.62-.8,7-.7a25.53,25.53,0,0,0,18.58-7.05l-.13,0c44,8.84,91.51,11.45,136,5.72A9.48,9.48,0,0,0,1336,520a238.9,238.9,0,0,0,19.16-40.44"/><path class="cls-24" d="M1309.89,311.69a4.08,4.08,0,0,1,2.24,7.85"/><path class="cls-24" d="M1161.79,949.35c.27-6.11.55-15.32.84-21.43"/><path class="cls-24" d="M1322.2,926.53c.15,8,.16,13.92,0,21.91"/><path class="cls-24" d="M1221.91,949.37c-.29-7.74-.67-15.17-1.14-21.13"/><path class="cls-24" d="M1383.34,938.63c-.87-5.21-1.83-10.23-2.79-14.88"/><path class="cls-24" d="M1161.79,949.25l.21,0h0a121.82,121.82,0,0,1,16.45-1.69c5,0,9.93.07,14.89-.17,9.59-.46,19.1-3.24,28.17-7"/><path class="cls-24" d="M1322.22,947.51a23.17,23.17,0,0,0,4.38,1.54,42.89,42.89,0,0,0,15,.83c14.49-2.16,28.63-5.31,41.77-11.25"/><path class="cls-24" d="M1179.12,346.37a16.07,16.07,0,0,0,9.85.25c3.43-1.16,8.38-3.94,10.1-7.34,1.56-3.08.73-6.79-.22-10.12-2.85-9.93-5.94-19.81-9.57-29.49-1.89-5-5.81-21.84-11.62-23.21-1.62-.38-3.4,0-4.9-.73s-2.52-2.46-3.23-4.09c-3.32-7.58-6.47-15.6-9.46-23.31a79.2,79.2,0,0,0-9.28-16.93,8.06,8.06,0,0,0-2.87-2.9c-1.25-.58-3-.27-3.58,1a3.68,3.68,0,0,0,0,2.18,254.66,254.66,0,0,0,6.34,26.75c1.85,6.31,9,18.56,5.27,24.8-.78,1.3-1.94,2.39-2.57,3.78-1.16,2.59-.25,5.58.75,8.23a117.48,117.48,0,0,0,10.61,20.62l.18.31"/><path class="cls-18" d="M1222.48,974c-7,1.64-14.5,4.22-21.74,4.66-25.73,1.57-51.45,2.11-77.17,3.68a69,69,0,0,0-9.3,1"/><path class="cls-18" d="M1386.7,966.51a276.26,276.26,0,0,1-35.52,5.83c-23.71,2.13-47.43,2.21-71.14,4.34l-2.12.19"/><path class="cls-18" d="M1343,548.05q-.56,31.38-1.67,62.74c-.53,15.52-1.17,31.08-3.88,46.38-2.1,11.94-5.47,23.73-5.92,35.84-.38,10.21,1.31,20.38,3,30.45q16.85,100.72,33.68,201.46"/><path class="cls-24" d="M1278.73,310.19a15.47,15.47,0,0,1-1.13,7.24"/><path d="M1269.51,312.34v.56a1.17,1.17,0,0,0,.13.58,1.36,1.36,0,0,0,.79.79,1.17,1.17,0,0,0,.58.13l.4-.06a1.45,1.45,0,0,0,.66-.38l.24-.31a1.5,1.5,0,0,0,.2-.75v-.56a1.06,1.06,0,0,0-.13-.58,1.14,1.14,0,0,0-.31-.48,1,1,0,0,0-.48-.31,1.15,1.15,0,0,0-.58-.13l-.4.05a1.59,1.59,0,0,0-.66.39l-.23.3a1.48,1.48,0,0,0-.21.76Z"/><path d="M1283.55,313.53v.56a1.15,1.15,0,0,0,.13.58,1.24,1.24,0,0,0,.31.48,1.14,1.14,0,0,0,.48.31,1.17,1.17,0,0,0,.58.13l.4,0a1.39,1.39,0,0,0,.66-.39l.24-.3a1.57,1.57,0,0,0,.2-.76v-.56a1.08,1.08,0,0,0-.13-.58,1.14,1.14,0,0,0-.31-.48,1.11,1.11,0,0,0-.48-.31,1.15,1.15,0,0,0-.58-.13l-.4.06a1.57,1.57,0,0,0-.66.38l-.23.31a1.42,1.42,0,0,0-.21.75Z"/><path class="cls-24" d="M1283.15,306.72a7.09,7.09,0,0,1,7.23,1.85"/><path class="cls-24" d="M1267.58,306.83a6.57,6.57,0,0,1,5.6,0"/><path class="cls-3" d="M1170.38,284.49a.74.74,0,0,0,.36.19.73.73,0,0,0,.33,0l.31-.1.7-.23,1.38-.48a.57.57,0,1,0-.3-1.1c-.83.3-1.66.58-2.49.89a.59.59,0,0,0-.4.53c0,.11,0,.26.11.34Z"/><path class="cls-3" d="M1171.76,289a.74.74,0,0,0,.36.19.68.68,0,0,0,.32,0l.32-.1.7-.23,1.38-.47a.59.59,0,0,0,.4-.7.57.57,0,0,0-.7-.4c-.83.29-1.67.58-2.49.89a.56.56,0,0,0-.4.52c0,.12,0,.27.11.35Z"/><path class="cls-3" d="M1173.52,292.42a.7.7,0,0,0,.36.19.88.88,0,0,0,.32,0l.31-.1.71-.24,1.38-.47a.58.58,0,0,0,.39-.7.57.57,0,0,0-.7-.4c-.83.29-1.66.58-2.48.89a.55.55,0,0,0-.4.53.4.4,0,0,0,.11.34Z"/><path class="cls-3" d="M1175.52,296.88a.7.7,0,0,0,.36.19.71.71,0,0,0,.32,0l.31-.1.71-.23,1.38-.48a.57.57,0,0,0,.39-.7.58.58,0,0,0-.7-.4c-.83.3-1.66.58-2.48.89a.56.56,0,0,0-.4.53.4.4,0,0,0,.11.34Z"/><path class="cls-3" d="M1176.89,301.35a.77.77,0,0,0,.37.19.72.72,0,0,0,.32-.05l.31-.1.71-.23,1.37-.47a.58.58,0,0,0,.4-.71.57.57,0,0,0-.7-.39c-.83.29-1.66.58-2.49.89a.57.57,0,0,0-.4.52c0,.12,0,.27.11.35Z"/><path class="cls-3" d="M1180.81,310.8a.7.7,0,0,0,.37.19.59.59,0,0,0,.32,0l.31-.1.71-.23,1.37-.48a.57.57,0,0,0,.4-.7.59.59,0,0,0-.7-.4c-.83.3-1.66.58-2.49.9a.57.57,0,0,0-.4.52.45.45,0,0,0,.11.34Z"/><path class="cls-3" d="M1182.19,315.45a.72.72,0,0,0,.36.18.62.62,0,0,0,.33,0l.31-.1.7-.23,1.38-.47a.59.59,0,0,0,.4-.71.57.57,0,0,0-.7-.39c-.83.29-1.66.57-2.49.89a.57.57,0,0,0-.4.52.49.49,0,0,0,.11.35Z"/><path class="cls-3" d="M1179.27,305.81a.74.74,0,0,0,.36.19.91.91,0,0,0,.33,0l.31-.1.7-.24,1.38-.47a.59.59,0,0,0,.4-.7.57.57,0,0,0-.7-.4c-.83.29-1.66.58-2.49.89a.57.57,0,0,0-.4.52c0,.12,0,.27.11.35Z"/></g></svg>