<svg xmlns="http://www.w3.org/2000/svg" viewBox="0 0 1920 1080"><defs><style>.cls-1,.cls-19{fill:#f7f8fa;}.cls-2{fill:#7b176e;}.cls-11,.cls-21,.cls-3,.cls-7{fill:#fff;}.cls-24,.cls-3{stroke:#31434d;}.cls-10,.cls-16,.cls-17,.cls-20,.cls-22,.cls-29,.cls-3{stroke-linecap:round;}.cls-10,.cls-16,.cls-17,.cls-18,.cls-19,.cls-20,.cls-21,.cls-22,.cls-24,.cls-29,.cls-3,.cls-7,.cls-8,.cls-9{stroke-miterlimit:10;}.cls-4{fill:#53bcf7;}.cls-5{fill:#eaecef;}.cls-6{fill:#f6a001;}.cls-10,.cls-17,.cls-19,.cls-20,.cls-21,.cls-22,.cls-7,.cls-8,.cls-9{stroke:#464646;}.cls-10,.cls-16,.cls-17,.cls-18,.cls-20,.cls-22,.cls-24,.cls-29,.cls-8,.cls-9{fill:none;}.cls-16,.cls-21,.cls-29,.cls-9{stroke-width:2px;}.cls-10{stroke-width:6px;}.cls-12{fill:#052251;}.cls-13{fill:#09102d;}.cls-14{fill:#0f379a;}.cls-15{fill:#ffe1cf;}.cls-16{stroke:#fff;}.cls-18{stroke:#53bcf7;}.cls-20{stroke-width:5px;}.cls-22{stroke-width:4px;}.cls-23{fill:#0c2c7a;}.cls-25{fill:#8ad0f7;}.cls-26{fill:#276ce4;}.cls-27{fill:#31434d;}.cls-28{fill:#a1a1a1;}.cls-29{stroke:#c6d6fe;}</style></defs><title>2019-nCov18</title><g id="background"><path class="cls-1" d="M303.89,939.16l398.39,2.07c213.18,0,198-10.48,213.18-68.27l555.46,10.26c151.81.79,276.9-167.74,278-374.51h0c1.07-206.77-122.26-376.6-274.07-377.39l-922-4.8C401,125.73,276,294.26,274.87,501h0a505.46,505.46,0,0,0,5.47,77C218.75,594,171.56,668,171.1,756.3h0C170.58,856.49,230.33,938.78,303.89,939.16Z"/><rect class="cls-2" x="337.35" y="165.97" width="55.01" height="34.1"/><rect class="cls-3" x="220.67" y="257.41" width="174.74" height="60.96"/><rect class="cls-3" x="174.87" y="293.29" width="27.96" height="156.53" transform="translate(560.41 182.7) rotate(90)"/><rect class="cls-2" x="1668.23" y="553.15" width="25.42" height="25.42"/><rect class="cls-3" x="1565.91" y="372.25" width="42.82" height="42.82"/><rect class="cls-3" x="1743.39" y="432.77" width="46.55" height="46.55"/><rect class="cls-4" x="1624.48" y="271.57" width="34.6" height="34.6"/><rect class="cls-3" x="1306.24" y="113.77" width="65.95" height="21.81"/><circle class="cls-3" cx="453.01" cy="304.07" r="8.36"/><circle class="cls-3" cx="308.04" cy="533.96" r="8.36"/><circle class="cls-3" cx="1537.97" cy="200.07" r="8.36"/><circle class="cls-3" cx="1766.66" cy="349.02" r="8.36"/><circle class="cls-3" cx="220.67" cy="506.01" r="8.36"/><ellipse class="cls-5" cx="568.38" cy="940.85" rx="281.76" ry="6"/><ellipse class="cls-5" cx="1281.07" cy="855.38" rx="281.76" ry="6"/><polygon class="cls-6" points="721.1 242.85 717.39 236.05 713.67 242.85 706.87 246.57 713.67 250.29 717.39 257.09 721.1 250.29 727.9 246.57 721.1 242.85"/><polygon class="cls-6" points="656.12 187.99 652.4 181.19 648.68 187.99 641.88 191.7 648.68 195.42 652.4 202.22 656.12 195.42 662.92 191.7 656.12 187.99"/><polygon class="cls-6" points="553.15 233.37 550.46 228.45 547.78 233.37 542.86 236.06 547.78 238.74 550.46 243.66 553.15 238.74 558.07 236.06 553.15 233.37"/><polygon class="cls-6" points="818.56 141.48 814.33 133.74 810.11 141.48 802.38 145.7 810.11 149.93 814.33 157.66 818.56 149.93 826.29 145.7 818.56 141.48"/></g><g id="biker2"><path class="cls-7" d="M389.11,937.3A121.44,121.44,0,1,1,510.55,815.86,121.58,121.58,0,0,1,389.11,937.3Zm0-230.88A109.44,109.44,0,1,0,498.55,815.86,109.56,109.56,0,0,0,389.11,706.42Z"/><path class="cls-7" d="M771,937.3A121.44,121.44,0,1,1,892.42,815.86,121.58,121.58,0,0,1,771,937.3Zm0-230.88A109.44,109.44,0,1,0,880.42,815.86,109.56,109.56,0,0,0,771,706.42Z"/><circle class="cls-7" cx="389.11" cy="815.86" r="14.22"/><circle class="cls-7" cx="770.98" cy="815.86" r="14.22"/><circle class="cls-8" cx="565.68" cy="830.08" r="28.73"/><line class="cls-9" x1="389.11" y1="815.86" x2="510.55" y2="660.65"/><line class="cls-9" x1="681.49" y1="626.58" x2="770.98" y2="815.86"/><line class="cls-9" x1="524.61" y1="665.14" x2="699.72" y2="665.14"/><polyline class="cls-9" points="707.89 686.42 565.68 830.08 488.41 630.21"/><path class="cls-8" d="M472.18,601.09c-8.57,2.49-19.23,3-24.34,10.29a8.6,8.6,0,0,0-2,5.07c.18,4.73,6.36,6.34,11.09,6.41a182,182,0,0,0,24.92-1.32"/><path class="cls-10" d="M688.83,603.82C680.77,607.68,677,618.6,681,626.6"/><circle class="cls-8" cx="719.27" cy="609.57" r="11.38"/><line class="cls-8" x1="802.19" y1="800.47" x2="855.58" y2="777.32"/><line class="cls-8" x1="707.89" y1="888.6" x2="748.79" y2="845.83"/><line class="cls-8" x1="339.45" y1="744.68" x2="370.89" y2="790.9"/><line class="cls-8" x1="478.4" y1="845.83" x2="417.11" y2="835.36"/><line class="cls-8" x1="339.45" y1="884.58" x2="374.89" y2="845.83"/><path class="cls-11" d="M502.29,504.2c-10,10.19-20.13,20.77-27.66,32.74l-12.44-6.53,10.56-15.62,54.46-80.56.82.55a96.3,96.3,0,0,0,26.47,9.44h0c-19.35,16.84-36,37.4-50.52,58.24C503.42,503.05,502.85,503.62,502.29,504.2Z"/><path class="cls-11" d="M472.36,514.52a339.52,339.52,0,0,1-76.1-49.77q-3-2.64-6-5.34l-.13,0A63.89,63.89,0,0,0,388,476.53a14.86,14.86,0,0,0,1.65,3.29c4.41,7.18,20.06,25.67,72.56,50.59l10.56-15.62Z"/><path class="cls-11" d="M527.22,434.22l2.82-4.17a6.26,6.26,0,0,1,6.63-2.55l29,7.64h0q-5.73,4.32-11.17,9.08h0A96.3,96.3,0,0,1,528,434.78l-.82-.55Z"/><path class="cls-11" d="M552.49,411.9l-.76,1c-15.87-1-16.87-2-36,3.61-3.39-2.28-6.8-4.62-10.21-7,6.14-6.23,25.05-7.19,34.49-6.1l.3-.42Q546.54,407.29,552.49,411.9Z"/><path class="cls-11" d="M509,383.65l-.06.11c-14,.2-23,1.57-30,6.35l-.07.09q-3.29-2.46-6.48-4.89c5.19-4.42,12.4-8.7,24.11-8.06v0Q502.78,380.32,509,383.65Z"/><path class="cls-11" d="M515.78,416.49c-3.39-2.28-6.8-4.62-10.21-7-9.08-6.33-18.14-12.88-26.73-19.3q-3.29-2.46-6.48-4.89-2.16-1.63-4.26-3.25l-1.31-1c-2.13-1.65-4.27-3.31-6.47-4.87a82.4,82.4,0,0,0-10.9,7.2l.27.36q3.65,3.3,7.39,6.47a291,291,0,0,0,70,43.94l.1.07,2.82-4.17a6.19,6.19,0,0,1,2.9-2.3C527.35,424.2,521.59,420.42,515.78,416.49Z"/><path class="cls-11" d="M449.69,383.74q3.65,3.3,7.39,6.47c-22.89,18.3-47,47-60.82,74.54q-3-2.64-6-5.34l-.13,0c5.78-22.15,22.35-41.71,38.29-57,5.51-5.29,12.83-12.69,21-19Z"/><path class="cls-6" d="M496.47,377.25c-11.71-.64-18.92,3.64-24.11,8.06q-2.16-1.63-4.26-3.25l-1.31-1c-2.13-1.65-4.27-3.31-6.47-4.87,8.81-4.78,18.08-7,26.82-3.38l.09,0q4.66,2.13,9.25,4.39Z"/><path class="cls-6" d="M573.34,429.69c-2.6,1.75-5.15,3.58-7.66,5.46h0l-29-7.64a6.15,6.15,0,0,0-3.73.25c-5.59-3.55-11.35-7.33-17.16-11.26,19.08-5.57,20.08-4.57,36-3.61l.76-1Q563.31,420.29,573.34,429.69Z"/><path class="cls-6" d="M540.36,403l-.3.42c-9.44-1.09-28.35-.13-34.49,6.1-9.08-6.33-18.14-12.88-26.73-19.3l.07-.09c6.94-4.78,16-6.15,30-6.35l.06-.11A327.34,327.34,0,0,1,540.36,403Z"/><path class="cls-6" d="M527.22,434.22h0l-54.46,80.56-.39-.27a339.52,339.52,0,0,1-76.1-49.77c13.8-27.58,37.93-56.24,60.82-74.54a291,291,0,0,0,70,43.94Z"/><path class="cls-12" d="M640.18,387.41c-1.17-.54-2.57-.88-3.24-2a5.43,5.43,0,0,1-.34-3.18c.62-10.51-9.48-16.18-19.88-17.8-9.67-1.5-19.81.55-26.93,6.32,0-7.82-4.71-18.74-13.2-18.81-3.61,0-7.1,1.19-10.61,2.06-6.38,1.58-13.29,2-19.39-.46-5.38-2.16-10-6.91-11.06-12.51a1.86,1.86,0,0,0-2.66-1.3c-6.25,3.15-10.24,10.24-10.76,17.34-.57,8-.44,15.81,3.91,22.51,5.33,8.2,15.88,15.35,25.23,18.2s22.58.64,28.77-6.92h.09c-.61,10.81,4.09,21.84,14.72,23.58.76-.94,1.4-1.74,1.83-2.34l.53-.59c-2.47-1.54-2.31-4-1.45-6.73s3.34-7.06,6.61-6.88a4.7,4.7,0,0,1,3.85,2.73,2,2,0,0,0,2.62.88l1.43-.67a2,2,0,0,1,1.68,0c2.15.9,4.88-.39,6.79-2,2.13-1.77,4.25-4,7-4.11,4.87-.17,7.83,6.34,13.07,5.81a5,5,0,0,0,1.15-.25,6.47,6.47,0,0,0,2.1-1.17C646.51,395.54,644.39,389.36,640.18,387.41Z"/><path class="cls-13" d="M662.09,778.46a2.1,2.1,0,0,1-1,3.82c-23.66,2.34-49.4.84-73.16.36a2.08,2.08,0,0,1-2-2.25c1.22-14.9,2.46-27.58,3.69-42.73a136.58,136.58,0,0,0,33.56.85,40,40,0,0,1-1.26,10.1,1.59,1.59,0,0,0,.34,1.45S651.17,771,662.09,778.46Z"/><path class="cls-13" d="M594.92,888a1.74,1.74,0,0,1-1.24,3c-18.45-.09-52.87-1.59-73.14-4.46a2.24,2.24,0,0,1-1.91-2.49c1.41-11.3,3.74-31,4.85-39.63,10.22.7,22.59-.95,27.46-1.54,2.56-.31,5.1-.75,7.63-1.28l.12.56a88.56,88.56,0,0,1-.65,16.37,2.52,2.52,0,0,0,.87,2.31C571.09,870.77,587.14,880.34,594.92,888Z"/><path class="cls-12" d="M623.16,739.51a136.58,136.58,0,0,1-33.56-.85c-1.12-.16-2.24-.34-3.35-.53,2.2-28.68,6.92-81.14,7.83-91a2,2,0,0,0-1.47-2.09,190.16,190.16,0,0,1-32.06-11.33c-6.54-16-12.66-32.28-17.22-48.61-2.15-7.7-4-16.47-1.89-23.85,36.44,15.08,73.33,27.51,101.12,52a4.22,4.22,0,0,1,1.42,3.18A500.22,500.22,0,0,1,628,739C626.41,739.17,624.79,739.35,623.16,739.51Z"/><path class="cls-14" d="M474.63,536.94c7.53-12,17.62-22.55,27.66-32.74l12.19,18.74c8.4,12.92,19.88,22,32.69,29.23a23.19,23.19,0,0,0-1.11,2,18.75,18.75,0,0,0-3.62,7c-2.06,7.38-.26,16.15,1.89,23.85,4.56,16.33,10.68,32.61,17.22,48.61,7,17.14,14.45,34,21,50.14a46.53,46.53,0,0,1,2.68,24.9c-7.12,42.95-14.76,91.11-23.39,133.12-1.07.26-2.14.5-3.22.73-2.53.53-5.07,1-7.63,1.28-4.87.59-17.24,2.24-27.46,1.54a45.11,45.11,0,0,1-6.55-.88c.4-2.75.87-6.47,1.31-9.18,6.24-38.75,9.35-78.24,14-117.22A35.48,35.48,0,0,0,530,700.94l-.17-.44c-7.21-19.44-24-33.37-37.51-49.08C469.57,625,454.91,588.1,465.93,555A83.83,83.83,0,0,1,474.63,536.94Z"/><path class="cls-11" d="M688.6,574.16q-7.67,11.22-15.81,22.11c-25.66-13.93-53.5-35.11-72.64-56.51l-.08.07c-4.93-5.35-10.71-12-16.29-19.44l-7.67,5c-8.47,5.55-23.22,17.24-28.94,26.75-12.81-7.22-24.29-16.31-32.69-29.23L502.29,504.2c.56-.58,1.13-1.15,1.7-1.73,14.53-20.84,31.17-41.4,50.52-58.24q5.43-4.75,11.17-9.08c2.51-1.88,5.06-3.71,7.66-5.46.92-.62,1.86-1.24,2.8-1.85a6.43,6.43,0,0,1,1.92-.83,6.14,6.14,0,0,1,4.87.88,5.84,5.84,0,0,1,1.06.87c2.68,2.75,5.57,5.29,8.25,8.05,6.39,6.57,10.17,16.33,10.46,25.42a28.6,28.6,0,0,0,.33,5,21.11,21.11,0,0,0,2,5c2.86,5.78,9.49,14.69,9.49,21.36,2.74,9,6.17,17.81,9,26.78a11.07,11.07,0,0,0,4.09,5.63c20.81,15,42.28,29.77,63.06,45.7C689.63,573.18,689.62,572.67,688.6,574.16Z"/><path class="cls-15" d="M739.48,603c.4,2,.12,7.51-2.37,8.41-3.63,1.31-4.61-4.36-6.38-6.43-4.28-5-11.17-6.55-17-3.07-2.17,1.3-4,3.19-6.19,4.41-3.53,1.92-7.84,1.95-11.72.94s-16.16-7.27-19.68-9.21q-1.67-.87-3.36-1.8,8.15-10.89,15.81-22.11A31.76,31.76,0,0,0,704.48,582c2.82.5,5.69.61,8.54.94C723.94,584.26,737.12,591,739.48,603Z"/><path class="cls-15" d="M640,400.35c-1.06,5.55-2.35,10.15-3.87,15.64s-3.6,11.3-8.39,14.33c-3.8,2.39-8.72,2.51-13,1.19a15.16,15.16,0,0,1-5.9-3.51l0,.05c-3.38,6-6.43,12.29-10.75,17.64-2.54-6.83-9.09-11.85-14-16.93a5.84,5.84,0,0,0-1.06-.87c2.38-2.44,6-6.44,9-9.94,1.08-1.26,2.08-2.45,2.92-3.48s1.4-1.74,1.83-2.34l.53-.59c-2.47-1.54-2.31-4-1.45-6.73s3.34-7.06,6.61-6.88a4.7,4.7,0,0,1,3.85,2.73,2,2,0,0,0,2.62.88l1.43-.67a2,2,0,0,1,1.68,0c2.15.9,4.88-.39,6.79-2,2.13-1.77,4.25-4,7-4.11,4.87-.17,7.83,6.34,13.07,5.81A5,5,0,0,0,640,400.35Z"/><path class="cls-11" d="M604.69,411.5c-2.41,8.18,1.95,17.53,10,20,4.29,1.32,9.21,1.2,13-1.19,4.79-3,6.87-8.87,8.39-14.33.66-2.35,1.57-4.35-1.91-4.6L608,409.56a3.46,3.46,0,0,0-2.56.5A3,3,0,0,0,604.69,411.5Z"/><path class="cls-16" d="M519.06,880.57l.73.13c24.9,4.6,50.22,8.89,75.42,7.7"/><path class="cls-16" d="M586.16,777.34c4.42-.1,8.85.18,13.27.47l37.48,2.42c8.61.56,17.62,1,26.06-.4"/><path class="cls-16" d="M479.81,571.74c-1.33,23.21,7.84,46.56,21,65.31a326.62,326.62,0,0,0,21.4,26.71c6.13,7,22,26.06,22.33,29.15A34.72,34.72,0,0,1,544,701c-3.73,26.09-6.15,51.59-9.47,77.75-3.35,26.39-3.72,40.22-7.07,66.61"/><line class="cls-17" x1="462.19" y1="530.41" x2="474.64" y2="536.93"/><path class="cls-17" d="M565.68,435.14l-29-7.64a6.21,6.21,0,0,0-6.63,2.55l-57.29,84.74"/><path class="cls-17" d="M573.39,429.74c-25.38-23.86-54.68-42.54-86.38-57l.57.24c-21.22-9.29-45.67,16.39-59.17,29.36-20,19.18-40.87,45-40.42,74.19,0,0,6,21.52,74.2,53.88"/><path class="cls-17" d="M460.32,376.18c2.2,1.56,4.34,3.22,6.47,4.87,20.12,15.54,44.35,32.87,66.15,46.7"/><path class="cls-17" d="M396.27,464.75c13.8-27.59,37.92-56.24,60.81-74.54"/><path class="cls-17" d="M449.69,383.74a291.21,291.21,0,0,0,77.44,50.41"/><path class="cls-17" d="M390.24,459.4a339.5,339.5,0,0,0,82.13,55.12"/><path class="cls-17" d="M528,434.78a95.88,95.88,0,0,0,26.46,9.43"/><path class="cls-17" d="M472.36,385.31c5.19-4.42,12.4-8.7,24.11-8.06"/><path class="cls-17" d="M478.91,390.11c6.94-4.78,16-6.15,30-6.35"/><path class="cls-17" d="M505.35,409.73c5.89-6.44,25.15-7.43,34.71-6.33"/><path class="cls-17" d="M551.74,412.87c-15.88-.95-16.88-1.95-36,3.62-.15.11,1.7.21,1.55.32"/><path class="cls-17" d="M561.36,468.9c-.85,24.19,23.78,54.8,39.28,71.54"/><path class="cls-17" d="M574,450.27c23-15.58,43,49.81,49.46,70.08a11.07,11.07,0,0,0,4.09,5.63c20.81,15,42.28,29.77,63.06,45.7"/><path class="cls-17" d="M600.15,539.75c20,22.35,49.43,44.44,76,58.32"/><path class="cls-17" d="M503,505.82c4.15,6.37,7.29,10.74,11.44,17.12,8.4,12.92,19.88,22,32.69,29.23"/><path class="cls-17" d="M583.78,520.39l-7.67,5c-8.47,5.55-23.22,17.24-28.94,26.75a23.19,23.19,0,0,0-1.11,2"/><path class="cls-17" d="M597.66,411.13c-.91,1.26-3.69,4.42-5.75,6.82-3,3.5-6.6,7.5-9,9.94"/><path class="cls-17" d="M690.63,571.68c-1,1.5-1,1-2,2.48q-7.67,11.22-15.81,22.11c-.44.6,0,0-.44.6"/><path class="cls-17" d="M688.18,573.77a31.73,31.73,0,0,0,16.3,8.25c2.82.5,5.7.61,8.54,1,10.93,1.29,24.1,8,26.47,20,.39,2,.12,7.51-2.38,8.41-3.62,1.3-4.61-4.36-6.38-6.44-4.27-5-11.17-6.55-17-3.06-2.18,1.3-4,3.19-6.2,4.41-3.52,1.92-7.83,1.95-11.72.94s-16.16-7.27-19.67-9.21"/><path class="cls-17" d="M607.76,429c-3.06,5.39-5.12,9.78-8.18,15.17-.47.82-.73.77-1.08,1.64"/><path class="cls-17" d="M602.47,465.69C602.45,447,596,441,584,428.76a6.24,6.24,0,0,0-5.94-1.75,6.4,6.4,0,0,0-1.92.82c-28.91,18.69-52.46,46.41-72.14,74.63"/><path class="cls-17" d="M640.07,400.85c-1.07,5.76-2.4,9.48-4,15.13-1.52,5.47-3.59,11.31-8.39,14.34-3.8,2.39-8.71,2.51-13,1.19s-8.5-3.76-9.58-7.74"/><path class="cls-17" d="M606.2,400.66a4.68,4.68,0,0,0-3.84-2.73c-3.28-.18-5.76,4.13-6.61,6.87s-1,5.2,1.45,6.74"/><path class="cls-17" d="M598.5,406.31a3.46,3.46,0,0,1,3.65-4.08"/><path class="cls-17" d="M636.6,411.9l-30.28-2a1.19,1.19,0,0,0-1.55,1.15,20.91,20.91,0,0,0-.11,8.77"/><path class="cls-17" d="M632,405.81a12.74,12.74,0,0,0-.76,5.67"/><path d="M625.21,407.61l.26,0a1.06,1.06,0,0,0,.58-.13,1.36,1.36,0,0,0,.79-.79,1.06,1.06,0,0,0,.13-.58l-.05-.4a1.49,1.49,0,0,0-.39-.66l-.3-.23a1.45,1.45,0,0,0-.76-.21l-.26,0a1.27,1.27,0,0,0-.58.13,1.34,1.34,0,0,0-.79.8,1,1,0,0,0-.13.57l0,.4a1.39,1.39,0,0,0,.39.66l.3.24a1.54,1.54,0,0,0,.76.2Z"/><path d="M637.47,408.85l.26,0a1.06,1.06,0,0,0,.58-.13,1.36,1.36,0,0,0,.79-.79,1.06,1.06,0,0,0,.13-.58l-.05-.39a1.47,1.47,0,0,0-.39-.67l-.3-.23a1.45,1.45,0,0,0-.76-.21l-.26,0a1.27,1.27,0,0,0-.58.13,1.34,1.34,0,0,0-.79.8,1,1,0,0,0-.13.57l0,.4a1.47,1.47,0,0,0,.39.67l.3.23a1.44,1.44,0,0,0,.76.2Z"/><path class="cls-17" d="M620.18,402.88a9.85,9.85,0,0,1,5.11-.82"/><path class="cls-17" d="M635.25,402.79a6,6,0,0,1,4,.39"/><path class="cls-17" d="M535.64,448.21c-21.44,23.25-26.19,29.5-52.38,69.74"/><path class="cls-16" d="M389.69,472.43c12.54-19.32,29.29-38.19,45.88-54.17"/><path class="cls-16" d="M406.58,471.52a226.42,226.42,0,0,1,31.35-38"/><circle class="cls-18" cx="529" cy="508.36" r="5.9"/><circle class="cls-18" cx="585.82" cy="470.65" r="5.84"/><circle class="cls-18" cx="636.6" cy="552.17" r="5.84"/></g><g id="biker1"><path class="cls-11" d="M1260.68,316.57c6.27,6.06,11.76,11.51,15.79,15.48-24.76,19.17-53.61,48.91-76,74.38-.38.43-2.73,2.84-6.17,6.47-5.1,5.38-12.59,13.44-19.51,21.6-3.65-1.77-7.41-3.7-11.23-5.76l.42-.78c37.38-42.62,69.51-76.28,95.12-110.72l1.46-.51Z"/><circle class="cls-17" cx="1425.07" cy="509.53" r="9.93"/><circle class="cls-7" cx="1093.82" cy="728.2" r="126.13"/><circle class="cls-19" cx="1093.82" cy="728.2" r="114.13"/><circle class="cls-7" cx="1093.82" cy="728.2" r="16.99"/><line class="cls-9" x1="1215.22" y1="567.65" x2="1093.82" y2="728.2"/><circle class="cls-7" cx="1476.2" cy="728.2" r="126.13"/><circle class="cls-19" cx="1476.2" cy="728.2" r="114.13"/><circle class="cls-7" cx="1476.2" cy="728.2" r="16.99"/><line class="cls-9" x1="1390.52" y1="530.04" x2="1476.2" y2="728.2"/><line class="cls-9" x1="1257.03" y1="588.64" x2="1414.13" y2="584.64"/><path class="cls-8" d="M1151.48,510.29a41.21,41.21,0,0,0-3.52,2.33c-3.58,2.67-6.92,7.52-4.46,11.24,2,2.95,6.2,3,9.73,2.66l5.09-.44"/><path class="cls-20" d="M1390.37,530.13c-1.72-6.64.86-14,5.12-19.41,2.73-3.44,2.08-4.74,6.31-5.91"/><line class="cls-9" x1="1277.03" y1="745.19" x2="1419.56" y2="594.53"/><line class="cls-9" x1="1177.55" y1="520.42" x2="1277.03" y2="745.19"/><line class="cls-8" x1="1027.76" y1="658.66" x2="1066.92" y2="699.46"/><line class="cls-8" x1="1529.66" y1="650.57" x2="1497.25" y2="699.46"/><line class="cls-8" x1="1421.07" y1="810.98" x2="1460.21" y2="756.19"/><line class="cls-8" x1="1177.55" y1="786.07" x2="1128.7" y2="752.19"/><line class="cls-8" x1="1564.7" y1="779.97" x2="1511.25" y2="749.19"/><line class="cls-8" x1="1018.38" y1="786.07" x2="1063.45" y2="752.19"/><circle class="cls-21" cx="1277.03" cy="745.19" r="29.97"/><line class="cls-22" x1="1220" y1="813.84" x2="1277.03" y2="813.84"/><path class="cls-12" d="M1348.16,273.07c5,7.81-.73,12.49-7.58,14.82a36.05,36.05,0,0,1-9.92,1.86l-19.4.65a1.18,1.18,0,0,0-.94.5c-.58.8-.46,1.23-1,2.41-.66,1.41-2.24,2.69-3.65,2v-.18a8.53,8.53,0,0,0-14.56,2.54,9.46,9.46,0,0,0,.51,6.37c-15.3-6-6-34.26,9.28-40.78a21.8,21.8,0,0,1,19.12,1.15c1.41.82,2.82,1.82,4.45,1.92a11.37,11.37,0,0,0,3.69-.77A18.39,18.39,0,0,1,1348.16,273.07Z"/><path class="cls-13" d="M1300.4,675.72s0-1,.06-1v1c8.72,8.7,18.74,13.41,27.1,20.36a53.27,53.27,0,0,1,10.8,12.65,2.52,2.52,0,0,1-2.17,3.89c-15.23-.36-58-4.21-66.49-5.58,1.24-7.71,3.52-17.37,4.83-24.95.59-3.4.12-6.79.62-10.17C1283.2,672.82,1292.31,676,1300.4,675.72Z"/><path class="cls-13" d="M1303.27,805a1.56,1.56,0,0,1-.9,2.53c-9.21,1.73-21.1,2.07-28.27,2.38l-14.82.63c-6,.26-12,.51-18,.42a154.06,154.06,0,0,1-22.69-2,2.15,2.15,0,0,1-1.79-2.3c1.09-14.74,2.55-34.44,3.38-45.45a91.82,91.82,0,0,0,39.11,4.09q.53,7.79,1,15.56c.06.81,24.34,8.9,27,10.2C1294.11,794.41,1298.65,799.43,1303.27,805Z"/><path class="cls-23" d="M1252.66,534.52l-2.22.11c-.14-.25,1.74-.51,1.61-.77-7.78-15.89-12.87-33.69-18-50.55a4.4,4.4,0,0,1,.38-3.44c4.88-8.56,7.32-14.82,10.67-23.89,32.74,24.51,74,38.58,105.05,64.88a8.91,8.91,0,0,1,2.9,8.74c-12.32,55.42-32.86,98.07-52.66,146.12-8.09.29-17.2-1.9-25.25-2.81,1.9-12.9,3.35-25.72,5.59-38.66a102.79,102.79,0,0,0,.14-34.73c1.88-15.22,5.55-30.34,9-45.28a2.07,2.07,0,0,0-1.31-2.42A212,212,0,0,1,1252.66,534.52Z"/><path class="cls-14" d="M1194.28,412.9c14.7,16.38,34.79,27.59,54.34,38.22-.49.66-1,1.41-1.56,2.26-.33.89-.64,1.76-1,2.6-3.35,9.07-5.79,15.33-10.67,23.89a4.4,4.4,0,0,0-.38,3.44c5.12,16.86,9.21,34.66,17,50.55.13.26.25.52.39.77,7.86,15.86,18.12,30.16,24.53,46.86a93.82,93.82,0,0,1,4.91,18,102.79,102.79,0,0,1-.14,34.73c-2.24,12.94-3.69,25.76-5.59,38.66-.5,3.38-1,6.77-1.62,10.17q-2,11.37-3.83,22.95c-3.17,19.58-9.55,60.13-10.39,60.23a96.47,96.47,0,0,1-40.11-4.09l-1-1c-2.61-52.69,2.38-94.79,10.8-144.8v-4.63c-14.45-31.55-67.8-63.26-78.51-101.41-5-17.9-1-37.4,7.37-54,2.91-5.77,9.14-13.85,15.91-21.83C1181.69,426.34,1189.18,418.28,1194.28,412.9Z"/><path class="cls-11" d="M1278.89,330.2l1.93-1.44c7.59,3.78,15.4,7.3,20.53,13.6a25.36,25.36,0,0,1,2.34,3.44c10.88,19.31,16.5,52.37,28.64,72.53,18.6,17.87,61.35,55.45,67.25,60.62a115.43,115.43,0,0,0-15.65,17h-.08c-11.79-1-34.29-14-43.17-21.65-12.09-10.45-24.32-27-36.41-37.42-5.23-6.09-10.5-12.85-15.54-20a153.29,153.29,0,0,1-27.62,24.69c-6.17,4.3-8.79,4.63-12.49,9.58-19.55-10.63-39.64-21.84-54.34-38.22,3.44-3.63,5.79-6,6.17-6.47,22.41-25.47,51.26-55.21,76-74.38C1277.28,331.42,1278.09,330.8,1278.89,330.2Z"/><path class="cls-24" d="M1263.75,311c5.61,7.22,10.74,14.29,15.14,19.23-.8.6-1.61,1.22-2.42,1.85-4-4-9.52-9.42-15.79-15.48,1.93-2.33,2.35-2.41,3-5.51Z"/><path class="cls-4" d="M1259.08,317.24c-25.61,34.44-57.74,68.1-95.12,110.72l-.42.78c-17.57-9.47-36.45-22.78-52.73-35.46-2.55-2-5.14-4-7.51-6.24,28-43,59.4-82.71,93.88-120.67l.17-.92a107.24,107.24,0,0,1,16.91,10.42c14,10,32.18,26.93,46.42,40.7l-.14.16Z"/><path class="cls-25" d="M1263.75,311l-.11.09c-.61,3.1-1,3.18-3,5.51-14.24-13.77-32.46-30.73-46.42-40.7a107.24,107.24,0,0,0-16.91-10.42,46.75,46.75,0,0,0-9.75-3.33c-.38-.08-.75-.16-1.12-.22a31.2,31.2,0,0,0-3.74-.45,58.07,58.07,0,0,1,28.23,4.47c14.84,6.19,26.67,15.74,38.11,27C1254.19,298,1259.13,305,1263.75,311Z"/><path class="cls-26" d="M1187.6,262.12a46.75,46.75,0,0,1,9.75,3.33l-.17.92c-34.48,38-65.91,77.69-93.88,120.67-2.21-2.07-4.24-3.3-5.87-5.8,28.27-40.66,55.62-81.68,88.88-118.37l.17-1C1186.85,262,1187.22,262,1187.6,262.12Z"/><path class="cls-24" d="M1182.74,261.45a31.2,31.2,0,0,1,3.74.45l-.17,1c-33.26,36.69-60.61,77.71-88.88,118.37a24.1,24.1,0,0,1-1.67-2.93,17.9,17.9,0,0,1,1.63-18.71c4.25-6,7.48-12.66,11.16-19.37A307.64,307.64,0,0,1,1136,299.35C1148.15,283.74,1160.92,260.19,1182.74,261.45Z"/><path class="cls-15" d="M1437.74,494.34c3.42,2,12.75,14.1,5.4,17.43-4.51,2-6.31-6.88-9.09-8.58a17.72,17.72,0,0,0-10-2,28.67,28.67,0,0,0-5.58,1.89,39.17,39.17,0,0,1-18.39,2.23c-6.54-.68-9-3.59-13.77-8.21a3.93,3.93,0,0,0-2.39-1.12,115.43,115.43,0,0,1,15.65-17l.68.6c3.45,3,13.47,4.3,18.12,6.49C1424.62,489,1431.89,490.85,1437.74,494.34Z"/><path class="cls-15" d="M1281.16,328.51c4.28-6.9,10.49-12.81,14.82-19.68l.41.2,2-.67c2.12,6.56,6.36,13.22,12,17.35a158.58,158.58,0,0,1-9.11,16.65c-5.13-6.3-12.94-9.82-20.53-13.6Z"/><path class="cls-27" d="M1308.21,330.22c.74-1.46,1.48-3,2.25-4.51-5.44-4-9.56-10.27-11.76-16.58C1298.33,317,1302.14,324.8,1308.21,330.22Z"/><path class="cls-15" d="M1296,308.83a9.56,9.56,0,0,1-4.39-4.76,9.46,9.46,0,0,1-.51-6.37,8.53,8.53,0,0,1,14.56-2.54v.18c1.41.66,3-.62,3.65-2,.56-1.18.44-1.61,1-2.41a1.18,1.18,0,0,1,.94-.5l19.4-.65a36.05,36.05,0,0,0,9.92-1.86l1.74,0c-.59,10.7-.7,36.14-13,40.66-7.14,2.62-13.62,1-18.86-2.88-5.66-4.13-9.9-10.79-12-17.35l-2,.67Z"/><path class="cls-11" d="M1298.28,302.82c-.55,3.27.82,8.17,1.51,9.83a32.07,32.07,0,0,0,10.67,13.06c5.24,3.84,11.72,5.5,18.86,2.88,4.28-1.57,6.85-5.63,8.5-9.66,1-2.53,5.09-12.86,2.62-15a56.75,56.75,0,0,1-15.12,2.75c-3.65.27-7.38.54-10.93-.38-4.63-1.19-8.34-4.41-12.7-6.25a1.94,1.94,0,0,0-1.24-.21C1299.17,300.18,1298.53,301.33,1298.28,302.82Z"/><path d="M1325.57,300.69V301a1,1,0,0,0,.13.57,1.34,1.34,0,0,0,.79.8,1.27,1.27,0,0,0,.58.13l.4-.06a1.57,1.57,0,0,0,.66-.38l.23-.31a1.42,1.42,0,0,0,.21-.75v-.27a1.27,1.27,0,0,0-.13-.58,1.34,1.34,0,0,0-.8-.79,1,1,0,0,0-.57-.13l-.4.05a1.39,1.39,0,0,0-.66.39l-.24.3a1.54,1.54,0,0,0-.2.76Z"/><path d="M1338.51,299v.27a1.17,1.17,0,0,0,.13.58,1.36,1.36,0,0,0,.79.79,1.15,1.15,0,0,0,.58.13l.4-.06a1.57,1.57,0,0,0,.66-.38l.24-.3a1.57,1.57,0,0,0,.2-.76V299a1.06,1.06,0,0,0-.13-.58,1,1,0,0,0-.31-.48,1.08,1.08,0,0,0-.48-.31,1.06,1.06,0,0,0-.58-.13l-.4,0a1.49,1.49,0,0,0-.66.39l-.23.3a1.48,1.48,0,0,0-.21.76Z"/><path class="cls-28" d="M1254.72,349.79c4-.69,7.87-1.76,11.81-2.62a66.07,66.07,0,0,1,12-1.5,40.9,40.9,0,0,1,9.78,1.24,35.58,35.58,0,0,1,4.67,1.33,25,25,0,0,1,3.72,1.73q1.18.67,2.34,1.44a13.76,13.76,0,0,1,1.6,1.2,23.5,23.5,0,0,1,2,1.88c.29.31.57.64.85,1,0,0,.37.45.18.21a5.55,5.55,0,0,0,.38.52,3.65,3.65,0,0,0,4.86,1.28c1.54-.9,2.4-3.3,1.28-4.87a30.27,30.27,0,0,0-18.07-11.68,25.38,25.38,0,0,0-5.67-.83c-1.87,0-3.7.23-5.55.37a59.34,59.34,0,0,0-13,2.68,70.65,70.65,0,0,0-13.59,5.66c-.57.32-.16,1.1.43,1Z"/><path class="cls-28" d="M1206.5,396.06c7.9.84,15.84,1.79,23.77,2.33a123.6,123.6,0,0,0,26.15-.84c2.93-.43,5.85-1,8.74-1.63,1.65-.37,3.3-.76,4.93-1.21s2.85-.92,3.76-2.43a.53.53,0,0,0-.19-.72,4.88,4.88,0,0,0-3.52-.27c-1.51.4-3,.86-4.51,1.26-2.58.68-5.17,1.28-7.79,1.78a97.57,97.57,0,0,1-14,1.66c-8,.37-16-.28-24.07-.73a85.8,85.8,0,0,0-13.22.06.37.37,0,0,0,0,.74Z"/><path class="cls-28" d="M1201.17,403.82a40.11,40.11,0,0,0,6.76,2.28c2.45.57,4.91,1,7.4,1.36a99.71,99.71,0,0,0,14.85.83,119,119,0,0,0,29.9-4.36c5.28-1.47,10.88-3.1,15.72-5.72a1.16,1.16,0,0,0-.89-2.11c-4.65,1.53-9.13,3.47-13.85,4.85a121.87,121.87,0,0,1-14.25,3.24,124.1,124.1,0,0,1-29.45,1.19c-5.4-.39-10.74-1.3-16.11-1.86a.16.16,0,0,0-.08.3Z"/><path class="cls-17" d="M1296.18,309.52c-6.37,8.56-9.55,11.8-15,19"/><path class="cls-17" d="M1301.35,342.36a158.58,158.58,0,0,0,9.11-16.65l0,0"/><path class="cls-17" d="M1342.32,287.93c-.59,10.7-.7,36.14-13,40.66-15.34,5.63-27.59-8.48-31.27-21.5"/><path class="cls-17" d="M1305.65,295.34v-.18a8.53,8.53,0,0,0-14.56,2.54,9.82,9.82,0,0,0,5.31,11.33"/><path class="cls-17" d="M1301,297.77c-1.52-.79-3.49-1.64-4.87-.63a4.73,4.73,0,0,0-1.83,4.53"/><path class="cls-17" d="M1340.9,303.78c-2.91,4.31-28.32,4.58-36.63-2.33"/><path class="cls-17" d="M1288.67,416.92a140.38,140.38,0,0,1-27.56,24.62c-7,4.88-9.44,4.65-14,11.84"/><path class="cls-17" d="M1194.28,412.9c14.7,16.38,34.79,27.59,54.34,38.22"/><path class="cls-17" d="M1259.89,360.83c8,26.33,26.43,55.16,44.38,76.05,12.09,10.45,24.32,27,36.41,37.42,8.88,7.68,31.38,20.65,43.17,21.65a4,4,0,0,1,2.47,1.13c4.72,4.62,7.23,7.53,13.77,8.21a39.17,39.17,0,0,0,18.39-2.23,28.57,28.57,0,0,1,5.57-1.89,17.7,17.7,0,0,1,10,2c2.79,1.7,4.59,10.61,9.09,8.58,7.36-3.33-2-15.39-5.39-17.43-5.85-3.49-13.12-5.37-19.36-8.3-4.65-2.19-14.67-3.46-18.12-6.49,0,0-47.94-42-67.93-61.22-12.14-20.16-17.76-53.22-28.64-72.53a25.36,25.36,0,0,0-2.34-3.44c-5.13-6.3-12.94-9.82-20.53-13.6"/><path class="cls-17" d="M1383.93,496a115.43,115.43,0,0,1,15.65-17"/><path class="cls-17" d="M1164,428c37.38-42.62,70.51-77.28,96.12-111.72"/><path class="cls-16" d="M1138.89,377.33q33.1-41.16,62.72-85"/><path class="cls-16" d="M1148.48,382.19q29.2-36.18,58.14-72.57"/><path class="cls-17" d="M1263.64,311.06c-.63,3.17-1.05,3.18-3.1,5.67"/><path class="cls-17" d="M1335.13,298.12l.31,7.56"/><path class="cls-17" d="M1322.05,297.9a7.66,7.66,0,0,1,5.37-1.46"/><path class="cls-17" d="M1336.59,295.16a6.1,6.1,0,0,1,4.31-.28"/><path class="cls-16" d="M1195.86,436.38c-11.65,14.27-23.72,29.44-26.67,47.62-4.89,30.09,16.41,57.91,38.69,78.72,11.19,10.45,21.26,20,31.26,31.92a13.68,13.68,0,0,1,2.62,4,13.39,13.39,0,0,1,.13,6.33c-3.5,25.37-4,49.94-7.81,75.4-4.1,27.65-9.37,55.4-8.07,83.49"/><path class="cls-16" d="M1217.17,802c.86.23,1.72.42,2.59.59,5.89,1.14,12,1.09,18,1.05l63.94-.53"/><path class="cls-16" d="M1338.36,709.72c-24.24-2.75-37.37-4.33-66.75-10"/><path class="cls-17" d="M1276.29,331.43a474.66,474.66,0,0,0-79.89,80.25"/><path class="cls-28" d="M1266.35,400.1c-10.17,2.5-24.81,5.57-26.87,5.7-8,.49-16,.26-23.89.14-1,0-18.9-2.13-16.51-5.33l4.46-6a2.42,2.42,0,0,1,1.15-1,2.35,2.35,0,0,1,1.28.11c15,4,28.88,4.57,44.31,2.3,6.81-1,13.24-1.68,19.47-4.53a3,3,0,0,1,2.13-.38,2.94,2.94,0,0,1,1.29,1.16,43.49,43.49,0,0,1,3,4.79C1276.43,397.46,1272.11,398.69,1266.35,400.1Z"/><path class="cls-24" d="M1163.75,428.63a23.24,23.24,0,0,0,10,5.71"/><path class="cls-24" d="M1264.5,311.29c-9.78-13-20.6-25.53-33.91-34.93s-29.38-15.57-45.65-14.81"/><path class="cls-24" d="M1096.92,380.71c16.58,15.72,30.88,27.73,48.55,37.46l18.3,10.09"/><line class="cls-29" x1="1289.74" y1="377" x2="1307.56" y2="390.11"/><line class="cls-29" x1="1247.06" y1="416.51" x2="1247.06" y2="437.45"/><line class="cls-29" x1="1358.28" y1="464.82" x2="1383.93" y2="476.49"/></g></svg>