<svg xmlns="http://www.w3.org/2000/svg" viewBox="0 0 1920 1080"><defs><style>.cls-1{fill:#f7f8fa;}.cls-2,.cls-20{fill:#99d5f7;}.cls-18,.cls-3{fill:#fff;}.cls-21,.cls-23,.cls-25,.cls-3{stroke:#31434d;}.cls-11,.cls-13,.cls-21,.cls-22,.cls-23,.cls-24,.cls-25,.cls-27,.cls-3,.cls-6,.cls-8,.cls-9{stroke-linecap:round;stroke-miterlimit:10;}.cls-4{fill:#7b176e;}.cls-5{fill:#53bcf7;}.cls-11,.cls-13,.cls-21,.cls-22,.cls-23,.cls-24,.cls-25,.cls-27,.cls-6,.cls-8,.cls-9{fill:none;}.cls-6{stroke:#53bcf7;}.cls-11,.cls-13,.cls-6,.cls-8{stroke-width:4px;}.cls-7{fill:#f6a001;}.cls-8{stroke:#f6a001;}.cls-22,.cls-9{stroke:#fff;}.cls-10{fill:#f6c363;}.cls-11{stroke:#f6c363;}.cls-12{fill:#f6c161;}.cls-13{stroke:#f6c161;}.cls-14{fill:#ffece0;}.cls-15{fill:#4eb1e8;}.cls-16{fill:#09102d;}.cls-17{fill:#276ce4;}.cls-19{fill:#ffe1cf;}.cls-20{fill-rule:evenodd;}.cls-22{stroke-width:2px;}.cls-23{stroke-width:3px;}.cls-24{stroke:#052251;stroke-width:7px;}.cls-25{stroke-width:5px;}.cls-26{fill:#464646;}.cls-27{stroke:#464646;}</style></defs><title>2019-nCov4</title><g id="background"><path class="cls-1" d="M1600.37,674.18c-23.37,149.41-126.7,237.59-244.75,278-159.65,54.6-341.8,56.77-506,36.92C683.84,969,474.67,924.73,407,717.77c-48.82-149.32,26.56-321.71,120.62-436.95C620.82,166.62,757.4,90.76,902.77,68.25c101.18-15.66,206.13-5.1,301.29,33.11,93,37.36,175.71,98,241.49,173.4,83.58,95.84,154.74,218.35,157.61,359.9A227,227,0,0,1,1600.37,674.18Z"/><ellipse class="cls-2" cx="956.41" cy="867.05" rx="263.33" ry="19.42"/><circle class="cls-3" cx="613" cy="101.34" r="10.92"/><ellipse class="cls-3" cx="629.99" cy="163.23" rx="10.92" ry="12.13"/><circle class="cls-3" cx="1671.15" cy="129.25" r="9.71"/><circle class="cls-3" cx="1452.73" cy="296.71" r="14.56"/><circle class="cls-3" cx="1503.69" cy="551.54" r="9.71"/><circle class="cls-3" cx="583.87" cy="187.5" r="9.71"/><circle class="cls-3" cx="1600.77" cy="857.34" r="12.13"/><circle class="cls-3" cx="566.89" cy="522.42" r="9.71"/><circle class="cls-3" cx="622.71" cy="840.35" r="9.71"/><circle class="cls-3" cx="654.26" cy="716.58" r="9.71"/><circle class="cls-3" cx="1719.69" cy="578.24" r="9.71"/><circle class="cls-3" cx="579.02" cy="791.81" r="9.71"/><circle class="cls-3" cx="460.1" cy="590.37" r="9.71"/><rect class="cls-3" x="505.4" y="560.53" width="45.3" height="145.45"/><rect class="cls-4" x="410.77" y="465.14" width="55.01" height="34.1"/><rect class="cls-3" x="440.01" y="255.17" width="174.74" height="60.96"/><rect class="cls-3" x="1577.61" y="357.32" width="41.92" height="142.18"/><rect class="cls-3" x="1520.73" y="603.32" width="126.97" height="60.58"/><rect class="cls-3" x="1644.45" y="460.93" width="64.73" height="63.82"/><rect class="cls-3" x="1399.32" y="884.04" width="131.07" height="21.76"/><rect class="cls-5" x="1620.68" y="547.18" width="34.6" height="34.6"/><line class="cls-6" x1="1441.02" y1="650" x2="1469.14" y2="681.36"/><line class="cls-6" x1="1410.66" y1="663.18" x2="1404.19" y2="711.72"/><line class="cls-6" x1="1433.78" y1="673.89" x2="1450.26" y2="734.37"/><circle class="cls-7" cx="1463.84" cy="807.99" r="35.52"/><line class="cls-8" x1="1458.47" y1="831.15" x2="1458.91" y2="865.98"/><line class="cls-8" x1="1416.13" y1="773.52" x2="1444.23" y2="791.19"/><line class="cls-8" x1="1479.71" y1="790.09" x2="1498.16" y2="757.22"/><line class="cls-8" x1="1437.69" y1="818.08" x2="1414.03" y2="820.48"/><line class="cls-8" x1="1467.24" y1="754.23" x2="1465.17" y2="797.04"/><polyline class="cls-8" points="1502.7 783.16 1480.62 803.87 1521.53 803.17"/><line class="cls-8" x1="1446.8" y1="823.8" x2="1429.95" y2="847.78"/><line class="cls-8" x1="1468.03" y1="820.68" x2="1480.18" y2="850.55"/><line class="cls-8" x1="1476.7" y1="816.08" x2="1506.74" y2="836.39"/><path class="cls-8" d="M1421.25,796.55c9.92,1.6,11,3.44,20.94,5"/><path class="cls-8" d="M1442.4,769.63c3.2,8.38,6.95,11.31,10.16,19.69"/><circle class="cls-7" cx="1523.95" cy="802.83" r="9.15"/><circle class="cls-7" cx="1416.13" cy="773.52" r="9.15"/><circle class="cls-7" cx="1506.8" cy="779.96" r="9.15"/><circle class="cls-7" cx="1440.73" cy="765.58" r="9.15"/><circle class="cls-7" cx="1467.9" cy="757.18" r="9.15"/><circle class="cls-7" cx="1417.3" cy="794.07" r="9.15"/><circle class="cls-7" cx="1499.09" cy="755.01" r="9.15"/><circle class="cls-7" cx="1429.53" cy="848.46" r="9.15"/><circle class="cls-7" cx="1411.71" cy="820.15" r="9.15"/><circle class="cls-7" cx="1482.02" cy="854.59" r="9.15"/><circle class="cls-7" cx="1511.7" cy="839.51" r="9.15"/><circle class="cls-7" cx="1458.48" cy="866.66" r="9.15"/><circle class="cls-9" cx="1453.74" cy="800.52" r="9.37"/><circle class="cls-9" cx="1478.77" cy="801.73" r="3.05"/><circle class="cls-9" cx="1467.29" cy="821.42" r="5.34"/><circle class="cls-10" cx="1532.06" cy="188.09" r="42.2"/><line class="cls-11" x1="1525.69" y1="215.59" x2="1526.21" y2="256.98"/><line class="cls-11" x1="1475.39" y1="147.14" x2="1508.76" y2="168.12"/><line class="cls-11" x1="1550.92" y1="166.81" x2="1572.84" y2="127.76"/><line class="cls-11" x1="1501.01" y1="200.07" x2="1472.88" y2="202.92"/><line class="cls-11" x1="1536.11" y1="124.21" x2="1533.65" y2="175.08"/><polyline class="cls-11" points="1578.24 158.59 1552 183.18 1600.6 182.36"/><line class="cls-11" x1="1511.82" y1="206.87" x2="1491.81" y2="235.35"/><line class="cls-11" x1="1537.04" y1="203.16" x2="1551.48" y2="238.64"/><line class="cls-11" x1="1547.34" y1="197.7" x2="1583.03" y2="221.83"/><path class="cls-11" d="M1481.46,174.5c11.79,1.9,13.1,4.08,24.89,6"/><path class="cls-11" d="M1506.59,142.51c3.81,10,8.26,13.44,12.07,23.4"/><circle class="cls-10" cx="1603.48" cy="181.95" r="10.87"/><circle class="cls-10" cx="1475.39" cy="147.14" r="10.87"/><circle class="cls-10" cx="1583.1" cy="154.78" r="10.87"/><circle class="cls-10" cx="1504.61" cy="137.7" r="10.87"/><circle class="cls-10" cx="1536.89" cy="127.72" r="10.87"/><circle class="cls-10" cx="1476.77" cy="171.55" r="10.87"/><circle class="cls-10" cx="1573.95" cy="125.14" r="10.87"/><circle class="cls-10" cx="1491.3" cy="236.16" r="10.87"/><circle class="cls-10" cx="1470.14" cy="202.53" r="10.87"/><circle class="cls-10" cx="1553.66" cy="243.45" r="10.87"/><circle class="cls-10" cx="1588.92" cy="225.53" r="10.87"/><circle class="cls-10" cx="1525.7" cy="257.79" r="10.87"/><circle class="cls-9" cx="1520.07" cy="179.21" r="11.13"/><circle class="cls-9" cx="1549.81" cy="180.64" r="3.62"/><circle class="cls-9" cx="1536.16" cy="204.03" r="6.34"/><circle class="cls-12" cx="527.54" cy="407.12" r="30.27"/><line class="cls-13" x1="522.97" y1="426.85" x2="523.34" y2="456.54"/><line class="cls-13" x1="486.89" y1="377.75" x2="510.83" y2="392.8"/><line class="cls-13" x1="541.07" y1="391.86" x2="556.79" y2="363.85"/><line class="cls-13" x1="505.26" y1="415.72" x2="485.09" y2="417.76"/><line class="cls-13" x1="530.44" y1="361.31" x2="528.68" y2="397.79"/><polyline class="cls-13" points="560.66 385.96 541.84 403.6 576.7 403.01"/><line class="cls-13" x1="513.02" y1="420.6" x2="498.66" y2="441.02"/><line class="cls-13" x1="531.11" y1="417.93" x2="541.47" y2="443.38"/><line class="cls-13" x1="538.5" y1="414.01" x2="564.1" y2="431.32"/><path class="cls-13" d="M491.24,397.37c8.46,1.37,9.4,2.93,17.85,4.29"/><path class="cls-13" d="M509.27,374.43c2.73,7.14,5.92,9.64,8.66,16.78"/><circle class="cls-12" cx="578.77" cy="402.72" r="7.8"/><circle class="cls-12" cx="486.89" cy="377.75" r="7.8"/><circle class="cls-12" cx="564.15" cy="383.23" r="7.8"/><circle class="cls-12" cx="507.85" cy="370.98" r="7.8"/><circle class="cls-12" cx="531" cy="363.82" r="7.8"/><circle class="cls-12" cx="487.88" cy="395.26" r="7.8"/><circle class="cls-12" cx="557.58" cy="361.97" r="7.8"/><circle class="cls-12" cx="498.3" cy="441.6" r="7.8"/><circle class="cls-12" cx="483.12" cy="417.48" r="7.8"/><circle class="cls-12" cx="543.03" cy="446.83" r="7.8"/><circle class="cls-12" cx="568.32" cy="433.98" r="7.8"/><circle class="cls-12" cx="522.98" cy="457.12" r="7.8"/><circle class="cls-9" cx="518.93" cy="400.75" r="7.98"/><circle class="cls-9" cx="540.27" cy="401.78" r="2.59"/><circle class="cls-9" cx="530.48" cy="418.56" r="4.55"/></g><g id="man"><path class="cls-14" d="M982,268.81c-3,1.6-5.9,3.79-7.08,7a11.35,11.35,0,0,0,.92,9,28.34,28.34,0,0,0,5.82,7.2c3.81,3.69,8.2,7.36,13.45,8.69,2.4.6,4.43.08,6.76.19,2.65.12,5,1.16,7.44-.43,2.08-1.33,3-3.84,3.78-6.18,1.7-5.06,4.31-9.71,4.4-15.2,0-2.57-1.51-4.14-3.53-5.53C1004.11,266.7,993.22,262.83,982,268.81Z"/><path class="cls-15" d="M973.9,634.26c.25-3.34-4.16-4.82-7.52-4.75-15.61.32-30.16,9.94-38.73,23S916,681.64,916.38,697.26c.37,13.62,3.84,28.13,14.06,37.15,11,9.68,28,10.66,41.19,4.27s22.53-19.11,27.15-33c9.59-28.78-1.42-63.15-25.93-81"/><path class="cls-7" d="M1132.54,548.43a10.63,10.63,0,0,1,1.13,1.08c-9.49-2.22-23.54-5.64-31.62-7.5a3.35,3.35,0,0,1-1.78-1,3.42,3.42,0,0,1,1.25-5.39,21.4,21.4,0,0,1,5.76-1.57,27.56,27.56,0,0,0,8.33,6.62C1121.1,543.39,1127.72,544.42,1132.54,548.43Z"/><path class="cls-15" d="M1038.84,772.72c.29,23.67-3.42,47.48-15.92,67.3a71.48,71.48,0,0,1-10.26,12.69q-3.39-.13-6.77-.35a49.08,49.08,0,0,0-6.7-8.59c-5-5.17-11.71-8.22-17.7-12.2-5.24-3.48-10.24-8.23-11.92-14.15a3.52,3.52,0,0,1,1.44-3.89C995.77,797.07,1017.65,784.79,1038.84,772.72Z"/><path class="cls-15" d="M1119.36,720.92c20.05,26.94,45.44,64.79,33.43,92.5-9.34,21.57-45.91,28.13-66,32.63a286.56,286.56,0,0,1-74.09,6.66A71.48,71.48,0,0,0,1022.92,840c12.5-19.82,16.21-43.63,15.92-67.3,23.21-13.21,45.6-26.16,70.05-44.05C1112.38,726.12,1115.88,723.55,1119.36,720.92Z"/><path class="cls-5" d="M1168.44,636.65c3,14.63-1.17,30-8.71,42.93-9.81,16.75-24.76,29.57-40.37,41.34-3.48,2.63-7,5.2-10.47,7.75-24.45,17.89-46.84,30.84-70.05,44.05-.07-6-.4-11.94-.9-17.83-2.5-29.23-8.9-58.23-8-87.56.47-15.79,3.06-31.45,6.43-46.88,3.86-17.71,8.93-35.55,19.09-50.57a74,74,0,0,1,10.46-12.33c28.89,12.27,57.46,25.7,84.42,47C1160.06,612.31,1166,624.46,1168.44,636.65Z"/><path class="cls-16" d="M981.83,870.82c-11.38,3.14-23.34,3-34.34-1.71h-.15v-1.34A287.12,287.12,0,0,0,981.83,870.82Z"/><path class="cls-16" d="M1008.22,856.74a36.56,36.56,0,0,1,3.33,13.6c-10.16.59-20,.77-29.72.48A71,71,0,0,0,1008.22,856.74Z"/><path class="cls-16" d="M969.85,814.81a3.47,3.47,0,0,0-.28,2.61c1.68,5.92,6.68,10.67,11.92,14.15,6,4,12.71,7,17.7,12.2a49.08,49.08,0,0,1,6.7,8.59,40,40,0,0,1,2.33,4.38,71,71,0,0,1-26.39,14.08,287.12,287.12,0,0,1-34.49-3.05V808.46a64.65,64.65,0,0,0,21.27,5.65Z"/><path class="cls-16" d="M808.8,736.56v77.81q-9.06-.32-18.09-1.25c-7.5,12.33-16,29.08-20.05,43.28a8.23,8.23,0,0,1-7.1,5.86,116,116,0,0,1-27-.36,6.48,6.48,0,0,1-5.59-6.22c-1.54-43.16,11.32-82.18,32.87-117a11,11,0,0,1,9.89-5.22c8.46.4,16.93,1.26,25.37,2.12Z"/><path class="cls-5" d="M896,557l.91,20h-37v-20a2,2,0,0,1,2-2h32.19A2,2,0,0,1,896,557Z"/><path class="cls-17" d="M903.51,550.78V577H897L896,557a2,2,0,0,0-2-1.88H861.88a2,2,0,0,0-2,2v20h-7.28V550.78a2.88,2.88,0,0,1,2.88-2.88h45.12A2.88,2.88,0,0,1,903.51,550.78Z"/><path class="cls-18" d="M947.34,808.46V871.9a398.28,398.28,0,0,1-138.54,0V620.71l.55-.28s0,0,0,0l.47-.24a391.77,391.77,0,0,1,38.64-11.9,2.6,2.6,0,0,0,1.78-3.49c-3-7.43-6.88-14.77-10.65-24.29A2.56,2.56,0,0,1,842,577h72.18a2.56,2.56,0,0,1,2.38,3.5c-3.77,9.52-7.65,16.86-10.65,24.29a2.61,2.61,0,0,0,1.77,3.5c13.2,3.42,27,8.26,39.65,12.89l0,.5V808.46Z"/><path class="cls-7" d="M947.34,669.94c-45.84,5.39-92.4,3.37-138.54,1.47v92.85c46.16,5.42,92.84,9.79,138.54-.21V669.94Z"/><path class="cls-17" d="M1172.05,548.07a10.58,10.58,0,0,1-3.18,2.44l-.3,0a12.17,12.17,0,0,1-7.28,9.74c-2.71,3.75-2.9,3.83-10.55,5.06-2,3.85-7.25,6.07-11.44,7.18a14.28,14.28,0,0,1-8.53-.61c-3.5-1.18-6.65-3.42-2.63-6.1,5.85-3.88,10.65-10.69,5.53-16.25a10.63,10.63,0,0,0-1.13-1.08c-4.82-4-11.44-5-16.93-7.78a27.56,27.56,0,0,1-8.33-6.62,55.38,55.38,0,0,1-5.63-7.85h0c6.15-9.55,13.2-18.68,17.28-29.08,0-.09.07-.18.1-.27l.48.18a141.27,141.27,0,0,1,33.1,11.63c6,2.9,10.34,8.5,13.7,14.1C1170.17,529.17,1178.11,541.21,1172.05,548.07Z"/><path class="cls-5" d="M970.25,284.29c-.9,2.29-3.13,6.55-5,11.38l-.69-.26c-8.8-11.1-17.45-22.16-24.85-34.13a101.44,101.44,0,0,1,5.64-10.51c9.12,9.93,21.74,18.28,31.13,27.57h0c-1.11.72-2.22,1.45-3.31,2.2A8.14,8.14,0,0,0,970.25,284.29Z"/><path class="cls-18" d="M1000.28,293.36a10.38,10.38,0,0,0,10.11,4.13l1.63-1.31a63.91,63.91,0,0,1-14.77,20.64,19.43,19.43,0,0,1-6.86,4.35c-5.12,1.65-10.69-.3-15.44-2.82l-.54-.29a63.84,63.84,0,0,1-10.53-7.16,3.79,3.79,0,0,1-1.35-2.89c0-4,1.25-8.36,2.76-12.34,1.83-4.83,4.06-9.09,5-11.38a8.14,8.14,0,0,1,3-3.74c1.09-.75,2.2-1.48,3.31-2.2.91-.6,1.82-1.18,2.74-1.75,5,10.52,8.55,13.24,17.3,14.37a5.06,5.06,0,0,1,2.27.65A6.63,6.63,0,0,1,1000.28,293.36Z"/><path class="cls-5" d="M1013.21,535c17.49,8.09,35.14,15.1,52.68,22.54a74,74,0,0,0-10.46,12.33c-10.16,15-15.23,32.86-19.09,50.57-3.37,15.43-6,31.09-6.43,46.88-.87,29.33,5.53,58.33,8,87.56.5,5.89.83,11.85.9,17.83-21.19,12.07-43.07,24.35-67.83,40.81a3.47,3.47,0,0,0-1.16,1.28l-1.24-.7a64.65,64.65,0,0,1-21.27-5.65V710.94a557.42,557.42,0,0,0,40.11-44.59,1.59,1.59,0,0,0-.92-2.55c-13.07-2.63-26.13-5-39.19-7.56V621.71l0-.5c-12.67-4.63-26.45-9.47-39.65-12.89a2.61,2.61,0,0,1-1.77-3.5c3-7.43,6.88-14.77,10.65-24.29a2.56,2.56,0,0,0-2.38-3.5H903.51V550.78a2.88,2.88,0,0,0-2.88-2.88H855.51a2.88,2.88,0,0,0-2.88,2.88V577H842a2.56,2.56,0,0,0-2.38,3.5c3.77,9.52,7.65,16.86,10.65,24.29a2.6,2.6,0,0,1-1.78,3.49,391.77,391.77,0,0,0-38.64,11.9l-.47.24s0,0,0,0c-11.7-22.27-13-49.93-8.47-75.15,5.52-31.06,18.53-60.24,26.82-90.68,9.39-34.51,13.55-72.44,36.67-99.73,11.42-13.48,25.75-20,40.78-28.75,2-1.19,4.68-1.94,5.74-4,7.55-15,14.68-30.82,22-45.82,2.37-4.87,4.52-10,6.88-15,7.4,12,16,23,24.85,34.13l.69.26c-1.51,4-2.76,8.36-2.76,12.34a3.79,3.79,0,0,0,1.35,2.89,63.84,63.84,0,0,0,10.53,7.16l-.29.53L961.86,345.5a2,2,0,0,0,.43,2.31c4.1,3.74,20.53,17.45,23.77,27.33,3.79,11.54,4.83,23.78,5.83,35.89l5,60q62,9.31,123.37,22.39c-.36,1.17-.77,2.31-1.21,3.44,0,.09-.06.18-.1.27-4.08,10.4-11.13,19.53-17.28,29.08h0a89.19,89.19,0,0,0-8.52,16.05A658.44,658.44,0,0,1,1013.21,535Z"/><path class="cls-5" d="M1021.35,268.63c-5.3-.8-9.6-3.35-14.43-5.77A160.71,160.71,0,0,0,990,270.45q-5.5,2.88-10.77,6.15c-.92.57-1.83,1.15-2.74,1.75h0c-9.39-9.29-22-17.64-31.13-27.57,4.27-6.76,9.64-12.58,17.49-16.2,10.88-5,23.42-5.48,35.21-3.35,16.67,3,21.79,13.79,30,26.85a17.83,17.83,0,0,1,2.78,6,11.62,11.62,0,0,1-2.45,9.1c-5.52,7.07-8.59,7.69-11.1,9.69h0C1018.8,278.13,1020.13,273.36,1021.35,268.63Z"/><path class="cls-19" d="M1021.35,268.63c-1.22,4.73-2.55,9.5-4.09,14.2-9.07-3.8-18.15-8.58-27.23-12.38a160.71,160.71,0,0,1,16.89-7.59C1011.75,265.28,1016.05,267.83,1021.35,268.63Z"/><path class="cls-20" d="M496.51,133.05a1.33,1.33,0,1,0-2.66,0v6.17a1.33,1.33,0,1,0,2.66,0v-6.17Zm9.06,5a1.4,1.4,0,0,0,0-1.94,1.31,1.31,0,0,0-1.88,0l-4.23,4.37a1.41,1.41,0,0,0,0,1.93,1.29,1.29,0,0,0,1.88,0l4.23-4.36Zm3,10.15a1.37,1.37,0,0,0,0-2.74h-6a1.37,1.37,0,0,0,0,2.74Zm-4.86,9.34a1.29,1.29,0,0,0,1.88,0,1.39,1.39,0,0,0,0-1.93l-4.23-4.37a1.31,1.31,0,0,0-1.88,0,1.42,1.42,0,0,0,0,1.94l4.23,4.36Zm-9.84,3.07a1.33,1.33,0,1,0,2.66,0v-6.16a1.33,1.33,0,1,0-2.66,0v6.16Zm-9.06-5a1.39,1.39,0,0,0,0,1.93,1.29,1.29,0,0,0,1.88,0l4.23-4.36a1.4,1.4,0,0,0,0-1.94,1.31,1.31,0,0,0-1.88,0l-4.23,4.37Zm-3-10.15a1.37,1.37,0,0,0,0,2.74h6a1.37,1.37,0,0,0,0-2.74Zm4.85-9.35a1.31,1.31,0,0,0-1.88,0,1.4,1.4,0,0,0,0,1.94l4.23,4.36a1.29,1.29,0,0,0,1.88,0,1.39,1.39,0,0,0,0-1.93Z"/><path class="cls-20" d="M1693.83,363.46a2,2,0,1,0-3.9,0v9a2,2,0,1,0,3.9,0v-9Zm13.28,7.34a2.05,2.05,0,0,0,0-2.84,1.9,1.9,0,0,0-2.76,0l-6.19,6.39a2.05,2.05,0,0,0,0,2.84,1.89,1.89,0,0,0,2.75,0l6.2-6.39Zm4.36,14.87a2,2,0,0,0,0-4h-8.76a2,2,0,0,0,0,4Zm-7.12,13.7a1.9,1.9,0,0,0,2.76,0,2.05,2.05,0,0,0,0-2.84l-6.2-6.39a1.91,1.91,0,0,0-2.75,0,2.05,2.05,0,0,0,0,2.84l6.19,6.39Zm-14.42,4.5a2,2,0,1,0,3.9,0v-9a2,2,0,1,0-3.9,0v9Zm-13.29-7.34a2.05,2.05,0,0,0,0,2.84,1.9,1.9,0,0,0,2.76,0l6.2-6.39a2.05,2.05,0,0,0,0-2.84,1.92,1.92,0,0,0-2.76,0l-6.2,6.39Zm-4.36-14.88a2,2,0,0,0,0,4h8.77a2,2,0,0,0,0-4ZM1679.4,368a1.9,1.9,0,0,0-2.76,0,2.05,2.05,0,0,0,0,2.84l6.2,6.39a1.9,1.9,0,0,0,2.76,0,2.05,2.05,0,0,0,0-2.84Z"/><path class="cls-20" d="M1251.91,56.65a2.55,2.55,0,1,0-5.1,0V68.5a2.55,2.55,0,1,0,5.1,0V56.65Zm17.42,9.62a2.69,2.69,0,0,0,0-3.73,2.5,2.5,0,0,0-3.61,0l-8.13,8.39a2.7,2.7,0,0,0,0,3.72,2.51,2.51,0,0,0,3.62,0l8.12-8.38Zm5.72,19.5a2.64,2.64,0,0,0,0-5.27h-11.49a2.64,2.64,0,0,0,0,5.27Zm-9.33,18a2.5,2.5,0,0,0,3.61,0,2.69,2.69,0,0,0,0-3.73l-8.12-8.38a2.52,2.52,0,0,0-3.62,0,2.71,2.71,0,0,0,0,3.73l8.13,8.38Zm-18.91,5.89a2.55,2.55,0,1,0,5.1,0V97.77a2.55,2.55,0,1,0-5.1,0v11.85ZM1229.39,100a2.69,2.69,0,0,0,0,3.73,2.49,2.49,0,0,0,3.61,0l8.13-8.38a2.69,2.69,0,0,0,0-3.73,2.51,2.51,0,0,0-3.61,0l-8.13,8.38Zm-5.72-19.5a2.64,2.64,0,0,0,0,5.27h11.5a2.64,2.64,0,0,0,0-5.27Zm9.33-18a2.49,2.49,0,0,0-3.61,0,2.69,2.69,0,0,0,0,3.73l8.13,8.38a2.5,2.5,0,0,0,3.61,0,2.68,2.68,0,0,0,0-3.72Z"/><path class="cls-20" d="M334.39,363.4a2,2,0,1,0-3.92,0v9.11a2,2,0,1,0,3.92,0V363.4Zm13.38,7.4a2.09,2.09,0,0,0,0-2.87,1.93,1.93,0,0,0-2.78,0l-6.24,6.44a2.08,2.08,0,0,0,0,2.86,1.91,1.91,0,0,0,2.78,0l6.24-6.43Zm4.39,15a2,2,0,0,0,0-4h-8.83a2,2,0,0,0,0,4ZM345,399.57a1.93,1.93,0,0,0,2.78,0,2.08,2.08,0,0,0,0-2.86l-6.24-6.44a1.93,1.93,0,0,0-2.78,0,2.08,2.08,0,0,0,0,2.86l6.24,6.44Zm-14.52,4.53a2,2,0,1,0,3.92,0V395a2,2,0,1,0-3.92,0v9.1Zm-13.38-7.39a2.06,2.06,0,0,0,0,2.86,1.92,1.92,0,0,0,2.77,0l6.25-6.44a2.08,2.08,0,0,0,0-2.86,1.93,1.93,0,0,0-2.78,0l-6.24,6.44Zm-4.39-15a2,2,0,0,0,0,4h8.82a2,2,0,0,0,0-4Zm7.16-13.8a1.92,1.92,0,0,0-2.77,0,2.07,2.07,0,0,0,0,2.87l6.24,6.43a1.91,1.91,0,0,0,2.78,0,2.08,2.08,0,0,0,0-2.86Z"/><path class="cls-21" d="M947.34,621.71V871.9a398.28,398.28,0,0,1-138.54,0V620.71"/><path class="cls-21" d="M809.83,620.21a392,392,0,0,1,38.65-11.9,2.6,2.6,0,0,0,1.77-3.49c-3-7.43-6.88-14.77-10.65-24.29A2.56,2.56,0,0,1,842,577h72.18a2.56,2.56,0,0,1,2.38,3.5c-3.76,9.52-7.65,16.86-10.65,24.29a2.61,2.61,0,0,0,1.77,3.5c13.2,3.42,27,8.26,39.66,12.89"/><path class="cls-21" d="M1101.65,526.18c3.59,5.91,7.86,11.43,14,14.47,5.49,2.74,12.11,3.77,16.93,7.78,6.89,5.73,1.83,13.19-4.4,17.33-4,2.68-.87,4.92,2.63,6.1a14.28,14.28,0,0,0,8.53.61c6-1.58,13.91-5.39,12-12.91a108.92,108.92,0,0,0-5.31-16"/><path class="cls-21" d="M1161.44,531.34a166.84,166.84,0,0,1,7.48,18.53"/><path class="cls-21" d="M1152.5,537.85a47.24,47.24,0,0,1,8.37,22.57"/><path class="cls-21" d="M1120.24,493.38c-.39,1.26-.83,2.49-1.31,3.71-4.08,10.4-11.13,19.53-17.28,29.08h0a89.19,89.19,0,0,0-8.52,16.05"/><path class="cls-21" d="M995,470.7q63,9.41,125.29,22.68"/><path class="cls-21" d="M851,383.84a321,321,0,0,0,101.8,137.39,15.4,15.4,0,0,0,2.27,1.46l1,.54a15.49,15.49,0,0,0,3.62,1.36,659.67,659.67,0,0,0,133.44,17.64"/><path class="cls-21" d="M936.37,370.82c18,32.65,38.51,68.46,58.58,99.88"/><path class="cls-21" d="M1150.42,565.34c8.13-1.31,8.13-1.31,11-5.35"/><path class="cls-21" d="M1160.87,560.42a12.15,12.15,0,0,0,7.75-10.74"/><path class="cls-21" d="M1119.52,497a141.62,141.62,0,0,1,33.09,11.62c6,2.91,10.34,8.51,13.7,14.11,4.37,7.28,14,21.78,2.56,27.78"/><path class="cls-21" d="M1017.24,282.87c2.52-2,5.6-2.61,11.14-9.73a11.59,11.59,0,0,0,2.45-9.09,18,18,0,0,0-2.78-6c-8.17-13.05-13.28-23.84-30-26.85-11.78-2.12-24.33-1.65-35.21,3.36-17,7.84-22.4,26.05-30,41.69-7.3,15-14.43,30.79-22,45.82-1.06,2.1-3.7,2.85-5.73,4-15,8.78-29.37,15.27-40.79,28.75-23.12,27.29-27.28,65.22-36.67,99.72-8.28,30.44-21.3,59.63-26.82,90.69-4.48,25.23-3.23,52.9,8.48,75.17"/><path class="cls-21" d="M974.12,318.59,961.86,345.5a2,2,0,0,0,.44,2.31c4.09,3.74,20.52,17.44,23.76,27.33,3.79,11.54,4.83,23.78,5.83,35.89l5,60"/><path class="cls-21" d="M1021.84,268.7c-5.57-.72-10-3.39-15-5.9"/><path class="cls-22" d="M940.44,262.33c7.4,12,15.36,22,24.16,33.08"/><path class="cls-22" d="M946.3,251.61c9.12,9.93,20.84,17.44,30.23,26.73"/><path class="cls-21" d="M1006.57,263.14a150.41,150.41,0,0,0-33.35,17.41,8.1,8.1,0,0,0-3,3.74c-1.65,4.19-7.72,14.93-7.72,23.72a3.8,3.8,0,0,0,1.35,2.89A64.43,64.43,0,0,0,975,318.35c4.75,2.52,10.32,4.47,15.44,2.82a19.34,19.34,0,0,0,6.86-4.35c13.64-12.27,19.61-29.76,24.19-47.53"/><path class="cls-21" d="M1017.45,282.91c-9.15-3.82-18.3-8.65-27.45-12.47"/><path class="cls-21" d="M1011.39,297.49c-3.78.69-8.89-1-11.11-4.13a6.44,6.44,0,0,0-1.45-1.74,5.06,5.06,0,0,0-2.27-.65c-8.75-1.13-12.25-3.85-17.29-14.37"/><path class="cls-21" d="M928.15,335.75c3.61,9.52,19.23,14.62,26.78,13"/><path class="cls-21" d="M920,539.44a122.93,122.93,0,0,0,29.27-8.17"/><path class="cls-21" d="M812.38,529.33A40,40,0,0,0,839.91,541"/><path class="cls-21" d="M808.8,814.37q-9.06-.32-18.09-1.25"/><path class="cls-21" d="M1013.2,535c46.3,21.42,93.79,35.28,137.11,69.58,9.75,7.72,15.65,19.87,18.13,32.06,3,14.63-1.17,30-8.71,42.93-12,20.48-31.68,35.08-50.84,49.09-46.78,34.22-86,50.38-137.88,84.86a3.52,3.52,0,0,0-1.44,3.89c1.68,5.92,6.68,10.67,11.92,14.15,6,4,12.71,7,17.7,12.2,7.32,7.57,11.9,16.54,12.36,26.57"/><path class="cls-21" d="M947.34,867.77a305.7,305.7,0,0,0,64.21,2.57"/><path class="cls-21" d="M947.34,656.24c13.06,2.53,26.12,4.93,39.19,7.56a1.59,1.59,0,0,1,.92,2.55,557.42,557.42,0,0,1-40.11,44.59"/><path class="cls-21" d="M790.71,813.12c-7.5,12.33-16,29.08-20.05,43.27a8.23,8.23,0,0,1-7.1,5.87,116,116,0,0,1-27-.36,6.49,6.49,0,0,1-5.59-6.22c-1.53-43.16,11.32-82.18,32.87-117a11,11,0,0,1,9.89-5.22c8.46.4,16.93,1.26,25.37,2.12l9.68,1"/><path class="cls-21" d="M968.62,814.11a65.12,65.12,0,0,1-22.14-6"/><path class="cls-23" d="M1171.2,547.9c77.35,15.55,157.6,33.6,224.49,53.39"/><polyline class="cls-24" points="1392.05 600.08 1418.75 608.58 1424.82 627.99"/><path class="cls-21" d="M1107.28,534a21.4,21.4,0,0,0-5.76,1.57,3.38,3.38,0,0,0,.53,6.41c8.08,1.86,22.13,5.28,31.62,7.5"/><path class="cls-25" d="M1099.71,541.58c-18.08,1.32-34.12,13.28-44.28,28.3s-15.23,32.86-19.09,50.57c-3.37,15.43-5.95,31.09-6.42,46.88-.88,29.33,5.52,58.33,8,87.56s.64,60.31-15,85.13-48.46,40.61-75.44,29.09"/><path class="cls-26" d="M991.06,284.3h.54a1.15,1.15,0,0,0,.58-.13,1,1,0,0,0,.48-.31,1.27,1.27,0,0,0,.32-.48,1.14,1.14,0,0,0,.12-.58l-.05-.4a1.49,1.49,0,0,0-.39-.66l-.3-.24a1.54,1.54,0,0,0-.76-.2h-.54a1.14,1.14,0,0,0-.57.13,1.11,1.11,0,0,0-.49.31,1.24,1.24,0,0,0-.31.48,1.27,1.27,0,0,0-.13.58l.06.4a1.57,1.57,0,0,0,.38.66l.31.24a1.5,1.5,0,0,0,.75.2Z"/><path class="cls-26" d="M1008.24,291.39h.54a1.15,1.15,0,0,0,.58-.13,1,1,0,0,0,.48-.31,1.14,1.14,0,0,0,.31-.48,1.06,1.06,0,0,0,.13-.58l0-.4a1.49,1.49,0,0,0-.39-.66l-.3-.24a1.54,1.54,0,0,0-.76-.2h-.54a1.14,1.14,0,0,0-.57.13,1.11,1.11,0,0,0-.49.31,1.17,1.17,0,0,0-.31.48,1.27,1.27,0,0,0-.13.58l.06.4a1.57,1.57,0,0,0,.38.66l.31.23a1.42,1.42,0,0,0,.75.21Z"/><path class="cls-27" d="M987.36,276.8a11.18,11.18,0,0,1,8,1.26"/><path class="cls-27" d="M1006.13,283.73a7,7,0,0,1,6.52,3"/><path class="cls-27" d="M1003.53,286.75a31.71,31.71,0,0,0-.58,9.07"/></g></svg>