<svg xmlns="http://www.w3.org/2000/svg" viewBox="0 0 1920 1080"><defs><style>.cls-1{fill:#f7f8fa;}.cls-2{fill:#e6ecf7;}.cls-22,.cls-3{fill:#f6a001;}.cls-14,.cls-15,.cls-16,.cls-21,.cls-4,.cls-5{fill:none;stroke-miterlimit:10;}.cls-4{stroke:#f6a001;stroke-width:4px;}.cls-14,.cls-16,.cls-4,.cls-5{stroke-linecap:round;}.cls-14,.cls-5{stroke:#fff;}.cls-6{fill:#e0e1e2;}.cls-7{fill:#09102d;}.cls-8{fill:#0f379a;}.cls-9{fill:#0c2c7a;}.cls-10{fill:#052251;}.cls-11,.cls-18{fill:#fff;}.cls-12{fill:#ffe1cf;}.cls-13{fill:#31434d;}.cls-14,.cls-15{stroke-width:2px;}.cls-15{stroke:#b2d3f7;}.cls-16{stroke:#464646;}.cls-17{fill:#5f4a64;}.cls-17,.cls-18,.cls-19,.cls-20,.cls-22,.cls-23{fill-rule:evenodd;}.cls-19{fill:#40a987;}.cls-20{fill:#ff1d25;}.cls-21{stroke:#53bcf7;}.cls-23{fill:#276ce4;}</style></defs><title>2019-nCov19</title><g id="planet"><ellipse class="cls-1" cx="949.15" cy="523.26" rx="536.04" ry="467.5"/><path class="cls-2" d="M517.8,206.72a30.77,30.77,0,0,0-14-1.84c-4.16,4-11.94,5.08-17.66,5.46a85.39,85.39,0,0,0-20.3-14.83c-4.9-2.5-10.61-5.13-12.12-10.43-2.41-8.46-16.83-11.87-25.38-9.93-10.84-2.94-23.22.85-31.92,8-3.85,3.15.48,11,3.8,14.66s7.44,7.83,6.66,12.75c-4,2.06-9.45,2.17-14,2-2.64-.12-5.36-.63-7.89.15s-4.74,3.55-3.76,6c-1.74,3-3.83,4.63-1.81,7.5,1.57,2.22,4.24,4.06,4.22,6.79,0,2.17-1.84,3.92-3.77,4.9s-4.1,1.46-5.93,2.63c-5.72,3.64-5.77,11.85-5.16,18.62,3.69,4.56,4.27,12.4,2.5,18-.68,2.13-1.77,4.39-1,6.5.87,2.41,3.7,3.36,6.17,4,5.28,1.37,11.49,2.56,15.7-.94,11.07-9.2,28.27-4.43,42.3-1.26,4.85,1.09,9.95,2.88,12.78,7,3.77,5.46,2.16,13.05-.95,18.92s-7.56,11.08-9.53,17.43c-1.85,5.95-1.33,12.34-.8,18.55.66,7.65,1.46,15.7,5.87,22A42.38,42.38,0,0,1,449,393.66c-.3,6.44-2.56,12.79-2,19.21,1.07,11.66,11.1,20.41,21.33,26,10.71,5.87,19.94,15.87,23.63,27.55,1.86,5.86,2.41,12.07,4,18a51.24,51.24,0,0,0,17.27,26.22c6,4.83,16,6.54,23.59,7.94,4,.72,8.2,1.29,11.17,4,1.38,1.25,2.37,2.86,3.68,4.17,6.36,6.31,18.06,3.72,24.49,10,1.66,1.61,2.79,3.67,4.25,5.47a19.41,19.41,0,0,0,16.48,7c-1.44,4.74,4.22,10.31,2.47,14.94-1.41,3.74-5.66,5.38-8.59,8.09-5.07,4.7-5.86,12.74-3.67,19.31s6.81,12,11.43,17.16c8.58,9.55,18.89,14.19,28.2,23,8.62,8.19,10.58,21.45,8.69,33.22s-7,22.71-10.7,34.05c-6.85,21.17-8.51,44.45-2,65.72s21.88,40.23,42.43,48.59c2.27.93,5.06-.67,6.73-2.48a6.12,6.12,0,0,0,.85-6.86c-3.71-6.85-10.3-12.7-15.12-18.82-1.51-1.93-3.1-4.11-2.91-6.55.22-2.75,2.57-4.73,4.31-6.86a17.81,17.81,0,0,0,3.94-11.6c-.11-3.93-2.39-7.76-2.25-11.69s2.24-8,5.94-9.31c1.68-.58,3.55-.53,5.18-1.25,5.35-2.37,4.5-10.57,8.37-15,1.8-2,4.45-3.06,6.89-4.24,10.35-5,18.86-14.91,19.81-26.4.76-9.19-2.58-20.36,4.38-26.38,6.39-5.53,16.22-1.86,24.55-3.22,3.39-.55,5.65-3.71,7.23-6.77a16.14,16.14,0,0,0,1.2-10.08c-.7-4.19-2.49-8.27-2.09-12.49.55-5.94,5.18-10.52,8.76-15.28a50.42,50.42,0,0,0,8.83-19c1.8-7.85-3.2-17.11-10.21-21s-15.41-4-23.43-4.25-16.51-.84-23.06-5.49c-6-4.26-9.39-11.22-14.13-16.86-8-9.5-19.64-15-30.89-20.19-4.25-2-9-4-13.46-2.51-1.75.58-3.33,1.68-5.14,2-5,1-9-3.75-13.44-6.17-9.24-5-22.51,2.25-23.34,12.76-4.77,1.66-13.63.23-16.34-4.06-2-3.08-2.73-7.39-6.09-8.8-1.8-.74-4-.46-5.5-1.75-2.42-2.14-.54-6-.11-9.22.69-5.12-3.11-10-7.75-12.21s-10-2.41-15.1-2.57-10.46-.4-15.06-2.72c-9-4.5-12.62-16.7-8.69-25.95s14.21-15,24.22-14.67c9.8.28,20.16,7.48,20.27,17.34,0,2.49,4,2.78,6.17,1.54s3.3-3.74,3.83-6.18.6-5,1.34-7.37a13.89,13.89,0,0,1,13-9.51c6,.07,10.23-5.95,14.49-10.2s6.82-10.67,5.13-16.46c-.91-3.12-3-6.27-1.94-9.36.81-2.41,3.28-3.81,5.62-4.8a48.16,48.16,0,0,1,20.59-3.71c6.12.26,9.27-3.6,12.39-8.89,2.26-3.82,3.26-8.66,6.86-11.25,5.38-3.88,12.81-.45,19.42-.9,9.65-.65,17.19-11.53,14.45-20.84-1.31-4.43-4.39-8.06-6.9-11.93A51,51,0,0,1,680,335.25c-1.16-5.73-1.49-12-5.25-16.5-5.88.28-13,.11-18.23,2.82-1-6-2.18-12.29-5.88-17.13s-10.8-7.65-16-4.54-6.22,10.07-5.28,16,3.38,11.58,3.22,17.54-4.28,12.55-10.22,12.39c-3.09-.08-5.86-2-8-4.19-3.12-3.16-5.59-7.2-9.59-9.1-3.07-1.46-6.6-1.43-9.91-2.17-11.29-2.55-19-15.56-15.92-26.75s16.46-18.27,27.43-14.56c13.27-4.89,18.68-21.71,13.38-34.88s-19.54-21.34-33.67-22c-4.13-.18-8.35.19-12.36-.83-11.34-2.88-17.28-15.41-27.15-21.71C540,205.48,525,209.45,517.8,206.72Z"/><path class="cls-2" d="M696.57,166c-4.37,6.69.52,15.8,6.87,20.62s14.3,7.71,19.33,13.91c8.07,10,5.77,24.71,1.35,36.77s-10.66,24.25-9.14,37a41.8,41.8,0,0,0,6.35,16.87c3.08,5,7.29,9.78,13,11.16,7.22,1.75,14.53-2.52,20-7.56s10.23-11.15,16.9-14.43c9.6-4.73,22-3,30.33-9.66,10.35-8.29,8.82-24.1,11.67-37.08,4.78-21.81,23.57-37.92,30.92-59a36.57,36.57,0,0,0,2.33-12.82c-.32-14.11-12.16-25.84-25.41-30.54-16.37-5.8-32.89-2.16-49.69-2.93-9.13-.41-19.21-4.29-28-.57C729.69,133.5,733.69,147,724.76,155,717,161.94,702.78,156.51,696.57,166Z"/><path class="cls-2" d="M1077.92,246.55c-7.8-7.63-20.56-.25-28.66,7.06l-24.18,21.79c-6.06,5.45-12.57,11.14-20.6,12.49s-17.67-3.76-18-11.92c5.49-5.19,16.43,2.52,21.44-3.14,4.45-5-2.13-12.19-7.92-15.55-10.59-6.14-21.52-12.4-33.64-14.06s-25.85,2.41-32.14,12.94c-5.38,9-4.39,20.77-9.72,29.81-3.34,5.66-8.84,9.7-12.63,15.07s-5.41,13.46-.77,18.1c3.75,3.75,10.12,3.76,13.82,7.55,2.86,2.91,3.83,7.78,7.57,9.38,4.28,1.84,9.12-2.3,10.14-6.86s-.42-9.25-1.16-13.87c-2.22-13.79,4.67-30.74,18.44-32.7,3.13.11,4.17,4.61,2.77,7.43s-4.15,4.77-5.63,7.55c-2.79,5.23.45,12.69,6.17,14.19,6,1.57,15.93.31,15.14,6.45-.83,6.52-12.84,2.25-16.73,7.54-2.29,3.12-.27,7.47-.32,11.35-.11,7.58-8.44,12.52-16,13.05s-15.07-1.7-22.59-1-15.71,6-15.36,13.61A197.14,197.14,0,0,1,875,374.68c.48,8.21,15.89,9,15.83,17.19,0,4.93-6.12,7.5-11,7.14S870,396.69,865.26,398c-8.2,2.18-11.08,13.76-6.54,21s13.89,10.06,22.35,9.38c3.39-.26,7-1.17,9.14-3.84s2.19-6.05,3-9.2a20.67,20.67,0,0,1,15-14.45c4-.91,8.9-1,11-4.49a32.75,32.75,0,0,1,16.63,25.05c2.94,3.81,9.5-1.11,8.86-5.89s-4.85-8.1-8.19-11.56-6.13-8.85-3.51-12.9a46.66,46.66,0,0,1,31.71,34.24c5.45-1.08,8.46-8.49,5.33-13.1,1.69-3.81,7.9-1.63,9.68,2.14s1.63,8.43,4.18,11.73c7.38,9.55,27.13-2.1,33.18,8.36,4.23,7.32-5.31,15.87-13.75,15.61s-16.13-5.11-24.53-5.95c-9.26-.93-18.27,3.08-27.52,4.16s-20.65-2.55-22.6-11.7c-.53-2.46-.31-5.17-1.61-7.32-1.85-3.07-6-3.78-9.55-3.37-15.38,1.75-31,17.69-43.71,8.81-8.13,15.89-28,21.86-39.08,35.83-12.07,15.19-11.06,38.66.66,54.13s32.41,22.78,51.61,20.34c4.39-.56,9-1.55,13.12.15s6.65,5.62,10,8.43,9,4.2,11.8.81a27.66,27.66,0,0,0,2.32,24.78c5,7.83,14.35,14,14.15,23.33-.1,4.82-2.89,9.12-4.19,13.76-6,21.23,19,38.57,23,60.28,1.07,5.84,1.06,12.88,6,16.18,2.26,1.52,5.1,1.83,7.81,2,13.94.91,31.49-3.25,34.39-17,.82-3.88.23-7.9.35-11.87a33.9,33.9,0,0,1,18.12-28.6c2.86-1.45,6-2.53,8.29-4.79,5-5,3.91-13.4,1.33-20s-6.34-13.25-5.44-20.28c1.45-11.28,13.52-17.24,22.66-24a65.26,65.26,0,0,0,25.59-42.94c-12.69,4-28.22,7.42-37.89-1.75-3.35-3.18-5.42-7.45-7.41-11.63q-9-18.81-17.92-37.61c-.79-1.66-1.59-3.55-1-5.26,1.75-4.66,8.71-.77,11.4,3.41a405.34,405.34,0,0,1,25.73,46.54,102.29,102.29,0,0,0,42.77-18.68c4-3,8-6.6,9.36-11.44s-1.14-11-6.07-11.9c-1.91-.34-3.85.15-5.78.35-11.64,1.22-21.74-7.68-29.35-16.6,5.21-5.87,14.69-2.47,21.8.81a162.49,162.49,0,0,0,40.08,12.5c3.45.6,7,1.11,10.09,2.72a27.86,27.86,0,0,1,5.85,4.42A120,120,0,0,1,1171.74,536c6.09,1.38,10.37-6.16,10.85-12.41s-.25-13.45,4.23-17.81c3.52-3.43,9.3-3.9,12.39-7.72,3.89-4.82,1.86-12.93,6.4-17.13,5.7-5.26,14.91,1.17,18,8.32s4.15,15.94,10.55,20.31l10.35-1.5a80,80,0,0,0,16.94,48.78c5.91-3.1,3.23-12.12-.46-17.7s-7.31-13.91-2.07-18c7.28.07,10.67,10.15,17.74,11.87s13.32-6.69,12.05-13.84-7.4-12.42-13.72-15.95c-5.68-6.23,2.52-16.2,10.81-17.61s17.36,1,24.87-2.83c9-4.54,12-16.48,10-26.39s-7.9-18.51-12.68-27.42c-4.09-7.61-6.1-19.48,1.83-22.83,2.13-.89,4.51-.85,6.81-.95,30-1.28,54.86-33.2,48.84-62.76-1.13-5.57-3.28-11.11-7.24-15.17-7.14-7.32-19.25-9-24.58-17.77-6.52-10.68,1.54-24.85,12-31.71s23.2-9.83,33-17.65c2.6-.06,4-2.62,4.47-5.19.3-1.61-.1-3.26-.11-4.9a10.39,10.39,0,0,1,19.18-5.67c3,4.68,1.77,10.87-.38,16s-5.18,10-5.74,15.54,2.56,12,8,12.63c6.72.75,11.06-7.25,11.49-14s-.87-14.16,2.75-19.89c5.51-8.7,20.72-10.75,21.11-21.05.32-8.34-10.12-13.23-12-21.36-.75-3.28,0-6.69.3-10a38,38,0,0,0-49.54-39.7c-3.88,1.27-7.54,3.17-11.48,4.21-5.82,1.54-11.94,1.14-17.95.72l-32.21-2.21c-9.61-.66-19.79-1.2-28.32,3.3-12.46,6.57-19.53,23-33.5,24.66-9.85,1.2-18.63-5.64-27.86-9.31a46.23,46.23,0,0,0-45.39,7c-4.68-2.4-3.24-9.4-4.89-14.41-1.72-5.22-7.31-8.38-12.77-8.86s-10.87,1.2-16.08,2.9c-11.22,3.69-24.28,10-25.32,21.78-.29,3.33.45,6.86-.94,9.89-2,4.32-7.36,5.75-10.7,9.12-4,4-4.62,10.21-4.79,15.87s-.21,11.75-3.48,16.38S1082,250.5,1077.92,246.55Z"/><path class="cls-2" d="M1274.85,577.85c2.59,3.78,6.87,6,11.08,7.78,5.08,2.17,11.26,3.86,15.84.76,3.13-2.12,13.57-16.62,14.3-19.77,1.4-6.06-.62-5.71-6.64-6.94C1299.67,557.69,1263.66,561.52,1274.85,577.85Z"/><path class="cls-2" d="M1239.36,575.8c14,25.56,42.62,42.31,71.66,41.9,2-2.06-1-5.22-3.61-6.34-7.33-3.11-15.22-4.66-22.72-7.3s-14.94-6.64-19.39-13.26a87.7,87.7,0,0,1-4.66-8.85c-4.4-8.52-21.63-30-32.41-24.86C1231,563,1235.94,569.54,1239.36,575.8Z"/><path class="cls-2" d="M1315.25,635.32c-3.72,4.19-7.21,9.31-12.65,10.61-3.21.77-6.64,0-9.86.79-9.48,2.2-11.67,15-9.52,24.51s6.59,19.5,3,28.6c-.71,1.83-1.75,3.62-1.71,5.58,0,2.36,1.64,4.42,3.52,5.83,8.65,6.52,20.93,1.84,30.43-3.33s21-10.76,30.51-5.56c10.16,5.57,11.11,19.67,17.37,29.44,5.5,8.59,17.63,13.74,26.22,8.26,2.91-1.86,5.07-4.68,7.17-7.43l12.9-16.93c5.69-7.46,11.58-15.42,12.68-24.75,2.11-18-13.79-32.5-28.15-43.53-.76-5.75-1.58-11.67-4.5-16.67-5.85-10-17.8-11.09-14.54,3.11-9.36.32-16.94-13.64-27.35-15C1338.14,617.23,1323.32,626.25,1315.25,635.32Z"/></g><g id="virus"><circle class="cls-3" cx="1223.4" cy="190.86" r="30.79"/><line class="cls-4" x1="1218.75" y1="210.92" x2="1219.13" y2="241.12"/><line class="cls-4" x1="1182.05" y1="160.98" x2="1206.4" y2="176.29"/><line class="cls-4" x1="1237.16" y1="175.34" x2="1253.15" y2="146.85"/><line class="cls-4" x1="1200.74" y1="199.6" x2="1180.22" y2="201.68"/><line class="cls-4" x1="1226.35" y1="144.26" x2="1224.55" y2="181.37"/><polyline class="cls-4" points="1257.08 169.33 1237.94 187.28 1273.4 186.68"/><line class="cls-4" x1="1208.63" y1="204.56" x2="1194.03" y2="225.34"/><line class="cls-4" x1="1227.03" y1="201.85" x2="1237.56" y2="227.74"/><line class="cls-4" x1="1234.55" y1="197.87" x2="1260.58" y2="215.47"/><path class="cls-4" d="M1186.48,180.94c8.6,1.39,9.56,3,18.16,4.36"/><path class="cls-4" d="M1204.81,157.6c2.78,7.27,6,9.81,8.81,17.07"/><circle class="cls-3" cx="1275.5" cy="186.38" r="7.93"/><circle class="cls-3" cx="1182.05" cy="160.98" r="7.93"/><circle class="cls-3" cx="1260.63" cy="166.56" r="7.93"/><circle class="cls-3" cx="1203.37" cy="154.09" r="7.93"/><circle class="cls-3" cx="1226.92" cy="146.82" r="7.93"/><circle class="cls-3" cx="1183.06" cy="178.79" r="7.93"/><circle class="cls-3" cx="1253.95" cy="144.94" r="7.93"/><circle class="cls-3" cx="1193.66" cy="225.93" r="7.93"/><circle class="cls-3" cx="1178.22" cy="201.39" r="7.93"/><circle class="cls-3" cx="1239.16" cy="231.24" r="7.93"/><circle class="cls-3" cx="1264.88" cy="218.17" r="7.93"/><circle class="cls-3" cx="1218.76" cy="241.7" r="7.93"/><circle class="cls-5" cx="1214.64" cy="184.38" r="8.12"/><circle class="cls-5" cx="1236.34" cy="185.43" r="2.64"/><circle class="cls-5" cx="1226.39" cy="202.49" r="4.62"/><circle class="cls-3" cx="288.78" cy="716.38" r="25.03"/><line class="cls-4" x1="285" y1="732.7" x2="285.31" y2="757.25"/><line class="cls-4" x1="255.16" y1="692.09" x2="274.96" y2="704.54"/><line class="cls-4" x1="299.96" y1="703.76" x2="312.97" y2="680.6"/><line class="cls-4" x1="270.36" y1="723.49" x2="253.68" y2="725.18"/><line class="cls-4" x1="291.18" y1="678.5" x2="289.72" y2="708.67"/><polyline class="cls-4" points="316.17 698.89 300.6 713.48 329.43 712.98"/><line class="cls-4" x1="276.77" y1="727.53" x2="264.9" y2="744.42"/><line class="cls-4" x1="291.73" y1="725.32" x2="300.29" y2="746.37"/><line class="cls-4" x1="297.84" y1="722.08" x2="319.01" y2="736.4"/><path class="cls-4" d="M258.76,708.32c7,1.13,7.77,2.42,14.77,3.55"/><path class="cls-4" d="M273.67,689.35c2.26,5.9,4.9,8,7.16,13.88"/><circle class="cls-3" cx="331.14" cy="712.74" r="6.45"/><circle class="cls-3" cx="255.16" cy="692.09" r="6.45"/><circle class="cls-3" cx="319.05" cy="696.63" r="6.45"/><circle class="cls-3" cx="272.5" cy="686.49" r="6.45"/><circle class="cls-3" cx="291.64" cy="680.58" r="6.45"/><circle class="cls-3" cx="255.98" cy="706.57" r="6.45"/><circle class="cls-3" cx="313.62" cy="679.05" r="6.45"/><circle class="cls-3" cx="264.6" cy="744.9" r="6.45"/><circle class="cls-3" cx="252.05" cy="724.95" r="6.45"/><circle class="cls-3" cx="301.59" cy="749.22" r="6.45"/><circle class="cls-3" cx="322.5" cy="738.59" r="6.45"/><circle class="cls-3" cx="285" cy="757.73" r="6.45"/><circle class="cls-5" cx="281.66" cy="711.12" r="6.6"/><circle class="cls-5" cx="299.3" cy="711.97" r="2.15"/><circle class="cls-5" cx="291.21" cy="725.84" r="3.76"/><circle class="cls-3" cx="609.98" cy="202.4" r="22.11"/><line class="cls-4" x1="606.64" y1="216.81" x2="606.92" y2="238.49"/><line class="cls-4" x1="580.3" y1="180.95" x2="597.78" y2="191.94"/><line class="cls-4" x1="619.86" y1="191.25" x2="631.35" y2="170.8"/><line class="cls-4" x1="593.71" y1="208.68" x2="578.98" y2="210.17"/><line class="cls-4" x1="612.1" y1="168.94" x2="610.81" y2="195.58"/><polyline class="cls-4" points="634.17 186.94 620.43 199.83 645.89 199.4"/><line class="cls-4" x1="599.38" y1="212.24" x2="588.9" y2="227.16"/><line class="cls-4" x1="612.59" y1="210.29" x2="620.16" y2="228.88"/><line class="cls-4" x1="617.99" y1="207.43" x2="636.68" y2="220.08"/><path class="cls-4" d="M583.48,195.28c6.17,1,6.86,2.14,13,3.13"/><path class="cls-4" d="M596.64,178.52c2,5.22,4.33,7,6.32,12.26"/><circle class="cls-3" cx="647.4" cy="199.18" r="5.7"/><circle class="cls-3" cx="580.3" cy="180.95" r="5.7"/><circle class="cls-3" cx="636.72" cy="184.95" r="5.7"/><circle class="cls-3" cx="595.6" cy="176" r="5.7"/><circle class="cls-3" cx="612.51" cy="170.78" r="5.7"/><circle class="cls-3" cx="581.02" cy="193.74" r="5.7"/><circle class="cls-3" cx="631.93" cy="169.42" r="5.7"/><circle class="cls-3" cx="588.63" cy="227.58" r="5.7"/><circle class="cls-3" cx="577.54" cy="209.97" r="5.7"/><circle class="cls-3" cx="621.3" cy="231.4" r="5.7"/><circle class="cls-3" cx="639.77" cy="222.02" r="5.7"/><circle class="cls-3" cx="606.65" cy="238.91" r="5.7"/><circle class="cls-5" cx="603.7" cy="197.75" r="5.83"/><circle class="cls-5" cx="619.28" cy="198.5" r="1.9"/><circle class="cls-5" cx="612.13" cy="210.75" r="3.32"/><circle class="cls-3" cx="1643.47" cy="563.44" r="18.77"/><line class="cls-4" x1="1640.64" y1="575.67" x2="1640.87" y2="594.08"/><line class="cls-4" x1="1618.27" y1="545.23" x2="1633.11" y2="554.56"/><line class="cls-4" x1="1651.86" y1="553.98" x2="1661.6" y2="536.62"/><line class="cls-4" x1="1629.66" y1="568.77" x2="1617.16" y2="570.04"/><line class="cls-4" x1="1645.27" y1="535.04" x2="1644.17" y2="557.66"/><polyline class="cls-4" points="1664 550.33 1652.34 561.26 1673.95 560.89"/><line class="cls-4" x1="1634.47" y1="571.8" x2="1625.57" y2="584.46"/><line class="cls-4" x1="1645.68" y1="570.14" x2="1652.1" y2="585.92"/><line class="cls-4" x1="1650.26" y1="567.71" x2="1666.13" y2="578.45"/><path class="cls-4" d="M1621,557.4c5.24.84,5.82,1.81,11.07,2.66"/><path class="cls-4" d="M1632.14,543.18c1.7,4.42,3.68,6,5.37,10.4"/><circle class="cls-3" cx="1675.22" cy="560.71" r="4.84"/><circle class="cls-3" cx="1618.27" cy="545.23" r="4.84"/><circle class="cls-3" cx="1666.16" cy="548.63" r="4.84"/><circle class="cls-3" cx="1631.26" cy="541.04" r="4.84"/><circle class="cls-3" cx="1645.61" cy="536.6" r="4.84"/><circle class="cls-3" cx="1618.89" cy="556.09" r="4.84"/><circle class="cls-3" cx="1662.09" cy="535.46" r="4.84"/><circle class="cls-3" cx="1625.35" cy="584.82" r="4.84"/><circle class="cls-3" cx="1615.94" cy="569.87" r="4.84"/><circle class="cls-3" cx="1653.07" cy="588.06" r="4.84"/><circle class="cls-3" cx="1668.75" cy="580.09" r="4.84"/><circle class="cls-3" cx="1640.64" cy="594.43" r="4.84"/><circle class="cls-5" cx="1638.13" cy="559.5" r="4.95"/><circle class="cls-5" cx="1651.36" cy="560.13" r="1.61"/><circle class="cls-5" cx="1645.29" cy="570.53" r="2.82"/><circle class="cls-3" cx="1173.16" cy="706.82" r="22.52"/><line class="cls-4" x1="1169.76" y1="721.5" x2="1170.03" y2="743.59"/><line class="cls-4" x1="1142.91" y1="684.96" x2="1160.72" y2="696.16"/><line class="cls-4" x1="1183.23" y1="695.46" x2="1194.92" y2="674.62"/><line class="cls-4" x1="1156.58" y1="713.22" x2="1141.58" y2="714.74"/><line class="cls-4" x1="1175.32" y1="672.73" x2="1174.01" y2="699.88"/><polyline class="cls-4" points="1197.8 691.07 1183.8 704.2 1209.74 703.76"/><line class="cls-4" x1="1162.35" y1="716.84" x2="1151.68" y2="732.05"/><line class="cls-4" x1="1175.82" y1="714.86" x2="1183.52" y2="733.8"/><line class="cls-4" x1="1181.32" y1="711.95" x2="1200.36" y2="724.83"/><path class="cls-4" d="M1146.15,699.57c6.29,1,7,2.17,13.29,3.19"/><path class="cls-4" d="M1159.56,682.49c2,5.32,4.41,7.18,6.45,12.49"/><circle class="cls-3" cx="1211.28" cy="703.54" r="5.8"/><circle class="cls-3" cx="1142.91" cy="684.96" r="5.8"/><circle class="cls-3" cx="1200.4" cy="689.04" r="5.8"/><circle class="cls-3" cx="1158.51" cy="679.92" r="5.8"/><circle class="cls-3" cx="1175.73" cy="674.6" r="5.8"/><circle class="cls-3" cx="1143.65" cy="697.99" r="5.8"/><circle class="cls-3" cx="1195.51" cy="673.23" r="5.8"/><circle class="cls-3" cx="1151.4" cy="732.48" r="5.8"/><circle class="cls-3" cx="1140.11" cy="714.53" r="5.8"/><circle class="cls-3" cx="1184.69" cy="736.37" r="5.8"/><circle class="cls-3" cx="1203.51" cy="726.8" r="5.8"/><circle class="cls-3" cx="1169.76" cy="744.02" r="5.8"/><circle class="cls-5" cx="1166.76" cy="702.08" r="5.94"/><circle class="cls-5" cx="1182.63" cy="702.85" r="1.93"/><circle class="cls-5" cx="1175.35" cy="715.33" r="3.38"/><ellipse class="cls-6" cx="502.79" cy="938.17" rx="183.25" ry="10.07"/><ellipse class="cls-6" cx="942.79" cy="936.52" rx="183.25" ry="10.07"/><ellipse class="cls-6" cx="1502.72" cy="935.4" rx="183.25" ry="10.07"/></g><g id="italy"><path class="cls-7" d="M1552.7,895.68c-.79-7.64-2.13-13.34-4-21.33l0-.36c22.61-1.63,43.07-4.41,63-9.51,4.91,14.9,9.46,36.33,12.15,56.12a5.31,5.31,0,0,1-4.42,5.95,832.56,832.56,0,0,1-102.4,10,2.82,2.82,0,0,1-2.06-4.83C1527.11,919.63,1541.89,905.52,1552.7,895.68Z"/><path class="cls-7" d="M1386.56,898.5c.78-7.31,1.57-11.67,2.33-19l0-.32c25.82,2.21,40.38,4.05,66.58,2.32a292.38,292.38,0,0,1-.19,46.46,6.44,6.44,0,0,1-5.79,5.89c-33.72,3.27-69.61,5.37-107.13,3.86a3.49,3.49,0,0,1-2.24-6.06C1353.7,919.22,1371.92,909,1386.56,898.5Z"/><path class="cls-8" d="M1435.83,552.28c8-6.59,17.42-7.89,24.17-17,.39.86.81,1.71,1.23,2.56,5.68-1.64,63.58-23.16,90.28-33.29,6.17,21.56,5.18,43.88,6.83,66.19,1.12,15.13.24,30.34.94,45.49,2,42.51,16.46,82.92,29.38,123,14.12,43.79,19.53,80.06,30.88,124.11-2.63.77-5.26,1.48-7.9,2.16-19.9,5.1-40.36,7.88-63,9.51-2.21.16-4.43.31-6.69.45-18.88-65.54-43.52-131.62-56-204-3,66.28-11.26,142.79-20.29,209.18-3.59.33-7,.58-10.18.8-26.2,1.73-40.76-.11-66.58-2.32-2.86-.23-5.86-.49-9-.73C1390,776.07,1402.46,708.3,1417,623.54q4.79-27.9,9.73-55.77a4,4,0,0,0,2.64.32c1.51-.32,2.37-2,2.51-3.49s-.23-3.07-.18-4.6A10.78,10.78,0,0,1,1435.83,552.28Z"/><path class="cls-9" d="M1473.87,533.43c-6.59,2.39-11.23,4-12.64,4.43-.42-.85-.84-1.7-1.23-2.56-6.75,9.09-16.16,10.39-24.17,17a10.78,10.78,0,0,0-4.13,7.72c0,1.53.32,3.07.18,4.6s-1,3.17-2.51,3.49a4,4,0,0,1-2.64-.32q-4.93,27.87-9.73,55.77c-14.54,84.76-27,153.55-37.11,255.89,3.17.24,6.17.5,9,.73,25.82,2.21,40.37,4.05,66.58,2.32,3.21-.21,6.59-.47,10.18-.8,9-66.35,17.29-143.82,20.28-210.06-1.39-12.5-3.31-25-5.23-38C1475.06,599.57,1478.39,566.18,1473.87,533.43Z"/><path class="cls-10" d="M1519.85,316.1c.05,16.33-9.59,22.49-14.77,22.66-.1-1.71-.17-3.4-.23-5.05,2.1.3,3.6-.63,4.88-2.48a5.49,5.49,0,0,0-.32-6.67c-1.4-1.53-4.85-.95-6.69-.09a2,2,0,0,1-2-.23l-.51-.4c-2.66-2.23-7.15-7.74-7.53-12.1,0,0-17,1.55-25.31-1.92a7.47,7.47,0,0,1-4.11-3.36c-.47-1-1.35-1.7-1.5-2.78l0-.29a4.64,4.64,0,0,1,1.47-4,19.58,19.58,0,0,1,14.29-5.11c6.07-3.8,13.89-2.93,21-1.75,3.62.6,7.31,1.24,10.58,2.91C1516.37,299.15,1519.83,307.85,1519.85,316.1Z"/><path class="cls-11" d="M1452.37,479.44a343.11,343.11,0,0,0-1.32-44.88c-3.81,5.37-8.27,11.06-12,15.64a62,62,0,0,1-16.86,14.49c-4.32,2.53-9.23,5.45-12.6,7.57a13.61,13.61,0,0,1-4.45,1.87c-16,3.31-18.72-21.14-11.24-30.18l.21,0-.17,1a12.85,12.85,0,0,0-.21,2.23,23.53,23.53,0,0,0,2.38,10.06,9.9,9.9,0,0,0,12.61,4.7,16.14,16.14,0,0,0,7.09-5.85c2.65-4,4.72-9.46,8.72-12.34,1.79-1.29,3.84-2.2,5.54-3.6a2.33,2.33,0,0,0,.81-1,1.78,1.78,0,0,0-1.32-2,5.14,5.14,0,0,0-2.66.15h0a13.18,13.18,0,0,0-8.4,4.88c2.75-3.79,8.19-5.51,10-6.14,1.57-.56,3.51-1.82,2.93-3.39-.41-1.07-1.78-1.38-2.92-1.39a11.81,11.81,0,0,0-2.18.23c2.17-.89,3.73-1.83,3.59-2.82-.57-3.84-11.42-1.88-17.33,2.07a16.7,16.7,0,0,1,12.62-5.09,1.39,1.39,0,0,0,1.33-1.87l-.14-.38a1.42,1.42,0,0,0-.7-.8c-3.52-1.71-8.43-1.61-12.8-.34,5.2-8.9,12.36-19.76,17.53-28.61,5.3-9.08,11.11-18.65,20.56-23.21a44.35,44.35,0,0,1,12.74-3.48,139,139,0,0,1,17.88-1.55c-.57,5.39-1.11,10.62-1.55,14.8,3.4,5.33,19.86,5.41,27.59,1-.09-4-.27-8.62-.5-13.69,0-.34,0-.67,0-1h0c13.17.36,35.27,2,45.08,12.18,3.91,4.06,5.43,9.79,6.67,15.29a604.32,604.32,0,0,1,12.83,92.7c.21,3.09.33,6.46-1.47,9-1.38,1.93-3.65,3-5.82,3.93-1.39.59-6.17,2.44-13,5-26.7,10.13-84.6,31.65-90.28,33.29-.42-.85-.84-1.7-1.23-2.56a106.83,106.83,0,0,1-7.55-22.69l-.74-.28a80.68,80.68,0,0,0-14.1,8.19c6.62-20.63,14.75-40.87,14.75-40.87A1.55,1.55,0,0,1,1452.37,479.44Z"/><path class="cls-8" d="M1451.74,511.89c.25-.17.49-.35.71-.53a21,21,0,0,0,2.26-2.36c3.37-3.71,7.7-6.46,11.88-9.17,10.21-6.63,21.09-12.14,31.85-17.81a31.11,31.11,0,0,0,5.75-3.55c-17.41,1.65-34.12,3.88-51.68.95-.94-.16-6.24,16.14-6.78,17.6-2.85,7.78-5.59,15.61-8.12,23.5.55-1.71,6.37-4.12,7.91-5.09C1447.47,514.2,1449.84,513.23,1451.74,511.89Z"/><path class="cls-9" d="M1452.51,479.42c-.94-.16-6.24,16.14-6.78,17.6-2.85,7.78-5.59,15.61-8.12,23.5.55-1.71,6.37-4.12,7.91-5.09,2-1.23,4.32-2.2,6.22-3.54.25-.17.49-.35.71-.53a21,21,0,0,0,2.26-2.36c3.37-3.71,7.7-6.46,11.88-9.17q1.89-1.23,3.82-2.41c.29-6.36,3.2-11.7,7.12-16.73A120.1,120.1,0,0,1,1452.51,479.42Z"/><path class="cls-8" d="M1504.19,478.47c-9,.85-17.82,1.85-26.66,2.22-3.92,5-6.83,10.37-7.12,16.73,9.08-5.58,18.6-10.43,28-15.4A31.11,31.11,0,0,0,1504.19,478.47Z"/><path class="cls-12" d="M1460,535.3c-6.75,9.09-16.16,10.39-24.17,17a10.78,10.78,0,0,0-4.13,7.72c0,1.53.32,3.07.18,4.6s-1,3.17-2.51,3.49a4,4,0,0,1-2.64-.32c-4.08-1.87-6.6-9.84-6.93-12.94a33.84,33.84,0,0,1,4.88-20.6,48.12,48.12,0,0,1,12.93-13.71,80.68,80.68,0,0,1,14.1-8.19l.74.28A106.83,106.83,0,0,0,1460,535.3Z"/><path class="cls-12" d="M1429.59,437.12a1.78,1.78,0,0,1,1.32,2,2.33,2.33,0,0,1-.81,1c-1.7,1.4-3.75,2.31-5.54,3.6-4,2.88-6.07,8.35-8.72,12.34a16.14,16.14,0,0,1-7.09,5.85,9.9,9.9,0,0,1-12.61-4.7,23.53,23.53,0,0,1-2.38-10.06A12.85,12.85,0,0,1,1394,445l.17-1,.13-.74a14.54,14.54,0,0,1,1.69-4.67c2.82-4.84,5.88-9.6,10.26-13a20.14,20.14,0,0,1,6.71-3.3c4.37-1.27,9.28-1.37,12.8.34a1.42,1.42,0,0,1,.7.8l.14.38a1.39,1.39,0,0,1-1.33,1.87,16.7,16.7,0,0,0-12.62,5.09c5.91-4,16.76-5.91,17.33-2.07.14,1-1.42,1.93-3.59,2.82a34.69,34.69,0,0,0-10.79,4c1.79-1.13,7.14-2.48,10.79-4a11.81,11.81,0,0,1,2.18-.23c1.14,0,2.51.32,2.92,1.39.58,1.57-1.36,2.83-2.93,3.39-1.81.63-7.25,2.35-10,6.14a13.18,13.18,0,0,1,8.4-4.88h0A5.14,5.14,0,0,1,1429.59,437.12Z"/><path class="cls-12" d="M1502.72,324.47c1.84-.86,5.29-1.44,6.69.09a5.49,5.49,0,0,1,.32,6.67c-1.28,1.85-2.78,2.78-4.88,2.48.06,1.65.13,3.34.23,5.05.54,9.82,1.65,20.22,2.05,27.72,0,.35,0,.68,0,1,.23,5.07.41,9.65.5,13.69-7.73,4.41-24.19,4.33-27.59-1,.44-4.18,1-9.41,1.55-14.8.64-6.17,1.31-12.53,1.85-17.75a19,19,0,0,1-3,.57c-4.82.54-10.18-1.12-12.73-5.23-3.07-4.94-3.22-10.64-2.5-17.21a72.4,72.4,0,0,0,33.19-.06l1.77-1.87.51.4A2,2,0,0,0,1502.72,324.47Z"/><path class="cls-13" d="M1497.06,340.71c-4.63,2.32-8.93,5.28-13.64,7.61-.15,1.45-.31,3-.48,4.56C1490,350.85,1494.36,347,1497.06,340.71Z"/><path class="cls-11" d="M1502.77,324.46h0a2,2,0,0,1-2-.23l-.51-.4-1.77,1.87a72.4,72.4,0,0,1-33.19.06c-.72,6.57-.57,12.27,2.5,17.21,2.55,4.11,7.91,5.77,12.73,5.23a19,19,0,0,0,3-.57l0,.29C1496,344.87,1501.75,335.77,1502.77,324.46Z"/><path class="cls-12" d="M1500.23,323.84l-1.77,1.87a72.4,72.4,0,0,1-33.19.06c.52-4.83,1.5-10.13,2.12-15.95,8.35,3.47,25.31,1.92,25.31,1.92C1493.08,316.1,1497.57,321.61,1500.23,323.84Z"/><path class="cls-14" d="M1539.26,523.26a394.17,394.17,0,0,1,2.5,83c-.93,12.2-2.43,24.47-1.18,36.65,1.44,14.23,6.56,27.78,11.43,41.24a1357,1357,0,0,1,52,183.2"/><path class="cls-14" d="M1514.08,933.88l45.55-5.89c21.47-2.78,43.46-5.73,63.13-14.44"/><path class="cls-14" d="M1339,933.91a233.51,233.51,0,0,1,26.54-1.15c30.26-.06,61.21-.51,90.06-9"/><line class="cls-15" x1="1474.54" y1="430.17" x2="1485.63" y2="449.16"/><line class="cls-15" x1="1524.57" y1="497.42" x2="1535.97" y2="480.19"/><line class="cls-15" x1="1546.99" y1="390.02" x2="1530.56" y2="405.37"/><line class="cls-15" x1="1432.92" y1="407.51" x2="1447.97" y2="390.02"/><path class="cls-16" d="M1504.85,333.67v0c.06,1.65.13,3.34.23,5.05.56,10.27,1.76,21.18,2.1,28.74.23,5.07.41,9.65.5,13.69"/><path class="cls-16" d="M1480.09,380.19c.44-4.18,1-9.41,1.55-14.8.64-6.17,1.31-12.53,1.85-17.75"/><path class="cls-16" d="M1452.46,512.61a106.27,106.27,0,0,0,8.77,25.26"/><path class="cls-16" d="M1412.77,422.51c5.22-8.95,12.47-19.94,17.69-28.88S1441.57,375,1451,370.42a44.35,44.35,0,0,1,12.74-3.48,139,139,0,0,1,17.88-1.55"/><path class="cls-16" d="M1507.18,366.48c13.17.36,35.28,2,45.08,12.18,3.91,4.06,5.43,9.79,6.67,15.29a604.32,604.32,0,0,1,12.83,92.7c.21,3.09.33,6.46-1.47,9-1.38,1.93-3.65,3-5.82,3.93-6.83,2.93-96.11,36.25-103.24,38.31"/><path class="cls-16" d="M1524.57,423.47c1.39,11.89,3.9,29.71,6,42.76"/><path class="cls-16" d="M1454.73,508.2c25.43-18.49,52.81-31.11,81.24-44.52"/><path class="cls-16" d="M1451.71,512.33a80.68,80.68,0,0,0-14.1,8.19,48.12,48.12,0,0,0-12.93,13.71,33.84,33.84,0,0,0-4.88,20.6c.33,3.1,2.85,11.07,6.93,12.94a4,4,0,0,0,2.64.32c1.51-.32,2.37-2,2.51-3.49s-.23-3.07-.18-4.6a10.78,10.78,0,0,1,4.13-7.72c8-6.59,17.42-7.89,24.17-17"/><path class="cls-16" d="M1447.4,407.51a344,344,0,0,1,5,72.14"/><path class="cls-16" d="M1480.09,380.19c3.4,5.33,19.86,5.41,27.59,1"/><path class="cls-16" d="M1426.93,437.27a5.14,5.14,0,0,1,2.66-.15,1.77,1.77,0,0,1,1.31,2,2.32,2.32,0,0,1-.8,1c-1.7,1.4-3.75,2.3-5.54,3.59-4,2.88-6.07,8.35-8.72,12.34a16.14,16.14,0,0,1-7.09,5.85,9.77,9.77,0,0,1-7.27.1h0a9.72,9.72,0,0,1-5.34-4.8,23.57,23.57,0,0,1-2.38-10.07A13.67,13.67,0,0,1,1394,445l.3-1.74a14.12,14.12,0,0,1,1.7-4.66c2.81-4.84,5.87-9.6,10.25-13,4.9-3.84,14-5.66,19.51-3a1.38,1.38,0,0,1,.7.8l.14.38a1.38,1.38,0,0,1-1.33,1.87,16.7,16.7,0,0,0-12.63,5.09"/><path class="cls-16" d="M1418.53,442.16a13.11,13.11,0,0,1,9.42-5"/><path class="cls-16" d="M1412.61,430.72c5.92-3.94,16.76-5.91,17.33-2.07.41,2.74-12.29,5.15-14.62,7"/><path class="cls-16" d="M1415.32,435.63c2.63-1.92,10-4.41,13.22-4.38,1.15,0,2.51.31,2.91,1.39.59,1.56-1.35,2.82-2.92,3.38-1.8.63-7.25,2.34-10,6.14"/><path class="cls-16" d="M1393.93,444c-7.48,9-4.78,33.49,11.24,30.18a13.61,13.61,0,0,0,4.45-1.87c3.37-2.12,8.28-5,12.6-7.57a62,62,0,0,0,16.86-14.49c3.7-4.58,8.16-10.27,12-15.64"/><path class="cls-16" d="M1467.39,309.82c-1.46,13.74-5,24.58.38,33.16,2.55,4.11,7.91,5.77,12.73,5.23s9.2-2.89,13.41-5.27"/><path class="cls-16" d="M1504.85,333.71c2.1.3,3.6-.63,4.88-2.48a5.49,5.49,0,0,0-.32-6.67c-1.4-1.53-4.85-.95-6.69-.09"/><path class="cls-16" d="M1505,325.94a2,2,0,1,1,1.76,3.54"/><path class="cls-16" d="M1465.82,325.67a68.08,68.08,0,0,0,32.63,0"/><path class="cls-16" d="M1453.07,479.34a20.17,20.17,0,0,0,5,1.23c14.87,1.91,31,.66,45.84-1.7"/><path d="M1483.4,320.27l-.21.21a1.08,1.08,0,0,0-.31.48,1.36,1.36,0,0,0,0,1.16,1.14,1.14,0,0,0,.31.48l.3.23a1.48,1.48,0,0,0,.76.21l.4-.05a1.59,1.59,0,0,0,.66-.39l.21-.21a1.11,1.11,0,0,0,.31-.48,1.15,1.15,0,0,0,.13-.58,1.17,1.17,0,0,0-.13-.58,1.24,1.24,0,0,0-.31-.48l-.31-.23a1.42,1.42,0,0,0-.75-.21l-.4.06a1.45,1.45,0,0,0-.66.38Z"/><path d="M1468.34,319.64l-.21.21a1.11,1.11,0,0,0-.31.48,1.14,1.14,0,0,0-.12.58,1.17,1.17,0,0,0,.12.58,1.24,1.24,0,0,0,.31.48l.31.23a1.43,1.43,0,0,0,.76.21l.39-.06a1.54,1.54,0,0,0,.67-.38l.2-.21a1,1,0,0,0,.31-.48,1.06,1.06,0,0,0,.13-.58,1.08,1.08,0,0,0-.13-.58,1.14,1.14,0,0,0-.31-.48l-.3-.23a1.48,1.48,0,0,0-.76-.21l-.4.06a1.57,1.57,0,0,0-.66.38Z"/><path class="cls-16" d="M1474.6,319.07a17.87,17.87,0,0,1-2,7.19"/><path class="cls-16" d="M1482.58,317a8,8,0,0,1,6,1"/><path class="cls-16" d="M1467,315.7a5.21,5.21,0,0,1,4.3.23"/><polygon class="cls-17" points="1384.01 250.7 1381.46 251.63 1448.95 643.65 1451.51 642.68 1384.01 250.7"/><path class="cls-18" d="M1390.84,338.89c-3.41-13.32-6.37-27.84-7.24-40.37,0-.69-.09-1.4-.13-2.09-1.65-33.71-.37-37-.37-37-61.81-15.32-105.18,78.22-167,62.9,2.28,13.46,4.54,26.88,6.82,40.34s4.57,26.89,6.84,40.3,4.57,26.89,6.82,40.34c61.82,15.32,105.18-78.22,167-62.9C1403.58,380.37,1396.61,361.37,1390.84,338.89Z"/><path class="cls-19" d="M1288.23,426.6c-.36-4.26-3.1-8.68-4.49-13.7a135.48,135.48,0,0,0-9.3-23.24c-1.1-2.26-15.76-33.74-13.08-34-1.56.15-2.41-1.74-2.77-3.26-.64-2.76-7.35-32.16-4.23-33.38-12.13,4.77-24.75,6.62-38.25,3.27,2.28,13.46,4.54,26.88,6.82,40.34s4.57,26.89,6.84,40.3,4.57,26.89,6.82,40.34c.75,4.48,26.47.39,29.57-.41,5.81-1.51,13.24-3.22,18-7.38C1287.56,432.51,1288.49,429.6,1288.23,426.6Z"/><path class="cls-18" d="M1316.53,278.55c-20.6,14.23-40.6,32-62.17,40.47-2.6,1,2.84,27.88,3.67,30.82,3.66,12.87,10.48,24.89,16.17,37a233.78,233.78,0,0,1,9.65,23c2.29,6.66,2.67,16.72,6.1,22.29,6.54-2.46,62.08-37.45,60.38-41.07C1333.45,355,1315.67,318.52,1316.53,278.55Z"/><path class="cls-20" d="M1403.58,380.37s-7-19-12.74-41.48c-3.41-13.32-6.37-27.84-7.24-40.37,0-.69-.09-1.4-.13-2.09-1.65-33.71-.37-37-.37-37-24.29-6-45.73,4.77-66.57,19.16-.86,40,16.92,76.47,33.8,112.46C1367,381.33,1384.43,375.62,1403.58,380.37Z"/><path class="cls-17" d="M1384.56,250.26c1.79.55,2.65,2.72,1.94,4.86s-2.7,3.45-4.46,2.91-2.64-2.72-1.94-4.86,2.7-3.45,4.46-2.91Z"/></g><g id="spain"><path class="cls-12" d="M1050.76,498.68l-.65.39A299.52,299.52,0,0,0,1029,468.93a29.66,29.66,0,0,0,10.35-4.56A308,308,0,0,1,1050.76,498.68Z"/><path class="cls-8" d="M887.38,580c.89,4.4,1.9,9.6,2.93,11.85,1.59,3.48,3.54,7,6.69,9.1,3.36,2.27,7.61,2.69,11.65,3,3.65.32,7.29-4.14,9.46-7.64a2.27,2.27,0,0,0,0-2.38l-1.89-3.13c-2-2.47-4.89-4.23-6.57-7s-1.92-6-2.49-9.14a14.34,14.34,0,0,0-2.83-6.87,15.61,15.61,0,0,1-2.87-5.09l-.31-.91a10.62,10.62,0,0,1-.36-1.13q-1.69-6.35-3.53-13A327.67,327.67,0,0,1,919,497.46l.51.15c29.17,8.91,49.8,9,73.86-1v-.05l.79-.05c21.7,36.12,28.47,104.28,40.67,162.86.51,2.43,1,4.85,1.36,7.3,10.2,68.7,15.7,139,20.28,208.18q-9.64.75-19.29,1.36-21.86,1.38-43.75,1.87c-3.6.1-7.18.16-10.77.22C974,779.1,965.44,675.8,956.85,576.69c-5.37,45.51-12.54,67.78-17.91,113.28v2.65c-.8,49.66-3.75,139.1-8.86,188.51-2.72.14-5.43.25-8.15.34-15.65.57-31.33.38-46.95-.57q-5.12-.3-10.22-.72c.94-24.32,2.25-50.82,3.43-77.31,1.43-32.33,2.67-64.65,2.74-93.07a59.29,59.29,0,0,1,.44-10.4c5-37.54,8.67-83,16-119.37Z"/><path class="cls-11" d="M905.6,442a216.69,216.69,0,0,1-18.43,29.07c-1.44,1.94-2.76,3.67-3.95,5.42a131.29,131.29,0,0,1-31.3-11.72c6-12,13.85-25.32,18-36.16,5.17-13.35,11-27.57,23-35.39,5.79-3.77,12.55-5.71,19.27-7.25a197.52,197.52,0,0,1,25.33-4.15c-.28,3.78-.55,7.55-.83,11.34l.31.14c5.37,5.83,16.44,6.21,23.33,1.53a2.8,2.8,0,0,0,1.2-2.64c-.21-1.85-.59-5.2-1.06-9.43,10.51.16,22.18,1.23,31.57,5.81,17.51,8.54,23.53,27.06,32.25,43.4a322.66,322.66,0,0,1,15,32.41,29.66,29.66,0,0,1-10.35,4.56c-4-5.18-8-10.3-12-15.46-4-12.75-11.26-24.9-18.52-35.36a6.21,6.21,0,0,0-8.92,1.58l-1.48.92a5.86,5.86,0,0,0-5.81,4.44c-3.53.95-6.51,5.85-5.37,9.33l1.39,3c3.58,5.23,7.57,11.43,11.93,17,1.07,14.42,2,26.58,3.11,42.26v.05c-24.06,10-44.69,9.9-73.86,1q.48-21.36,1-42.73A23.63,23.63,0,0,1,905.6,442Z"/><path class="cls-10" d="M924.06,321.34l-.2.28a5.25,5.25,0,0,1-.08.59c-1.21,9.91-1.7,12.19-2.06,16.72h-.07c-4.44-4.31-5.23-11.57-2.73-17.22,6.6-14.92,32.23-18.52,45.18-10.2,3.71-13,18.85-10.19,26.71-.87a15.23,15.23,0,0,1,2.87,4.73,12.83,12.83,0,0,1-1.93,11.29,21.57,21.57,0,0,1-9.32,7.13l-.45.09c1.62,7.93-1.46,16.49-7.46,22.35-4.08,4-9.88,6.68-15.45,5.51l-.81.09c-.33-3.17-.65-6.32-.94-9.34,4,.14,6.5-4,6.86-8,.68-7.3-9-5.68-9-5.68-1.27.81-2.95.21-4.31-.43C941.42,334,932.43,327.56,924.06,321.34Z"/><path class="cls-7" d="M1037.17,903.56c9,6.43,34.1,17.14,38.52,27a3.33,3.33,0,0,1,.16,1.08,3.16,3.16,0,0,1-2.84,3.26c-18.15,1.09-55.49,0-77.46-1.07-.37-9.57-.74-22.46-1.12-33.44h0a121.33,121.33,0,0,0,42.73,1.62Z"/><path class="cls-7" d="M921,901.48c-.41,11.5-.84,25.26-1.26,35.16-24,1.09-64.66,2.16-84.45,1.08a3.29,3.29,0,0,1-3.1-3.27,3.14,3.14,0,0,1,.18-1.08c4.93-10.11,33.35-21.08,42.61-27.46v-1q10.66-1.07,21.39-1.28C904.43,903.44,913.15,903.35,921,901.48Z"/><path class="cls-12" d="M1037.17,877v25a121.33,121.33,0,0,1-42.73-1.62h0c-.37-10.69-.72-19.57-1-21.81v-.53q21.89-.5,43.75-1.87Z"/><path class="cls-12" d="M921.93,881.47c-.29,3.27-.62,10.92-.95,20-7.83,1.87-16.55,2-24.63,2.12q-10.71.23-21.39,1.28V881.14l0-.24C890.6,881.85,906.28,882,921.93,881.47Z"/><path class="cls-12" d="M1029,468.93a299.52,299.52,0,0,1,21.14,30.14c1.81,3.05,3.54,6.15,5.14,9.32,5,10,11.85,21.24,10.86,32.06a11.4,11.4,0,0,1-6.94,9.32,28.1,28.1,0,0,1-10.92,2.27c-5.73,0-11.23-1.95-14.67-6.53-3.09-4.11-6.6-10.81-8.78-14.83a108.88,108.88,0,0,1-6.78-15c-5.18-14.23-13.81-36.83-19.54-52.41a66.76,66.76,0,0,1-8.26-8.93h0c-4.36-5.54-8.35-11.74-11.93-17l-1.39-3c-1.14-3.48,1.84-8.38,5.37-9.33a5.86,5.86,0,0,1,5.81-4.44l1.48-.92a6.21,6.21,0,0,1,8.92-1.58c7.26,10.46,14.57,22.61,18.52,35.36C1020.94,458.63,1025,463.75,1029,468.93Z"/><path class="cls-12" d="M879.19,484c5.37,20.3,12.17,42.76,18,63.83q1.85,6.6,3.53,13a10.62,10.62,0,0,0,.36,1.13l.31.91a15.61,15.61,0,0,0,2.87,5.09,14.34,14.34,0,0,1,2.83,6.87c.57,3.13.84,6.44,2.49,9.14s4.55,4.5,6.57,7l1.89,3.13a2.27,2.27,0,0,1,0,2.38c-2.17,3.5-5.81,8-9.46,7.64-4-.35-8.29-.77-11.65-3-3.15-2.14-5.1-5.62-6.69-9.1-1-2.25-2-7.45-2.93-11.85-.49-2.44-.94-4.64-1.33-6-15.7-26.82-28.69-61.31-37.55-91.83a17.62,17.62,0,0,1,.94-12.29c.77-1.69,1.61-3.42,2.48-5.18a131.29,131.29,0,0,0,31.3,11.72A39.74,39.74,0,0,0,879.19,484Z"/><path class="cls-12" d="M938.66,366.58c-4.53,0-8.87-1.1-12.1-4.16-5.57-5.27-5.48-14-5-21.66,0-.65.09-1.27.13-1.83.36-4.53.85-6.81,2.06-16.72a5.25,5.25,0,0,0,.08-.59l.2-.28c8.37,6.22,17.36,12.64,26.79,17.05,1.36.64,3,1.24,4.31.43,0,0,9.7-1.62,9,5.68-.36,4-2.84,8.12-6.86,8,.29,3,.61,6.17.94,9.34.76,7.51,1.59,15.06,2.24,20.93.47,4.23.85,7.58,1.06,9.43a2.8,2.8,0,0,1-1.2,2.64c-6.89,4.68-18,4.3-23.33-1.53l-.31-.14c.28-3.79.55-7.56.83-11.34Z"/><path class="cls-12" d="M935.46,366.37l-.39-.06Z"/><path class="cls-13" d="M951.79,365.16c-5-1-10.88,1.69-16,1.24a27.11,27.11,0,0,0,2.86.18c-.16,2.25-.33,4.5-.49,6.75A18.79,18.79,0,0,0,951.79,365.16Z"/><path class="cls-11" d="M956.85,344.38a3.23,3.23,0,0,0-1.11-2.42,1.18,1.18,0,0,0-.7-.13c-4.92.11-10,1.64-15,1.89a72.14,72.14,0,0,1-15.88-.84,3.5,3.5,0,0,0-1.9,0c-2.14.84-.71,8.4-.37,10.18a16.82,16.82,0,0,0,4.66,9.35,15.36,15.36,0,0,0,8.51,3.89l.39.06.34,0c4.2.37,9.24.34,13.07-1.72,3.35-1.8,5.35-5.94,6.4-9.5C955.77,353.46,957.26,347.79,956.85,344.38Z"/><path class="cls-14" d="M919.87,928.14c-12.23,3.45-27,2.36-39.65,3.15-15.49,1-31.35-.09-46.88.46h0"/><path class="cls-14" d="M995.28,926.34a496.28,496.28,0,0,0,80.44,4.36"/><circle class="cls-21" cx="929.8" cy="423.58" r="6.95"/><circle class="cls-21" cx="984.34" cy="399.67" r="6.95"/><circle class="cls-21" cx="964.22" cy="484.84" r="6.95"/><circle class="cls-21" cx="876.6" cy="450.98" r="6.95"/><path class="cls-16" d="M920.43,454.88A23.63,23.63,0,0,1,905.6,442c-2.74-6.35-2.27-14,2.95-21"/><path class="cls-16" d="M990.22,454.31c1.06,14.44,1.95,26.61,3.1,42.31"/><path class="cls-16" d="M920.43,454.88q-.48,21.38-1,42.73c0,.27,0,.53,0,.8"/><path class="cls-16" d="M960.5,382.75c10.51.16,22.18,1.23,31.57,5.81,17.51,8.54,23.53,27.06,32.25,43.4a321.13,321.13,0,0,1,26.44,66.72"/><path class="cls-16" d="M948.7,365.27a43.87,43.87,0,0,1-10,1.31c-4.53,0-8.87-1.1-12.1-4.16-5.57-5.27-5.48-14-5-21.66.39-5.91.83-7.4,2.19-18.55a5.25,5.25,0,0,0,.08-.59"/><path class="cls-16" d="M957.32,352.48c4,.14,6.5-4,6.86-8,.68-7.3-9-5.68-9-5.68"/><path class="cls-16" d="M938.66,366.58l-1.11,15.23c-.28,3.78-.55,7.55-.83,11.34l.31.14c5.37,5.83,16.44,6.21,23.34,1.52a2.78,2.78,0,0,0,1.19-2.62c-.21-1.85-.59-5.21-1.06-9.44-.93-8.33-2.2-20.05-3.18-30.27"/><path class="cls-16" d="M905.6,442a216.69,216.69,0,0,1-18.43,29.07c-1.44,1.94-2.76,3.67-3.95,5.42a39.74,39.74,0,0,0-4,7.49c-.12.28-.24.57-.34.87"/><path class="cls-16" d="M998.47,418.11c7.26,10.46,14.57,22.61,18.52,35.36"/><path class="cls-16" d="M886.05,574.05c-15.69-26.82-28.69-61.29-37.55-91.82a17.61,17.61,0,0,1,.94-12.29C855.57,456.63,865.16,441,870,428.6c5.17-13.35,11-27.57,23-35.39,5.79-3.77,12.55-5.71,19.27-7.25a197.52,197.52,0,0,1,25.33-4.15"/><path class="cls-16" d="M886.05,574.05c1.1,3.72,2.65,14.31,4.26,17.83s3.53,7,6.69,9.09c3.36,2.27,7.61,2.69,11.66,3,3.64.32,7.28-4.14,9.44-7.64a2.29,2.29,0,0,0,0-2.38l-1.9-3.12c-2-2.48-4.89-4.24-6.56-7s-1.93-6-2.5-9.14a14.36,14.36,0,0,0-2.83-6.87,15.63,15.63,0,0,1-2.87-5.11l-.32-.9c-.13-.37-.25-.74-.35-1.12-1.13-4.24-2.3-8.57-3.53-13-5.88-21.07-12.68-43.53-18-63.83l0-.13"/><path class="cls-16" d="M919,497.46l.51.15c29.17,8.91,49.8,9,73.86-1"/><path class="cls-16" d="M1017,453.47c13.55,17.69,28.19,35,38.26,54.92,5,10,11.85,21.24,10.86,32.06a11.4,11.4,0,0,1-6.94,9.32,28.1,28.1,0,0,1-10.92,2.27c-5.73,0-11.23-1.95-14.67-6.53-3.09-4.11-6.6-10.81-8.78-14.83a108.88,108.88,0,0,1-6.78-15c-5.18-14.23-13.81-36.83-19.54-52.41"/><path class="cls-16" d="M998.48,463.25a66.76,66.76,0,0,1-8.26-8.93h0c-4.36-5.54-8.35-11.74-11.93-17l-1.39-3c-1.14-3.48,1.84-8.38,5.37-9.33a5.86,5.86,0,0,1,5.81-4.44l1.48-.92a6.21,6.21,0,0,1,8.92-1.58"/><path class="cls-16" d="M851.92,464.76a131.29,131.29,0,0,0,31.3,11.72"/><path class="cls-16" d="M1039.32,464.37a29.66,29.66,0,0,1-10.35,4.56l-.23.05"/><path class="cls-16" d="M875,881.14v24.77"/><path class="cls-16" d="M921,901.48c.33-9.08.65-16.75.95-20"/><path class="cls-16" d="M1037.17,877v26.92"/><path class="cls-16" d="M994.43,900.43c-.36-10.69-.72-19.57-1-21.81"/><path class="cls-16" d="M875,904.88q10.66-1.07,21.39-1.28c8.08-.16,16.8-.25,24.63-2.12"/><path class="cls-16" d="M994.44,900.43a121.33,121.33,0,0,0,42.73,1.62"/><path class="cls-16" d="M921.45,343a74.19,74.19,0,0,0,31.8-1.19"/><path class="cls-16" d="M958,341.71a2.25,2.25,0,0,1,2.81.52,3.12,3.12,0,0,1,.46,2.95,5,5,0,0,1-1.92,2.39"/><path d="M923.83,338.21l.21.22a1.11,1.11,0,0,0,.49.31,1.06,1.06,0,0,0,.58.13,1,1,0,0,0,.57-.13,1.11,1.11,0,0,0,.49-.31l.23-.3a1.58,1.58,0,0,0,.21-.76l-.06-.4a1.57,1.57,0,0,0-.38-.66l-.22-.22a1.24,1.24,0,0,0-.48-.31,1.29,1.29,0,0,0-.58-.13,1.27,1.27,0,0,0-.58.13,1.11,1.11,0,0,0-.48.31l-.24.31a1.5,1.5,0,0,0-.2.75l.05.4a1.39,1.39,0,0,0,.39.66Z"/><path d="M940,339.62l.21.21a1.11,1.11,0,0,0,.49.31,1.06,1.06,0,0,0,.58.13,1,1,0,0,0,.57-.13,1.11,1.11,0,0,0,.49-.31l.23-.3a1.55,1.55,0,0,0,.21-.76l-.06-.4a1.57,1.57,0,0,0-.38-.66l-.22-.22a1.24,1.24,0,0,0-.48-.31,1.17,1.17,0,0,0-.58-.12,1.14,1.14,0,0,0-.58.12,1.11,1.11,0,0,0-.48.31l-.24.31a1.51,1.51,0,0,0-.2.76l0,.39a1.47,1.47,0,0,0,.39.67Z"/><path class="cls-16" d="M931.7,336.39a13.57,13.57,0,0,1-1.67,7.2"/><path class="cls-16" d="M922,333.18a5.45,5.45,0,0,1,4.37-.16"/><path class="cls-16" d="M939.33,334a6.26,6.26,0,0,1,4.74,1.18"/><polygon class="cls-17" points="1080.06 244.66 1081.96 246.18 912.06 561.04 910.16 559.49 1080.06 244.66"/><path class="cls-18" d="M1049,317.89c6.72-10.38,13.41-21.91,17.74-32.35.22-.58.48-1.16.71-1.75,11.07-28.25,10.93-31.46,10.93-31.46,57.09,4.66,67.25,96.83,124.34,101.49l-17.38,32.43c-5.8,10.79-11.61,21.62-17.38,32.4s-11.61,21.61-17.38,32.44c-57.09-4.66-67.25-96.84-124.34-101.5C1026.2,349.59,1037.6,335.4,1049,317.89Z"/><path class="cls-20" d="M1117.91,397.21c-17.34-25.51-25.51-56.13-53.06-70.42a109.15,109.15,0,0,0-17.12-7c-10.94,16.63-21.53,29.82-21.53,29.82,57.09,4.66,67.25,96.84,124.34,101.5q7.41-13.9,14.88-27.76C1148.51,415.55,1129.63,414.34,1117.91,397.21Z"/><path class="cls-22" d="M1179.41,397.24a27.17,27.17,0,0,1-8.43-5.13c-27.55-25.51-44.9-58.17-72.46-83.68-1-1-4.08-3.07-6.12-5.11a233,233,0,0,0-25.76-17.65c-4.33,10.4-11,21.88-17.68,32.22l-1.23,1.88a109.15,109.15,0,0,1,17.12,7c27.55,14.29,35.72,44.91,53.06,70.42,11.72,17.13,30.6,18.34,47.51,26.12q1.24-2.34,2.5-4.68Q1173.65,408,1179.41,397.24Z"/><path class="cls-20" d="M1078.34,252.33s.14,3.21-10.93,31.46c-.23.59-.49,1.17-.71,1.75l-.06.13a233,233,0,0,1,25.76,17.65c2,2,5.1,4.08,6.12,5.11,27.56,25.51,34.4,64.9,72.46,83.68,2.92,1.44,5.28,3.9,8.43,5.13q2.94-5.49,5.89-11l17.38-32.43C1145.59,349.16,1135.43,257,1078.34,252.33Z"/><path class="cls-17" d="M1079.71,244.13c-1.68,0-3,1.56-3,3.59s1.31,3.71,3,3.75,3-1.56,3-3.59-1.31-3.71-3-3.75Z"/></g><g id="america"><path class="cls-7" d="M625.05,930a2.94,2.94,0,0,1-1.69,5.21c-37.3,1.81-73.74,1.37-111.41.86-.16-18.27-.38-42.46-.53-58.8h0c20,.49,40.93.21,60.71-.82.47,8.58.18,18.18.87,26.45C588.14,909.48,609.29,917.24,625.05,930Z"/><path class="cls-7" d="M456,933.3a2.87,2.87,0,0,1-2.25,4.86q-52.06-3.4-104-8.79l-1-.12c1.78-28.6,4.55-42.12,8.48-58.71A221,221,0,0,0,419,877.59c-.8,10.35-.82,25.66-.82,25.66C430,913.25,446.11,923.32,456,933.3Z"/><path class="cls-8" d="M572.13,876.46c-19.78,1-40.75,1.31-60.71.82-5-.11-9.93-.29-14.77-.5-.29-76.46-2.63-150.86-7-227.19-.73,6.53-1.49,13.08-2.26,19.61l-.55,5.44a35.72,35.72,0,0,1-1.09,5.8c-17.31,63.51-36.4,134.7-57.23,197.72-3.16.22-6.34.37-9.51.45a221,221,0,0,1-61.76-7.05q-5.43-1.39-10.76-3.08c24.3-72.8,45.93-147.49,64.82-221.87a40.68,40.68,0,0,0,1.17-7.12l.23-2.94a41.72,41.72,0,0,0,0-5.7,422.42,422.42,0,0,1,17.26-146,229.73,229.73,0,0,0,12.74,20.75A12.58,12.58,0,0,0,453.1,511c23.7.09,48.92.53,74,1.15C547,571,553,620.65,559.88,684.39c6.4,59,17,130.21,22.72,191.45C579.17,876.07,575.66,876.28,572.13,876.46Z"/><path class="cls-8" d="M485.76,680.44a35.72,35.72,0,0,0,1.09-5.8l.47-4.69q-1.23,6.94-2.48,13.87C485.15,682.7,485.46,681.56,485.76,680.44Z"/><path class="cls-9" d="M559.88,684.39C553,620.65,547,571,527.14,512.16c-8.08-.2-16.17-.38-24.22-.53,1.56,47.84-4.89,95.84-13,143.22,4.16,74.48,6.41,148.25,6.7,222.95,4.84.21,9.77.39,14.77.5,20,.49,40.93.21,60.71-.82,3.53-.18,7-.39,10.47-.62C576.85,815.62,566.28,743.34,559.88,684.39Z"/><path class="cls-11" d="M464.79,460.67c-12.19,6.18-29.5,8.06-42.24,9.12-1.44.13-2.81.24-4.12.34l-1.06-2.36a180.6,180.6,0,0,1-8.22-47.92c-.45-13.05-1.33-29.57,9-39.43,3.27-3.12,7.4-5.16,11.58-6.89a103.81,103.81,0,0,1,37.44-8.21h.21c.27,6.65.47,12,.54,13.49a1.5,1.5,0,0,0,.81,1.25,27.86,27.86,0,0,0,22.79.25,1.06,1.06,0,0,0,.61-1c-.26-4.39-.61-9.88-1-15.34a51,51,0,0,1,34.27,11.33,82.77,82.77,0,0,1,12,12.77C549.53,403.22,558.83,420,568,436.91a.66.66,0,0,1,0,.7l-.51.64a130.57,130.57,0,0,1-28.71,26.61l-.58.4a153.51,153.51,0,0,1-15.57-24.05q-1.29,19.62-2.6,39.25c-15.43-1.12-30.92-1.7-47.2-1.32l-.58-.22A124.85,124.85,0,0,0,464.79,460.67Z"/><path class="cls-10" d="M501.14,296a18.45,18.45,0,0,1,8.2,4.28c3.83,3.5,1.18,7.63-2.26,10a12.19,12.19,0,0,1-1.45.88c-5.64,2.92-20,4.06-25.87,1.46A19.24,19.24,0,0,1,478,323.18a4,4,0,0,1-1.43,1.63l-2.19,1.44a4.22,4.22,0,0,1-.67.26,4.93,4.93,0,0,1-3.48-.28v-.83c-.54-1.24-.39-2.24-1.17-3.34-1.12-1.6-3.78-1.28-5.15.12a7.24,7.24,0,0,0-1.89,6.64c-2.11.23-4.16-1.55-5.76-3.48a14.63,14.63,0,0,1-2-15l.93-3.59c1.32-11.27,14.58-16.14,14.58-16.14,12.89-5.71,25.79-.76,31.57,4.85Z"/><path class="cls-12" d="M658.43,526.71a16.13,16.13,0,0,1,.2,3.78,3.33,3.33,0,0,1-1,2.55,2.42,2.42,0,0,1-2.83-.33,40.23,40.23,0,0,1-3-3,24.72,24.72,0,0,1,2,4.5,2,2,0,0,1,.1,1.33,1.81,1.81,0,0,1-1.62.84,9.42,9.42,0,0,1-6.94-2.23c-4.74-4.08-8.23-8.94-15-9.9-3.55-.51-8.46-1.19-11.7-1.59-5.77-.72-11.7-1.48-16.88-4a5.84,5.84,0,0,1-2.32-2,5.64,5.64,0,0,0-4.54-2.57c-21.63-.67-44.61-1.36-67.67-1.91-25.12-.62-50.34-1.06-74-1.15a12.58,12.58,0,0,1-10.33-5.42A229.73,229.73,0,0,1,430,484.84q-4-7.38-7.48-15c12.74-1.06,30.05-2.94,42.24-9.12a124.85,124.85,0,0,1,7.44,18.25l.58.22c16.28-.38,31.77.2,47.2,1.32,11.74.84,23.45,2,35.44,3.3h0c13.57,1.48,27.51,3.14,42.29,4.73l5.4.69c10.35,1.54,21.38,1.36,30.82,5.88,6.15,3,17.82,9.33,20.35,13,4.17,6.07,8.12,11.36,8.21,18.88a.87.87,0,0,1-.71.88A4,4,0,0,1,658.43,526.71Z"/><path class="cls-12" d="M663.79,484.45a28.36,28.36,0,0,1,2.31-1.91,10.3,10.3,0,0,1,3.74-1.91c2.61-.55,5.34.65,7.91,1a24.71,24.71,0,0,1,5.13.74,7.62,7.62,0,0,1,4.88,5.79c1.34,5.7-.74,12.15-2.42,17.57a4.92,4.92,0,0,1-3.87,3.41c-6.07,1-20.23,2.82-27.15-1-2.53-3.7-14.2-10.07-20.35-13-9.44-4.52-20.47-4.34-30.82-5.88l-5.4-.69c-14.78-1.59-28.72-3.25-42.3-4.74a113.85,113.85,0,0,1-16.69-18.9,130.57,130.57,0,0,0,28.71-26.61c10.49,11.09,20.61,21.31,29.67,31.6,21.9,8.49,32.14,13.69,55.41,19.49.83.2,5.77-1.23,6.78-1.65A17.65,17.65,0,0,0,663.79,484.45Z"/><path class="cls-12" d="M490,346.07c.28,4.45.69,11.13,1.1,17.86.35,5.46.7,10.95,1,15.34a1.06,1.06,0,0,1-.61,1,27.86,27.86,0,0,1-22.79-.25,1.5,1.5,0,0,1-.81-1.25c-.07-1.45-.27-6.84-.54-13.49-.46-11.57-1.12-27-1.61-32.08l.09-.31a5.52,5.52,0,0,1-3.83-4.1,7.24,7.24,0,0,1,1.89-6.64c1.37-1.4,4-1.72,5.15-.12.78,1.1.63,2.1,1.17,3.34v.83a4.93,4.93,0,0,0,3.48.28l.09.35a55.75,55.75,0,0,0,34.89-1A50.5,50.5,0,0,1,507.11,339c-.66,2.51-1.69,5.13-3.84,6.58-2,1.34-4.56,1.4-7,1.26A52.8,52.8,0,0,1,490,346.07Z"/><path class="cls-13" d="M490.53,354.05c-.19-3-.36-5.78-.5-8,.69.13,1.38.22,2.07.32-5.2-1.93-10.4-2.33-15.6-4.93A19.36,19.36,0,0,0,490.53,354.05Z"/><path class="cls-11" d="M473.81,327.05a22.32,22.32,0,0,0-2.73-.15,1.52,1.52,0,0,0-.87.18c-.44.3-.42.95-.35,1.49a21.86,21.86,0,0,0,1.53,6.24c4.47,9.87,15.35,11.47,24.92,12,2.4.14,5,.08,7-1.26,2.15-1.45,3.18-4.07,3.84-6.58a50.5,50.5,0,0,0,1.56-13.17c0,2.49-18.61,3.37-20.67,3.31a44.57,44.57,0,0,1-10.42-1.29A25.78,25.78,0,0,0,473.81,327.05Z"/><path class="cls-12" d="M476.55,324.81a4,4,0,0,0,1.43-1.63,19.24,19.24,0,0,0,1.78-10.54c5.87,2.6,20.23,1.46,25.87-1.46a12.19,12.19,0,0,0,1.45-.88,93.29,93.29,0,0,1,1.59,15.54,55.75,55.75,0,0,1-34.89,1l-.09-.35a4.22,4.22,0,0,0,.67-.26Z"/><path class="cls-14" d="M364.88,873.39a1712,1712,0,0,1,55.36-198.34c4.18-12.14,8.54-24.4,9.64-37.18,1.1-12.62-1-25.26-2.08-37.89a229.66,229.66,0,0,1,9.59-87.41"/><path class="cls-14" d="M456.8,935.77q-53.74-7.11-107.49-14.2"/><path class="cls-14" d="M511.88,928.06a1022.35,1022.35,0,0,0,114.22,4.7"/><path class="cls-16" d="M466.88,333.17c-5.62-.84-6.51-7.38-3-11,1.37-1.4,4-1.72,5.14-.12.79,1.1.63,2.1,1.17,3.34"/><path class="cls-16" d="M490,346.07c.28,4.45.69,11.13,1.1,17.86.35,5.46.7,11,1,15.34a1,1,0,0,1-.61,1,27.86,27.86,0,0,1-22.79-.26,1.42,1.42,0,0,1-.8-1.24c-.2-4-1.38-37.53-2.16-45.57"/><path class="cls-16" d="M476.42,341.48a51.68,51.68,0,0,0,19.89,5.37c2.4.14,5,.08,7-1.26,2.15-1.45,3.18-4.07,3.84-6.58a50.5,50.5,0,0,0,1.56-13.17,95.32,95.32,0,0,0-1.66-16"/><path class="cls-16" d="M467.13,365.32a103.81,103.81,0,0,0-37.44,8.21c-4.18,1.73-8.31,3.77-11.58,6.89-10.29,9.86-9.41,26.38-9,39.43a180.6,180.6,0,0,0,8.22,47.92l1.06,2.36c1.31-.1,2.68-.21,4.12-.34,12.74-1.06,30.05-2.94,42.24-9.12a38.62,38.62,0,0,0,5.16-3.12"/><path class="cls-16" d="M520,480.46q1.31-19.63,2.6-39.25,1.13-17,2.24-33.93"/><path class="cls-16" d="M572.12,876.3c.48,8.62.19,18.29.88,26.61"/><path class="cls-16" d="M456.45,411.63c5.35,18.19,9.22,31.35,13.5,45.92"/><path class="cls-16" d="M538.4,465.55l-.22-.29a153.51,153.51,0,0,1-15.57-24.05"/><path class="cls-16" d="M491.13,363.93a51,51,0,0,1,34.27,11.33,82.77,82.77,0,0,1,12,12.77C549.53,403.22,558.83,420,568,436.91a.66.66,0,0,1,0,.7,130.77,130.77,0,0,1-29.8,27.65"/><path class="cls-16" d="M473.78,326.86a55.75,55.75,0,0,0,34.89-1"/><path class="cls-16" d="M464.25,327.36a1.86,1.86,0,0,1,2.85-2.21"/><path class="cls-16" d="M567.47,438.25c10.49,11.09,20.61,21.31,29.67,31.6"/><path class="cls-16" d="M538.76,464.86a113.85,113.85,0,0,0,16.69,18.9h0"/><path class="cls-16" d="M642.76,506.21c6.6,7.25,16.56,13.26,15.87,24.28a3.24,3.24,0,0,1-1,2.54,2.42,2.42,0,0,1-2.83-.32,45.06,45.06,0,0,1-3.46-3.45"/><path class="cls-16" d="M658.42,526.71a4,4,0,0,0,3.4,1.15.88.88,0,0,0,.72-.87c-.1-7.52-4-12.82-8.22-18.89-2.53-3.7-14.19-10.07-20.35-13-9.44-4.52-20.47-4.34-30.82-5.88l-5.4-.69c-45-4.84-82.28-10.34-124.94-9.36l-.58-.22a125.35,125.35,0,0,0-7.44-18.25"/><path class="cls-16" d="M422.55,469.79q3.45,7.66,7.48,15a229.73,229.73,0,0,0,12.74,20.75A12.58,12.58,0,0,0,453.1,511c45.49.17,96.54,1.65,141.71,3.06a5.61,5.61,0,0,1,4.54,2.57,5.86,5.86,0,0,0,2.31,2c5.19,2.54,11.12,3.3,16.89,4,3.24.4,8.15,1.08,11.71,1.59,6.76,1,10.25,5.81,15,9.9a9.5,9.5,0,0,0,7,2.24,1.83,1.83,0,0,0,1.62-.85,1.92,1.92,0,0,0-.1-1.33c-2.77-8.45-8.52-12.43-15.85-17"/><path class="cls-16" d="M681.74,486c-6.76.31-21.74,3.46-16.83,11"/><path class="cls-16" d="M679.51,492.19c-4.86,0-12.56,2.46-15.79,6.29a2,2,0,0,0,1.33,3.22c3.12.36,8.06-4.14,13.63-1.77"/><path class="cls-16" d="M654.32,508.1c6.92,3.85,21.09,2,27.15,1a4.89,4.89,0,0,0,3.87-3.4c2.74-8.92,7.65-26.69-10.07-23.57a20.53,20.53,0,0,0-5,1.84,11.52,11.52,0,0,0-3.68,2.31,3.92,3.92,0,0,0-1,4"/><path class="cls-16" d="M653.3,489.52c-23.81-5.86-34-11.09-56.17-19.67"/><path class="cls-16" d="M653.32,489.44c4.34-1.89,8-2.05,12.69-2.46"/><path class="cls-16" d="M660,487.54c1.51-1.1,4-3.21,5.57-4.31a14.88,14.88,0,0,1,4.92-2.68,5,5,0,0,1,5.14,1.42"/><path class="cls-16" d="M502.3,321.13a23.63,23.63,0,0,0,1,6.08"/><path d="M492.52,323.33v.28a1,1,0,0,0,.13.57,1.11,1.11,0,0,0,.31.49,1.17,1.17,0,0,0,.48.31,1.27,1.27,0,0,0,.58.13l.4-.06a1.57,1.57,0,0,0,.66-.38l.23-.31a1.42,1.42,0,0,0,.21-.75v-.28a1.15,1.15,0,0,0-.13-.58,1.36,1.36,0,0,0-.79-.79,1.15,1.15,0,0,0-.58-.13l-.4.05a1.49,1.49,0,0,0-.66.39l-.24.3a1.57,1.57,0,0,0-.2.76Z"/><path d="M505.37,320.85v.28a1.22,1.22,0,0,0,.13.57,1.32,1.32,0,0,0,.8.8,1.22,1.22,0,0,0,.57.13l.4-.06a1.45,1.45,0,0,0,.66-.38l.24-.31a1.5,1.5,0,0,0,.2-.75v-.28a1.08,1.08,0,0,0-.13-.58,1.14,1.14,0,0,0-.31-.48,1,1,0,0,0-.48-.31,1.15,1.15,0,0,0-.58-.13l-.39.06a1.54,1.54,0,0,0-.67.38l-.23.3a1.48,1.48,0,0,0-.21.76Z"/><path class="cls-16" d="M489.13,321.5a11.14,11.14,0,0,1,5.17-2"/><path class="cls-16" d="M503.64,317.25a5.48,5.48,0,0,1,3.58-.49"/><polygon class="cls-17" points="776.73 350.72 774.67 349.68 569.99 619.12 572.08 620.15 776.73 350.72"/><path class="cls-18" d="M725.84,406.15c6.3-9.85,13.62-20.12,20.91-27.93.41-.42.81-.87,1.23-1.3,20-20.58,22.82-21.72,22.82-21.72-26.34-47.33-109.69-20-136-67.37l-21.13,27.65q-10.53,13.83-21.1,27.64t-21.13,27.65c26.34,47.33,109.68,20,136,67.37C707.43,438.14,715.2,422.78,725.84,406.15Z"/><path class="cls-20" d="M634.77,287.83l-7.62,10c23.78,22.78,66.74,29.6,98.78,37.78,14.32,3.58,31.76,10.3,39.29,24.27,4.63-4.27,5.58-4.66,5.58-4.66C744.46,307.87,661.11,335.17,634.77,287.83Z"/><path class="cls-18" d="M695.32,374.37c-33.27-10.29-74.52-13.83-97.05-38.75l-5.73,7.5-1.65,2.16c26.11,22.43,67.05,26.24,99.32,39.3,13,4.33,26,14.56,31.5,28.17,1.32-2.15,2.69-4.36,4.13-6.6.63-1,1.29-2,1.95-3C723.46,388.41,708.62,377.92,695.32,374.37Z"/><path class="cls-20" d="M690.21,384.58c-32.27-13.06-73.21-16.87-99.32-39.3l-8.51,11.13c24.64,21.46,64,24.78,95.59,35.31,14.69,5.51,30.2,16,37.63,31.41,1.81-3.18,3.87-6.69,6.11-10.38C716.22,399.14,703.22,388.91,690.21,384.58Z"/><path class="cls-20" d="M667.76,400.91c-30.35-5.28-70.08-13.12-93.82-33.45-.85,1.1-1.69,2.21-2.53,3.31,26.34,47.33,109.68,20,136,67.37,0,0,1.24-2.44,3.39-6.42C706,413.18,683.53,404.41,667.76,400.91Z"/><path class="cls-20" d="M709.6,366.21c-36.25-9.26-76-17.36-103.37-41l-8,10.43c22.53,24.92,63.78,28.46,97.05,38.75,13.3,3.55,28.14,14,32.47,28.78,2.82-4.3,5.81-8.62,8.89-12.73C733.84,377.25,720,370,709.6,366.21Z"/><path class="cls-18" d="M713.69,351.92c-18.37-6.12-37.76-4.08-55.11-11.22C642,334.82,627.4,325.85,614,315l-.38.49c-2.46,3.24-4.94,6.47-7.41,9.71,27.39,23.66,67.12,31.76,103.37,41,10.38,3.77,24.24,11,27.08,24.21a148.83,148.83,0,0,1,10.06-12.19C744.12,364,726.43,356.17,713.69,351.92Z"/><path class="cls-20" d="M716.75,343.76c-34.5-6.51-69-17.6-96.07-37.48L614,315c13.38,10.86,28,19.83,44.56,25.71,17.35,7.14,36.74,5.1,55.11,11.22,12.74,4.25,30.43,12,33,26.31h0c.41-.42.81-.87,1.23-1.3,3.11-3.2,5.81-5.93,8.14-8.26C749.48,353.41,732.38,346.36,716.75,343.76Z"/><path class="cls-18" d="M725.93,335.59c-32-8.18-75-15-98.78-37.78q-3.24,4.23-6.47,8.47c27.08,19.88,61.57,31,96.07,37.48,15.63,2.6,32.73,9.65,39.37,24.9,4-4,7-6.82,9.1-8.8C757.69,345.89,740.25,339.17,725.93,335.59Z"/><path class="cls-17" d="M777.32,350.82c.7,1.43-.15,3.22-1.9,4s-3.71.32-4.39-1.09.16-3.22,1.9-4,3.71-.32,4.39,1.09Z"/><path class="cls-23" d="M748,376.92c20-20.58,22.82-21.72,22.82-21.72-11-19.75-31.91-26.5-54.47-31.11A296.5,296.5,0,0,1,679,369.27c23.27,7.54,34.93,17.2,48.8,33.88,4.46-6.34,14.24-19.87,19-24.93C747.16,377.8,747.56,377.35,748,376.92Z"/><polygon class="cls-18" points="729.36 337.89 724.33 337.39 721.07 341.24 720 336.31 715.33 334.4 719.69 331.85 720.06 326.82 723.83 330.18 728.73 328.98 726.7 333.6 729.36 337.89"/><polygon class="cls-18" points="732.07 390.55 726.81 389.56 723 393.33 722.32 388.02 717.56 385.57 722.4 383.28 723.26 377.99 726.93 381.89 732.23 381.07 729.66 385.77 732.07 390.55"/><polygon class="cls-18" points="754.53 359.46 751.43 355.89 746.74 356.42 749.18 352.37 747.23 348.06 751.83 349.13 755.32 345.95 755.73 350.65 759.83 352.99 755.48 354.83 754.53 359.46"/><polygon class="cls-18" points="705.74 364.93 701.13 366.08 699.46 370.52 696.95 366.5 692.21 366.28 695.26 362.65 694 358.08 698.4 359.86 702.36 357.24 702.02 361.98 705.74 364.93"/><polygon class="cls-18" points="736.12 356.28 731.51 357.43 729.85 361.87 727.33 357.85 722.59 357.63 725.65 354 724.38 349.43 728.78 351.2 732.74 348.59 732.41 353.32 736.12 356.28"/></g></svg>