<svg xmlns="http://www.w3.org/2000/svg" xmlns:xlink="http://www.w3.org/1999/xlink" viewBox="0 0 1920 1080"><defs><style>.cls-1{isolation:isolate;}.cls-2{fill:#f7f8fa;}.cls-3{fill:#f2f3f5;}.cls-12,.cls-13,.cls-27,.cls-33,.cls-4{fill:#fff;}.cls-4,.cls-8{stroke:#31434d;}.cls-11,.cls-14,.cls-15,.cls-26,.cls-4,.cls-8,.cls-9{stroke-linecap:round;}.cls-11,.cls-25,.cls-26,.cls-29,.cls-30,.cls-32,.cls-33,.cls-4,.cls-8,.cls-9{stroke-miterlimit:10;}.cls-5{fill:#53bcf7;}.cls-6{fill:#f6a001;}.cls-7{fill:#ebeced;}.cls-11,.cls-14,.cls-15,.cls-25,.cls-26,.cls-29,.cls-8,.cls-9{fill:none;}.cls-14,.cls-15,.cls-30,.cls-32,.cls-33,.cls-9{stroke:#464646;}.cls-10{fill:#276ce4;}.cls-11,.cls-26{stroke:#fff;}.cls-11,.cls-14{stroke-width:3px;}.cls-12{opacity:0.29;}.cls-14,.cls-15{stroke-linejoin:round;}.cls-15,.cls-26,.cls-29{stroke-width:2px;}.cls-16{fill:#09102d;}.cls-17,.cls-19{mix-blend-mode:multiply;}.cls-17{fill:url(#linear-gradient);}.cls-18{fill:#464646;}.cls-19{fill:url(#linear-gradient-2);}.cls-20{fill:#0f379a;}.cls-21{fill:#ffe1cf;}.cls-22{fill:#052251;}.cls-23{fill:#ffaf03;}.cls-24{fill:#31434d;}.cls-25{stroke:#53bcf7;}.cls-27{opacity:0.53;}.cls-28{fill:#0c2c7a;}.cls-29{stroke:#b2d3f7;}.cls-30{fill:#7b176e;}.cls-31{opacity:0.5;}.cls-32{fill:#e384d7;}</style><linearGradient id="linear-gradient" x1="774.98" y1="975.55" x2="794.18" y2="975.55" gradientTransform="matrix(-1, 0, 0, 1, 1877.7, 0)" gradientUnits="userSpaceOnUse"><stop offset="0" stop-color="#eef4fb"/><stop offset="0.31" stop-color="#e3edf8"/><stop offset="1" stop-color="#cfe1f3"/></linearGradient><linearGradient id="linear-gradient-2" x1="981.9" y1="975.55" x2="1001.1" y2="975.55" xlink:href="#linear-gradient"/></defs><title>2019-nCov17</title><g class="cls-1"><g id="background"><ellipse class="cls-2" cx="954.23" cy="530.45" rx="481.32" ry="462.01"/><ellipse class="cls-2" cx="1404.45" cy="909.73" rx="48.79" ry="50.18"/><circle class="cls-2" cx="1537.77" cy="172.69" r="72.01"/><ellipse class="cls-3" cx="344.43" cy="647.79" rx="45.93" ry="47.24"/><rect class="cls-4" x="843.05" y="295.62" width="45.3" height="145.45"/><rect class="cls-4" x="1492.47" y="588.24" width="45.3" height="145.45"/><rect class="cls-5" x="207" y="330.5" width="111.6" height="111.6"/><rect class="cls-4" x="443.59" y="84.02" width="161.49" height="56.58"/><rect class="cls-4" x="1675.08" y="359.95" width="123.94" height="81.66"/><rect class="cls-6" x="1410.99" y="764.72" width="108.79" height="50.3"/><rect class="cls-4" x="1600.19" y="441.89" width="45.82" height="32.09"/><rect class="cls-4" x="1600.19" y="734.92" width="45.82" height="32.09"/><rect class="cls-4" x="1600.19" y="140.6" width="45.82" height="32.09"/><rect class="cls-4" x="287.5" y="442.14" width="45.82" height="32.09"/><rect class="cls-4" x="287.5" y="735.92" width="45.82" height="32.09"/><rect class="cls-4" x="287.5" y="140.6" width="45.82" height="32.09"/><rect class="cls-4" x="981.72" y="140.6" width="45.82" height="32.09"/><rect class="cls-4" x="980.94" y="441.89" width="45.82" height="32.09"/><rect class="cls-4" x="702.52" y="335.71" width="105.21" height="105.21"/><ellipse class="cls-7" cx="539.83" cy="995" rx="219.86" ry="15.51"/><ellipse class="cls-7" cx="1000.19" cy="994.25" rx="210.69" ry="17.3"/><ellipse class="cls-7" cx="1390.37" cy="996.05" rx="219.86" ry="15.51"/><line class="cls-8" x1="705.52" y1="355.65" x2="807.73" y2="355.65"/><line class="cls-8" x1="1675.08" y1="382.18" x2="1799.02" y2="382.18"/><line class="cls-8" x1="444.83" y1="100.15" x2="605.08" y2="100.15"/><line class="cls-9" x1="134.71" y1="140.6" x2="1791.04" y2="140.6"/><line class="cls-9" x1="153.06" y1="442.01" x2="1809.39" y2="442.01"/><line class="cls-9" x1="147.17" y1="735.62" x2="1803.5" y2="735.62"/></g><g id="woman"><path class="cls-6" d="M1108.17,838.32l-215.6,43.87a6,6,0,0,1-7.05-4.52L851.34,733.08a6,6,0,0,1,4.63-7.27l222.85-46.41a6,6,0,0,1,7.14,4.8l26.93,147.14A6,6,0,0,1,1108.17,838.32Z"/><rect class="cls-10" x="830.17" y="633.43" width="112.06" height="87.06" rx="6.45" transform="translate(-111.99 179.72) rotate(-10.9)"/><rect class="cls-5" x="944.95" y="600.18" width="86.52" height="86.52" rx="5.29"/><path class="cls-11" d="M870.68,802.75q111-30.39,222.9-57.24"/><path class="cls-12" d="M853.9,660.83l7.62,38.82a2.12,2.12,0,0,0,2.55,1.66l54.34-12.12a2.11,2.11,0,0,0,1.58-2.64l-7.46-37.21c-.3-1.07-4.38-1.73-5.47-1.5l-51.51,10.5A2.12,2.12,0,0,0,853.9,660.83Z"/><path class="cls-13" d="M952.72,615.84l-.32,23.91a3.64,3.64,0,0,0,3.64,3.69h63.57a3.64,3.64,0,0,0,3.64-3.64V615.88a3.64,3.64,0,0,0-3.64-3.64H956.36A3.64,3.64,0,0,0,952.72,615.84Z"/><path class="cls-14" d="M818.18,657.47l372.28,21.84a2.63,2.63,0,0,1,2.33,3.53l-19.6,54.26-37.34,103.32L868.69,886.78l-68.59-300a14.2,14.2,0,0,0-11.47-11L688.48,556.06"/><line class="cls-15" x1="1153.75" y1="676.96" x2="1105.07" y2="845.76"/><line class="cls-15" x1="1113.35" y1="674.39" x2="1074.58" y2="851.05"/><line class="cls-15" x1="1072.8" y1="671.81" x2="1044.36" y2="856.29"/><line class="cls-15" x1="1032.09" y1="669.22" x2="1014.42" y2="861.49"/><line class="cls-15" x1="991.21" y1="666.62" x2="984.75" y2="866.64"/><line class="cls-15" x1="950.18" y1="664.01" x2="955.35" y2="871.74"/><line class="cls-15" x1="908.99" y1="661.39" x2="926.2" y2="876.8"/><line class="cls-15" x1="853.49" y1="658.77" x2="897.32" y2="881.81"/><line class="cls-15" x1="836.07" y1="726.75" x2="1173.19" y2="737.1"/><line class="cls-15" x1="853.94" y1="816.97" x2="1153.75" y2="794.91"/><path class="cls-15" d="M868.69,886.78l-28.51,58.84a7.34,7.34,0,0,0,6.61,10.54h247.7"/><circle class="cls-16" cx="1093.12" cy="975.55" r="20.5"/><path class="cls-17" d="M1083.52,975.55a9.6,9.6,0,1,0,9.6-9.6A9.6,9.6,0,0,0,1083.52,975.55Z"/><path class="cls-18" d="M1093.12,980.49h0a12.42,12.42,0,0,0,12-9.19l5-18.46h-33.94l5,18.46A12.41,12.41,0,0,0,1093.12,980.49Z"/><circle class="cls-16" cx="886.2" cy="975.55" r="20.5"/><path class="cls-19" d="M876.6,975.55a9.61,9.61,0,1,0,9.6-9.6A9.6,9.6,0,0,0,876.6,975.55Z"/><path class="cls-18" d="M886.2,980.49h0a12.42,12.42,0,0,0,12-9.19l5-18.46H869.24l5,18.46A12.41,12.41,0,0,0,886.2,980.49Z"/><polyline class="cls-15" points="864.81 905.03 1117.91 856.29 1135.85 840.42"/><rect class="cls-18" x="673.98" y="552.71" width="57.92" height="15.42" rx="2.11" transform="translate(1325.51 1208.97) rotate(-172.39)"/><path class="cls-20" d="M544.06,483.44a122.87,122.87,0,0,1,5.16,11.36c-5.12-1.13-10.37-3.91-14.7-6.31a.7.7,0,0,1,.11-1.26c1.51-.56,3.87-1.41,5.18-1.74a3.22,3.22,0,0,0,2.12-1.17,1.7,1.7,0,0,0,.22-.62h0Z"/><path class="cls-21" d="M615.89,953.61l.26.15-.29.11c-13.45,4.94-28.16,6-42.44,4.2a113.37,113.37,0,0,1-19.63-4.39c1.49-11.62,2.66-19.87,4.06-31.2a354.06,354.06,0,0,0,60.88,3Q617.3,939.53,615.89,953.61Z"/><path class="cls-21" d="M444.83,917.87c-2.78,11.66-5.14,22.46-7.09,34.29a49.35,49.35,0,0,1-5.56.54,75.81,75.81,0,0,1-12.13-.77,152.79,152.79,0,0,1-45.67-14q3.83-14.25,8.6-28.22c10.35,3.49,21.68,4.95,32.61,6Q430.19,917.08,444.83,917.87Z"/><path class="cls-16" d="M676.65,991.61a2.51,2.51,0,0,1-1.61,4.44q-61.39-.19-122.75-2.63a3,3,0,0,1-2.84-3.32c1.81-16.23,3.17-27.34,4.33-36.42h0a113.37,113.37,0,0,0,19.63,4.39c14.28,1.77,29,.74,42.44-4.2l.29-.11C630.64,962.14,658.43,976.38,676.65,991.61Z"/><path class="cls-16" d="M486.24,990.27a2.63,2.63,0,0,1-2.21,4.29c-36.88-2.51-79.08-7.1-114.89-13.73a4.06,4.06,0,0,1-3.25-4.68q3.41-19.27,8.49-38.2a152.79,152.79,0,0,0,45.67,14,75.81,75.81,0,0,0,12.13.77,49.35,49.35,0,0,0,5.56-.54c0,.16-.05.33-.08.5l.6.37c10.21,9.3,22.48,16.11,33.65,24.13A72.31,72.31,0,0,1,486.24,990.27Z"/><path class="cls-22" d="M400.08,297.9a18.71,18.71,0,0,0,30.24-2.59c3.93-6.55,3.51-14.77,5.94-22a29.41,29.41,0,0,1,15.86-17.36,21.68,21.68,0,0,1,13.16-1.68c5.69,1.25,10.34,5.28,14.36,9.49,3.7,3.87,3.78,10,3.78,14.67a26.74,26.74,0,0,1,14.44-4.67c10.53-.21,20.42,4.73,29.55,10,5.47,3.15,11.25,7,13.12,13,2.75,8.85.62,17.68-7.87,26.27l0-2.86c0-6.55,0-13.19-1.77-19.49l-.92-1.55c-4-6.59-21.55,14.11-25,16.75a3,3,0,0,1-1.79.82,4.11,4.11,0,0,1-2.14-1.13,6.44,6.44,0,0,0-10.2,5.36c.07,3.08,2.25,5.63,3.68,8.35,2.26,4.28,1,9.26-3.68,9.26a7.84,7.84,0,0,1-1.4-.13c-5.76-1-12.44-9.54-15.52-14.12s-4.1-14.59-1.88-20.35c.33-.63.64-1.26,1-1.9a9.93,9.93,0,0,0-1,1.9c-4,7.84-8.85,15.28-17.14,18.22a49.11,49.11,0,0,1-28.44.84,48.22,48.22,0,0,1-15.67-8.06c-5.27-4.33-10.86-10.19-12.2-16.28A.83.83,0,0,1,400.08,297.9Z"/><path class="cls-16" d="M471.1,300.31a1.53,1.53,0,0,0-2.61-1.18c-9.33,9.52-19.72,20.36-33.47,19.45-11.47,0-22.55-6.12-32.21-11.74a51.88,51.88,0,0,0,8,8.06A48.22,48.22,0,0,0,426.51,323a49.11,49.11,0,0,0,28.44-.84c6.32-2.24,10.62-7.1,14.09-12.76A33.59,33.59,0,0,0,471.1,300.31Z"/><path class="cls-20" d="M552.93,506.68c3,5.58,37.86,97.89,53.2,142.15C635.92,734.76,636,782.42,640.26,924q-10.74,1.07-21.53,1.46a354.06,354.06,0,0,1-60.88-3c-2.2-.29-4.41-.61-6.6-1q3.78-93.18,1.42-186.47l-.79-6.44c-7.19-50.89-22-100-40.07-148.1a.6.6,0,0,0-1.17.21c-.06,43.55-1.44,89.85-4,133.12-.66,11.23-1.4,22.46-2.85,33.61-7.59,58.53-34.19,113.11-45,171q-7-.24-14-.62h0q-14.65-.78-29.24-2.16c-10.93-1-22.26-2.49-32.61-6a66.71,66.71,0,0,1-11.59-5.1c5.48-12,9.34-25,13.86-37.21q9.36-25.24,18.71-50.51c6.44-17.38,12.89-34.8,17.64-52.72,11.7-44.11,12.89-90.23,14-135.85,0,0-5.6-52.45-5.83-77.16-.1-11.42.19-23,3-34a66.54,66.54,0,0,1,3.69-10.66c16.58-.36,33.14-1.31,49.68-3.1q.53-1.25,1-2.46l.45.18c9.48,1,19.33,6.17,28.38,7.61,10.9,1.72,24.87,6.39,35.67,2.22,1.19-.46.37-2.1-.7-2.8a10.58,10.58,0,0,0-3.65-.93A19,19,0,0,0,552.93,506.68Z"/><path class="cls-13" d="M457.57,472.37c.95-4.57,2.3-10.64,2.95-14.09a51.23,51.23,0,0,0,1.11-8.52A49.3,49.3,0,0,0,459.94,438q-1.71-7.45-3.6-14.87c-8.82,16.84-23.58,29.43-33.55,43.61a1.61,1.61,0,0,0,1.15,2.52Q440.74,471,457.57,472.37Zm212,42.38h0c-3.57,4.89-7.94,11.59-11.32,17.33-.4.66-.77,1.3-1.13,1.93a255.54,255.54,0,0,1-40.34-10.86c-6.58-2.34-13.06-4.93-19.47-7.69-5.25-2.27-12.89-4.4-17.15-8.17-8.29-7.34-12.72-22.79-16.06-32.93-4-12.12-7-24.55-11.39-36.54a23.69,23.69,0,0,1-1.68,3c-2.25,3.43-5.55,6.46-9.4,7.57-2.18,11.6,1.49,25.68,2.36,34.42l-.21.13.27.46-1.89.27h0a2.39,2.39,0,0,0-.82-2,6.09,6.09,0,0,0-2.61-1.18,135.32,135.32,0,0,0-42.51-4.65,228.75,228.75,0,0,1-9,25.05q-.5,1.21-1,2.46c-16.54,1.79-33.1,2.74-49.68,3.1-18.19.41-36.41.11-54.67-.54-6.28-.23-13.19-.84-18.23-4.2a10.26,10.26,0,0,1-4.16-6,10.49,10.49,0,0,1-.33-2.61,10.74,10.74,0,0,1,.47-3.13c5.74-18.89,16.36-35.95,26.85-52.73,13.24-21.17,26.62-42.52,44-60.45A85.65,85.65,0,0,1,444.18,365a57.34,57.34,0,0,1,46.33-7.34c-.82,6.45-1.65,12.93-2.46,18.7a2.42,2.42,0,0,0,1.16,2.41c8.09,5,17.87,4.4,25.37,1.83A2.17,2.17,0,0,0,516,379c1.26-6.58,1-14.42,1.17-21.88a100.67,100.67,0,0,1,36.28,5.14c21.17,7.12,27.79,24.94,34.68,44.5a397.49,397.49,0,0,1,13.53,47.78A37.37,37.37,0,0,0,614,475.08C629.71,488.47,651.65,504.44,669.55,514.75Z"/><rect class="cls-23" x="480.61" y="447.72" width="89.68" height="50.05" rx="2.34"/><path class="cls-13" d="M496,475.88a1.45,1.45,0,0,0-.39-.59,4.11,4.11,0,0,0-2.49-.73l-43.6-2.82a6.19,6.19,0,0,0-3.23.37c-1.64.83-2.82,5.42-3.46,7.13-1,2.76-1.71,5.63-2.65,8.43-.55,1.62-4.8,18.85-5,18.85l1.29,0c16.58-.36,33.14-1.31,49.68-3.1q.53-1.25,1-2.46c1.56-3.85,3.41-7.58,5-11.44C493,487.47,497.07,478.75,496,475.88Z"/><path class="cls-21" d="M702.4,564c-2.82,1.32-16.27,8.13-18,2.53-.45-1.48.23-3,.89-4.46,1.64-3.48,5.11-7.88,3.82-11.86h0c-1.58-5.38-10.7-6.14-15-7.92-3.53-1.46-5.85-3.52-8.63-6-2.27-2-4-2.56-6.86-3.95l-.42-.25c3.38-5.74,7.75-12.44,11.32-17.33,11.53,1.31,22.68,2.91,33.29,7.52a16.53,16.53,0,0,1,5.81,3.66,20.7,20.7,0,0,1,4.49,7.13c1.13,3.25.94,6.61.79,10.07a52.07,52.07,0,0,1-1.46,10.17,13.31,13.31,0,0,1-5.89,8.18l-2.83,1.76A15.39,15.39,0,0,1,702.4,564Z"/><path class="cls-21" d="M537.65,505.53c-.85-.23-1.69-.48-2.53-.73C536,505.08,536.81,505.32,537.65,505.53Zm11.57-10.73a20.48,20.48,0,0,0,3.83.52,8.16,8.16,0,0,1,4.3,1.36,1.52,1.52,0,0,1,0,2.47c-6.08,4.55-16.64.24-24.11-1.85a83,83,0,0,0,22.85,5.3,1.36,1.36,0,0,1,.67,2.48,5.84,5.84,0,0,1-.71.43,14.17,14.17,0,0,1-3.12,1.17,19,19,0,0,1-5.61.54,89.13,89.13,0,0,1-9.43-1.63,41.63,41.63,0,0,0,9.43,1.63,10.58,10.58,0,0,1,3.65.93c1.07.7,1.89,2.34.7,2.8-10.8,4.17-24.77-.5-35.67-2.22-9.05-1.44-18.9-6.61-28.38-7.61l-.45-.18a228.75,228.75,0,0,0,9-25.05,135.32,135.32,0,0,1,42.51,4.65,6.09,6.09,0,0,1,2.61,1.18,2.39,2.39,0,0,1,.82,2,1.7,1.7,0,0,1-.22.62,3.22,3.22,0,0,1-2.12,1.17c-1.31.33-3.67,1.18-5.18,1.74a.7.7,0,0,0-.11,1.26C538.85,490.89,544.1,493.67,549.22,494.8Z"/><path class="cls-21" d="M517.19,349.41c.07,2.45.07,5,0,7.66-.19,7.46.09,15.3-1.17,21.88a2.17,2.17,0,0,1-1.44,1.63c-7.5,2.57-17.28,3.17-25.37-1.83a2.42,2.42,0,0,1-1.16-2.41c.81-5.77,1.64-12.25,2.46-18.7s1.67-13.05,2.5-18.76l2.39-.52C498.66,346.1,508.93,350.68,517.19,349.41Z"/><path class="cls-24" d="M517.19,349.41a22.48,22.48,0,0,1-18.74-6.47c2,7.41,10.68,13.07,18.77,13.53C517.24,354.75,517.23,351,517.19,349.41Z"/><path class="cls-21" d="M495.4,338.36l-2.39.52-2.12-.38c4.71,0,5.94-5,3.68-9.26-1.43-2.72-3.61-5.27-3.68-8.35a6.44,6.44,0,0,1,10.2-5.36,4.11,4.11,0,0,0,2.14,1.13,3,3,0,0,0,1.79-.82c3.43-2.64,21-23.34,25-16.75l.92,1.55c1.77,6.3,1.82,12.94,1.77,19.49l0,2.86a45.3,45.3,0,0,1-2,13.88c-1.85,5.34-5.72,10.28-11.1,12a15.67,15.67,0,0,1-2.39.55C508.93,350.68,498.66,346.1,495.4,338.36Z"/><path class="cls-21" d="M490.89,338.5l2.12.38,1.34-.3c-.14-.36-.26-.73-.38-1.11A4.66,4.66,0,0,1,490.89,338.5Z"/><path class="cls-13" d="M501.3,321.8c-2.47.68-4.55,1.93-5.37,4.15a12.74,12.74,0,0,0-.52,4.69c.09,6.39.49,10.53,5.7,14.55a21.47,21.47,0,0,0,16.08,4.22,15.67,15.67,0,0,0,2.39-.55c5.38-1.71,9.25-6.65,11.1-12a43.32,43.32,0,0,0,2-12.7c.07-2.43,1-2.31-1.56-2.79-2-.38-4.67.58-6.7.75-4.36.35-8.38-1-12.65-1.09C509.06,321,504.79,320.83,501.3,321.8Z"/><circle class="cls-25" cx="494.36" cy="428.7" r="6.66"/><circle class="cls-25" cx="456.34" cy="375.86" r="6.66"/><circle class="cls-25" cx="593.37" cy="497.06" r="6.66"/><circle class="cls-25" cx="576.95" cy="405.44" r="6.66"/><circle class="cls-25" cx="398.61" cy="460.19" r="6.66"/><path class="cls-26" d="M392.1,912.27c12.51-44.21,27.23-87.8,38.83-132.27,13.36-51.26,22.59-104.23,19-157.08-2.5-36.88-11.05-75.08,1.13-110"/><path class="cls-26" d="M358.82,969.47a747.07,747.07,0,0,0,148.51,21.7"/><path class="cls-26" d="M533.24,983.73a680.59,680.59,0,0,0,165.84,6.1"/><path class="cls-8" d="M517.19,357.07a100.67,100.67,0,0,1,36.28,5.14c21.17,7.12,27.79,24.94,34.68,44.5a399.34,399.34,0,0,1,13.53,47.78A37.45,37.45,0,0,0,614,475.08c15.74,13.39,37.67,29.36,55.58,39.67"/><path class="cls-8" d="M569.67,490.41c2.67,6.58,6,12.91,10.5,16.88,4.25,3.77,11.89,5.9,17.15,8.17,6.4,2.76,12.89,5.35,19.46,7.69a255.78,255.78,0,0,0,40.62,10.91"/><path class="cls-8" d="M552.72,437.82c1.16,3.19,2.23,6.4,3.24,9.64"/><path class="cls-8" d="M557.73,400c-3.33,3.53-5.54,7.17-8.63,10.92"/><path class="cls-8" d="M517.19,349.39c.07,2.46.07,5.05,0,7.68-.19,7.46.09,15.3-1.17,21.88a2.17,2.17,0,0,1-1.44,1.63c-7.5,2.57-17.28,3.17-25.37-1.83a2.42,2.42,0,0,1-1.16-2.41c.81-5.77,1.64-12.25,2.46-18.7s1.67-13.05,2.5-18.76"/><path class="cls-8" d="M456.34,423.08q1.89,7.41,3.6,14.87a49.3,49.3,0,0,1,1.69,11.81,51.23,51.23,0,0,1-1.11,8.52c-.65,3.45-2,9.52-2.95,14.09"/><path class="cls-8" d="M548.55,410.42c8,7.61,8.53,21.19,2.48,30.44-2.24,3.43-5.54,6.46-9.39,7.57"/><path class="cls-8" d="M506.75,320.25a52.82,52.82,0,0,0,24.86,1.16"/><path class="cls-8" d="M495.4,338.36c3.57,8.51,15.64,13.2,24.17,10.5,5.39-1.71,9.26-6.65,11.1-12s2-11.09,2-16.74c0-6.55,0-13.19-1.77-19.5l-.93-1.55c-3.94-6.58-21.55,14.12-25,16.76a3,3,0,0,1-1.8.82,4.11,4.11,0,0,1-2.13-1.13,6.44,6.44,0,0,0-10.2,5.36c.06,3.08,2.24,5.63,3.67,8.34,1.86,3.52,1.36,7.5-1.47,8.82"/><path class="cls-8" d="M500.23,318.51a3.63,3.63,0,0,0-4.87,5.38"/><path class="cls-8" d="M529.87,496.5c7.29,1.26,20.4,7.94,27.48,2.65a1.53,1.53,0,0,0,0-2.48,8.29,8.29,0,0,0-4.31-1.36c-6.23-.21-13.11-3.81-18.52-6.82a.71.71,0,0,1,.1-1.27c1.51-.55,3.88-1.41,5.19-1.73a3.21,3.21,0,0,0,2.12-1.18,2.19,2.19,0,0,0-.6-2.6,6.26,6.26,0,0,0-2.61-1.17A135,135,0,0,0,496,475.9"/><path class="cls-8" d="M527.82,502.56c8.34,2.36,19.78,7.3,28.23,2.95a5.93,5.93,0,0,0,.71-.44,1.36,1.36,0,0,0-.68-2.47,83.51,83.51,0,0,1-23.47-5.54"/><path class="cls-8" d="M487.61,501.11c9.48,1,19.33,6.18,28.38,7.61,10.91,1.73,24.88,6.39,35.67,2.23,1.2-.46.38-2.1-.69-2.8-1.85-1.21-8.82-1-15.85-3.35"/><path class="cls-8" d="M496.46,475a240.53,240.53,0,0,1-10.31,28.42c-34.71,3.75-69.46,3.8-104.35,2.56-6.28-.23-13.2-.84-18.24-4.2a10.2,10.2,0,0,1-4.15-6h0a10.6,10.6,0,0,1,.13-5.75c5.74-18.88,16.36-36,26.86-52.72,13.24-21.17,26.62-42.52,44-60.45A85.65,85.65,0,0,1,444.18,365a57.34,57.34,0,0,1,46.33-7.34"/><path class="cls-8" d="M496.46,475q-36.33-1.89-72.52-5.77a1.61,1.61,0,0,1-1.15-2.52c10.8-15.37,27.23-28.87,35.64-47.93"/><path class="cls-8" d="M657.13,534c3.5-6.11,8.47-13.81,12.45-19.26"/><path class="cls-8" d="M658.68,532.33c2.81,1.38,4.59,1.92,6.86,3.94,2.77,2.47,5.1,4.54,8.62,6,4.33,1.79,13.54,2.56,15.05,8"/><path class="cls-8" d="M698.3,549.25c.4,5.25-2.77,13.13-4.79,18"/><path class="cls-8" d="M705.46,545.12c.34,4.75-.63,14.78-3.07,18.87"/><path class="cls-8" d="M688.91,549.6c1.88,4.12-1.87,8.81-3.59,12.46-.66,1.41-1.33,3-.88,4.46,1.69,5.6,15.13-1.21,17.95-2.53a11.53,11.53,0,0,0,1.38-.76l2.83-1.75a13.32,13.32,0,0,0,5.9-8.19A52.06,52.06,0,0,0,714,543.13c.15-3.46.34-6.83-.78-10.08a21.1,21.1,0,0,0-4.49-7.13,16.69,16.69,0,0,0-5.82-3.65c-10.62-4.61-21.77-6.21-33.31-7.52"/><path class="cls-8" d="M374.37,938q3.84-14.25,8.61-28.22"/><path class="cls-8" d="M437.66,952.66c2-12,4.35-23,7.17-34.79h0"/><path class="cls-8" d="M552.71,962.12c2-16.49,3.42-25.76,5.14-39.64"/><path class="cls-8" d="M615.89,953.61q1.41-14.08,2.84-28.17"/><path class="cls-8" d="M374.38,938a152.79,152.79,0,0,0,45.67,14,75.81,75.81,0,0,0,12.13.77,50.23,50.23,0,0,0,5.74-.56"/><path class="cls-8" d="M616.15,953.76l-.29.11c-13.45,4.94-28.16,6-42.44,4.2a113.37,113.37,0,0,1-19.63-4.39h0"/><path d="M517.66,318.89a1.5,1.5,0,0,0,0-3,1.5,1.5,0,0,0,0,3Z"/><path d="M530.41,318.89a1.5,1.5,0,0,0,0-3,1.5,1.5,0,0,0,0,3Z"/><path class="cls-8" d="M527.47,315.42a13.93,13.93,0,0,0-.29,5.92"/><path class="cls-8" d="M513.59,313.73A9.41,9.41,0,0,1,519,313"/><path class="cls-8" d="M528.68,312.44a7.1,7.1,0,0,1,3,.22"/></g><g id="man"><path class="cls-22" d="M1381.09,240.38c-.45,2.58-3.45,4.29-6.13,4.05-2.87-.25-5.33-2.08-7.47-4-1.88-1.69-3.74-3.84-4.37-6.18a2.11,2.11,0,0,0-2.9-1.34c-5,2.11-11.24,1-16.64-.61a41.65,41.65,0,0,1-5.43-2c-6.74-3.07-12.41-8.26-10.1-16.85a14.29,14.29,0,0,1,4.1-6.6c1.95-1.85,4.41-4.47,7.45-4.74a4.86,4.86,0,0,1,3.69,1.3,1.93,1.93,0,0,0,2.72-.08,24.42,24.42,0,0,1,35.11.08c2.14,2.22,4,5,7,5.87,2.55.79,5.32,0,8,.28a9.74,9.74,0,0,1,6.2,16.18c4.13,2.55,5.45,8.37,3.72,12.91s-5.92,7.79-10.46,9.49l-.73-.08a9.35,9.35,0,0,0-3.89-9.09A7.78,7.78,0,0,0,1381.09,240.38Z"/><path class="cls-5" d="M1359.88,345l1.67-1.25,1.42-1.07.23.31c7.75-1.64,15.32-3.89,23-5.9a190.65,190.65,0,0,0,22.36-7.4q5.46-2.19,10.79-4.73c3.11-1.47,4.82-2,5.34,1.59,1.83,12.62,4.77,25,3.87,37.86-8.24,3.17-16.91,4.87-25.33,7.41-2.18.65-4.35,1.36-6.49,2.18a22,22,0,0,0,1.75-3.42,2.06,2.06,0,0,0,.16-1.53c-.36-.8-1.49-.82-2.36-.66-2.77.51-12.47,8.2-15,9.5a59.6,59.6,0,0,0,18-18.62,1.68,1.68,0,0,0-1.79-2.51,30.39,30.39,0,0,0-8.29,3.1c.72-.57,1.44-1.14,2.15-1.72,3.2-2.59,6.58-5.61,7.15-9.69-.18-1-1.61-.9-2.54-.55-5.5,2-13.93,7.36-20.92,12.17q8.63-6.27,17-12.85c1.44-1.13,2.83-3.56,1.22-4.43-12,2.21-24,8.27-33.62,14.25l-.06-.09a14.06,14.06,0,0,0,2.26-10.91A1.48,1.48,0,0,0,1359.88,345Z"/><path class="cls-27" d="M1418.49,335.25a1.73,1.73,0,0,0-2.14-.92c-11.89,4.16-31.52,6.63-41.24,14.43a80.3,80.3,0,0,1,18.21-5.94c1.61.87.22,3.3-1.22,4.43q-8.38,6.57-17,12.85c7-4.81,15.42-10.13,20.92-12.17.93-.35,2.36-.42,2.54.55-.57,4.08-4,7.1-7.15,9.69-.71.58-1.43,1.15-2.15,1.72a30.39,30.39,0,0,1,8.29-3.1,1.68,1.68,0,0,1,1.79,2.51,59.21,59.21,0,0,1-11.73,13.81l1.57-.57c2.91-2,5.78-3.87,7.09-4.12.8-.14,1.83-.13,2.26.51,5.52-2.26,16.25-2.55,22.31-5.13a2.46,2.46,0,0,0,1.47-2.17C1422.46,357.25,1422.55,344.18,1418.49,335.25Z"/><path class="cls-5" d="M1381.29,377.92c1.32-.68,4.63-3.14,7.88-5.38l-1.57.57A58.69,58.69,0,0,1,1381.29,377.92Z"/><path class="cls-10" d="M1360.68,342.61l.87,1.17-1.67,1.25h0a1.38,1.38,0,0,0-.5.35,108.16,108.16,0,0,0-7.65,9.87l-.73-.52c-.06-3-.13-6-.19-8.95h.07a82.18,82.18,0,0,1,8.49-11.41l0,0c.42-.21.84-.42,1.26-.61Z"/><path class="cls-6" d="M1363,342.71l-1.42,1.07-.87-1.17V333.8c16.29-8,35.31-13.58,53.25-18.59,3.1,2.84,6.55,5.21,9.62,8.08-19,9.24-39.71,15.36-60.35,19.73Z"/><path class="cls-20" d="M1352.61,666.18q-5.94,40.47-8.28,81.34l1,13.33A1466.83,1466.83,0,0,0,1368,941.38c-2.07,0-4.14-.08-6.21-.14q-32.8-.84-65.48-4.17l-6.31-.67q-15.49-90.63-24.24-182.23a30.34,30.34,0,0,1-.13-3.69l.19-6.62a774,774,0,0,1,36.47-248.32l52.5,6c11.7,1.34,26.29,5.56,38,4.35,8-.83,10.18-5.46,15.68-12,1.41-1.67,2.8-3.38,4.14-5.11a112.46,112.46,0,0,0,29-6.37c-.14.55-.28,1.09-.43,1.64l.14,0c9.16,31.32,2.68,64.73-.34,97.22a449.27,449.27,0,0,0,4.18,115.12s44.17,161.52,70,239.38c-2.9.19-6,.37-9.19.54-22.45,1.21-51.45,2-70.2,2.47l-9.08.22c-28.56-75.52-48.16-151.55-68.68-229.66l-3.17-14.94a64.76,64.76,0,0,1-1.34-10.56Q1353.07,675.05,1352.61,666.18Z"/><path class="cls-28" d="M1342,544.54c-3.39,49.14-14,96.84-25.62,144.33a123.89,123.89,0,0,0-1.45,52.14c12.6,67.73,25.35,135.17,47,200.24,2,.06,4,.09,6,.13a1466.83,1466.83,0,0,1-22.66-180.53l-1-13.33q2.33-40.83,8.28-81.34.47,8.88.85,17.75c.06,1.25.16,2.49.28,3.73C1355.29,639.45,1346.57,592,1342,544.54Z"/><path class="cls-16" d="M1435.27,951.33l-.07-.12c.18-5.93.36-6.86.54-12.79v-.55c18.75-.48,47.75-1.26,70.2-2.47,1.15,10.84,1.34,33.13.52,45a2.39,2.39,0,0,1-2.2,2.21q-54.78,4.48-109.67,7.47a1.49,1.49,0,0,1-1-2.65C1406.42,977.19,1421.17,960.29,1435.27,951.33Z"/><path class="cls-16" d="M1296,953.37a55.16,55.16,0,0,0,.34-17.3c21.77,2.22,43.61,4.61,65.48,5.17a361.29,361.29,0,0,1-1.58,44.59,3.24,3.24,0,0,1-3.23,2.89q-57.48,0-114.92,3a1.91,1.91,0,0,1-1.3-3.39C1258.1,974.43,1272.68,967,1296,953.37Z"/><path class="cls-21" d="M1295.63,411.46a160.62,160.62,0,0,0-20.78,13c-4.11,3.08-8.31,6.25-11.34,10.38a124.75,124.75,0,0,1,6.2-29A87,87,0,0,0,1295.63,411.46Z"/><path class="cls-13" d="M1439.82,434.89a59.78,59.78,0,0,0,7.8.82h.49a210.09,210.09,0,0,1-6.55,46.74,112.46,112.46,0,0,1-29,6.37q4.67-6,8.75-12.38c6.41-10.06,13.73-27.86,18.49-41.56Z"/><path class="cls-13" d="M1396.71,374c2.14-.82,4.31-1.53,6.49-2.18-4.65,16.68-8.3,24.57-19,43.59,1.13.56,2.28,1.12,3.45,1.67l-19.93,32.16a9,9,0,0,1-7.1,3.66q-23.44.44-46.88,1.2c9.12-8.45,14.63-20.4,22.21-30.45a84,84,0,0,1,23.59-21.29s17.2-12.33,23.6-16.12C1388.41,383.14,1393.52,379.2,1396.71,374Z"/><path class="cls-13" d="M1360.68,333.8c-.42.19-.84.4-1.26.61l0,0a82.18,82.18,0,0,0-8.49,11.41h-.07c.06,3,.13,6,.19,8.95l.73.52c-3.34,4.7-7.12,10.22-11.55,16.15l0,0c-7.91,6.64-11.21,17.44-18.64,24.61a50.33,50.33,0,0,1-11.37,7.72l-2.24,1.19c-4.27,2.26-8.33,4.36-12.29,6.51a87,87,0,0,1-25.92-5.61q-2.62-1-5.17-2.19A302.21,302.21,0,0,1,1304.73,315c3.16-4.75,6.57-9.52,11.33-12.67s10.78-4.48,16.56-5.39a179.66,179.66,0,0,1,22.2-2.1c-.62,4.32-1.19,8.53-1.69,13.73,8.29,7.8,23.66,8.79,31.88,1,.38-5.19.64-11.07.87-17.17a313.52,313.52,0,0,1,52,7.81c5.29,1.25,10.75,2.76,14.83,6.34,3.47,3,5.61,7.33,7.25,11.65,7.22,19.12,6,40.31,3.45,60.59-2.37,19.18-6,38.52-12,57-1.09,0-2.18.05-3.27,0h-.49a59.78,59.78,0,0,1-7.8-.82h0a146.83,146.83,0,0,1-16.73-4.23,251.3,251.3,0,0,1-35.46-13.55c-1.17-.55-2.32-1.11-3.45-1.67,10.73-19,14.38-26.91,19-43.59,8.42-2.54,17.09-4.24,25.33-7.41.78-11.18-1.69-30.23-4.85-41q-.43-.54-.93-1c-2.49-2.59-6.09-4.71-8.82-7.2C1396,320.22,1377,325.77,1360.68,333.8Z"/><path class="cls-21" d="M1359.89,345a1.46,1.46,0,0,1,2,1,14.06,14.06,0,0,1-2.26,10.91l.06.09a159.69,159.69,0,0,0-19.51,14.34c4.43-5.93,8.21-11.45,11.55-16.15a108.16,108.16,0,0,1,7.65-9.87A1.38,1.38,0,0,1,1359.89,345Z"/><path class="cls-21" d="M1375,360.18c-3.18,2.19-6.06,4.27-8.21,5.87Q1370.89,363.16,1375,360.18ZM1396.71,374c-3.19,5.17-8.3,9.11-13.6,12.24-6.4,3.79-23.6,16.12-23.6,16.12a84,84,0,0,0-23.59,21.29c-7.58,10.05-13.09,22-22.21,30.45q-7.07.22-14.12.49c-13.9.53-28.22.43-42.39,1.32.54-7.18,1.78-14.44,5.8-20.35l.51-.72c3-4.13,7.23-7.3,11.34-10.38a160.62,160.62,0,0,1,20.78-13c4-2.15,8-4.25,12.29-6.51l2.24-1.19a50.33,50.33,0,0,0,11.37-7.72c7.43-7.17,10.73-18,18.64-24.61l0,0a159.69,159.69,0,0,1,19.51-14.34c9.57-6,21.6-12,33.62-14.25,1.61.87.22,3.3-1.22,4.43q-8.38,6.57-17,12.85c7-4.81,15.42-10.13,20.92-12.17.93-.35,2.36-.42,2.54.55-.57,4.08-4,7.1-7.15,9.69-.71.58-1.43,1.15-2.15,1.72a30.39,30.39,0,0,1,8.29-3.1,1.68,1.68,0,0,1,1.79,2.51,59.6,59.6,0,0,1-18,18.62c2.5-1.3,12.2-9,15-9.5.87-.16,2-.14,2.36.66a2.06,2.06,0,0,1-.16,1.53A22,22,0,0,1,1396.71,374Z"/><path class="cls-21" d="M1357.58,273.23a19.21,19.21,0,0,1-5.35-.33,21.17,21.17,0,0,1-15.5-13.59c-2-5.75-1.33-12-.68-18.05v0c.25-2.16,1.18-6.58,2.1-11a41.65,41.65,0,0,0,5.43,2c5.4,1.64,11.63,2.72,16.64.61a2.11,2.11,0,0,1,2.9,1.34c.63,2.34,2.49,4.49,4.37,6.18,2.14,1.92,4.6,3.75,7.47,4,2.68.24,5.68-1.47,6.13-4.05a7.78,7.78,0,0,1,9.83-1.44,9.35,9.35,0,0,1,3.89,9.09,9.86,9.86,0,0,1-.28,1.31,12.19,12.19,0,0,1-7.31,7.63l.14.32c-.75,10.19-1,23-1.48,35-.23,6.1-.49,12-.87,17.17-8.22,7.83-23.59,6.84-31.88-1,.5-5.2,1.07-9.41,1.69-13.73C1355.68,288.8,1356.62,282.58,1357.58,273.23Z"/><path class="cls-24" d="M1372,266.54c-3.81,5.72-10.34,5.09-16.13,6.74a16.17,16.17,0,0,0,1.7,0c-.25,2.48-.51,4.73-.76,6.82A19.15,19.15,0,0,0,1372,266.54Z"/><path class="cls-13" d="M1377.06,253.12c-.94-1.45-2.77-2.25-4.58-2.79-3-.89-36.43-9.1-36.34-9.77,0,.24-.07.47-.09.67v0c-.65,6-1.29,12.3.68,18.05a20.49,20.49,0,0,0,30.79,10.19c3.89-2.65,9.74-8.71,10.17-13.65A4.13,4.13,0,0,0,1377.06,253.12Z"/><path class="cls-26" d="M1429,501.22a420,420,0,0,1-2.37,99.07c-2,14.28-4.83,28.57-4.34,43,.53,15.72,1.94,32,6.32,47.13,23.8,82.15,49.82,165.89,72.61,244.24"/><path class="cls-26" d="M1240.07,990.07c44.12-1.89,99.63-5.6,120.68-10.07"/><path class="cls-26" d="M1395.51,985.81c34.46-1.52,64.24-2.2,111.28-12.64"/><line class="cls-29" x1="1287.5" y1="377.92" x2="1303.76" y2="393.17"/><line class="cls-29" x1="1451.38" y1="319.34" x2="1441.09" y2="342.61"/><line class="cls-29" x1="1349.37" y1="423.36" x2="1360.1" y2="436.71"/><line class="cls-29" x1="1325.62" y1="309.44" x2="1340.46" y2="323.46"/><line class="cls-29" x1="1418.8" y1="407.56" x2="1446.23" y2="405.85"/><path class="cls-8" d="M1385.88,292.33a313.52,313.52,0,0,1,52,7.81c5.29,1.25,10.75,2.76,14.83,6.34,3.47,3,5.61,7.33,7.25,11.65,7.22,19.12,6,40.31,3.45,60.59-2.37,19.18-6,38.52-12,57"/><path class="cls-8" d="M1264.54,403.66A302.21,302.21,0,0,1,1304.73,315c3.16-4.75,6.57-9.52,11.33-12.67s10.78-4.48,16.56-5.39a179.66,179.66,0,0,1,22.2-2.1"/><path class="cls-8" d="M1371.14,373.27q9.27-6.39,18.11-13.38c.72-.57,1.44-1.14,2.15-1.72,3.2-2.59,6.58-5.61,7.15-9.69-.18-1-1.61-.9-2.54-.55-5.5,2-13.93,7.36-20.92,12.17l-.12.08c-3.18,2.19-6.06,4.27-8.21,5.87"/><path class="cls-8" d="M1373.6,382.18a57.62,57.62,0,0,0,7.69-4.26,59.6,59.6,0,0,0,18-18.62,1.68,1.68,0,0,0-1.79-2.51,30.39,30.39,0,0,0-8.29,3.1,29.92,29.92,0,0,0-7.32,5.57"/><path class="cls-8" d="M1257.2,455.94c.54-7.18,1.78-14.44,5.8-20.35l.51-.72c3-4.13,7.23-7.3,11.34-10.38a160.62,160.62,0,0,1,20.78-13c4-2.15,8-4.25,12.29-6.51l2.24-1.19a50.33,50.33,0,0,0,11.37-7.72c7.43-7.17,10.73-18,18.64-24.61l0,0c.81-.72,27-23.8,53.13-28.59,1.61.87.22,3.3-1.22,4.43q-8.38,6.57-17,12.85l-.12.08q-4.08,3-8.21,5.87"/><path class="cls-8" d="M1381.29,377.92c2.5-1.3,12.2-9,15-9.5.87-.16,2-.14,2.36.66a2.06,2.06,0,0,1-.16,1.53,22,22,0,0,1-1.75,3.42c-3.19,5.17-8.3,9.11-13.6,12.24-6.4,3.79-23.6,16.12-23.6,16.12a84,84,0,0,0-23.59,21.29c-7.58,10.05-13.09,22-22.21,30.45"/><path class="cls-8" d="M1359.64,357a14.06,14.06,0,0,0,2.26-10.91,1.47,1.47,0,0,0-2.51-.68c-5.05,5.5-11,15.08-19.2,26l0,0"/><path class="cls-8" d="M1295.63,411.46a87,87,0,0,1-25.92-5.61q-2.62-1-5.17-2.19"/><path class="cls-8" d="M1313.49,344.24q-1,29.79-3.33,59.52"/><path class="cls-8" d="M1403.2,371.85c-4.65,16.68-8.3,24.57-19,43.59,1.13.56,2.28,1.12,3.45,1.67a251.3,251.3,0,0,0,35.46,13.55,146.83,146.83,0,0,0,16.73,4.23h0a59.78,59.78,0,0,0,7.8.82c1.25.05,2.51,0,3.76,0"/><path class="cls-8" d="M1263.51,434.87a124.75,124.75,0,0,1,6.2-29"/><path class="cls-8" d="M1357.58,273.23c-1,9.35-1.9,15.57-2.76,21.58-.48,3.33-1.23,9.78-1.56,12.61a2.35,2.35,0,0,0,1,2.22c4.22,2.86,18.93,11.41,30.1.5a2.33,2.33,0,0,0,.69-1.51c.35-5,.59-10.54.81-16.3.44-12,.73-24.85,1.48-35"/><path class="cls-8" d="M1338.15,230.27c-.92,4.4-1.86,8.84-2.1,11-.65,6-1.29,12.3.68,18.05a20.74,20.74,0,0,0,35.06,7.11"/><path class="cls-8" d="M1386.41,257.27a12.33,12.33,0,0,0,8.12-7.93,9.44,9.44,0,0,0-3.61-10.4c-3.32-2.11-8.35-1.2-10.35,2.19"/><path class="cls-8" d="M1336.5,241.1c12.88,3.25,24.76,6.51,37.64,9.76a6.13,6.13,0,0,1,2.06.79,4.23,4.23,0,0,1,1.33,4.57,12.37,12.37,0,0,1-2.56,4.34"/><path class="cls-8" d="M1385,241.91a4.46,4.46,0,1,1,0,8.91"/><path class="cls-8" d="M1350.89,345.8c2.64-4.28,6.67-8.31,10-12"/><path class="cls-8" d="M1413.93,315.21c3.09,2.82,7.3,5.17,9.75,8.25"/><path class="cls-8" d="M1423.68,323.46c3.16,10.75,5.63,29.8,4.85,41-8.24,3.17-16.91,4.87-25.33,7.41-2.18.65-4.35,1.36-6.49,2.18"/><path class="cls-8" d="M1360.68,333.71c16.56-8.35,34.85-13.36,53.25-18.5"/><path class="cls-8" d="M1350.8,346c.07,3.24.14,5.47.21,8.71"/><path class="cls-8" d="M1363.2,343c20.91-4.42,41.34-10,60.48-19.56"/><path class="cls-8" d="M1361.55,343.78l-1.68,1.26"/><path class="cls-8" d="M1360.68,333.71v8.9"/><path class="cls-8" d="M1441.09,484.26c.16-.6.32-1.2.47-1.8a210.09,210.09,0,0,0,6.55-46.74"/><path class="cls-8" d="M1412.57,488.83a112.46,112.46,0,0,0,29-6.37"/><path d="M1343.17,237.44v-.12a1.5,1.5,0,0,0-3,0v.12a1.5,1.5,0,0,0,3,0v-.12a1.5,1.5,0,0,0-3,0v.12a1.5,1.5,0,0,0,3,0Z"/><path d="M1360.92,242v-.13a1.5,1.5,0,0,0-3,0V242a1.5,1.5,0,0,0,3,0v-.13a1.5,1.5,0,0,0-3,0V242a1.5,1.5,0,0,0,3,0Z"/><path class="cls-8" d="M1349.67,238.71q-1.25,2.41-2.61,4.76"/><path class="cls-8" d="M1358.86,236.69a6,6,0,0,1,4.66,2.37"/><path class="cls-8" d="M1344.93,234a6.24,6.24,0,0,0-4.47-1.14"/><path class="cls-30" d="M1287.37,665.29H1164.73c-6.8,0-12.34-5.17-12.4-11.55L1141,589.67h-1.44a8,8,0,0,1-8.27-7.78v-19a8,8,0,0,1,8.27-7.78h75.65V500.33a7.29,7.29,0,0,1,7.49-7.05h5.7a7.29,7.29,0,0,1,7.49,7.05v54.78h76.39a8,8,0,0,1,8.27,7.78v19a8,8,0,0,1-8.27,7.78h-1.26l-11.28,64.07C1299.71,660.12,1294.17,665.29,1287.37,665.29Z"/><g class="cls-31"><path class="cls-32" d="M1227.57,655a8.09,8.09,0,0,1-8.31-7.82V608.77a8.33,8.33,0,0,1,16.63,0v38.36A8.09,8.09,0,0,1,1227.57,655Z"/></g><g class="cls-31"><path class="cls-32" d="M1249.69,655.5a7.5,7.5,0,0,1-.82,0,8.38,8.38,0,0,1-5.61-2.82,7.43,7.43,0,0,1-1.85-5.72l4-38.18a8.11,8.11,0,0,1,8.27-7,7.5,7.5,0,0,1,.82,0,8,8,0,0,1,7.46,8.55l-4,38.17A8.12,8.12,0,0,1,1249.69,655.5Z"/></g><g class="cls-31"><path class="cls-32" d="M1272.16,655.84a9.67,9.67,0,0,1-1.2-.08,8.38,8.38,0,0,1-5.47-3.06,7.4,7.4,0,0,1-1.56-5.8l5.84-38a8.19,8.19,0,0,1,8.22-6.69,8.22,8.22,0,0,1,8.23,8.93l-5.84,38A8.21,8.21,0,0,1,1272.16,655.84Z"/></g><g class="cls-31"><path class="cls-32" d="M1205.18,655.5h0a8.1,8.1,0,0,1-8.26-7l-4-38.17a8,8,0,0,1,7.46-8.55,7.5,7.5,0,0,1,.82,0,8.1,8.1,0,0,1,8.26,7l4,38.18a7.43,7.43,0,0,1-1.84,5.72,8.38,8.38,0,0,1-5.61,2.82A7.69,7.69,0,0,1,1205.18,655.5Z"/></g><g class="cls-31"><path class="cls-32" d="M1182.71,655.84h0a8.2,8.2,0,0,1-8.21-6.7l-5.85-38a7.91,7.91,0,0,1,7-8.85,8.06,8.06,0,0,1,1.2-.08,8.2,8.2,0,0,1,8.22,6.69l5.84,38a7.41,7.41,0,0,1-1.57,5.8,8.38,8.38,0,0,1-5.47,3.06A9.55,9.55,0,0,1,1182.71,655.84Z"/></g><path class="cls-33" d="M1226,583.65c-7.35,0-13.32-5.62-13.32-12.52a12,12,0,0,1,2.62-7.46V500.41a7.28,7.28,0,0,1,7.48-7h5.7a7.28,7.28,0,0,1,7.48,7v62.4a12.06,12.06,0,0,1,3.36,8.32C1239.27,578,1233.29,583.65,1226,583.65Z"/><rect class="cls-13" x="1139.6" y="587.08" width="172.72" height="2.59"/><path class="cls-21" d="M1216.85,523.76l-1.35.75c-.34,1.72-2.88,2.1-4.28,1a4.91,4.91,0,0,1-.48-.43l-1.15,1c-1.6,0-3.36,1.15-5.07,1.07a3.76,3.76,0,0,1-2.36-1l-.88.69c-2.3,1.05-5.13,0-6.82-1.88a15.33,15.33,0,0,1-3.07-6.84c-6.17-25.41,1.89-48.38,28.14-56.19,12.15-3.62,24.85-5.23,37.67-6,14.17-.89,28.49-.79,42.39-1.32q7.07-.27,14.12-.49,23.43-.78,46.88-1.2a9,9,0,0,0,7.1-3.66l19.93-32.16a251.3,251.3,0,0,0,35.46,13.55,146.83,146.83,0,0,0,16.73,4.23c-4.76,13.7-12.08,31.5-18.49,41.56q-4.08,6.39-8.75,12.38c-1.34,1.73-2.73,3.44-4.14,5.11-5.5,6.5-7.66,11.13-15.68,12-11.67,1.21-26.26-3-38-4.35l-52.5-6-23.38-2.68c-17.94-2.05-50.29-2-54.89,21.27-.56,2.84-.57,6-2.33,8.25C1219.32,525.47,1217.79,525.47,1216.85,523.76Z"/><path class="cls-8" d="M1201.28,526.89c-2.3,1.05-5.13,0-6.82-1.88a15.33,15.33,0,0,1-3.07-6.84c-6.17-25.41,1.89-48.38,28.14-56.19,25.6-7.62,53.6-6.36,80.06-7.36q30.48-1.14,61-1.69a9,9,0,0,0,7.1-3.66l19.93-32.16"/><path class="cls-8" d="M1439.82,434.89h0c-4.76,13.7-12.08,31.5-18.49,41.56a164.06,164.06,0,0,1-12.89,17.49c-5.5,6.5-7.66,11.13-15.68,12-11.67,1.21-26.26-3-38-4.35l-52.5-6-23.38-2.68c-17.94-2.05-50.29-2-54.89,21.27-.56,2.84-.57,6-2.33,8.25-8.82,11.51-6-19.82-5-22.77"/><path class="cls-8" d="M1207.64,497.78c-1.83,8.64-.86,14.58,1.26,23.17.42,1.7.93,3.54,2.32,4.6s3.94.68,4.28-1"/><path class="cls-8" d="M1199.28,497.31c-.26,8.17-1.52,15.37.2,23.36.62,2.9,2.07,6.38,5,6.52,2.18.09,4.44-1.81,6.36-.77"/></g></g></svg>