<svg xmlns="http://www.w3.org/2000/svg" viewBox="0 0 1920 1080"><defs><style>.cls-1{fill:#f7f8fa;}.cls-10,.cls-18,.cls-2{fill:#fff;}.cls-2,.cls-21{stroke:#31434d;}.cls-10,.cls-11,.cls-12,.cls-2,.cls-20,.cls-21,.cls-7,.cls-8{stroke-linecap:round;}.cls-10,.cls-11,.cls-12,.cls-13,.cls-2,.cls-20,.cls-21,.cls-22,.cls-23,.cls-7,.cls-8,.cls-9{stroke-miterlimit:10;}.cls-3{fill:#7b176e;}.cls-4{fill:#53bcf7;}.cls-5{fill:#a8dbf7;}.cls-6{fill:#f6b333;}.cls-11,.cls-12,.cls-13,.cls-20,.cls-21,.cls-22,.cls-23,.cls-7,.cls-8,.cls-9{fill:none;}.cls-7{stroke:#f6b333;stroke-width:4px;}.cls-20,.cls-8{stroke:#fff;}.cls-9{stroke:#bedee0;stroke-width:18px;}.cls-10,.cls-11,.cls-12,.cls-13,.cls-22{stroke:#53bcf7;}.cls-10,.cls-20,.cls-23{stroke-width:2px;}.cls-11{stroke-width:3px;}.cls-12,.cls-13{stroke-width:5px;}.cls-13{stroke-linecap:square;}.cls-14{fill:#0c2c7a;}.cls-15{fill:#09102d;}.cls-16{fill:#052251;}.cls-17{fill:#0f379a;}.cls-19{fill:#ffe1cf;}.cls-23{stroke:#b2d3f7;}</style></defs><title>2019-nCov2</title><g id="background"><ellipse class="cls-1" cx="1010.11" cy="515.78" rx="484.52" ry="446.64"/><polygon class="cls-2" points="614.1 161.7 579.88 161.7 579.88 127.48 558.27 127.48 558.27 161.7 524.04 161.7 524.04 183.31 558.27 183.31 558.27 217.54 579.88 217.54 579.88 183.31 614.1 183.31 614.1 161.7"/><rect class="cls-2" x="1652.86" y="496.02" width="83.68" height="26.69" transform="translate(2204.07 -1185.33) rotate(90)"/><polygon class="cls-2" points="1415.06 61.8 1386.56 61.8 1386.56 33.3 1359.87 33.3 1359.87 61.8 1331.37 61.8 1331.37 88.49 1359.87 88.49 1359.87 116.99 1386.56 116.99 1386.56 88.49 1415.06 88.49 1415.06 61.8"/><rect class="cls-2" x="299.11" y="806.87" width="41.92" height="142.18"/><rect class="cls-3" x="365.78" y="896.76" width="32.77" height="32.77"/><rect class="cls-2" x="1524.04" y="605.81" width="132.97" height="38.12"/><rect class="cls-2" x="367.84" y="948.62" width="120.72" height="41.75"/><rect class="cls-4" x="1622.41" y="551.21" width="34.6" height="34.6"/><polygon class="cls-5" points="1080.24 878.75 1065.79 878.75 1065.79 864.3 1060.37 864.3 1060.37 878.75 1045.92 878.75 1045.92 884.17 1060.37 884.17 1060.37 898.62 1065.79 898.62 1065.79 884.17 1080.24 884.17 1080.24 878.75"/><polygon class="cls-5" points="1227.06 124.18 1212.61 124.18 1212.61 109.73 1207.19 109.73 1207.19 124.18 1192.74 124.18 1192.74 129.61 1207.19 129.61 1207.19 144.06 1212.61 144.06 1212.61 129.61 1227.06 129.61 1227.06 124.18"/><polygon class="cls-5" points="1616.04 463.45 1601.59 463.45 1601.59 449 1596.17 449 1596.17 463.45 1581.72 463.45 1581.72 468.87 1596.17 468.87 1596.17 483.32 1601.59 483.32 1601.59 468.87 1616.04 468.87 1616.04 463.45"/><polygon class="cls-5" points="555.78 767.79 541.33 767.79 541.33 753.34 535.91 753.34 535.91 767.79 521.46 767.79 521.46 773.22 535.91 773.22 535.91 787.66 541.33 787.66 541.33 773.22 555.78 773.22 555.78 767.79"/><circle class="cls-2" cx="382.16" cy="520.79" r="10.73"/><circle class="cls-2" cx="1572.48" cy="787.66" r="10.73"/><circle class="cls-2" cx="450.35" cy="605.81" r="18.34"/><circle class="cls-2" cx="1667.26" cy="877.96" r="18.34"/><circle class="cls-2" cx="468.69" cy="408.7" r="10.25"/><circle class="cls-2" cx="1657.01" cy="735.75" r="10.25"/></g><g id="virus"><circle class="cls-6" cx="1498.25" cy="268.87" r="55.09"/><line class="cls-7" x1="1489.93" y1="304.78" x2="1490.61" y2="358.81"/><line class="cls-7" x1="1424.27" y1="215.42" x2="1467.84" y2="242.81"/><line class="cls-7" x1="1522.87" y1="241.1" x2="1551.49" y2="190.13"/><line class="cls-7" x1="1457.71" y1="284.52" x2="1421" y2="288.24"/><line class="cls-7" x1="1503.53" y1="185.49" x2="1500.32" y2="251.89"/><polyline class="cls-7" points="1558.53 230.36 1524.28 262.47 1587.72 261.39"/><line class="cls-7" x1="1471.82" y1="293.4" x2="1445.7" y2="330.57"/><line class="cls-7" x1="1504.75" y1="288.54" x2="1523.6" y2="334.87"/><line class="cls-7" x1="1518.2" y1="281.42" x2="1564.79" y2="312.92"/><path class="cls-7" d="M1432.2,251.13c15.38,2.48,17.1,5.33,32.48,7.81"/><path class="cls-7" d="M1465,209.37c5,13,10.78,17.55,15.76,30.55"/><circle class="cls-6" cx="1591.48" cy="260.86" r="14.2"/><circle class="cls-6" cx="1424.27" cy="215.42" r="14.2"/><circle class="cls-6" cx="1564.88" cy="225.39" r="14.2"/><circle class="cls-6" cx="1462.42" cy="203.09" r="14.2"/><circle class="cls-6" cx="1504.55" cy="190.07" r="14.2"/><circle class="cls-6" cx="1426.08" cy="247.28" r="14.2"/><circle class="cls-6" cx="1552.93" cy="186.71" r="14.2"/><circle class="cls-6" cx="1445.04" cy="331.63" r="14.2"/><circle class="cls-6" cx="1417.41" cy="287.73" r="14.2"/><circle class="cls-6" cx="1526.45" cy="341.14" r="14.2"/><circle class="cls-6" cx="1572.48" cy="317.75" r="14.2"/><circle class="cls-6" cx="1489.95" cy="359.86" r="14.2"/><circle class="cls-8" cx="1482.59" cy="257.29" r="14.53"/><circle class="cls-8" cx="1521.41" cy="259.16" r="4.72"/><circle class="cls-8" cx="1503.6" cy="289.69" r="8.28"/><circle class="cls-9" cx="1504.45" cy="273.28" r="129.23"/><line class="cls-9" x1="1411.7" y1="359.43" x2="1598.88" y2="188.44"/></g><g id="woman2"><path class="cls-10" d="M918.48,332.82H902.36a11.73,11.73,0,0,0-8.41,3.32l-5.13,5.34a7.53,7.53,0,0,0-2.22,5.22v50.87c0,4.71,4.76,8.53,10.63,8.53h27c5.87,0,10.62-3.82,10.62-8.53V346.88a7.62,7.62,0,0,0-2.46-5.47l-5.73-5.52A11.85,11.85,0,0,0,918.48,332.82Z"/><rect class="cls-4" x="897.13" y="324" width="27.18" height="9.01" rx="3.03"/><line class="cls-11" x1="910.72" y1="300.64" x2="910.72" y2="328.5"/><polyline class="cls-12" points="921.24 297.54 900.2 297.54 892.3 304.52"/><line class="cls-13" x1="910.72" y1="350.84" x2="910.72" y2="369.46"/><line class="cls-13" x1="900.2" y1="360.15" x2="921.24" y2="360.15"/><path class="cls-14" d="M1186.91,504.15q-9.69,3.78-19.06,8.3c-.29.14-.58.28-.87.44.4-1.4.81-2.79,1.22-4.17a144.86,144.86,0,0,0,18.7-4.8C1186.9,504,1186.91,504.07,1186.91,504.15Z"/><path class="cls-14" d="M1171.52,497.58l14-2.59q-7.5,2.63-14.87,5.57C1170.92,499.56,1171.22,498.57,1171.52,497.58Z"/><path class="cls-15" d="M1190.65,957.08l-1.5-23a327.16,327.16,0,0,0,50.49-4.1c1,19.79,2.12,46.58,2.83,68.11a2.64,2.64,0,0,1-2.29,2.7,737.29,737.29,0,0,1-108,6.21,3.42,3.42,0,0,1-2-6.18Z"/><path class="cls-15" d="M1351.6,856.87c8.69,15.72,21.25,35.36,34,54.83a1.85,1.85,0,0,1-.18,2.28c-24.08,26.13-53.07,54.68-78.33,77a2.87,2.87,0,0,1-4.74-2.63,364.4,364.4,0,0,1,21.92-74.63,90.1,90.1,0,0,0-11.5-19.63A256.87,256.87,0,0,0,1351.6,856.87Z"/><path class="cls-16" d="M1218.87,287a8.46,8.46,0,0,1-2.53-1.31c-1.67-1.32-2.51-3.42-3.13-5.46a21.07,21.07,0,0,0-2.33-5.93c-1.77-2.57-4.77-3.93-7.38-5.64a11.12,11.12,0,0,1-4.6-5.21,1.42,1.42,0,0,0-2.28-.67A32.33,32.33,0,0,0,1185.67,284a90.6,90.6,0,0,0-.36,13.17c0,.68.08,1.37.13,2.05-9.21-4.53-12.76-15.06-11.09-25.24,4.43-27,34.85-37.58,58.3-29.58,1.78-22.35,23.85-39.36,45.09-38,7.3.48,14.69,2.83,20.09,7.77,4.39,4,7.2,9.46,9.52,14.95,3.4,8,5.54,14.6,4.72,23.1-.73,7.59-2.4,14.15,1.19,21.56,5.63,11.61,16.8,11.88,27.41,9.34a1.39,1.39,0,0,1,1.63,1.83,31.87,31.87,0,0,1-14.65,17.17c-13.38,7.42-26.52,8.88-40.32,1.32-11.27-6.16-13.81-19.31-15.21-30.91-.79-6.51-3.09-13.16-8-17.52a15,15,0,0,0-18.45-1.47c7.37,8,8.45,23.86,7.31,33.13-1.51,12.3-9.22,21.13-22.74,21.78h0c-.33-3-.67-5.85-1-8.38a1.11,1.11,0,0,1,.93-1.25c3.84-.62,8.4-3.23,9.7-6.9,1.42-4-.28-9-4.06-11s-9.15-.07-10.54,4l-2.07,1.67a2.48,2.48,0,0,1-1.74.75A6.8,6.8,0,0,1,1218.87,287Z"/><path class="cls-15" d="M1296.28,293c-10-16-8-38-25-49-7-5-15-4-22-1-4,2-10,9-5,11,1,.51,2,1.06,3,1.63a21.1,21.1,0,0,0-1.59-2,15,15,0,0,1,18.45,1.47c4.91,4.36,7.21,11,8,17.52,1.4,11.6,3.94,24.75,15.21,30.91,13.8,7.56,26.94,6.1,40.32-1.32a32.52,32.52,0,0,0,7.51-5.75C1320.89,303,1303.92,306.72,1296.28,293Z"/><path class="cls-14" d="M1178.3,478a152.11,152.11,0,0,0,18.94,4.35c-7.71,1.93-15.38,3.95-23,6.28q1.56-5,3.12-9.91l.51-.21c0-.18,0-.37.07-.55Z"/><path class="cls-14" d="M1179.23,514.84l7.84-2.3c0,.27,0,.54,0,.81a98.68,98.68,0,0,0-12.72,7.16,1.78,1.78,0,0,0,.72,3.24,27,27,0,0,0,12.05-1.37,653.44,653.44,0,0,1-14.76,136.81c-4.63,21.39-10.36,42.66-12.12,64.48-.33,4-.51,8.05-.59,12.08q-12.6-20.54-23.86-41.85c-4.12-7.8-8.18-15.94-8.82-24.74-.55-7.55,1.47-15,3.46-22.33,11.58-42.38,23.24-87.92,35.23-129.45l.21,0C1170.4,517.41,1174.87,516.12,1179.23,514.84Z"/><path class="cls-14" d="M1355.32,852.37q-1.83,2.26-3.72,4.5a256.87,256.87,0,0,1-38.84,37.19q-8.52,6.62-17.58,12.49c-14-22.59-29.58-45.79-44.79-67.56-.43-6.48-.86-12-1.29-18.45-2.53-38.24-5-76.89,1.3-114.68.67-4,2.43-7.93,3.28-11.86Q1304.51,773.19,1355.32,852.37Z"/><path class="cls-17" d="M1281.46,505.52c8.79,28.36,6.49,60.24-.23,89.64-7.62,33.35-20.4,65.44-27.55,98.84q-1.28,5.89-2.28,11.86c-6.34,37.79-3.83,76.44-1.3,114.68l1.29,19.45c1.91,28.9,3.83,58.8,5.75,87.7q-8.7,1.88-17.5,3.28a327.16,327.16,0,0,1-50.49,4.1q-9.4,0-18.81-.46c-3.15-53.31-6.31-107.61-9.46-160.92-.75-12.63-2.5-25.3-2.22-37.94.08-4,.26-8.06.59-12.08,1.76-21.82,7.49-43.09,12.12-64.48a653.44,653.44,0,0,0,14.76-136.81c.53-.17,2-.35,2.57-.54,5.62-2.07,10.82-5.15,16.42-7.25a104.23,104.23,0,0,1,19.64-5.51c10.31-1.66,22.59-3.48,34.85-5.45l.31,0,.15,2.36C1267.2,505.85,1274.33,505.72,1281.46,505.52Z"/><path class="cls-18" d="M1268.51,471.19c13.11-4.13,28.54-8.68,34.47-10.42a1.93,1.93,0,0,0,1.08-2.91C1293,440.7,1279.5,423.42,1269,406l-.36.09C1264.21,431.33,1266.88,450.36,1268.51,471.19ZM1165.38,402.1A850.78,850.78,0,0,1,1056.88,448a9.7,9.7,0,0,1-7.49-.52c-33.2-16.87-59.09-33.44-88.6-58.08.73-1.34,1.46-2.67,2.18-4q7.23-13.46,13.65-27.32l.21-.46A260.85,260.85,0,0,0,1035,387.68a177.61,177.61,0,0,0,23.84,7.07,10.2,10.2,0,0,0,6.7-.85,848,848,0,0,0,89.9-52.56c5.29-3.55,10.71-7.23,16.93-8.62,10.9-2.45,22,2.51,33.13,3.43q-.4,7.83-1.14,15.64a3.63,3.63,0,0,0,1.77,3.5,23.49,23.49,0,0,0,11.28,3.07c4.7.05,13.19-1,16.94-6.65.52-.78-.66-9.53-1.3-15.19l.55-.06c24-2.9,44.09,7,62.34,22.88s31.65,36.51,44.81,56.83c7.28,11.24,23.64,32.21,33.1,51.63,2,4.08,2,11.84.09,15.95-8.28,17.49-31.63,17.36-48.58,19.13-14.59,1.53-29.25,2.23-43.92,2.64-7.13.2-14.26.33-21.39.45l-.15-2.36q-.72-10.87-2-21.7c0-.5-.11-1-.17-1.48-.17-1.47-.34-2.94-.54-4.41a49.64,49.64,0,0,1-26.29,1.13c-3.09-.71-6.11-1.72-9.21-2.4-7.1-1.57-14.46-1.36-21.72-.76a1.15,1.15,0,0,0-.88,1.74,9.94,9.94,0,0,0,6.41,4.53c-2.77.68-5.55,1.36-8.32,2.06A152.11,152.11,0,0,1,1178.3,478l-.33,0a163.12,163.12,0,0,0,.66-34.22,14.41,14.41,0,0,0-1.61-6.37c-1.67-2.73-4.84-4.07-7.45-5.91-7.83-5.55-10.69-17.09-6.34-25.64C1163.87,404.53,1164.64,403.32,1165.38,402.1Z"/><path class="cls-18" d="M1220.28,531.85q-6.1,9.25-11.46,19a6.66,6.66,0,0,1-9.1,2.7c-5.5-3.2-12.8-3.42-18.12.38a8.87,8.87,0,0,1-5.23,1.82c-6.48-.13-6.54-6.79-5.48-11.62,2.17-9.88,10.22-43.62,21.83-46.68C1197.17,496.26,1221.36,530.21,1220.28,531.85Z"/><path class="cls-4" d="M1201.28,545c-7,2-15-11-26-6-1.16.52-2.35,1-3.55,1.46-.34,1.43-.62,2.68-.84,3.68-1.06,4.83-1,11.49,5.48,11.62a8.87,8.87,0,0,0,5.23-1.82c5.32-3.8,12.62-3.58,18.12-.38a6.66,6.66,0,0,0,9.1-2.7q5.34-9.72,11.46-19c.28-.43-1.12-3-3.42-6.54C1212.28,533.7,1209.45,543.34,1201.28,545Z"/><path class="cls-19" d="M1205.56,480.26a9.94,9.94,0,0,1-6.41-4.53A1.15,1.15,0,0,1,1200,474c7.26-.6,14.62-.81,21.72.76,3.1.68,6.12,1.69,9.21,2.4a49.64,49.64,0,0,0,26.29-1.13c.2,1.47.37,2.94.54,4.41.06.49.12,1,.17,1.48q1.24,10.83,2,21.7l-.31,0c-12.26,2-24.54,3.79-34.85,5.45a104.23,104.23,0,0,0-19.64,5.51c-5.6,2.1-10.8,5.18-16.42,7.25-.52.19-1,.37-1.57.54a27,27,0,0,1-12.05,1.37,1.78,1.78,0,0,1-.72-3.24,98.68,98.68,0,0,1,12.72-7.16q2.87-1.36,5.82-2.52l-5.83,1.71-7.84,2.3c-4.36,1.28-8.83,2.57-13.35,2.56l-.21,0a1.65,1.65,0,0,1-1-2.77,8.88,8.88,0,0,1,2.27-1.72c.29-.16.58-.3.87-.44q9.36-4.53,19.06-8.3c0-.08,0-.15,0-.23a144.86,144.86,0,0,1-18.7,4.8l-1.07.2c-3.14.57-6.67.95-9.23-.94-.75-1.13.73-2.39,2-2.93q5.34-2.32,10.76-4.49,7.38-3,14.87-5.57l-14,2.59L1164,499a24.78,24.78,0,0,1-7.26.56,1.77,1.77,0,0,1-.8-3.19c4.4-3.13,9.66-5,14.85-6.67,1.15-.37,2.3-.73,3.45-1.07h0c7.59-2.33,15.26-4.35,23-6.28C1200,481.62,1202.79,480.94,1205.56,480.26Z"/><path class="cls-19" d="M976.62,358.05Q970.2,371.91,963,385.37c-7.11-7-17.3-15.32-26.08-23.73-2.87-2.74-31-26.3-21.91-29.17a5.82,5.82,0,0,1,3.19.23c2.34.63,6.09,1.8,9.15,1.87a1.68,1.68,0,0,0,1.47-2.56c-3.62-5.9-13.65-22.3-18.73-31.32-1.54-2.75-3.13-5.64-3.6-8.71a1.88,1.88,0,0,1,2-2.19c3.22.34,5.09,4.16,7.32,6.79C934.46,318.69,952.35,342.26,976.62,358.05Z"/><path class="cls-19" d="M1206.08,320.86c-1.12.28-2.25.52-3.39.7a15.08,15.08,0,0,1-6.85-.17c-6.25-1.95-8.55-9.47-9.64-15.93q-.53-3.1-.76-6.23c0-.68-.1-1.37-.13-2.05A55.19,55.19,0,0,0,1218.87,287a6.8,6.8,0,0,0,2.54.4l.12,1.2a34.94,34.94,0,0,0,6.29,9.79l1.51,1a1.14,1.14,0,0,0-.14.71c.33,2.53.67,5.36,1,8.38.91,8.2,1.82,17.8,2.73,26.65,0,.43.1.89.15,1.37.64,5.66,1.82,14.41,1.3,15.19-3.75,5.65-12.24,6.7-16.94,6.65a23.49,23.49,0,0,1-11.28-3.07,3.63,3.63,0,0,1-1.77-3.5q.73-7.8,1.14-15.64Q1206,328.52,1206.08,320.86Z"/><path class="cls-18" d="M1229.12,304.69c.44-1.17.32-2.38.07-4.57a1.14,1.14,0,0,1,.14-.71l-1.51-1a34.94,34.94,0,0,1-6.29-9.79l-.12-1.2a6.8,6.8,0,0,1-2.54-.4,55.19,55.19,0,0,1-33.56,10.19c0,.68.08,1.37.13,2.05q.24,3.12.76,6.23c1.09,6.46,3.39,14,9.64,15.93a15.08,15.08,0,0,0,6.85.17,39.84,39.84,0,0,0,17.14-7.63,54.1,54.1,0,0,0,7.14-6.3A9.17,9.17,0,0,0,1229.12,304.69Z"/><path class="cls-19" d="M1230.12,298.87a1.15,1.15,0,0,0-.79.54l-1.51-1a34.94,34.94,0,0,1-6.29-9.79l-.12-1.2a2.48,2.48,0,0,0,1.74-.75l2.07-1.67c1.39-4,6.75-5.88,10.54-4s5.48,7,4.06,11C1238.52,295.64,1234,298.25,1230.12,298.87Z"/><path class="cls-19" d="M1216.34,285.68a8.46,8.46,0,0,0,2.53,1.31,55.19,55.19,0,0,1-33.56,10.19,90.6,90.6,0,0,1,.36-13.17,32.33,32.33,0,0,1,10.95-21.24,1.42,1.42,0,0,1,2.28.67,11.12,11.12,0,0,0,4.6,5.21c2.61,1.71,5.61,3.07,7.38,5.64a21.07,21.07,0,0,1,2.33,5.93C1213.83,282.26,1214.67,284.36,1216.34,285.68Z"/><path class="cls-20" d="M1129.75,1006q38.87-2.22,77.5-7.45c11.86-1.61,23.9-3.49,35-7.88"/><path class="cls-20" d="M1302.44,989.74q32.4-28.29,62.15-59.43c6.73-7,13.5-14.48,18.2-22.9"/><path class="cls-21" d="M1186.91,504.15c0-.08,0-.15,0-.23"/><path class="cls-21" d="M1187.08,513.35c0-.27,0-.54,0-.81"/><path class="cls-21" d="M1233.62,336.46c24-2.9,44.09,7,62.34,22.88s31.65,36.51,44.81,56.83c7.28,11.24,23.64,32.21,33.1,51.63,2,4.08,2,11.84.09,15.95-8.28,17.49-31.63,17.36-48.58,19.13-14.59,1.53-29.25,2.23-43.92,2.64-7.13.2-14.26.33-21.39.45"/><path class="cls-21" d="M1269,406c10.47,17.42,23.92,34.7,35,51.86a1.93,1.93,0,0,1-1.08,2.91c-5.93,1.74-21.36,6.29-34.47,10.42-4.16,1.3-8.09,2.57-11.4,3.69"/><path class="cls-21" d="M976.83,357.59A260.85,260.85,0,0,0,1035,387.68a177.61,177.61,0,0,0,23.84,7.07,10.2,10.2,0,0,0,6.7-.85,848,848,0,0,0,89.9-52.56c5.29-3.55,10.71-7.23,16.93-8.62,10.9-2.45,22,2.51,33.13,3.43"/><path class="cls-21" d="M960.79,389.39c29.51,24.64,55.4,41.21,88.6,58.08a9.7,9.7,0,0,0,7.49.52,850.78,850.78,0,0,0,108.5-45.89"/><path class="cls-21" d="M1225.22,285c1.39-4,6.75-5.88,10.54-4s5.48,7,4.06,11c-1.3,3.67-5.86,6.28-9.7,6.9a1.12,1.12,0,0,0-.93,1.25c1.24,9.41,2.48,22.93,3.73,35,.58,5.49,2,15.71,1.45,16.56-3.75,5.65-12.24,6.7-16.94,6.65a23.49,23.49,0,0,1-11.28-3.07,3.63,3.63,0,0,1-1.77-3.5q.73-7.8,1.14-15.64.43-7.63.56-15.29a40,40,0,0,0,19.29-11.37"/><path class="cls-21" d="M1206.08,320.86c-1.12.28-2.25.52-3.39.7a15.08,15.08,0,0,1-6.85-.17c-6.25-1.95-8.55-9.47-9.64-15.93a81.93,81.93,0,0,1-.53-21.45"/><path class="cls-21" d="M1164.25,379.81c.47,5.82,4.59,11.27,3.45,17-.65,3.3-3,6-4.47,9-4.35,8.56-1.49,20.1,6.34,25.64,2.61,1.85,5.77,3.19,7.45,5.91a14.62,14.62,0,0,1,1.61,6.37,163.65,163.65,0,0,1-.73,34.77"/><path class="cls-21" d="M1197.24,482.32A152.11,152.11,0,0,1,1178.3,478"/><path class="cls-21" d="M1268.51,471.19c-1.63-20.83-4.3-39.86.16-65.1"/><path class="cls-21" d="M1260.07,506q-.73-12.06-2.11-24.06c0-.5-.11-1-.17-1.48-.17-1.47-.34-2.94-.54-4.41,0-.38-.09-.76-.14-1.14"/><path class="cls-21" d="M1206.81,480.42a8.72,8.72,0,0,1-1.25-.16,9.94,9.94,0,0,1-6.41-4.53A1.15,1.15,0,0,1,1200,474c7.26-.6,14.62-.81,21.72.76,3.1.68,6.12,1.69,9.21,2.4a49.64,49.64,0,0,0,26.29-1.13"/><path class="cls-21" d="M1205.56,480.26c-2.77.68-5.55,1.36-8.32,2.06-7.71,1.93-15.38,3.95-23,6.28h0c-1.15.34-2.3.7-3.45,1.07-5.19,1.65-10.45,3.54-14.85,6.67a1.77,1.77,0,0,0,.8,3.19A24.78,24.78,0,0,0,1164,499l7.5-1.39,14-2.59h0l2.37-.44"/><path class="cls-21" d="M1189.46,503.06c-.85.3-1.7.58-2.56.86a144.86,144.86,0,0,1-18.7,4.8l-1.07.2c-3.14.57-6.67.95-9.23-.94-.75-1.13.73-2.39,2-2.93q5.34-2.32,10.76-4.49,7.38-3,14.87-5.57h0"/><path class="cls-21" d="M1190.8,502.66c-1.3.49-2.6,1-3.89,1.49q-9.69,3.78-19.06,8.3c-.29.14-.58.28-.87.44a8.88,8.88,0,0,0-2.27,1.72,1.65,1.65,0,0,0,1,2.77l.21,0c4.52,0,9-1.28,13.35-2.56l7.84-2.3,5.83-1.71h0l1.32-.38"/><path class="cls-21" d="M1259.61,503.63c-12.26,2-24.54,3.79-34.85,5.45a104.23,104.23,0,0,0-19.64,5.51c-5.6,2.1-10.8,5.18-16.42,7.25-.52.19-1,.37-1.57.54a27,27,0,0,1-12.05,1.37,1.78,1.78,0,0,1-.72-3.24,98.68,98.68,0,0,1,12.72-7.16q2.87-1.36,5.82-2.52h0l1.15-.45"/><path class="cls-21" d="M976.83,357.59q-7.47,16.17-16,31.8"/><path class="cls-21" d="M963,385.37c-7.11-7-17.3-15.32-26.08-23.73-2.87-2.74-31-26.3-21.91-29.17a5.82,5.82,0,0,1,3.19.23c2.34.63,6.09,1.8,9.15,1.87a1.68,1.68,0,0,0,1.47-2.56c-3.62-5.9-13.65-22.3-18.73-31.32-1.54-2.75-3.13-5.64-3.6-8.71a1.88,1.88,0,0,1,2-2.19c3.22.34,5.09,4.16,7.32,6.79,18.71,22.11,36.6,45.68,60.87,61.47l.27.18"/><path class="cls-21" d="M1185.23,297.19c12.1.39,24.3-2.37,34.09-9.51"/><path class="cls-21" d="M1221.53,288.6a35.09,35.09,0,0,0,6.29,9.79"/><path class="cls-20" d="M1235.49,244.7a12.45,12.45,0,0,1,6.18,5.25"/><path class="cls-21" d="M1227.88,286c1.36-.94,2.87-1.93,4.51-1.75a4,4,0,0,1,3.31,3.93,5.22,5.22,0,0,1-2.93,4.46"/><path class="cls-20" d="M1266,520.24c2.35,28.87,4.64,58.44-3.07,86.35-6.65,24.11-20.41,45.65-28.51,69.31-10,29.27-11.06,60.79-10.71,91.73a1104.18,1104.18,0,0,0,21.35,203.77"/><path d="M1203.26,287.32a1.5,1.5,0,0,0,0-3,1.5,1.5,0,0,0,0,3Z"/><path d="M1188.69,288.49a1.5,1.5,0,0,0,0-3,1.5,1.5,0,0,0,0,3Z"/><path class="cls-21" d="M1193.32,284.9a23.79,23.79,0,0,1-2.2,11.84"/><path class="cls-21" d="M1200.81,278.9a5.46,5.46,0,0,1,6.6,0"/><path class="cls-21" d="M1191.23,279.35a3.8,3.8,0,0,0-4.34.74"/><circle class="cls-22" cx="1238.58" cy="418.95" r="6.31"/><circle class="cls-22" cx="1291.88" cy="377.9" r="6.31"/><circle class="cls-22" cx="1003.8" cy="402.39" r="6.31"/><circle class="cls-22" cx="1304.5" cy="480.05" r="6.31"/><circle class="cls-22" cx="1126.89" cy="389.78" r="6.31"/><path class="cls-4" d="M889.34,435.41c-1.39-3.75-3.43-7.62-3.73-10.82a.48.48,0,0,0-.91-.18c-3.21,5.93-9,11.86-6.45,18.9,2,5.55,7.13,6.71,10.91,2.16C891.44,442.74,890.71,439.13,889.34,435.41Z"/><path class="cls-4" d="M908.6,466.11a11.63,11.63,0,0,0-2.8-5.12c-2.5,2.12-6.65,10.44-3.13,13.12,1.8,1.37,4.68,1.35,5.76-.57C909.59,471.47,909.4,468.7,908.6,466.11Z"/></g><g id="woman1"><path class="cls-15" d="M859.6,1004.1a2.45,2.45,0,0,1-1.35,4.43,562.06,562.06,0,0,1-108.53-7.21,2,2,0,0,1-1.64-2c.41-19.15.94-43.11,1.32-60.22a297.07,297.07,0,0,0,50.07,1.81v17.17a4.76,4.76,0,0,0,2,3.86Z"/><path class="cls-15" d="M731,1002a1.52,1.52,0,0,1-1,2.69c-35.42,0-75.89-1.72-111.44-4a2.53,2.53,0,0,1-2.36-2.73c1.46-19.61,3.67-44.25,3.62-61.71a352.69,352.69,0,0,0,57.55,2.92c-.49,6.3-.28,11.18-.54,17a9.4,9.4,0,0,0,3.61,7.81C693.72,974.38,715.6,989.38,731,1002Z"/><path class="cls-17" d="M722.2,589q-12.63,174.71-28.15,349.17-8.32.66-16.69.91a352.69,352.69,0,0,1-57.55-2.92c-4-.53-11.08-1.13-15.1-1.81,18.82-115.46,50.56-230,32.88-344.64-7.9-51.2-1.47-88.07,11.76-125.83v0c.23-.67.47-1.35.72-2,13.62,10.59,31.41,11.68,46,10.59,3.77,5.16,7.11,9.37,13.93,11.86,10.22,3.72,21,5.53,31.73,7.35,12.12,2.06,24.26,3.9,36.4,5.71,23.09,78.86,25,174.3,26.6,248.88C806,805.81,814,867.7,821.27,939.09q-10.86,1.32-21.8,1.83a297.07,297.07,0,0,1-50.07-1.81q-8.13-1-16.2-2.41C728.49,826.68,730.41,705.38,722.2,589Z"/><path class="cls-14" d="M733.28,798c-3-47,7-93,4-140-3-40-1-81-11-120a536,536,0,0,0-3.52,59.42c5.89,88.71,6.15,180.06,8.15,266.91C732.34,842.24,734,820.34,733.28,798Z"/><path class="cls-16" d="M776.16,297.75c2.46,13.22-16.27,24.55-27.92,12a11.3,11.3,0,0,0,3.36-1.85,19.37,19.37,0,0,0,4.31-5.51,71,71,0,0,0,6-13.57,71.76,71.76,0,0,0,3.57-20.94c.15-7.62-1.8-14.7-7.63-19.35a1.74,1.74,0,0,0-2.39.26c-6.89,8.08-17.43,15.05-27.68,19.16l-.32.13-.42-.61a8.09,8.09,0,0,0-7-3.46c-5.07.31-8.89,6.33-7.27,11.18a5,5,0,0,0,4,3.34.83.83,0,0,1,.7,1c-.19.9-.41,1.86-.65,2.89-1.59,6.8-4.15,16.27-6.74,25.3l-.15,0c-8.43,1.73-20.8-.44-26.76-6.65-6.2-6.47-8.08-18.19-4-26.17,2.83-5.53,9.06-8.35,13.24-12.94,4.73-5.2,6.57-12.34,10.07-18.45,9.2-16.07,31.11-23.3,48.19-16.16,10.21,4.26,18.62,13,21.33,23.94,3.06,12.31-2.34,25,.86,36.85C773.72,291.37,775.53,294.4,776.16,297.75Z"/><path class="cls-15" d="M691.28,301c-7.73-4.29-11.66-11.22-14.26-17.92-.38,6.52,1.83,13.49,6.12,18,6,6.21,18.33,8.38,26.76,6.65l.15,0c2.4-8.37,4.78-17.12,6.38-23.77C711.24,294.66,705,309,691.28,301Z"/><path class="cls-15" d="M754,305.26a14.07,14.07,0,0,1-2.44,2.61,11.3,11.3,0,0,1-3.36,1.85c9.31,10.06,23.13,4.83,27.06-4.42C769.1,308.46,759.77,313.34,754,305.26Z"/><path class="cls-18" d="M693.13,468.48c1,1.37,2,2.7,2.91,4-14.55,1.09-32.34,0-46-10.59a.58.58,0,0,1-.17-.06,287.21,287.21,0,0,0,7.74-48.57c.82,0,1.62,0,2.42-.05a279.67,279.67,0,0,0,20.7,37.73Q686.64,459.91,693.13,468.48Z"/><path class="cls-18" d="M794.48,356.08c-3.37-10.85-9.68-25.84-19.67-32.23a38.31,38.31,0,0,0-9.77-4.07,135.42,135.42,0,0,0-29.19-5.32c-1.58,9.25-3.49,20.44-4.52,26.51a22.2,22.2,0,0,1-27.74-10.54,1.65,1.65,0,0,1-.09-1.27c1.31-3.93,3-9.53,4.87-15.71a193.33,193.33,0,0,0-39.35,4c-6.73,1.38-13.78,3.37-18.38,8.46-3.61,4-5.21,9.42-6.27,14.7a102.16,102.16,0,0,0,12.9,72.61h.38c.82,0,1.62,0,2.42-.05,17.65-.54,32.38-6.21,50.56-14,7.11,16.14,11.45,29.73,16.06,43.15,1,2.82,1.95,5.65,3,8.48,10.84,2.34,22.86,5.46,35.07,8.8q-4.59-10.83-10-20.94h-.16a.49.49,0,0,1,0-.12q1-16.11,2-32.2a20.51,20.51,0,0,0,2.82-1.86,25.21,25.21,0,0,0,5.31-5.7l3.15,10.7.87-.23A210.76,210.76,0,0,0,805.19,396c.5-.22,1-.45,1.48-.69Q800.58,375.7,794.48,356.08Z"/><path class="cls-19" d="M903.11,511.54a45.24,45.24,0,0,0,4.88,1.23v.05a21.53,21.53,0,0,1,9.27,4,.86.86,0,0,1-.38,1.54,30.18,30.18,0,0,1-10.25-.14l3.64,2.35c.89.58,1.91,1.53,1.49,2.5-.35.79-1.4.92-2.26.92a82.89,82.89,0,0,1-31.58-6.38l0-.1A76.23,76.23,0,0,0,896.79,519c1.2-.09,1.16-2.08.09-2.64a40.62,40.62,0,0,0-11.18-3.51,82.8,82.8,0,0,0,14.17.32,1.68,1.68,0,0,0,1.58-1.7Z"/><path class="cls-19" d="M907.54,506.08l11.87,5.07a1.25,1.25,0,0,1-.36,2.4h0a45.74,45.74,0,0,1-11-.78,45.24,45.24,0,0,1-4.88-1.23l-1.66-.06a1.67,1.67,0,0,0-.76-1.41,15.1,15.1,0,0,0-5.47-1.95l-8.05-1.54a60,60,0,0,0,17-.88,1.23,1.23,0,0,0,.43-.16l1.8,0Z"/><path class="cls-19" d="M904.76,500.19a1.33,1.33,0,0,0,.83-2.36c-4.18-3.28-9.34-5.07-14.63-6.38l.25-1c10.24,1.32,24,11.26,29.64,14.59a1.64,1.64,0,0,1-.75,3.05,27.62,27.62,0,0,1-12.38-2.44l-.18.42-1.19-.51-1.8,0a1.28,1.28,0,0,0,.14-2.05,9.72,9.72,0,0,0-4.34-1.71c-6.16-1.2-13.2-3.28-19.44-4.56l.06-.3c7.82,1.63,15.79,3.27,23.76,3.27Z"/><path class="cls-19" d="M873.28,487.36a30.36,30.36,0,0,0,6.75-2.65c3.71-1.15,14.66-1.08,18.4-.9a1.56,1.56,0,0,1,1,2.71c-1.49,1.36-6.29,3.38-8.22,3.94l-.25,1c-1.92-.49-3.85-.91-5.76-1.31l-11.85-2.5Z"/><path class="cls-19" d="M865.25,479.78l-1.08.1c-2.67.26-5.34.62-8,.9-6.14.65-12.2-.52-18.26-1.7-6.78-1.33-15-3.4-24.21-5.85-9.24-7.49-22.83-19.26-30.62-28a9,9,0,0,1-1.56-2.43q-7.18-16.45-12.77-33.56A210.76,210.76,0,0,0,805.19,396c3.35,10,5.6,22.65,8.6,33.28a5.34,5.34,0,0,0,1.48,2.42C832.72,448.14,849.41,461.7,865.25,479.78Z"/><path class="cls-19" d="M885.64,512.85c-3-.57-6.06-1-8.9-1.5A83.9,83.9,0,0,0,885.64,512.85Zm.06,0a40.62,40.62,0,0,1,11.18,3.51c1.07.56,1.11,2.55-.09,2.64a76.23,76.23,0,0,1-18.86-1.51c-6.32-1.17-12.16-2.72-16.23-3.75-13.68-3.48-27.26-7.43-41.19-9.78-14.09-2.38-28.24-4.47-42.41-6.6-12.14-1.81-24.28-3.65-36.4-5.71C731,489.84,720.19,488,710,484.31c-6.82-2.49-10.16-6.7-13.93-11.86-.92-1.27-1.87-2.6-2.91-4q-6.48-8.57-12.36-17.57a279.67,279.67,0,0,1-20.7-37.73c17.65-.54,32.38-6.21,50.56-14,7.11,16.14,11.45,29.73,16.06,43.15,1,2.82,1.95,5.65,3,8.48,10.84,2.34,22.86,5.46,35.07,8.8,16.87,4.61,34.07,9.65,49,13.65,9.16,2.45,17.43,4.52,24.21,5.85,6.06,1.18,12.12,2.35,18.26,1.7,2.67-.28,5.34-.64,8-.9l1.08-.1c5.65-.47,11.51-.36,16.65,1.82a1.09,1.09,0,0,1,.16,1.92c-.66.42-1.34.82-2,1.19a30.36,30.36,0,0,1-6.75,2.65l.07.28,11.85,2.5c1.91.4,3.84.82,5.76,1.31,5.29,1.31,10.45,3.1,14.63,6.38a1.33,1.33,0,0,1-.83,2.36h0c-8,0-15.94-1.64-23.76-3.27l-.06.3c6.24,1.28,13.28,3.36,19.44,4.56a9.72,9.72,0,0,1,4.34,1.71,1.28,1.28,0,0,1-.14,2.05,1.23,1.23,0,0,1-.43.16,60,60,0,0,1-17,.88l-6-1.16a36.91,36.91,0,0,0,6,1.16l8.05,1.54a15.1,15.1,0,0,1,5.47,1.95,1.7,1.7,0,0,1-.82,3.11A82.8,82.8,0,0,1,885.7,512.86Z"/><path class="cls-19" d="M736.78,309c-.29,1.68-.6,3.51-.93,5.42-1.58,9.25-3.49,20.44-4.52,26.51a22.2,22.2,0,0,1-27.74-10.54,1.65,1.65,0,0,1-.09-1.27c1.31-3.93,3-9.53,4.87-15.71.56-1.87,1.12-3.8,1.68-5.75,2.59-9,5.15-18.5,6.74-25.3l.8.19c5.26-2.94,10-5.78,14-10.29l.15-.13c7.7,8.8,18.54,18,30.07,16.58l.12,0a71,71,0,0,1-6,13.57,19.37,19.37,0,0,1-4.31,5.51,11.3,11.3,0,0,1-3.36,1.85A16.19,16.19,0,0,1,736.78,309Z"/><path class="cls-18" d="M761.83,288.75c-11.53,1.41-22.37-7.78-30.07-16.58l-.15.13c-2.33,2-4.32,4.21-6.89,6-1.6,1.11-6.83,2.89-7.23,4.72a5,5,0,0,0,.2,2.27,37.58,37.58,0,0,0,19,24.48l.12-.71a16.19,16.19,0,0,0,11.46.68,11.3,11.3,0,0,0,3.36-1.85,19.37,19.37,0,0,0,4.31-5.51,71,71,0,0,0,6-13.57Z"/><path class="cls-19" d="M731.61,272.3c-4,4.51-8.76,7.35-14,10.29l-.8-.19c.24-1,.46-2,.65-2.89a.83.83,0,0,0-.7-1,5,5,0,0,1-4-3.34c-1.62-4.85,2.2-10.87,7.27-11.18a8.09,8.09,0,0,1,7,3.46l.42.61.32-.13.07.17c.46,1.5,1.4,1.86,2.65,2.82l.57.5.65.76Z"/><path class="cls-19" d="M730.54,270.91c-1.25-1-2.19-1.32-2.65-2.82l-.07-.17c10.25-4.11,20.79-11.08,27.68-19.16a1.74,1.74,0,0,1,2.39-.26c5.83,4.65,7.78,11.73,7.63,19.35A71.76,71.76,0,0,1,762,288.79l-.12,0c-11.53,1.41-22.37-7.78-30.07-16.58l-.65-.76Z"/><path class="cls-21" d="M735.85,314.46A135.42,135.42,0,0,1,765,319.78a38.31,38.31,0,0,1,9.77,4.07c10,6.39,16.3,21.38,19.67,32.23q6.1,19.64,12.19,39.25"/><path class="cls-21" d="M657.27,413.23a102.16,102.16,0,0,1-12.9-72.61c1.06-5.28,2.66-10.69,6.27-14.7,4.6-5.09,11.65-7.08,18.38-8.46a193.33,193.33,0,0,1,39.35-4"/><path class="cls-21" d="M767.87,409.45l-3.15-10.7"/><path class="cls-21" d="M692.89,356.58c6.18,10.8,14.09,28.61,18.81,42.11"/><path class="cls-21" d="M767.87,409.45a211.59,211.59,0,0,0,38.8-14.12"/><path class="cls-21" d="M657.27,413.23c19.27,0,34.79-6.07,54.43-14.54"/><path class="cls-21" d="M710.63,399.15c8.72,19.8,13.27,35.77,19.27,52.27"/><path class="cls-21" d="M805.19,396c3.35,10,5.6,22.65,8.6,33.28a5.29,5.29,0,0,0,1.48,2.42c17.54,16.5,34.3,30.12,50.22,48.33"/><path class="cls-21" d="M768.74,409.22q5.57,17.08,12.77,33.56a9,9,0,0,0,1.56,2.43c7.9,8.88,21.76,20.87,31,28.34"/><path class="cls-21" d="M756.59,406.31c-.56,9.11-2.85,19.4-1.77,28.48,1,8.72,6.45,16.61,9.92,24.79"/><path class="cls-21" d="M767,371.59c5.32,10.94,2,25.39-7.63,32.87-2.71,2.1-6,3.73-9.44,3.48"/><path class="cls-21" d="M660.07,413.18a279,279,0,0,0,20.69,37.73q5.88,9,12.37,17.58c5.24,6.94,8.33,12.73,16.84,15.82,10.22,3.73,21,5.54,31.72,7.35,26.28,4.46,52.67,7.9,78.82,12.31,13.93,2.36,27.51,6.31,41.19,9.78,8.08,2,23.14,6.15,35.09,5.26,1.2-.09,1.16-2.07.09-2.63-6-3.15-13.6-3.85-20.14-5"/><path class="cls-21" d="M729.67,450.78c10.84,2.34,22.86,5.46,35.07,8.8,27.24,7.45,55.37,16,73.16,19.5,6.06,1.18,12.12,2.35,18.26,1.7,2.67-.28,5.34-.64,8-.9,6-.58,12.26-.6,17.73,1.72a1.09,1.09,0,0,1,.16,1.92,30.67,30.67,0,0,1-12.36,4.55"/><path class="cls-21" d="M873.35,487.65l11.85,2.5c7.17,1.51,14.7,3.21,20.39,7.68a1.33,1.33,0,0,1-.83,2.36h0c-8.5,0-17-1.87-25.33-3.59"/><path class="cls-21" d="M879.89,497c6.49,1.25,14,3.5,20.46,4.75a9.73,9.73,0,0,1,4.34,1.72,1.27,1.27,0,0,1-.57,2.21c-8,1.41-16.38,1.86-24.14-.61"/><path class="cls-21" d="M879.43,505.1l15.79,3a14.9,14.9,0,0,1,5.47,1.94,1.7,1.7,0,0,1-.83,3.11,81.31,81.31,0,0,1-23.12-1.83"/><path class="cls-21" d="M891.2,490.47c10.25,1.31,24,11.25,29.65,14.58a1.64,1.64,0,0,1-.75,3.05A27.3,27.3,0,0,1,907,505.32"/><path class="cls-21" d="M906.35,505.57l13.06,5.58a1.25,1.25,0,0,1-.37,2.4h0a46.11,46.11,0,0,1-15.91-2"/><path class="cls-21" d="M908,512.83a21.45,21.45,0,0,1,9.28,4,.87.87,0,0,1-.38,1.54c-5.6,1-11.41-.18-16.92-1.58"/><path class="cls-21" d="M906.52,518.17l3.73,2.4c.9.57,1.92,1.53,1.49,2.5-.34.79-1.39.92-2.25.91a82.7,82.7,0,0,1-31.58-6.38"/><path class="cls-21" d="M879.91,484.74c3.59-1.18,14.74-1.11,18.51-.93a1.56,1.56,0,0,1,1,2.71c-1.49,1.37-6.29,3.39-8.23,4"/><path class="cls-21" d="M649.35,463.92a283.69,283.69,0,0,0,8.3-50.69"/><path class="cls-21" d="M649.9,461.8a.64.64,0,0,0,.18.06c13.61,10.59,31.41,11.69,46,10.59"/><path class="cls-21" d="M731.33,341c1-6.07,2.94-17.26,4.52-26.51.33-1.91.64-3.74.93-5.42"/><path class="cls-21" d="M727.07,267.45a8.05,8.05,0,0,0-7-3.46c-5.07.3-8.89,6.33-7.27,11.17a5,5,0,0,0,4,3.34.84.84,0,0,1,.7,1c-2.64,12.31-10.11,38.18-13.94,49.65a1.68,1.68,0,0,0,.09,1.28,22.25,22.25,0,0,0,31.24,8.84"/><path class="cls-21" d="M756.89,247.51c6.85,3.49,8.78,12.72,8.63,20.34a72,72,0,0,1-9.62,34.51,19.34,19.34,0,0,1-4.3,5.52c-4.43,3.57-11.05,3.18-16.11.58a39,39,0,0,1-16.31-17.06"/><path class="cls-21" d="M761.83,288.76c-7,.86-13.66-1.8-19.22-5.95-5.71-4.26-11.1-8.68-14.75-14.89"/><path class="cls-21" d="M717.59,282.59a45.67,45.67,0,0,0,13-10.29"/><path class="cls-21" d="M723.22,268.25a4.63,4.63,0,0,0-6.13,6.94"/><path d="M746.71,274.8H747a1.15,1.15,0,0,0,.58-.13,1.36,1.36,0,0,0,.79-.79,1.15,1.15,0,0,0,.13-.58l-.05-.4a1.49,1.49,0,0,0-.39-.66l-.3-.23a1.48,1.48,0,0,0-.76-.21h-.27a1.15,1.15,0,0,0-.58.13,1.36,1.36,0,0,0-.79.79,1.15,1.15,0,0,0-.13.58l0,.4a1.59,1.59,0,0,0,.39.66l.3.24a1.57,1.57,0,0,0,.76.2Z"/><path d="M761.54,280h.27a1.22,1.22,0,0,0,.57-.13,1.32,1.32,0,0,0,.8-.8,1.22,1.22,0,0,0,.13-.57l-.06-.4a1.45,1.45,0,0,0-.38-.66l-.31-.24a1.5,1.5,0,0,0-.75-.2h-.27a1.06,1.06,0,0,0-.58.13,1.36,1.36,0,0,0-.79.79,1.06,1.06,0,0,0-.13.58l.05.4a1.49,1.49,0,0,0,.39.66l.3.23a1.45,1.45,0,0,0,.76.21Z"/><path class="cls-21" d="M757,275c-1.12,2.5-2.25,5.32-1.32,7.89.29.81.77,1.54,1,2.36a5,5,0,0,1-.1,3.47"/><path class="cls-21" d="M760,271.22a4,4,0,0,1,4.33,1.51"/><path class="cls-21" d="M743,267.25a9.09,9.09,0,0,1,7.29.54"/><line class="cls-23" x1="730.61" y1="373.49" x2="745.85" y2="362.52"/><line class="cls-23" x1="660.07" y1="343.92" x2="672.97" y2="355.23"/><line class="cls-23" x1="787.27" y1="389.39" x2="799.68" y2="379.81"/><line class="cls-23" x1="660.07" y1="442.99" x2="672.97" y2="451.42"/><line class="cls-23" x1="734.73" y1="425.29" x2="746.98" y2="438.64"/><line class="cls-23" x1="764.32" y1="325.01" x2="775.3" y2="340.97"/><path class="cls-20" d="M623,936.61c12.17-95.16,41.41-189.89,38.05-285.53-2-57.16-12.55-113.24,1.2-168.75"/><path class="cls-20" d="M748.21,992.88a418.7,418.7,0,0,0,109.63,10"/><path class="cls-20" d="M616.69,991.39q56.44,6.75,113.26,9.76"/></g></svg>