<svg xmlns="http://www.w3.org/2000/svg" viewBox="0 0 1920 1080"><defs><style>.cls-1{fill:#f7f8fa;}.cls-16,.cls-2,.cls-24{fill:#fff;}.cls-19,.cls-2,.cls-24{stroke:#31434d;}.cls-10,.cls-12,.cls-19,.cls-2,.cls-20,.cls-21,.cls-24,.cls-5,.cls-6,.cls-8{stroke-linecap:round;}.cls-10,.cls-12,.cls-19,.cls-2,.cls-20,.cls-21,.cls-22,.cls-23,.cls-24,.cls-5,.cls-6,.cls-8{stroke-miterlimit:10;}.cls-3{fill:#53bcf7;}.cls-4{fill:#f6b367;}.cls-10,.cls-12,.cls-19,.cls-20,.cls-21,.cls-22,.cls-23,.cls-5,.cls-6,.cls-8{fill:none;}.cls-5{stroke:#f6b367;}.cls-10,.cls-12,.cls-5,.cls-8{stroke-width:4px;}.cls-21,.cls-6{stroke:#fff;}.cls-7{fill:#f69c36;}.cls-8{stroke:#f69c36;}.cls-9{fill:#f6af5d;}.cls-10{stroke:#f6af5d;}.cls-11{fill:#f6ca99;}.cls-12{stroke:#f6ca99;}.cls-13{fill:#09102d;}.cls-14{fill:#0f379a;}.cls-15{fill:#0c2c7a;}.cls-17{fill:#052251;}.cls-18{fill:#ffe1cf;}.cls-20{stroke:#000;}.cls-21,.cls-22{stroke-width:2px;}.cls-22{stroke:#b2d3f7;}.cls-23{stroke:#53bcf7;}.cls-24{stroke-width:0.75px;}.cls-25{fill:#4a525f;}.cls-26{fill:#eff0f2;}</style></defs><title>2019-nCov3</title><g id="Layer_4" data-name="Layer 4"><ellipse class="cls-1" cx="979.5" cy="510.93" rx="529.83" ry="473.58"/><circle class="cls-1" cx="1469.3" cy="262.99" r="206.68"/><circle class="cls-1" cx="533.3" cy="832.62" r="164.49"/><rect class="cls-2" x="334.19" y="269.14" width="109.89" height="23.98"/><rect class="cls-2" x="316.12" y="703.05" width="22.52" height="105.31"/><polygon class="cls-2" points="1527.49 156.94 1493.33 156.94 1493.33 122.78 1473.42 122.78 1473.42 156.94 1439.26 156.94 1439.26 176.85 1473.42 176.85 1473.42 211.01 1493.33 211.01 1493.33 176.85 1527.49 176.85 1527.49 156.94"/><rect class="cls-3" x="1474.72" y="589.92" width="17.3" height="17.3"/><rect class="cls-3" x="358.37" y="766.78" width="17.3" height="17.3"/><rect class="cls-3" x="274.24" y="666.46" width="17.3" height="17.3"/><rect class="cls-3" x="1400.7" y="634.1" width="17.3" height="17.3"/><rect class="cls-3" x="1492.02" y="744.12" width="17.3" height="17.3"/><rect class="cls-3" x="1405.76" y="112.06" width="17.3" height="17.3"/><rect class="cls-3" x="532.06" y="128.24" width="17.3" height="17.3"/><rect class="cls-3" x="486.75" y="82.93" width="17.3" height="17.3"/><rect class="cls-3" x="389.14" y="225.23" width="17.3" height="17.3"/><circle class="cls-4" cx="446.14" cy="159.48" r="22.49"/><line class="cls-5" x1="442.74" y1="174.14" x2="443.02" y2="196.19"/><line class="cls-5" x1="415.94" y1="137.66" x2="433.73" y2="148.84"/><line class="cls-5" x1="456.19" y1="148.15" x2="467.87" y2="127.34"/><line class="cls-5" x1="429.59" y1="165.87" x2="414.61" y2="167.39"/><line class="cls-5" x1="448.3" y1="125.45" x2="446.98" y2="152.55"/><polyline class="cls-5" points="470.74 143.76 456.76 156.87 482.66 156.43"/><line class="cls-5" x1="435.35" y1="169.49" x2="424.69" y2="184.67"/><line class="cls-5" x1="448.79" y1="167.51" x2="456.49" y2="186.42"/><line class="cls-5" x1="454.28" y1="164.6" x2="473.3" y2="177.46"/><path class="cls-5" d="M419.18,152.24c6.28,1,7,2.18,13.26,3.19"/><path class="cls-5" d="M432.57,135.2c2,5.3,4.4,7.16,6.43,12.47"/><circle class="cls-4" cx="484.19" cy="156.21" r="5.79"/><circle class="cls-4" cx="415.94" cy="137.66" r="5.79"/><circle class="cls-4" cx="473.34" cy="141.74" r="5.79"/><circle class="cls-4" cx="431.51" cy="132.63" r="5.79"/><circle class="cls-4" cx="448.71" cy="127.32" r="5.79"/><circle class="cls-4" cx="416.68" cy="150.67" r="5.79"/><circle class="cls-4" cx="468.46" cy="125.94" r="5.79"/><circle class="cls-4" cx="424.42" cy="185.1" r="5.79"/><circle class="cls-4" cx="413.14" cy="167.18" r="5.79"/><circle class="cls-4" cx="457.65" cy="188.98" r="5.79"/><circle class="cls-4" cx="476.44" cy="179.44" r="5.79"/><circle class="cls-4" cx="442.75" cy="196.62" r="5.79"/><circle class="cls-6" cx="439.75" cy="154.75" r="5.93"/><circle class="cls-6" cx="455.59" cy="155.52" r="1.93"/><circle class="cls-6" cx="448.33" cy="167.98" r="3.38"/><circle class="cls-7" cx="1621.39" cy="289.87" r="29.99"/><line class="cls-8" x1="1616.86" y1="309.42" x2="1617.23" y2="338.83"/><line class="cls-8" x1="1581.12" y1="260.77" x2="1604.83" y2="275.68"/><line class="cls-8" x1="1634.8" y1="274.75" x2="1650.37" y2="247"/><line class="cls-8" x1="1599.32" y1="298.39" x2="1579.34" y2="300.41"/><line class="cls-8" x1="1624.27" y1="244.48" x2="1622.52" y2="280.63"/><polyline class="cls-8" points="1654.21 268.9 1635.56 286.38 1670.1 285.8"/><line class="cls-8" x1="1607" y1="303.22" x2="1592.78" y2="323.46"/><line class="cls-8" x1="1624.93" y1="300.58" x2="1635.19" y2="325.8"/><line class="cls-8" x1="1632.25" y1="296.7" x2="1657.61" y2="313.85"/><path class="cls-8" d="M1585.43,280.21c8.38,1.35,9.31,2.9,17.69,4.25"/><path class="cls-8" d="M1603.29,257.48c2.71,7.07,5.87,9.55,8.58,16.63"/><circle class="cls-7" cx="1672.15" cy="285.51" r="7.73"/><circle class="cls-7" cx="1581.12" cy="260.77" r="7.73"/><circle class="cls-7" cx="1657.67" cy="266.2" r="7.73"/><circle class="cls-7" cx="1601.88" cy="254.06" r="7.73"/><circle class="cls-7" cx="1624.82" cy="246.97" r="7.73"/><circle class="cls-7" cx="1582.1" cy="278.12" r="7.73"/><circle class="cls-7" cx="1651.16" cy="245.14" r="7.73"/><circle class="cls-7" cx="1592.42" cy="324.03" r="7.73"/><circle class="cls-7" cx="1577.38" cy="300.14" r="7.73"/><circle class="cls-7" cx="1636.74" cy="329.21" r="7.73"/><circle class="cls-7" cx="1661.8" cy="316.48" r="7.73"/><circle class="cls-7" cx="1616.87" cy="339.4" r="7.73"/><circle class="cls-6" cx="1612.87" cy="283.56" r="7.91"/><circle class="cls-6" cx="1634" cy="284.58" r="2.57"/><circle class="cls-6" cx="1624.31" cy="301.2" r="4.51"/><circle class="cls-4" cx="1356" cy="216.63" r="11.07"/><line class="cls-5" x1="1354.32" y1="223.85" x2="1354.46" y2="234.7"/><line class="cls-5" x1="1341.13" y1="205.89" x2="1349.88" y2="211.39"/><line class="cls-5" x1="1360.94" y1="211.05" x2="1366.69" y2="200.81"/><line class="cls-5" x1="1347.85" y1="219.77" x2="1340.47" y2="220.52"/><line class="cls-5" x1="1357.06" y1="199.88" x2="1356.41" y2="213.22"/><polyline class="cls-5" points="1368.11 208.89 1361.23 215.34 1373.97 215.13"/><line class="cls-5" x1="1350.69" y1="221.56" x2="1345.44" y2="229.03"/><line class="cls-5" x1="1357.3" y1="220.58" x2="1361.09" y2="229.89"/><line class="cls-5" x1="1360" y1="219.15" x2="1369.36" y2="225.48"/><path class="cls-5" d="M1342.72,213.07c3.1.49,3.44,1.07,6.53,1.56"/><path class="cls-5" d="M1349.31,204.68c1,2.61,2.17,3.52,3.17,6.13"/><circle class="cls-4" cx="1374.73" cy="215.02" r="2.85"/><circle class="cls-4" cx="1341.13" cy="205.89" r="2.85"/><circle class="cls-4" cx="1369.38" cy="207.89" r="2.85"/><circle class="cls-4" cx="1348.8" cy="203.41" r="2.85"/><circle class="cls-4" cx="1357.26" cy="200.8" r="2.85"/><circle class="cls-4" cx="1341.49" cy="212.29" r="2.85"/><circle class="cls-4" cx="1366.98" cy="200.12" r="2.85"/><circle class="cls-4" cx="1345.3" cy="229.24" r="2.85"/><circle class="cls-4" cx="1339.75" cy="220.42" r="2.85"/><circle class="cls-4" cx="1361.66" cy="231.15" r="2.85"/><circle class="cls-4" cx="1370.91" cy="226.45" r="2.85"/><circle class="cls-4" cx="1354.33" cy="234.91" r="2.85"/><circle class="cls-6" cx="1352.85" cy="214.3" r="2.92"/><circle class="cls-6" cx="1360.65" cy="214.68" r="0.95"/><circle class="cls-6" cx="1357.07" cy="220.81" r="1.66"/><circle class="cls-4" cx="424.7" cy="908.75" r="15.4"/><line class="cls-5" x1="422.37" y1="918.79" x2="422.56" y2="933.89"/><line class="cls-5" x1="404.01" y1="893.81" x2="416.19" y2="901.47"/><line class="cls-5" x1="431.58" y1="900.99" x2="439.58" y2="886.74"/><line class="cls-5" x1="413.36" y1="913.13" x2="403.1" y2="914.17"/><line class="cls-5" x1="426.17" y1="885.44" x2="425.27" y2="904.01"/><polyline class="cls-5" points="441.55 897.99 431.97 906.96 449.71 906.66"/><line class="cls-5" x1="417.31" y1="915.61" x2="410.01" y2="926"/><line class="cls-5" x1="426.51" y1="914.25" x2="431.78" y2="927.2"/><line class="cls-5" x1="430.27" y1="912.26" x2="443.3" y2="921.07"/><path class="cls-5" d="M406.23,903.79c4.3.7,4.78,1.49,9.08,2.19"/><path class="cls-5" d="M415.4,892.12c1.39,3.63,3,4.91,4.41,8.54"/><circle class="cls-4" cx="450.76" cy="906.51" r="3.97"/><circle class="cls-4" cx="404.01" cy="893.81" r="3.97"/><circle class="cls-4" cx="443.32" cy="896.6" r="3.97"/><circle class="cls-4" cx="414.68" cy="890.36" r="3.97"/><circle class="cls-4" cx="426.46" cy="886.73" r="3.97"/><circle class="cls-4" cx="404.52" cy="902.72" r="3.97"/><circle class="cls-4" cx="439.98" cy="885.78" r="3.97"/><circle class="cls-4" cx="409.82" cy="926.3" r="3.97"/><circle class="cls-4" cx="402.1" cy="914.02" r="3.97"/><circle class="cls-4" cx="432.58" cy="928.96" r="3.97"/><circle class="cls-4" cx="445.44" cy="922.42" r="3.97"/><circle class="cls-4" cx="422.37" cy="934.19" r="3.97"/><circle class="cls-6" cx="420.32" cy="905.51" r="4.06"/><circle class="cls-6" cx="431.17" cy="906.04" r="1.32"/><circle class="cls-6" cx="426.19" cy="914.57" r="2.31"/><circle class="cls-4" cx="814.08" cy="700.91" r="17.85"/><line class="cls-5" x1="811.39" y1="712.55" x2="811.61" y2="730.05"/><line class="cls-5" x1="790.11" y1="683.59" x2="804.23" y2="692.47"/><line class="cls-5" x1="822.06" y1="691.91" x2="831.33" y2="675.4"/><line class="cls-5" x1="800.95" y1="705.98" x2="789.05" y2="707.19"/><line class="cls-5" x1="815.79" y1="673.9" x2="814.75" y2="695.41"/><polyline class="cls-5" points="833.61 688.44 822.51 698.84 843.07 698.49"/><line class="cls-5" x1="805.52" y1="708.86" x2="797.06" y2="720.9"/><line class="cls-5" x1="816.19" y1="707.29" x2="822.29" y2="722.29"/><line class="cls-5" x1="820.55" y1="704.98" x2="835.64" y2="715.18"/><path class="cls-5" d="M792.68,695.16c5,.81,5.54,1.73,10.53,2.53"/><path class="cls-5" d="M803.31,681.63c1.61,4.22,3.49,5.69,5.1,9.9"/><circle class="cls-4" cx="844.29" cy="698.32" r="4.6"/><circle class="cls-4" cx="790.11" cy="683.59" r="4.6"/><circle class="cls-4" cx="835.67" cy="686.83" r="4.6"/><circle class="cls-4" cx="802.47" cy="679.6" r="4.6"/><circle class="cls-4" cx="816.12" cy="675.38" r="4.6"/><circle class="cls-4" cx="790.7" cy="693.92" r="4.6"/><circle class="cls-4" cx="831.8" cy="674.29" r="4.6"/><circle class="cls-4" cx="796.84" cy="721.24" r="4.6"/><circle class="cls-4" cx="787.89" cy="707.02" r="4.6"/><circle class="cls-4" cx="823.22" cy="724.33" r="4.6"/><circle class="cls-4" cx="838.13" cy="716.75" r="4.6"/><circle class="cls-4" cx="811.39" cy="730.39" r="4.6"/><circle class="cls-6" cx="809.01" cy="697.16" r="4.71"/><circle class="cls-6" cx="821.59" cy="697.76" r="1.53"/><circle class="cls-6" cx="815.82" cy="707.66" r="2.68"/><circle class="cls-9" cx="438.08" cy="579.47" r="33.69"/><line class="cls-10" x1="433" y1="601.43" x2="433.41" y2="634.47"/><line class="cls-10" x1="392.84" y1="546.78" x2="419.48" y2="563.53"/><line class="cls-10" x1="453.14" y1="562.49" x2="470.64" y2="531.32"/><line class="cls-10" x1="413.29" y1="589.04" x2="390.84" y2="591.31"/><line class="cls-10" x1="441.31" y1="528.48" x2="439.35" y2="569.09"/><polyline class="cls-10" points="474.94 555.92 454 575.56 492.8 574.9"/><line class="cls-10" x1="421.92" y1="594.47" x2="405.95" y2="617.2"/><line class="cls-10" x1="442.06" y1="591.5" x2="453.58" y2="619.83"/><line class="cls-10" x1="450.28" y1="587.14" x2="478.77" y2="606.41"/><path class="cls-10" d="M397.69,568.62c9.41,1.52,10.46,3.26,19.87,4.78"/><path class="cls-10" d="M417.75,543.09c3,7.94,6.59,10.73,9.64,18.67"/><circle class="cls-9" cx="495.09" cy="574.57" r="8.68"/><circle class="cls-9" cx="392.84" cy="546.78" r="8.68"/><circle class="cls-9" cx="478.83" cy="552.88" r="8.68"/><circle class="cls-9" cx="416.17" cy="539.25" r="8.68"/><circle class="cls-9" cx="441.93" cy="531.28" r="8.68"/><circle class="cls-9" cx="393.95" cy="566.27" r="8.68"/><circle class="cls-9" cx="471.52" cy="529.22" r="8.68"/><circle class="cls-9" cx="405.55" cy="617.84" r="8.68"/><circle class="cls-9" cx="388.65" cy="591" r="8.68"/><circle class="cls-9" cx="455.33" cy="623.66" r="8.68"/><circle class="cls-9" cx="483.47" cy="609.36" r="8.68"/><circle class="cls-9" cx="433" cy="635.11" r="8.68"/><circle class="cls-6" cx="428.51" cy="572.38" r="8.89"/><circle class="cls-6" cx="452.25" cy="573.53" r="2.89"/><circle class="cls-6" cx="441.36" cy="592.2" r="5.06"/><circle class="cls-11" cx="1448.89" cy="852.02" r="19.95"/><line class="cls-12" x1="1445.88" y1="865.03" x2="1446.12" y2="884.59"/><line class="cls-12" x1="1422.1" y1="832.66" x2="1437.87" y2="842.58"/><line class="cls-12" x1="1457.81" y1="841.96" x2="1468.17" y2="823.5"/><line class="cls-12" x1="1434.21" y1="857.69" x2="1420.91" y2="859.04"/><line class="cls-12" x1="1450.8" y1="821.83" x2="1449.64" y2="845.87"/><polyline class="cls-12" points="1470.72 838.08 1458.32 849.7 1481.29 849.31"/><line class="cls-12" x1="1439.32" y1="860.9" x2="1429.86" y2="874.37"/><line class="cls-12" x1="1451.24" y1="859.15" x2="1458.07" y2="875.92"/><line class="cls-12" x1="1456.11" y1="856.56" x2="1472.99" y2="867.97"/><path class="cls-12" d="M1425,845.6c5.57.9,6.19,1.93,11.76,2.82"/><path class="cls-12" d="M1436.85,830.47c1.8,4.71,3.9,6.36,5.7,11.07"/><circle class="cls-11" cx="1482.65" cy="849.12" r="5.14"/><circle class="cls-11" cx="1422.1" cy="832.66" r="5.14"/><circle class="cls-11" cx="1473.02" cy="836.28" r="5.14"/><circle class="cls-11" cx="1435.91" cy="828.2" r="5.14"/><circle class="cls-11" cx="1451.17" cy="823.48" r="5.14"/><circle class="cls-11" cx="1422.75" cy="844.2" r="5.14"/><circle class="cls-11" cx="1468.69" cy="822.27" r="5.14"/><circle class="cls-11" cx="1429.62" cy="874.75" r="5.14"/><circle class="cls-11" cx="1419.61" cy="858.85" r="5.14"/><circle class="cls-11" cx="1459.1" cy="878.19" r="5.14"/><circle class="cls-11" cx="1475.77" cy="869.72" r="5.14"/><circle class="cls-11" cx="1445.88" cy="884.97" r="5.14"/><circle class="cls-6" cx="1443.22" cy="847.83" r="5.26"/><circle class="cls-6" cx="1457.28" cy="848.5" r="1.71"/><circle class="cls-6" cx="1450.83" cy="859.56" r="3"/><circle class="cls-2" cx="1620.96" cy="129.85" r="14.56"/><circle class="cls-2" cx="1143.65" cy="157.36" r="12.94"/><ellipse class="cls-2" cx="1449.45" cy="315.92" rx="11.33" ry="12.94"/><circle class="cls-2" cx="792.55" cy="848.24" r="14.56"/><ellipse class="cls-2" cx="854.03" cy="762.48" rx="8.09" ry="9.71"/><circle class="cls-2" cx="337.9" cy="578.03" r="12.94"/><circle class="cls-2" cx="1638.75" cy="487.43" r="9.71"/><circle class="cls-2" cx="282.89" cy="451.83" r="16.18"/></g><g id="man"><path class="cls-13" d="M1281.81,928.84h0c12.57-3.79,25.76-5.33,38.42-2.82,5.87,1.17,15.3,2.83,20.56,0l1.58-.27c2.14,12.52,4.41,25.21,6.2,36.13-38.51,6-84.49,7.47-122.43,7.62A2,2,0,0,1,1225,966C1242.08,953.21,1263.47,939.8,1281.81,928.84Z"/><path class="cls-13" d="M1215.63,927.35c.16,12.35.66,25.61.66,42.92-38.71,4-90.55,4.87-130.61,2.32a1.79,1.79,0,0,1-.79-3.34c19.64-11.39,48.43-30.61,70.92-41.27l.09-.88q1.62.2,3.21.45c7.91,1.27,15.71,5.5,23.71,5.75C1193.85,933.64,1204.64,928.23,1215.63,927.35Z"/><path class="cls-14" d="M1229.35,676.54q-4.78,113.44-3.19,227c-3.41.21-6.83.39-10.25.52a565.09,565.09,0,0,1-58.93-.62c-1.76-.11-3.51-.22-5.27-.35-4.66-149.25,1.12-302.55,43.15-449.42,28.87.5,61.56.66,84.71-.42a15.23,15.23,0,0,0,11.72-6.41q2.32-3.3,4.59-6.66a108.14,108.14,0,0,0,26.82-4.42l-.09.41.19.64c10.58,25.74,13.8,54,12.52,81.64-1.42,30.41-10.65,59.48-15.76,89.32-3.27,19-7,34.11-10.21,52.6a26,26,0,0,0,0,8.72q19,112.5,32.34,225.82c-1.32.36-2.64.71-4,1a283.45,283.45,0,0,1-58.3,8.22q-6.44.22-12.73.15h0c-14.14-65.35-22.88-131.17-33.26-197.29C1231.82,696.91,1230.28,686.75,1229.35,676.54Z"/><path class="cls-15" d="M1237.59,592.57c.84-7.56-.43-17.94.32-27h-2.32c1,6-22,121-22,121-1,31-3,61,1,92,3,23,6,68,7,68-1,14,1,28,2,42H1226q-1.1-106,3.35-212c.79,8.69,2,17.34,3.35,26A601.8,601.8,0,0,1,1237.59,592.57Z"/><path class="cls-14" d="M1238.59,560.57a46,46,0,0,0-.68,5h.68C1239.59,564.57,1238.59,562.57,1238.59,560.57Z"/><path class="cls-16" d="M1270.4,378.59c-3.85,12.16-7.64,24.27-12,35.88a6.57,6.57,0,0,1-5.52,4.24c-15.62,1.53-31.26,2.94-46.93,4.12-.8-8.22-.91-16.53-1-24.8,0-1.17,0-2.35,0-3.52q-.36-28.53-.73-57.07c4.32-14.07,9-28,13.83-41.95a45.45,45.45,0,0,1,4.64-9.63l.35-.54c3.1-4.79,8.47-8.17,14.21-11.3-.3,3.51-1.17,9,1.18,11.43,3.33,3.51,10,4.54,14.69,5.11,5.67.69,12.42-1.46,17.42-4.57a2.43,2.43,0,0,0,1.16-2.13c-.06-2.06-.12-4.23-.17-6.48,32-.88,69,5.68,75.34,43.41,1.85,10.93-.56,22.08-3,32.91-6,27.36-15.08,54.73-21.16,82.09a108.14,108.14,0,0,1-26.82,4.42,352.76,352.76,0,0,0,23.9-41.37c-16.34-6.76-29.14-10.64-48.83-20.07Z"/><path class="cls-17" d="M1221.81,211.93a10,10,0,0,1-4.51-7.92c-.4-5.86,8.94-20.91,16.1-13.74a18.72,18.72,0,0,1,11.77-8.18,25.25,25.25,0,0,1,14.56,1.75,11.51,11.51,0,0,1,6.83,6.45,12.8,12.8,0,0,1,8.77,2.18,20.75,20.75,0,0,1,7.23,27.4,11.15,11.15,0,0,1-4.09,4.56,5.66,5.66,0,0,0-.32-1,5.37,5.37,0,0,0-6.68-2.8c-3.46,1.41-3.55,6.76-4.92,9.81a25.49,25.49,0,0,1-9.94-18.93l-1-.46C1249.05,214.81,1230.47,217.89,1221.81,211.93Z"/><path class="cls-18" d="M1320.24,926c-12.66-2.51-25.85-1-38.42,2.82l.56-.34q-1.35-12.16-3-24.31a283.45,283.45,0,0,0,58.3-8.22c1.23,9.09,2.9,19.38,4.67,29.77l-1.58.27C1335.54,928.85,1326.11,927.19,1320.24,926Z"/><path class="cls-18" d="M1215.91,904.09c-.37,7.92-.39,15.4-.28,23.26-11,.88-21.78,6.29-32.81,5.95-8-.25-15.8-4.48-23.71-5.75q-1.59-.25-3.21-.45l0-.33,1-23.3A565.09,565.09,0,0,0,1215.91,904.09Z"/><path class="cls-18" d="M1204.16,337.44q.36,28.53.73,57.07a173.8,173.8,0,0,1-28.76,18.17,48.68,48.68,0,0,0,8.67-12.54c6.17-12.22,9.13-25.74,12.59-39C1199.47,353.19,1201.75,345.3,1204.16,337.44Z"/><path class="cls-18" d="M1082.59,443.21l1.35-.09Zm-.19,0c-7.05.29-18.29-.67-23.64-2.81a2,2,0,0,1-.1-3.6c6-2.51,14.08-1.83,27.9-1.83-11.56-1.69-7.56-1.69-12.54-2.23-3.4-.37-9-1.11-11.86-2.84a2.06,2.06,0,0,1,.79-3.79c9.12-1.25,20.34-2.09,29.51-.66a53.09,53.09,0,0,1-5.42-4.13,2.22,2.22,0,0,1-.86-1.15c-.34-1.54,2-2,3.6-1.63,13.3,2.9,26.74,6.15,40.26,7.81h-.21l.78.07-.57-.07c25.33-.28,50.65-1.61,75.92-3.53,15.67-1.18,31.31-2.59,46.93-4.12a6.57,6.57,0,0,0,5.52-4.24c4.35-11.61,8.14-23.72,12-35.88l.55.18c19.69,9.43,32.49,13.31,48.83,20.07a352.76,352.76,0,0,1-23.9,41.37q-2.27,3.36-4.59,6.66a15.23,15.23,0,0,1-11.72,6.41c-23.15,1.08-55.84.92-84.71.42-29.24-.5-54.56-1.36-62.08-1.63-1.51-.05-3,.32-4.5.42-19.73,1.21-34.53,2.85-52,4.9-4.44.52-7.28.87-11.33-.69a1.52,1.52,0,0,1,.1-2.86,54.93,54.93,0,0,1,11.84-2.81c2.5.15,5,.21,7.63.17a32.84,32.84,0,0,0-7.63-.17c-4.85-.24-9.58-.72-14.54-1.06-2.6-.18-2.64-1.71-1.31-3.21,1-1.12,5.27-1.43,6.73-1.69C1071.4,444.42,1077.72,443.56,1082.4,443.22Z"/><path class="cls-18" d="M1250.17,258.37c5.73-3.5,7.38-3.73,10.59-9.79a1,1,0,0,0-1.09-1.47c-4.07.78-7.52,3-12.43,6.56,2.31-1.78,11.26-9.14,12.34-11.78a1.23,1.23,0,0,0-1.57-1.64c-3.12,1.24-11.47,6.69-14.15,8.72,6.12-5.12,11.32-6.23,14.69-11.36a1.46,1.46,0,0,0-1.31-2.25c-4.76.28-9.33,2.56-13.64,4.79L1227,248.74l0-.1a39.7,39.7,0,0,0,2.39-13.21,1.76,1.76,0,0,0-1.09-1.7c-1-.36-1.69.5-2.17,1.27a49.25,49.25,0,0,0-3.21,6.26,70.51,70.51,0,0,1-1-11.8c-.17-6.51-.17-11,0-17.53,8.66,6,27.24,2.88,33.78-.92l1,.46a25.49,25.49,0,0,0,9.94,18.93c1.37-3.05,1.46-8.4,4.92-9.81a5.37,5.37,0,0,1,6.68,2.8,5.66,5.66,0,0,1,.32,1c.55,2.52-.65,5.26-2,7.57s-3,4.53-5.37,5.27l.11.32c-.17,11.56-.06,26.91.24,39.79,0,2.25.11,4.42.17,6.48a2.43,2.43,0,0,1-1.16,2.13c-5,3.11-11.75,5.26-17.42,4.57-4.68-.57-11.36-1.6-14.69-5.11-2.35-2.48-1.48-7.92-1.18-11.43,9.76-5.32,20.62-9.93,23.37-19.6a.54.54,0,0,0-.75-.65c-2.92,1.45-6.77,3-9.55,4.75Z"/><path class="cls-2" d="M1209.35,241c-2.53.38-5.2.4-7.48,1.57s-4,4.07-2.75,6.33c1,1.87,3.57,2.61,4.29,4.6.61,1.67-.33,3.46-1,5.11a16.76,16.76,0,0,0-1.19,5.55,2.06,2.06,0,0,0,.52,1.73c.75.57,1.78,0,2.65-.41a5,5,0,0,1,6.1,2.05c.49.86.84,2,1.79,2.26a2.78,2.78,0,0,0,2.23-.73,50.37,50.37,0,0,0,10.19-9c5-6.07,11.66-10.1,16-17,1-1.52,1.73-3.74.37-4.92-1.11-1-2.79-.44-4.22-.14-5,1-7.58-6.26-13.89-3.5C1218.07,236.63,1215.1,240.1,1209.35,241Z"/><path class="cls-18" d="M1250.26,258.52c2.78-1.71,6.63-3.3,9.55-4.75a.54.54,0,0,1,.75.65c-2.75,9.67-13.61,14.28-23.37,19.6-5.74,3.13-11.11,6.51-14.21,11.3l-.35.54a45.45,45.45,0,0,0-4.64,9.63c-4.78,13.93-9.51,27.88-13.83,41.95-2.41,7.86-4.69,15.75-6.77,23.71-3.46,13.25-6.42,26.77-12.59,39a48.68,48.68,0,0,1-8.67,12.54c-.76.76-1.56,1.49-2.4,2.18-4.79,3.91-11,6.35-17.15,5.66-7.56-.84-14.1-6.39-17.37-13.27s-3.57-14.86-2.2-22.34c2.85-15.61,12.41-29,21.72-41.89l43.15-59.55,4.84-6.78c4.94-8.41,8.89-17.86,12.65-26.87,1.18-2.84,2.25-5.73,3.48-8.55h0a49.25,49.25,0,0,1,3.21-6.26c.48-.77,1.17-1.63,2.17-1.27a1.76,1.76,0,0,1,1.09,1.7,39.7,39.7,0,0,1-2.39,13.21l0,.1,16.62-8.59c4.31-2.23,8.88-4.51,13.64-4.79a1.46,1.46,0,0,1,1.31,2.25c-3.37,5.13-8.57,6.24-14.69,11.36,2.68-2,11-7.48,14.15-8.72a1.23,1.23,0,0,1,1.57,1.64c-1.08,2.64-10,10-12.34,11.78,4.91-3.54,8.36-5.78,12.43-6.56a1,1,0,0,1,1.09,1.47c-3.21,6.06-4.86,6.29-10.59,9.79Z"/><path class="cls-19" d="M1341.69,894.94c-1.32.36-2.64.71-4,1a283.45,283.45,0,0,1-58.3,8.22q-6.44.22-12.73.15h0"/><path class="cls-19" d="M1226.16,903.57q-1.59-113.54,3.19-227"/><path class="cls-19" d="M1151.71,903.12c1.76.13,3.51.24,5.27.35a565.09,565.09,0,0,0,58.93.62c3.42-.13,6.84-.31,10.25-.52"/><path class="cls-19" d="M1271.47,277.38c32-.88,69,5.68,75.34,43.41,1.85,10.93-.56,22.08-3,32.91-6.08,27.5-15.17,55-21.25,82.5l.19.64"/><path class="cls-19" d="M1271,378.77c19.69,9.43,32.49,13.31,48.83,20.07"/><path class="cls-19" d="M1098.28,427.52c-4.08-.08-8.11-3.58-11.24-6.18a2.32,2.32,0,0,1-.87-1.15c-.34-1.55,2.06-2,3.6-1.64,13.49,2.94,27.12,6.24,40.83,7.88l-.77-.07c41.09-.43,82.15-3.65,123.05-7.64a6.6,6.6,0,0,0,5.52-4.25c13.17-35.12,21.11-74.75,41.6-106.53"/><path class="cls-19" d="M1084.51,451.2c-7.17-.95-12.53.38-19.46,2.64a1.52,1.52,0,0,0-.1,2.86c4,1.57,6.88,1.21,11.33.69,17.47-2,32.26-3.69,52-4.9,1.52-.09,3-.47,4.51-.41,15,.53,100.2,3.38,146.79,1.2a15.23,15.23,0,0,0,11.72-6.41,352.4,352.4,0,0,0,47-93.5"/><path class="cls-19" d="M1084.51,451.2c-7.63.13-14.64-.71-22.16-1.23-2.61-.18-2.65-1.71-1.31-3.21,1-1.12,5.26-1.42,6.73-1.69a140.1,140.1,0,0,1,17.54-2"/><path class="cls-19" d="M1085,443c-6.51.74-20.19-.18-26.27-2.61a2,2,0,0,1-.11-3.6c6-2.51,14.09-1.83,27.91-1.83"/><path class="cls-19" d="M1093.1,425.56c-9.29-1.57-20.82-.72-30.16.56a2.07,2.07,0,0,0-.79,3.8c2.87,1.72,8.47,2.46,11.86,2.83,5,.54,1,.54,12.55,2.23"/><path class="cls-19" d="M1226.32,249.09l17.28-8.94c4.3-2.23,8.88-4.51,13.64-4.79a1.45,1.45,0,0,1,1.3,2.25c-3.37,5.13-8.56,6.24-14.69,11.36"/><path class="cls-19" d="M1243.85,249c2.68-2,11-7.48,14.15-8.72a1.24,1.24,0,0,1,1.58,1.64c-1.09,2.64-10,10-12.35,11.78"/><path class="cls-19" d="M1247.23,253.67c4.92-3.54,8.37-5.78,12.43-6.55a1,1,0,0,1,1.09,1.46c-3.28,6.21-4.93,6.3-11,10"/><path class="cls-19" d="M1226.93,248.65a40,40,0,0,0,2.39-13.22,1.77,1.77,0,0,0-1.1-1.7c-1-.35-1.69.5-2.17,1.27-2.87,4.61-4.6,9.82-6.69,14.83-3.75,9-7.71,18.45-12.65,26.86l-4.83,6.78L1158.73,343c-9.31,12.85-18.88,26.28-21.73,41.89-1.36,7.49-1,15.47,2.21,22.35s9.8,12.42,17.37,13.26c6.14.69,12.36-1.75,17.15-5.66s8.28-9.2,11.07-14.71c6.16-12.22,9.13-25.75,12.59-39,5.81-22.2,13.15-44,20.6-65.67a45.45,45.45,0,0,1,4.64-9.63l.35-.54c8.39-12.95,33.21-15.55,37.58-30.9a.54.54,0,0,0-.76-.64c-2.91,1.45-6.77,3-9.54,4.74"/><path class="cls-19" d="M1237.19,274c-.3,3.51-1.17,9,1.18,11.43,3.33,3.51,10,4.54,14.69,5.11,5.67.7,12.41-1.45,17.42-4.57a2.42,2.42,0,0,0,1.16-2.13c-.42-13.9-.62-32.69-.42-46.27"/><path class="cls-19" d="M1221.81,211.88c-.16,6.52-.16,11.05,0,17.58,0,2,.11,2.94.26,4.9"/><path class="cls-19" d="M1221.78,211.92c8.65,6,27.26,2.9,33.81-.91l1,.46a25.47,25.47,0,0,0,9.94,18.93c1.37-3,1.46-8.4,4.92-9.81a5.38,5.38,0,0,1,6.68,2.8c1.2,2.79-.14,6-1.66,8.61-1.38,2.38-3.19,4.86-5.89,5.4"/><path class="cls-19" d="M1279,224.7c2-1,2.53-2.83,3.6-4.82"/><path class="cls-19" d="M1204.89,394.51a173.8,173.8,0,0,1-28.76,18.17l-.4.2"/><path class="cls-19" d="M1204.16,337.44q.36,28.53.73,57.07c0,1.17,0,2.35,0,3.52.11,8.27.22,16.58,1,24.8"/><path class="cls-19" d="M1295.88,440.21a108.14,108.14,0,0,0,26.82-4.42"/><path class="cls-19" d="M1216.29,970.27c0-17.31-.5-30.57-.66-42.92-.11-7.86-.09-15.34.28-23.26"/><path class="cls-19" d="M1282.38,928.5q-1.35-12.16-3-24.31"/><path class="cls-19" d="M1337.71,896c2.71,20,7.59,45.91,10.87,65.9"/><path class="cls-19" d="M1348.58,961.87c-38.51,6-84.49,7.47-122.43,7.62A2,2,0,0,1,1225,966c17.28-12.87,38.94-26.43,57.41-37.46"/><path class="cls-19" d="M1216.29,970.27c-38.71,4-90.55,4.87-130.61,2.32a1.79,1.79,0,0,1-.79-3.34c19.64-11.39,48.43-30.61,70.92-41.27l.09-.88,0-.33,1-23.3"/><path class="cls-19" d="M1340.8,926c-5.26,2.84-14.69,1.18-20.56,0-12.66-2.51-25.85-1-38.42,2.82h0"/><path class="cls-19" d="M1155.9,927.1q1.62.2,3.21.45c7.91,1.27,15.71,5.5,23.71,5.75,11,.34,21.82-5.07,32.81-5.95"/><path class="cls-19" d="M1269.83,227.82a6.11,6.11,0,0,1,2.41-3.4,1.25,1.25,0,0,1,1.65.15,2.81,2.81,0,0,1,.06,3.62"/><path class="cls-19" d="M1245.1,222a7.14,7.14,0,0,1,8.16,1.22"/><path class="cls-19" d="M1222.51,221.66a7.14,7.14,0,0,1,7.26-.49"/><path class="cls-20" d="M1244.35,229.35a6.49,6.49,0,0,1,6.63,0"/><path class="cls-20" d="M1224.46,228.65a6.49,6.49,0,0,1,6.63,0"/><path class="cls-19" d="M1236.14,230.07a27.24,27.24,0,0,1-3.19,6.47"/><path class="cls-21" d="M1224.24,967c41.33-.34,84.34-2.46,124.34-12.76"/><path class="cls-21" d="M1084,970.43c16.1-.25,32.21-.64,48.32-.61,28.17.07,56.8.94,83.92-6.24"/><path class="cls-21" d="M1315.39,448.87a381.34,381.34,0,0,1-16.3,169c-2.8,8.39-5.91,16.77-7.07,25.54-1.5,11.26.27,22.66,2,33.87L1328.83,898"/><line class="cls-22" x1="1232.95" y1="307.94" x2="1242.55" y2="323.92"/><line class="cls-22" x1="1310.89" y1="345.6" x2="1328.83" y2="335.7"/><line class="cls-22" x1="1228.38" y1="402.96" x2="1243.9" y2="389.53"/><line class="cls-19" x1="1134.66" y1="233.45" x2="1175.4" y2="242.96"/><line class="cls-19" x1="1119.56" y1="271.72" x2="1164.48" y2="261.51"/><line class="cls-19" x1="1150.23" y1="297.02" x2="1169.17" y2="282.02"/></g><g id="woman"><path class="cls-17" d="M653.59,269.13c-2.67,2.81-7,6.7-10.89,6.23l-.6.25a7.46,7.46,0,0,0-8.55-4.33,8.36,8.36,0,0,0-6,7.75,9.53,9.53,0,0,0,5.26,8.49,8.85,8.85,0,0,0,3.91,1c0,9.16-1.15,21.42-2.28,32.25-11.23,2.15-23.15,1.11-34.14,4.46a49.52,49.52,0,0,0-7.27,2.88,16,16,0,0,1-5.62-3.83,16.33,16.33,0,0,1-3.74-15.14c3.07-11.21,17.35-16.82,19.65-28.21.87-4.32-.18-8.76-.53-13.15-1.51-18.86,11.61-37.88,29.77-43.17s39.44,3.7,48.3,20.42c6.43,12.14,6.46,26.66,4.53,40.26-.36,2.6-.71,5.54.94,7.58,1.93,2.38,5.51,2.28,8.39,3.32,5.14,1.87,8,7.65,8.14,13.11a33.24,33.24,0,0,1-2.54,12.29l-1.1-.38c-13-4.33-27.44-5.78-40.6-2.5-.31-4.15-.62-8.31-.82-11.85.83.18,1.68.32,2.52.43,3,.38,6.23.29,8.88-1.2,4.92-2.76,6.23-9.17,6.61-14.8a118.28,118.28,0,0,0-1.09-26.05,18,18,0,0,0-1.74-6.05C666.2,247,658.58,263.85,653.59,269.13Z"/><path class="cls-16" d="M877.56,394.69s0,0,0,.05c-1.32,8.54-3,17-5.17,25.41-.34,1.38-.7,2.76-1.07,4.14q-1.29,4.9-2.8,9.76C811.76,425.41,748.12,413.3,699.72,386c2,8.08-2,17-8.77,21.89-3,2.19-6.69,3.92-8.33,7.27a15.86,15.86,0,0,0-1.13,6.47c-.33,9.54.28,19.09,0,28.63a133.87,133.87,0,0,1-83.94-1.06l-.32-.11c2.1-22.63,2.25-48.24-1.27-70.92-7.48,6.76-15.84,12.55-24.14,18.29l-27.65,19.11a1.54,1.54,0,0,0-.1,2.44c12.23,10.2,24.82,23,35.79,34.69l-.19.3-15.5,24.43-.4.64c-28.37-11.82-56.43-31.58-74.6-56.35a10.59,10.59,0,0,1-.76-11.33c10.56-19.25,34.88-34.22,50.66-45.42L575.61,339c5.58-4,11.26-8,17.39-10.93a49.52,49.52,0,0,1,7.27-2.88c11-3.35,22.91-2.31,34.14-4.46-.42,4.09-.84,8-1.19,11.4,2.81,7.52,17,10.22,26.32,1.74-.12-4-.54-9.58-.95-15.2,13.16-3.28,27.6-1.83,40.6,2.5l1.1.38c16.81,5.81,31.79,15.91,46.53,25.89,19.16,13,37.09,27.13,60,32.53,25.43,6,45,10.14,70.72,14.72Z"/><path class="cls-13" d="M769.71,966.43a2.06,2.06,0,0,1-1.29,3.66c-38,.29-81.57-1.29-118.19-4.56,1.63-12.84,3.87-27.81,6.46-43.14,15.94,1.59,31.87,3,46.8-1.11C723.54,933.22,752.05,952,769.71,966.43Z"/><path class="cls-13" d="M555.17,920c19,12,45.82,27.5,62.23,42.32a2.81,2.81,0,0,1-2,4.89c-36.36-1.66-81.78-5.92-117.9-10.27,2.34-10.9,4.16-23.14,6.64-38,17.28,2,34.74,3,51.44-.52C555.42,919,555.29,919.51,555.17,920Z"/><path class="cls-14" d="M681.49,450.22a1.34,1.34,0,0,1,0,.2h0c24.15,47,41.8,98.9,50.11,151.11l2,10q7,43,12.65,86.22a34.73,34.73,0,0,1,.17,7.28l-1.29,15.81q-8.88,92.91-17.78,185.84-10.62,0-21.23-.63a422.49,422.49,0,0,1-45.73-5q-6.4-1-12.78-2.3Q662,798.24,668.3,696.81c-5.15-40.17-13.11-98.95-23.82-139.89a1.11,1.11,0,0,0-2.18.21c-7.44,99.08-7.64,167.42-61.39,335.22l-17.11.95-1.32.07c-17.9,1-36.06,1.88-53.78-.09-4-.44-8-1-11.9-1.8,13.73-56.66,26.63-113.33,40.85-170,9.8-39,19.64-78.31,22.56-118.45l.74-10.35c4-35,8.32-70.77,19.26-104l.48-.55c6,5.21,11.92,11.28,17,16.51,8.81,9.06,16.93,19.76,29.33,23.34a1.27,1.27,0,0,0,1.48-1.82c-2-3.78-7.45-8.38-10.19-11.7l.11-.14A85.1,85.1,0,0,0,634,524.69,1.39,1.39,0,0,0,636,523a34.86,34.86,0,0,0-3-6.59q3.27,2.4,6.71,4.54c.84.53,2.24.87,2.58-.06a1.72,1.72,0,0,0-.14-1.15,52.82,52.82,0,0,0-5.55-10.71l.17-.22q4.62,3.56,9.53,6.69a1.26,1.26,0,0,0,1.74-.4,1.24,1.24,0,0,0,.07-1.21c-6-12.65-18.71-19-26.74-29.2a.62.62,0,0,1,.45-1c1.61-.05,6.3,1.47,7.46.38a2.13,2.13,0,0,0,.77-1.29,2.55,2.55,0,0,0-1.13-1.92c-8.85-7.71-20.61-8.94-31-12.84a27.5,27.5,0,0,1-7.63-4.74c2.23-4.76,4.64-9.43,7.27-14l0-.14A133.87,133.87,0,0,0,681.49,450.22Z"/><path class="cls-18" d="M703.05,921l.44.26c-14.93,4.06-30.86,2.7-46.8,1.11,1.2-7.1,2.47-14.27,3.78-21.35a422.49,422.49,0,0,0,45.73,5Z"/><path class="cls-18" d="M562.48,893.37q-3.91,12.4-6.93,25.07c-16.7,3.51-34.16,2.56-51.44.52,1.3-7.78,2.77-16.27,4.59-25.68C526.42,895.25,544.58,894.36,562.48,893.37Z"/><path class="cls-18" d="M970.33,399.52c-.3,1.48-2.22,1.89-3.74,1.82-6.42-.29-12.15-3.66-18.47-4.29-5.15-.51-9.89,1.78-14.84,3.21a15.76,15.76,0,0,0-7.45,4.16,1.1,1.1,0,0,0,.88,1.8l7.64-.22a2.19,2.19,0,0,1,2.27,1.71c.23,1.24-.81,1.84-1.73,2.27a121.9,121.9,0,0,1-27.64,8.53c-11.58,2.12-23.22.13-34.87,1.64,2.12-8.38,3.85-16.87,5.17-25.41,0,0,0,0,0-.05,11.17-.26,22.07.46,32.92-2.27,8.92-2.24,17.3-6.64,26.46-8,9.56-1.39,18,2,26.4,6.44C966.82,392.71,970.61,395.6,970.33,399.52Z"/><path class="cls-18" d="M642.13,519.77a1.72,1.72,0,0,1,.14,1.15c-.34.93-1.74.59-2.58.06q-3.44-2.15-6.71-4.54a34.86,34.86,0,0,1,3,6.59,1.39,1.39,0,0,1-1.94,1.66,85.1,85.1,0,0,1-15.59-10.35l-.11.14c2.74,3.32,8.15,7.92,10.19,11.7A1.27,1.27,0,0,1,627,528c-12.4-3.58-20.52-14.28-29.33-23.34-5.09-5.23-11-11.3-17-16.51-5.5-4.73-11.15-8.74-16.52-10.76L579.67,453l0,0c3.07,3.1,6.64,7.11,10.52,10.33a27.5,27.5,0,0,0,7.63,4.74c10.43,3.9,22.19,5.13,31,12.84a2.55,2.55,0,0,1,1.13,1.92,2.13,2.13,0,0,1-.77,1.29c-1.16,1.09-5.85-.43-7.46-.38a.62.62,0,0,0-.45,1c8,10.23,20.73,16.55,26.74,29.2a1.24,1.24,0,0,1-.07,1.21,1.26,1.26,0,0,1-1.74.4q-4.9-3.13-9.53-6.69l-.17.22A52.82,52.82,0,0,1,642.13,519.77Z"/><path class="cls-18" d="M657.77,306.82c.2,3.54.51,7.7.82,11.85.41,5.62.83,11.22.95,15.2-9.29,8.48-23.51,5.78-26.32-1.74.35-3.43.77-7.31,1.19-11.4,1.13-10.83,2.28-23.09,2.28-32.25a8.85,8.85,0,0,1-3.91-1,9.53,9.53,0,0,1-5.26-8.49,8.36,8.36,0,0,1,6-7.75,7.46,7.46,0,0,1,8.55,4.33l.6-.25c3.85.47,8.22-3.42,10.89-6.23,5-5.28,12.61-22.17,19.36-10a18,18,0,0,1,1.74,6.05,118.28,118.28,0,0,1,1.09,26.05c-.38,5.63-1.69,12-6.61,14.8-2.65,1.49-5.86,1.58-8.88,1.2C659.45,307.14,658.6,307,657.77,306.82Z"/><path class="cls-16" d="M660.36,306.93c3.23.43,6.56.38,8.81-.88,4.92-2.76,6.23-9.17,6.61-14.8.17-2.41.25-4.82.27-7.23a31.56,31.56,0,0,1-16.72-.81c-3.92-1.28-10.88-3.85-13.41-7.2-2.43,3.74-5.11,7.41-7.34,11.27-1.75,3.05-1.07,5.42,1,8.37a26.61,26.61,0,0,0,13.86,9.76A44,44,0,0,0,660.36,306.93Z"/><path class="cls-19" d="M696.68,363.15c-3,2.74-3,7.54-1.69,11.39s3.64,7.31,4.69,11.24c2.15,8.13-1.93,17.12-8.73,22.07-3,2.19-6.69,3.92-8.33,7.27a15.86,15.86,0,0,0-1.13,6.47c-.34,9.83.32,19.67,0,29.5"/><path class="cls-19" d="M595.44,374.93c4.06,23.48,4,50.5,1.78,74.22"/><path class="cls-19" d="M699.72,386c48.4,27.34,112,39.45,168.79,48.09"/><path class="cls-19" d="M597.5,449.3c-2.63,4.59-5,9.26-7.27,14"/><path class="cls-19" d="M871.31,420.29c12-1.78,24,.41,35.94-1.78A121.9,121.9,0,0,0,934.89,410c.92-.43,2-1,1.73-2.27a2.19,2.19,0,0,0-2.27-1.71l-7.64.22a1.1,1.1,0,0,1-.88-1.8,15.76,15.76,0,0,1,7.45-4.16c5-1.43,9.69-3.72,14.84-3.21,6.32.63,12,4,18.47,4.29,1.52.07,3.44-.34,3.74-1.82.28-3.92-3.51-6.81-7-8.64-8.42-4.44-16.84-7.83-26.4-6.44-9.16,1.34-17.54,5.74-26.46,8-10.85,2.73-21.75,2-32.92,2.27h-.25l-.74,0"/><path class="cls-19" d="M877.56,394.69s0,0,0,.05a278,278,0,0,1-6.24,29.55q-1.29,4.9-2.8,9.76"/><path class="cls-19" d="M658.59,318.67c13.16-3.28,27.6-1.83,40.6,2.5,17.26,5.75,32.57,16.07,47.63,26.27,19.16,13,37.09,27.13,60,32.53,25.43,6,45,10.14,70.73,14.72"/><path class="cls-19" d="M969.65,398.68a66.64,66.64,0,0,0-21.23-9.41"/><path class="cls-19" d="M563.81,478.05c-28.38-11.82-56.46-31.59-74.64-56.37a10.59,10.59,0,0,1-.76-11.33c10.56-19.25,34.88-34.22,50.66-45.42L575.61,339c7.72-5.48,15.61-11.05,24.66-13.81,11-3.35,22.91-2.31,34.14-4.46"/><path class="cls-19" d="M580.48,453.32c-11.12-11.81-24-25-36.41-35.35a1.54,1.54,0,0,1,.1-2.44l27.65-19.11c8.3-5.74,16.66-11.53,24.14-18.29"/><path class="cls-19" d="M564.17,477.39c11.28,4.24,23.81,17.29,33.53,27.27,8.81,9.06,16.93,19.76,29.33,23.34a1.27,1.27,0,0,0,1.48-1.82c-2-3.78-7.45-8.38-10.19-11.7"/><path class="cls-19" d="M597.23,449.05a133.88,133.88,0,0,0,84.26,1.17"/><path class="cls-19" d="M621.5,495.06a131.56,131.56,0,0,0,24.78,20.47,1.26,1.26,0,0,0,1.74-.4,1.24,1.24,0,0,0,.07-1.21c-6-12.65-18.71-19-26.74-29.2a.62.62,0,0,1,.45-1c1.61-.05,6.3,1.47,7.46.38a2.13,2.13,0,0,0,.77-1.29,2.55,2.55,0,0,0-1.13-1.92c-8.85-7.71-20.61-8.94-31-12.84-6.81-2.55-13.14-10-18.15-15.07"/><path class="cls-19" d="M615.65,500.36a104,104,0,0,0,24,20.62c.84.53,2.24.87,2.58-.06a1.72,1.72,0,0,0-.14-1.15,52.82,52.82,0,0,0-5.55-10.71"/><path class="cls-19" d="M609.44,506.68c7.67,6.71,15.48,13.51,24.58,18A1.39,1.39,0,0,0,636,523a34.83,34.83,0,0,0-3.18-6.94"/><path class="cls-19" d="M563.77,478l.4-.64,15.69-24.73"/><path class="cls-19" d="M636.69,288.48c0,12.62-2.18,31.1-3.47,43.65"/><path class="cls-19" d="M659.54,333.87c-.12-4-.54-9.58-.95-15.2-.31-4.15-.62-8.31-.82-11.85"/><path class="cls-19" d="M633.22,332.13c2.81,7.52,17,10.22,26.32,1.74"/><path class="cls-19" d="M642.12,274.66c-1.21-3.3-5.17-4.23-8.57-3.38a8.36,8.36,0,0,0-6,7.75,9.53,9.53,0,0,0,5.26,8.49,8.85,8.85,0,0,0,3.91,1"/><path class="cls-19" d="M642.7,275.36c3.85.47,8.22-3.42,10.89-6.23,5-5.28,12.61-22.17,19.36-10a18,18,0,0,1,1.74,6.05,118.28,118.28,0,0,1,1.09,26.05c-.38,5.63-1.69,12-6.61,14.8-2.65,1.49-5.86,1.58-8.88,1.2a32,32,0,0,1-14.57-5.69"/><path class="cls-19" d="M503.08,925.18c1.55-9.42,3.3-19.93,5.62-31.9"/><path class="cls-19" d="M562.48,893.37q-4.17,13.18-7.31,26.67"/><path class="cls-19" d="M655.47,929.76c1.54-9.46,3.23-19.18,5-28.72"/><path class="cls-19" d="M706.2,906l-3.15,15"/><path class="cls-19" d="M656.69,922.39c15.94,1.59,31.87,3,46.8-1.11"/><path class="cls-19" d="M504.11,919c17.28,2,34.74,3,51.44-.52"/><path class="cls-19" d="M637.42,275.75a3.86,3.86,0,0,0-5.58,5.11"/><path class="cls-19" d="M646.78,276.74a38.29,38.29,0,0,0,28.72,7.75"/><path class="cls-19" d="M644.85,278.22l-6.11,9"/><path d="M658,277.51a1.5,1.5,0,0,0,0-3,1.5,1.5,0,0,0,0,3Z"/><path d="M672.58,278.45a1.5,1.5,0,0,0,0-3,1.5,1.5,0,0,0,0,3Z"/><path class="cls-19" d="M668.69,275.24a11.87,11.87,0,0,0,2.11,9"/><path class="cls-19" d="M653.68,271.43a5.54,5.54,0,0,1,5.39-.28"/><path class="cls-19" d="M670.43,271.51a4.7,4.7,0,0,1,4,.15"/><path class="cls-21" d="M518.24,893.72c25.27-123.15,47-170.16,55.89-258.35,4.21-41.6,4.91-94.51,20.83-133.17"/><path class="cls-21" d="M499.08,948.9q58.05,7.86,116.55,11.9"/><path class="cls-21" d="M651.28,957.55c48.44,4,78.49,6.16,112.27,4"/><circle class="cls-23" cx="645.76" cy="384.54" r="6.4"/><circle class="cls-23" cx="537.11" cy="443.58" r="6.4"/><circle class="cls-23" cx="784.12" cy="399.39" r="6.4"/><circle class="cls-23" cx="697.22" cy="335.62" r="6.4"/><circle class="cls-23" cx="556.6" cy="378.13" r="6.4"/><path class="cls-2" d="M997.81,439.07c-27.81,10-47.17,8.57-67.75,1.62,2.73,13.84,20.66,21.55,32.52,21.67s32.23-8.26,36-22.53Z"/><path class="cls-19" d="M931.43,441.46c0-13.19,9.46-31.48,32-40.82"/><path class="cls-19" d="M969.26,401.65c13.83,7,27.44,21.74,28.3,37.24"/><path class="cls-19" d="M964.86,400.48c-17.42,12.16-27.12,24.79-27.12,41.35"/><path class="cls-19" d="M992.72,440.51c-1-15.11-13.62-30.52-26.44-38.58"/><path class="cls-2" d="M1569.65,786.91l-65.59,136.17c0,11.9,9.4,21.55,21,21.55h140c11.59,0,21-9.65,21-21.55l-66.38-136.17Z"/><path class="cls-2" d="M1665.06,945.89h-140c-12.26,0-22.24-10.23-22.24-22.81v-.29l.13-.27,65.93-136.88h51.57l66.84,137.15v.29C1687.29,935.66,1677.32,945.89,1665.06,945.89Z"/><path class="cls-24" d="M1559.8,857.74a7.33,7.33,0,0,1-9.86,3.66h0a7.7,7.7,0,0,1-3.56-10.12l17.85-39a7.32,7.32,0,0,1,9.85-3.65h0a7.68,7.68,0,0,1,3.56,10.11Z"/><path class="cls-24" d="M1537.65,904c-1,2.06-4.72,2.28-8.42.5h0c-3.7-1.79-5.94-4.9-5-7l9.67-21.14c.94-2.06,4.71-2.29,8.41-.5h0c3.71,1.78,6,4.9,5,7Z"/><rect class="cls-2" x="1568.88" y="712.3" width="51.7" height="73.34"/><path class="cls-25" d="M1620.59,720.81a.47.47,0,0,1-.47.47h-11.48a.47.47,0,0,1-.46-.47h0a.47.47,0,0,1,.46-.48h11.48a.47.47,0,0,1,.47.48Z"/><path class="cls-25" d="M1620.59,738.16a.47.47,0,0,1-.47.48h-11.48a.47.47,0,0,1-.46-.48h0a.47.47,0,0,1,.46-.47h11.48a.47.47,0,0,1,.47.47Z"/><path class="cls-25" d="M1620.59,724.66a.33.33,0,0,1-.33.33h-8a.33.33,0,0,1-.33-.33h0a.33.33,0,0,1,.33-.33h8a.33.33,0,0,1,.33.33Z"/><path class="cls-25" d="M1620.59,729.19a.33.33,0,0,1-.33.33h-8a.33.33,0,0,1-.33-.33h0a.33.33,0,0,1,.33-.33h8a.33.33,0,0,1,.33.33Z"/><path class="cls-25" d="M1620.59,733.52a.33.33,0,0,1-.33.33h-8a.33.33,0,0,1-.33-.33h0a.33.33,0,0,1,.33-.33h8a.33.33,0,0,1,.33.33Z"/><path class="cls-25" d="M1620.59,756.51a.48.48,0,0,1-.47.48h-11.48a.48.48,0,0,1-.46-.48h0a.47.47,0,0,1,.46-.47h11.48a.47.47,0,0,1,.47.47Z"/><path class="cls-25" d="M1620.59,743a.33.33,0,0,1-.33.33h-8a.33.33,0,0,1-.33-.33h0a.33.33,0,0,1,.33-.33h8a.33.33,0,0,1,.33.33Z"/><path class="cls-25" d="M1620.59,747.54a.32.32,0,0,1-.33.32h-8a.32.32,0,0,1-.33-.32h0a.34.34,0,0,1,.33-.34h8a.34.34,0,0,1,.33.34Z"/><path class="cls-25" d="M1620.59,751.86a.34.34,0,0,1-.33.34h-8a.34.34,0,0,1-.33-.34h0a.32.32,0,0,1,.33-.32h8a.32.32,0,0,1,.33.32Z"/><path class="cls-25" d="M1620.59,775a.47.47,0,0,1-.47.47h-11.48a.47.47,0,0,1-.46-.47h0a.47.47,0,0,1,.46-.48h11.48a.47.47,0,0,1,.47.48Z"/><path class="cls-25" d="M1620.59,761.46a.33.33,0,0,1-.33.33h-8a.33.33,0,0,1-.33-.33h0a.33.33,0,0,1,.33-.33h8a.33.33,0,0,1,.33.33Z"/><path class="cls-25" d="M1620.59,766a.33.33,0,0,1-.33.33h-8a.33.33,0,0,1-.33-.33h0a.33.33,0,0,1,.33-.33h8a.33.33,0,0,1,.33.33Z"/><path class="cls-25" d="M1620.59,770.32a.33.33,0,0,1-.33.33h-8a.33.33,0,0,1-.33-.33h0a.33.33,0,0,1,.33-.33h8a.33.33,0,0,1,.33.33Z"/><path class="cls-2" d="M1625.28,708.68a4.39,4.39,0,0,1-4.33,4.44h-52.43a4.39,4.39,0,0,1-4.33-4.44h0a4.38,4.38,0,0,1,4.33-4.44H1621a4.38,4.38,0,0,1,4.33,4.44Z"/><path class="cls-26" d="M1617.05,647.31a24.21,24.21,0,1,1-24.21-24.21A24.21,24.21,0,0,1,1617.05,647.31Z"/><path class="cls-26" d="M1662.43,578a14,14,0,1,1-14-14A14,14,0,0,1,1662.43,578Z"/><path class="cls-26" d="M1581.53,556.4a14,14,0,1,1-14-14A14,14,0,0,1,1581.53,556.4Z"/><path class="cls-16" d="M1608.21,693.15a9.3,9.3,0,1,1-9.3-9.3A9.3,9.3,0,0,1,1608.21,693.15Z"/></g></svg>