<svg xmlns="http://www.w3.org/2000/svg" viewBox="0 0 1920 1080"><defs><style>.cls-1{fill:#f7f8fa;}.cls-10,.cls-2,.cls-4{fill:#fff;}.cls-10,.cls-2,.cls-23,.cls-5,.cls-6,.cls-7{stroke:#31434d;}.cls-15,.cls-16,.cls-17,.cls-2,.cls-23,.cls-24,.cls-5,.cls-6,.cls-7{stroke-linecap:round;}.cls-10,.cls-15,.cls-16,.cls-17,.cls-2,.cls-23,.cls-24,.cls-5,.cls-6,.cls-7{stroke-miterlimit:10;}.cls-3,.cls-5{fill:#53bcf7;}.cls-13,.cls-6{fill:#dde7fe;}.cls-11,.cls-7{fill:#276ce4;}.cls-8{fill:#5e8194;}.cls-9{fill:#f6a001;}.cls-12{fill:#31434d;}.cls-14{fill:#f6b731;}.cls-15,.cls-16,.cls-17,.cls-23,.cls-24{fill:none;}.cls-15{stroke:#f6b731;stroke-width:4px;}.cls-16,.cls-17{stroke:#fff;}.cls-17{stroke-width:2px;}.cls-18{fill:#0f379a;}.cls-19{fill:#052251;}.cls-20{fill:#0c2c7a;}.cls-21{fill:#09102d;}.cls-22{fill:#ffe1cf;}.cls-24{stroke:#53bcf7;}</style></defs><title>2019-nCov14</title><g id="background"><ellipse class="cls-1" cx="991.9" cy="546.34" rx="535.84" ry="498.56"/><rect class="cls-2" x="293.85" y="913.08" width="174.74" height="60.96"/><rect class="cls-2" x="391.49" y="845.25" width="146.92" height="52.62"/><rect class="cls-2" x="226.78" y="845.25" width="146.92" height="52.62"/><rect class="cls-2" x="1581.38" y="381.73" width="131.52" height="45.88"/><rect class="cls-2" x="1654.87" y="330.67" width="110.58" height="39.6"/><rect class="cls-2" x="1530.9" y="330.67" width="110.58" height="39.6"/><rect class="cls-2" x="1448.94" y="889.79" width="112.87" height="36.27"/><rect class="cls-2" x="1505.38" y="833.2" width="112.87" height="36.27"/><rect class="cls-2" x="258.4" y="332.34" width="112.87" height="36.27"/><rect class="cls-2" x="314.84" y="378.67" width="112.87" height="36.27"/><rect class="cls-2" x="191.58" y="378.67" width="112.87" height="36.27"/><rect class="cls-3" x="1527.21" y="638.53" width="34.6" height="34.6"/><polyline class="cls-4" points="981.84 154.64 645.02 411.75 645.02 943.89 1316.57 943.89 1316.57 436.33 981.84 154.64"/><path class="cls-5" d="M823,477.55l.5-.15a3.31,3.31,0,0,1,4,2l44.58,120.21a3.31,3.31,0,0,1-.15,2.67l-1,2a4.64,4.64,0,0,1-7.45-1.82l-44-118.77A4.64,4.64,0,0,1,823,477.55Z"/><path class="cls-2" d="M826.23,501.33l-4.5,3.41a8.59,8.59,0,0,0-2.86,9.92L842,575.57a8.61,8.61,0,0,0,9.73,5.38l3.76-.75"/><path class="cls-6" d="M825.84,533l-4.47,4.26a10,10,0,0,0-2.45,10.79l4.14,11a10,10,0,0,0,10.61,6.41l4.3-.53"/><polyline class="cls-7" points="819.58 549.53 791.07 640.69 801.82 640.69 824.12 561.55"/><path class="cls-7" d="M747.3,641H848.85a6.66,6.66,0,0,1,6.66,6.66v4.23a0,0,0,0,1,0,0H740.64a0,0,0,0,1,0,0v-4.23A6.66,6.66,0,0,1,747.3,641Z"/><path class="cls-8" d="M1137.76,900.62c-.55-14.17-.75-28.35-.81-42.53-.07-7.09,0-14.18,0-21.27l.21-21.27c.22-14.18.5-28.37,1-42.55s1.06-28.37,1.93-42.56a.5.5,0,0,1,.53-.47.51.51,0,0,1,.47.47q1.6,21.25,2.57,42.52c.69,14.17,1.17,28.35,1.61,42.53l.54,21.26c.1,7.09.27,14.18.31,21.27.15,14.18.17,28.36-.17,42.54a4.08,4.08,0,0,1-8.15.06Z"/><path class="cls-9" d="M1135.06,499.67l4.52-25.4a10.3,10.3,0,0,1,10.78-8.47l108,6.85a10.28,10.28,0,0,1,9.39,12.49l-43.32,228.62a21.3,21.3,0,0,1-20.79,16.68l-141.87-1a5.79,5.79,0,0,1-4.43-9.52l21.26-35.17Z"/><path class="cls-3" d="M688.65,673.7l.37,3H958.26a11.4,11.4,0,0,0-10.52-15.79H700A11.4,11.4,0,0,0,688.65,673.7Z"/><path class="cls-10" d="M500.22,438.17a7.5,7.5,0,0,1-4.49-13.51L981.94,62.11l464.55,362.65a7.5,7.5,0,1,1-9.23,11.82L981.73,81l-477,355.71A7.44,7.44,0,0,1,500.22,438.17Z"/><path class="cls-10" d="M1378.19,983.49H581.7V430.67a7.5,7.5,0,0,1,15,0V968.49h766.49V430.67a7.5,7.5,0,0,1,15,0Z"/><path class="cls-8" d="M1064.27,928.15a11.31,11.31,0,0,1,1-5.6,18.64,18.64,0,0,1,3.2-4.77,37.23,37.23,0,0,1,9-6.73,88.24,88.24,0,0,1,20.6-7.7,152.8,152.8,0,0,1,21.48-3.76,207.29,207.29,0,0,1,43.42,0,152.8,152.8,0,0,1,21.48,3.76,88.07,88.07,0,0,1,20.6,7.7,37,37,0,0,1,9,6.73,18.64,18.64,0,0,1,3.2,4.77,11.09,11.09,0,0,1,.95,5.6.5.5,0,0,1-1,0c-.39-3.44-2.59-6.15-5.16-8.22a36.36,36.36,0,0,0-8.89-4.88,74.9,74.9,0,0,0-9.85-3.17c-3.36-.84-6.75-1.61-10.19-2.2a275,275,0,0,0-83.66,0c-3.44.59-6.83,1.36-10.19,2.2a74.76,74.76,0,0,0-9.84,3.17,36,36,0,0,0-8.89,4.88c-2.58,2.07-4.78,4.78-5.17,8.22a.5.5,0,0,1-1,0Z"/><path class="cls-11" d="M879.06,638.25H952.3A6.72,6.72,0,0,1,959,645v4.31a0,0,0,0,1,0,0H872.34a0,0,0,0,1,0,0V645A6.72,6.72,0,0,1,879.06,638.25Z"/><circle class="cls-12" cx="1231.23" cy="936.91" r="18.24"/><circle class="cls-13" cx="1231.23" cy="936.91" r="7.68"/><circle class="cls-12" cx="1063.3" cy="928.96" r="18.24"/><circle class="cls-13" cx="1063.3" cy="928.96" r="7.68"/><path class="cls-11" d="M1017.65,399.66V416a20.45,20.45,0,0,1-20.44,20.45H932l-25.05,19.37,8.18-19.37h-.82a14.21,14.21,0,0,1-14.21-14.21V400.59a20.18,20.18,0,0,1,20.19-20.18H998.4A19.25,19.25,0,0,1,1017.65,399.66Z"/><circle class="cls-14" cx="1331.79" cy="160.15" r="43.47"/><line class="cls-15" x1="1325.23" y1="188.49" x2="1325.76" y2="231.12"/><line class="cls-15" x1="1273.41" y1="117.97" x2="1307.79" y2="139.58"/><line class="cls-15" x1="1351.22" y1="138.24" x2="1373.8" y2="98.01"/><line class="cls-15" x1="1299.8" y1="172.5" x2="1270.83" y2="175.43"/><line class="cls-15" x1="1335.96" y1="94.36" x2="1333.42" y2="146.75"/><polyline class="cls-15" points="1379.35 129.76 1352.33 155.1 1402.39 154.25"/><line class="cls-15" x1="1310.94" y1="179.5" x2="1290.33" y2="208.84"/><line class="cls-15" x1="1336.92" y1="175.67" x2="1351.79" y2="212.23"/><line class="cls-15" x1="1347.53" y1="170.05" x2="1384.29" y2="194.91"/><path class="cls-15" d="M1279.67,146.15c12.14,2,13.49,4.21,25.63,6.16"/><path class="cls-15" d="M1305.55,113.2c3.93,10.26,8.51,13.85,12.44,24.1"/><circle class="cls-14" cx="1405.36" cy="153.83" r="11.2"/><circle class="cls-14" cx="1273.41" cy="117.97" r="11.2"/><circle class="cls-14" cx="1384.37" cy="125.84" r="11.2"/><circle class="cls-14" cx="1303.52" cy="108.25" r="11.2"/><circle class="cls-14" cx="1336.76" cy="97.97" r="11.2"/><circle class="cls-14" cx="1274.84" cy="143.12" r="11.2"/><circle class="cls-14" cx="1374.94" cy="95.31" r="11.2"/><circle class="cls-14" cx="1289.8" cy="209.67" r="11.2"/><circle class="cls-14" cx="1268" cy="175.03" r="11.2"/><circle class="cls-14" cx="1354.04" cy="217.18" r="11.2"/><circle class="cls-14" cx="1390.36" cy="198.72" r="11.2"/><circle class="cls-14" cx="1325.24" cy="231.95" r="11.2"/><circle class="cls-16" cx="1319.43" cy="151.01" r="11.47"/><circle class="cls-16" cx="1350.07" cy="152.48" r="3.73"/><circle class="cls-16" cx="1336.02" cy="176.58" r="6.53"/><circle class="cls-14" cx="273.12" cy="555.11" r="34.29"/><line class="cls-15" x1="267.94" y1="577.46" x2="268.36" y2="611.08"/><line class="cls-15" x1="227.07" y1="521.84" x2="254.19" y2="538.88"/><line class="cls-15" x1="288.44" y1="537.82" x2="306.25" y2="506.09"/><line class="cls-15" x1="247.88" y1="564.85" x2="225.03" y2="567.16"/><line class="cls-15" x1="276.4" y1="503.21" x2="274.41" y2="544.54"/><polyline class="cls-15" points="310.63 531.14 289.32 551.12 328.81 550.45"/><line class="cls-15" x1="256.67" y1="570.37" x2="240.41" y2="593.51"/><line class="cls-15" x1="277.16" y1="567.35" x2="288.89" y2="596.18"/><line class="cls-15" x1="285.53" y1="562.91" x2="314.53" y2="582.52"/><path class="cls-15" d="M232,544.07c9.58,1.54,10.65,3.31,20.23,4.85"/><path class="cls-15" d="M252.42,518.07c3.1,8.09,6.71,10.93,9.81,19"/><circle class="cls-14" cx="331.14" cy="550.12" r="8.84"/><circle class="cls-14" cx="227.07" cy="521.84" r="8.84"/><circle class="cls-14" cx="314.59" cy="528.04" r="8.84"/><circle class="cls-14" cx="250.82" cy="514.16" r="8.84"/><circle class="cls-14" cx="277.04" cy="506.06" r="8.84"/><circle class="cls-14" cx="228.19" cy="541.67" r="8.84"/><circle class="cls-14" cx="307.15" cy="503.97" r="8.84"/><circle class="cls-14" cx="240" cy="594.17" r="8.84"/><circle class="cls-14" cx="222.8" cy="566.84" r="8.84"/><circle class="cls-14" cx="290.67" cy="600.09" r="8.84"/><circle class="cls-14" cx="319.32" cy="585.53" r="8.84"/><circle class="cls-14" cx="267.95" cy="611.74" r="8.84"/><circle class="cls-16" cx="263.37" cy="547.89" r="9.04"/><circle class="cls-16" cx="287.53" cy="549.06" r="2.94"/><circle class="cls-16" cx="276.45" cy="568.07" r="5.15"/><circle class="cls-14" cx="454.77" cy="771.27" r="23.54"/><line class="cls-15" x1="451.22" y1="786.62" x2="451.51" y2="809.71"/><line class="cls-15" x1="423.16" y1="748.43" x2="441.77" y2="760.13"/><line class="cls-15" x1="465.29" y1="759.4" x2="477.52" y2="737.62"/><line class="cls-15" x1="437.44" y1="777.96" x2="421.76" y2="779.55"/><line class="cls-15" x1="457.03" y1="735.64" x2="455.66" y2="764.02"/><polyline class="cls-15" points="480.53 754.82 465.89 768.54 493.01 768.08"/><line class="cls-15" x1="443.48" y1="781.75" x2="432.32" y2="797.64"/><line class="cls-15" x1="457.55" y1="779.68" x2="465.6" y2="799.48"/><line class="cls-15" x1="463.3" y1="776.63" x2="483.21" y2="790.1"/><path class="cls-15" d="M426.54,763.69c6.58,1.06,7.31,2.28,13.89,3.34"/><path class="cls-15" d="M440.56,745.84c2.13,5.56,4.61,7.5,6.74,13.06"/><circle class="cls-14" cx="494.61" cy="767.85" r="6.07"/><circle class="cls-14" cx="423.16" cy="748.43" r="6.07"/><circle class="cls-14" cx="483.25" cy="752.69" r="6.07"/><circle class="cls-14" cx="439.46" cy="743.16" r="6.07"/><circle class="cls-14" cx="457.46" cy="737.6" r="6.07"/><circle class="cls-14" cx="423.93" cy="762.05" r="6.07"/><circle class="cls-14" cx="478.14" cy="736.16" r="6.07"/><circle class="cls-14" cx="432.03" cy="798.09" r="6.07"/><circle class="cls-14" cx="420.22" cy="779.33" r="6.07"/><circle class="cls-14" cx="466.82" cy="802.16" r="6.07"/><circle class="cls-14" cx="486.49" cy="792.16" r="6.07"/><circle class="cls-14" cx="451.22" cy="810.16" r="6.07"/><circle class="cls-16" cx="448.08" cy="766.32" r="6.21"/><circle class="cls-16" cx="464.67" cy="767.12" r="2.02"/><circle class="cls-16" cx="457.06" cy="780.17" r="3.54"/><circle class="cls-14" cx="1619.62" cy="772.4" r="19.98"/><line class="cls-15" x1="1616.6" y1="785.42" x2="1616.85" y2="805.02"/><line class="cls-15" x1="1592.79" y1="753.01" x2="1608.59" y2="762.95"/><line class="cls-15" x1="1628.55" y1="762.33" x2="1638.93" y2="743.84"/><line class="cls-15" x1="1604.91" y1="778.08" x2="1591.6" y2="779.42"/><line class="cls-15" x1="1621.54" y1="742.16" x2="1620.37" y2="766.24"/><polyline class="cls-15" points="1641.48 758.43 1629.06 770.08 1652.07 769.69"/><line class="cls-15" x1="1610.03" y1="781.29" x2="1600.56" y2="794.78"/><line class="cls-15" x1="1621.98" y1="779.54" x2="1628.81" y2="796.34"/><line class="cls-15" x1="1626.86" y1="776.95" x2="1643.75" y2="788.38"/><path class="cls-15" d="M1595.66,766c5.58.89,6.2,1.93,11.79,2.83"/><path class="cls-15" d="M1607.56,750.82c1.8,4.71,3.91,6.36,5.72,11.08"/><circle class="cls-14" cx="1653.44" cy="769.49" r="5.15"/><circle class="cls-14" cx="1592.79" cy="753.01" r="5.15"/><circle class="cls-14" cx="1643.79" cy="756.63" r="5.15"/><circle class="cls-14" cx="1606.62" cy="748.54" r="5.15"/><circle class="cls-14" cx="1621.9" cy="743.82" r="5.15"/><circle class="cls-14" cx="1593.44" cy="764.57" r="5.15"/><circle class="cls-14" cx="1639.45" cy="742.6" r="5.15"/><circle class="cls-14" cx="1600.32" cy="795.16" r="5.15"/><circle class="cls-14" cx="1590.3" cy="779.24" r="5.15"/><circle class="cls-14" cx="1629.85" cy="798.61" r="5.15"/><circle class="cls-14" cx="1646.54" cy="790.13" r="5.15"/><circle class="cls-14" cx="1616.61" cy="805.4" r="5.15"/><circle class="cls-16" cx="1613.94" cy="768.2" r="5.27"/><circle class="cls-16" cx="1628.02" cy="768.88" r="1.71"/><circle class="cls-16" cx="1621.56" cy="779.95" r="3"/><circle class="cls-14" cx="1579.05" cy="263.95" r="20.69"/><line class="cls-15" x1="1575.92" y1="277.44" x2="1576.18" y2="297.74"/><line class="cls-15" x1="1551.26" y1="243.87" x2="1567.62" y2="254.16"/><line class="cls-15" x1="1588.3" y1="253.52" x2="1599.05" y2="234.37"/><line class="cls-15" x1="1563.82" y1="269.83" x2="1550.03" y2="271.23"/><line class="cls-15" x1="1581.03" y1="232.63" x2="1579.83" y2="257.57"/><polyline class="cls-15" points="1601.69 249.49 1588.83 261.55 1612.66 261.14"/><line class="cls-15" x1="1569.12" y1="273.16" x2="1559.31" y2="287.13"/><line class="cls-15" x1="1581.49" y1="271.34" x2="1588.57" y2="288.74"/><line class="cls-15" x1="1586.54" y1="268.66" x2="1604.04" y2="280.5"/><path class="cls-15" d="M1554.24,257.29c5.78.93,6.42,2,12.2,2.93"/><path class="cls-15" d="M1566.56,241.6c1.87,4.88,4,6.59,5.92,11.48"/><circle class="cls-14" cx="1614.07" cy="260.94" r="5.33"/><circle class="cls-14" cx="1551.26" cy="243.87" r="5.33"/><circle class="cls-14" cx="1604.08" cy="247.62" r="5.33"/><circle class="cls-14" cx="1565.59" cy="239.24" r="5.33"/><circle class="cls-14" cx="1581.42" cy="234.35" r="5.33"/><circle class="cls-14" cx="1551.94" cy="255.84" r="5.33"/><circle class="cls-14" cx="1599.59" cy="233.09" r="5.33"/><circle class="cls-14" cx="1559.06" cy="287.53" r="5.33"/><circle class="cls-14" cx="1548.68" cy="271.04" r="5.33"/><circle class="cls-14" cx="1589.64" cy="291.1" r="5.33"/><circle class="cls-14" cx="1606.93" cy="282.32" r="5.33"/><circle class="cls-14" cx="1575.93" cy="298.13" r="5.33"/><circle class="cls-16" cx="1573.17" cy="259.6" r="5.46"/><circle class="cls-16" cx="1587.75" cy="260.3" r="1.77"/><circle class="cls-16" cx="1581.06" cy="271.77" r="3.11"/><circle class="cls-14" cx="255.87" cy="769.69" r="9.72"/><line class="cls-15" x1="254.4" y1="776.02" x2="254.52" y2="785.55"/><line class="cls-15" x1="242.82" y1="760.26" x2="250.51" y2="765.09"/><line class="cls-15" x1="260.21" y1="764.79" x2="265.26" y2="755.8"/><line class="cls-15" x1="248.72" y1="772.45" x2="242.25" y2="773.1"/><line class="cls-15" x1="256.8" y1="754.98" x2="256.24" y2="766.69"/><polyline class="cls-15" points="266.5 762.89 260.46 768.56 271.65 768.37"/><line class="cls-15" x1="251.21" y1="774.01" x2="246.6" y2="780.57"/><line class="cls-15" x1="257.02" y1="773.16" x2="260.34" y2="781.33"/><line class="cls-15" x1="259.39" y1="771.9" x2="267.61" y2="777.46"/><path class="cls-15" d="M244.22,766.56c2.72.44,3,.94,5.73,1.38"/><path class="cls-15" d="M250,759.19c.87,2.3,1.9,3.1,2.78,5.39"/><circle class="cls-14" cx="272.32" cy="768.27" r="2.5"/><circle class="cls-14" cx="242.82" cy="760.26" r="2.5"/><circle class="cls-14" cx="267.62" cy="762.02" r="2.5"/><circle class="cls-14" cx="249.55" cy="758.09" r="2.5"/><circle class="cls-14" cx="256.98" cy="755.79" r="2.5"/><circle class="cls-14" cx="243.14" cy="765.88" r="2.5"/><circle class="cls-14" cx="265.52" cy="755.19" r="2.5"/><circle class="cls-14" cx="246.49" cy="780.76" r="2.5"/><circle class="cls-14" cx="241.61" cy="773.01" r="2.5"/><circle class="cls-14" cx="260.85" cy="782.43" r="2.5"/><circle class="cls-14" cx="268.96" cy="778.31" r="2.5"/><circle class="cls-14" cx="254.41" cy="785.74" r="2.5"/><circle class="cls-16" cx="253.11" cy="767.64" r="2.56"/><circle class="cls-16" cx="259.96" cy="767.97" r="0.83"/><circle class="cls-16" cx="256.82" cy="773.36" r="1.46"/><circle class="cls-14" cx="536.68" cy="253.19" r="20.69"/><line class="cls-15" x1="533.56" y1="266.68" x2="533.81" y2="286.98"/><line class="cls-15" x1="508.89" y1="233.11" x2="525.26" y2="243.4"/><line class="cls-15" x1="545.93" y1="242.76" x2="556.68" y2="223.61"/><line class="cls-15" x1="521.45" y1="259.07" x2="507.66" y2="260.47"/><line class="cls-15" x1="538.67" y1="221.87" x2="537.46" y2="246.81"/><polyline class="cls-15" points="559.32 238.73 546.46 250.79 570.29 250.38"/><line class="cls-15" x1="526.75" y1="262.4" x2="516.94" y2="276.37"/><line class="cls-15" x1="539.12" y1="260.58" x2="546.2" y2="277.98"/><line class="cls-15" x1="544.17" y1="257.9" x2="561.67" y2="269.74"/><path class="cls-15" d="M511.87,246.53c5.78.93,6.42,2,12.2,2.93"/><path class="cls-15" d="M524.19,230.84c1.87,4.88,4,6.59,5.92,11.48"/><circle class="cls-14" cx="571.7" cy="250.18" r="5.33"/><circle class="cls-14" cx="508.89" cy="233.11" r="5.33"/><circle class="cls-14" cx="561.71" cy="236.86" r="5.33"/><circle class="cls-14" cx="523.22" cy="228.48" r="5.33"/><circle class="cls-14" cx="539.05" cy="223.59" r="5.33"/><circle class="cls-14" cx="509.57" cy="245.08" r="5.33"/><circle class="cls-14" cx="557.22" cy="222.33" r="5.33"/><circle class="cls-14" cx="516.69" cy="276.77" r="5.33"/><circle class="cls-14" cx="506.32" cy="260.28" r="5.33"/><circle class="cls-14" cx="547.27" cy="280.34" r="5.33"/><circle class="cls-14" cx="564.56" cy="271.55" r="5.33"/><circle class="cls-14" cx="533.56" cy="287.37" r="5.33"/><circle class="cls-16" cx="530.8" cy="248.84" r="5.46"/><circle class="cls-16" cx="545.38" cy="249.54" r="1.77"/><circle class="cls-16" cx="538.69" cy="261.01" r="3.11"/><circle class="cls-14" cx="1696.9" cy="590.81" r="29.47"/><line class="cls-15" x1="1692.45" y1="610.02" x2="1692.81" y2="638.92"/><line class="cls-15" x1="1657.32" y1="562.21" x2="1680.63" y2="576.86"/><line class="cls-15" x1="1710.07" y1="575.95" x2="1725.38" y2="548.68"/><line class="cls-15" x1="1675.21" y1="599.18" x2="1655.57" y2="601.17"/><line class="cls-15" x1="1699.72" y1="546.2" x2="1698.01" y2="581.72"/><polyline class="cls-15" points="1729.15 570.21 1710.82 587.38 1744.77 586.8"/><line class="cls-15" x1="1682.76" y1="603.93" x2="1668.79" y2="623.82"/><line class="cls-15" x1="1700.38" y1="601.33" x2="1710.46" y2="626.11"/><line class="cls-15" x1="1707.57" y1="597.52" x2="1732.5" y2="614.37"/><path class="cls-15" d="M1661.56,581.32c8.23,1.32,9.15,2.85,17.38,4.17"/><path class="cls-15" d="M1679.11,559c2.66,6.95,5.77,9.38,8.43,16.34"/><circle class="cls-14" cx="1746.78" cy="586.52" r="7.59"/><circle class="cls-14" cx="1657.32" cy="562.21" r="7.59"/><circle class="cls-14" cx="1732.55" cy="567.55" r="7.59"/><circle class="cls-14" cx="1677.73" cy="555.62" r="7.59"/><circle class="cls-14" cx="1700.27" cy="548.65" r="7.59"/><circle class="cls-14" cx="1658.29" cy="579.26" r="7.59"/><circle class="cls-14" cx="1726.15" cy="546.85" r="7.59"/><circle class="cls-14" cx="1668.43" cy="624.38" r="7.59"/><circle class="cls-14" cx="1653.65" cy="600.9" r="7.59"/><circle class="cls-14" cx="1711.99" cy="629.47" r="7.59"/><circle class="cls-14" cx="1736.61" cy="616.96" r="7.59"/><circle class="cls-14" cx="1692.46" cy="639.49" r="7.59"/><circle class="cls-16" cx="1688.52" cy="584.61" r="7.77"/><circle class="cls-16" cx="1709.29" cy="585.61" r="2.53"/><circle class="cls-16" cx="1699.76" cy="601.95" r="4.43"/><path class="cls-3" d="M813.89,329.09a41.58,41.58,0,0,0,37,44.17h0l30.93,12.54c.09,0,.16-.07.1-.15l-11.2-12a.09.09,0,0,1,.06-.15h24.94c21.93,0,40.88-16.6,42.43-38.47a41.55,41.55,0,0,0-41.34-44.41H856.35C834.41,290.61,815.43,307.21,813.89,329.09Z"/><circle class="cls-4" cx="845.7" cy="332.34" r="7.91"/><circle class="cls-4" cx="876" cy="332.34" r="7.91"/><circle class="cls-4" cx="906.31" cy="332.34" r="7.91"/><circle class="cls-4" cx="929.69" cy="407.59" r="7.91"/><circle class="cls-4" cx="960" cy="407.59" r="7.91"/><circle class="cls-4" cx="990.31" cy="407.59" r="7.91"/><path class="cls-17" d="M1238.91,560l-24.17,129a15.17,15.17,0,0,1-15,13.17h-36"/><rect class="cls-11" x="710.89" y="791.01" width="82.95" height="161.39"/><polygon class="cls-18" points="710.89 791.01 710.89 952.4 687.43 939.69 687.43 778.91 710.89 791.01"/><polygon class="cls-3" points="793.84 791.01 710.89 791.01 687.43 778.91 766.72 778.91 793.84 791.01"/><rect class="cls-4" x="731.48" y="810.92" width="51.78" height="10.61"/><rect class="cls-4" x="731.48" y="827.89" width="51.78" height="10.61"/><rect class="cls-4" x="731.48" y="844.86" width="51.78" height="10.61"/></g><g id="man"><path class="cls-19" d="M1114.94,421.75a12.61,12.61,0,0,1,11.88,9.18c1.37,5.42-.65,11.59-5.65,14-1.94-1.55-5.1-1.38-8.46,2.86-.45-.28-.9-.58-1.33-.91-3.05-2.32-5.59-5.95-5.59-9.63l-.09-.13a22.33,22.33,0,0,1-11.1,3.5,58.21,58.21,0,0,1-13.78-1.29l-1-.19c-3-.55-6.64-1.67-7.22-4.67a6.27,6.27,0,0,1,.38-3.17c1.42-4.24,7.91-5.19,10.4-8.9a19.83,19.83,0,0,1,26.84-5.84A11.2,11.2,0,0,1,1114.94,421.75Z"/><path class="cls-4" d="M1160.65,586.38c1,.15,2,.28,3,.39-5.11,15,.18,28.07-4.21,43.05,0,0,0,0,0,0a71.78,71.78,0,0,1-23.34-1.74h-.57a12.85,12.85,0,0,0,2.86-3,311.77,311.77,0,0,0,22.26-38.68Z"/><path class="cls-4" d="M1116.71,572.47a155.07,155.07,0,0,1-8.2,22.91,5.18,5.18,0,0,1-4.48,3.06c-15.61.77-30.37,1.69-45,2.86,0-1.33,0-2.64-.08-3.91-.16-10.4-.1-19.08.11-26.59H1059a83.59,83.59,0,0,1-30.66-4.37h0a382.23,382.23,0,0,1,11.17-45.5c3-9.49,6.54-19.28,13.88-26,10.77-9.84,26.57-10.59,41.37-9.31-.38,4.35-.73,8.2-.82,10.21a2.14,2.14,0,0,0,1.37,2.09c5.8,2.26,14.53,2.13,20.72.69a2.6,2.6,0,0,0,2-2.49c0-2.2.06-6.05.1-10.57q12.15,1.43,24.15,3.9c5.33,1.09,10.74,2.38,15.38,5.23,7.33,4.49,12,12.41,14.75,20.54,8,23.11,3.22,48.44-3.73,72-1.64-.11-3.28-.26-4.91-.45-1-.11-2-.24-3-.39h0a125.64,125.64,0,0,1-19.53-4.5A239.83,239.83,0,0,1,1116.71,572.47Z"/><path class="cls-20" d="M1068.34,864.66c-.91.35-1.83.69-2.76,1-5.52,1.94-11.23,3.43-16.89,4.89q-19.17,5-38.33,9.94h0l-8.34,2.16c-8.14-30.94-16.27-62.86-24.4-93.79,2.11-5.53,4.35-11.19,6.77-17.12q11.26-27.6,23.71-54.68c4.63-10.1,6.83-12.54,18.21-14.37,1.61-.26,3.22-.45,4.84-.59C1044.11,755.83,1056.5,810.69,1068.34,864.66Z"/><path class="cls-18" d="M964.15,643.52c3.55-3.92,7.44-8.34,9.88-13.09l.12.06c-1.7,3.16-7.75,14.51-5.11,15.87,2.27,1.16,9-8.39,11.78-12.44q-2.7,5.48-5.41,10.94c-.49,1-1,2.26,0,3a2,2,0,0,0,2.74-.42l9.72-11.87a1.82,1.82,0,0,1,1-.62c3.15-.8,18.2-4.62,26.36-6.94,0,0,75.86,6.11,113.89,2.53a12.53,12.53,0,0,0,6.38-2.49h.57a71.78,71.78,0,0,0,23.34,1.74l0,.08c3.46,10.81,5.75,22.89,3,36.7-2.4,12.22-9.18,23.84-19.63,30.6-13.51,8.74-30.76,8.38-46.85,7.73l-45-1.84a154.68,154.68,0,0,0-19.85,0c-1.62.14-3.23.33-4.84.59-11.38,1.83-13.58,4.27-18.21,14.37q-12.42,27.09-23.71,54.68c-2.42,5.93-4.66,11.59-6.77,17.12-11,28.85-18.91,54.08-33.36,94.85-1.8,0-3.6-.09-5.39-.16a251.9,251.9,0,0,1-42.82-5.41,109.2,109.2,0,0,1-10.87-2.83A54.6,54.6,0,0,1,875,872c24.65-79.25,59.78-176.43,86.71-228a1.25,1.25,0,0,0,1,.46A2.33,2.33,0,0,0,964.15,643.52Z"/><path class="cls-21" d="M1075.24,907.22a5.28,5.28,0,0,1-2.45,5.42c-27.15,16.69-63.84,27.41-92,39.24a1.87,1.87,0,0,1-2.33-2.67c10.68-18.3,21.68-34.12,33.59-52a4,4,0,0,0,.66-2.25,134.21,134.21,0,0,0,53.37-17.06l2.3-1.33C1070.57,885.55,1073.64,898.33,1075.24,907.22Z"/><path class="cls-21" d="M930.71,905.67a11.82,11.82,0,0,1,4.15-.64q-4.12,22-7.41,44.08a4.75,4.75,0,0,1-4.77,4.06c-27.4-.37-72.5-3-102.76-4.66a2.75,2.75,0,0,1-1.32-5.07c18.15-11.36,40-21.9,56.93-32.74h0C893.67,914.21,913,911.52,930.71,905.67Z"/><path class="cls-22" d="M1068.39,876.59l-2.3,1.33A134.21,134.21,0,0,1,1012.72,895a3.79,3.79,0,0,0-.05-.58l-2.31-13.9h0q19.17-4.95,38.33-9.94c5.66-1.46,11.37-2.95,16.89-4.89C1066.52,869.06,1067.47,872.75,1068.39,876.59Z"/><path class="cls-22" d="M875.82,910.52q4.11-17.25,9.36-34.2a109.2,109.2,0,0,0,10.87,2.83,251.9,251.9,0,0,0,42.82,5.41q-2.1,10.22-4,20.47a11.82,11.82,0,0,0-4.15.64c-17.7,5.85-37,8.54-55.17,5Z"/><path class="cls-22" d="M907.17,609.74l-12.36,9.92c-.94.74-2.46-.29-1.87-1.33,9.21-16.29,16.7-32,44.7-35.65,7.1-.93,11.34.07,18.49-.39,8.29-.52,40.7-8.32,70.31-12a1.61,1.61,0,0,0,1.38-1.33c.15-.83.29-1.66.44-2.49h0A83.59,83.59,0,0,0,1059,570.8h.06c-.21,7.51-.27,16.19-.11,26.59h-.09c-28.44,9.5-94.68,3.66-112.55,7.55-5.84,1.27-11.64,2.9-17.58,3.72a30.05,30.05,0,0,1-8.4-.39c-2.48-.39-3.73-2.65-6.67-2.13C911.17,606.57,909.11,608.19,907.17,609.74Z"/><path class="cls-22" d="M974,630.43c-2.44,4.75-6.33,9.17-9.88,13.09a2.33,2.33,0,0,1-1.41.91,1.25,1.25,0,0,1-1-.46,1.88,1.88,0,0,1-.47-1.13,4.59,4.59,0,0,1,.71-2.27l7.2-13.89-.21-.11a90.67,90.67,0,0,1-8.81,12c-1.27,1.47-2.86,3-4.74,3.12a.57.57,0,0,1-.61-.52l-.1-1.09a.69.69,0,0,1,0-.28c3.69-8.69,8.72-17,15.75-23.27s24.2-9.76,33.69-9.64c19.07-2.36,36.87-4.16,54.79-5.59,14.68-1.17,29.44-2.09,45-2.86a5.18,5.18,0,0,0,4.48-3.06,155.07,155.07,0,0,0,8.2-22.91,239.83,239.83,0,0,0,24.4,9.41,125.64,125.64,0,0,0,19.53,4.5,311.77,311.77,0,0,1-22.26,38.68,12.85,12.85,0,0,1-2.86,3,12.53,12.53,0,0,1-6.38,2.49c-38,3.58-113.89-2.53-113.89-2.53-8.16,2.32-23.21,6.14-26.36,6.94a1.82,1.82,0,0,0-1,.62l-9.72,11.87a2,2,0,0,1-2.74.42c-1-.77-.53-2,0-3q2.7-5.46,5.41-10.94C978,638,971.31,647.52,969,646.36c-2.64-1.36,3.41-12.71,5.11-15.87Z"/><path class="cls-22" d="M1117.93,456.71l.17.72c.11,6.19,0,18.63,0,28.13,0,4.52-.08,8.37-.1,10.57a2.6,2.6,0,0,1-2,2.49c-6.19,1.44-14.92,1.57-20.72-.69a2.14,2.14,0,0,1-1.37-2.09c.09-2,.44-5.86.82-10.21.42-4.66.89-9.9,1.14-14a26.41,26.41,0,0,1-4.52,1.44c-2.31.52-4.9.68-6.86-.65a7.78,7.78,0,0,1-2.76-4c-1.91-5.42-2.17-11.48-1.87-17.56l.58,0c5.38,1.88,10.29.83,15.89-.23L1110.2,448l1.18-1.14c.43.33.88.63,1.33.91,3.36-4.24,6.52-4.41,8.46-2.86a5.29,5.29,0,0,1,1.74,2.75C1123.86,451.07,1121.4,456,1117.93,456.71Z"/><path class="cls-12" d="M1106.22,463.54c-3.53,3.15-6.72,6.23-11,8.29.21-.09.44-.15.65-.24-.12,2-.29,4.21-.48,6.51,0-.19,3.85-2,4.28-2.27a19.13,19.13,0,0,0,3.83-3.47C1105.78,469.55,1106.74,467.07,1106.22,463.54Z"/><path class="cls-4" d="M1113.55,446.77c-.28.3-.56.62-.84,1-.45-.28-.9-.58-1.33-.91L1110.2,448l-13.92,2.64c-5.6,1.06-10.51,2.11-15.89.23l-.58,0c-.3,6.08,0,12.14,1.87,17.56a7.78,7.78,0,0,0,2.76,4c2,1.33,4.55,1.17,6.86.65,5.69-1.25,11.08-5.71,15.18-9.68a22.59,22.59,0,0,0,4.68-7.41,33.57,33.57,0,0,0,1.53-4.5C1112.94,450.49,1113,447.41,1113.55,446.77Z"/><path class="cls-22" d="M1111.38,446.84,1110.2,448l-13.92,2.64c-5.6,1.06-10.51,2.11-15.89.23l-.58,0c.2-3.88.63-7.78,1-11.52a58.21,58.21,0,0,0,13.78,1.29,22.33,22.33,0,0,0,11.1-3.5l.09.13C1105.79,440.89,1108.33,444.52,1111.38,446.84Z"/><path class="cls-23" d="M1118.05,485.56q12.15,1.43,24.15,3.9c5.33,1.09,10.74,2.38,15.38,5.23,7.33,4.49,12,12.41,14.75,20.54,8,23.11,3.22,48.44-3.73,72"/><path class="cls-23" d="M1113.78,571.19c3.08-17.68,12.28-34,21.28-49.7"/><path class="cls-23" d="M1062.34,527.8c-2,18.74-4.18,34.73-3.35,74.23"/><path class="cls-23" d="M1113.78,571.19a262.6,262.6,0,0,0,27.33,10.69,125.64,125.64,0,0,0,19.53,4.5h0q4,.57,7.95.84"/><path class="cls-23" d="M1058.81,597.38c-28.44,9.51-94.68,3.67-112.55,7.56-5.84,1.27-11.64,2.9-17.58,3.72a30.45,30.45,0,0,1-8.4-.39c-2.48-.4-3.73-2.65-6.67-2.13-2.44.43-4.5,2-6.44,3.6l-12.36,9.91c-.93.75-2.45-.28-1.87-1.32,9.21-16.3,16.7-32,44.7-35.65,7.11-.94,11.34.06,18.49-.39,8.29-.53,40.7-8.32,70.31-12a1.6,1.6,0,0,0,1.38-1.32,382,382,0,0,1,11.61-48c3-9.49,6.54-19.28,13.88-26,10.77-9.84,26.57-10.59,41.37-9.31"/><path class="cls-23" d="M1004.19,606.89c34.69-4.29,65.18-6.73,99.84-8.45a5.18,5.18,0,0,0,4.48-3.06,155.07,155.07,0,0,0,8.2-22.91"/><path class="cls-23" d="M1118.1,456.43c.11,6.19,0,19.63,0,29.13,0,4.52-.08,8.37-.1,10.57a2.6,2.6,0,0,1-2,2.49c-6.19,1.44-14.92,1.57-20.72-.69a2.14,2.14,0,0,1-1.37-2.09c.09-2,.44-5.86.82-10.21.42-4.66.89-9.9,1.14-14"/><path class="cls-23" d="M1112.71,447.75c4.8-6.06,9.18-3.82,10.2-.11,1,3.47-.59,7.49-4.14,8.11"/><path class="cls-23" d="M1080.82,439.29c-1,9.6-2.27,20.19.86,29.08a7.78,7.78,0,0,0,2.76,4c2,1.33,4.55,1.17,6.86.65a26.68,26.68,0,0,0,11.34-5.62"/><path class="cls-23" d="M1080.39,450.85c5.38,1.87,10.29.83,15.89-.24L1110.2,448"/><path class="cls-23" d="M1111.88,454a30.61,30.61,0,0,1-7.1,11.27"/><path class="cls-23" d="M1028.29,566.42A83.39,83.39,0,0,0,1059,570.8"/><path class="cls-23" d="M1004.19,606.89c-9.49-.12-26.63,3.29-33.69,9.63s-12,14.59-15.75,23.28a.66.66,0,0,0,0,.28l.1,1.09a.58.58,0,0,0,.61.52c1.88-.12,3.47-1.65,4.75-3.12a90.94,90.94,0,0,0,8.8-12"/><path class="cls-23" d="M969.32,626.38,962,640.56a4.65,4.65,0,0,0-.71,2.28c0,.8.68,1.64,1.48,1.58a2.19,2.19,0,0,0,1.41-.91c3.76-4.15,7.91-8.86,10.3-13.92"/><path class="cls-23" d="M974.39,630.05c-1.25,2.32-8.13,14.88-5.35,16.3s11.31-11.79,12.8-13.91"/><path class="cls-23" d="M981.6,632.34l-6.19,12.52c-.49,1-1,2.26,0,3a2,2,0,0,0,2.74-.42l9.72-11.87a1.77,1.77,0,0,1,1-.62c3.15-.8,18.2-4.63,26.36-6.94,0,0,75.86,6.11,113.89,2.53a12.62,12.62,0,0,0,9.24-5.51,311.77,311.77,0,0,0,22.26-38.68h0"/><path class="cls-23" d="M1163.74,586.62c-5.34,15.45.45,28.87-4.62,44.42"/><path class="cls-23" d="M1159.48,629.82s0,0,0,0a71.78,71.78,0,0,1-23.34-1.74"/><path class="cls-23" d="M1010.36,880.49l2.31,13.91a4,4,0,0,1-.61,2.83c-11.91,17.86-22.91,33.67-33.58,52a1.87,1.87,0,0,0,2.33,2.67c28.14-11.83,64.83-22.55,92-39.25a5.27,5.27,0,0,0,2.45-5.42c-2.29-12.7-6.53-30.2-9.66-41.55"/><path class="cls-23" d="M875.82,910.52c-17,10.9-39,21.5-57.22,32.91a2.76,2.76,0,0,0,1.33,5.08c30.25,1.61,75.35,4.28,102.75,4.66a4.76,4.76,0,0,0,4.77-4.07q4.83-32.42,11.42-64.54"/><path class="cls-23" d="M885.18,876.32q-5.25,16.93-9.36,34.2"/><path class="cls-23" d="M934.86,905a11.82,11.82,0,0,0-4.15.64c-17.7,5.85-37,8.54-55.17,5h0"/><path class="cls-23" d="M1012.72,895a134.21,134.21,0,0,0,53.37-17.06l2.31-1.33"/><path class="cls-23" d="M1116.68,447.34a2.42,2.42,0,1,1,1.54,4.58"/><path class="cls-23" d="M1086.59,446.09a15.57,15.57,0,0,1-1.45,5.69"/><path d="M1092.8,449h.4a1.27,1.27,0,0,0,.58-.13,1.21,1.21,0,0,0,.49-.31,1.32,1.32,0,0,0,.31-.49,1.13,1.13,0,0,0,.12-.57l0-.4a1.54,1.54,0,0,0-.38-.67l-.31-.23a1.42,1.42,0,0,0-.76-.2h-.4a1.14,1.14,0,0,0-.58.12,1.37,1.37,0,0,0-.48.31,1.11,1.11,0,0,0-.31.49,1.15,1.15,0,0,0-.13.58l0,.39a1.56,1.56,0,0,0,.39.67l.3.23a1.58,1.58,0,0,0,.76.21Z"/><path d="M1081.94,448.27h.4a1.06,1.06,0,0,0,.58-.13,1.36,1.36,0,0,0,.79-.79,1.06,1.06,0,0,0,.13-.58l0-.4a1.49,1.49,0,0,0-.39-.66l-.3-.23a1.48,1.48,0,0,0-.76-.21h-.4a1.27,1.27,0,0,0-.58.13,1.11,1.11,0,0,0-.48.31,1.14,1.14,0,0,0-.31.48,1.08,1.08,0,0,0-.13.58l0,.4a1.39,1.39,0,0,0,.39.66l.3.24a1.54,1.54,0,0,0,.76.2Z"/><path class="cls-23" d="M1091.61,443a5.12,5.12,0,0,1,5.61,2"/><path class="cls-23" d="M1080.62,442.78a3.24,3.24,0,0,1,3.73.44"/><path class="cls-17" d="M929.64,884q29.11-87,64.91-171.61c5.48-12.94,11.85-26.73,24.11-33.61,10.73-6,23.8-5.47,36.1-4.75l59.7,3.5c13.64.8,29.23.86,38.53-9.15,5.78-6.22,5.1-10.86,7-19.12"/><path class="cls-17" d="M817.32,946c37.38-2.55,74.91,7.2,111-2.45"/><path class="cls-17" d="M1073.76,899.6l0,0c-.94,13-81.1,45.4-95.36,51.26"/><line class="cls-24" x1="1085.86" y1="541.4" x2="1099.87" y2="531.33"/><line class="cls-24" x1="1149.52" y1="535.9" x2="1160.85" y2="550.54"/><line class="cls-24" x1="1040.56" y1="546.34" x2="1050.33" y2="533.01"/><line class="cls-24" x1="1068.4" y1="493.83" x2="1078.62" y2="503.16"/><line class="cls-24" x1="1086.59" y1="575.75" x2="1099.87" y2="586.38"/></g></svg>