<svg xmlns="http://www.w3.org/2000/svg" viewBox="0 0 1920 1080"><defs><style>.cls-1{fill:#f7f8fa;}.cls-2{fill:#eaebed;}.cls-20,.cls-3{fill:#fff;}.cls-13,.cls-23,.cls-3{stroke:#31434d;}.cls-10,.cls-12,.cls-13,.cls-21,.cls-22,.cls-23,.cls-24,.cls-27,.cls-3,.cls-7,.cls-8{stroke-linecap:round;}.cls-10,.cls-12,.cls-13,.cls-21,.cls-22,.cls-23,.cls-24,.cls-26,.cls-27,.cls-3,.cls-7,.cls-8{stroke-miterlimit:10;}.cls-4{fill:#7b176e;}.cls-13,.cls-5{fill:#53bcf7;}.cls-6{fill:#f6ce79;}.cls-10,.cls-12,.cls-21,.cls-22,.cls-23,.cls-24,.cls-26,.cls-27,.cls-7,.cls-8{fill:none;}.cls-7{stroke:#f6ce79;}.cls-10,.cls-12,.cls-7{stroke-width:4px;}.cls-24,.cls-8{stroke:#fff;}.cls-9{fill:#f6b731;}.cls-10{stroke:#f6b731;}.cls-11{fill:#f6c55d;}.cls-12{stroke:#f6c55d;}.cls-14{fill:#31434d;}.cls-15{fill:#276ce4;}.cls-16{fill:#09102d;}.cls-17{fill:#225dc4;}.cls-18{fill:#052251;}.cls-19{fill:#ffe1cf;}.cls-21{stroke:#0c2c7a;}.cls-21,.cls-24,.cls-26,.cls-27{stroke-width:2px;}.cls-22{stroke:#0f379a;}.cls-25{fill:#0f379a;}.cls-26{stroke:#b2d3f7;}.cls-27{stroke:#276ce4;}</style></defs><title>2019-nCov7</title><g id="background"><path class="cls-1" d="M1570.08,706.27c-41.65-92.69-161.26-206.2-93.81-282.21,22.17-25,34.75-52.4,35.76-81.42C1516.6,211,1276.27,74,981.25,63.77s-533,110.11-537.58,241.79c-.68,19.5,3.91,38.64,13.17,57.13,35.1,70-30.54,145.47-72.07,195.94-79.11,96.11-142.16,226.48-86.51,350.75,6.68,14.91,15,29.29,26.62,40.81,53.49,53.23,128.69,26.16,193.44,29.25,93.95,4.49,187.79,9.61,281.83,12.21,185.34,5.1,370.82,4.66,556.16-.18,49.91-1.3,101.31-3.25,146.82-23.79C1602.19,923,1610.06,795.21,1570.08,706.27Z"/><ellipse class="cls-2" cx="527.47" cy="990.7" rx="209.89" ry="16.2"/><ellipse class="cls-2" cx="1425.13" cy="990.7" rx="197.56" ry="16.2"/><rect class="cls-3" x="362.16" y="394.67" width="45.3" height="145.45"/><rect class="cls-4" x="269.94" y="567.64" width="55.01" height="34.1"/><rect class="cls-3" x="122.7" y="643.43" width="174.74" height="60.96"/><rect class="cls-4" x="1712.78" y="241.59" width="25.42" height="25.42"/><rect class="cls-3" x="1578.77" y="305.81" width="107.97" height="107.97"/><rect class="cls-3" x="1691.64" y="471.67" width="46.55" height="46.55"/><rect class="cls-5" x="1632.76" y="584.69" width="34.6" height="34.6"/><circle class="cls-6" cx="1775.94" cy="423.01" r="16.86"/><line class="cls-7" x1="1773.4" y1="434" x2="1773.6" y2="450.53"/><line class="cls-7" x1="1753.3" y1="406.65" x2="1766.63" y2="415.03"/><line class="cls-7" x1="1783.48" y1="414.51" x2="1792.23" y2="398.91"/><line class="cls-7" x1="1763.53" y1="427.8" x2="1752.3" y2="428.94"/><line class="cls-7" x1="1777.56" y1="397.49" x2="1776.58" y2="417.81"/><polyline class="cls-7" points="1794.39 411.22 1783.91 421.05 1803.32 420.72"/><line class="cls-7" x1="1767.85" y1="430.51" x2="1759.86" y2="441.89"/><line class="cls-7" x1="1777.93" y1="429.03" x2="1783.7" y2="443.2"/><line class="cls-7" x1="1782.05" y1="426.85" x2="1796.3" y2="436.49"/><path class="cls-7" d="M1755.73,417.58c4.71.76,5.23,1.63,9.94,2.39"/><path class="cls-7" d="M1765.77,404.8c1.52,4,3.3,5.37,4.82,9.35"/><circle class="cls-6" cx="1804.47" cy="420.56" r="4.34"/><circle class="cls-6" cx="1753.3" cy="406.65" r="4.34"/><circle class="cls-6" cx="1796.33" cy="409.7" r="4.34"/><circle class="cls-6" cx="1764.98" cy="402.88" r="4.34"/><circle class="cls-6" cx="1777.87" cy="398.89" r="4.34"/><circle class="cls-6" cx="1753.85" cy="416.4" r="4.34"/><circle class="cls-6" cx="1792.67" cy="397.86" r="4.34"/><circle class="cls-6" cx="1759.66" cy="442.21" r="4.34"/><circle class="cls-6" cx="1751.2" cy="428.78" r="4.34"/><circle class="cls-6" cx="1784.57" cy="445.13" r="4.34"/><circle class="cls-6" cx="1798.66" cy="437.97" r="4.34"/><circle class="cls-6" cx="1773.4" cy="450.85" r="4.34"/><circle class="cls-8" cx="1771.15" cy="419.46" r="4.45"/><circle class="cls-8" cx="1783.03" cy="420.04" r="1.45"/><circle class="cls-8" cx="1777.58" cy="429.38" r="2.53"/><circle class="cls-6" cx="757.65" cy="734.79" r="16.86"/><line class="cls-7" x1="755.1" y1="745.77" x2="755.31" y2="762.31"/><line class="cls-7" x1="735.01" y1="718.43" x2="748.34" y2="726.81"/><line class="cls-7" x1="765.18" y1="726.29" x2="773.94" y2="710.69"/><line class="cls-7" x1="745.24" y1="739.57" x2="734.01" y2="740.71"/><line class="cls-7" x1="759.26" y1="709.27" x2="758.28" y2="729.59"/><polyline class="cls-7" points="776.09 723 765.61 732.83 785.03 732.5"/><line class="cls-7" x1="749.56" y1="742.29" x2="741.57" y2="753.67"/><line class="cls-7" x1="759.64" y1="740.81" x2="765.4" y2="754.98"/><line class="cls-7" x1="763.75" y1="738.62" x2="778.01" y2="748.26"/><path class="cls-7" d="M737.43,729.36c4.71.76,5.24,1.63,10,2.39"/><path class="cls-7" d="M747.47,716.58c1.52,4,3.3,5.37,4.82,9.34"/><circle class="cls-6" cx="786.18" cy="732.33" r="4.34"/><circle class="cls-6" cx="735.01" cy="718.43" r="4.34"/><circle class="cls-6" cx="778.04" cy="721.48" r="4.34"/><circle class="cls-6" cx="746.68" cy="714.66" r="4.34"/><circle class="cls-6" cx="759.58" cy="710.67" r="4.34"/><circle class="cls-6" cx="735.56" cy="728.18" r="4.34"/><circle class="cls-6" cx="774.38" cy="709.64" r="4.34"/><circle class="cls-6" cx="741.36" cy="753.99" r="4.34"/><circle class="cls-6" cx="732.91" cy="740.56" r="4.34"/><circle class="cls-6" cx="766.28" cy="756.9" r="4.34"/><circle class="cls-6" cx="780.36" cy="749.74" r="4.34"/><circle class="cls-6" cx="755.11" cy="762.63" r="4.34"/><circle class="cls-8" cx="752.85" cy="731.24" r="4.45"/><circle class="cls-8" cx="764.74" cy="731.81" r="1.45"/><circle class="cls-8" cx="759.29" cy="741.16" r="2.53"/><circle class="cls-9" cx="504.94" cy="215.38" r="24.87"/><line class="cls-10" x1="501.19" y1="231.59" x2="501.49" y2="255.97"/><line class="cls-10" x1="471.55" y1="191.25" x2="491.22" y2="203.61"/><line class="cls-10" x1="516.06" y1="202.84" x2="528.97" y2="179.83"/><line class="cls-10" x1="486.64" y1="222.44" x2="470.08" y2="224.12"/><line class="cls-10" x1="507.33" y1="177.74" x2="505.88" y2="207.71"/><polyline class="cls-10" points="532.15 198 516.69 212.49 545.33 212"/><line class="cls-10" x1="493.02" y1="226.45" x2="481.23" y2="243.23"/><line class="cls-10" x1="507.88" y1="224.26" x2="516.39" y2="245.17"/><line class="cls-10" x1="513.95" y1="221.04" x2="534.98" y2="235.26"/><path class="cls-10" d="M475.13,207.37c6.95,1.12,7.72,2.4,14.66,3.52"/><path class="cls-10" d="M489.93,188.52c2.25,5.87,4.87,7.92,7.12,13.79"/><circle class="cls-9" cx="547.03" cy="211.76" r="6.41"/><circle class="cls-9" cx="471.55" cy="191.25" r="6.41"/><circle class="cls-9" cx="535.02" cy="195.75" r="6.41"/><circle class="cls-9" cx="488.77" cy="185.69" r="6.41"/><circle class="cls-9" cx="507.79" cy="179.81" r="6.41"/><circle class="cls-9" cx="472.37" cy="205.63" r="6.41"/><circle class="cls-9" cx="529.62" cy="178.29" r="6.41"/><circle class="cls-9" cx="480.93" cy="243.7" r="6.41"/><circle class="cls-9" cx="468.46" cy="223.89" r="6.41"/><circle class="cls-9" cx="517.67" cy="248" r="6.41"/><circle class="cls-9" cx="538.45" cy="237.44" r="6.41"/><circle class="cls-9" cx="501.2" cy="256.45" r="6.41"/><circle class="cls-8" cx="497.87" cy="210.15" r="6.56"/><circle class="cls-8" cx="515.4" cy="210.99" r="2.13"/><circle class="cls-8" cx="507.36" cy="224.77" r="3.74"/><circle class="cls-9" cx="1668.3" cy="877.56" r="17.41"/><line class="cls-10" x1="1665.67" y1="888.9" x2="1665.88" y2="905.98"/><line class="cls-10" x1="1644.92" y1="860.66" x2="1658.68" y2="869.32"/><line class="cls-10" x1="1676.08" y1="868.78" x2="1685.12" y2="852.67"/><line class="cls-10" x1="1655.48" y1="882.5" x2="1643.88" y2="883.68"/><line class="cls-10" x1="1669.96" y1="851.21" x2="1668.95" y2="872.19"/><polyline class="cls-10" points="1687.34 865.38 1676.52 875.53 1696.57 875.19"/><line class="cls-10" x1="1659.94" y1="885.3" x2="1651.69" y2="897.05"/><line class="cls-10" x1="1670.35" y1="883.77" x2="1676.3" y2="898.41"/><line class="cls-10" x1="1674.6" y1="881.52" x2="1689.32" y2="891.47"/><path class="cls-10" d="M1647.42,872c4.86.78,5.4,1.68,10.27,2.47"/><path class="cls-10" d="M1657.79,858.75c1.57,4.11,3.4,5.55,5,9.65"/><circle class="cls-9" cx="1697.76" cy="875.02" r="4.49"/><circle class="cls-9" cx="1644.92" cy="860.66" r="4.49"/><circle class="cls-9" cx="1689.35" cy="863.81" r="4.49"/><circle class="cls-9" cx="1656.97" cy="856.77" r="4.49"/><circle class="cls-9" cx="1670.28" cy="852.65" r="4.49"/><circle class="cls-9" cx="1645.49" cy="870.73" r="4.49"/><circle class="cls-9" cx="1685.57" cy="851.59" r="4.49"/><circle class="cls-9" cx="1651.48" cy="897.39" r="4.49"/><circle class="cls-9" cx="1642.75" cy="883.51" r="4.49"/><circle class="cls-9" cx="1677.21" cy="900.39" r="4.49"/><circle class="cls-9" cx="1691.75" cy="893" r="4.49"/><circle class="cls-9" cx="1665.67" cy="906.31" r="4.49"/><circle class="cls-8" cx="1663.35" cy="873.89" r="4.59"/><circle class="cls-8" cx="1675.61" cy="874.48" r="1.49"/><circle class="cls-8" cx="1669.99" cy="884.13" r="2.62"/><circle class="cls-9" cx="269.76" cy="878.4" r="13.91"/><line class="cls-10" x1="267.65" y1="887.46" x2="267.83" y2="901.1"/><line class="cls-10" x1="251.08" y1="864.9" x2="262.08" y2="871.82"/><line class="cls-10" x1="275.97" y1="871.39" x2="283.19" y2="858.52"/><line class="cls-10" x1="259.52" y1="882.35" x2="250.25" y2="883.28"/><line class="cls-10" x1="271.09" y1="857.35" x2="270.28" y2="874.11"/><polyline class="cls-10" points="284.97 868.67 276.32 876.78 292.34 876.51"/><line class="cls-10" x1="263.08" y1="884.59" x2="256.49" y2="893.97"/><line class="cls-10" x1="271.4" y1="883.36" x2="276.15" y2="895.05"/><line class="cls-10" x1="274.79" y1="881.56" x2="286.55" y2="889.51"/><path class="cls-10" d="M253.08,873.92c3.89.62,4.32,1.34,8.2,2"/><path class="cls-10" d="M261.36,863.38c1.26,3.28,2.72,4.43,4,7.71"/><circle class="cls-9" cx="293.29" cy="876.37" r="3.58"/><circle class="cls-9" cx="251.08" cy="864.9" r="3.58"/><circle class="cls-9" cx="286.57" cy="867.42" r="3.58"/><circle class="cls-9" cx="260.71" cy="861.79" r="3.58"/><circle class="cls-9" cx="271.34" cy="858.5" r="3.58"/><circle class="cls-9" cx="251.54" cy="872.95" r="3.58"/><circle class="cls-9" cx="283.56" cy="857.65" r="3.58"/><circle class="cls-9" cx="256.32" cy="894.24" r="3.58"/><circle class="cls-9" cx="249.35" cy="883.16" r="3.58"/><circle class="cls-9" cx="276.87" cy="896.64" r="3.58"/><circle class="cls-9" cx="288.49" cy="890.74" r="3.58"/><circle class="cls-9" cx="267.66" cy="901.36" r="3.58"/><circle class="cls-8" cx="265.8" cy="875.47" r="3.67"/><circle class="cls-8" cx="275.6" cy="875.94" r="1.19"/><circle class="cls-8" cx="271.11" cy="883.65" r="2.09"/><circle class="cls-11" cx="295.48" cy="435.1" r="17.41"/><line class="cls-12" x1="292.85" y1="446.44" x2="293.07" y2="463.52"/><line class="cls-12" x1="272.11" y1="418.2" x2="285.87" y2="426.86"/><line class="cls-12" x1="303.26" y1="426.32" x2="312.31" y2="410.21"/><line class="cls-12" x1="282.67" y1="440.04" x2="271.07" y2="441.22"/><line class="cls-12" x1="297.15" y1="408.75" x2="296.14" y2="429.73"/><polyline class="cls-12" points="314.53 422.93 303.71 433.07 323.76 432.73"/><line class="cls-12" x1="287.13" y1="442.84" x2="278.88" y2="454.59"/><line class="cls-12" x1="297.54" y1="441.31" x2="303.49" y2="455.95"/><line class="cls-12" x1="301.79" y1="439.06" x2="316.51" y2="449.01"/><path class="cls-12" d="M274.61,429.49c4.86.78,5.4,1.68,10.27,2.47"/><path class="cls-12" d="M285,416.29c1.57,4.11,3.4,5.55,5,9.65"/><circle class="cls-11" cx="324.95" cy="432.56" r="4.49"/><circle class="cls-11" cx="272.11" cy="418.2" r="4.49"/><circle class="cls-11" cx="316.54" cy="421.35" r="4.49"/><circle class="cls-11" cx="284.16" cy="414.31" r="4.49"/><circle class="cls-11" cx="297.47" cy="410.19" r="4.49"/><circle class="cls-11" cx="272.68" cy="428.27" r="4.49"/><circle class="cls-11" cx="312.76" cy="409.13" r="4.49"/><circle class="cls-11" cx="278.67" cy="454.93" r="4.49"/><circle class="cls-11" cx="269.94" cy="441.05" r="4.49"/><circle class="cls-11" cx="304.4" cy="457.93" r="4.49"/><circle class="cls-11" cx="318.94" cy="450.54" r="4.49"/><circle class="cls-11" cx="292.86" cy="463.85" r="4.49"/><circle class="cls-8" cx="290.53" cy="431.43" r="4.59"/><circle class="cls-8" cx="302.8" cy="432.02" r="1.49"/><circle class="cls-8" cx="297.18" cy="441.67" r="2.62"/><circle class="cls-9" cx="1402.54" cy="135.19" r="24.87"/><line class="cls-10" x1="1398.79" y1="151.4" x2="1399.09" y2="175.78"/><line class="cls-10" x1="1369.15" y1="111.06" x2="1388.82" y2="123.43"/><line class="cls-10" x1="1413.66" y1="122.65" x2="1426.57" y2="99.65"/><line class="cls-10" x1="1384.24" y1="142.25" x2="1367.67" y2="143.93"/><line class="cls-10" x1="1404.93" y1="97.56" x2="1403.48" y2="127.53"/><polyline class="cls-10" points="1429.75 117.81 1414.29 132.3 1442.93 131.81"/><line class="cls-10" x1="1390.61" y1="146.26" x2="1378.83" y2="163.04"/><line class="cls-10" x1="1405.48" y1="144.07" x2="1413.98" y2="164.98"/><line class="cls-10" x1="1411.55" y1="140.85" x2="1432.58" y2="155.07"/><path class="cls-10" d="M1372.73,127.18c7,1.12,7.72,2.41,14.66,3.53"/><path class="cls-10" d="M1387.53,108.33c2.25,5.87,4.87,7.92,7.12,13.79"/><circle class="cls-9" cx="1444.62" cy="131.57" r="6.41"/><circle class="cls-9" cx="1369.15" cy="111.06" r="6.41"/><circle class="cls-9" cx="1432.62" cy="115.56" r="6.41"/><circle class="cls-9" cx="1386.37" cy="105.5" r="6.41"/><circle class="cls-9" cx="1405.39" cy="99.62" r="6.41"/><circle class="cls-9" cx="1369.97" cy="125.45" r="6.41"/><circle class="cls-9" cx="1427.22" cy="98.1" r="6.41"/><circle class="cls-9" cx="1378.53" cy="163.52" r="6.41"/><circle class="cls-9" cx="1366.06" cy="143.7" r="6.41"/><circle class="cls-9" cx="1415.27" cy="167.81" r="6.41"/><circle class="cls-9" cx="1436.05" cy="157.25" r="6.41"/><circle class="cls-9" cx="1398.8" cy="176.26" r="6.41"/><circle class="cls-8" cx="1395.47" cy="129.96" r="6.56"/><circle class="cls-8" cx="1413" cy="130.8" r="2.13"/><circle class="cls-8" cx="1404.96" cy="144.59" r="3.74"/><circle class="cls-9" cx="1630.21" cy="357.98" r="22.66"/><line class="cls-10" x1="1626.78" y1="372.76" x2="1627.06" y2="394.98"/><line class="cls-10" x1="1599.77" y1="335.99" x2="1617.69" y2="347.26"/><line class="cls-10" x1="1640.33" y1="346.56" x2="1652.11" y2="325.59"/><line class="cls-10" x1="1613.53" y1="364.42" x2="1598.43" y2="365.95"/><line class="cls-10" x1="1632.38" y1="323.68" x2="1631.06" y2="351"/><polyline class="cls-10" points="1655 342.14 1640.91 355.35 1667.02 354.91"/><line class="cls-10" x1="1619.33" y1="368.07" x2="1608.59" y2="383.37"/><line class="cls-10" x1="1632.88" y1="366.08" x2="1640.63" y2="385.13"/><line class="cls-10" x1="1638.41" y1="363.14" x2="1657.58" y2="376.1"/><path class="cls-10" d="M1603,350.69c6.33,1,7,2.19,13.37,3.21"/><path class="cls-10" d="M1616.53,333.51c2,5.34,4.43,7.22,6.48,12.56"/><circle class="cls-9" cx="1668.56" cy="354.69" r="5.84"/><circle class="cls-9" cx="1599.77" cy="335.99" r="5.84"/><circle class="cls-9" cx="1657.62" cy="340.1" r="5.84"/><circle class="cls-9" cx="1615.47" cy="330.92" r="5.84"/><circle class="cls-9" cx="1632.8" cy="325.57" r="5.84"/><circle class="cls-9" cx="1600.51" cy="349.1" r="5.84"/><circle class="cls-9" cx="1652.7" cy="324.18" r="5.84"/><circle class="cls-9" cx="1608.32" cy="383.8" r="5.84"/><circle class="cls-9" cx="1596.95" cy="365.74" r="5.84"/><circle class="cls-9" cx="1641.81" cy="387.71" r="5.84"/><circle class="cls-9" cx="1660.74" cy="378.09" r="5.84"/><circle class="cls-9" cx="1626.79" cy="395.42" r="5.84"/><circle class="cls-8" cx="1623.76" cy="353.22" r="5.98"/><circle class="cls-8" cx="1639.73" cy="353.99" r="1.94"/><circle class="cls-8" cx="1632.41" cy="366.55" r="3.4"/></g><g id="lungs"><path class="cls-13" d="M745.21,494.66a3.16,3.16,0,0,0,4.14,2.24c32.95-11.83,90.19-27.29,121.41-38.86,12.47-4.63,25.19-9.39,35.49-17.81,22.59-18.47,28.81-50.42,28.62-79.6A263,263,0,0,0,918,269.75c-15.87-42.11-36.82-80.27-31.72-126.25.17-2.42-2.48-4.28-4.9-4.21s-4.59,1.48-6.58,2.87c-51.28,35.81-95.73,102.78-116.51,161C736.55,364.11,730.36,431.38,745.21,494.66Z"/><path class="cls-13" d="M867.81,543.45c54.07-20.16,73.05-60.1,71.63-111.85a3.9,3.9,0,0,0-7-2.32c-19.92,24.71-42.71,38.44-74.92,48.81-34.44,11.11-71.28,16.93-101.7,36.75a12.35,12.35,0,0,0-4.58,5.38c-12.36,28.59,59.09,31.27,74.17,31.36C838.92,551.67,853.54,548.78,867.81,543.45Z"/><path class="cls-13" d="M927.72,182c-2.21-15.77-8-31.47-18.4-43.4a4.19,4.19,0,0,0-7.1,1.28c-5.3,14.88-4.52,31.69-.29,47,3.58,13,10.36,34.34,20.84,43.34a2.49,2.49,0,0,0,4-1.26C930.65,214.57,929.76,196.53,927.72,182Z"/><path class="cls-13" d="M1175.55,494.66a3.15,3.15,0,0,1-4.13,2.24c-33-11.83-90.2-27.29-121.42-38.86-12.47-4.63-25.19-9.39-35.48-17.81-22.59-18.47-28.81-50.42-28.63-79.6a263,263,0,0,1,16.87-90.88c15.88-42.11,36.82-80.27,31.72-126.25-.16-2.42,2.48-4.28,4.9-4.21s4.59,1.48,6.58,2.87c51.28,35.81,95.73,102.78,116.51,161C1184.22,364.11,1190.4,431.38,1175.55,494.66Z"/><path class="cls-13" d="M1053,543.45c-54.07-20.16-73-60.1-71.63-111.85a3.91,3.91,0,0,1,7-2.32c19.91,24.71,42.7,38.44,74.91,48.81,34.44,11.11,71.28,16.93,101.71,36.75a12.33,12.33,0,0,1,4.57,5.38c12.37,28.59-59.09,31.27-74.17,31.36C1081.84,551.67,1067.22,548.78,1053,543.45Z"/><path class="cls-13" d="M993,182c2.21-15.77,8-31.47,18.4-43.4a4.2,4.2,0,0,1,7.11,1.28c5.29,14.88,4.51,31.69.29,47-3.59,13-10.36,34.34-20.85,43.34a2.49,2.49,0,0,1-4-1.26C990.11,214.57,991,196.53,993,182Z"/><path class="cls-14" d="M964.69,213.28c2.69,15.43.75,31.54,5,46.71,4.12,14.63,15.61,24.92,25,36.31,10.66,13,21.24,26.67,29.43,41.38,4.05,7.28,6.94,15,7.62,23.34.58,7,0,14-.52,21-1,12.94-3.18,30.67,6.91,40.87a.88.88,0,0,0,1.38-1.06c-3.33-6.84-5.73-13-6.13-20.67-.35-6.65.28-13.3.81-19.93,1.11-13.83,1.25-26.93-4.7-39.78-6.33-13.7-16-26.26-25.12-38.16-5-6.49-10.25-12.79-15.68-18.94s-10.92-12.22-14.12-19.83c-6.87-16.32-3.74-34.81-8.13-51.72-.29-1.14-1.93-.64-1.73.48Z"/><path class="cls-14" d="M964.89,212.86c-4.26,15.49-13.76,29.66-24.12,41.73a119.29,119.29,0,0,1-39.31,30.49C885.59,292.71,868.62,297.84,853,306c-12.91,6.75-28.32,16.65-34.62,30.43-.54,1.17,1,2.72,2,1.51,5.2-6.63,9.92-12.93,16.58-18.21a118.84,118.84,0,0,1,22.53-13.64c16.54-7.95,34.21-13.44,50.27-22.41,14-7.81,25.64-18.71,35.56-31.23,9.2-11.59,17.47-24.69,21-39.23a.69.69,0,0,0-1.33-.36Z"/><path class="cls-14" d="M964.76,213.26c2.86,16-5,34.36-13.63,47.46-10.57,16-26.54,27.6-38.52,42.45a158.35,158.35,0,0,0-25.82,46.28c-6.3,17.69-10.2,37-21.28,52.51-11.36,15.92-31.24,25.27-50,17.57-1.06-.43-1.7,1.26-.77,1.82,13.29,8,30.33,2.25,41.67-6.54C871.26,403.28,878,385.29,883.65,368c6.59-20.24,13.88-39.51,26.58-56.83,12.46-17,29.83-29.69,42-46.83,9.78-13.72,18-34.49,14.08-51.48-.24-1-1.78-.59-1.59.44Z"/><path class="cls-14" d="M967.87,217.23c3.73,15.11,9.09,33,19.58,44.94,10.64,12.11,26.74,9.79,40.86,13.91,23.47,6.85,31.53,33.8,42.68,52.7,6,10.26,13.61,19.78,24.7,24.79,1.35.6,2.52-1.39,1.17-2-20.81-9.39-28.14-33.58-38.95-51.82-4.94-8.35-10.93-16.43-19.29-21.61-12.06-7.47-26.51-5.07-39.28-10.12-9.39-3.71-14.61-12.17-18.83-20.86a177.52,177.52,0,0,1-11.32-30.3.69.69,0,0,0-1.32.37Z"/><path class="cls-14" d="M843.93,229.06c-2.93,17.23,3.6,35.33,17.51,46.12s33.2,14.58,49.42,7.24c1.11-.5.15-2.12-1-1.63-15.87,7-35.07,2.89-48.27-7.92a47.43,47.43,0,0,1-16.38-43.44c.13-.87-1.18-1.25-1.33-.37Z"/><path class="cls-14" d="M1052.94,217c13.48,7.34,28.86,19.94,22.31,37.28-2.85,7.57-8.8,13.33-15.62,17.41-5.29,3.17-11.94,4.92-16.71,8.8-.69.57.08,1.53.81,1.39,3.8-.77,7.44-2.94,10.9-4.66a64.94,64.94,0,0,0,11.33-6.85c6-4.75,10.91-11.6,12.43-19.21,3.21-16-11.08-30.11-25-35.16-.59-.21-1,.71-.43,1Z"/><path class="cls-14" d="M1026.19,339.56c3.25,9.57,8,18.65,12.26,27.82,4.91,10.7,8.4,22.18,14,32.53,11.13,20.58,35.12,31,57.63,23.52,1.35-.45.77-2.59-.59-2.14a46.35,46.35,0,0,1-34.13-2c-11.94-5.55-19.42-15.57-24.62-27.39-4-9.06-7.47-18.27-11.69-27.24-4-8.48-8-16.94-11.77-25.54-.27-.62-1.3-.18-1.09.46Z"/><path class="cls-14" d="M827.84,369.19c16.15,9.61,43.22,8,55.85-7.16a.87.87,0,0,0-1.23-1.24c-7.71,6.1-15.33,10.47-25.22,12a47.51,47.51,0,0,1-28.78-4.64.61.61,0,0,0-.62,1.06Z"/><path class="cls-14" d="M1064.56,313.1c13.07-2.5,22.94,7.88,33.52,13.56,7.27,3.91,17.13,7.15,24.55,1.88a.9.9,0,0,0-.91-1.55c-21.69,9.66-36-20.18-57.52-15.22-.87.2-.5,1.49.36,1.33Z"/><path class="cls-14" d="M816.86,283c11.9-10.14,26.12-14.83,41.46-9.9,1.3.42,1.87-1.64.57-2.05-14.79-4.61-32.52-1-42.8,11.17a.55.55,0,0,0,.77.78Z"/><path class="cls-14" d="M882.51,364.57c-6,17.2-.43,42.77,15,53.7.93.65,2-.79,1.21-1.56-13.44-12.93-20.85-33.41-14.81-51.75.3-.9-1.11-1.28-1.41-.39Z"/><path class="cls-14" d="M1037.27,364.05c8.83,8,20.46,13.13,32.52,11.72a57.93,57.93,0,0,0,24.73-9.64c.63-.44.27-1.55-.55-1.3-7.64,2.36-14.11,7.14-22.17,8.65-12.84,2.4-23.61-3.09-33.86-10.29-.51-.36-1.12.44-.67.86Z"/><path class="cls-14" d="M1070.38,267a27.82,27.82,0,0,1,17,8.91c4.49,4.91,5.78,10.25,7.51,16.44a.81.81,0,0,0,1.58-.21c1.13-13.81-13.73-25.36-26.11-26.74-1-.12-1,1.47,0,1.6Z"/><path class="cls-14" d="M1089.26,276.55c6.84.78,13.39.31,20.19,1.83.75.17,1.32-.93.55-1.3-6.42-3.06-13.9-1.41-20.74-1.62-.72,0-.69,1,0,1.09Z"/><path class="cls-14" d="M861.34,303.12a240.26,240.26,0,0,0-9.67,24c-2.57,7.18-4.49,14.77-3,22.39.23,1.21,2.33,1,2.17-.29-2-16.29,7.1-30.56,11.52-45.7.18-.61-.76-1-1-.44Z"/><path class="cls-14" d="M872.71,216.86c-7.56,4.2-14.25,11.18-19.69,17.8-4.18,5.08-8.65,10.9-7.16,17.82.27,1.28,2.23.74,2-.54-1.64-7.68,5.81-15.17,10.51-20.39s10-9.15,15.1-13.76c.51-.46-.14-1.26-.72-.93Z"/><path class="cls-14" d="M830.7,230.38c2.79,2.44,5.54,4.47,7.74,7.52,1.88,2.6,3.13,5.62,5.09,8.15.47.61,1.48-.06,1.26-.74-1.84-5.91-7.6-13.38-13.4-15.83-.54-.23-1.23.43-.69.9Z"/><path class="cls-14" d="M795.8,314.33c4.65,9.48,18,7.37,26.38,5.52a135.85,135.85,0,0,0,17.91-5.31c4.12-1.52,9.73-3.1,13.08-6a.85.85,0,0,0-.83-1.42c-3.75,1.18-7.32,3.36-11,4.76-4.78,1.81-9.64,3.44-14.57,4.81-8.62,2.41-24,6.78-29.8-3a.67.67,0,0,0-1.15.67Z"/><path class="cls-14" d="M902.64,321.44c-2.09,11.45,2.18,28.09,12.7,34.66.64.4,1.52-.42,1.07-1.07-3.48-5-7.56-8.95-9.94-14.76A37.15,37.15,0,0,1,904,321.62c.09-.76-1.21-.94-1.35-.18Z"/><path class="cls-14" d="M966.46,222.19c5.21-16.59,3-36.4,3.34-53.6.39-18.83,1.26-37.64.94-56.49a5.51,5.51,0,0,0-2.72-4.75c-2.4-1.33-3.12-1.35-5.56,0a5.54,5.54,0,0,0-2.73,4.75c-.3,18.85.59,37.66,1,56.49.37,17.18-1.84,37,3.37,53.6a1.24,1.24,0,0,0,2.37,0Z"/><path class="cls-14" d="M964,114.11c.51,18.41,2.26,36.7,1.64,55.15-.28,8.24-.82,16.47-1.57,24.67-.77,8.51-4.64,20.66-1.32,28.63a2.69,2.69,0,0,0,4.83.63c4.82-6.9,3.45-18.37,3.83-26.53.42-9.13.57-18.26.34-27.4-.47-18.52-1.68-37.28-4.89-55.54-.28-1.63-2.91-1.24-2.86.39Z"/></g><g id="nurse"><rect class="cls-5" x="1196.54" y="282.78" width="6.22" height="11.61" transform="translate(28.75 677.73) rotate(-31.91)"/><path class="cls-15" d="M1193.94,285.3l-9.56-1c-2.17-.23-4.37,2.16-3.42,3.7l11.55,18.54c1,1.61,4.3.52,4.89-1.61l2.68-9.77"/><path class="cls-15" d="M1416.72,387c-28.42,11.11-54,20.18-83.57,27.7a4.86,4.86,0,0,1-2.54,0c-4.68-1.3-8.65-4.53-12.39-7.69a762.66,762.66,0,0,1-79.55-78c.72-.85,1.44-1.71,2.14-2.58q1.38-1.68,2.7-3.41A163.8,163.8,0,0,0,1255,306.07c.32-.51.61-1,.91-1.52,26.89,21.34,54.6,39.14,86.12,52.76,21.44-7.66,39.11-16.23,61.17-21.87,11.08-2.83,22.55-6.29,33.9-7.81,10.14-1.36,16.18,3.66,30.43,8.21-1.94,5.67-3.93,11.54-5.54,16.25-3.3,11.07,20.26,10.87,26.77,8.62l2.2-2.06c.27-3.89.54-10.26.88-17.14a206.8,206.8,0,0,1,41,16.88,29.25,29.25,0,0,1,12.33,12.93q14,28.73,27.28,57.79c5.17,11.37,10.24,22.79,15,34.34,3.29,8,7.8,16,8.61,24.73,1.16,12.48-5.65,12.65-16.29,14.51-15.35,2.68-43.86-1.13-67-5.6-9.92-1.92-18.84-4-25.31-5.67,0-.92.07-1.84.11-2.76q.51-13.73,1.05-27.44l1.18,0h.05c3-.13,11-.49,15.44-.89l.33,0c3.84-.36,21.47-.2,34.91.12-10.76-16.53-23.3-43.61-30.5-60.44a.71.71,0,0,0-1.34.11c-5.56,19.13-7.31,39.8-4.93,56.2l-.23,0a76.59,76.59,0,0,1-24.87,3.66l0,.21a147.12,147.12,0,0,1-42.1-12.08c-2.56-1.17-5.74-2.32-8.31-1.81a2.06,2.06,0,0,0-1,3.46,17.26,17.26,0,0,0,9.31,4.84v0a61.39,61.39,0,0,0-16.41-.92c1.77-2.25,3.56-4.38,5.32-6.38l-.41.42c-.45-6.83-.88-18.5-1.33-25.32-6.48-1.08-10.66-7.74-11.75-14.22A29.42,29.42,0,0,1,1416.72,387Z"/><path class="cls-16" d="M1576.2,941.22l.21,1.12c.73,4.35-68.66,34.91-84.24,42.51a2.57,2.57,0,0,1-3.62-2.91A129.63,129.63,0,0,1,1510,935.88c1.89-2.57,3.89-5.09,5.68-7.73-2.64-7-5.26-14.93-7.88-21.89.53,1.4,29.55-13.35,32-14.58,3.4-1.71,13.68-6.08,13.68-6.08S1573.57,927.43,1576.2,941.22Z"/><path class="cls-17" d="M1556.09,885.28l-2.37,1.31c-15.49,8.46-30.57,14.43-45.93,20.67q-5,2-10,4.13c-15-31.34-31.23-62.61-46.58-93.79-2.93-41.85-5.47-83.77-6.3-125,0-2.77,1.49-6.52,2.62-9.05,6.27-14.09,13.31-26.83,20.4-40.54q.48,10.29.36,20.58a11.81,11.81,0,0,0,.81,4.48C1497.08,739.22,1528,814,1556.09,885.28Z"/><path class="cls-18" d="M1457.53,300.11c-1.83,6.13-2.32,12.4.11,18.63a13.17,13.17,0,0,0,7,7.15l-.32.71c-7.49,2.65-16.65-2.28-21.11-8.88-1.91-2.83-2.94-5.72-1.11-8.6a20.66,20.66,0,0,1,2.77-3c4.67-4.87,5-12.27,6.92-18.75,4.08-14.05,17.37-25.31,32-25.72s29,11.05,30.75,25.58c1.09,9.21-.12,17.36,4.7,25.81,1.86,3.27,4.39,6.79,3.4,10.43a8.06,8.06,0,0,1-5.19,5.08c-7.81,2.88-16.91,3.79-25,1.56.4-6.57.89-12.59,1.5-16.29,3.23-1,6.61-2.16,8.51-5.19a5.5,5.5,0,0,0,.37-5.52c-1.53-2.8-4.86-1-7.95-.5a4.19,4.19,0,0,1-3.15-.82c-7.94-6-21.77-15-24.13-23.65C1464.19,285.05,1459.82,292.48,1457.53,300.11Z"/><path class="cls-16" d="M1509.92,323.09l0,0c-7.41,4.94-12.79-1.65-16.13-8-.53,3.73-1,9.15-1.31,15,8.1,2.23,17.2,1.32,25-1.56a9.66,9.66,0,0,0,3.52-2.27,19.85,19.85,0,0,1-6.73-3.47A3.2,3.2,0,0,0,1509.92,323.09Z"/><path class="cls-16" d="M1460.33,322.86a16.58,16.58,0,0,1-12.6-5.28,26.81,26.81,0,0,1-5.47-8.63,1.09,1.09,0,0,0-.13.17c-1.83,2.88-.8,5.77,1.11,8.6,4.46,6.6,13.62,11.53,21.11,8.88l.32-.71A13.63,13.63,0,0,1,1460.33,322.86Z"/><path class="cls-15" d="M1370.17,665.05c-6.56-14.59-13.83-34.14-18.15-46.16a35.72,35.72,0,0,1-.46-22.84c8.51-27,22.24-51.91,34.29-77.43,5.66-12,11.85-23.28,16.55-35.49.79-2,1.7-4.11,2.71-6.17a46.8,46.8,0,0,0,10.52,1.08l12.38.32,0,.36a124,124,0,0,0-16.09,3.06,1.78,1.78,0,0,0-.27,3.35,18,18,0,0,0,4,1c23.73,3.65,48.12-.86,71.88,2.52,0,.92-.08,1.84-.11,2.76,6.47,1.7,15.39,3.75,25.31,5.67,1.64,27-4.14,55.08-13.83,80.32-8.68,22.6-20,44.05-31.1,65.57-7.09,13.71-14.13,27.45-20.4,41.54a18.89,18.89,0,0,0-1.62,8.05c.83,41.26,3.37,83.18,6.3,125,2.32,33.14,4.88,66.24,7,98.92-3.57.92-7.2,1.64-10.85,2.22-9.1,1.47-18.39,2.09-27.6,2.7l-19.91,1.31-10,.66C1379,849.06,1369,710.34,1367.09,683.14a29,29,0,0,1,.82-9.23q1.13-4.42,2.26-8.85Z"/><path class="cls-15" d="M1428.05,478.72l0-.36h-.31c0,.14-.08.29-.13.43Z"/><path class="cls-15" d="M1512.81,497.09c-9.92-1.92-18.84-4-25.31-5.67,0-.92.07-1.84.11-2.76-20.62-2.94-41.71.06-62.43-1.47-12.52,44-25.54,88.11-39.28,132.93-4.64,14.56-9.72,29.11-16.68,42.8.32.71.63,1.43,1,2.13h0q-1.14,4.43-2.26,8.85a29,29,0,0,0-.82,9.23c1.9,27.2,11.92,165.92,23.71,240.27l10-.66,19.91-1.31c9.21-.61,18.5-1.23,27.6-2.7,3.65-.58,7.28-1.3,10.85-2.22-2.15-32.68-4.71-65.78-7-98.92-2.93-41.85-5.47-83.77-6.3-125a18.89,18.89,0,0,1,1.62-8.05c6.27-14.09,13.31-27.83,20.4-41.54,11.14-21.52,22.42-43,31.1-65.57C1508.67,552.17,1514.45,524.13,1512.81,497.09Z"/><path class="cls-15" d="M1503.82,456.4c.53,1.29,1,2.59,1.51,3.89-4.4.4-12.39.76-15.44.89h-.05q-5.6-.3-11.17-1l0-.21a76.59,76.59,0,0,0,24.87-3.66l.23,0A.77.77,0,0,0,1503.82,456.4Z"/><path class="cls-19" d="M1470.33,327.15a15.16,15.16,0,0,1-5.66-1.26,13.17,13.17,0,0,1-7-7.15c-2.43-6.23-1.94-12.5-.11-18.63,2.29-7.63,6.66-15.06,10.08-22,2.36,8.65,16.19,17.64,24.13,23.65a4.19,4.19,0,0,0,3.15.82c3.09-.47,6.42-2.3,7.95.5a5.5,5.5,0,0,1-.37,5.52c-1.9,3-5.28,4.19-8.51,5.19-.61,3.7-1.1,9.72-1.5,16.29-.23,3.73-.43,7.64-.62,11.4-.34,6.88-.61,13.25-.88,17.14l-2.2,2.06c-6.51,2.25-30.07,2.45-26.77-8.62,1.61-4.71,3.6-10.58,5.54-16.25,1-2.83,1.91-5.61,2.79-8.18Z"/><path class="cls-14" d="M1483.9,323.12a31.15,31.15,0,0,1-14.65,3.94c.36,0,.71.07,1.08.09v.51c-.58,1.68-1.19,3.45-1.81,5.27C1475.12,333.48,1481.85,330.64,1483.9,323.12Z"/><path class="cls-20" d="M1494.67,307.61c-.24-.75-.93-1.25-2.33-1.29a134.45,134.45,0,0,1-35.06-5.64c-.6-.18-1.29,7.69-1.29,8.3a26.2,26.2,0,0,0,1.65,9.76,13.17,13.17,0,0,0,7,7.15,15.16,15.16,0,0,0,5.66,1.26v.17c0,.07,10.28-2.64,11.2-3.16,4-2.27,8.3-5.53,10.58-9.61C1493,313,1495.27,309.5,1494.67,307.61Z"/><path class="cls-19" d="M1409,469.43c-2.92,0-6,0-8.64-1.16-.45-.2-.95-.5-1-1a1.33,1.33,0,0,1,.45-.9c2.73-2.89,7.07-3.42,11-3.78.94-.08,1.87-.14,2.81-.18,5.13-.25,10.27,0,15.4-.46l0-.07c-4.65-1.19-9.59-.57-14.41-.27l-.48,0a29.64,29.64,0,0,1-10.48-.92,1.85,1.85,0,0,1,0-3.5,61.94,61.94,0,0,1,32.85-2.64v0a17.26,17.26,0,0,1-9.31-4.84,2.06,2.06,0,0,1,1-3.46c2.57-.51,5.75.64,8.31,1.81a147.12,147.12,0,0,0,42.1,12.08q5.57.74,11.17,1l-1.18,0q-.53,13.72-1.05,27.44c-23.76-3.38-48.15,1.13-71.88-2.52a18,18,0,0,1-4-1,1.78,1.78,0,0,1,.27-3.35,124,124,0,0,1,16.09-3.06l0-.36-12.38-.32a46.8,46.8,0,0,1-10.52-1.08c-.56-.14-1.11-.3-1.65-.49-1.06-.37-2.31-1.41-1.72-2.36a2,2,0,0,1,1.3-.72c3.28-.81,6.59-1.49,9.92-2.09,1.51-.28,3-.63,4.55-.84a29.4,29.4,0,0,1,4-.66l-11.32-.35Z"/><path class="cls-16" d="M1399.8,947.66c.34-7.43.69-16.87,1-24.91l19.91-1.31c9.21-.61,18.5-1.23,27.6-2.7,1.13,22.72,2,43.55,2.63,66.21a1.81,1.81,0,0,1-1.67,1.86c-34.55,2.57-71.15,6.08-101,6.46a2.43,2.43,0,0,1-2-3.89c12.16-16.37,32-30.12,53.1-41.73Z"/><path class="cls-19" d="M1209,266.85a15.41,15.41,0,0,1,9,.18,16.63,16.63,0,0,1,5.21,3.53c8.28,7.48,12.45,18.73,20.44,25.64l11.42,9.87A163.8,163.8,0,0,1,1243.51,323c-6.67-7.29-11.13-12.4-20.55-22.05l-.75-.06c-3.18-.27-7.38-2.6-10.39-3.64a15.66,15.66,0,0,1-6-3.66,1.82,1.82,0,0,1,1-3.05,62.74,62.74,0,0,1,11.72-.62l.45-.75c-1.69-2.76-3.43-5.58-6-7.54s-3.87-2.91-7.07-2.42c-.13,0-11.67,8.08-12.45,8.82-2.66,2.51-2.93-1-3.1-2.59-.51.25-1.94.78-2.42.27a1.27,1.27,0,0,1-.24-.88c0-2.58,1.56-4.89,3.26-6.82C1194.75,273.62,1202,268.53,1209,266.85Z"/><path d="M1462.68,297.05a1.5,1.5,0,0,0,0-3,1.5,1.5,0,0,0,0,3Z"/><path d="M1477.81,300.08a1.5,1.5,0,0,0,0-3,1.5,1.5,0,0,0,0,3Z"/><path class="cls-15" d="M1407.77,469.66a.79.79,0,0,0-.43.11.68.68,0,0,0-.19.41l-.44,2.09c4.48-.74,9.21-1.14,13.6-2.27-1.14-1.29-3.65-.51-5.17-.5C1412.68,469.51,1410.22,469.57,1407.77,469.66Z"/><path class="cls-21" d="M1457.63,356.7c-84.2,104.5-183.38,105.72-232.25-52.73"/><path class="cls-22" d="M1367.91,673.91q22.75-90.09,51.8-178.44"/><path class="cls-23" d="M1505.33,460.29c-.48-1.3-1-2.6-1.51-3.89"/><path class="cls-23" d="M1470.32,327.66c-2.64,7.71-5.92,17.37-8.33,24.43-3.16,10.57,18.22,10.86,25.8,8.9a3.76,3.76,0,0,0,1.63-.91h0a5.28,5.28,0,0,0,1.67-3.54c.37-6.43.79-17,1.37-26.43.4-6.57.89-12.59,1.5-16.29"/><path class="cls-23" d="M1484,322.6c-13,8.75-23.52,3.45-26.38-3.87-5.47-14,3.79-28.13,10-40.59"/><path class="cls-23" d="M1494.88,302.6c3.09-.46,6.43-2.3,8,.51a5.52,5.52,0,0,1-.37,5.52c-1.9,3-5.28,4.19-8.52,5.19"/><path class="cls-23" d="M1457.93,300.58c2,1.64,4.7,2.27,7.27,2.79a158.55,158.55,0,0,0,29.14,3.15"/><path class="cls-23" d="M1504,457.54c-2.66-16.6-1-37.86,4.74-57.49a.71.71,0,0,1,1.34-.11c7.2,16.83,19.74,43.91,30.5,60.44"/><path class="cls-23" d="M1487.5,491.42c6.47,1.7,15.39,3.75,25.31,5.67,23.11,4.47,51.62,8.28,67,5.6,10.64-1.86,17.45-2,16.29-14.51-.81-8.73-5.32-16.76-8.61-24.73-4.76-11.55-9.83-23-15-34.34q-13.21-29.1-27.28-57.79a29.25,29.25,0,0,0-12.33-12.93,206.8,206.8,0,0,0-41-16.88"/><path class="cls-23" d="M1342,357.31c21.43-7.66,39.11-16.23,61.16-21.87,11.09-2.83,22.56-6.3,33.91-7.82,10.21-1.36,15.26,3.73,29.71,8.31"/><path class="cls-23" d="M1414.2,461.65c-.18.25-.35.51-.53.77"/><path class="cls-23" d="M1423.7,422.39c.45,6.82.88,18.49,1.33,25.32l.41-.42c-1.76,2-3.55,4.13-5.32,6.38"/><path class="cls-23" d="M1412.94,367.89c2.12,4.52,4.14,11.06,7,15.15"/><path class="cls-23" d="M1420,383a29.34,29.34,0,0,0-8,25.13c1.08,6.47,5.27,13.13,11.74,14.21"/><path class="cls-23" d="M1487.5,491.42c0-.92.07-1.84.11-2.76q.51-13.73,1.05-27.44l1.18,0c3-.13,11.07-.49,15.49-.89l.33,0c3.84-.36,21.47-.2,34.91.12,3.24.08,6.23.16,8.73.25"/><path class="cls-23" d="M1490.26,461.2a147,147,0,0,1-53.69-13.13c-2.57-1.18-5.74-2.33-8.31-1.81a2.06,2.06,0,0,0-1,3.46,17.2,17.2,0,0,0,11.06,5"/><path class="cls-23" d="M1430,462.16c-4.92-1.55-10.21-.86-15.36-.54l-.48,0a29.64,29.64,0,0,1-10.48-.92,1.85,1.85,0,0,1,0-3.5,61.84,61.84,0,0,1,36.64-1.78"/><path class="cls-23" d="M1429.07,469.45l-17.55.22-2.48,0a22.5,22.5,0,0,1-8.68-1.42c-.45-.2-.95-.5-1-1a1.33,1.33,0,0,1,.45-.9c2.73-2.89,7.07-3.42,11-3.78.94-.08,1.87-.14,2.81-.18,5.13-.25,10.27,0,15.4-.46"/><path class="cls-23" d="M1428,478.36l-12.38-.32a46.8,46.8,0,0,1-10.52-1.08c-.56-.14-1.11-.3-1.65-.49-1.06-.37-2.31-1.41-1.72-2.36a2,2,0,0,1,1.3-.72c1.48-.37,3-.71,4.46-1a113.48,113.48,0,0,1,21.6-2.38"/><path class="cls-23" d="M1428,478.72a122.21,122.21,0,0,0-16.08,3.06,1.78,1.78,0,0,0-.28,3.35,18.1,18.1,0,0,0,4,1c23.8,3.67,48.27-.88,72.11,2.55"/><path class="cls-23" d="M1503.57,456.28a76.67,76.67,0,0,1-24.87,3.66"/><path class="cls-23" d="M1238.67,329a762.66,762.66,0,0,0,79.55,78c3.73,3.16,7.71,6.39,12.38,7.68a5,5,0,0,0,2.55,0c29.69-7.57,55.45-16.71,84.07-27.89"/><path class="cls-23" d="M1255.91,304.55c26.89,21.34,54.6,39.14,86.12,52.76"/><path class="cls-23" d="M1255.91,304.55c-.3.51-.59,1-.91,1.52a165.75,165.75,0,0,1-14.19,20.32c-.7.87-1.42,1.73-2.14,2.58"/><path class="cls-23" d="M1255.14,306.19l-.14-.12-11.42-9.87c-8.63-7.47-12.81-20-22.52-27.37a12.42,12.42,0,0,0-3.14-1.8c-7.12-2.63-13.32,2.89-18.32,7-3.3,2.72-7.74,8.65-9.09,12.7a2,2,0,0,0-.11,1.21c.36,1.16,2.15.89,3,.05s12.32-8.81,12.45-8.83c3.19-.49,4.5.47,7.07,2.43,1.91,1.45,4,5.31,5,7.2a.73.73,0,0,1-.66,1.06,59,59,0,0,0-10.52.65,1.82,1.82,0,0,0-1,3.05,15.66,15.66,0,0,0,6,3.66c3,1,7.21,3.37,10.39,3.64l.75.06c9.42,9.65,13.88,14.75,20.55,22"/><path class="cls-23" d="M1209.58,267.34c-11.08,2.87-14.58,6.34-17.91,10.08a17,17,0,0,0-4,6.29,1.93,1.93,0,0,0,2.51,2.33"/><path class="cls-23" d="M1496.93,305.1a4.35,4.35,0,0,1,1.62-.34,1.48,1.48,0,0,1,1.34.85,1.82,1.82,0,0,1-.2,1.43,5.48,5.48,0,0,1-1.77,2.08"/><path class="cls-23" d="M1467.87,296.17a12,12,0,0,1-2.64,6.48"/><path class="cls-23" d="M1476.57,294.09a5,5,0,0,1,5.44,2"/><path class="cls-23" d="M1465.79,291.83a3.27,3.27,0,0,0-4.26-.41"/><path class="cls-24" d="M1346,990.23q45.16-4.58,90.09-11.24a68.09,68.09,0,0,0,14.62-3.35"/><path class="cls-24" d="M1456,314c-4.42,10.65-3.81,31,1.17,41.3a2.21,2.21,0,0,0,2.38,1.22c21.82-4.13,38.46-23.75,38.86-46"/><circle class="cls-5" cx="1498.55" cy="308.9" r="1.86"/><path class="cls-24" d="M1489.09,979.81c29.41-13.07,58.86-26.62,85.61-44.23"/></g><g id="man"><path class="cls-20" d="M588.13,461l0-.05c-13.32,1.53-25.21,2.61-38.41-.8l-.05-.08c-19,11.87-39.55,18.64-57.9,11.37q-1.22-2.7-2.32-5.43c-19.38-47.73-16.13-104.09,7.73-149.68A22.57,22.57,0,0,1,511.4,305l.77-.2c20.32-5.16,41.57-4.84,62.52-3l.41.09c-2.36,5.53-4.33,10.17-5.31,12.51a3.2,3.2,0,0,0,.39,3.18c9.62,12.78,25.78,10.79,31.36,9.63a3.2,3.2,0,0,0,2.47-2.32,146.62,146.62,0,0,0,2.69-15.19l.55.08c9.91,2.92,23.74,8.32,36.1,18.08a25.17,25.17,0,0,1,8.71,13.23,636.12,636.12,0,0,1,20.49,137,12,12,0,0,1-7.14,11.4,229.48,229.48,0,0,1-33.61,12c-19.78,5.23-45.79,5.73-68.66,6.94q-.72-4-1.34-8-.34-2.21-.66-4.41-1.35-9.44-2.18-18.95c-.16-1.75-.3-3.49-.43-5.24C567.78,468.18,577.84,464.51,588.13,461Zm18-58.42a99.91,99.91,0,0,0,29.06-24.11l1-2.07c3.59-7.59,6.58-14.51,6.19-22.55a1.74,1.74,0,0,0-3.34-.6,87.68,87.68,0,0,0-3.43,11.29l-.67-.17c2.1-8.42,2.29-20.09.48-24.13a1.83,1.83,0,0,0-3.42.3c-1.73,6.33-3.46,16.47-5.21,23.75,2.05-8.81,3.12-19.84,1.48-24.56a2.5,2.5,0,0,0-4.71.07c-.21.66-.4,1.34-.58,2-.76,2.87-1.52,7.28-2.28,11.79.27-4.87-.21-9.94-1.42-13.26a1.78,1.78,0,0,0-3.26-.16c-3.18,6.79-2,19.82-6,26.91L610,367a31.73,31.73,0,0,0-.82-13.57c-1.38-.94-2.94.92-3.51,2.49a55,55,0,0,0-3,12.7,10.74,10.74,0,0,1-3.18,5.86,67.31,67.31,0,0,1-8.65,6.88C596.34,388.06,602,395.17,606.14,402.59Z"/><path class="cls-25" d="M556.3,564.78l-.7,0C550.23,670.66,519.53,777.32,471.84,872c-6.62,13.14-13.64,27.14-19.79,40.49q-9.94-.48-19.86-1.51a372.58,372.58,0,0,1-65.7-12.8q-7.38-2.14-14.68-4.59c41-76.42,69.71-136.43,88.33-210a630.07,630.07,0,0,0,18.55-118.89c1.89-33.41,10.66-70.83,30.74-98.61q1.11,2.73,2.32,5.43c18.35,7.27,38.93.5,57.9-11.37l.05.08c13.2,3.41,25.09,2.33,38.41.8l0,.05c-10.29,3.5-20.35,7.17-29.6,10.8.13,1.75.27,3.49.43,5.24-9.07,1.74-14.06,4.33-21.25,5.07-6,.63-14-.36-19.47,2.65-.63.35-1.32.9-1.27,1.62s1.07,1.27,1.9,1.49l.39.1-.07.29c-8.74.38-16.46,1.13-25.13,2.26a2.5,2.5,0,0,0-1.4.47,1.76,1.76,0,0,0,.21,2.5,4.7,4.7,0,0,0,2.61,1,73.41,73.41,0,0,0,9.25.48v.28c-4.28,0-8.69,0-11.62.23a2,2,0,0,0-.73,3.69,7.41,7.41,0,0,0,1.1.41A59.12,59.12,0,0,0,506.91,501c-4.8.14-10,.29-13.06.43a5.55,5.55,0,0,0-2.53.52,1.9,1.9,0,0,0-1,2.19,2.51,2.51,0,0,0,1.26,1.16,12.42,12.42,0,0,0,6.68,1.42v.1h0a17.84,17.84,0,0,0-2.46.25c-.85.14-1.78.38-2,1.42a2.17,2.17,0,0,0,1.47,2.43c12.37,4.16,30.38,2.11,45.53-4.85a16.71,16.71,0,0,1,2.9-1L561.14,496q.32,2.21.66,4.41.62,4,1.34,8c22.87-1.21,48.88-1.71,68.66-6.94,14.8,138.47,15,279.56-.2,418q-11.86-.08-23.73-.44-33.95-1-67.77-4.41-5.82-.58-11.63-1.24C544.06,802.4,562.3,693,556.3,564.78Z"/><path class="cls-16" d="M668,992.8a2.93,2.93,0,0,1-2.34,4.43c-38.54,2.15-90.36-.27-131.68-5.91,0-1.15,0-1.93,0-2.09-1.09-25.57,2.68-41.06,6.06-75.6Q573.9,917,607.87,918L605,942c11.21,5.3,21.49,12.61,31.62,19.84C648.82,970.52,660.53,980.09,668,992.8Z"/><path class="cls-16" d="M476.59,993.4a2.11,2.11,0,0,1-1.81,3.26c-40.84-1.14-88.47-10.65-129.1-24.1a5.08,5.08,0,0,1-3.33-5.94c5.27-23.87,14.1-47.11,24.14-69.47a372.58,372.58,0,0,0,65.7,12.8,181.91,181.91,0,0,0-9.83,25.1A247.05,247.05,0,0,1,476.59,993.4Z"/><path class="cls-19" d="M620.7,353.63c-.54,3.16-1.07,6.36-1.6,9.11A34.43,34.43,0,0,0,620.7,353.63ZM626.37,366c-.1.41-.21.81-.32,1.21C626.16,366.83,626.26,366.43,626.37,366Zm0-.2c.09-.34.18-.69.26-1.05C626.6,365.11,626.51,365.46,626.42,365.81Zm8.52-1.43.67.17A87.68,87.68,0,0,1,639,353.26a1.74,1.74,0,0,1,3.34.6c.39,8-2.6,15-6.19,22.55l-1,2.07a99.91,99.91,0,0,1-29.06,24.11c-4.16-7.42-9.8-14.53-15.37-21.2a67.31,67.31,0,0,0,8.65-6.88,10.74,10.74,0,0,0,3.18-5.86,55,55,0,0,1,3-12.7c.57-1.57,2.13-3.43,3.51-2.49A31.73,31.73,0,0,1,610,367l.11.06c4-7.09,2.78-20.12,6-26.91a1.78,1.78,0,0,1,3.26.16c1.21,3.32,1.69,8.39,1.42,13.26.76-4.51,1.52-8.92,2.28-11.79.18-.66.37-1.34.58-2a2.5,2.5,0,0,1,4.71-.07c1.64,4.72.57,15.75-1.48,24.56,1.75-7.28,3.48-17.42,5.21-23.75a1.83,1.83,0,0,1,3.42-.3C637.23,344.29,637,356,634.94,364.38Z"/><path class="cls-19" d="M514.22,500.78c-2,.08-4.53.15-7.21.23A69.44,69.44,0,0,0,514.22,500.78Zm5-12.8-.39-.1c-.83-.22-1.84-.63-1.9-1.49s.64-1.27,1.27-1.62c5.44-3,13.46-2,19.47-2.65,7.19-.74,12.18-3.33,21.25-5.07q.82,9.51,2.18,18.95l-17.41,9.05a16.71,16.71,0,0,0-2.9,1c-15.15,7-33.16,9-45.53,4.85a2.17,2.17,0,0,1-1.47-2.43c.22-1,1.15-1.28,2-1.42a17.84,17.84,0,0,1,2.46-.25h0v-.1a12.42,12.42,0,0,1-6.68-1.42,2.51,2.51,0,0,1-1.26-1.16,1.9,1.9,0,0,1,1-2.19,5.55,5.55,0,0,1,2.53-.52c3.08-.14,8.26-.29,13.06-.43a59.12,59.12,0,0,1-13.43-1.46,7.41,7.41,0,0,1-1.1-.41,2,2,0,0,1,.73-3.69c2.93-.18,7.34-.19,11.62-.23v-.28a73.41,73.41,0,0,1-9.25-.48,4.7,4.7,0,0,1-2.61-1,1.76,1.76,0,0,1-.21-2.5,2.5,2.5,0,0,1,1.4-.47c8.67-1.13,16.39-1.88,25.13-2.26Z"/><path class="cls-19" d="M590,256.07l-.12-.73a19.43,19.43,0,0,1,6.5-28.53c7.06-3.8,15.83-2.86,23.32,0s14.83,2.19,19.55,8.67c4.45,6.1,13.84,19,4.32,25.69a11.27,11.27,0,0,1-5,2.06c-10.17,1.38-18.94-13.85-28.68-13.82a4.6,4.6,0,0,0-2.92.84A5.8,5.8,0,0,0,605.7,252l-5,8.57a2.3,2.3,0,0,0,.36,2.8c1.67,1.68,4.65,4.61,6.56,6.2a32.87,32.87,0,0,0,25.88,7.74l.47.23a43,43,0,0,1-11.51,14.39,18.68,18.68,0,0,1-4.91,3,13,13,0,0,1-7.89.3c-1.34,3.85-2.14,9.09-2.93,14.52A146.62,146.62,0,0,1,604,324.85a3.2,3.2,0,0,1-2.47,2.32c-5.58,1.16-21.74,3.15-31.36-9.63a3.2,3.2,0,0,1-.39-3.18c1-2.34,3-7,5.31-12.51,4.21-9.84,9.71-22.48,13.25-29.89l.26-.49a6.77,6.77,0,0,1-3.54-5,11,11,0,0,1,2.57-8.05A11.78,11.78,0,0,1,590,256.07Z"/><path class="cls-14" d="M597.9,294.69c2.83,3.71,6.37,6.67,9.91,8a51.74,51.74,0,0,1,1.82-7.53c.22.06.45.09.67.14-7.52-1.87-10.5-13.08-14-19.94a21.88,21.88,0,0,0-1.39-2.39,1.2,1.2,0,0,0-.66-.56c-.62-.16-1.08.56-1.3,1.17s-.37,1.08-.52,1.63C590.72,281.19,593.45,288.86,597.9,294.69Z"/><path class="cls-20" d="M617.52,294.84a18.68,18.68,0,0,0,4.91-3,43,43,0,0,0,11.51-14.39l-.47-.23a32.87,32.87,0,0,1-25.88-7.74c-2-1.66-3.68-3.74-5.74-5.31-.67-.51-1.37-.76-1.84-1.47-.71-1.07-.78-2.36-1.66-3.4a1.48,1.48,0,0,0-.68-.51c-.66-.2-1.25.45-1.6,1a22,22,0,0,0-3.5,10.26c-.12,2.35.79,4.28,1.25,6.51a25.16,25.16,0,0,0,2.42,6.81,27.05,27.05,0,0,0,10,10.43A12.73,12.73,0,0,0,617.52,294.84Z"/><path class="cls-18" d="M639.26,235.49c-4.72-6.48-12.06-5.8-19.55-8.67s-16.26-3.81-23.32,0a19.73,19.73,0,0,0-9.73,12.79c-1.13,5.11-.23,11.69,3.22,15.79a1,1,0,0,0,.52.39,1.11,1.11,0,0,0,.74-.25,4.88,4.88,0,0,1,4.37-.28c.49.21,1.56.73,1.74,1.28.24.73-.26.89-.51,1.56a1.1,1.1,0,0,0,.19,1.18,2.14,2.14,0,0,0,.64.32,3.76,3.76,0,0,1,1.66,1.39c.17.26.44.6.72.46a.62.62,0,0,0,.24-.29c1.61-3.21,3.68-6.08,5.51-9.2a5.8,5.8,0,0,1,1.29-1.69,4.6,4.6,0,0,1,2.92-.84c9.74,0,18.51,15.2,28.68,13.82a11.27,11.27,0,0,0,5-2.06C653.1,254.5,643.71,241.59,639.26,235.49Z"/><path class="cls-19" d="M609.91,249.42c9.74,0,18.51,15.2,28.68,13.82a48,48,0,0,1-4.65,14.25l-.47-.23a32.87,32.87,0,0,1-25.88-7.74c-1.91-1.59-4.89-4.52-6.56-6.2a2.3,2.3,0,0,1-.36-2.8l5-8.57a5.8,5.8,0,0,1,1.29-1.69A4.6,4.6,0,0,1,609.91,249.42Z"/><line class="cls-26" x1="504.47" y1="336.78" x2="516.77" y2="353.93"/><line class="cls-26" x1="639.24" y1="474.46" x2="660.13" y2="463.84"/><line class="cls-26" x1="585.52" y1="339.97" x2="572.73" y2="356.3"/><line class="cls-26" x1="508.69" y1="440.09" x2="529.69" y2="450.03"/><line class="cls-26" x1="642.96" y1="391.09" x2="660.13" y2="409.1"/><path class="cls-24" d="M379.81,901.75a1459.81,1459.81,0,0,0,71.77-169.2c7.2-20.48,14-41.22,17.72-62.6,8.93-51,.63-105,18.07-153.74"/><path class="cls-24" d="M343.79,960.47c45.47,13.16,86.48,27.35,133.06,34.67"/><path class="cls-24" d="M533.85,980.18c42.19,7.32,88.64,14,134,15.9"/><path class="cls-23" d="M513.38,416.07c12.81-7,23.08-13.73,36.52-20.56C560,390.36,572,385.6,588.11,378.2"/><path class="cls-23" d="M491.75,471.45c43,17.05,98.33-43.07,116.28-65.21"/><path class="cls-23" d="M558.53,471.81a736.91,736.91,0,0,1,82.3-26.61"/><path class="cls-23" d="M432.19,910a181.91,181.91,0,0,0-9.83,25.1"/><path class="cls-23" d="M540.1,913.63c-3.38,34.54-7.15,50-6.06,75.6,0,.16,0,.94,0,2.09"/><path class="cls-23" d="M607.87,918,605,942"/><path class="cls-23" d="M422.36,935.05a247.29,247.29,0,0,1,54.23,58.36,2.1,2.1,0,0,1-1.81,3.26C434,995.53,386.31,986,345.68,972.56a5.08,5.08,0,0,1-3.33-5.94c5.28-23.87,14.1-47.11,24.14-69.47"/><path class="cls-23" d="M534,991.32c41.32,5.65,93.14,8.06,131.68,5.92a2.93,2.93,0,0,0,2.34-4.43c-7.51-12.72-19.22-22.28-31.4-31C626.51,954.61,616.23,947.3,605,942"/><path class="cls-23" d="M608,406.24c-.58-1.22-1.22-2.44-1.89-3.65-4.16-7.42-9.8-14.53-15.37-21.2l-2.66-3.19"/><path class="cls-23" d="M607.25,309.74c9.91,2.92,23.74,8.32,36.1,18.08a25.17,25.17,0,0,1,8.71,13.23,636.12,636.12,0,0,1,20.49,137,12,12,0,0,1-7.14,11.4,229.48,229.48,0,0,1-33.61,12c-19.78,5.23-45.79,5.73-68.66,6.94"/><path class="cls-23" d="M491.75,471.45q-1.22-2.7-2.32-5.43c-19.38-47.73-16.13-104.09,7.73-149.68A22.57,22.57,0,0,1,511.4,305l.77-.2c20.32-5.16,41.57-4.84,62.52-3"/><path class="cls-23" d="M543.09,338.85a232.48,232.48,0,0,1,6.81,57.66"/><path class="cls-23" d="M618.69,451.25c.75-17.63,4.45-37.83,6.62-55.46"/><path class="cls-23" d="M558.53,471.81q1.05,14.35,3.27,28.6.62,4,1.34,8"/><path class="cls-23" d="M634.22,369.68c1.53-5.05,2.67-11.2,4.82-16.42a1.74,1.74,0,0,1,3.34.6c.39,8-2.6,15-6.19,22.55l-1,2.07a99.91,99.91,0,0,1-29.06,24.11"/><path class="cls-23" d="M634.22,369.68c2.32-8.45,3.08-25.24,1.2-29.43a1.82,1.82,0,0,0-3.41.31c-2,7.22-4,19.44-6,26.67"/><path class="cls-23" d="M626.06,367.23c2.5-9.14,4-22.23,2.21-27.49a2.49,2.49,0,0,0-4.7.07c-.22.67-.41,1.34-.58,2-1.63,6.12-3.25,19.25-4.87,25.37"/><path class="cls-23" d="M618.46,364.33c2.79-5.88,3-17.88.82-24a1.77,1.77,0,0,0-3.26-.16c-3.58,7.64-1.64,23.16-7.68,29.26"/><path class="cls-23" d="M590.77,381.39a67.31,67.31,0,0,0,8.65-6.88,10.74,10.74,0,0,0,3.18-5.86,55,55,0,0,1,3-12.7c.57-1.57,2.13-3.43,3.51-2.49A31.73,31.73,0,0,1,610,367"/><path class="cls-23" d="M588.35,272c-5.52,11.57-15.82,35.89-18.56,42.4a3.22,3.22,0,0,0,.39,3.18c9.63,12.78,25.78,10.79,31.36,9.64a3.22,3.22,0,0,0,2.47-2.32c2.48-9.42,3-21.7,5.79-29.2"/><path class="cls-23" d="M596.8,256a5,5,0,0,0-5-.81,9.49,9.49,0,0,0-4.13,3.3,10.94,10.94,0,0,0-2.57,8.05c.42,2.86,2.84,5.52,5.73,5.52"/><path class="cls-23" d="M638.63,263.05c-1.64,10.87-7.56,22-16.2,28.84a19.07,19.07,0,0,1-4.91,3c-5.52,2.08-12-.28-16.13-4.48s-6.39-9.91-8-15.59"/><path class="cls-23" d="M633.47,277.26a32.9,32.9,0,0,1-25.88-7.73c-1.91-1.6-4.89-4.53-6.56-6.21"/><path class="cls-23" d="M597.42,257.2c-1.68,3-3.85,7.23-4.44,10.59"/><path class="cls-23" d="M517.68,505.68c-12,2.77-16,.41-21.85,1.41-.85.14-1.78.38-2,1.42a2.16,2.16,0,0,0,1.48,2.43c12.36,4.17,30.37,2.11,45.52-4.84a17.62,17.62,0,0,1,2.9-1.05l17.42-9"/><path class="cls-23" d="M559,477.06c-9.07,1.73-14.06,4.32-21.25,5.07-6,.62-14-.36-19.46,2.64-.64.35-1.33.9-1.28,1.63s1.07,1.27,1.9,1.48c2.23.58,6.3,1.58,9.19,3.36"/><path class="cls-23" d="M519.19,488.28c-8.74.37-16.46,1.12-25.13,2.25a2.59,2.59,0,0,0-1.4.48,1.76,1.76,0,0,0,.21,2.5,4.78,4.78,0,0,0,2.62,1,89.2,89.2,0,0,0,18.41,0"/><path class="cls-23" d="M514.4,495c-5.44.39-15.87.16-21.29.48a2,2,0,0,0-.72,3.7,8.06,8.06,0,0,0,1.09.41c5.31,1.52,17,1.87,22.41,1"/><path class="cls-23" d="M515.38,500.73c-5.17.24-16.35.47-21.53.71a5.43,5.43,0,0,0-2.53.53,1.89,1.89,0,0,0-1,2.19,2.53,2.53,0,0,0,1.26,1.15,12.54,12.54,0,0,0,7.53,1.34"/><path class="cls-23" d="M549.7,460.17c13.2,3.4,25.09,2.33,38.41.79"/><path class="cls-23" d="M587.78,264.68a4.74,4.74,0,0,1,4.8-5.3"/><path class="cls-23" d="M626.52,270.35l-.49,6.47"/><path class="cls-23" d="M613.18,265.77a6.21,6.21,0,0,1,5.24,1.4"/><path class="cls-23" d="M630.24,270.87a5.3,5.3,0,0,1,4.81.29"/><path class="cls-23" d="M612.4,261.05c2,.11,6,0,9.6,2.71"/><path class="cls-23" d="M629.39,266a25.83,25.83,0,0,1,8.09.26"/><line class="cls-27" x1="666.46" y1="304.67" x2="698.96" y2="318.98"/><line class="cls-27" x1="655.64" y1="318.73" x2="668.46" y2="330.73"/><line class="cls-27" x1="666.98" y1="287.63" x2="690.52" y2="289.49"/></g></svg>