<svg xmlns="http://www.w3.org/2000/svg" viewBox="0 0 1920 1080"><defs><style>.cls-1{fill:#f7f8fa;}.cls-13,.cls-2{fill:#fff;}.cls-16,.cls-2{stroke:#31434d;}.cls-16,.cls-2,.cls-8,.cls-9{stroke-linecap:round;stroke-miterlimit:10;}.cls-3{fill:#7b176e;}.cls-4{fill:#53bcf7;}.cls-5{fill:#276ce4;}.cls-6{fill:#0f379a;}.cls-7{fill:#f6a001;}.cls-16,.cls-8,.cls-9{fill:none;}.cls-8{stroke:#f6a001;stroke-width:4px;}.cls-9{stroke:#fff;}.cls-10{fill:#c6d6fe;}.cls-11{fill:#09102d;}.cls-12{fill:#2464d4;}.cls-14{fill:#052251;}.cls-15{fill:#ffe1cf;}</style></defs><title>2019-nCov9</title><g id="background"><path class="cls-1" d="M1590.24,64.75H544.05c-127.53,0-230.91,121.65-230.91,271.71h0a311.34,311.34,0,0,0,21.26,114h-4.64c-127.53,0-230.91,121.65-230.91,271.71h0c0,150.06,103.38,271.7,230.91,271.7H1376c127.53,0,230.91-121.64,230.91-271.7h0a311.34,311.34,0,0,0-21.26-114h4.64c127.53,0,230.91-121.65,230.91-271.71h0C1821.15,186.4,1717.77,64.75,1590.24,64.75Z"/><rect class="cls-2" x="274.86" y="464.31" width="34.91" height="128.63"/><rect class="cls-3" x="1676.55" y="361.63" width="56.31" height="34.9"/><rect class="cls-2" x="150.16" y="586.16" width="42.91" height="145.54" transform="translate(-487.31 830.54) rotate(-90)"/><rect class="cls-3" x="309.94" y="625.53" width="31.87" height="31.87"/><rect class="cls-2" x="1715.43" y="606.6" width="34.87" height="34.87"/><rect class="cls-2" x="1627.2" y="676.68" width="47.65" height="47.65"/><rect class="cls-4" x="1627.27" y="522.55" width="35.42" height="35.42"/><path class="cls-2" d="M308.27,919.82h968.9a27.72,27.72,0,0,1,27.72,27.72v0a0,0,0,0,1,0,0H280.55a0,0,0,0,1,0,0v0A27.72,27.72,0,0,1,308.27,919.82Z"/><path class="cls-2" d="M529.55,397.35V790.8c0,25.32,23.05,45.86,51.48,45.86h13.5C623,836.66,646,816.12,646,790.8V397.35a1.83,1.83,0,0,1,1.87-1.72l9.19-.25c7.93,0,14.32-5.89,13.94-13-.35-6.69-6.82-11.84-14.34-11.84H518.89c-7.52,0-14,5.15-14.34,11.84-.38,7.14,6,13,13.94,13l9.19.25A1.83,1.83,0,0,1,529.55,397.35Z"/><path class="cls-4" d="M542.81,490.79V789.92c0,20.51,17.8,37.14,39.76,37.14H593c22,0,39.76-16.63,39.76-37.14V490.84"/><path class="cls-2" d="M726.41,397.35V790.8c0,25.32,23.05,45.86,51.48,45.86h13.5c28.43,0,51.48-20.54,51.48-45.86V397.35a1.83,1.83,0,0,1,1.87-1.72l9.18-.25c7.94,0,14.33-5.89,14-13-.36-6.69-6.82-11.84-14.34-11.84H715.75c-7.52,0-14,5.15-14.34,11.84-.38,7.14,6,13,13.94,13l9.19.25A1.83,1.83,0,0,1,726.41,397.35Z"/><path class="cls-5" d="M739.67,490.79V789.92c0,20.51,17.8,37.14,39.76,37.14h10.42c22,0,39.76-16.63,39.76-37.14V490.84"/><path class="cls-2" d="M931.82,397.35V790.8c0,25.32,23,45.86,51.48,45.86h13.5c28.43,0,51.48-20.54,51.48-45.86V397.35a1.83,1.83,0,0,1,1.87-1.72l9.18-.25c7.94,0,14.32-5.89,14-13-.36-6.69-6.82-11.84-14.34-11.84H921.16c-7.52,0-14,5.15-14.34,11.84-.38,7.14,6,13,13.94,13l9.19.25A1.83,1.83,0,0,1,931.82,397.35Z"/><path class="cls-6" d="M945.08,490.79V789.92c0,20.51,17.8,37.14,39.75,37.14h10.43c22,0,39.76-16.63,39.76-37.14V490.84"/><circle class="cls-7" cx="303.19" cy="254.31" r="44.31"/><line class="cls-8" x1="296.5" y1="283.19" x2="297.05" y2="326.64"/><line class="cls-8" x1="243.7" y1="211.32" x2="278.73" y2="233.34"/><line class="cls-8" x1="322.99" y1="231.97" x2="346.01" y2="190.97"/><line class="cls-8" x1="270.59" y1="266.89" x2="241.06" y2="269.88"/><line class="cls-8" x1="307.44" y1="187.25" x2="304.86" y2="240.65"/><polyline class="cls-8" points="351.67 223.34 324.13 249.16 375.15 248.29"/><line class="cls-8" x1="281.94" y1="274.03" x2="260.93" y2="303.93"/><line class="cls-8" x1="308.42" y1="270.13" x2="323.58" y2="307.38"/><line class="cls-8" x1="319.24" y1="264.39" x2="356.7" y2="289.73"/><path class="cls-8" d="M250.07,240c12.38,2,13.75,4.28,26.13,6.28"/><path class="cls-8" d="M276.45,206.45c4,10.46,8.67,14.12,12.67,24.57"/><circle class="cls-7" cx="378.17" cy="247.86" r="11.42"/><circle class="cls-7" cx="243.7" cy="211.32" r="11.42"/><circle class="cls-7" cx="356.78" cy="219.34" r="11.42"/><circle class="cls-7" cx="274.38" cy="201.4" r="11.42"/><circle class="cls-7" cx="308.26" cy="190.93" r="11.42"/><circle class="cls-7" cx="245.15" cy="236.94" r="11.42"/><circle class="cls-7" cx="347.17" cy="188.22" r="11.42"/><circle class="cls-7" cx="260.4" cy="304.78" r="11.42"/><circle class="cls-7" cx="238.18" cy="269.47" r="11.42"/><circle class="cls-7" cx="325.87" cy="312.43" r="11.42"/><circle class="cls-7" cx="362.89" cy="293.62" r="11.42"/><circle class="cls-7" cx="296.51" cy="327.48" r="11.42"/><circle class="cls-9" cx="290.6" cy="244.99" r="11.69"/><circle class="cls-9" cx="321.82" cy="246.49" r="3.8"/><circle class="cls-9" cx="307.5" cy="271.05" r="6.66"/><circle class="cls-7" cx="1624.5" cy="239.69" r="27.87"/><line class="cls-8" x1="1620.29" y1="257.85" x2="1620.63" y2="285.18"/><line class="cls-8" x1="1587.08" y1="212.65" x2="1609.11" y2="226.5"/><line class="cls-8" x1="1636.95" y1="225.64" x2="1651.43" y2="199.85"/><line class="cls-8" x1="1603.99" y1="247.6" x2="1585.42" y2="249.49"/><line class="cls-8" x1="1627.17" y1="197.51" x2="1625.55" y2="231.1"/><polyline class="cls-8" points="1654.99 220.21 1637.67 236.45 1669.76 235.9"/><line class="cls-8" x1="1611.13" y1="252.09" x2="1597.92" y2="270.9"/><line class="cls-8" x1="1627.79" y1="249.64" x2="1637.32" y2="273.07"/><line class="cls-8" x1="1634.59" y1="246.03" x2="1658.16" y2="261.97"/><path class="cls-8" d="M1591.09,230.71c7.78,1.26,8.65,2.7,16.43,3.95"/><path class="cls-8" d="M1607.68,209.59c2.52,6.57,5.45,8.88,8,15.45"/><circle class="cls-7" cx="1671.66" cy="235.63" r="7.18"/><circle class="cls-7" cx="1587.08" cy="212.65" r="7.18"/><circle class="cls-7" cx="1658.21" cy="217.69" r="7.18"/><circle class="cls-7" cx="1606.37" cy="206.41" r="7.18"/><circle class="cls-7" cx="1627.69" cy="199.83" r="7.18"/><circle class="cls-7" cx="1587.99" cy="228.77" r="7.18"/><circle class="cls-7" cx="1652.16" cy="198.12" r="7.18"/><circle class="cls-7" cx="1597.58" cy="271.43" r="7.18"/><circle class="cls-7" cx="1583.61" cy="249.23" r="7.18"/><circle class="cls-7" cx="1638.77" cy="276.25" r="7.18"/><circle class="cls-7" cx="1662.05" cy="264.42" r="7.18"/><circle class="cls-7" cx="1620.3" cy="285.72" r="7.18"/><circle class="cls-9" cx="1616.58" cy="233.83" r="7.35"/><circle class="cls-9" cx="1636.22" cy="234.77" r="2.39"/><circle class="cls-9" cx="1627.21" cy="250.22" r="4.19"/><circle class="cls-7" cx="255" cy="762.83" r="25.43"/><line class="cls-8" x1="251.16" y1="779.41" x2="251.48" y2="804.35"/><line class="cls-8" x1="220.85" y1="738.15" x2="240.96" y2="750.8"/><line class="cls-8" x1="266.37" y1="750.01" x2="279.58" y2="726.48"/><line class="cls-8" x1="236.29" y1="770.05" x2="219.34" y2="771.77"/><line class="cls-8" x1="257.44" y1="724.34" x2="255.96" y2="754.99"/><polyline class="cls-8" points="282.83 745.05 267.02 759.87 296.31 759.38"/><line class="cls-8" x1="242.8" y1="774.15" x2="230.75" y2="791.31"/><line class="cls-8" x1="258.01" y1="771.91" x2="266.71" y2="793.29"/><line class="cls-8" x1="264.21" y1="768.62" x2="285.72" y2="783.16"/><path class="cls-8" d="M224.51,754.64c7.1,1.14,7.89,2.46,15,3.6"/><path class="cls-8" d="M239.65,735.36c2.3,6,5,8.1,7.28,14.1"/><circle class="cls-7" cx="298.04" cy="759.13" r="6.55"/><circle class="cls-7" cx="220.85" cy="738.15" r="6.55"/><circle class="cls-7" cx="285.76" cy="742.76" r="6.55"/><circle class="cls-7" cx="238.46" cy="732.46" r="6.55"/><circle class="cls-7" cx="257.91" cy="726.45" r="6.55"/><circle class="cls-7" cx="221.69" cy="752.86" r="6.55"/><circle class="cls-7" cx="280.25" cy="724.9" r="6.55"/><circle class="cls-7" cx="230.44" cy="791.8" r="6.55"/><circle class="cls-7" cx="217.69" cy="771.53" r="6.55"/><circle class="cls-7" cx="268.02" cy="796.19" r="6.55"/><circle class="cls-7" cx="289.27" cy="785.4" r="6.55"/><circle class="cls-7" cx="251.17" cy="804.83" r="6.55"/><circle class="cls-9" cx="247.77" cy="757.48" r="6.71"/><circle class="cls-9" cx="265.7" cy="758.34" r="2.18"/><circle class="cls-9" cx="257.48" cy="772.44" r="3.82"/><circle class="cls-7" cx="1181.98" cy="138.25" r="17.86"/><line class="cls-8" x1="1179.28" y1="149.89" x2="1179.5" y2="167.4"/><line class="cls-8" x1="1158" y1="120.92" x2="1172.12" y2="129.8"/><line class="cls-8" x1="1189.96" y1="129.24" x2="1199.23" y2="112.72"/><line class="cls-8" x1="1168.84" y1="143.32" x2="1156.94" y2="144.52"/><line class="cls-8" x1="1183.69" y1="111.22" x2="1182.65" y2="132.74"/><polyline class="cls-8" points="1201.52 125.76 1190.41 136.17 1210.98 135.82"/><line class="cls-8" x1="1173.41" y1="146.2" x2="1164.95" y2="158.25"/><line class="cls-8" x1="1184.09" y1="144.62" x2="1190.19" y2="159.64"/><line class="cls-8" x1="1188.44" y1="142.31" x2="1203.54" y2="152.52"/><path class="cls-8" d="M1160.57,132.5c5,.8,5.54,1.72,10.53,2.53"/><path class="cls-8" d="M1171.2,119c1.61,4.21,3.49,5.69,5.11,9.9"/><circle class="cls-7" cx="1212.2" cy="135.65" r="4.6"/><circle class="cls-7" cx="1158" cy="120.92" r="4.6"/><circle class="cls-7" cx="1203.58" cy="124.15" r="4.6"/><circle class="cls-7" cx="1170.36" cy="116.92" r="4.6"/><circle class="cls-7" cx="1184.02" cy="112.7" r="4.6"/><circle class="cls-7" cx="1158.58" cy="131.25" r="4.6"/><circle class="cls-7" cx="1199.7" cy="111.61" r="4.6"/><circle class="cls-7" cx="1164.73" cy="158.59" r="4.6"/><circle class="cls-7" cx="1155.78" cy="144.36" r="4.6"/><circle class="cls-7" cx="1191.12" cy="161.67" r="4.6"/><circle class="cls-7" cx="1206.04" cy="154.09" r="4.6"/><circle class="cls-7" cx="1179.29" cy="167.74" r="4.6"/><circle class="cls-9" cx="1176.9" cy="134.49" r="4.71"/><circle class="cls-9" cx="1189.49" cy="135.1" r="1.53"/><circle class="cls-9" cx="1183.71" cy="145" r="2.68"/><circle class="cls-2" cx="605.04" cy="330.66" r="15.07"/><circle class="cls-2" cx="535.37" cy="228.76" r="19.21"/><circle class="cls-2" cx="787.9" cy="335.2" r="9.35"/><circle class="cls-2" cx="739.67" cy="256.31" r="15.03"/><circle class="cls-2" cx="806.43" cy="112.72" r="5.74"/><circle class="cls-2" cx="960" cy="153.92" r="11.47"/><circle class="cls-2" cx="620.7" cy="145.94" r="12.05"/><circle class="cls-2" cx="981.6" cy="336.95" r="8.45"/><circle class="cls-2" cx="1035.02" cy="251.28" r="14.92"/><polygon class="cls-10" points="1158.9 484.45 410.38 484.45 406.65 512.02 1162.62 512.02 1158.9 484.45"/><polygon class="cls-10" points="1167.88 895.06 407.91 895.06 404.29 925.29 1171.51 925.29 1167.88 895.06"/><rect class="cls-10" x="248.24" y="698.18" width="407.21" height="10.71" transform="translate(1155.38 251.69) rotate(90)"/><rect class="cls-10" x="925.91" y="699.17" width="408.23" height="9.75" transform="translate(1834.07 -425.98) rotate(90)"/></g><g id="nurse"><path class="cls-11" d="M1540.87,886a249.35,249.35,0,0,0-10.83-25.5c20.24-8.1,36.66-16.14,52.15-27.23,10.8,17.46,37.64,68.92,35.24,70.37-29,17.5-91.88,47.62-108.14,55.47a2.83,2.83,0,0,1-4-2.82c1.15-12.71,8-24.51,14.7-35.59Q1530.43,903.35,1540.87,886Z"/><path class="cls-11" d="M1334.25,913.37v0q.93-9.44,1.87-18.87a224.78,224.78,0,0,0,61,.37c.82,23.29.46,49.76-2.46,72.09,0,.28-84.45,5.28-131.41,5.94a3.75,3.75,0,0,1-3.4-5.4c5.47-11.31,17.4-19.24,28.49-26Z"/><path class="cls-12" d="M1416.57,726.29c-3.92,54.32-5,112.73-9.52,167q-5,.88-10,1.54a224.78,224.78,0,0,1-61-.37c-4.93-.7-9.85-1.58-14.72-2.61,6.41-69.19,15.09-163.31,28.65-260.16A110,110,0,0,0,1374,631a15.88,15.88,0,0,1,6.78.55,16.3,16.3,0,0,0,4.75.69h.61l.6,0c4-.12,7.9-.08,11.86.07q-.75,26.84-.42,53.69a13.18,13.18,0,0,0,1.18,5.24C1404.67,702.86,1410.44,714.58,1416.57,726.29Z"/><path class="cls-5" d="M1586.16,830.33q-2,1.5-4,2.93c-15.49,11.09-31.91,19.13-52.15,27.23q-5.43,2.16-11.24,4.37c-39.26-45.47-73.29-83.21-102.23-138.57-6.13-11.71-11.9-23.43-17.24-35.07a13.18,13.18,0,0,1-1.18-5.24q-.32-26.84.42-53.69c22.83.91,45.53,5.89,68.37,8.14a205.42,205.42,0,0,0,20.82,1c-.82,2.87-1.56,5.34-2.13,7.27a12.75,12.75,0,0,0,.69,9.17C1515.2,718.74,1554.65,774.49,1586.16,830.33Z"/><path class="cls-5" d="M1397.39,440.58c-.9.09-1.8.19-2.7.32Zm-3.1.37-12.64,1.49c-4.33.51-8.74,1-13,.08a1.66,1.66,0,0,1-1.14-.6c-.51-.82.5-1.72,1.36-2.14a92.33,92.33,0,0,1,22.86-7.69l-21.1,2.46a11.89,11.89,0,0,1-5-.21,2,2,0,0,1-.58-3.48,12.41,12.41,0,0,1,3.36-1.61c6.31-2.19,12.7-4.68,19.18-6.57a69.66,69.66,0,0,1,16.15-3,29.4,29.4,0,0,1-11.72-3.12c-1.36-.68-2.86-1.9-2.53-3.38s2.17-1.92,3.67-2.08q8.83-1,17.69-1.72,22.69-2,45.5-2.65a271.76,271.76,0,0,1,7.25,34.22l-.2,0c-14.72-1.23-28.75,5.54-42.4,11.18a116.6,116.6,0,0,1-15.34,5.28c-8.13,2.11-16.44,2.87-24.29.72a1.18,1.18,0,0,1-.11-2.24c8.3-3,16.74-4.63,25.26-6.94l-.11-.7c-5.15.72-9.31,1.45-14.49,2.18a63.52,63.52,0,0,1-12.52.88,22.64,22.64,0,0,1-8.09-1.91c-.59-1,.72-2.12,1.83-2.59A83.45,83.45,0,0,1,1394.29,441Z"/><path class="cls-5" d="M1176.93,313.72l.45-.16.24.07a146.29,146.29,0,0,0-14,36.26c-10.92-7.82-23.41-13.8-35.5-19.61-6-2.87-11.11-6.53-16.64-10.22-9.85-6.59-18.4-15.54-22.09-26.8a1.3,1.3,0,0,1,1.82-1.56,41.85,41.85,0,0,1,11.5,8.88l.06-.05a91.32,91.32,0,0,1-11.87-17.36c-.52-1-1-2.25-.41-3.19,1-1.48,3.27-.54,4.65.56a84,84,0,0,1,7.71,6.91,56.74,56.74,0,0,0,6.57,7.4,82.65,82.65,0,0,0-6.57-7.4,48.64,48.64,0,0,1-6.31-11.55c-.59-1.57-.9-3.78.61-4.53,1.29-.64,2.75.44,3.79,1.46q9.84,9.69,18.69,20.33l.28-.27a193.24,193.24,0,0,1-14.49-20.3c-1.16-1.84-2.31-4-1.83-6.08,2-1,4.28.59,5.94,2.07L1141,296.7c-2.06-3.4-4.11-5.95-6.17-9.43a6.87,6.87,0,0,1-1.12-2.79,2.32,2.32,0,0,1,1.38-2.45c1-.31,2,.34,2.84,1,6.65,5.05,12.22,11.35,18.26,17.13S1169,311.23,1176.93,313.72Z"/><path class="cls-5" d="M1430.36,307l.28.15a172.05,172.05,0,0,1-20.07,29.19,1.75,1.75,0,0,1-3-.61,167,167,0,0,1-6.27-30.82l.58,0A23.23,23.23,0,0,0,1430.36,307Z"/><path class="cls-13" d="M1408.14,342.36h-.07c-8.21-5.86-14.93-13.87-23.31-22.37a3.68,3.68,0,0,1-.88-2.07c0-1.07,9.09-6.21,12.3-9-4.12-2.19-9.26-6.43-13.38-8.62-.63-.34-1.31-.76-1.47-1.44,4.5-2.82,14.56-5.25,19.06-8.06q.16,7.08.91,14.13a167,167,0,0,0,6.27,30.82,1.75,1.75,0,0,0,3,.61,172.05,172.05,0,0,0,20.07-29.19,133.84,133.84,0,0,0,8.25-18.34c5.12,5.29,13.6,9.58,18.21,15.47a1.11,1.11,0,0,1-.42,1.72c-7.78,3.35-16,5-24.32,6.55,1.85,2.53,5.76,9.15,7.62,11.67a1.77,1.77,0,0,1,.4.84c0,.73-.84,1-1.47,1.38a302.61,302.61,0,0,1-30.75,15.94h0Z"/><path class="cls-4" d="M1379.43,451.34a63.52,63.52,0,0,0,12.52-.88c5.18-.73,9.34-1.46,14.49-2.18l.11.7c-8.52,2.31-17,3.94-25.26,6.94a1.18,1.18,0,0,0,.11,2.24c7.85,2.15,16.16,1.39,24.29-.72l.08.3c-3.47,62.28-11.32,121.33-19.06,174.48l-.6,0h-.61a16.3,16.3,0,0,1-4.75-.69A15.88,15.88,0,0,0,1374,631a110,110,0,0,1-23.92.7c-3-.24-6-.61-9-1.1A880.07,880.07,0,0,1,1379.43,451.34Z"/><path class="cls-4" d="M1387.62,422.68c-.73-14-2.18-29.46-4.37-43.6-8.16-2.13-14.87-8.84-17.94-16.77,0-.1-.07-.19-.1-.29a569.69,569.69,0,0,1-97.78,53.26,7.18,7.18,0,0,1-6-.18,489,489,0,0,1-97.88-65,1.74,1.74,0,0,1,0-.22,146.29,146.29,0,0,1,14-36.26c17.59,4.93,76.15,26.93,88.77,31.7a5.23,5.23,0,0,0,4.62-.46c23.5-14.66,51.7-31.88,75.38-45.59,8-4.67,16.4-9.38,25.62-10.62,8.28-1.11,19.15,0,28.38,2.11-4.5,2.81-14.56,5.24-19.06,8.06.16.68.84,1.1,1.47,1.44,4.12,2.19,9.26,6.43,13.38,8.62-3.21,2.83-12.3,8-12.3,9a3.68,3.68,0,0,0,.88,2.07c8.16,8.5,15.1,16.51,23.31,22.37h.07a215.46,215.46,0,0,1,2.68,66.36l.06.65q-8.85.76-17.69,1.72c-1.5.16-3.33.61-3.67,2.08s1.17,2.7,2.53,3.38a29.4,29.4,0,0,0,11.72,3.12A69.66,69.66,0,0,0,1387.62,422.68Z"/><path class="cls-4" d="M1470.28,346.32l-.35.23q.81,13.9,1.62,27.83c.51,9,1.08,18.15,4.11,26.57l43.19-5.82a.21.21,0,0,0,.11-.35C1515.72,391.56,1487.52,373.78,1470.28,346.32Zm-13.9,60.41q-22.8.69-45.5,2.65l-.06-.65a215.46,215.46,0,0,0-2.68-66.36h0a302.61,302.61,0,0,0,30.75-15.94c.63-.37,1.51-.65,1.47-1.38a1.77,1.77,0,0,0-.4-.84c-1.86-2.52-5.77-9.14-7.62-11.67,8.36-1.57,16.54-3.2,24.32-6.55a1.11,1.11,0,0,0,.42-1.72c-4.61-5.89-13.09-10.18-18.21-15.47,40.9-5.14,55.81,14.83,74.81,35,24.91,26.42,73.14,51.69,73.4,92.14V416a18.87,18.87,0,0,1-10.51,16.81c-23.56,11.63-52.24,17.33-80,16.91a175.66,175.66,0,0,1-32.25-3.43c-.23-1.78-.46-3.56-.72-5.33A271.76,271.76,0,0,0,1456.38,406.73Z"/><path class="cls-4" d="M1496.6,449.71a1011,1011,0,0,1,35.27,183.75c-13.64,5.75-28.85,7.91-44.11,8a205.42,205.42,0,0,1-20.82-1c-22.84-2.25-45.54-7.23-68.37-8.14-4-.15-7.9-.19-11.86-.07,7.74-53.15,15.59-112.2,19.06-174.48l-.08-.3a116.6,116.6,0,0,0,15.34-5.28c13.65-5.64,27.68-12.41,42.4-11.18l.2,0c.26,1.77.49,3.55.72,5.33A175.66,175.66,0,0,0,1496.6,449.71Z"/><path class="cls-13" d="M1425.81,246.06a23.62,23.62,0,0,1,.7,10.42c-.72,3.43-5.14,10.8-8.45,12-2.7,2.93-7.47,4.89-12.29,5.4-4.29.47-8.61-.21-11.57-2.39a9.54,9.54,0,0,1-1.6-1.51c-1.88-2.23-2.82-5.26-3.65-8.13-1.2-4.16-2.4-8.48-3.22-12.81a56.85,56.85,0,0,0,24.93-.43,90.06,90.06,0,0,0,12.29-4.13,2.47,2.47,0,0,1,1.69-.23C1425.35,244.5,1425.63,245.33,1425.81,246.06Z"/><path class="cls-14" d="M1385.73,249c.82,4.33,2,8.65,3.22,12.81.83,2.87,1.77,5.9,3.65,8.13a26.13,26.13,0,0,1-10.31.91c-4.43-.66-8.83-3.65-9.72-8-.79-3.87,1.22-7.68,2.32-11.47,2.4-8.31.45-17.26,1.79-25.81,2.67-17.06,19.59-30.19,36.85-29.95s33.26,12.74,39.07,29c.93,2.59,1.68,5.35,3.48,7.42,2.07,2.36,5.19,3.47,7.7,5.36,8.54,6.46,7.13,20.85-.61,28.27s-19.33,9.18-30,8.63l-.39,0c-.33-6.86-.62-13.3-1.08-21.87l-1.14-.26a7.63,7.63,0,0,0,7.3-7.89c-.34-4.09-5.71-4.3-9.74-3.49,0,0-26-10.93-33.93-23.59a.78.78,0,0,0-1.34.14c-1.38,2.68-5,6.6-5.82,8.67C1383.92,233.28,1384.22,241.18,1385.73,249Z"/><path class="cls-15" d="M1428.08,240.81c4-.81,9.4-.6,9.74,3.49a7.63,7.63,0,0,1-7.3,7.89l1.14.26c.46,8.57.75,15,1.08,21.87.22,4.65.45,9.48.77,15.27,1.84-.31,3.63-.58,5.38-.79a133.84,133.84,0,0,1-8.25,18.34l-.28-.15a23.23,23.23,0,0,1-28.48-2.12l-.58,0q-.75-7-.91-14.13c1.34.3,2.64.63,3.9,1,.76-5.93,1.24-11.89,1.48-17.87,4.82-.51,9.59-2.47,12.29-5.4,3.31-1.19,7.73-8.56,8.45-12a23.62,23.62,0,0,0-.7-10.42c-.18-.73-.46-1.56-1.17-1.82a2.47,2.47,0,0,0-1.69.23,90.06,90.06,0,0,1-12.29,4.13,56.85,56.85,0,0,1-24.93.43c-1.51-7.85-1.81-15.75,1.26-23,.87-2.07,4.44-6,5.82-8.67a.78.78,0,0,1,1.34-.14C1402.11,229.88,1428.08,240.81,1428.08,240.81Z"/><path class="cls-16" d="M1496.6,449.71a1011,1011,0,0,1,35.27,183.75"/><path class="cls-16" d="M1398.57,632.29q-.75,26.84-.42,53.69a13.18,13.18,0,0,0,1.18,5.24c5.34,11.64,11.11,23.36,17.24,35.07"/><path class="cls-16" d="M1341,630.61a880.07,880.07,0,0,1,38.41-179.27"/><path class="cls-16" d="M1341,630.61c3,.49,6,.86,9,1.1A110,110,0,0,0,1374,631a15.88,15.88,0,0,1,6.78.55,16.3,16.3,0,0,0,4.75.69h.61c4.16-.14,8.31-.11,12.46,0,22.83.91,45.53,5.89,68.37,8.14a205.42,205.42,0,0,0,20.82,1c15.26-.09,30.47-2.25,44.11-8"/><path class="cls-16" d="M1464.35,446.28a175.66,175.66,0,0,0,32.25,3.43c27.75.42,56.43-5.28,80-16.91A18.87,18.87,0,0,0,1587.1,416v-.09c-.26-40.45-48.49-65.72-73.4-92.14-19-20.13-33.91-40.1-74.81-35-1.75.21-3.54.48-5.38.79"/><path class="cls-16" d="M1163.25,349.84a489.33,489.33,0,0,0,98.2,65.26,7.16,7.16,0,0,0,6,.18A569.41,569.41,0,0,0,1365.21,362"/><path class="cls-16" d="M1404.29,291.74c-1.26-.34-2.56-.67-3.9-1-9.23-2.12-20.1-3.22-28.38-2.11-9.22,1.24-17.57,5.95-25.62,10.62-23.68,13.71-51.88,30.93-75.38,45.59a5.23,5.23,0,0,1-4.62.46c-12.68-4.79-71.73-27-89-31.77"/><path class="cls-16" d="M1431.66,252.45c.77,14.36,1.08,22.79,1.85,37.14"/><path class="cls-16" d="M1404.29,291.74c.76-5.93,1.24-11.89,1.48-17.87"/><path class="cls-16" d="M1359.81,328.5l5.71,6.7"/><path class="cls-16" d="M1469.93,346.55q.81,13.9,1.62,27.83c.51,9,1.08,18.15,4.11,26.57"/><path class="cls-16" d="M1383.25,379.08c-8.16-2.13-14.87-8.84-17.94-16.77,0-.1-.07-.19-.1-.29-3.23-8.62-2.56-18.37.45-27.07"/><path class="cls-16" d="M1383.25,379.08c2.22,14.32,3.68,30,4.4,44.16"/><path class="cls-16" d="M1464.35,446.28a271.77,271.77,0,0,0-8.39-41,1.42,1.42,0,0,1,1.17-1.8l61.72-8.33a.2.2,0,0,0,.11-.34c-3.24-3.23-31.49-21-48.74-48.55"/><path class="cls-16" d="M1404.36,419.7a29.31,29.31,0,0,1-12.31-3.14c-1.36-.68-2.86-1.9-2.53-3.38s2.17-1.92,3.67-2.08q31.5-3.41,63.19-4.37"/><path class="cls-16" d="M1405.44,419.61c-12.72.23-25,5.47-37,9.64a12.2,12.2,0,0,0-3.35,1.61,2,2,0,0,0,.59,3.49,12.13,12.13,0,0,0,5,.2l29.88-3.48"/><path class="cls-16" d="M1398.9,431a92.48,92.48,0,0,0-30,8.81c-.86.42-1.87,1.32-1.36,2.13a1.68,1.68,0,0,0,1.14.62c4.25.93,8.67.42,13-.09l20.46-2.42"/><path class="cls-16" d="M1401.6,440.25a83.24,83.24,0,0,0-28.44,6.59c-1.1.47-2.41,1.55-1.81,2.59,6.33,2.91,13.69,2,20.6,1,5.25-.74,9.47-1.48,14.72-2.22"/><path class="cls-16" d="M1406.55,449c-8.52,2.31-17,3.94-25.26,6.94a1.18,1.18,0,0,0,.11,2.25c12.91,3.52,27-.83,39.63-6,13.65-5.63,27.68-12.4,42.4-11.18"/><path class="cls-16" d="M1176.93,313.72c-8-2.49-14.72-7.84-20.76-13.61S1144.56,288,1137.91,283c-.83-.63-1.84-1.27-2.84-1a2.32,2.32,0,0,0-1.38,2.45,6.87,6.87,0,0,0,1.12,2.79c2.15,3.64,4.3,6.27,6.45,9.91"/><path class="cls-16" d="M1141.75,297.38l-32.22-28.8c-1.67-1.49-4-3.08-6-2.07-.48,2.13.69,4.24,1.83,6.09a195.83,195.83,0,0,0,14.51,20.29"/><path class="cls-16" d="M1119.63,293.16q-8.84-10.62-18.7-20.33c-1-1-2.49-2.1-3.79-1.46-1.49.75-1.19,3-.6,4.53,3.63,9.53,9.91,17,17.94,23.31"/><path class="cls-16" d="M1110.76,296.57a87.5,87.5,0,0,0-15.61-16c-1.39-1.09-3.69-2-4.65-.55-.62.94-.12,2.19.4,3.19a91.14,91.14,0,0,0,17.32,23.11"/><path class="cls-16" d="M1104.06,302.17a41.17,41.17,0,0,0-12.85-10.46,1.29,1.29,0,0,0-1.82,1.55c3.7,11.25,12.24,20.2,22.09,26.79,5.52,3.7,10.65,7.35,16.65,10.24,12.63,6.07,25.7,12.32,37,20.66"/><path class="cls-16" d="M1163.57,350.11a1.74,1.74,0,0,1,0-.22,146.29,146.29,0,0,1,14-36.26"/><path class="cls-16" d="M1428.08,240.81c4-.81,9.4-.6,9.74,3.49a7.63,7.63,0,0,1-7.54,7.9"/><path class="cls-16" d="M1418.06,268.46c-5.09,5.53-17.57,7.66-23.86,3-3-2.21-4.21-6.06-5.25-9.64"/><path class="cls-16" d="M1439,288.55c-6.17,17.28-16.51,33.7-28.43,47.78a1.74,1.74,0,0,1-3-.61,166.28,166.28,0,0,1-7.17-45.11"/><path class="cls-16" d="M1438.89,288.8c5.12,5.29,13.59,9.58,18.21,15.48a1.11,1.11,0,0,1-.42,1.71c-7.78,3.35-16,5-24.32,6.56,1.85,2.52,5.76,9.14,7.62,11.66a1.67,1.67,0,0,1,.4.85c0,.72-22.45,12.91-32.22,17.31"/><path class="cls-16" d="M1400.39,290.77c-4.5,2.81-14.56,5.25-19.06,8.05.15.7.84,1.11,1.47,1.45,4.12,2.19,9.26,6.43,13.38,8.62-3.2,2.83-12.3,8-12.3,9,0,.76,16,18.58,24.2,24.44"/><path class="cls-16" d="M1408.14,342.33a215.7,215.7,0,0,1,2.69,66.4"/><path class="cls-16" d="M1386.71,632.22c7.74-53.15,15.59-112.2,19.06-174.48"/><path class="cls-16" d="M1401.88,304.87a23.19,23.19,0,0,0,28.47,2.11"/><path class="cls-16" d="M1385.56,249a57,57,0,0,0,25.1-.4,92,92,0,0,0,12.3-4.12,2.39,2.39,0,0,1,1.68-.24c.71.26,1,1.09,1.17,1.82.85,3.41,1.42,7,.7,10.42s-5.15,10.8-8.45,12"/><path class="cls-16" d="M1431.12,242.71a2.49,2.49,0,0,1,1.21,4.84"/><path class="cls-16" d="M1396.4,240.65c-.53,3.32-1.07,5.61-1.6,8.93"/><path d="M1388.5,243.8a1.5,1.5,0,0,0,0-3,1.5,1.5,0,0,0,0,3Z"/><path d="M1404.29,243.18a1.5,1.5,0,0,0,0-3,1.5,1.5,0,0,0,0,3Z"/><path class="cls-16" d="M1402.18,236.61a6.92,6.92,0,0,1,7,1.09"/><path class="cls-16" d="M1391.5,237.09a4.32,4.32,0,0,0-5.38,1.17"/></g></svg>