<svg xmlns="http://www.w3.org/2000/svg" viewBox="0 0 1920 1080"><defs><style>.cls-1{fill:#7b176e;}.cls-18,.cls-2,.cls-5{fill:#fff;}.cls-14,.cls-18,.cls-2,.cls-8{stroke:#31434d;}.cls-15,.cls-16,.cls-17,.cls-19,.cls-2,.cls-8{stroke-linecap:round;}.cls-14,.cls-15,.cls-16,.cls-17,.cls-18,.cls-19,.cls-2,.cls-8{stroke-miterlimit:10;}.cls-3{fill:#53bcf7;}.cls-4{fill:#f7f8fa;}.cls-6{fill:#ffe1cf;}.cls-7{fill:#276ce4;}.cls-14,.cls-15,.cls-16,.cls-17,.cls-19,.cls-8{fill:none;}.cls-9{fill:#31434d;}.cls-10{fill:#dde7fe;}.cls-11{fill:#c6d6fe;}.cls-12{fill:#f6a001;}.cls-13{fill:#052251;}.cls-15{stroke:#bababa;stroke-width:3px;}.cls-16,.cls-19{stroke:#53bcf7;}.cls-16,.cls-17{stroke-width:4px;}.cls-17{stroke:#276ce4;}.cls-19{stroke-width:2px;}</style></defs><title>2019-nCov13</title><g id="background"><rect class="cls-1" x="276.97" y="529.39" width="57.68" height="35.76"/><rect class="cls-2" x="1683.49" y="587.8" width="48.81" height="48.81"/><rect class="cls-3" x="1630.07" y="529.13" width="36.29" height="36.29"/><path class="cls-4" d="M1496.58,109H1187c-31,0-58.87,25.49-78,65.73H590c-118,0-214.49,179.3-214.49,398.45h0C375.48,792.34,472,971.64,590,971.64h716.44c118,0,214.49-179.3,214.49-398.46h0a724.68,724.68,0,0,0-4.56-81.59c47.8-17.27,84.17-95.88,84.17-189.52h0C1600.51,195.88,1553.74,109,1496.58,109Z"/><rect class="cls-2" x="305.81" y="631.84" width="117.87" height="75.31"/><rect class="cls-2" x="1666.53" y="236.85" width="33.28" height="120.21" transform="translate(1980.11 -1386.22) rotate(90)"/><rect class="cls-2" x="212.08" y="492.72" width="33.28" height="101.44" transform="translate(457.43 1086.88) rotate(180)"/><circle class="cls-2" cx="310.17" cy="844.66" r="17.33"/><circle class="cls-2" cx="273.44" cy="744.13" r="11.15"/><circle class="cls-2" cx="386.78" cy="537.38" r="9.89"/><circle class="cls-2" cx="283.14" cy="446.21" r="9.69"/><circle class="cls-2" cx="1661.52" cy="760.87" r="13.31"/><circle class="cls-2" cx="1786.44" cy="481.92" r="10.53"/><circle class="cls-2" cx="1633.76" cy="219.19" r="10.7"/></g><g id="nurse"><path class="cls-5" d="M623.17,431a49.74,49.74,0,0,0,5.79-1.13c1.08-.27,2.42-1,2.13-2.1-.16-.61-.8-.95-1.39-1.18a17.89,17.89,0,0,0-4.85-1.16L628.58,413l19.76-65.62,7.86-26.15,87.92,10-16.83,47.43c-6-3.75-12.89-3.75-23.66-2.89a1.29,1.29,0,0,0-1,.71c-.34.71.34,1.44,1,1.9a46.77,46.77,0,0,0,12.05,6.49,50.56,50.56,0,0,0-14-1.47,3.87,3.87,0,0,0-2.59.75c-1.21,1.13-.56,3.22.54,4.46,2.39,2.66,6.06,3.44,9.76,4.13-.47-.05-1-.09-1.43-.11a31.32,31.32,0,0,0-9.2,1.25,2,2,0,0,0-.73,3.47c4.16,3.43,9.57,5.46,14.86,7.11l-.22.63c-4.53-1.5-9.49-1.55-14.33-1.05a2.5,2.5,0,0,0-1.53,4.27c4.53,4.35,11.1,5.57,17.1,7.47l.27.09L709.9,427.6l-7.4,20.84-72-6.64-1.28-.11a24.3,24.3,0,0,0,3.43-2.62,1.66,1.66,0,0,0-1.41-2.84c-2.36.38-4.72.73-7.09,1l-.18-.48a28.39,28.39,0,0,0,7.64-3.12,1.26,1.26,0,0,0-.25-2.28,18.32,18.32,0,0,0-6.86-.35l-1.39.12-1.37.11-1.44.12v0l1.41-.14C622.22,431.11,622.69,431,623.17,431Z"/><path class="cls-5" d="M605.35,274.68l.52.05c-1.33,11.36-6.39,21.51-15.5,25.61a10.51,10.51,0,0,1-1.45.54,14.42,14.42,0,0,1-11.68-1.43c-8.21-4.87-11.94-14.38-12-23.79h.35C582.32,276.37,592.2,278.46,605.35,274.68Z"/><path class="cls-6" d="M605.86,261.93a55.91,55.91,0,0,1,0,12.8l-.52-.05c-13.15,3.78-23,1.69-39.73,1h-.35a36.52,36.52,0,0,1,.23-4.19,10.11,10.11,0,0,1,1.94-5.51c3.95-4.68,14.15-2.91,19.58-3.18C593.31,262.48,599.59,262.26,605.86,261.93Z"/><path class="cls-7" d="M733.42,385.64l-1.84-3.54a23.57,23.57,0,0,0-4.29-3.48c-6-3.75-12.89-3.75-23.66-2.89a1.29,1.29,0,0,0-1,.71c-.34.71.34,1.44,1,1.9a46.77,46.77,0,0,0,12.05,6.49,49.53,49.53,0,0,1,4.81,1.48,46.9,46.9,0,0,1-4.81-1.48,50.56,50.56,0,0,0-14-1.47,3.87,3.87,0,0,0-2.59.75c-1.21,1.13-.56,3.22.54,4.46,2.39,2.66,6.06,3.44,9.76,4.13a16.94,16.94,0,0,1,3,.59c-1-.21-2-.4-3-.59-.47-.05-1-.09-1.43-.11a31.32,31.32,0,0,0-9.2,1.25,2,2,0,0,0-.73,3.47A30.55,30.55,0,0,0,704,401.1c1.48.72,4.48,1,5.45,2.14-3.76.08-7.47.37-11.21.76a2.5,2.5,0,0,0-1.53,4.27c4.53,4.35,11.1,5.57,17.1,7.46l.27.1L709.9,427.6l0,0c11.87-3.86,18.24-12.06,19.65-23.94a29.87,29.87,0,0,1,2.32-8.2A20.35,20.35,0,0,0,733.42,385.64Z"/><path class="cls-7" d="M630.28,441.79a10.13,10.13,0,0,1-3.59,2.12c-7.66,3.11-16.6,2.74-24.93,1.64a174.08,174.08,0,0,1-20.49-4C575.11,440,569,438,562.74,437.1a57.15,57.15,0,0,0-19.26.51c1.76-7,4.62-18.08,8.28-22.87a1.28,1.28,0,0,0,.14-.21,197.88,197.88,0,0,0,33.2.11c6-.49,12.68-1,17.89,1.49a1.85,1.85,0,0,1-.16,3.41q-5.15,1.8-10.37,3.29l.21.75c4.39,3,10.15,3.88,15.42,3.27,4.38-.51,9.26-1.57,13.95-1.58.94,0,1.88,0,2.81.13a17.89,17.89,0,0,1,4.85,1.16c.59.23,1.23.57,1.39,1.18.29,1.08-1.05,1.83-2.13,2.1a49.74,49.74,0,0,1-5.79,1.13c-.48.07-.95.14-1.44.18l-1.41.14v0l1.44-.12,1.37-.11,1.39-.12a18.32,18.32,0,0,1,6.86.35,1.26,1.26,0,0,1,.25,2.28,28.39,28.39,0,0,1-7.64,3.12l.18.48c2.37-.26,4.73-.61,7.09-1s1.21,2.24.58,3.4A8.78,8.78,0,0,1,630.28,441.79Z"/><path class="cls-7" d="M694.2,913.17a2.64,2.64,0,0,1-1.87,4.34c-34.21,2.12-61.87,1.21-100-1.42a5.6,5.6,0,0,1-5.2-6c1.08-16.51,2-35.73,2.31-50.45,27.86.44,42.79.57,61.12,0A61.24,61.24,0,0,1,649,875.54C653.54,880.57,683.24,900.33,694.2,913.17Z"/><path class="cls-7" d="M540.36,880.46a175.66,175.66,0,0,1,34.09,28.63,4,4,0,0,1-2.74,6.76c-30.9,1.49-62.48,3.08-93.12-1.78a3.94,3.94,0,0,1-3.26-4.5c2.46-15.72,3.88-38.22,6.05-51.72a414.17,414.17,0,0,0,61.89,1.69A146.47,146.47,0,0,1,540.36,880.46Z"/><path class="cls-3" d="M584,687.35a1467.31,1467.31,0,0,1-28.42,171.53c-4,.27-8.14.5-12.28.66a414.17,414.17,0,0,1-61.89-1.69c-4.53-.51-9-1.11-13.41-1.82,14-88.58,44.53-175.33,41.89-264.9-.82-27.71-4.82-55.3-4.63-83,.13-21.46,3-43.44,11.33-63.06,6.78-.8,15.18-2,23.1-2.85a4,4,0,0,0,3.41-3c.12-.5.26-1,.41-1.6a57.15,57.15,0,0,1,19.26-.51c6.29.91,12.37,2.85,18.53,4.44a174.08,174.08,0,0,0,20.49,4c8.33,1.1,17.27,1.47,24.93-1.64,28.82,78.74,27.87,166.05,27.76,250.32-.08,55,3.18,110.08,7.29,164.95-4,.18-7.65.32-11.21.45-18.33.62-33.26.49-61.12,0l-8.19-.13Q585.1,773.53,584,687.35Z"/><path class="cls-3" d="M589.86,315.44c11.33,1.1,23.3.86,34.09,4.91,13,4.86,17.41,16.1,24.39,27L628.58,413a37.62,37.62,0,0,1-5.41-11.21h-.06A132.4,132.4,0,0,1,622,424.63v.64c-4.69,0-9.57,1.07-13.95,1.58-5.27.61-11-.28-15.42-3.27l-.21-.75q5.24-1.49,10.37-3.29a1.85,1.85,0,0,0,.16-3.41c-5.21-2.53-11.89-2-17.89-1.49a197.88,197.88,0,0,1-33.2-.11,1.28,1.28,0,0,1-.14.21c-3.66,4.79-6.52,15.87-8.28,22.87-.15.56-.29,1.1-.41,1.6a4,4,0,0,1-3.41,3c-7.92.9-16.32,2.05-23.1,2.85-4,.47-7.45.83-9.9,1-18.13.92-36.37-3.76-54.09-7.69A16.85,16.85,0,0,1,442,430.86,19.15,19.15,0,0,1,438.91,420a26.79,26.79,0,0,1,1.2-7.8c7-23,30.8-45.5,47.08-62.29,14.18-14.6,27.5-30.24,46.94-32.83.51-16-4.25-31.47-.62-47.16,4.42-19.14,14.81-36.08,42.18-39.78,17.64-2.39,28.11,14,30.17,31.8-6.27.33-12.55.55-18.84.85-5.43.27-15.63-1.5-19.58,3.18a10.11,10.11,0,0,0-1.94,5.51,36.52,36.52,0,0,0-.23,4.19c0,9.41,3.76,18.92,12,23.79a14.42,14.42,0,0,0,11.68,1.43c.44,6.8.5,7.59,1,14.38Zm-57.05,50.89c-4.51,9.81-13.36,18.77-21.57,25.7-5,4.25-15.4,14.76-19.44,20v.14c11.08-.6,22.08-2,33.15-2.6,2.09-.11,5.33-.4,8.92-.59Q534,387.63,532.81,366.33Z"/><path d="M586.26,272.09h.56a1.15,1.15,0,0,0,.58-.13,1.11,1.11,0,0,0,.48-.31,1.14,1.14,0,0,0,.31-.48,1.08,1.08,0,0,0,.13-.58l-.05-.4a1.39,1.39,0,0,0-.39-.66l-.3-.24a1.54,1.54,0,0,0-.76-.2h-.56a1.06,1.06,0,0,0-.58.13,1.36,1.36,0,0,0-.79.79,1.06,1.06,0,0,0-.13.58l0,.4a1.49,1.49,0,0,0,.39.66l.3.23a1.45,1.45,0,0,0,.76.21Z"/><path d="M600.4,272.09H601a1.15,1.15,0,0,0,.58-.13,1.11,1.11,0,0,0,.48-.31,1.14,1.14,0,0,0,.31-.48,1.08,1.08,0,0,0,.13-.58l-.05-.4a1.39,1.39,0,0,0-.39-.66l-.3-.24a1.57,1.57,0,0,0-.76-.2h-.56a1.06,1.06,0,0,0-.58.13,1.36,1.36,0,0,0-.79.79,1.06,1.06,0,0,0-.13.58l.05.4a1.49,1.49,0,0,0,.39.66l.3.23a1.45,1.45,0,0,0,.76.21Z"/><path class="cls-8" d="M468,856c14-88.58,44.53-175.33,41.89-264.9-.82-27.71-4.82-55.3-4.63-83,.13-21.46,3-43.44,11.33-63.06"/><path class="cls-8" d="M624.17,437.22l-.18-.48"/><path class="cls-8" d="M626.69,443.91c28.82,78.74,27.87,166.05,27.76,250.32-.08,55,3.18,110.08,7.29,164.95"/><path class="cls-8" d="M555.55,858.88A1467.31,1467.31,0,0,0,584,687.35h0q7.35-69.8,8-140.07"/><path class="cls-8" d="M584,687.34h0q1.15,86.11-2.75,172.2"/><path class="cls-8" d="M468,856c28,4.51,59.41,4.7,87.58,2.85"/><path class="cls-8" d="M581.22,859.55c39.21.63,54.4.82,80.52-.37"/><path class="cls-8" d="M648.33,347.36c-7-10.89-11.4-22.14-24.38-27-10.83-4.06-22.82-3.81-34.18-4.92"/><path class="cls-8" d="M491.81,412c4-5.23,14.39-15.74,19.43-20,8.47-7.14,17.59-16.43,22-26.61"/><path class="cls-8" d="M623.55,349.08l-6,5.91c3.88,20.69,7.53,48.82,4.44,69.64"/><path class="cls-8" d="M533.88,409.33q.15-21.52-1.07-43"/><path class="cls-8" d="M721.93,386.88a50,50,0,0,0-20.35-3.52,3.87,3.87,0,0,0-2.59.75c-1.21,1.14-.57,3.22.54,4.46,5.15,5.76,11.41,3,19.68,6.95"/><path class="cls-8" d="M719.38,395.56c-5.41-2.05-7.2-2.81-11.51-3a31,31,0,0,0-9.22,1.24,2,2,0,0,0-.72,3.47c5.11,4.22,12.13,6.34,18.49,8.2"/><path class="cls-8" d="M716.43,405.72c-5.46-3.14-11.93-2.36-18.2-1.72a2.51,2.51,0,0,0-1.53,4.27c4.53,4.35,11.11,5.57,17.11,7.46"/><path class="cls-8" d="M709.93,427.61c11.71-3.81,18.08-11.84,19.59-23.47a27.71,27.71,0,0,1,2.12-8.08,20.26,20.26,0,0,0,1.86-9.23,5.38,5.38,0,0,0-.63-2.25l-.69-1.32a8,8,0,0,0-1.77-2.28c-6.75-6.08-14.1-6.26-26.78-5.25a1.28,1.28,0,0,0-1,.72c-.34.69.28,1.53,1,1.89,6.45,3.44,11.17,6.16,18.37,8.54"/><polyline class="cls-8" points="713.97 416.33 702.5 448.44 630.5 442.01"/><polyline class="cls-8" points="624.85 425.4 656.2 321.21 744.12 331.19 727.27 378.65"/><path class="cls-8" d="M476,412.38c5-.06,10.09.06,15.12-.2,11.3-.57,22.52-2.05,33.81-2.63,5.3-.27,18.1-1.81,25.23.49a3,3,0,0,1,1.57,4.7c-4,5.18-7,17.71-8.69,24.47a4,4,0,0,1-3.41,3c-7.92.91-16.32,2-23.1,2.85-4,.47-7.45.83-9.9,1-18.13.92-36.37-3.76-54.09-7.69A16.85,16.85,0,0,1,442,430.86,19.15,19.15,0,0,1,438.91,420a26.79,26.79,0,0,1,1.2-7.8c7-23,30.8-45.5,47.08-62.29,14.18-14.6,27.5-30.24,46.94-32.83"/><path class="cls-8" d="M588.92,300.88l.94,14.38"/><path class="cls-8" d="M534.13,317.07c.51-16-4.25-31.47-.62-47.16,4.42-19.14,14.81-36.08,42.18-39.78,17.64-2.39,28.11,14,30.17,31.8-6.27.33-12.55.55-18.84.85-5.43.27-15.63-1.5-19.58,3.18a10.11,10.11,0,0,0-1.94,5.51c-1.22,10.67,2.3,22.39,11.74,28a14.33,14.33,0,0,0,13.13.89c12.47-5.61,17.33-22.54,15.49-38.41"/><path class="cls-8" d="M580.59,320.37A706.49,706.49,0,0,1,588,408"/><path class="cls-8" d="M551.77,414.42a184.61,184.61,0,0,0,33.33.22c6-.49,12.68-1,17.89,1.49a1.85,1.85,0,0,1-.17,3.41q-5.4,1.89-10.9,3.45"/><path class="cls-8" d="M543.48,437.61a57.15,57.15,0,0,1,19.26-.51c6.29.91,12.38,2.85,18.53,4.44a170.06,170.06,0,0,0,20.49,4c9.76,1.3,20.33,1.59,28.74-3.53"/><path class="cls-8" d="M611.81,432c3.66.39,6.26-.47,9.92-.88.49,0,1-.11,1.44-.18a49.74,49.74,0,0,0,5.79-1.13c1.08-.27,2.42-1,2.13-2.1-.16-.61-.8-.95-1.39-1.18a17.89,17.89,0,0,0-4.85-1.16c-5.5-.57-11.5.84-16.76,1.45s-12.08-.28-16.47-3.27"/><path class="cls-8" d="M610.08,437.56a64.53,64.53,0,0,0,11.12-.05c1-.08,2-.17,3-.29,2.37-.26,4.73-.61,7.09-1,4-.63,0,5.62-1.85,6.34"/><path class="cls-8" d="M618,437.55a29.49,29.49,0,0,0,3.25-.29,25.56,25.56,0,0,0,2.72-.52,28.39,28.39,0,0,0,7.64-3.12,1.26,1.26,0,0,0-.25-2.28,18.32,18.32,0,0,0-6.86-.35l-1.39.12-1.37.11-10,.81"/><path class="cls-8" d="M591.31,448.14q1.52,31.37.52,62.79"/><path class="cls-8" d="M623.17,401.77c1.19,4.06,3.06,6.88,5.53,10.32"/><path class="cls-8" d="M565.62,275.66c16.7.7,26.59,2.8,39.73-1"/><path class="cls-8" d="M540.15,881.37c.08-.3.15-.6.21-.91a146.47,146.47,0,0,0,2.91-20.92"/><path class="cls-8" d="M650.53,859.63A61.24,61.24,0,0,1,649,875.54c4.52,5,34.22,24.8,45.18,37.63a2.64,2.64,0,0,1-1.87,4.34c-34.22,2.12-61.88,1.2-100-1.42a5.6,5.6,0,0,1-5.2-6c1.08-16.51,2-35.73,2.31-50.45"/><path class="cls-8" d="M536.06,877.78a176.11,176.11,0,0,1,38.4,31.31,4,4,0,0,1-2.75,6.77c-30.9,1.48-62.48,3.06-93.12-1.79a3.92,3.92,0,0,1-3.26-4.49c2.46-15.73,3.88-38.23,6.05-51.73"/><path class="cls-8" d="M594.68,270.05l1.12,5.66"/><path class="cls-8" d="M580.84,267.77a5.44,5.44,0,0,1,5.13-1"/><path class="cls-8" d="M597.79,265.62a5.67,5.67,0,0,1,5.91,1.32"/></g><g id="patient"><circle class="cls-9" cx="1339.17" cy="863.19" r="19.81"/><circle class="cls-10" cx="1339.17" cy="863.19" r="7.73"/><path class="cls-7" d="M1278.74,832.78v2.15a14.18,14.18,0,0,0,8.25,12.88l56.51,26.05a4.66,4.66,0,0,0,6.5-4.29V832.78a6,6,0,0,0-6-6h-59.26A6,6,0,0,0,1278.74,832.78Z"/><circle class="cls-10" cx="1340.27" cy="862" r="3.67"/><rect class="cls-9" x="1284.79" y="815.76" width="20.85" height="11.57"/><rect class="cls-7" x="1283.83" y="774.18" width="22.78" height="42.7"/><circle class="cls-9" cx="834.67" cy="861.93" r="19.81"/><circle class="cls-10" cx="834.67" cy="861.93" r="7.73"/><path class="cls-7" d="M774.23,831.52v2.15a14.17,14.17,0,0,0,8.25,12.88L839,872.6a4.66,4.66,0,0,0,6.5-4.29V831.52a6,6,0,0,0-6-6H780.24A6,6,0,0,0,774.23,831.52Z"/><circle class="cls-10" cx="835.76" cy="860.74" r="3.67"/><rect class="cls-9" x="780.29" y="814.5" width="20.85" height="11.57"/><rect class="cls-7" x="779.33" y="772.92" width="22.78" height="42.7"/><path class="cls-7" d="M813.93,669c-.58,0-2.32,8.49-2.45,9.4-.47,3.35,1,6.11.9,9.25-1.21.11-3.72.33-4.82-.37-.84-.52-.41-.82-.59-1.74-.37-2,0-4.36,0-6.35V669Z"/><path class="cls-11" d="M1184.94,683.42l-.86,2.91c-.1.35-.21.68-.33,1-2.2,6-7.54,10-13.56,10H825.83a14.06,14.06,0,0,1-11.19-5.7,16.51,16.51,0,0,1-2.37-4.34H807v60.23h615.78a20.36,20.36,0,0,0,20.36-20.36V683.42Z"/><polygon class="cls-7" points="1448.15 670.01 1421.55 670.01 1351.36 581.21 1364.3 564.57 1448.15 670.01"/><path class="cls-7" d="M1421.55,669h25.55a14.17,14.17,0,0,1,4.4,10.27v4.49a3.61,3.61,0,0,1-3.61,3.61h-4.78l-259.22.27c.38-1.27,4.86-19.78,5-19.78q9.16-.11,18.32-.16c25.91-.16,51.81.25,77.75.25Z"/><path class="cls-7" d="M1365.35,565.62l-12.94,16.64L1285,669h-50.17a18.13,18.13,0,0,0,4.59-3.71l158.34-193.87,20.86,17.13a5.35,5.35,0,0,1,.87,7.45Z"/><path class="cls-5" d="M1397.77,471.39,1239.43,665.26a18.13,18.13,0,0,1-4.59,3.71h-45.61l8.67-29.27,30.17-.82,9.16-11.48.25.37a7.48,7.48,0,0,0,6.17,3.25,7.86,7.86,0,0,0,2-.26c3-.81,4.45-1.21,30.77-34.39,13.36-16.84,31.31-39.91,53.35-68.59,24-31.21,46.79-58.13,67.64-101.24l2.15-2.7,18,13.16a6.15,6.15,0,0,1,1.13,8.84Z"/><path class="cls-7" d="M829.14,669l-1.61,6L826,680.54a2.74,2.74,0,0,0,.26,2.16h343.5a2,2,0,0,0,.24-.54l3.06-10.32.85-2.87Z"/><path class="cls-5" d="M1182.47,640.11,1173.91,669H829.14l5.68-20.91C931,646.64,1101.23,642.27,1182.47,640.11Z"/><path class="cls-5" d="M764.67,669H709.22l-35.4-3.44,2.69-70.82,88.1,52.91C764.11,649.08,764.42,661.21,764.67,669Z"/><path class="cls-5" d="M819.56,648.27,813.93,669H764.67c-.25-7.76-.56-19.89-.06-21.35l.3.18C765.18,648.61,786.37,648.67,819.56,648.27Z"/><path class="cls-12" d="M824.75,629.16l-5.19,19.11c-33.19.4-54.38.34-54.65-.47-.13-.37-.23-.41-.3-.18l-88.1-52.91h74.74c-2.56,8.34-2.77,16.13,1.64,21,12.85,14.29,47.65,13.34,71.56,13.34Z"/><path class="cls-12" d="M764.67,669H557.58V836.11H807V669Zm28,69.16v81.44H571.93V685.51h220.7v52.62Z"/><polygon class="cls-5" points="757.64 685.46 736.72 685.46 571.88 685.46 571.88 819.51 792.58 819.51 792.58 738.07 792.58 685.18 757.64 685.46"/><path class="cls-5" d="M1201,605.24a14.09,14.09,0,0,0-11.3-5.84h-346c-6.52,0-12.14,4.6-14,11.44l-5,18.32-5.19,19.11L813.93,669l-1.66,6.1-.44,1.62a17.67,17.67,0,0,0-.49,6.73,17,17,0,0,0,.93,3.92,16.51,16.51,0,0,0,2.37,4.34,14.06,14.06,0,0,0,11.19,5.7h344.36c6,0,11.36-4,13.56-10,.12-.33.23-.66.33-1l.86-2.91a136.44,136.44,0,0,0,3.79-14.45h.5l8.67-29.27,5.7-19.22A17.33,17.33,0,0,0,1201,605.24Zm-11.48,11.07-7.06,23.8-7.24,24.41c-2.63,5.36-3.56,11.92-5.23,17.64a2,2,0,0,1-.24.54H826.26a2.74,2.74,0,0,1-.26-2.16l1.53-5.61,1.61-6,5.68-20.91,9.07-33.37a1.86,1.86,0,0,1,.27-.61h345.12A2.76,2.76,0,0,1,1189.53,616.31Z"/><path class="cls-5" d="M1397,417.53c-1.77-1.76-4.17-1.6-6.53-.58a19.7,19.7,0,0,0-5.17,3.47c-21,19.27-41.6,39.15-62.84,58.24q-10.1,9.09-20.42,17.89l-9.12,7.74c-22.61,19.23-40.85,34.86-54.32,46.56-9.08,7.89-16.08,14.06-20.79,18.34-1.66,1.5-3,2.77-4.17,3.84-.66.63-1.24,1.19-1.73,1.68-1.72,1.71-6.29,6.24-2.71,11.49l28,41.2.25.37a7.48,7.48,0,0,0,6.17,3.25,7.86,7.86,0,0,0,2-.26c3-.81,4.45-1.21,30.77-34.39,13.36-16.84,31.31-39.91,53.35-68.59,24-31.21,46.79-58.13,67.65-101.24.19-.4.38-.81.58-1.22A7.05,7.05,0,0,0,1397,417.53ZM1224.63,582.8c3.5-3.27,9.38-8.49,17-15.17,24.49-21.39,67.22-57.74,108.79-92.85a.59.59,0,0,1,.85.8c-37.8,49.55-89.66,116.79-106.64,136.63Z"/><path class="cls-3" d="M881.68,628.38c102.41-5.12,204.81,2.75,306.24-6.65l1.61-5.42a2.76,2.76,0,0,0-.25-2.23H844.16a1.86,1.86,0,0,0-.27.61l-3.46,12.74C854.18,628.32,867.93,629.1,881.68,628.38Z"/><path class="cls-12" d="M881.68,628.38c-13.75.72-27.5-.06-41.25-1l-5.61,20.63c96.14-1.42,266.41-5.79,347.65-7.95l5.45-18.38C1086.49,631.13,984.09,623.26,881.68,628.38Z"/><path class="cls-3" d="M1273.29,540.32c-12.23,10.48-23.06,19.81-31.64,27.31-7.64,6.68-13.52,11.9-17,15.17l6.49,9.54C1248,577.57,1263.09,560.23,1273.29,540.32Z"/><path class="cls-12" d="M1350.44,474.78c-27,22.8-54.48,46.13-77.15,65.54-10.2,19.91-25.26,37.25-42.17,52l13.53,19.87c17-19.84,68.84-87.08,106.64-136.63A.59.59,0,0,0,1350.44,474.78Z"/><path class="cls-3" d="M1209.19,586.2c-3.58-5.25,1-9.78,2.71-11.49.49-.49,1.07-1.05,1.73-1.68a296.78,296.78,0,0,1-52.38,1.22c-10.56,1.65-24.42,7.51-35.06,6.43-10.31-1-20.72-5-27.63-12.63a1.63,1.63,0,0,0-1.62-.5,82.47,82.47,0,0,0-15.84,6.11,2.31,2.31,0,0,1-3.23-2.79c1.81-5.38,6-7.88,11-10.83a59.23,59.23,0,0,1,21.43-7.47c17-2.49,27.84-2.46,45-1.57,24.82-3.65,47.15-8.54,80-13.43l.41-.43c2.78-3.14,5.46-6.34,8-9.65-21.79-3.11-57.58-12.31-74-27l-.49-.28,0,.05c-12.9.38-37.69,2.55-68.71,5.73h0c-75.39,7.73-187.6,21.41-255.37,29.52-25.33,3-52.3,6.76-71.61,23.44-6.86,5.92-17.94,21.62-22.28,35.75-2.56,8.34-2.77,16.13,1.64,21,12.85,14.29,47.65,13.34,71.56,13.34l.3.08,5-18.32c1.85-6.84,7.47-11.44,14-11.44h346a14.09,14.09,0,0,1,11.3,5.84,16.89,16.89,0,0,1,2.72,5.69,132.3,132.3,0,0,0,15.69-9.7Z"/><path class="cls-12" d="M1203.73,610.93a17.62,17.62,0,0,1-.13,9.55l-5.7,19.22,30.17-.82,9.16-11.48-17.81-26.17A132.3,132.3,0,0,1,1203.73,610.93Z"/><path class="cls-5" d="M1196.5,450c-4.55-.87-9-2.93-13.24-5l-2.49-1.22q10.05-16.2,20.12-32.38c5.44-8.75,11.67-18.15,21.49-21.28a29,29,0,0,1,11.25-1,86.76,86.76,0,0,1,10.51,1.68c4.21.87,8.76,2,12.09,4.55-.84,1.48-1.7,3.05-2.62,4.76l.05,0c2.57,9.6,18.3,16.21,30,11l1.26-1.43c.56-2,1.22-4.13,1.95-6.36l.29.1c13.48-2.35,26.85,7.34,32.74,19.69s5.81,26.65,4.5,40.27q-.73,7.65-1.94,15.25-10.1,9.09-20.42,17.89l-9.12,7.74a114.05,114.05,0,0,1-29.53-6.32,2.4,2.4,0,0,1-.4-.17,202.9,202.9,0,0,1-19.25,29.69c-21.79-3.11-57.58-12.31-74-27l-.49-.28Q1183.23,475.31,1196.5,450Z"/><path class="cls-13" d="M1262.94,335a.78.78,0,0,1,0,.16l-.14,0c-4.12-2.79-5.18-8.83-3.13-13.36s6.59-7.55,11.38-8.87,9.86-1.12,14.82-.7,10.16,1.12,14.54,3.6,7.88,7.13,7.6,12.17c4.42.13,9.71.81,11.61,4.8,1.32,2.79.36,6.1-.92,8.92a45.38,45.38,0,0,1-10.92,14.94l-.76.17c-.9-2.33-3.22-4.14-5.63-3.47l-1.71-1.38a15.51,15.51,0,0,1-8.38-11.21s-12-1-18-1.73c-3.75-.47-7.86-1.13-10.3-4Z"/><path class="cls-12" d="M1266.33,374.82a7,7,0,0,0,.71.21c-2.46,6.27-5.92,11.55-10.81,20.29-3.33-2.56-7.88-3.68-12.09-4.55a86.76,86.76,0,0,0-10.51-1.68c5.8-10.63,13-19.92,25.5-21.5A12.22,12.22,0,0,0,1266.33,374.82Z"/><path class="cls-12" d="M1388.65,411.54a9.39,9.39,0,0,1,1.81,5.41,19.7,19.7,0,0,0-5.17,3.47c-21,19.27-41.6,39.15-62.84,58.24q1.2-7.59,1.94-15.25c1.31-13.62,1.4-27.93-4.5-40.27s-19.26-22-32.74-19.69l-.29-.1c2.78-8.41,6.58-18.19,9.12-27,28.43,10.25,58.51,18.13,85.58,30.43C1384.18,408,1386.92,409.24,1388.65,411.54Z"/><path class="cls-6" d="M1183.26,445c4.23,2.08,8.69,4.14,13.24,5q-13.26,25.29-27.23,50.19l0,.05c-12.9.38-37.69,2.55-68.71,5.73,17.82-5,34.88-6,52.33-11.12a11.06,11.06,0,0,0,6.74-5.7C1167.35,473.68,1175,462.11,1183.26,445Z"/><path class="cls-6" d="M1263.38,498a114.05,114.05,0,0,0,29.53,6.32c-22.61,19.23-40.85,34.86-54.32,46.56-9.08,7.89-16.08,14.06-20.79,18.34-1.66,1.5-3,2.77-4.17,3.84a296.78,296.78,0,0,1-52.38,1.22c-10.56,1.65-24.42,7.51-35.06,6.43-10.31-1-20.72-5-27.63-12.63a1.63,1.63,0,0,0-1.62-.5,82.47,82.47,0,0,0-15.84,6.11,2.31,2.31,0,0,1-3.23-2.79c1.81-5.38,6-7.88,11-10.83a59.23,59.23,0,0,1,21.43-7.47c17-2.49,27.84-2.46,45-1.57,24.82-3.65,47.15-8.54,80-13.43l.41-.43c2.78-3.14,5.46-6.34,8-9.65A202.9,202.9,0,0,0,1263,497.8,2.4,2.4,0,0,0,1263.38,498Z"/><path class="cls-6" d="M1263,335c2.44,2.88,6.55,3.54,10.3,4,6,.74,18,1.73,18,1.73a15.51,15.51,0,0,0,8.38,11.21l1.71,1.38c2.41-.67,4.73,1.14,5.63,3.47a5.42,5.42,0,0,1,.24,3.37c-1,3.51-4.76,5.63-8.4,5.87l-.58.38a81,81,0,0,1-2.28,9.94c-2.54,8.83-6.34,18.61-9.12,27-.73,2.23-1.39,4.36-1.95,6.36l-1.26,1.43c-11.69,5.18-27.42-1.43-30-11l-.05,0c.92-1.71,1.78-3.28,2.62-4.76,4.89-8.74,8.35-14,10.81-20.29a7,7,0,0,1-.71-.21,12.22,12.22,0,0,1-7.2-7.23,22.35,22.35,0,0,1-1.37-11.48c1-7.15,4.28-13.84,5.16-21a.78.78,0,0,0,0-.16Z"/><path class="cls-9" d="M1271.75,384.06c6.3-1.05,12.59-5.25,14.68-12.59a36.79,36.79,0,0,1-19.43,3.65c-1.35,3.42-3,4.46-5,8C1265.24,383.25,1268.57,384.85,1271.75,384.06Z"/><circle class="cls-9" cx="932.13" cy="884.72" r="19.81"/><circle class="cls-10" cx="932.13" cy="884.72" r="7.73"/><path class="cls-7" d="M871.69,854.31v2.15a14.18,14.18,0,0,0,8.25,12.88l56.52,26a4.66,4.66,0,0,0,6.5-4.29V854.31a6,6,0,0,0-6-6H877.7A6,6,0,0,0,871.69,854.31Z"/><circle class="cls-10" cx="933.22" cy="883.53" r="3.67"/><rect class="cls-9" x="877.75" y="837.29" width="20.85" height="11.57"/><rect class="cls-7" x="876.79" y="795.71" width="22.78" height="42.7"/><circle class="cls-9" cx="1440.94" cy="882.9" r="19.81"/><circle class="cls-10" cx="1440.94" cy="882.9" r="7.73"/><path class="cls-7" d="M1380.5,852.49v2.15a14.19,14.19,0,0,0,8.25,12.89l56.52,26.05a4.66,4.66,0,0,0,6.5-4.29v-36.8a6,6,0,0,0-6-6h-59.26A6,6,0,0,0,1380.5,852.49Z"/><circle class="cls-10" cx="1442.03" cy="881.71" r="3.67"/><rect class="cls-9" x="1386.56" y="835.47" width="20.85" height="11.57"/><rect class="cls-7" x="1385.6" y="793.9" width="22.78" height="42.7"/><rect class="cls-2" x="805.95" y="751.49" width="610.88" height="43.17"/><path class="cls-8" d="M1253.46,400.36c1-1.81,1.88-3.48,2.77-5,4.89-8.74,8.35-14,10.81-20.29"/><path class="cls-8" d="M1263,334.43c-.74,7.41-4.22,14.31-5.24,21.68s1.53,16.31,8.58,18.71c5.84,2,9.94-.21,18.15-2.05"/><path class="cls-8" d="M1287.15,403.45c13.48-2.36,26.86,7.33,32.75,19.68s5.8,26.66,4.49,40.28c-.53,5.52-1.24,8.93-2.14,14.4"/><path class="cls-8" d="M1180.77,443.79q10.05-16.2,20.12-32.38c5.44-8.75,11.67-18.15,21.49-21.28,7-2.23,14.57-.84,21.76.64,4.21.87,8.76,2,12.09,4.55"/><path class="cls-8" d="M1198.51,446.19q-14.22,27.26-29.27,54.07"/><path class="cls-8" d="M1301.36,353.3c3.51-1,6.84,3.32,5.88,6.84s-4.76,5.63-8.4,5.87"/><path class="cls-8" d="M1253.65,400.12c2.58,9.59,18.32,16.2,30,11l1.27-1.43c3.45-12.52,11.4-30.48,13.36-43.32"/><path class="cls-8" d="M1169.76,500.49c16.39,14.69,52.18,23.88,74,27"/><path class="cls-8" d="M1292.65,504.26a114.65,114.65,0,0,1-29.28-6.28,3.33,3.33,0,0,1-2.1-4c5-20.8,5.77-28.62,14-47.17"/><path class="cls-8" d="M1195.94,450.12c-5.62-1-10-3.81-15.17-6.33"/><path class="cls-8" d="M1213.63,573a296.17,296.17,0,0,1-52.38,1.21c-10.56,1.65-24.42,7.51-35.06,6.43-10.31-1-20.72-5-27.63-12.63a1.64,1.64,0,0,0-1.63-.5,83,83,0,0,0-15.83,6.11,2.31,2.31,0,0,1-3.23-2.79c1.81-5.38,6-7.88,11-10.83a59.23,59.23,0,0,1,21.43-7.47c17-2.49,27.84-2.46,45-1.57,24.82-3.65,47.15-8.54,80-13.43l.41-.43A202,202,0,0,0,1263,497.8"/><path class="cls-8" d="M1296,376.33c28.43,10.25,58.51,18.13,85.58,30.43,2.62,1.19,5.36,2.48,7.09,4.78a9.43,9.43,0,0,1,1.82,5.41"/><path class="cls-8" d="M1233.63,389.09c5.8-10.63,13-19.92,25.5-21.5"/><path class="cls-8" d="M1301.71,356.37a3,3,0,0,1,.6,5.91"/><path class="cls-8" d="M1100.51,506c17.83-5,34.89-6,52.34-11.12a11.11,11.11,0,0,0,6.75-5.72c7.75-15.48,15.36-27.05,23.66-44.15"/><path class="cls-14" d="M1185.14,682.76l-1.06,3.57m0,0c-2,6.61-7.54,11-13.89,11H825.83a14.08,14.08,0,0,1-11.19-5.7,17.32,17.32,0,0,1-2.81-15l17.89-65.85c1.86-6.84,7.49-11.43,14-11.43h346a14.06,14.06,0,0,1,11.3,5.84,17.34,17.34,0,0,1,2.59,15.23l-18.46,62.28m-358.89-.06h343.51a1.92,1.92,0,0,0,.25-.55l19.52-65.85a2.75,2.75,0,0,0-.24-2.21H844.15a1.83,1.83,0,0,0-.26.6L826,680.54A2.75,2.75,0,0,0,826.25,682.7Z"/><path class="cls-14" d="M1243.66,631a7.47,7.47,0,0,1-6.18-3.26l-28.29-41.56c-3.58-5.25,1-9.78,2.71-11.49,1.34-1.32,3.27-3.13,5.9-5.52,4.71-4.29,11.71-10.45,20.79-18.34,15.23-13.23,36.57-31.5,63.44-54.31,28.66-24.32,55.56-50.74,83.27-76.12,3.28-3,8.53-6.05,11.68-2.9,2,1.94,2.19,5.33,1,7.8-21,43.83-44,70.95-68.24,102.46-22,28.68-40,51.76-53.35,68.59-26.32,33.17-27.8,33.58-30.76,34.38A7.55,7.55,0,0,1,1243.66,631Zm-19-48.22,20,29.41c17-19.85,68.84-87.08,106.64-136.63a.59.59,0,0,0-.85-.8C1295.9,520.84,1239.36,569,1224.63,582.8Z"/><path class="cls-8" d="M1269,344.68c-.23,2-2.07,3.36-3.77,4.43s-3.58,2.3-4,4.26,4,4.27,5.58,3"/><path d="M1263.92,342.61h-.57a1.13,1.13,0,0,0-.57.12,1.23,1.23,0,0,0-.49.32,1.11,1.11,0,0,0-.31.48,1.27,1.27,0,0,0-.13.58l.06.39a1.54,1.54,0,0,0,.38.67l.31.23a1.51,1.51,0,0,0,.75.21h.57a1.27,1.27,0,0,0,.58-.13,1.24,1.24,0,0,0,.48-.31,1.11,1.11,0,0,0,.31-.49,1.14,1.14,0,0,0,.13-.57l-.05-.4a1.39,1.39,0,0,0-.39-.66l-.3-.24a1.47,1.47,0,0,0-.76-.2Z"/><path d="M1276.24,346.32h-.56a1.27,1.27,0,0,0-.58.13,1.34,1.34,0,0,0-.79.8,1,1,0,0,0-.13.57l0,.4a1.39,1.39,0,0,0,.39.66l.3.24a1.54,1.54,0,0,0,.76.2h.56a1.06,1.06,0,0,0,.58-.13,1.36,1.36,0,0,0,.79-.79,1.06,1.06,0,0,0,.13-.58l0-.4a1.49,1.49,0,0,0-.39-.66l-.3-.23a1.48,1.48,0,0,0-.76-.21Z"/><path class="cls-8" d="M1268.06,341a5.62,5.62,0,0,0-5.34-1.35"/><path class="cls-8" d="M1275.06,342.49a8,8,0,0,1,6.22,3.32"/><path class="cls-8" d="M1263.28,365.59a7.46,7.46,0,0,0,5.63,0"/><path class="cls-8" d="M1213.11,421.22l-9.15,13.7"/><line class="cls-8" x1="676.51" y1="594.71" x2="673.82" y2="665.53"/><line class="cls-15" x1="595.55" y1="713.62" x2="768.92" y2="713.62"/><line class="cls-15" x1="595.55" y1="732.98" x2="768.92" y2="732.98"/><line class="cls-15" x1="595.55" y1="752.35" x2="768.92" y2="752.35"/><line class="cls-15" x1="595.55" y1="771.71" x2="768.92" y2="771.71"/><line class="cls-15" x1="595.55" y1="791.08" x2="768.92" y2="791.08"/></g><g id="dropper"><path class="cls-16" d="M1585.4,782.21c0-140.91,0-472.58.58-550.34.16-30-55.27-30.23-64.79-5.94-5.33,13.62,2.58,44.62-19,46-18.07,1.15-24-16.09-25-30.19"/><rect class="cls-7" x="1573.06" y="765.31" width="24.69" height="100.87" rx="3.64"/><circle class="cls-9" cx="1678.65" cy="888.97" r="15.56"/><circle class="cls-9" cx="1492.79" cy="888.97" r="15.56"/><path class="cls-17" d="M1678.65,887.47v-20c0-6.53-6.34-11.83-14.18-11.83H1506.33c-7.83,0-14.17,5.3-14.17,11.83v20"/><circle class="cls-10" cx="1492.84" cy="888.06" r="4.51"/><circle class="cls-10" cx="1678.65" cy="888.06" r="4.51"/><path class="cls-18" d="M1520.48,403.39l-25.72-.09a15.12,15.12,0,0,1-12.74-7.07l-9.12-14.52a15,15,0,0,1-2.32-8v-50.4a15.16,15.16,0,0,1,3.36-9.51l6.81-8.4a22.54,22.54,0,0,1,17.47-8.37l19.24,0a22.51,22.51,0,0,1,16.42,7l6.88,7.27a15.08,15.08,0,0,1,4.14,10.39V373a15.19,15.19,0,0,1-2.19,7.85l-9.26,15.24A15.11,15.11,0,0,1,1520.48,403.39Z"/><path class="cls-3" d="M1512.93,388.85l-8.07,0a20.5,20.5,0,0,1-17.17-9.4l-2.12-3.29A20.54,20.54,0,0,1,1482.3,365V336.18a20.46,20.46,0,0,1,4.65-13l.44-.55a20.54,20.54,0,0,1,16.32-7.5l12,.27a20.49,20.49,0,0,1,13.84,5.79h0a20.54,20.54,0,0,1,6.21,14.71v28.75a20.47,20.47,0,0,1-3.1,10.84l-2.29,3.68A20.52,20.52,0,0,1,1512.93,388.85Z"/><polygon class="cls-3" points="1498.25 387.7 1494.84 403.27 1498.25 403.09 1502.49 384.28 1498.25 387.7"/><polygon class="cls-3" points="1518.2 387.7 1521.62 403.27 1518.2 403.09 1513.96 384.28 1518.2 387.7"/><path class="cls-18" d="M1507.74,276.23c-7,0-12.68,8-12.68,17.81h25.36C1520.42,284.2,1514.74,276.23,1507.74,276.23Z"/><path class="cls-19" d="M1497.69,400.84c-7.58,38.42-12.46,86.85-35,118.87s-66.26,56.07-105.29,52.93c-25-2-47.75-14.57-71.37-23s-26.58-12.72-47.42,1.25"/></g></svg>