<svg xmlns="http://www.w3.org/2000/svg" viewBox="0 0 1920 1080"><defs><style>.cls-1{opacity:0.65;}.cls-2{fill:#a4bbe4;}.cls-3{fill:#fff;}.cls-4{fill:#052251;}.cls-5{fill:#09102d;}.cls-6{fill:#0f379a;}.cls-7{fill:#53bcf7;}.cls-8{fill:#ffe1cf;}.cls-10,.cls-12,.cls-13,.cls-15,.cls-9{fill:none;stroke-linecap:round;stroke-miterlimit:10;}.cls-9{stroke:#464646;}.cls-10,.cls-13{stroke:#fff;}.cls-10{stroke-width:2px;}.cls-11{fill:#f6a001;}.cls-12{stroke:#f6a001;}.cls-12,.cls-15{stroke-width:4px;}.cls-14{fill:#f6d080;}.cls-15{stroke:#f6d080;}</style></defs><title>2019-nCov1</title><g id="map" class="cls-1"><path class="cls-2" d="M522,205.87a30.74,30.74,0,0,0-14-1.84c-4.16,4-11.94,5.08-17.67,5.47a85.16,85.16,0,0,0-20.3-14.84c-4.89-2.5-10.61-5.13-12.12-10.42-2.41-8.47-16.83-11.88-25.38-9.94-10.84-2.94-23.22.85-31.92,8-3.84,3.15.48,10.95,3.8,14.66s7.44,7.83,6.66,12.75c-4,2.06-9.45,2.17-13.95,2-2.65-.12-5.37-.63-7.9.16s-4.73,3.54-3.76,6c-1.74,3-3.83,4.63-1.81,7.5,1.57,2.22,4.24,4.06,4.22,6.79,0,2.18-1.83,3.92-3.77,4.9s-4.1,1.46-5.93,2.63c-5.71,3.64-5.76,11.85-5.16,18.62,3.7,4.56,4.28,12.4,2.5,18-.68,2.13-1.77,4.4-1,6.5.88,2.41,3.7,3.36,6.17,4,5.28,1.37,11.5,2.56,15.7-.94,11.08-9.2,28.28-4.43,42.31-1.26,4.84,1.09,9.94,2.88,12.77,7,3.77,5.46,2.16,13-.94,18.92S443,321.55,441,327.89c-1.84,5.95-1.33,12.35-.8,18.55.66,7.65,1.46,15.7,5.87,22a42.38,42.38,0,0,1,7.17,24.41c-.29,6.45-2.56,12.79-2,19.22,1.07,11.65,11.1,20.4,21.33,26,10.71,5.88,19.95,15.87,23.64,27.55,1.85,5.86,2.4,12.07,4,18a51.2,51.2,0,0,0,17.28,26.22c6,4.83,16,6.55,23.58,7.94,4,.72,8.2,1.29,11.18,4,1.37,1.25,2.36,2.86,3.67,4.17,6.36,6.31,18.06,3.72,24.49,10,1.66,1.61,2.8,3.67,4.25,5.47a19.44,19.44,0,0,0,16.49,7c-1.45,4.74,4.21,10.31,2.46,14.94-1.4,3.74-5.66,5.38-8.58,8.09-5.07,4.7-5.86,12.74-3.68,19.31s6.81,12,11.43,17.16c8.58,9.55,18.89,14.19,28.2,23,8.62,8.19,10.58,21.45,8.69,33.22s-7,22.71-10.7,34.05c-6.85,21.17-8.51,44.45-2,65.72s21.88,40.23,42.43,48.6c2.27.92,5.06-.68,6.73-2.49a6.12,6.12,0,0,0,.85-6.86c-3.71-6.85-10.3-12.7-15.11-18.82-1.52-1.93-3.11-4.11-2.92-6.55.22-2.75,2.58-4.73,4.31-6.86a17.81,17.81,0,0,0,3.94-11.6c-.11-3.93-2.38-7.76-2.25-11.69s2.24-8,5.94-9.31c1.69-.58,3.56-.53,5.19-1.25,5.35-2.37,4.5-10.57,8.37-15,1.79-2,4.44-3.06,6.88-4.24,10.35-5,18.87-14.9,19.81-26.4.76-9.19-2.57-20.36,4.39-26.38,6.38-5.53,16.22-1.86,24.54-3.22,3.39-.55,5.65-3.71,7.23-6.77a16.13,16.13,0,0,0,1.2-10.08c-.7-4.18-2.49-8.27-2.09-12.49.55-5.94,5.18-10.52,8.76-15.28a50.42,50.42,0,0,0,8.83-19c1.8-7.85-3.2-17.11-10.21-21s-15.41-4-23.43-4.25S714,572,707.43,567.38c-6-4.26-9.39-11.22-14.14-16.85-8-9.51-19.63-15-30.89-20.2-4.25-2-9-4-13.46-2.51-1.75.58-3.33,1.68-5.14,2-5,.95-9-3.76-13.44-6.18-9.24-5-22.51,2.25-23.33,12.76-4.78,1.66-13.63.23-16.35-4.06-1.95-3.08-2.73-7.39-6.09-8.79-1.79-.75-4-.47-5.5-1.76-2.42-2.14-.54-6-.1-9.22.69-5.12-3.12-10-7.76-12.21s-10-2.41-15.09-2.57-10.47-.4-15.06-2.72c-9-4.5-12.63-16.7-8.7-26s14.21-15,24.22-14.67c9.81.28,20.16,7.48,20.27,17.34,0,2.5,4,2.78,6.18,1.54s3.29-3.74,3.82-6.18.6-5,1.35-7.37a13.91,13.91,0,0,1,13-9.51c6,.07,10.23-5.95,14.49-10.2s6.82-10.66,5.14-16.46c-.91-3.12-3-6.27-1.95-9.36.81-2.41,3.28-3.81,5.62-4.8a48,48,0,0,1,20.6-3.7c6.12.25,9.26-3.61,12.38-8.9,2.26-3.82,3.27-8.66,6.86-11.25,5.38-3.88,12.82-.45,19.43-.9,9.64-.65,17.18-11.53,14.44-20.84-1.31-4.43-4.39-8.06-6.9-11.93a51,51,0,0,1-7.15-17.56c-1.15-5.73-1.48-12-5.24-16.5-5.88.28-13,.11-18.24,2.82-1-6-2.18-12.28-5.87-17.13s-10.81-7.65-16-4.54-6.22,10.07-5.27,16,3.37,11.58,3.21,17.54-4.28,12.55-10.22,12.39c-3.09-.08-5.86-2-8-4.19-3.12-3.16-5.58-7.2-9.59-9.1-3.07-1.46-6.6-1.43-9.91-2.17-11.29-2.55-19-15.56-15.92-26.75s16.46-18.27,27.43-14.56c13.28-4.89,18.68-21.71,13.39-34.88s-19.54-21.34-33.67-22c-4.14-.18-8.35.19-12.37-.83-11.34-2.88-17.27-15.41-27.14-21.71C544.24,204.63,529.24,208.6,522,205.87Z"/><path class="cls-2" d="M700.81,165.17c-4.36,6.69.52,15.8,6.87,20.62S722,193.5,727,199.7c8.07,10,5.78,24.71,1.35,36.77s-10.65,24.25-9.13,37a41.65,41.65,0,0,0,6.34,16.86c3.09,5,7.3,9.78,13,11.16,7.22,1.75,14.53-2.52,20-7.56s10.23-11.15,16.9-14.43c9.61-4.73,22-3,30.33-9.66,10.36-8.29,8.82-24.1,11.67-37.08,4.78-21.81,23.57-37.92,30.92-59A36.67,36.67,0,0,0,850.71,161c-.32-14.11-12.15-25.84-25.41-30.54-16.36-5.8-32.89-2.16-49.68-2.93-9.13-.41-19.22-4.29-28.06-.57-13.63,5.74-9.63,19.24-18.56,27.25C721.28,161.09,707,155.66,700.81,165.17Z"/><path class="cls-2" d="M1082.16,245.7c-7.8-7.63-20.55-.25-28.66,7.06l-24.18,21.79c-6,5.45-12.57,11.14-20.59,12.49s-17.68-3.76-18-11.92c5.49-5.19,16.43,2.52,21.44-3.14,4.45-5-2.13-12.19-7.92-15.55-10.58-6.14-21.52-12.4-33.63-14.06s-25.85,2.41-32.14,12.94c-5.39,9-4.4,20.77-9.73,29.81-3.34,5.66-8.84,9.7-12.63,15.07s-5.41,13.47-.77,18.11c3.75,3.74,10.12,3.75,13.83,7.54,2.85,2.91,3.82,7.78,7.57,9.38,4.27,1.84,9.11-2.3,10.13-6.86s-.41-9.25-1.16-13.86c-2.22-13.79,4.67-30.74,18.44-32.71,3.14.11,4.18,4.61,2.77,7.43s-4.14,4.77-5.63,7.55c-2.79,5.23.45,12.69,6.17,14.2,6,1.56,15.93.3,15.15,6.44-.84,6.52-12.85,2.25-16.74,7.54-2.29,3.12-.26,7.47-.32,11.35-.1,7.58-8.44,12.52-16,13.05s-15.07-1.7-22.59-1-15.7,6-15.36,13.61a196.45,196.45,0,0,1-32.34,11.88c.47,8.21,15.88,9,15.82,17.19,0,4.94-6.12,7.5-11,7.14s-9.84-2.32-14.59-1.06c-8.2,2.18-11.08,13.76-6.53,21s13.88,10.06,22.34,9.39c3.39-.27,7-1.18,9.14-3.85s2.19-6.05,3-9.2a20.67,20.67,0,0,1,15-14.45c4-.91,8.9-1,11-4.49a32.76,32.76,0,0,1,16.62,25.05c3,3.81,9.5-1.1,8.86-5.89s-4.85-8.1-8.19-11.56-6.13-8.85-3.51-12.9A46.69,46.69,0,0,1,969,424.4c5.45-1.08,8.46-8.49,5.32-13.1,1.69-3.81,7.9-1.63,9.69,2.14s1.62,8.43,4.17,11.73c7.38,9.55,27.14-2.1,33.18,8.36,4.24,7.32-5.31,15.87-13.74,15.61s-16.14-5.11-24.53-5.95c-9.27-.93-18.27,3.08-27.52,4.16s-20.66-2.55-22.61-11.7c-.52-2.46-.31-5.17-1.61-7.32-1.85-3.07-6-3.78-9.54-3.37-15.39,1.75-31,17.69-43.72,8.81-8.12,15.89-28,21.86-39.08,35.83-12.06,15.19-11,38.66.66,54.13s32.41,22.78,51.61,20.34c4.4-.56,9-1.55,13.12.15s6.66,5.62,10,8.43,9,4.2,11.8.81a27.69,27.69,0,0,0,2.32,24.79c5,7.82,14.35,14,14.16,23.32-.11,4.82-2.89,9.12-4.2,13.76-6,21.23,19,38.57,23,60.28,1.06,5.84,1.06,12.88,6,16.18,2.26,1.52,5.1,1.83,7.82,2,13.93.91,31.48-3.25,34.38-17,.82-3.88.24-7.9.35-11.87a33.9,33.9,0,0,1,18.12-28.6c2.86-1.45,6-2.53,8.29-4.79,5-5,3.92-13.4,1.33-20s-6.34-13.25-5.44-20.28c1.46-11.28,13.52-17.24,22.66-24a65.22,65.22,0,0,0,25.59-42.94c-12.68,4-28.22,7.42-37.89-1.75-3.35-3.18-5.41-7.45-7.4-11.63q-9-18.81-17.93-37.61c-.79-1.66-1.59-3.55-1-5.26,1.75-4.66,8.71-.77,11.4,3.41a405.34,405.34,0,0,1,25.73,46.54,102.29,102.29,0,0,0,42.77-18.68c4-3,8-6.6,9.36-11.44s-1.14-11-6.07-11.9c-1.91-.33-3.85.15-5.78.35-11.63,1.23-21.74-7.68-29.35-16.6,5.21-5.87,14.69-2.47,21.8.81a162.49,162.49,0,0,0,40.08,12.5c3.45.6,7,1.11,10.09,2.72a27.86,27.86,0,0,1,5.85,4.42A120,120,0,0,1,1176,535.19c6.09,1.38,10.37-6.16,10.85-12.4s-.24-13.46,4.23-17.82c3.52-3.42,9.31-3.9,12.39-7.72,3.89-4.81,1.86-12.93,6.41-17.13,5.69-5.26,14.91,1.17,18,8.32s4.14,15.94,10.54,20.31l10.35-1.5A80.1,80.1,0,0,0,1265.64,556c5.91-3.1,3.23-12.12-.46-17.7s-7.31-13.91-2.06-18c7.27.07,10.67,10.15,17.74,11.87s13.31-6.69,12-13.84-7.39-12.42-13.72-16c-5.67-6.23,2.52-16.2,10.81-17.61s17.36,1,24.88-2.83c9-4.54,12-16.47,10-26.39s-7.9-18.51-12.68-27.42c-4.09-7.61-6.1-19.48,1.84-22.83,2.12-.89,4.5-.85,6.8-1,30-1.27,54.87-33.2,48.84-62.76-1.13-5.57-3.28-11.11-7.24-15.17-7.14-7.32-19.25-9-24.58-17.77-6.52-10.68,1.54-24.85,12-31.7s23.19-9.84,33-17.66c2.59-.06,4-2.62,4.46-5.19.3-1.61-.1-3.26-.11-4.9a10.39,10.39,0,0,1,19.18-5.67c3,4.68,1.77,10.87-.38,16s-5.18,10-5.73,15.54,2.56,12,8,12.63c6.71.75,11-7.25,11.49-14s-.88-14.16,2.74-19.89c5.51-8.7,20.72-10.74,21.12-21.05.32-8.34-10.13-13.23-12-21.36-.76-3.28,0-6.69.3-10a38,38,0,0,0-49.55-39.7c-3.87,1.27-7.53,3.17-11.47,4.21-5.82,1.54-11.95,1.14-17.95.72l-32.22-2.21c-9.61-.66-19.79-1.2-28.32,3.3-12.46,6.57-19.52,23-33.49,24.66-9.86,1.2-18.64-5.64-27.87-9.3a46.2,46.2,0,0,0-45.39,7c-4.68-2.4-3.23-9.4-4.88-14.4-1.73-5.23-7.32-8.39-12.78-8.87s-10.86,1.2-16.08,2.9c-11.22,3.69-24.28,10-25.32,21.78-.29,3.33.46,6.86-.94,9.89-2,4.32-7.36,5.76-10.7,9.12-4,4-4.62,10.21-4.78,15.88s-.22,11.75-3.48,16.37S1086.21,249.65,1082.16,245.7Z"/><path class="cls-2" d="M1279.09,577c2.59,3.78,6.87,6,11.08,7.78,5.08,2.17,11.26,3.86,15.85.76,3.13-2.12,13.56-16.62,14.29-19.77,1.4-6.06-.62-5.71-6.64-6.94C1303.91,556.84,1267.91,560.67,1279.09,577Z"/><path class="cls-2" d="M1243.6,575c14,25.56,42.63,42.31,71.66,41.9,2-2.06-1-5.22-3.61-6.34-7.33-3.11-15.21-4.66-22.72-7.3S1274,596.57,1269.54,590a87.63,87.63,0,0,1-4.65-8.85c-4.41-8.52-21.63-30-32.41-24.86C1235.29,562.17,1240.18,568.69,1243.6,575Z"/><path class="cls-2" d="M1319.5,634.47c-3.73,4.19-7.21,9.31-12.65,10.61-3.22.77-6.65,0-9.87.79-9.47,2.2-11.67,15-9.52,24.51s6.6,19.5,3.06,28.6c-.72,1.83-1.75,3.62-1.72,5.58,0,2.36,1.65,4.42,3.52,5.83,8.65,6.52,20.93,1.84,30.43-3.33s21-10.76,30.51-5.56c10.16,5.57,11.12,19.67,17.37,29.44,5.5,8.59,17.64,13.74,26.22,8.26,2.91-1.86,5.08-4.68,7.18-7.43l12.89-16.93c5.69-7.46,11.58-15.42,12.68-24.75,2.11-18-13.79-32.5-28.15-43.53-.76-5.75-1.58-11.67-4.5-16.67-5.85-10-17.8-11.09-14.54,3.11-9.36.32-16.93-13.64-27.35-15C1342.38,616.38,1327.57,625.4,1319.5,634.47Z"/></g><g id="nurse"><path class="cls-3" d="M917,287.19c-.08,3.13,1.47,6.92,1.71,17l-1.87,0a2.79,2.79,0,0,0-.25-1.16.6.6,0,0,0-.06-.11c-.78-1.51-2.47-1.62-4-1.65l-10.88-.19a1.68,1.68,0,0,1-1.6-2.08c.72-3.13,4.1-5.55,7.17-7.15S913.71,288.65,917,287.19Z"/><path class="cls-4" d="M925.87,197a7.38,7.38,0,0,1-.73-.29l.06-.16c3.89-1.89,7.59-7.91,4.94-13.08a9.19,9.19,0,0,0-8.26-4.63,8.65,8.65,0,0,0-6.49,2.69,3.54,3.54,0,0,1-2,2l-.16.06h0a3.41,3.41,0,0,1-1,.19,36.13,36.13,0,0,1-10.78-1.05c-5.52-1.47-9.91-5.77-12.93-10.18s-4.68-8.94-4.72-10.85a1.59,1.59,0,0,0-2.47-.07,40.2,40.2,0,0,0-9.8,28.72,20,20,0,0,0,1.86,7.78c1.25,2.45,3.24,4.47,4.61,6.85.15.27.3.53.43.8,2.63,5.17,2.67,11.54,6,16.3,4.15,5.91,12.46,7.42,19.44,5.25.29,2.53.54,5.08.74,7.63-2.62-.17-5.24-.3-7.87-.34a77.35,77.35,0,0,0-20.13,1.85c-7.39-1.74-16.5-9.79-16.5-17.38,0-7.19,5.75-13.56,5.26-20.73-.9-13.38-5.74-21.56.36-35,4.84-10.67,13.8-19.63,24.95-23.53,19.5-6.8,43.32,2.67,52.82,21,3.45,6.67,5.31,14.41,10.61,19.73,5.81,5.81,13.27,8.35,16,16.09,5.91,16.65-18.13,32.65-33.83,33.93Q930.53,213.91,925.87,197Z"/><path class="cls-5" d="M1012.11,912.35c.6,24.19,2.71,48.39,2.1,72.58-38.32,1.64-85.6,2.27-120.63-.55a1.89,1.89,0,0,1-1.21-3.18c16.45-17.39,42.84-35.37,62.55-47.24q.36-10.32.71-20.63Z"/><path class="cls-5" d="M875.74,914c-.66,20.34-.67,47.94-1.79,69.11-35.62,2.44-84.12,2.84-120.89,1.11a3.35,3.35,0,0,1-2.1-5.81c18.58-16.91,43.53-32,70.91-46.86a162.1,162.1,0,0,0,1.12-19l26,.93C857.93,913.81,866.84,914.12,875.74,914Z"/><path class="cls-6" d="M1012.11,912.35l-56.48,1-22.17.38q-2.72-64.5-5.45-129c-2.35-55.39-4.69-110.83-9.56-166.05,27.38.76,54.79.46,82.17-.73A2371.39,2371.39,0,0,0,1025,912.13l-10.74.19Z"/><path class="cls-6" d="M907,618.28c-1.86,20.24-7.21,40.38-9.89,60.66s-2.64,40.92-2.6,61.43q.15,86.18.3,172.36a183.29,183.29,0,0,1-19,1.23c-8.9.16-17.81-.15-26.7-.47l-26-.93q-8.81-.3-17.61-.63,11.79-149.85,23.56-299.7Q867.82,616.87,907,618.28Z"/><path class="cls-7" d="M916.47,305.79a3.61,3.61,0,0,1-.55.79c-1.65,1.78-4.08,1.94-6.35,2.2-21.42,2.46-38.71,18.62-51.62,35.87-7.85,10.51-14.8,21.82-22.68,32.28h0a124.09,124.09,0,0,1-16.83,18.72c-6.54,5.79-14.58,10.82-23.31,10.46s-24.52-12.68-19.38-32q1-2.69,2-5.36h0C801,339,820.36,322.49,845.52,304.5a199.57,199.57,0,0,1,72-32.62q6.25-1.42,12.61-2.32c5.49-.77,11.22-1.21,16.64-.33a2.1,2.1,0,0,1,1.56,2.75,8.38,8.38,0,0,1,2,.81,2.1,2.1,0,0,1-.62,3.87A162.88,162.88,0,0,0,917,287.18h0q-5,2.19-9.76,4.72c-3.07,1.6-6.45,4-7.17,7.15a1.68,1.68,0,0,0,1.6,2.08l10.88.19c1.51,0,3.2.14,4,1.65a.6.6,0,0,1,.06.11,2.79,2.79,0,0,1,.25,1.16A3.51,3.51,0,0,1,916.47,305.79Z"/><path class="cls-7" d="M888.6,393.41a60.63,60.63,0,0,0,19-2.88c3-.88,6-1.89,9-2.92,2.14-.74,4.27-1.49,6.38-2.2A330.67,330.67,0,0,1,985.51,371a396.51,396.51,0,0,1,42.3-3.36c1.77-.05,3.55-.1,5.33-.12a13.89,13.89,0,0,1,10,4,85.75,85.75,0,0,1,23.07,41.33,97.09,97.09,0,0,1-13.9,2.91,180.24,180.24,0,0,1-72.6-4.62c-9.75-2.67-19.57-6.2-29.65-5.49-9,.62-17.36,4.57-26,6.93a67.93,67.93,0,0,1-8.7,1.79c-16.39,2.27-31.7-1.86-46.19-10.93-.92-.57-1.81-1.19-2.67-1.85A33.52,33.52,0,0,1,856,388.88c-.39-.85-.69-2,0-2.61a2.09,2.09,0,0,1,1.51-.37c4.32.14,7.91,2.28,11.68,4a28.37,28.37,0,0,0,4.09,1.54A68.73,68.73,0,0,0,888.6,393.41Z"/><path class="cls-3" d="M915.29,414.35c-.62,29.75,1.19,59.27,1,89.08-.22,38.6-1.3,76.15-2.66,114.72v.36q-3.35-.09-6.68-.23-39.12-1.49-78-6c-1.23-.14-2.46-.29-3.68-.45,5.91-67.19,17-126.57,36.19-192.36,1.73-5.93,3.43-11.88,5-17.85.86.66,1.75,1.28,2.67,1.85C883.59,412.49,898.9,416.62,915.29,414.35Z"/><path class="cls-3" d="M1002.86,427.74c17.47,59.86,19.46,127,12.9,189.43-5,.28-10.09.54-15.14.75-27.38,1.19-54.79,1.49-82.17.73-1.61,0-3.21-.08-4.8-.14v-.36c1.36-38.57,2.44-76.12,2.66-114.72.16-29.81-1.65-59.33-1-89.08a67.93,67.93,0,0,0,8.7-1.79c8.69-2.36,17.06-6.31,26-6.93,10.08-.71,19.9,2.82,29.65,5.49A178.8,178.8,0,0,0,999,415.27C1000.32,419.41,1001.63,423.56,1002.86,427.74Z"/><path class="cls-3" d="M907.56,390.53a60.63,60.63,0,0,1-19,2.88,68.73,68.73,0,0,1-15.27-2,28.37,28.37,0,0,1-4.09-1.54c.75-3.42,1.43-6.85,2-10.3,2-11.57,4.78-27.16,1.64-38.76a.46.46,0,0,0-.8-.15c-11.28,13.84-22.49,25.31-36.81,36.26,7.88-10.46,14.83-21.77,22.68-32.28,12.91-17.25,30.2-33.41,51.62-35.87,2.27-.26,4.7-.42,6.35-2.2a3.61,3.61,0,0,0,.55-.79,3.51,3.51,0,0,0,.39-1.54l1.87,0c.16,6.91-.3,16.79-2.32,31.42-1.06,7.62,1.24,15.32,1.43,23,.25,9.67-.53,19.33-1.25,29C913.6,388.64,910.6,389.65,907.56,390.53Z"/><path class="cls-3" d="M896.71,235.32c.56,5.38,1.14,10.82,3,15.91s5.21,9.82,10,12.27a16.4,16.4,0,0,0,7.89,1.71v.33c-.06,2.11-.13,4.23-.19,6.34a199.57,199.57,0,0,0-72,32.62c-25.16,18-44.48,34.54-67.71,64.27h0a366,366,0,0,1,68-111c6-6.67,12.33-13.24,20.25-17.39a46.16,46.16,0,0,1,10.57-3.94,77.35,77.35,0,0,1,20.13-1.85Z"/><path class="cls-3" d="M985.05,368.82c.15.73.3,1.44.46,2.17A330.67,330.67,0,0,0,923,385.41c-2.11.71-4.24,1.46-6.38,2.2.72-9.65,1.5-19.31,1.25-29-.19-7.68-2.49-15.38-1.43-23,2-14.63,2.48-24.51,2.32-31.42-.24-10.1-1.79-13.89-1.71-17h0a162.88,162.88,0,0,1,32.66-10.52,2.1,2.1,0,0,0,.62-3.87,8.38,8.38,0,0,0-2-.81,2.1,2.1,0,0,0-1.56-2.75c-5.42-.88-11.15-.44-16.64.33q-6.36.88-12.61,2.32c.06-2.11.13-4.23.19-6.34v-.33a20.69,20.69,0,0,0,14.28-6.41c5.55-5.9,11.8-15.62,10.86-23.66V235a200.74,200.74,0,0,1,29.56,3c15,2.66,30.84,7.77,39.82,20.09,15.88,21.83,34.24,41.88,49.31,64.94,9.33,14.27,18.1,29.19,22.61,45.63a77.67,77.67,0,0,1,2.3,31.09,7.34,7.34,0,0,1-2.78,4.83,54.09,54.09,0,0,1-17.43,8.3,85.75,85.75,0,0,0-23.07-41.33,13.89,13.89,0,0,0-10-4c-1.78,0-3.56.07-5.33.12-6.61-6.25-12.53-13.34-18.39-20.36l-29.14-34.89C980.57,331.31,981.2,350.3,985.05,368.82Z"/><path class="cls-8" d="M930.14,183.42c2.65,5.17-1,11.19-4.94,13.08l-.06.16c-5.69-2.29-8.66-7-11.76-13.19a3.54,3.54,0,0,0,2-2,8.65,8.65,0,0,1,6.49-2.69A9.19,9.19,0,0,1,930.14,183.42Z"/><path class="cls-8" d="M909.77,263.5c-4.84-2.45-8.17-7.19-10-12.27s-2.45-10.53-3-15.91v-.76c2.63,0,5.25.17,7.87.34-.2-2.55-.45-5.1-.74-7.63-7,2.17-15.29.66-19.44-5.25-3.34-4.76-3.38-11.13-6-16.3a41.85,41.85,0,0,0,34.81-22.19h0l.16-.06c3.1,6.15,6.07,10.9,11.76,13.19a7.38,7.38,0,0,0,.73.29q4.64,17,10.42,33.57c.5,1.46,1,2.92,1.54,4.38,1.66,0,3.31,0,5,.07v.17c.94,8-5.31,17.76-10.86,23.66a20.69,20.69,0,0,1-14.28,6.41A16.4,16.4,0,0,1,909.77,263.5Z"/><path class="cls-3" d="M925.74,196.9q-.3-.1-.6-.24c-5.69-2.29-8.66-7-11.76-13.19l-.16.06h0a41.85,41.85,0,0,1-34.81,22.19c2.63,5.17,2.67,11.54,6,16.3,4.15,5.91,12.46,7.42,19.44,5.25,0,.14,0,.27,0,.41C915.5,221.19,924.21,210.6,925.74,196.9Z"/><path class="cls-8" d="M913.21,183.53a41.85,41.85,0,0,1-34.81,22.19c-.13-.27-.28-.53-.43-.8-1.37-2.38-3.36-4.4-4.61-6.85a20,20,0,0,1-1.86-7.78,40.2,40.2,0,0,1,9.8-28.72,1.59,1.59,0,0,1,2.47.07c0,1.91,1.69,6.44,4.72,10.85s7.41,8.71,12.93,10.18a36.13,36.13,0,0,0,10.78,1.05A3.41,3.41,0,0,0,913.21,183.53Z"/><path class="cls-9" d="M980.28,312.38c.29,18.93.92,37.92,4.77,56.44.15.73.3,1.44.46,2.17"/><path class="cls-9" d="M999,415.27c1.35,4.14,2.66,8.29,3.89,12.47,17.47,59.86,19.46,127,12.9,189.43"/><path class="cls-9" d="M925.73,196.44q5.38,19.71,12.27,39"/><path class="cls-9" d="M903.23,253.07c2-10,2-10,1.36-18.17-.2-2.55-.45-5.1-.74-7.63"/><path class="cls-9" d="M775.74,374.12a365.74,365.74,0,0,1,70-116.38c6-6.67,12.33-13.24,20.25-17.39a46.16,46.16,0,0,1,10.57-3.94c8.95-2.21,18.54-2.13,28-1.51"/><path class="cls-9" d="M825.26,611.78c1.22.16,2.45.31,3.68.45q38.88,4.63,78,6c3.82.15,7.65.28,11.48.37,27.38.76,54.79.46,82.17-.73,5-.21,10.1-.47,15.14-.75"/><path class="cls-9" d="M922.8,206.36c-3.3,7.79-8.07,15.44-15.51,19.46s-18,3.12-22.88-3.8c-3.51-5-3.38-11.8-6.44-17.1-1.37-2.39-3.36-4.39-4.61-6.85a19.89,19.89,0,0,1-1.86-7.79,40.17,40.17,0,0,1,9.8-28.71,1.6,1.6,0,0,1,2.47.07h0c.09,3.82,6.61,18.09,17.65,21a35.81,35.81,0,0,0,10.78,1.05,3.63,3.63,0,0,0,3.2-2.24h0c3.9-4.33,12.09-3.25,14.74,1.93s-1,11.2-4.94,13.08"/><path class="cls-9" d="M878.4,205.72a41.85,41.85,0,0,0,34.81-22.19h0l.1-.19"/><path class="cls-9" d="M925.87,197c-6.17-2.19-9.26-7.08-12.49-13.48"/><path class="cls-9" d="M942.8,235.14c.94,8.05-5.31,17.76-10.86,23.66s-15,8.36-22.18,4.7c-4.82-2.45-8.16-7.2-10-12.27s-2.46-10.53-3-15.91"/><path class="cls-9" d="M1027.81,367.63c-6.61-6.25-12.53-13.34-18.39-20.36l-29.14-34.89-10.63-12.74"/><path class="cls-9" d="M777.81,368.77C801,339,820.36,322.49,845.52,304.5a199.57,199.57,0,0,1,72-32.62q6.25-1.42,12.61-2.32c5.49-.77,11.22-1.21,16.64-.33a2.1,2.1,0,0,1,1.56,2.75,1.65,1.65,0,0,1-1.54,1.16c-11.16.49-20,3.31-29.48,6.12-3,.89-6,1.77-9.23,2.59"/><path class="cls-9" d="M775.74,374.12c-5.14,19.32,10.66,31.63,19.38,32s16.77-4.67,23.31-10.46c16.15-14.29,26.61-33.74,39.52-51s30.2-33.41,51.62-35.87c2.27-.26,4.7-.42,6.35-2.2a3.61,3.61,0,0,0,.55-.79,3.06,3.06,0,0,0,.14-2.7.6.6,0,0,0-.06-.11c-.78-1.51-2.47-1.62-4-1.65l-10.88-.19a1.68,1.68,0,0,1-1.6-2.08c.72-3.13,4.1-5.55,7.17-7.15s6.45-3.26,9.76-4.72h0a162.88,162.88,0,0,1,32.66-10.52,2.1,2.1,0,0,0,.62-3.87,8.38,8.38,0,0,0-2-.81s-.06,0-.08,0"/><path class="cls-9" d="M913.66,618.15c1.36-38.57,2.44-76.12,2.66-114.72.16-29.81-1.65-59.33-1-89.08"/><path class="cls-9" d="M916.59,387.61c.72-9.65,1.5-19.31,1.25-29-.19-7.68-1-66.17-.82-71.44h0"/><path class="cls-9" d="M917.67,265.54c-.06,2.11-.13,4.23-.19,6.34"/><path class="cls-9" d="M938.52,234.9a189.29,189.29,0,0,1,33.84,3c15,2.66,30.84,7.77,39.82,20.09,15.88,21.83,34.24,41.88,49.31,64.94,9.33,14.27,18.1,29.19,22.61,45.63a77.67,77.67,0,0,1,2.3,31.09,7.34,7.34,0,0,1-2.78,4.83,54.09,54.09,0,0,1-17.43,8.3"/><path class="cls-9" d="M985.51,371A330.67,330.67,0,0,0,923,385.41c-2.11.71-4.24,1.46-6.38,2.2-3,1-6,2-9,2.92a60.63,60.63,0,0,1-19,2.88,68.73,68.73,0,0,1-15.27-2,28.37,28.37,0,0,1-4.09-1.54c-3.77-1.7-7.36-3.84-11.68-4a2.09,2.09,0,0,0-1.51.37c-.7.62-.4,1.76,0,2.61a33.52,33.52,0,0,0,10.39,12.69c.86.66,1.75,1.28,2.67,1.85,14.49,9.07,29.8,13.2,46.19,10.93a67.93,67.93,0,0,0,8.7-1.79c8.69-2.36,17.06-6.31,26-6.93,10.08-.71,19.9,2.82,29.65,5.49a180.24,180.24,0,0,0,72.6,4.62,97.09,97.09,0,0,0,13.9-2.91,85.75,85.75,0,0,0-23.07-41.33,13.89,13.89,0,0,0-10-4c-1.78,0-3.56.07-5.33.12a396.51,396.51,0,0,0-42.3,3.36"/><path class="cls-9" d="M913.2,388.64l-5.64,1.89-9.11,3.08a3.07,3.07,0,0,0-1.75,1.09,2.08,2.08,0,0,0,.7,2.59,5.72,5.72,0,0,0,2.78.87,44.91,44.91,0,0,0,23.71-3.79"/><path class="cls-9" d="M825.26,611.78c5.91-67.19,17-126.57,36.19-192.36,1.73-5.93,3.43-11.88,5-17.85"/><path class="cls-9" d="M869.24,389.88c.75-3.42,1.43-6.85,2-10.3,2-11.57,4.78-27.16,1.64-38.76a.46.46,0,0,0-.8-.15c-11.28,13.84-22.51,25.32-36.82,36.27-.34.28-.68.53-1,.8"/><path class="cls-9" d="M919.05,183.9a4.45,4.45,0,1,1,6.48,5.94"/><path d="M893.44,192.86v.58a1.14,1.14,0,0,0,.13.57,1.11,1.11,0,0,0,.31.49,1.24,1.24,0,0,0,.48.31,1.27,1.27,0,0,0,.58.13l.4-.06a1.57,1.57,0,0,0,.66-.38l.24-.31a1.5,1.5,0,0,0,.2-.75v-.58a1.15,1.15,0,0,0-.13-.58,1.36,1.36,0,0,0-.79-.79,1.15,1.15,0,0,0-.58-.13l-.4,0a1.59,1.59,0,0,0-.66.39l-.24.3a1.57,1.57,0,0,0-.2.76Z"/><path d="M879.57,199.32v.58a1,1,0,0,0,.13.57,1.34,1.34,0,0,0,.79.8,1.27,1.27,0,0,0,.58.13l.4-.06a1.57,1.57,0,0,0,.66-.38l.23-.31a1.42,1.42,0,0,0,.21-.75v-.58a1.15,1.15,0,0,0-.13-.58,1.36,1.36,0,0,0-.79-.79,1.15,1.15,0,0,0-.58-.13l-.4.05a1.53,1.53,0,0,0-.66.39l-.24.3a1.57,1.57,0,0,0-.2.76Z"/><path class="cls-9" d="M885.07,193.42c.87,3.79,1.68,6.76.33,10.41"/><path class="cls-9" d="M874.68,194.73a5.67,5.67,0,0,1,3.91-2.48"/><path class="cls-9" d="M888.88,187.16a5.58,5.58,0,0,1,7-1.78"/><path class="cls-10" d="M985.4,618.48c2.47,98.63,11.32,197,30.65,293.77"/><path class="cls-10" d="M884.62,913.63C878,815,870.79,720.9,897.49,617.49"/><path class="cls-10" d="M893.83,979.69c40.39-3.9,82.55.38,120.42-10.72"/><path class="cls-10" d="M750.84,978.49q36.27-.57,72.49-2.87c17.39-1.11,35.36-2.71,51.28-9.34"/><g id="Layer_5" data-name="Layer 5"><circle class="cls-11" cx="916.43" cy="343.76" r="17.97"/><line class="cls-12" x1="913.71" y1="355.47" x2="913.93" y2="373.1"/><line class="cls-12" x1="892.29" y1="326.31" x2="906.5" y2="335.25"/><line class="cls-12" x1="924.46" y1="334.69" x2="933.8" y2="318.06"/><line class="cls-12" x1="903.2" y1="348.86" x2="891.22" y2="350.07"/><line class="cls-12" x1="918.15" y1="316.55" x2="917.1" y2="338.21"/><polyline class="cls-12" points="936.09 331.19 924.92 341.67 945.62 341.31"/><line class="cls-12" x1="907.8" y1="351.76" x2="899.28" y2="363.89"/><line class="cls-12" x1="918.55" y1="350.17" x2="924.7" y2="365.29"/><line class="cls-12" x1="922.94" y1="347.85" x2="938.14" y2="358.13"/><path class="cls-12" d="M894.88,338c5,.81,5.58,1.73,10.6,2.54"/><path class="cls-12" d="M905.58,324.34c1.62,4.24,3.52,5.73,5.14,10"/><circle class="cls-11" cx="946.85" cy="341.14" r="4.63"/><circle class="cls-11" cx="892.29" cy="326.31" r="4.63"/><circle class="cls-11" cx="938.17" cy="329.57" r="4.63"/><circle class="cls-11" cx="904.74" cy="322.29" r="4.63"/><circle class="cls-11" cx="918.48" cy="318.05" r="4.63"/><circle class="cls-11" cx="892.88" cy="336.71" r="4.63"/><circle class="cls-11" cx="934.27" cy="316.95" r="4.63"/><circle class="cls-11" cx="899.07" cy="364.23" r="4.63"/><circle class="cls-11" cx="890.05" cy="349.91" r="4.63"/><circle class="cls-11" cx="925.63" cy="367.34" r="4.63"/><circle class="cls-11" cx="940.65" cy="359.7" r="4.63"/><circle class="cls-11" cx="913.72" cy="373.44" r="4.63"/><circle class="cls-13" cx="911.32" cy="339.97" r="4.74"/><circle class="cls-13" cx="923.99" cy="340.59" r="1.54"/><circle class="cls-13" cx="918.18" cy="350.55" r="2.7"/></g></g><g id="virus"><circle class="cls-14" cx="1430.97" cy="478.15" r="50.73"/><line class="cls-15" x1="1423.31" y1="511.22" x2="1423.93" y2="560.97"/><line class="cls-15" x1="1362.85" y1="428.93" x2="1402.96" y2="454.15"/><line class="cls-15" x1="1453.64" y1="452.58" x2="1479.99" y2="405.64"/><line class="cls-15" x1="1393.64" y1="492.56" x2="1359.83" y2="495.99"/><line class="cls-15" x1="1435.83" y1="401.37" x2="1432.88" y2="462.51"/><polyline class="cls-15" points="1486.47 442.69 1454.94 472.26 1513.36 471.26"/><line class="cls-15" x1="1406.63" y1="500.73" x2="1382.58" y2="534.97"/><line class="cls-15" x1="1436.96" y1="496.27" x2="1454.31" y2="538.92"/><line class="cls-15" x1="1449.34" y1="489.7" x2="1492.24" y2="518.71"/><path class="cls-15" d="M1370.14,461.82c14.18,2.28,15.75,4.9,29.92,7.18"/><path class="cls-15" d="M1400.35,423.36c4.58,12,9.93,16.16,14.51,28.13"/><circle class="cls-14" cx="1516.82" cy="470.77" r="13.07"/><circle class="cls-14" cx="1362.85" cy="428.93" r="13.07"/><circle class="cls-14" cx="1492.32" cy="438.11" r="13.07"/><circle class="cls-14" cx="1397.98" cy="417.58" r="13.07"/><circle class="cls-14" cx="1436.77" cy="405.59" r="13.07"/><circle class="cls-14" cx="1364.51" cy="458.27" r="13.07"/><circle class="cls-14" cx="1481.32" cy="402.49" r="13.07"/><circle class="cls-14" cx="1381.97" cy="535.94" r="13.07"/><circle class="cls-14" cx="1356.53" cy="495.52" r="13.07"/><circle class="cls-14" cx="1456.94" cy="544.7" r="13.07"/><circle class="cls-14" cx="1499.32" cy="523.16" r="13.07"/><circle class="cls-14" cx="1423.32" cy="561.94" r="13.07"/><circle class="cls-13" cx="1416.55" cy="467.48" r="13.38"/><circle class="cls-13" cx="1452.3" cy="469.2" r="4.35"/><circle class="cls-13" cx="1435.9" cy="497.32" r="7.62"/><ellipse class="cls-14" cx="631.38" cy="123.59" rx="46.28" ry="44.26"/><line class="cls-15" x1="602.08" y1="133.17" x2="563.86" y2="156.57"/><line class="cls-15" x1="636.64" y1="50.43" x2="636.45" y2="91.78"/><line class="cls-15" x1="662.11" y1="128.58" x2="711.16" y2="126.44"/><line class="cls-15" x1="602.21" y1="102.59" x2="583.26" y2="79.13"/><line class="cls-15" x1="693.17" y1="91.77" x2="644.4" y2="117.79"/><polyline class="cls-15" points="685.6 148.34 647.5 138.62 676.44 181.43"/><line class="cls-15" x1="602.15" y1="115.98" x2="564.05" y2="113.96"/><line class="cls-15" x1="620.24" y1="136.38" x2="595.58" y2="168.9"/><line class="cls-15" x1="631.29" y1="142.52" x2="629.52" y2="187.67"/><path class="cls-15" d="M614.69,71c5.07,11.55,3.8,13.92,8.86,25.47"/><path class="cls-15" d="M659,75.64c-7,8.91-7.72,14.81-14.78,23.72"/><ellipse class="cls-14" cx="678.49" cy="183.76" rx="11.92" ry="11.4"/><ellipse class="cls-14" cx="636.64" cy="50.43" rx="11.92" ry="11.4"/><ellipse class="cls-14" cx="691.96" cy="150.56" rx="11.92" ry="11.4"/><ellipse class="cls-14" cx="662.36" cy="71.21" rx="11.92" ry="11.4"/><ellipse class="cls-14" cx="690.36" cy="94.41" rx="11.92" ry="11.4"/><ellipse class="cls-14" cx="614.72" cy="65.2" rx="11.92" ry="11.4"/><ellipse class="cls-14" cx="714.24" cy="125.98" rx="11.92" ry="11.4"/><ellipse class="cls-14" cx="563" cy="113.96" rx="11.92" ry="11.4"/><ellipse class="cls-14" cx="582.03" cy="76.47" rx="11.92" ry="11.4"/><ellipse class="cls-14" cx="592.37" cy="173.51" rx="11.92" ry="11.4"/><ellipse class="cls-14" cx="629.48" cy="194.97" rx="11.92" ry="11.4"/><ellipse class="cls-14" cx="562.81" cy="156.57" rx="11.92" ry="11.4"/><ellipse class="cls-13" cx="632.68" cy="107.99" rx="12.2" ry="11.67"/><ellipse class="cls-13" cx="648.59" cy="135.26" rx="3.97" ry="3.79"/><ellipse class="cls-13" cx="618.91" cy="136.08" rx="6.95" ry="6.65"/><circle class="cls-14" cx="491.02" cy="660.02" r="28.29"/><line class="cls-15" x1="473.11" y1="666.14" x2="449.75" y2="681.1"/><line class="cls-15" x1="494.24" y1="613.27" x2="494.12" y2="639.69"/><line class="cls-15" x1="509.81" y1="663.21" x2="539.79" y2="661.84"/><line class="cls-15" x1="473.2" y1="646.6" x2="461.61" y2="631.61"/><line class="cls-15" x1="528.79" y1="639.69" x2="498.98" y2="656.31"/><polyline class="cls-15" points="524.16 675.83 500.88 669.62 518.57 696.98"/><line class="cls-15" x1="473.16" y1="655.16" x2="449.87" y2="653.86"/><line class="cls-15" x1="484.21" y1="668.19" x2="469.14" y2="688.98"/><line class="cls-15" x1="490.97" y1="672.12" x2="489.89" y2="700.97"/><path class="cls-15" d="M480.82,626.42c3.1,7.37,2.32,8.89,5.42,16.27"/><path class="cls-15" d="M507.93,629.37c-4.32,5.7-4.73,9.47-9,15.16"/><circle class="cls-14" cx="519.82" cy="698.47" r="7.29"/><circle class="cls-14" cx="494.24" cy="613.27" r="7.29"/><circle class="cls-14" cx="528.06" cy="677.25" r="7.29"/><circle class="cls-14" cx="509.96" cy="626.55" r="7.29"/><circle class="cls-14" cx="527.07" cy="641.37" r="7.29"/><circle class="cls-14" cx="480.84" cy="622.7" r="7.29"/><circle class="cls-14" cx="541.67" cy="661.54" r="7.29"/><circle class="cls-14" cx="449.23" cy="653.86" r="7.29"/><circle class="cls-14" cx="460.86" cy="629.91" r="7.29"/><circle class="cls-14" cx="467.18" cy="691.92" r="7.29"/><circle class="cls-14" cx="489.87" cy="705.63" r="7.29"/><circle class="cls-14" cx="449.11" cy="681.09" r="7.29"/><circle class="cls-13" cx="491.82" cy="650.05" r="7.46"/><circle class="cls-13" cx="501.54" cy="667.47" r="2.42"/><circle class="cls-13" cx="483.4" cy="668" r="4.25"/><circle class="cls-14" cx="1198.98" cy="820.32" r="34.69"/><line class="cls-15" x1="1181.93" y1="804.57" x2="1152.17" y2="788.1"/><line class="cls-15" x1="1251.29" y1="796.52" x2="1222.72" y2="811.81"/><line class="cls-15" x1="1206.49" y1="842.45" x2="1225.45" y2="874"/><line class="cls-15" x1="1203.06" y1="793.26" x2="1212.47" y2="772.02"/><line class="cls-15" x1="1242.94" y1="849.21" x2="1207.62" y2="826.75"/><polyline class="cls-15" points="1201.25 865.3 1194.37 836.55 1175.17 871.6"/><line class="cls-15" x1="1193.81" y1="798.22" x2="1181.61" y2="772.34"/><line class="cls-15" x1="1186.19" y1="817.74" x2="1154.98" y2="813.61"/><line class="cls-15" x1="1185.9" y1="827.32" x2="1154.14" y2="842.98"/><path class="cls-15" d="M1229.28,789.72c-6.15,7.64-8.24,7.69-14.4,15.34"/><path class="cls-15" d="M1241.9,820.68c-8.67-1.33-13,.43-21.63-.9"/><circle class="cls-14" cx="1174.29" cy="873.82" r="8.94"/><circle class="cls-14" cx="1251.29" cy="796.52" r="8.94"/><circle class="cls-14" cx="1201.99" cy="870.32" r="8.94"/><circle class="cls-14" cx="1246.13" cy="821.23" r="8.94"/><circle class="cls-14" cx="1240.12" cy="848.34" r="8.94"/><circle class="cls-14" cx="1233.29" cy="787.57" r="8.94"/><circle class="cls-14" cx="1226.88" cy="875.85" r="8.94"/><circle class="cls-14" cx="1181.24" cy="771.65" r="8.94"/><circle class="cls-14" cx="1213.87" cy="770.22" r="8.94"/><circle class="cls-14" cx="1150.65" cy="813.21" r="8.94"/><circle class="cls-14" cx="1149.1" cy="845.68" r="8.94"/><circle class="cls-14" cx="1151.8" cy="787.41" r="8.94"/><circle class="cls-13" cx="1210.2" cy="815.37" r="9.15"/><circle class="cls-13" cx="1197.07" cy="836.02" r="2.97"/><circle class="cls-13" cx="1185.92" cy="816.76" r="5.21"/></g></svg>