<svg xmlns="http://www.w3.org/2000/svg" viewBox="0 0 1920 1080"><defs><style>.cls-1{fill:#f7f8fa;}.cls-10,.cls-2,.cls-20{fill:#fff;}.cls-17,.cls-2,.cls-20,.cls-21,.cls-22,.cls-23,.cls-24,.cls-25{stroke:#31434d;}.cls-17,.cls-18,.cls-2,.cls-25,.cls-6,.cls-7{stroke-linecap:round;}.cls-17,.cls-18,.cls-19,.cls-2,.cls-20,.cls-21,.cls-22,.cls-23,.cls-24,.cls-25,.cls-6,.cls-7{stroke-miterlimit:10;}.cls-3{fill:#7b176e;}.cls-4{fill:#f6a001;}.cls-5{fill:#53bcf7;}.cls-17,.cls-18,.cls-19,.cls-21,.cls-22,.cls-23,.cls-24,.cls-25,.cls-6,.cls-7{fill:none;}.cls-6{stroke:#f6a001;}.cls-22,.cls-6{stroke-width:4px;}.cls-18,.cls-7{stroke:#fff;}.cls-8{fill:#ebeced;}.cls-9{fill:#464646;}.cls-11{fill:#09102d;}.cls-12{fill:#0c2c7a;}.cls-13{fill:#0f379a;}.cls-14{fill:#052251;}.cls-15{fill:#ffe1cf;}.cls-16{fill:#31434d;}.cls-18,.cls-20,.cls-21{stroke-width:2px;}.cls-19{stroke:#53bcf7;}.cls-23{stroke-width:3px;}.cls-24{stroke-width:8px;}.cls-25{stroke-width:9px;}</style></defs><title>2019-nCov16</title><g id="background"><ellipse class="cls-1" cx="977.71" cy="516.39" rx="489.93" ry="452.35"/><circle class="cls-1" cx="1576.18" cy="208.15" r="167.49"/><ellipse class="cls-1" cx="265.85" cy="774.66" rx="203.63" ry="173.35"/><rect class="cls-2" x="132.53" y="404.87" width="29.6" height="29.6" transform="translate(567.01 272.33) rotate(90)"/><rect class="cls-2" x="1289.05" y="131.05" width="29.6" height="29.6" transform="translate(1449.71 -1158) rotate(90)"/><rect class="cls-3" x="196.96" y="533.81" width="35.34" height="35.34"/><rect class="cls-4" x="1666.48" y="239.99" width="35.34" height="35.34"/><rect class="cls-2" x="1576.18" y="428.59" width="107.97" height="107.97"/><rect class="cls-2" x="99.6" y="795.33" width="125.08" height="50.98"/><rect class="cls-2" x="596.13" y="407.48" width="46.55" height="46.55"/><rect class="cls-5" x="1508.3" y="358.34" width="34.6" height="34.6"/><rect class="cls-5" x="683.07" y="589.34" width="34.6" height="34.6"/><circle class="cls-4" cx="251.86" cy="356.72" r="20.21"/><line class="cls-6" x1="248.81" y1="369.89" x2="249.06" y2="389.72"/><line class="cls-6" x1="224.72" y1="337.1" x2="240.7" y2="347.15"/><line class="cls-6" x1="260.9" y1="346.53" x2="271.39" y2="327.82"/><line class="cls-6" x1="236.99" y1="362.46" x2="223.52" y2="363.82"/><line class="cls-6" x1="253.8" y1="326.12" x2="252.62" y2="350.49"/><polyline class="cls-6" points="273.98 342.59 261.41 354.37 284.69 353.97"/><line class="cls-6" x1="242.16" y1="365.72" x2="232.58" y2="379.36"/><line class="cls-6" x1="254.25" y1="363.94" x2="261.16" y2="380.93"/><line class="cls-6" x1="259.18" y1="361.32" x2="276.28" y2="372.88"/><path class="cls-6" d="M227.62,350.21c5.65.91,6.28,2,11.93,2.86"/><path class="cls-6" d="M239.66,334.89c1.83,4.76,4,6.43,5.78,11.2"/><circle class="cls-4" cx="286.07" cy="353.78" r="5.21"/><circle class="cls-4" cx="224.72" cy="337.1" r="5.21"/><circle class="cls-4" cx="276.31" cy="340.76" r="5.21"/><circle class="cls-4" cx="238.71" cy="332.58" r="5.21"/><circle class="cls-4" cx="254.17" cy="327.8" r="5.21"/><circle class="cls-4" cx="225.38" cy="348.8" r="5.21"/><circle class="cls-4" cx="271.92" cy="326.57" r="5.21"/><circle class="cls-4" cx="232.34" cy="379.74" r="5.21"/><circle class="cls-4" cx="222.2" cy="363.64" r="5.21"/><circle class="cls-4" cx="262.21" cy="383.24" r="5.21"/><circle class="cls-4" cx="279.1" cy="374.65" r="5.21"/><circle class="cls-4" cx="248.81" cy="390.1" r="5.21"/><circle class="cls-7" cx="246.11" cy="352.47" r="5.33"/><circle class="cls-7" cx="260.36" cy="353.15" r="1.73"/><circle class="cls-7" cx="253.83" cy="364.36" r="3.04"/><circle class="cls-4" cx="1202.2" cy="324.23" r="16.15"/><line class="cls-6" x1="1199.77" y1="334.75" x2="1199.96" y2="350.59"/><line class="cls-6" x1="1180.52" y1="308.56" x2="1193.29" y2="316.59"/><line class="cls-6" x1="1209.42" y1="316.09" x2="1217.81" y2="301.15"/><line class="cls-6" x1="1190.32" y1="328.81" x2="1179.56" y2="329.9"/><line class="cls-6" x1="1203.75" y1="299.79" x2="1202.81" y2="319.25"/><polyline class="cls-6" points="1219.87 312.94 1209.83 322.35 1228.43 322.03"/><line class="cls-6" x1="1194.46" y1="331.41" x2="1186.8" y2="342.31"/><line class="cls-6" x1="1204.11" y1="329.99" x2="1209.63" y2="343.57"/><line class="cls-6" x1="1208.05" y1="327.9" x2="1221.71" y2="337.14"/><path class="cls-6" d="M1182.84,319c4.51.72,5,1.56,9.53,2.28"/><path class="cls-6" d="M1192.46,306.79c1.46,3.81,3.16,5.14,4.62,8.95"/><circle class="cls-4" cx="1229.53" cy="321.88" r="4.16"/><circle class="cls-4" cx="1180.52" cy="308.56" r="4.16"/><circle class="cls-4" cx="1221.73" cy="311.48" r="4.16"/><circle class="cls-4" cx="1191.7" cy="304.95" r="4.16"/><circle class="cls-4" cx="1204.05" cy="301.13" r="4.16"/><circle class="cls-4" cx="1181.05" cy="317.9" r="4.16"/><circle class="cls-4" cx="1218.23" cy="300.14" r="4.16"/><circle class="cls-4" cx="1186.61" cy="342.62" r="4.16"/><circle class="cls-4" cx="1178.51" cy="329.75" r="4.16"/><circle class="cls-4" cx="1210.47" cy="345.41" r="4.16"/><circle class="cls-4" cx="1223.96" cy="338.55" r="4.16"/><circle class="cls-4" cx="1199.77" cy="350.9" r="4.16"/><circle class="cls-7" cx="1197.61" cy="320.83" r="4.26"/><circle class="cls-7" cx="1208.99" cy="321.38" r="1.38"/><circle class="cls-7" cx="1203.77" cy="330.33" r="2.43"/><circle class="cls-4" cx="624.58" cy="172.52" r="22.4"/><line class="cls-6" x1="621.2" y1="187.12" x2="621.47" y2="209.09"/><line class="cls-6" x1="594.49" y1="150.78" x2="612.21" y2="161.92"/><line class="cls-6" x1="634.59" y1="161.22" x2="646.23" y2="140.49"/><line class="cls-6" x1="608.09" y1="178.88" x2="593.16" y2="180.39"/><line class="cls-6" x1="626.73" y1="138.61" x2="625.42" y2="165.61"/><polyline class="cls-6" points="649.09 156.85 635.17 169.91 660.97 169.47"/><line class="cls-6" x1="613.83" y1="182.49" x2="603.21" y2="197.61"/><line class="cls-6" x1="627.22" y1="180.52" x2="634.89" y2="199.35"/><line class="cls-6" x1="632.69" y1="177.62" x2="651.64" y2="190.43"/><path class="cls-6" d="M597.72,165.3c6.26,1,6.95,2.17,13.21,3.18"/><path class="cls-6" d="M611.06,148.32c2,5.28,4.38,7.14,6.41,12.42"/><circle class="cls-4" cx="662.5" cy="169.26" r="5.77"/><circle class="cls-4" cx="594.49" cy="150.78" r="5.77"/><circle class="cls-4" cx="651.68" cy="154.83" r="5.77"/><circle class="cls-4" cx="610.01" cy="145.76" r="5.77"/><circle class="cls-4" cx="627.14" cy="140.47" r="5.77"/><circle class="cls-4" cx="595.23" cy="163.74" r="5.77"/><circle class="cls-4" cx="646.82" cy="139.1" r="5.77"/><circle class="cls-4" cx="602.94" cy="198.04" r="5.77"/><circle class="cls-4" cx="591.71" cy="180.19" r="5.77"/><circle class="cls-4" cx="636.05" cy="201.91" r="5.77"/><circle class="cls-4" cx="654.77" cy="192.4" r="5.77"/><circle class="cls-4" cx="621.2" cy="209.52" r="5.77"/><circle class="cls-7" cx="618.21" cy="167.8" r="5.91"/><circle class="cls-7" cx="634" cy="168.56" r="1.92"/><circle class="cls-7" cx="626.76" cy="180.98" r="3.37"/><circle class="cls-4" cx="1732.11" cy="622.65" r="16.15"/><line class="cls-6" x1="1729.68" y1="633.17" x2="1729.87" y2="649.01"/><line class="cls-6" x1="1710.43" y1="606.98" x2="1723.2" y2="615.01"/><line class="cls-6" x1="1739.33" y1="614.51" x2="1747.72" y2="599.57"/><line class="cls-6" x1="1720.23" y1="627.24" x2="1709.47" y2="628.33"/><line class="cls-6" x1="1733.66" y1="598.21" x2="1732.72" y2="617.67"/><polyline class="cls-6" points="1749.78 611.36 1739.74 620.77 1758.34 620.46"/><line class="cls-6" x1="1724.37" y1="629.84" x2="1716.71" y2="640.73"/><line class="cls-6" x1="1734.02" y1="628.41" x2="1739.54" y2="641.99"/><line class="cls-6" x1="1737.96" y1="626.33" x2="1751.62" y2="635.56"/><path class="cls-6" d="M1712.75,617.45c4.51.73,5,1.56,9.53,2.29"/><path class="cls-6" d="M1722.37,605.21c1.46,3.81,3.16,5.14,4.62,8.95"/><circle class="cls-4" cx="1759.44" cy="620.3" r="4.16"/><circle class="cls-4" cx="1710.43" cy="606.98" r="4.16"/><circle class="cls-4" cx="1751.64" cy="609.9" r="4.16"/><circle class="cls-4" cx="1721.61" cy="603.37" r="4.16"/><circle class="cls-4" cx="1733.96" cy="599.55" r="4.16"/><circle class="cls-4" cx="1710.96" cy="616.32" r="4.16"/><circle class="cls-4" cx="1748.14" cy="598.56" r="4.16"/><circle class="cls-4" cx="1716.52" cy="641.04" r="4.16"/><circle class="cls-4" cx="1708.42" cy="628.18" r="4.16"/><circle class="cls-4" cx="1740.38" cy="643.83" r="4.16"/><circle class="cls-4" cx="1753.87" cy="636.98" r="4.16"/><circle class="cls-4" cx="1729.68" cy="649.32" r="4.16"/><circle class="cls-7" cx="1727.52" cy="619.25" r="4.26"/><circle class="cls-7" cx="1738.9" cy="619.8" r="1.38"/><circle class="cls-7" cx="1733.68" cy="628.75" r="2.43"/><circle class="cls-4" cx="628.12" cy="709.91" r="11.31"/><line class="cls-6" x1="626.41" y1="717.28" x2="626.55" y2="728.37"/><line class="cls-6" x1="612.93" y1="698.94" x2="621.87" y2="704.56"/><line class="cls-6" x1="633.17" y1="704.21" x2="639.05" y2="693.74"/><line class="cls-6" x1="619.79" y1="713.12" x2="612.26" y2="713.88"/><line class="cls-6" x1="629.2" y1="692.79" x2="628.54" y2="706.42"/><polyline class="cls-6" points="640.49 702 633.46 708.6 646.49 708.37"/><line class="cls-6" x1="622.69" y1="714.94" x2="617.33" y2="722.58"/><line class="cls-6" x1="629.45" y1="713.95" x2="633.32" y2="723.46"/><line class="cls-6" x1="632.21" y1="712.48" x2="641.78" y2="718.95"/><path class="cls-6" d="M614.56,706.27c3.16.51,3.51,1.09,6.67,1.6"/><path class="cls-6" d="M621.29,697.69c1,2.67,2.21,3.61,3.24,6.27"/><circle class="cls-4" cx="647.26" cy="708.26" r="2.91"/><circle class="cls-4" cx="612.93" cy="698.94" r="2.91"/><circle class="cls-4" cx="641.8" cy="700.98" r="2.91"/><circle class="cls-4" cx="620.76" cy="696.41" r="2.91"/><circle class="cls-4" cx="629.41" cy="693.73" r="2.91"/><circle class="cls-4" cx="613.3" cy="705.48" r="2.91"/><circle class="cls-4" cx="639.34" cy="693.04" r="2.91"/><circle class="cls-4" cx="617.19" cy="722.79" r="2.91"/><circle class="cls-4" cx="611.52" cy="713.78" r="2.91"/><circle class="cls-4" cx="633.91" cy="724.75" r="2.91"/><circle class="cls-4" cx="643.35" cy="719.94" r="2.91"/><circle class="cls-4" cx="626.41" cy="728.59" r="2.91"/><circle class="cls-7" cx="624.9" cy="707.53" r="2.98"/><circle class="cls-7" cx="632.87" cy="707.91" r="0.97"/><circle class="cls-7" cx="629.22" cy="714.18" r="1.7"/><circle class="cls-4" cx="1484.96" cy="164.83" r="23.49"/><line class="cls-6" x1="1481.41" y1="180.14" x2="1481.7" y2="203.17"/><line class="cls-6" x1="1453.41" y1="142.03" x2="1471.99" y2="153.71"/><line class="cls-6" x1="1495.45" y1="152.98" x2="1507.66" y2="131.25"/><line class="cls-6" x1="1467.67" y1="171.5" x2="1452.02" y2="173.08"/><line class="cls-6" x1="1487.21" y1="129.27" x2="1485.84" y2="157.58"/><polyline class="cls-6" points="1510.66 148.41 1496.06 162.1 1523.11 161.64"/><line class="cls-6" x1="1473.69" y1="175.28" x2="1462.55" y2="191.13"/><line class="cls-6" x1="1487.73" y1="173.21" x2="1495.76" y2="192.97"/><line class="cls-6" x1="1493.46" y1="170.17" x2="1513.33" y2="183.61"/><path class="cls-6" d="M1456.79,157.26c6.56,1.06,7.29,2.27,13.85,3.33"/><path class="cls-6" d="M1470.78,139.45c2.12,5.55,4.6,7.49,6.72,13"/><circle class="cls-4" cx="1524.71" cy="161.41" r="6.05"/><circle class="cls-4" cx="1453.41" cy="142.03" r="6.05"/><circle class="cls-4" cx="1513.37" cy="146.29" r="6.05"/><circle class="cls-4" cx="1469.68" cy="136.78" r="6.05"/><circle class="cls-4" cx="1487.64" cy="131.23" r="6.05"/><circle class="cls-4" cx="1454.18" cy="155.62" r="6.05"/><circle class="cls-4" cx="1508.27" cy="129.79" r="6.05"/><circle class="cls-4" cx="1462.27" cy="191.58" r="6.05"/><circle class="cls-4" cx="1450.49" cy="172.87" r="6.05"/><circle class="cls-4" cx="1496.98" cy="195.64" r="6.05"/><circle class="cls-4" cx="1516.61" cy="185.67" r="6.05"/><circle class="cls-4" cx="1481.42" cy="203.62" r="6.05"/><circle class="cls-7" cx="1478.28" cy="159.88" r="6.2"/><circle class="cls-7" cx="1494.83" cy="160.68" r="2.01"/><circle class="cls-7" cx="1487.24" cy="173.7" r="3.53"/><ellipse class="cls-8" cx="780.56" cy="932.29" rx="102.46" ry="12.44"/><ellipse class="cls-8" cx="464.87" cy="929.26" rx="186.97" ry="18.75"/><ellipse class="cls-8" cx="1176.36" cy="928.45" rx="186.97" ry="18.75"/><ellipse class="cls-8" cx="1467.64" cy="923.14" rx="258.32" ry="20.01"/><circle class="cls-2" cx="729.55" cy="80.76" r="16.72"/><circle class="cls-2" cx="1216.37" cy="98.08" r="17.33"/><circle class="cls-2" cx="1684.15" cy="144.09" r="17.23"/><circle class="cls-2" cx="341.08" cy="208.83" r="16.13"/></g><g id="woman"><path class="cls-9" d="M894.27,813.79c1.5.64,1.48,2,1.34,3.28a29.52,29.52,0,0,1-1.54,6.69c-2.75.54-5.53.09-6.54-2.35-.81-1.94.05-4.31-.54-6.24h0c1.59-.39,3.14-.87,4.65-1.39A3.62,3.62,0,0,1,894.27,813.79Z"/><path class="cls-4" d="M771,926.34a2.26,2.26,0,0,1-1.71,2.68,44.66,44.66,0,0,1-13.19,1.08L752.82,927l-9.94-11.58a10.54,10.54,0,0,1-2.43-5.39,52.17,52.17,0,0,1-1.64-18.53A93.3,93.3,0,0,0,758.65,897a48.16,48.16,0,0,0,12,27.54Z"/><path class="cls-4" d="M836,843.24a15.36,15.36,0,0,1-1.89,1.71c-9.54,7.27-23.7-.45-22.15-12l-2.12-.24c2.68-3.38,5.85-9,8-12.37C825.13,809.22,834.57,802,852,802c5.14,0,9,3.36,12.07,7.22a19,19,0,0,0,7.89,5.66c4.91,1.94,10.13,1.56,15.06.34.59,1.93-.27,4.3.54,6.24,1,2.44,3.79,2.89,6.54,2.35-5.24,14.39-21,15.15-35.37,18l-2.19.46a2.43,2.43,0,0,0-1.86,1.79L853,850.61l-.68-.17a28.1,28.1,0,0,1-16.09-6.94Z"/><path class="cls-4" d="M738.81,891.45c-.46-.19-.91-.39-1.34-.6A48.58,48.58,0,0,1,712.4,905.7l-.43,1.07c-2.56,8.24,1.18,11.05,1.37,18.44.24,9.47-13.63,3.24-18.66,2.3l-3.22-3.79c2-17.1,8.54-33.21,15.82-48.91-8.43,4-22.07,1.48-28.18-5.29a2.21,2.21,0,0,1,1.83-3.65c8.81.5,17.41-1.49,22.36-8.85a46.16,46.16,0,0,1,30.21-19.51c11.83-2,23.88.7,35.81,2,11.35,1.23,31.78,3.53,40-6.12l.53-.64,2.12.24c-1.55,11.53,12.61,19.25,22.15,12a15.36,15.36,0,0,0,1.89-1.71l.29.26a28.1,28.1,0,0,0,16.09,6.94l.68.17-1.93,7.86c-2.54,10.36-5.5,21.43-13.6,28.37l.4.42c-1,5.87-2.21,11.17-.38,16.83,4.11,12.69,4.27,13.17,13,23.6a2.9,2.9,0,0,1,.52,2.83l-.29.81a23.8,23.8,0,0,1-12.86-.16L833.74,929a81.18,81.18,0,0,1-14.64-23.45l-.78-1.61c-2,4.46-2.84,8.67-.65,14.41,2.25,5.91,6.19,10.54,10.21,15.34a2.91,2.91,0,0,1,.52,2.83l-.29.82a23.94,23.94,0,0,1-12.87-.16L811.09,935a81.16,81.16,0,0,1-14.65-23.45l-.79-1.65a25.26,25.26,0,0,1,.6-11.17,186.13,186.13,0,0,1-23.62-.12,123,123,0,0,1-14-1.67A93.3,93.3,0,0,1,738.81,891.45Z"/><path class="cls-10" d="M850.53,927.69c-4.43-5.29-6.65-8-8.3-11.08a37.28,37.28,0,0,0-4.15,3.75c-3.05,3-7.83.88-10.38,1a81,81,0,0,0,6,7.66l4.16,2.16a23.8,23.8,0,0,0,12.86.16l.29-.81A2.9,2.9,0,0,0,850.53,927.69Z"/><path class="cls-10" d="M804.31,926.29a80.57,80.57,0,0,0,6.78,8.73l4.15,2.17a23.94,23.94,0,0,0,12.87.16l.29-.82a2.91,2.91,0,0,0-.52-2.83,88.65,88.65,0,0,1-7.08-9.19C814.89,923.72,809.33,923.75,804.31,926.29Z"/><path class="cls-10" d="M698.08,917.36a46.15,46.15,0,0,0-4.77-4.41,99.69,99.69,0,0,0-1.85,10.77l3.22,3.79c5,.94,18.9,7.17,18.66-2.3-.12-4.51-1.55-7.31-2.07-10.68C706.59,918,701.78,921.8,698.08,917.36Z"/><path class="cls-11" d="M610.18,921.16a2.79,2.79,0,0,1-2,4.78c-38-1.42-76.09,1.41-114.13-1.34a3.64,3.64,0,0,1-3.33-4.11c2.2-16.4,4.36-39.37,5.75-54.29q29.38.54,58.75.68c-.2,7.21-.39,15.41-.58,22.61C572.94,896.1,595.6,906.9,610.18,921.16Z"/><path class="cls-11" d="M400.54,924.69a1.21,1.21,0,0,1,.46,1,1.24,1.24,0,0,1-1.24,1.21h-.1c-36.23-3.17-72.33-3.76-108.2-9.75a2.89,2.89,0,0,1-2.29-3.73c4.77-15.1,11.15-43.29,15.36-56.6,12,2.6,24.61,3.13,37,3.63l20.82.83c-2.9,8-5.52,20.11-7.85,28.3Q378,906.47,400.54,924.69Z"/><path class="cls-12" d="M553.68,656.14a1749.24,1749.24,0,0,1,7.86,211.78h-2.1l-4.26,0q-29.38-.14-58.75-.68l-3.93-.07c1.76-67.35-10.75-201-11.72-211.24q-.06-.61-.18-1.23c-5.14-25.56-17.83-50.72-27.1-75.18v0s0,0,0-.05c-1.46-6.09-2.92-12.09-4.15-18q-6.43-30.69-11.46-61.65c16.33,13.14,38.35,29.47,55.91,37.37l.09-.06c5.83,9.72,16.09,17.65,26.59,22.48,10.79,23.28,20.86,46.66,28.15,70.55,1,3.44,2.67,13.66,3.48,17.16l.49,2.16A52.12,52.12,0,0,1,553.68,656.14Z"/><path class="cls-13" d="M465.81,428c7.23,27.4,18.38,54,30.51,80.3-19.57-21.82-43.8-46-64.91-63.44a5.1,5.1,0,0,1-1.68-2.63c-.68-2.62-1.87-8-3.36-14.92A90.65,90.65,0,0,0,465.81,428Z"/><path class="cls-13" d="M455.5,579.48c4.27,17.85,6.51,36.48,4.68,54.82-2.61,26.36-18.71,53.29-28.53,77.75-20.53,51.17-41.06,99.35-61.59,150.52l-7.72-.31-20.82-.83c-12.38-.5-24.95-1-37-3.63q-4.09-.87-8.1-2.1c25.26-79.78,56.64-154.62,93.79-229.61a12.19,12.19,0,0,0,1.21-6.59l-.83-8.33c-16.78-47.72-33.82-97.54-27.77-147.76,1.86-15.51,6.24-31.27,15.39-43.74a187,187,0,0,0,36.57,60.57s10.6,8.69,24.08,19.55c3.36,20.64,8.17,41.19,12.46,61.65C452.56,567.31,455.5,579.47,455.5,579.48Z"/><path class="cls-10" d="M409.77,328.64c7.41,4.39,17.75,4.12,23.69,1.32-.31-3-.84-6.59-1.41-10.22,8.95-1.18,18.17-1,26.12,1.91a30.26,30.26,0,0,1,17.93,16.79,68.93,68.93,0,0,1,5.29,18.14c2.8,19.9,3.59,42.8,6.39,62.69,10.88,26.13,25.43,48.6,34.25,80-7.19,3.94-13.38,10.67-17.8,17.56L504,517q.4.45.78.9l-.26.22A66.51,66.51,0,0,1,494.06,536l-.74.16.55,1-.09.06c-17.56-7.9-39.58-24.23-55.91-37.37-13.48-10.86-23.08-19.55-23.08-19.55a189,189,0,0,1-48.28-131.06,26.77,26.77,0,0,1,6-16.15,24.51,24.51,0,0,1,3-3.07c9.23-8.08,23.45-11.85,34.82-10.79C410,322.61,409.85,325.86,409.77,328.64Zm56,99.36a90.65,90.65,0,0,1-39.44-.69c1.49,6.91,2.68,12.3,3.36,14.92a5.1,5.1,0,0,0,1.68,2.63c21.11,17.45,45.34,41.62,64.91,63.44C484.19,482,473,455.4,465.81,428Z"/><path class="cls-14" d="M461.53,290.51a18.72,18.72,0,0,1,6.29,19.11c-1.08,4-5,9.25-9.65,12-7.95-2.89-17.17-3.09-26.12-1.91-1.09-7-2.31-14.34-2.31-18.81l.37-1.07a13,13,0,0,0,7.67.46c3.73-1,6.59-4.2,8.12-7.76A31.75,31.75,0,0,0,448,281.19c.22-5.3-3.34-17.86-5.11-22.74a1.19,1.19,0,0,0-2.15-.2c-4.71,8.31-13.93,16-23.52,16.2l-4-2.34a9.26,9.26,0,0,0-9.7,8.82c0,4.91,3.77,9.29,8.66,8.86l-.38,4.29c0,6.18-.86,16.23-1.46,25.09-11.37-1.06-25.59,2.71-34.82,10.79a24.51,24.51,0,0,0-3,3.07,19.54,19.54,0,0,1-10.29-32.29c4.95-5.46,12.57-7.77,17.87-12.9,11.7-11.33,8.42-32.15,19.46-44.13,6.51-7.06,17.13-9.48,26.5-7.38a43.44,43.44,0,0,1,23.61,14.78c6.49,8.33,5.16,20.4,5.74,30.34a11,11,0,0,0,.7,3.87C457.11,287.64,459.54,288.93,461.53,290.51Z"/><path class="cls-15" d="M547.66,536.93c-.07-.18-.13-.21-.16-.06l.16.06a30.41,30.41,0,0,1,1,7c-.3,1.33-.59,2.67-.89,4-.59,2.68-1.25,5.48-3.1,7.5-1.7,1.86-4.76,2.72-6.81,1.4,1.9-2,3.14-4.83,2.39-7a19.29,19.29,0,0,0,2.94-6.09,3.37,3.37,0,0,0-2-4l-3.47-1.39c-10.44-6.55-21.85-13.1-32.32-19.66l-.64-.74q-.37-.45-.78-.9l.22-.19c4.42-6.89,10.61-13.62,17.8-17.56l.24-.13.2-.06c2.18,7.34,9.84,11.91,15,17.22a80.8,80.8,0,0,1,6.79,7.66,40.1,40.1,0,0,1,5.69,10.64A1.8,1.8,0,0,1,547.66,536.93Z"/><path class="cls-15" d="M537.89,556.87a9.2,9.2,0,0,1-3.47,2.39,6,6,0,0,1-2.84,3.81,4.61,4.61,0,0,1-4.15-.18l-3-1.59a3.55,3.55,0,0,0-.44-.21c-1.18-.46-2.36-1-3.54-1.51-10.5-4.83-20.76-12.76-26.59-22.48l-.55-1,.74-.16a66.51,66.51,0,0,0,10.47-17.83l.26-.22.64.74c10.47,6.56,21.88,13.11,32.32,19.66l3.47,1.39a3.37,3.37,0,0,1,2,4,19.29,19.29,0,0,1-2.94,6.09C541,552,539.79,554.84,537.89,556.87Z"/><path class="cls-15" d="M430.11,299.86l-.37,1.07c0,4.47,1.22,11.79,2.31,18.81.57,3.63,1.1,7.18,1.41,10.22-5.94,2.8-16.28,3.07-23.69-1.32.08-2.78.27-6,.5-9.47.6-8.86,1.46-18.91,1.46-25.09l.38-4.29c-4.89.43-8.66-4-8.66-8.86a9.26,9.26,0,0,1,9.7-8.82l4,2.34c9.59-.22,18.81-7.89,23.52-16.2a1.19,1.19,0,0,1,2.15.2c1.77,4.88,5.33,17.44,5.11,22.74a31.75,31.75,0,0,1-2.05,11.37c-1.53,3.56-4.39,6.73-8.12,7.76A13,13,0,0,1,430.11,299.86Z"/><path class="cls-10" d="M414.36,277.15l-.19,0c-1.12.35-1.24,1.86-1.15,3,.41,5.09.9,8.43,4.6,12.32a38.47,38.47,0,0,0,12.21,8.14l.28-.82a13,13,0,0,0,7.67.46c3.73-1,6.59-4.2,8.12-7.76A31.75,31.75,0,0,0,448,281.19a20,20,0,0,0-.18-3.11,32.82,32.82,0,0,1-12.72,2.54,40.36,40.36,0,0,1-6.59-.49c-1.95-.31-4.36-.21-6.16-.76l-6.59-2A3.16,3.16,0,0,0,414.36,277.15Z"/><path class="cls-16" d="M430,300.11a21.65,21.65,0,0,1-8.87-4.8.8.8,0,0,0-.26.16,33.15,33.15,0,0,0,3.35,8.51,18,18,0,0,0,2.85,3.81c.36.35,3.53,2.22,3.55,2.33a76.74,76.74,0,0,1-.5-9.1A3.5,3.5,0,0,0,430,300.11Z"/><path class="cls-17" d="M412.53,276.29c0-.29-.42-.34-.7-.24a5.91,5.91,0,0,0-3.86,3.8,3.72,3.72,0,0,0,2.34,4.49"/><path class="cls-17" d="M441.53,271.94a13,13,0,0,0,1.4,4.22c.59,1.37,2.06,1.91,1.63,3.34"/><path d="M435.94,271.37a1.52,1.52,0,0,0-.78-.21,1.84,1.84,0,0,0-.41,0h0l-.36.15h0a1.48,1.48,0,0,0-.55.56,2.06,2.06,0,0,0-.16.37h0a1.79,1.79,0,0,0,0,.86h0s.14.35.15.36h0a1.55,1.55,0,0,0,.55.55h0l.36.15a1.19,1.19,0,0,0,.42.06,1.46,1.46,0,0,0,.78-.22,1,1,0,0,0,.42-.38,1.06,1.06,0,0,0,.27-.51,1.66,1.66,0,0,0-.15-1.16l-.23-.3a1.47,1.47,0,0,0-.67-.39l-.39-.05a1.54,1.54,0,0,0-.76.2h0l.36-.15h0l.4-.05h0l.4.05h0l.36.15h0l.3.24h0l.23.3h0l.15.36a.08.08,0,0,0,0,0l.06.4v0l-.06.4a0,0,0,0,0,0,0l-.15.36v0l-.23.31h0l-.3.23h0l-.36.15h0l-.4.05h0l-.4-.05h0l-.35-.15h0a1.12,1.12,0,0,0,.56.18,1.08,1.08,0,0,0,.59,0,1.14,1.14,0,0,0,.51-.27,1.12,1.12,0,0,0,.39-.42l.15-.36a1.55,1.55,0,0,0,0-.8l-.15-.36a1.55,1.55,0,0,0-.54-.54Z"/><path d="M445.52,270.85a1.55,1.55,0,0,0-.78-.21,1.84,1.84,0,0,0-.41.05h0l-.36.15h0a1.53,1.53,0,0,0-.55.55,2,2,0,0,0-.16.37v0a1.79,1.79,0,0,0,0,.86h0l.15.36h0a1.91,1.91,0,0,0,.24.32,3.65,3.65,0,0,0,.31.24h0l.36.15a1.15,1.15,0,0,0,.41.05,1.56,1.56,0,0,0,.79-.21,1,1,0,0,0,.42-.39,1,1,0,0,0,.27-.51,1.19,1.19,0,0,0,0-.59,1.12,1.12,0,0,0-.18-.56l-.23-.31a1.54,1.54,0,0,0-.67-.38l-.39-.06a1.55,1.55,0,0,0-.76.21h0l.36-.16h0l.4-.06h0l.4.06h0l.36.15h0l.3.24h0l.23.3v0l.15.36a0,0,0,0,0,0,0l.06.4v0l-.06.4a0,0,0,0,0,0,0l-.15.36v0l-.23.3h0l-.3.23h0l-.36.15h0l-.4.06h0l-.4-.06h0l-.35-.15h0a1.12,1.12,0,0,0,.56.18,1,1,0,0,0,.59,0,1,1,0,0,0,.51-.26,1.08,1.08,0,0,0,.39-.43l.15-.35a1.55,1.55,0,0,0,0-.8l-.15-.36a1.47,1.47,0,0,0-.54-.54Z"/><path class="cls-17" d="M431.74,270a7.22,7.22,0,0,1,5.06-1.4"/><path class="cls-17" d="M442.26,268a5.26,5.26,0,0,1,3,0"/><path class="cls-17" d="M447.72,279.21c-10.58,1.43-21.79,2.79-31.58-1.48"/><path class="cls-18" d="M311.13,859c20.43-75.29,53.64-146.61,87-217.25,3.86-8.18,7.78-16.56,8.58-25.57,1.14-12.94-4.26-25.42-8.8-37.59a313.39,313.39,0,0,1-19.34-125.14"/><path class="cls-18" d="M290.4,909.35q53.81,9,108.21,13.79"/><path class="cls-18" d="M490.79,919.68a910,910,0,0,0,119.08,1.18"/><path d="M856.55,820.53v.81a1.25,1.25,0,0,0,.13.57,1.32,1.32,0,0,0,.8.8,1.22,1.22,0,0,0,.57.13l.4-.06a1.45,1.45,0,0,0,.66-.38l.24-.31a1.5,1.5,0,0,0,.2-.75v-.81a1.06,1.06,0,0,0-.13-.58,1.36,1.36,0,0,0-.79-.79,1.06,1.06,0,0,0-.58-.13l-.4.05a1.49,1.49,0,0,0-.66.39l-.23.3a1.45,1.45,0,0,0-.21.76Z"/><path class="cls-10" d="M812.14,834.71c0,5.76,4.81,10.84,10.24,12.18a14.36,14.36,0,0,0,8.5-.61c2.26-.88,5.69-2.64,6.15-5.29a.34.34,0,0,0-.49-.37,18.5,18.5,0,0,0-2.94,2.3,13.24,13.24,0,0,1-3.15,1.78,13,13,0,0,1-7.63.61c-5.26-1.21-8.73-5.68-10.26-10.65a.21.21,0,0,0-.42.05Z"/><path class="cls-10" d="M719.08,876l2.53-3.32,1.25-1.64c.21-.27.43-.54.63-.82s.43-.52.42-.83a.2.2,0,0,0-.25-.19c-.28.08-.45.37-.62.59s-.41.57-.61.85l-1.22,1.73-2.43,3.46c-.14.18.16.35.3.17Z"/><path class="cls-10" d="M723,878.37a11.19,11.19,0,0,1,1.51-3.36c.33-.5.62-1,1-1.48.18-.24.38-.45.57-.67a.9.9,0,0,0,.23-.48c0,.12.05,0,.07-.09a1.13,1.13,0,0,1,.12-.21.26.26,0,0,0-.35-.35l-.23.11s-.21.1-.09.06a1,1,0,0,0-.46.24,6.5,6.5,0,0,0-.64.75,8,8,0,0,0-1.1,1.67,12.21,12.21,0,0,0-1,3.76c0,.2.3.24.35,0Z"/><path class="cls-10" d="M833.92,864.54a14.37,14.37,0,0,1,.3,4.14,11,11,0,0,1-.3,2c-.07.32-.18.63-.27,1a6,6,0,0,0-.14,1c0,.16.23.26.34.14a3.93,3.93,0,0,0,.58-.82,5.79,5.79,0,0,0,.31-1.08,11.86,11.86,0,0,0,.3-2.14,9.74,9.74,0,0,0-.82-4.29c-.08-.18-.35-.12-.3.08Z"/><path class="cls-10" d="M838.45,866.21c0,.16,0,.32-.05.48s-.09.27-.11.41,0,.52,0,.78a10,10,0,0,1-.32,1.63c-.15.54-.37,1-.54,1.58s-.37,1-.57,1.53c-.07.19.2.32.33.19a6.68,6.68,0,0,0,1-1.39,6.47,6.47,0,0,0,.61-1.73,10.24,10.24,0,0,0,.27-1.76,3.7,3.7,0,0,0,0-.88c0-.14-.09-.27-.12-.41s-.07-.32-.11-.48-.36-.16-.38.05Z"/><path class="cls-10" d="M761.85,890.21c.16,0,.34,0,.5,0a1.05,1.05,0,0,0,.31,0,5.27,5.27,0,0,0,.88-.27,8.37,8.37,0,0,0,3.08-2,4.39,4.39,0,0,0,.58-.71,1.38,1.38,0,0,0,.37-.8.18.18,0,0,0-.26-.16c-.25.12-.39.41-.57.61s-.38.45-.58.66a7.88,7.88,0,0,1-1.31,1.13,8,8,0,0,1-1.53.81c-.26.1-.54.16-.8.26-.1,0-.16.11-.26.16a2.06,2.06,0,0,1-.44.14c-.1,0-.08.2,0,.19Z"/><path class="cls-10" d="M765.84,891.84a5.81,5.81,0,0,0,2.35-.61,6.07,6.07,0,0,0,1-.65,2.34,2.34,0,0,0,.44-.45,1.73,1.73,0,0,0,.29-.51.22.22,0,0,0-.32-.25,4.13,4.13,0,0,0-.42.31l-.44.37a4.88,4.88,0,0,1-.88.6,5,5,0,0,1-2,.6c-.37,0-.38.6,0,.59Z"/><circle class="cls-19" cx="383.2" cy="356.37" r="5.57"/><circle class="cls-19" cx="481.01" cy="412.1" r="5.57"/><circle class="cls-19" cx="450.85" cy="347.49" r="5.57"/><circle class="cls-19" cx="447.96" cy="486.71" r="5.57"/><path class="cls-17" d="M496.32,508.3c-12.2-26.46-23.4-53.18-30.63-80.74"/><path class="cls-17" d="M487.78,419.27c-2.8-19.89-3.59-42.79-6.39-62.69a68.93,68.93,0,0,0-5.29-18.14,30.26,30.26,0,0,0-17.93-16.79c-7.95-2.89-17.17-3.09-26.12-1.91"/><path class="cls-17" d="M462.53,364.45a293.64,293.64,0,0,1,3.16,63.11"/><path class="cls-17" d="M487.78,419.27c10.9,26.17,25.47,48.66,34.29,80.15"/><path class="cls-17" d="M505.59,518.87l-.16-.19c-2.89-3.37-5.94-6.84-9.11-10.38-19.57-21.82-43.8-46-64.91-63.44a5.1,5.1,0,0,1-1.68-2.63c-2.55-9.78-12.17-58.11-17.86-80.29"/><path class="cls-17" d="M493.78,537.16c-32-14.43-79-56.92-79-56.92a188.84,188.84,0,0,1-48.28-131.06,26.77,26.77,0,0,1,6-16.15,24.51,24.51,0,0,1,3-3.07c9.23-8.08,23.45-11.85,34.82-10.79"/><path class="cls-17" d="M429.74,300.93c0,4.47,1.22,11.79,2.31,18.81.57,3.63,1.1,7.18,1.41,10.22"/><path class="cls-17" d="M409.77,328.64c7.41,4.39,17.75,4.12,23.69,1.32"/><path class="cls-17" d="M417.17,274.45l-2.35-1.37a6.1,6.1,0,0,0-5.05-.54,9.31,9.31,0,0,0-6.32,8.39c0,4.91,3.77,9.29,8.66,8.86l-.38,4.29c0,6.18-.86,16.23-1.46,25.09-.23,3.44-.42,6.69-.5,9.47"/><path class="cls-17" d="M426.37,427.31a90.65,90.65,0,0,0,39.44.69"/><path class="cls-17" d="M493.32,536.15c5.72,10.16,16.3,18.44,27.14,23.43,1.18.54,2.36,1,3.54,1.51a3.55,3.55,0,0,1,.44.21l3,1.59a4.61,4.61,0,0,0,4.15.18,6,6,0,0,0,2.84-3.81,9.2,9.2,0,0,0,3.47-2.39c1.9-2,3.14-4.83,2.39-7a19.29,19.29,0,0,0,2.94-6.09,3.37,3.37,0,0,0-2-4l-3.47-1.39c-10.44-6.55-21.85-13.1-32.32-19.66l-.42-.26"/><path class="cls-17" d="M526.91,518.36a20.84,20.84,0,0,0,9.87,10.47c4.13,1.87,5.28,3.27,8.15,6.69a1.86,1.86,0,0,0,.65.5l1.92.85a1.8,1.8,0,0,0,2.42-2.25A40.1,40.1,0,0,0,544.23,524a80.8,80.8,0,0,0-6.79-7.66c-5.21-5.39-13-10-15.08-17.57"/><path class="cls-17" d="M504.23,516.85c4.47-7,10.75-13.77,18-17.69"/><path class="cls-17" d="M547.5,536.87c.22-1,1.41,6.1,1.19,7.1l-.89,4c-.59,2.68-1.25,5.48-3.1,7.5s-5.3,2.86-7.32,1"/><path class="cls-17" d="M504.53,518.16A66.51,66.51,0,0,1,494.06,536"/><path class="cls-17" d="M555.18,867.88q-.3,10.82-.58,21.61"/><path class="cls-17" d="M796.25,898.75a186.13,186.13,0,0,1-23.62-.12,123,123,0,0,1-14-1.67,93.3,93.3,0,0,1-19.84-5.51c-.46-.19-.91-.39-1.34-.6l-.12-.05"/><path class="cls-17" d="M758.65,897a48.16,48.16,0,0,0,12,27.54l.39,1.84a2.26,2.26,0,0,1-1.71,2.68,44.66,44.66,0,0,1-13.19,1.08L752.82,927l-9.94-11.58a10.54,10.54,0,0,1-2.43-5.39,52.17,52.17,0,0,1-1.64-18.53c0-.3.05-.6.08-.9"/><path class="cls-17" d="M711.75,865.28c-8.9,18.72-17.92,37.86-20.3,58.44l3.22,3.79c5,.94,18.9,7.17,18.66-2.3-.19-7.4-3.92-10.2-1.36-18.44l.43-1.08a48.59,48.59,0,0,0,29.52-20.64"/><path class="cls-17" d="M837.5,886.84c8.11-7,11.07-18,13.61-28.37l3.54-14.42a2.43,2.43,0,0,1,1.85-1.8l2.19-.46C875,838.5,893.16,838,895.6,817.06c.15-1.23.16-2.63-1.34-3.28a3.67,3.67,0,0,0-2.63,0c-6.18,2.13-13.22,3.63-19.71,1.06a19,19,0,0,1-7.88-5.66C861,805.31,857.11,802,852,802c-17.4,0-26.84,7.27-34.11,18.4-2.34,3.59-5.8,9.76-8.57,13-8.2,9.65-28.63,7.34-40,6.12-11.93-1.28-24-4-35.8-2A46.21,46.21,0,0,0,703.29,857c-4.95,7.37-13.55,9.36-22.36,8.86a2.2,2.2,0,0,0-1.83,3.64c6.25,6.93,20.38,9.42,28.74,5"/><path class="cls-17" d="M843.09,821.43c-1.19,2.06-1.26,4.56-1.46,6.93-.54,6.23-2.57,12.8-7.54,16.59-9.54,7.27-23.7-.46-22.16-12"/><path class="cls-17" d="M822.52,895.36c-4,8.58-8.35,13.84-4.86,23,2.26,5.91,6.19,10.54,10.21,15.34a2.9,2.9,0,0,1,.52,2.83l-.29.81a23.8,23.8,0,0,1-12.86-.15L811.08,935a81.13,81.13,0,0,1-14.64-23.45l-.8-1.65a25.31,25.31,0,0,1,4.14-18.65"/><path class="cls-17" d="M818.32,904l.78,1.61A81.18,81.18,0,0,0,833.74,929l4.16,2.16a23.8,23.8,0,0,0,12.86.16l.29-.81a2.9,2.9,0,0,0-.52-2.83c-8.73-10.43-8.89-10.91-13-23.6-1.84-5.66-.59-11,.38-16.83"/><path class="cls-17" d="M826.5,892.18a10.1,10.1,0,0,0,8.07-4.14"/><path class="cls-17" d="M887,815.16h0c.59,1.93-.27,4.3.54,6.24,1,2.44,3.79,2.89,6.54,2.35"/><path class="cls-17" d="M543.22,543.73C590.63,623.3,784.79,818.32,811.93,833"/><path class="cls-17" d="M852.36,850.43a28,28,0,0,1-16.09-6.94"/><path class="cls-17" d="M849.14,819.26l5.69-4"/></g><g id="man"><path class="cls-20" d="M1097.36,932.29c-81.2,0-147.26-66.07-147.26-147.27s66.06-147.26,147.26-147.26S1244.63,703.82,1244.63,785,1178.56,932.29,1097.36,932.29Zm0-281.53c-74,0-134.26,60.23-134.26,134.26s60.23,134.27,134.26,134.27S1231.63,859.06,1231.63,785,1171.39,650.76,1097.36,650.76Z"/><circle class="cls-21" cx="1097.36" cy="785.02" r="12.94"/><path class="cls-22" d="M1097.36,785c49.09-92.19,88.33-181.64,115.46-267.7"/><circle class="cls-23" cx="1356.75" cy="799.4" r="40.25"/><path class="cls-22" d="M1361.22,805.66l191-18.32a1.68,1.68,0,0,0,1.12-2.75l-154-182"/><path class="cls-24" d="M1217.05,467.1c-16.38,1.18-34.22,4.54-44.72,17.17-3.4,4.08-5.88,9.65-4.12,14.66s7,7.74,11.94,9.75a186.41,186.41,0,0,0,32.43,10.14"/><path class="cls-21" d="M1419.06,506.25a111.35,111.35,0,0,1,60.45,11c2.42,1.2,5,2.74,5.8,5.32,1.76,5.72-6,9.34-11.93,10.13a356.53,356.53,0,0,1-70.57,2.28"/><line class="cls-22" x1="1190.05" y1="585.99" x2="1287.63" y2="590.84"/><line class="cls-22" x1="1306.33" y1="731.08" x2="1354.55" y2="804.1"/><line class="cls-25" x1="1297.74" y1="854.73" x2="1346.2" y2="854.73"/><line class="cls-25" x1="1287.63" y1="747.89" x2="1326.83" y2="740.06"/><path class="cls-20" d="M1554.69,935.76c-81.21,0-147.27-66.07-147.27-147.27s66.06-147.26,147.27-147.26S1702,707.29,1702,788.49,1635.89,935.76,1554.69,935.76Zm0-281.53c-74,0-134.27,60.23-134.27,134.26s60.23,134.27,134.27,134.27S1689,862.53,1689,788.49,1628.72,654.23,1554.69,654.23Z"/><circle class="cls-20" cx="1554.69" cy="788.49" r="12.94"/><line class="cls-21" x1="1584.37" y1="767.59" x2="1644.24" y2="724.91"/><line class="cls-21" x1="1116.31" y1="812.9" x2="1149.09" y2="875.25"/><line class="cls-21" x1="1541.74" y1="833.51" x2="1514.8" y2="888.92"/><line class="cls-21" x1="1061.77" y1="669.69" x2="1081.42" y2="726.91"/><line class="cls-21" x1="1644.24" y1="852.94" x2="1584.37" y2="812.9"/><line class="cls-21" x1="984.1" y1="817.68" x2="1050.44" y2="799.4"/><path class="cls-15" d="M1188.55,477.4c-.58.62-1.15,1.22-1.73,1.75a9.94,9.94,0,0,1-1.79,1.38,1.22,1.22,0,0,1-1.76-1.44,26.49,26.49,0,0,1,1.86-4.34c5.49-10.36,16.47-15,25.62-17.64,10.1-2.94,21.21.89,31.69-.09q.91,7.26,1.84,14.51c-13.61,4.47-16,4.62-31.41,1.78a7.18,7.18,0,0,0-1.31-.13l-10.63-.18c-5.48.72-8.07,8.47-13.18,9.55a.86.86,0,0,1-1-1.08A14.2,14.2,0,0,1,1188.55,477.4Zm3-3.38a14.32,14.32,0,0,0-3,3.37C1189.55,476.3,1190.54,475.13,1191.54,474Z"/><path class="cls-15" d="M1242,455.56l.3,0,.18,1.5c-10.48,1-21.59-2.85-31.69.09-9.15,2.66-20.13,7.28-25.62,17.64l-.5-.26c-4.3-11.59,16.35-20.79,24.64-22.93,7.17-1.85,14.49-1.8,21.58-3.84a49.64,49.64,0,0,0,5.67-2A34.93,34.93,0,0,1,1242,455.56Z"/><path class="cls-10" d="M1242,447.91l.07.13c.22,1.72-.56,1.45-.34,3.17.18,1.44.36,2.87.55,4.31l-.3,0a34.93,34.93,0,0,0-5.44-9.86,137.74,137.74,0,0,0,14.68-7.6c12.73-7.18,24.54-16.5,36.58-24.78,3.51-2.41,7.08-4.89,9.67-8.27s4-7.3,5.38-11.23c4.35-12.41,8.74-25.1,11.5-38,1.85-8.65,2.69-19.35,10.54-24.73,1.3,3,2.58,5.87,3.78,8.37-11.86,22.87-17.87,47.14-25.84,71.45l.07.11Q1272.86,430.19,1242,447.91Z"/><path class="cls-10" d="M1367.73,326.44a16.4,16.4,0,0,1,.66,1.77,4.92,4.92,0,0,0-1.83-2.16,69.12,69.12,0,0,0-13.25-6.39c-3-1.07-6.39-1.93-9.4-.83-2.39.87-4.18,2.84-5.85,4.76-3.2,3.67-5.55,8.72-7.88,13-.52,1-1,1.92-1.53,2.89-11.86,22.87-17.87,47.14-25.84,71.45l.07.11q-30,19.13-60.9,36.85l.07.13c.22,1.72-.56,1.45-.34,3.17.18,1.44.36,2.87.55,4.31l.18,1.5q.91,7.26,1.84,14.51l.87,6.89c28.39-11,61.54-23.33,87.94-33.56a16.1,16.1,0,0,0,8.38-7.2c.18-.33.35-.67.5-1,1.39-3,2.81-6.16,4.23-9.38,6,7.7,12.17,14.39,17.64,24.17.33.89.65,1.79,1,2.68a185.45,185.45,0,0,0,66.37-44.87C1407.2,370.37,1377.37,331.05,1367.73,326.44Z"/><path class="cls-13" d="M1347.83,599.91l.33-2.84L1348,597c5.75-18.63,10.89-36.46,15.65-54.36A318,318,0,0,1,1338,565.92a2.8,2.8,0,0,0-.86,3.17q5.75,15.17,10.26,30.76Zm-9.34,89.49a121.18,121.18,0,0,1-19.81,3.65h0L1268.06,551a22.71,22.71,0,0,1,3.65-21.14,22.35,22.35,0,0,1,4.62-4.44c29.16-21,59.21-43,90-61.85a2.23,2.23,0,0,0,.94-2.67c-.83-2.25-1.65-4.51-2.48-6.76a185.45,185.45,0,0,0,66.37-44.87c.37.57,20.24,29.24,25.78,45a52.91,52.91,0,0,1,1.57,29.29c-7.76,34-20.94,66.86-34.58,99.08-6.84,16.16-13.85,32.35-18.09,49.38-3.71,14.89-5.24,30.21-6.76,45.48q-5.59,56-11.18,112c-2-.08-4-.22-6-.39h0l-40.67-3.33-9.46-.77q1.07-22.93,2.73-46.31,1.29-18.4,2.9-36.94Q1337.93,695.54,1338.49,689.4Z"/><path class="cls-12" d="M1338,565.92q10.88-8.83,20.94-18.58c2.11-5.61,4.19-11.25,5.9-17a3.14,3.14,0,0,1-.06-1.34c1.28-7.46,3-14.83,4.43-22.25,1.36-6.79,3.13-14.11,2.67-21.06-.49-7.5-3.31-15-4.22-22.47-31.73,18.71-61.42,40.69-91.28,62.22a22.35,22.35,0,0,0-4.62,4.44,22.71,22.71,0,0,0-3.65,21.14s50.61,142.07,50.62,142.07a120.71,120.71,0,0,0,17-2.94c3.73-31,5.25-62.45,10.43-94.42q-4-13.44-9-26.6A2.8,2.8,0,0,1,1338,565.92Z"/><path class="cls-15" d="M1340.48,800.4c.87-8.65-.13-5.65.74-14.3l0-.41,40.67,3.33h0c-.16,5-.42,10.66-.77,16.57-8.18,2.49-18,.81-26.64-1.49-4.32-1.15-8.82-2.38-13.33-3.17h0l-.51-.09Z"/><path class="cls-15" d="M1338.49,689.4q-.56,6.14-1.07,12.27a18.88,18.88,0,0,1-4.33,1.11c-4.27.56-8.55,0-12.82-.76a6.51,6.51,0,0,0,0-4.44l-1.61-4.53A121.18,121.18,0,0,0,1338.49,689.4Z"/><path class="cls-11" d="M1381.19,805.59c-.66,11.52-1.62,23.92-2.63,33.88a6.31,6.31,0,0,1-5,5.52,490.17,490.17,0,0,1-93.34,9.74,2.1,2.1,0,0,1-1.39-3.67c17.19-15.37,45.48-38.15,62.37-50.13h0c4.51.79,9,2,13.33,3.17C1363.17,806.4,1373,808.08,1381.19,805.59Z"/><path class="cls-11" d="M1337.42,701.67q-1.61,18.51-2.9,36.94c-22,3.57-43.64,12.43-62.78,8.59a3.09,3.09,0,0,1-1.67-.86,3,3,0,0,1,.3-4.4l47.76-37a6.45,6.45,0,0,0,2.14-2.93c4.27.72,8.55,1.32,12.82.76A18.88,18.88,0,0,0,1337.42,701.67Z"/><path class="cls-14" d="M1342.41,273.14c3.9,7.32-3.22,16.72-10.49,20.24l-3-4.73c4.58-1.85,6.48-8.33,3.63-12.36-2.55-3.59-8.18-4.27-11.68-1.75a2.51,2.51,0,0,0-1,2.37l.48,3.84a4.77,4.77,0,0,1-.92,1.07c-2.13,1.86-5.76,1.75-8.26.19a6.33,6.33,0,0,1-2.85-3.35,11,11,0,0,0-12.61-5.92c-3.81,1.12-7,3.71-10,6.27a24.29,24.29,0,0,1-2,1.55c-2.4,1.65-5.18,2.7-7.6.74a6.11,6.11,0,0,1-2.14-4.36c-.68-9.49,2.07-20.2,9.79-26,5.79-4.34,13.35-5.3,20.54-6.11,7.5-.85,15.42-1.64,22.34,1.4,8.63,3.79,8.64,9.79,10.65,17.48C1338.11,267.2,1340.72,270,1342.41,273.14Z"/><path class="cls-15" d="M1316.75,313.39a20.52,20.52,0,0,1-2.94,2.64c-4.4,3.22-10.94,4.21-15.18.78-4.9-4-8.43-11.72-11-20l.55-.17c6.94,2.26,29.85-6.73,31.27-14.76l-.07-.08a4.77,4.77,0,0,0,.92-1.07l-.48-3.84a2.51,2.51,0,0,1,1-2.37c3.5-2.52,9.13-1.84,11.68,1.75,2.85,4,1,10.51-3.63,12.36l3,4.73q4,6.22,7.87,12.49c2.47,4,6.28,8.46,7.58,12.92a7.09,7.09,0,0,0-4.89.79,14.43,14.43,0,0,0-3.87,3.23c-3.61,4-5.88,9.1-8.43,13.8-.52,1-1,1.92-1.53,2.89-1.2-2.5-2.48-5.39-3.78-8.37C1322,324.66,1319.12,317.75,1316.75,313.39Z"/><path class="cls-16" d="M1316.87,313.62c1,1.83,2.06,4.08,3.18,6.54-.2-.43,2-4.18,2.29-4.86a43.66,43.66,0,0,0,1.75-5.95c.87-3.93,1.88-7.57,1.05-11.65.46,2.27-2.51,6.12-3.42,8.07A37.53,37.53,0,0,1,1316.87,313.62Z"/><path class="cls-10" d="M1325,294.45a12.92,12.92,0,0,0-1.18-4.18c-1.39-2.87-2.72-5.85-4.26-8.62-1.84,2.65-3.36,5.45-6.09,7.38a44.52,44.52,0,0,1-9.28,4.84,45.08,45.08,0,0,1-9.14,2.72c-2,.34-5.17-.44-6.82.07l-.55.17c2.57,8.26,6.1,16,11,20,4.24,3.43,10.78,2.44,15.18-.78a30.8,30.8,0,0,0,10.91-16.92A14.89,14.89,0,0,0,1325,294.45Z"/><path class="cls-15" d="M1319.38,281.82l.07.08c-1.42,8-24.33,17-31.27,14.76l-.55.17a160.14,160.14,0,0,1-4-16.27,24.29,24.29,0,0,0,2-1.55c3-2.56,6.22-5.15,10-6.27a11,11,0,0,1,12.61,5.92,6.33,6.33,0,0,0,2.85,3.35C1313.62,283.57,1317.25,283.68,1319.38,281.82Z"/><path class="cls-17" d="M1341.22,786.1c-.87,8.65.13,5.65-.73,14.3"/><path class="cls-17" d="M1380.74,812.9c.56-8.47,1-16.85,1.22-23.88"/><path class="cls-17" d="M1359.67,393.35a457.56,457.56,0,0,1-17.7,43.3c-.15.34-.32.68-.5,1a16.1,16.1,0,0,1-8.38,7.2c-26.4,10.23-59.55,22.6-87.94,33.56"/><path class="cls-17" d="M1241.81,448q31.59-18.13,62.31-37.73"/><path class="cls-17" d="M1245.15,478.42l-.87-6.89q-1.29-10.15-2.57-20.32c-.22-1.72.56-1.45.34-3.17"/><path class="cls-17" d="M1328.89,288.65c3.56,5.53,13.68,20.34,19.07,29.79"/><path class="cls-17" d="M1316.75,313.39c2.37,4.36,5.29,11.27,8.12,17.74,1.3,3,2.58,5.87,3.78,8.37"/><path class="cls-17" d="M1302.81,411c8.31-25.34,14.48-50.63,27.37-74.34,2.71-5,6.67-13.43,11.63-16.43a12.94,12.94,0,0,1,10.52-1.22c16.68,5.39,27.15,16,37.75,30,15.12,19.91,27.45,39.42,41.11,60.34"/><path class="cls-17" d="M1346.2,427.27c6,7.7,12.17,14.39,17.64,24.17"/><path class="cls-17" d="M1364.82,454.12a185.45,185.45,0,0,0,66.37-44.87"/><path class="cls-17" d="M1193.76,471.72c-2.31,2.15-4.63,5.29-6.94,7.44a10,10,0,0,1-1.79,1.37,1.21,1.21,0,0,1-1.76-1.43c4.47-13.48,17.14-19,27.48-22,10.1-2.94,21.21.89,31.69-.09"/><path class="cls-17" d="M1381.19,805.59c-8.18,2.49-18,.81-26.64-1.49-4.32-1.15-8.82-2.38-13.33-3.17h0l-.51-.09"/><path class="cls-17" d="M1320.27,702c4.27.72,8.55,1.32,12.82.76a18.88,18.88,0,0,0,4.33-1.11"/><path class="cls-17" d="M1283.62,280.56c2.48,12.47,6.83,29.63,15,36.25,4.24,3.43,10.78,2.45,15.19-.78s7.15-8.17,9.77-12.95"/><path class="cls-17" d="M1320.3,280.76l-.48-3.85a2.52,2.52,0,0,1,1-2.37c3.5-2.51,9.14-1.83,11.68,1.75,2.85,4,1,10.51-3.63,12.37"/><path class="cls-17" d="M1184.63,474.49c-4.3-11.58,16.36-20.79,24.64-22.93,7.17-1.85,14.49-1.8,21.58-3.83,7.24-2.09,13.83-5.94,20.35-9.62,12.73-7.19,24.54-14.51,36.58-22.79,3.51-2.41,11.67-7.27,11.67-7.27s2-10.3,3.38-14.23c4.35-12.41,10.53-51,22-62.69"/><path class="cls-17" d="M1288.18,296.67c6.94,2.26,29.85-6.74,31.27-14.77"/><path class="cls-17" d="M1321.45,286.63c1.85,3.66,4.52,8,3.42,12"/><path class="cls-17" d="M1194.17,472.3a14.44,14.44,0,0,0-7.4,9.17.87.87,0,0,0,1,1.09c5.11-1.08,7.7-8.83,13.18-9.56l10.63.18a8.31,8.31,0,0,1,1.32.13c15.43,2.84,17.79,2.69,31.4-1.78"/><path class="cls-17" d="M1236.13,445.2a35.09,35.09,0,0,1,5.83,10.36"/><path class="cls-18" d="M1425.28,426.64c18.9,23.08,19.7,59.86,11.6,87.42-9.07,30.86-27,58.21-37.6,88.49-11,31.51-10.61,65.36-13.71,98.21-2.76,29.31-7.4,58.41-10.17,87.73"/><path class="cls-17" d="M1323.62,277.62a3.51,3.51,0,0,1,5.15,4.59"/><path d="M1294.48,290.43a1.5,1.5,0,0,0,0-3,1.5,1.5,0,0,0,0,3Z"/><path class="cls-17" d="M1290.54,284.24a11.06,11.06,0,0,1,7.2-1.4"/><path class="cls-18" d="M1269.69,745.81c24.37-4.12,41.79-5.38,64.67-14.73"/><path class="cls-18" d="M1278.72,852.94c34-4.05,67.59-7.07,100.11-16.22"/></g></svg>