<svg xmlns="http://www.w3.org/2000/svg" viewBox="0 0 1920 1080"><defs><style>.cls-1{fill:#f7f8fa;}.cls-2{fill:#eaebed;}.cls-16,.cls-3{fill:#fff;}.cls-17,.cls-3{stroke:#31434d;}.cls-11,.cls-17,.cls-18,.cls-3,.cls-8,.cls-9{stroke-linecap:round;stroke-miterlimit:10;}.cls-4{fill:#7b176e;}.cls-5{fill:#f6a001;}.cls-6{fill:#53bcf7;}.cls-7{fill:#f6b731;}.cls-11,.cls-17,.cls-18,.cls-8,.cls-9{fill:none;}.cls-8{stroke:#f6b731;}.cls-11,.cls-8{stroke-width:4px;}.cls-18,.cls-9{stroke:#fff;}.cls-10{fill:#f6d691;}.cls-11{stroke:#f6d691;}.cls-12{fill:#09102d;}.cls-13{fill:#276ce4;}.cls-14{fill:#ffe1cf;}.cls-15{fill:#31434d;}.cls-18{stroke-width:2px;}.cls-19{fill:#a1a1a1;}</style></defs><title>2019-nCov8</title><g id="background"><path class="cls-1" d="M1370.2,135.66C1330,109.51,1284.26,91.49,1238,78.13,1096.48,37.31,945.63,37.25,801.79,65.56,679,89.73,564.84,127.28,517.4,256.47c-9.37,25.51-15,52.36-25.64,77.35-2.64,6.16-5.79,12.46-11.24,16.37-6.62,4.74-15.29,5.08-23.4,5.79-84.28,7.41-154.93,75.23-184.19,154.61-68,184.54,15,385.79,195.14,459.52,87.07,35.63,188.14,44.89,280.9,53,222.85,19.56,676,50.29,692-270.27,3.69-73.74-22.74-145.5-52.78-212.94-4.32-9.72-8.84-20.21-6.81-30.65,5.3-27.16,49-39.84,67.16-57.95,23.72-23.61,40.46-57.14,43.73-90.57,6.93-70.86-28.11-144.56-79.38-192A318,318,0,0,0,1370.2,135.66Z"/><path class="cls-2" d="M1374.68,987.19c0,17.38-192.37,47.11-438.27,47.11S484.2,1004.57,484.2,987.19s199.34-18.46,445.24-18.46S1374.68,969.82,1374.68,987.19Z"/><polygon class="cls-3" points="1770.36 660.45 1729.51 660.45 1729.51 619.6 1692.55 619.6 1692.55 660.45 1651.7 660.45 1651.7 697.41 1692.55 697.41 1692.55 738.26 1729.51 738.26 1729.51 697.41 1770.36 697.41 1770.36 660.45"/><rect class="cls-4" x="179.64" y="379.31" width="31.06" height="31.06"/><rect class="cls-5" x="1464.3" y="140.85" width="31.06" height="31.06"/><rect class="cls-5" x="1633.59" y="822.97" width="31.06" height="31.06"/><rect class="cls-5" x="219.07" y="650.24" width="31.06" height="31.06"/><polygon class="cls-3" points="371.96 292.51 321.83 292.51 321.83 242.38 279.91 242.38 279.91 292.51 229.78 292.51 229.78 334.43 279.91 334.43 279.91 384.56 321.83 384.56 321.83 334.43 371.96 334.43 371.96 292.51"/><polygon class="cls-3" points="1689.66 500.94 1639.53 500.94 1639.53 450.81 1597.61 450.81 1597.61 500.94 1547.48 500.94 1547.48 542.86 1597.61 542.86 1597.61 592.99 1639.53 592.99 1639.53 542.86 1689.66 542.86 1689.66 500.94"/><rect class="cls-3" x="306.64" y="557.3" width="72.59" height="185.87"/><rect class="cls-3" x="1522.61" y="413.82" width="46.55" height="46.55"/><rect class="cls-3" x="305.49" y="820.82" width="147.47" height="23.28"/><rect class="cls-6" x="1475.82" y="592.99" width="34.6" height="34.6"/><rect class="cls-6" x="361.93" y="887" width="34.6" height="34.6"/><rect class="cls-4" x="1649.12" y="342.76" width="34.6" height="34.6"/><circle class="cls-7" cx="997.53" cy="241.31" r="15.87"/><line class="cls-8" x1="995.13" y1="251.65" x2="995.32" y2="267.21"/><line class="cls-8" x1="976.22" y1="225.91" x2="988.76" y2="233.8"/><line class="cls-8" x1="1004.62" y1="233.31" x2="1012.86" y2="218.62"/><line class="cls-8" x1="985.85" y1="245.81" x2="975.27" y2="246.88"/><line class="cls-8" x1="999.05" y1="217.29" x2="998.12" y2="236.41"/><polyline class="cls-8" points="1014.89 230.21 1005.02 239.46 1023.29 239.15"/><line class="cls-8" x1="989.91" y1="248.37" x2="982.39" y2="259.08"/><line class="cls-8" x1="999.4" y1="246.97" x2="1004.83" y2="260.31"/><line class="cls-8" x1="1003.27" y1="244.92" x2="1016.69" y2="253.99"/><path class="cls-8" d="M978.5,236.2c4.43.71,4.92,1.53,9.36,2.24"/><path class="cls-8" d="M988,224.17c1.43,3.74,3.1,5.05,4.54,8.8"/><circle class="cls-7" cx="1024.38" cy="239" r="4.09"/><circle class="cls-7" cx="976.22" cy="225.91" r="4.09"/><circle class="cls-7" cx="1016.72" cy="228.78" r="4.09"/><circle class="cls-7" cx="987.2" cy="222.36" r="4.09"/><circle class="cls-7" cx="999.34" cy="218.61" r="4.09"/><circle class="cls-7" cx="976.74" cy="235.09" r="4.09"/><circle class="cls-7" cx="1013.27" cy="217.64" r="4.09"/><circle class="cls-7" cx="982.2" cy="259.38" r="4.09"/><circle class="cls-7" cx="974.24" cy="246.74" r="4.09"/><circle class="cls-7" cx="1005.65" cy="262.12" r="4.09"/><circle class="cls-7" cx="1018.9" cy="255.38" r="4.09"/><circle class="cls-7" cx="995.13" cy="267.51" r="4.09"/><circle class="cls-9" cx="993.01" cy="237.97" r="4.18"/><circle class="cls-9" cx="1004.2" cy="238.51" r="1.36"/><circle class="cls-9" cx="999.07" cy="247.3" r="2.38"/><circle class="cls-7" cx="421.29" cy="762.35" r="19.44"/><line class="cls-8" x1="418.36" y1="775.02" x2="418.59" y2="794.08"/><line class="cls-8" x1="395.19" y1="743.49" x2="410.56" y2="753.15"/><line class="cls-8" x1="429.98" y1="752.55" x2="440.08" y2="734.56"/><line class="cls-8" x1="406.99" y1="767.87" x2="394.03" y2="769.18"/><line class="cls-8" x1="423.16" y1="732.93" x2="422.02" y2="756.36"/><polyline class="cls-8" points="442.56 748.76 430.48 760.09 452.86 759.71"/><line class="cls-8" x1="411.97" y1="771" x2="402.75" y2="784.12"/><line class="cls-8" x1="423.59" y1="769.29" x2="430.24" y2="785.64"/><line class="cls-8" x1="428.33" y1="766.78" x2="444.77" y2="777.89"/><path class="cls-8" d="M398,756.09c5.43.87,6,1.88,11.47,2.75"/><path class="cls-8" d="M409.56,741.35c1.75,4.59,3.8,6.2,5.56,10.78"/><circle class="cls-7" cx="454.19" cy="759.52" r="5.01"/><circle class="cls-7" cx="395.19" cy="743.49" r="5.01"/><circle class="cls-7" cx="444.8" cy="747.01" r="5.01"/><circle class="cls-7" cx="408.65" cy="739.14" r="5.01"/><circle class="cls-7" cx="423.51" cy="734.54" r="5.01"/><circle class="cls-7" cx="395.82" cy="754.73" r="5.01"/><circle class="cls-7" cx="440.59" cy="733.35" r="5.01"/><circle class="cls-7" cx="402.52" cy="784.49" r="5.01"/><circle class="cls-7" cx="392.77" cy="769" r="5.01"/><circle class="cls-7" cx="431.24" cy="787.85" r="5.01"/><circle class="cls-7" cx="447.48" cy="779.6" r="5.01"/><circle class="cls-7" cx="418.36" cy="794.46" r="5.01"/><circle class="cls-9" cx="415.76" cy="758.26" r="5.13"/><circle class="cls-9" cx="429.46" cy="758.92" r="1.67"/><circle class="cls-9" cx="423.18" cy="769.7" r="2.92"/><circle class="cls-10" cx="463.57" cy="214.99" r="33.51"/><line class="cls-11" x1="458.51" y1="236.83" x2="458.92" y2="269.69"/><line class="cls-11" x1="418.57" y1="182.47" x2="445.07" y2="199.13"/><line class="cls-11" x1="478.54" y1="198.1" x2="495.95" y2="167.09"/><line class="cls-11" x1="438.91" y1="224.51" x2="416.58" y2="226.77"/><line class="cls-11" x1="466.78" y1="164.27" x2="464.83" y2="204.66"/><polyline class="cls-11" points="500.23 191.56 479.4 211.09 517.99 210.44"/><line class="cls-11" x1="447.49" y1="229.9" x2="431.61" y2="252.52"/><line class="cls-11" x1="467.52" y1="226.95" x2="478.98" y2="255.13"/><line class="cls-11" x1="475.7" y1="222.62" x2="504.04" y2="241.78"/><path class="cls-11" d="M423.39,204.2c9.36,1.51,10.4,3.24,19.76,4.75"/><path class="cls-11" d="M443.34,178.8c3,7.9,6.56,10.67,9.59,18.58"/><circle class="cls-10" cx="520.27" cy="210.11" r="8.63"/><circle class="cls-10" cx="418.57" cy="182.47" r="8.63"/><circle class="cls-10" cx="504.09" cy="188.54" r="8.63"/><circle class="cls-10" cx="441.77" cy="174.98" r="8.63"/><circle class="cls-10" cx="467.4" cy="167.06" r="8.63"/><circle class="cls-10" cx="419.67" cy="201.86" r="8.63"/><circle class="cls-10" cx="496.83" cy="165.01" r="8.63"/><circle class="cls-10" cx="431.2" cy="253.16" r="8.63"/><circle class="cls-10" cx="414.4" cy="226.46" r="8.63"/><circle class="cls-10" cx="480.72" cy="258.95" r="8.63"/><circle class="cls-10" cx="508.72" cy="244.72" r="8.63"/><circle class="cls-10" cx="458.52" cy="270.33" r="8.63"/><circle class="cls-9" cx="454.04" cy="207.94" r="8.84"/><circle class="cls-9" cx="477.66" cy="209.08" r="2.87"/><circle class="cls-9" cx="466.82" cy="227.65" r="5.03"/><circle class="cls-10" cx="1452.6" cy="842.67" r="46.01"/><line class="cls-11" x1="1445.65" y1="872.66" x2="1446.22" y2="917.77"/><line class="cls-11" x1="1390.82" y1="798.03" x2="1427.2" y2="820.9"/><line class="cls-11" x1="1473.16" y1="819.48" x2="1497.06" y2="776.91"/><line class="cls-11" x1="1418.75" y1="855.74" x2="1388.09" y2="858.84"/><line class="cls-11" x1="1457.01" y1="773.04" x2="1454.33" y2="828.49"/><polyline class="cls-11" points="1502.94 810.51 1474.34 837.32 1527.32 836.42"/><line class="cls-11" x1="1430.53" y1="863.15" x2="1408.72" y2="894.2"/><line class="cls-11" x1="1458.03" y1="859.1" x2="1473.77" y2="897.78"/><line class="cls-11" x1="1469.26" y1="853.14" x2="1508.17" y2="879.45"/><path class="cls-11" d="M1397.44,827.86c12.85,2.07,14.28,4.44,27.13,6.51"/><path class="cls-11" d="M1424.83,793c4.16,10.86,9,14.66,13.16,25.51"/><circle class="cls-10" cx="1530.46" cy="835.98" r="11.85"/><circle class="cls-10" cx="1390.82" cy="798.03" r="11.85"/><circle class="cls-10" cx="1508.24" cy="806.36" r="11.85"/><circle class="cls-10" cx="1422.68" cy="787.74" r="11.85"/><circle class="cls-10" cx="1457.86" cy="776.87" r="11.85"/><circle class="cls-10" cx="1392.33" cy="824.64" r="11.85"/><circle class="cls-10" cx="1498.26" cy="774.05" r="11.85"/><circle class="cls-10" cx="1408.17" cy="895.08" r="11.85"/><circle class="cls-10" cx="1385.1" cy="858.42" r="11.85"/><circle class="cls-10" cx="1476.15" cy="903.02" r="11.85"/><circle class="cls-10" cx="1514.59" cy="883.49" r="11.85"/><circle class="cls-10" cx="1445.67" cy="918.65" r="11.85"/><circle class="cls-9" cx="1439.52" cy="832.99" r="12.13"/><circle class="cls-9" cx="1471.95" cy="834.56" r="3.94"/><circle class="cls-9" cx="1457.07" cy="860.06" r="6.91"/><ellipse class="cls-10" cx="195.24" cy="470.86" rx="23.25" ry="21.19"/><line class="cls-11" x1="191.73" y1="484.67" x2="192.01" y2="505.45"/><line class="cls-11" x1="164.01" y1="450.29" x2="182.4" y2="460.83"/><line class="cls-11" x1="205.63" y1="460.17" x2="217.71" y2="440.56"/><line class="cls-11" x1="178.13" y1="476.88" x2="162.63" y2="478.31"/><line class="cls-11" x1="197.47" y1="438.78" x2="196.11" y2="464.32"/><polyline class="cls-11" points="220.68 456.04 206.23 468.39 233.01 467.98"/><line class="cls-11" x1="184.08" y1="480.29" x2="173.06" y2="494.59"/><line class="cls-11" x1="197.98" y1="478.42" x2="205.94" y2="496.24"/><line class="cls-11" x1="203.66" y1="475.68" x2="223.33" y2="487.8"/><path class="cls-11" d="M167.36,464c6.49,1,7.22,2.05,13.71,3"/><path class="cls-11" d="M181.2,448c2.11,5,4.56,6.75,6.66,11.75"/><ellipse class="cls-10" cx="234.59" cy="467.77" rx="5.99" ry="5.46"/><ellipse class="cls-10" cx="164.01" cy="450.29" rx="5.99" ry="5.46"/><ellipse class="cls-10" cx="223.36" cy="454.13" rx="5.99" ry="5.46"/><ellipse class="cls-10" cx="180.12" cy="445.55" rx="5.99" ry="5.46"/><ellipse class="cls-10" cx="197.9" cy="440.54" rx="5.99" ry="5.46"/><ellipse class="cls-10" cx="164.78" cy="462.55" rx="5.99" ry="5.46"/><ellipse class="cls-10" cx="218.32" cy="439.25" rx="5.99" ry="5.46"/><ellipse class="cls-10" cx="172.78" cy="495" rx="5.99" ry="5.46"/><ellipse class="cls-10" cx="161.12" cy="478.11" rx="5.99" ry="5.46"/><ellipse class="cls-10" cx="207.14" cy="498.66" rx="5.99" ry="5.46"/><ellipse class="cls-10" cx="226.57" cy="489.66" rx="5.99" ry="5.46"/><ellipse class="cls-10" cx="191.74" cy="505.86" rx="5.99" ry="5.46"/><ellipse class="cls-9" cx="188.63" cy="466.4" rx="6.13" ry="5.59"/><ellipse class="cls-9" cx="205.02" cy="467.12" rx="1.99" ry="1.82"/><ellipse class="cls-9" cx="197.5" cy="478.87" rx="3.49" ry="3.18"/><ellipse class="cls-10" cx="1767.74" cy="438.86" rx="23.25" ry="21.19"/><line class="cls-11" x1="1764.23" y1="452.68" x2="1764.52" y2="473.46"/><line class="cls-11" x1="1736.52" y1="418.3" x2="1754.9" y2="428.84"/><line class="cls-11" x1="1778.13" y1="428.18" x2="1790.21" y2="408.57"/><line class="cls-11" x1="1750.63" y1="444.88" x2="1735.13" y2="446.32"/><line class="cls-11" x1="1769.97" y1="406.79" x2="1768.62" y2="432.33"/><polyline class="cls-11" points="1793.18 424.05 1778.73 436.4 1805.51 435.99"/><line class="cls-11" x1="1756.59" y1="448.3" x2="1745.56" y2="462.6"/><line class="cls-11" x1="1770.49" y1="446.43" x2="1778.44" y2="464.25"/><line class="cls-11" x1="1776.16" y1="443.69" x2="1795.83" y2="455.81"/><path class="cls-11" d="M1739.86,432c6.5.95,7.22,2,13.71,3"/><path class="cls-11" d="M1753.71,416c2.1,5,4.55,6.76,6.65,11.76"/><ellipse class="cls-10" cx="1807.1" cy="435.78" rx="5.99" ry="5.46"/><ellipse class="cls-10" cx="1736.52" cy="418.3" rx="5.99" ry="5.46"/><ellipse class="cls-10" cx="1795.87" cy="422.14" rx="5.99" ry="5.46"/><ellipse class="cls-10" cx="1752.62" cy="413.56" rx="5.99" ry="5.46"/><ellipse class="cls-10" cx="1770.4" cy="408.55" rx="5.99" ry="5.46"/><ellipse class="cls-10" cx="1737.28" cy="430.56" rx="5.99" ry="5.46"/><ellipse class="cls-10" cx="1790.82" cy="407.25" rx="5.99" ry="5.46"/><ellipse class="cls-10" cx="1745.28" cy="463.01" rx="5.99" ry="5.46"/><ellipse class="cls-10" cx="1733.62" cy="446.12" rx="5.99" ry="5.46"/><ellipse class="cls-10" cx="1779.65" cy="466.67" rx="5.99" ry="5.46"/><ellipse class="cls-10" cx="1799.07" cy="457.67" rx="5.99" ry="5.46"/><ellipse class="cls-10" cx="1764.24" cy="473.87" rx="5.99" ry="5.46"/><ellipse class="cls-9" cx="1761.13" cy="434.41" rx="6.13" ry="5.59"/><ellipse class="cls-9" cx="1777.52" cy="435.13" rx="1.99" ry="1.82"/><ellipse class="cls-9" cx="1770" cy="446.87" rx="3.49" ry="3.18"/><circle class="cls-7" cx="1545.95" cy="254.27" r="33.89"/><line class="cls-8" x1="1540.83" y1="276.36" x2="1541.25" y2="309.6"/><line class="cls-8" x1="1500.44" y1="221.39" x2="1527.24" y2="238.24"/><line class="cls-8" x1="1561.1" y1="237.19" x2="1578.7" y2="205.83"/><line class="cls-8" x1="1521.01" y1="263.9" x2="1498.43" y2="266.19"/><line class="cls-8" x1="1549.2" y1="202.98" x2="1547.22" y2="243.83"/><polyline class="cls-8" points="1583.03 230.58 1561.96 250.34 1600.99 249.67"/><line class="cls-8" x1="1529.69" y1="269.36" x2="1513.63" y2="292.23"/><line class="cls-8" x1="1549.95" y1="266.38" x2="1561.54" y2="294.87"/><line class="cls-8" x1="1558.22" y1="261.99" x2="1586.88" y2="281.37"/><path class="cls-8" d="M1505.32,243.36c9.46,1.53,10.52,3.28,20,4.8"/><path class="cls-8" d="M1525.49,217.67c3.07,8,6.64,10.8,9.7,18.79"/><circle class="cls-7" cx="1603.3" cy="249.34" r="8.73"/><circle class="cls-7" cx="1500.44" cy="221.39" r="8.73"/><circle class="cls-7" cx="1586.94" cy="227.53" r="8.73"/><circle class="cls-7" cx="1523.91" cy="213.81" r="8.73"/><circle class="cls-7" cx="1549.83" cy="205.8" r="8.73"/><circle class="cls-7" cx="1501.55" cy="240.99" r="8.73"/><circle class="cls-7" cx="1579.59" cy="203.73" r="8.73"/><circle class="cls-7" cx="1513.22" cy="292.88" r="8.73"/><circle class="cls-7" cx="1496.22" cy="265.87" r="8.73"/><circle class="cls-7" cx="1563.3" cy="298.73" r="8.73"/><circle class="cls-7" cx="1591.61" cy="284.34" r="8.73"/><circle class="cls-7" cx="1540.84" cy="310.25" r="8.73"/><circle class="cls-9" cx="1536.32" cy="247.14" r="8.94"/><circle class="cls-9" cx="1560.2" cy="248.3" r="2.91"/><circle class="cls-9" cx="1549.25" cy="267.08" r="5.09"/></g><g id="nurse2"><path class="cls-6" d="M1005.46,348.36c-3.67-1.61-9.21-2.77-12.66-1.92.14-.12.26-2.89.4-3l-2.49-44.77,11.79-1.33Z"/><path class="cls-6" d="M1276.16,283.46c3.83,2.59,5.85,7.76,5.26,12.46-.71,5.65-4.45,12.54-8.91,16.09-7.52,6-18.14,10-28,5.84l-.93-.07c.52-6.7,1-13,1.31-17.67a6.75,6.75,0,0,0,7.45-1.71c2.16-2.12,2.76-6.77,1.1-9.3a5.7,5.7,0,0,0-7.93-1.46l-.92.06c-4.26-.9-7.92-4.75-10.55-8.23-2.82-3.71-4.7-8-7-12.09a5.28,5.28,0,0,0-1.73-2.09,5.51,5.51,0,0,0-3.07-.48c-3.08.11-6.56-.07-9.9.09q-1.12,0-2.22.15a3.35,3.35,0,0,1-3.5-4.47,31.83,31.83,0,0,1,13.57-16.5c24.92-15,48.18,2.77,55.36,26.89A24.55,24.55,0,0,1,1276.16,283.46Z"/><path class="cls-6" d="M1015.94,409.07a168.15,168.15,0,0,0,18.74-32.8c.4-.93.79-1.84,1.16-2.75a1,1,0,0,1,1.57-.43c5,3.73,33,19.82,50.11,30,3.21-2.89,6.42-6.72,9.64-9.44,8.83,15.24,18.23,30.22,29.16,44-8.52,8.17-19.75,15.31-24.55,19.4a7.81,7.81,0,0,1-7.45,1.48,191.36,191.36,0,0,1-55.63-28.37c-1.58-1.19-19.43-16.32-23.29-19a.74.74,0,0,1-.17-1.07C1015.47,409.71,1015.71,409.39,1015.94,409.07Z"/><path class="cls-6" d="M1124.92,367.12a429.53,429.53,0,0,0,36.42-37c5-5.71,10.24-11.84,17.51-13.95a26.66,26.66,0,0,1,11.25-.45,44.43,44.43,0,0,1,24.74,12.48c-1.91,5.06-5.25,14.31-6.43,17.62a1.85,1.85,0,0,0,.58,2.08c3.76,3,17.33,12.22,31.3,3.08.58-4,1.15-9.15,1.69-14.75l.24,0A45.16,45.16,0,0,1,1265,346.62c24.78,21.91,4,67.32-11.63,89.12q-1.5,2.08-3.06,4.1c-13.88,18-22.66,29.58-41.42,42.54a11.87,11.87,0,0,1-11.1,1.26c-14.92-5.88-34.4-13-48.75-23a65.18,65.18,0,0,1-9.54-8c-4.64-4.79-9-9.82-13.15-15-10.93-13.74-20.33-28.72-29.16-44q-2-3.36-3.88-6.74c.74-.8,1.49-1.59,2.25-2.38q10.46-11,21.86-21l2-1.73C1121.19,363.53,1123,365.33,1124.92,367.12Z"/><path class="cls-6" d="M1236.32,928.73c-.67,0-1.34,0-2,0a143.4,143.4,0,0,1-14.75-1c-9.55-66.14-20.45-132.3-29.76-198.44-.19-1.37-.35-2.74-.46-4.11-.77-9.17-4-47.63-7.48-90.12-2.26,33.06-5,58.86-11,93.46a91.39,91.39,0,0,0-1.18,21.22c3.86,63.49,2.71,114.48,4.72,177.54q-5,1-9.91,1.81c-19.14,3.3-38.13,5.4-57.89,5.28-6.89,0-13.87-.35-21-1,2.22-123.61,17.23-246.73,33.74-369.31,4.79-35.56,10.39-72.76,29.18-102.82l.48-.7c14.35,10,33.83,17.16,48.75,23a11.87,11.87,0,0,0,11.1-1.26c18.76-13,27.54-24.58,41.42-42.54,14.77,31.19,15.73,67.69,15.08,102.54-1.12,58.47-5.58,117-3.31,175.4a42.47,42.47,0,0,0,.84,6.92Q1282.75,822,1308.49,918c-3,.86-6.1,1.68-9.22,2.46C1278.53,925.65,1256.12,928.84,1236.32,928.73Z"/><path class="cls-12" d="M1299.27,920.47c3.12,17.82,6.43,52.09,8.47,69.92-43.71,6.32-74.73,4.32-111.12,7.2a2.06,2.06,0,0,1-1.62-3.5c14.67-14.83,23.63-23,44.7-43.87q-1.7-10.76-3.38-21.49C1256.12,928.84,1278.53,925.65,1299.27,920.47Z"/><path class="cls-12" d="M1106.6,934.41c19.76.12,38.75-2,57.89-5.28,2.07,19.93,2.91,47.91,2.53,67.39-33.4,5.32-76.46,4.44-112,4.49a2.76,2.76,0,0,1-2-4.68c13.61-14,36.34-32.25,54.19-44.6A131.84,131.84,0,0,1,1106.6,934.41Z"/><path class="cls-13" d="M1060.72,336.74c1.71,1.83,3.41,3.67,5,5.58A35.32,35.32,0,0,0,1060.72,336.74Zm0,0a146.26,146.26,0,0,1-12.34-14.21c-.73-1-1.5-2.3-1-3.46.8-1.9,3.65-1.24,5.39-.14a67.36,67.36,0,0,1,13.59,11.18c-3.39-4.05-10.84-14.48-11.12-14.85a1.92,1.92,0,0,1,2.16-2.95c11,3.85,19.43,15.77,26.69,20.87a41.3,41.3,0,0,1-5.3-13.31,2.44,2.44,0,0,1,1.45-2.8c1.3-.46,2.12.49,2.77,1.37a114.62,114.62,0,0,1,9.77,15.23,74.2,74.2,0,0,0,11,15.21l13.62,14.6q-11.39,10-21.86,21c-9-6.63-20-13.27-29-19.9,0,0-17.62-15.72-25-24.74a9.64,9.64,0,0,1-1.29-2,1.68,1.68,0,0,1,2.06-2.25,47.83,47.83,0,0,1,12.43,6.38c2.35,2.16,4.09,3.19,7.14,6a44.49,44.49,0,0,0-7.14-6c-.65-.6-1.35-1.28-2.13-2.12-3.47-3.69-9-7-9.88-11.81a2,2,0,0,1,2.71-2.28C1049.13,327.16,1055.84,332.16,1060.71,336.73Z"/><path class="cls-13" d="M985.61,367.3c-.79-.57-1.46-1-2-1.39C984.27,366.37,984.93,366.84,985.61,367.3Zm6.69-9a3.69,3.69,0,0,0-.38-.26,9.24,9.24,0,0,0-.9-.57l.9.57Zm11.38-11.48c.51.19,1,.39,1.38.59-1.79-.37-4,.81-4,2.64a4.43,4.43,0,0,0,.83,2.18A17.93,17.93,0,0,0,1004,355c2,2.81,4.32,6.7,4.78,8.64.35,1.49.23,3.49-1.22,4a3.52,3.52,0,0,1-2.7-.61c-2-1.11-8.68-6.05-12.31-8.48a84.49,84.49,0,0,1,11.87,10.74,4.1,4.1,0,0,1,1,1.93,2.87,2.87,0,0,1-1.62,2.79,6.19,6.19,0,0,1-3.36.5c-3.63-.29-9.71-3.66-14.74-7.08,4.24,3.06,11.53,8.65,13,11.62.62,1.29-1.37,3.76-2.8,3.67-2.31-.16-6.38-2.35-10-4.6a21.69,21.69,0,0,1,4.28,4.69,5.78,5.78,0,0,1,1.09,2.47,2.37,2.37,0,0,1-1,2.35,3.29,3.29,0,0,1-2.06.19c-3.22-.44-8.15-3.09-10.76-5l-1.15.12c-6.45-11.64,5.34-29.68,16.33-37.44C995.58,344.78,1000.45,345.65,1003.68,346.86Z"/><path class="cls-13" d="M1004.83,367a3.52,3.52,0,0,0,2.7.61c1.45-.5,1.57-2.5,1.22-4-.46-1.94-2.8-5.83-4.78-8.64a28.64,28.64,0,0,0-2.06-2.68,4.43,4.43,0,0,1-.83-2.18c0-1.83,2.19-3,4-2.64s3.18,1.75,4.45,3.06l24.86,25.63.31.13a168.15,168.15,0,0,1-18.74,32.8A94.27,94.27,0,0,1,979.3,386.7a14.71,14.71,0,0,1-3.08-3.84l1.15-.12c2.61,1.93,7.54,4.58,10.76,5a3.29,3.29,0,0,0,2.06-.19,2.37,2.37,0,0,0,1-2.35,5.78,5.78,0,0,0-1.09-2.47,21.69,21.69,0,0,0-4.28-4.69c3.66,2.25,7.73,4.44,10,4.6,1.43.09,3.42-2.38,2.8-3.67-1.44-3-8.73-8.56-13-11.62,5,3.42,11.11,6.79,14.74,7.08a6.19,6.19,0,0,0,3.36-.5,2.87,2.87,0,0,0,1.62-2.79,4.1,4.1,0,0,0-1-1.93,84.49,84.49,0,0,0-11.87-10.74C996.15,360.92,1002.8,365.86,1004.83,367Z"/><path class="cls-14" d="M1244.57,287.7l.92-.06a5.7,5.7,0,0,1,7.93,1.46c1.66,2.53,1.06,7.18-1.1,9.3a6.75,6.75,0,0,1-7.45,1.71c-.35,4.7-.79,11-1.31,17.67-.48,6.08-1,12.52-1.58,18.46-.54,5.6-1.11,10.76-1.69,14.75-14,9.14-27.54-.11-31.3-3.08a1.85,1.85,0,0,1-.58-2.08c1.18-3.31,4.52-12.56,6.43-17.62,1.69-4.47,3.38-8.94,5-13.41a21.74,21.74,0,0,1-2.43.11c-5.07-.08-10.43-2.59-12.4-7.26-5-11.91.43-30.54,7.38-42.75,3.34-.16,6.82,0,9.9-.09a5.51,5.51,0,0,1,3.07.48,5.28,5.28,0,0,1,1.73,2.09c2.27,4.07,4.15,8.38,7,12.09C1236.65,283,1240.31,286.8,1244.57,287.7Z"/><path class="cls-15" d="M1236.89,307c-6.53,3.92-13.92,7-21.6,7.79a16.35,16.35,0,0,0,2.08.17,21.74,21.74,0,0,0,2.43-.11q-.91,2.59-1.88,5.18C1225.71,317.93,1233.48,314.63,1236.89,307Z"/><path class="cls-16" d="M1244.43,292.69a1.08,1.08,0,0,0-.16-.3,2.25,2.25,0,0,0-1.39-.68c-4-.85-8.14-1-12.21-1.5a62.86,62.86,0,0,1-25.09-9c-2.31,2.41-2.29,9.67-2.49,12.88a30.25,30.25,0,0,0,1.88,13.53c2,4.67,7.33,7.18,12.4,7.26a21.74,21.74,0,0,0,2.43-.11c-.08.25-.18.49-.26.73,10.77-4.32,24.7-7.4,25-21.78A2.67,2.67,0,0,0,1244.43,292.69Z"/><path class="cls-16" d="M994.1,309l5.9-1a1,1,0,0,1,1.12,1.07l1.34,30a1.11,1.11,0,0,1-.83,1.19l-5.5-.34a1,1,0,0,1-1.13-1.05l-1.73-28.69A1.11,1.11,0,0,1,994.1,309Z"/><path class="cls-17" d="M1250.28,439.84c14.77,31.19,15.73,67.69,15.08,102.54-1.12,58.47-5.58,117-3.31,175.4a42.47,42.47,0,0,0,.84,6.92Q1282.75,822,1308.49,918"/><path class="cls-17" d="M1219.57,927.77c-9.55-66.14-20.45-132.3-29.76-198.44-.19-1.37-.35-2.74-.46-4.11-.77-9.17-4-47.63-7.48-90.12-2.64-32-5.43-66.39-7.46-92.16"/><path class="cls-17" d="M1085.61,933.43c2.22-123.61,17.23-246.73,33.74-369.31,4.79-35.56,10.39-72.76,29.18-102.82"/><path class="cls-17" d="M1174.4,927.32c-2-63.06-.86-114.05-4.72-177.54a91.39,91.39,0,0,1,1.18-21.22c6-34.6,8.75-60.4,11-93.46"/><path class="cls-17" d="M1085.61,933.43c7.12.63,14.1.94,21,1,19.76.12,38.75-2,57.89-5.28q5-.86,9.91-1.81"/><path class="cls-17" d="M1219.57,927.77a143.4,143.4,0,0,0,14.75,1c20.29.33,43.51-2.9,65-8.25,3.12-.78,6.2-1.6,9.22-2.46"/><path class="cls-17" d="M1299.27,920.47c3.12,17.82,6.43,52.09,8.47,69.92"/><path class="cls-17" d="M1239.7,950.22q-1.7-10.76-3.38-21.5"/><path class="cls-17" d="M1164.49,929.13c2.07,19.93,2.91,47.91,2.53,67.39"/><path class="cls-17" d="M1107.21,951.73a131.84,131.84,0,0,1-.61-17.32"/><path class="cls-17" d="M1239.7,950.22c-21.07,20.83-30,29-44.7,43.87a2.06,2.06,0,0,0,1.62,3.5c36.39-2.88,67.41-.87,111.12-7.2"/><path class="cls-17" d="M1107.21,951.73c-17.85,12.35-40.58,30.64-54.19,44.6a2.76,2.76,0,0,0,2,4.68c35.57,0,78.63.83,112-4.49"/><path class="cls-17" d="M1244.88,300.12c-1,13-2.71,38-4.59,50.87"/><path class="cls-17" d="M1124.92,367.12a429.53,429.53,0,0,0,36.42-37c5-5.71,10.24-11.84,17.51-13.95a26.66,26.66,0,0,1,11.25-.45,44.43,44.43,0,0,1,24.74,12.48"/><path class="cls-17" d="M1012.43,362.82c-3.21-3.23-8.14-6.67-10.51-10.55a4.55,4.55,0,0,1-.84-2.18c0-1.82,2.19-3,4-2.64s3.18,1.75,4.45,3.06l24.86,25.64"/><path class="cls-17" d="M979.3,386.7a94.31,94.31,0,0,0,37.55,22.68"/><path class="cls-17" d="M1117.39,363.47l-13.62-14.6a74.2,74.2,0,0,1-11-15.21,114.62,114.62,0,0,0-9.77-15.23c-.65-.88-1.47-1.83-2.77-1.37a2.44,2.44,0,0,0-1.45,2.8,41.3,41.3,0,0,0,5.3,13.31c.14.26.29.52.44.78"/><path class="cls-17" d="M1084.07,333.17c-7.26-5.09-15.7-17-26.68-20.86a1.92,1.92,0,0,0-2.17,2.94c.3.41,8.94,12.49,11.83,15.68"/><path class="cls-17" d="M1070.75,336.28c-3.42-6.66-11.66-13.37-18-17.36-1.75-1.1-4.6-1.75-5.4.14-.48,1.16.28,2.44,1,3.46,5.16,7.17,11.63,13.11,17.4,19.8"/><path class="cls-17" d="M1065.77,342.32c-3.2-4.85-14.93-14.53-20.39-16.53a2,2,0,0,0-2.71,2.28c.91,4.83,6.41,8.13,9.88,11.82s5.38,4.53,9.28,8.08"/><path class="cls-17" d="M1061.83,348c-4.12-4.42-12.73-10.27-19.58-12.35a1.68,1.68,0,0,0-2,2.26,8.83,8.83,0,0,0,1.29,2c7.41,9,25,24.74,25,24.74,9,6.66,20.07,13.31,29.1,20"/><path class="cls-17" d="M1200.71,427c13-19.92,23.32-60.6,60.07-72.06"/><path class="cls-17" d="M1119.37,361.74c1.82,1.79,3.67,3.59,5.55,5.38,20.7,19.74,45.16,39.68,68.56,54.75,5.11,3.29,10.6,6.84,12.87,12.48"/><path class="cls-17" d="M1093.19,386.73c13.3,23.39,27.57,46.54,46.28,65.88,14,14.44,39.7,23.71,58.29,31a11.87,11.87,0,0,0,11.1-1.26c18.76-13,27.54-24.57,41.42-42.54q1.56-2,3.06-4.1c15.67-21.8,36.41-67.21,11.63-89.12a45.16,45.16,0,0,0-22.75-10.36"/><path class="cls-17" d="M1093.28,386.89c.74-.8,1.49-1.59,2.25-2.38q10.46-11,21.86-21l2-1.73"/><path class="cls-17" d="M1240.29,351c-14,9.14-27.54-.1-31.3-3.08a1.84,1.84,0,0,1-.58-2.07c1.19-3.31,4.52-12.57,6.43-17.63,1.69-4.47,3.38-8.94,5-13.41"/><path class="cls-17" d="M1212.35,264.9c-6.95,12.21-12.42,30.84-7.38,42.75,2,4.67,7.33,7.18,12.4,7.26s9.93-1.81,14.62-3.74"/><path class="cls-17" d="M1245.5,287.64c2.36-1.88,6.26-1.06,7.92,1.47s1.06,7.18-1.1,9.29a6.76,6.76,0,0,1-7.44,1.72"/><path class="cls-17" d="M1244.49,317.85c9.88,4.16,20.5.16,28-5.83a27.08,27.08,0,0,0,8.92-16.1c.71-5.66-2.37-12-7.82-13.67"/><path class="cls-17" d="M1205.47,281.37a69,69,0,0,0,36.77,10.13"/><path class="cls-17" d="M1245.43,287.84c-4.63-.52-8.6-4.66-11.41-8.37s-4.7-8-7-12.09a5.34,5.34,0,0,0-1.72-2.09,5.54,5.54,0,0,0-3.08-.48c-3.76.14-8.13-.16-12.12.25a3.35,3.35,0,0,1-3.49-4.48,31.76,31.76,0,0,1,13.56-16.5c24.92-15,48.18,2.77,55.36,26.89a24.44,24.44,0,0,1,.6,12.49"/><path class="cls-17" d="M990.71,357.35c3.15,1.61,11.45,9.13,13.68,11.88a4.22,4.22,0,0,1,1.05,1.93,2.86,2.86,0,0,1-1.63,2.79,6.1,6.1,0,0,1-3.36.5c-4.15-.33-11.5-4.67-16.8-8.53"/><path class="cls-17" d="M983.65,365.92c3.24,2.23,13.32,9.52,15,13.07.63,1.29-1.37,3.77-2.8,3.67-4-.26-13.26-6.64-16.58-8.87"/><path class="cls-17" d="M992.9,345.17c-12.38,8.53-26,30.35-13.6,41.53"/><path class="cls-17" d="M1001.92,352.27c1.87,2.07,6.19,8.61,6.83,11.33.35,1.48.23,3.49-1.22,4a3.49,3.49,0,0,1-2.7-.62c-2.45-1.34-11.67-8.29-14.12-9.62"/><polyline class="cls-17" points="993.21 345.44 990.71 298.35 1002.51 298.01 1005.46 347.7"/><path class="cls-17" d="M992.1,345.53c3.43-1,9.77.36,13,1.92"/><path class="cls-17" d="M982.25,375.65a22.12,22.12,0,0,1,7.88,7.1,5.81,5.81,0,0,1,1.08,2.47,2.36,2.36,0,0,1-1,2.35,3.35,3.35,0,0,1-2.06.2c-3.22-.45-8.14-3.1-10.75-5"/><path class="cls-17" d="M1160.48,357.52l6.5,15.4"/><path class="cls-17" d="M1158.33,396.36a33.25,33.25,0,0,1,8.18-23.38"/><path class="cls-17" d="M1097.91,393c-4,3.15-8,8.29-12,11.44"/><path class="cls-17" d="M1093.19,406.45c-15.71-9.47-50.14-29.18-55.78-33.36a1,1,0,0,0-1.57.43,168.66,168.66,0,0,1-20.61,36.5.74.74,0,0,0,.17,1.07c3.86,2.69,21.71,17.82,23.29,19a191.36,191.36,0,0,0,55.63,28.37,7.81,7.81,0,0,0,7.45-1.48c4.9-4.18,16.5-11.53,25.08-19.91"/><path class="cls-17" d="M1247.29,290.41a1.75,1.75,0,0,1,2.38-.13,3.11,3.11,0,0,1,1,2.34c.08,1.9-1.44,4-3.31,3.7"/><path d="M1210,279.75h.27a1.27,1.27,0,0,0,.58-.13,1.17,1.17,0,0,0,.48-.31,1.11,1.11,0,0,0,.31-.49,1,1,0,0,0,.13-.57l0-.4a1.47,1.47,0,0,0-.39-.67l-.3-.23a1.47,1.47,0,0,0-.76-.2H1210a1.14,1.14,0,0,0-.58.12,1.24,1.24,0,0,0-.48.31,1.11,1.11,0,0,0-.31.49,1.15,1.15,0,0,0-.13.58l0,.39a1.56,1.56,0,0,0,.39.67l.3.23a1.58,1.58,0,0,0,.76.21Z"/><path d="M1223.26,284.75h.27a1.27,1.27,0,0,0,.58-.13,1.34,1.34,0,0,0,.79-.8,1,1,0,0,0,.13-.57l0-.4a1.47,1.47,0,0,0-.39-.67l-.3-.23a1.44,1.44,0,0,0-.76-.2h-.27a1.11,1.11,0,0,0-.57.12,1.32,1.32,0,0,0-.8.8,1.27,1.27,0,0,0-.13.58l.06.39a1.54,1.54,0,0,0,.38.67l.31.23a1.51,1.51,0,0,0,.75.21Z"/><path class="cls-17" d="M1215.8,277.78a39.86,39.86,0,0,1-3.72,6.5"/><path class="cls-17" d="M1223.39,277.92a7.9,7.9,0,0,1,5.49,3.22"/><path class="cls-17" d="M1213.45,274.75a5,5,0,0,0-4.38-.8"/><path class="cls-18" d="M1052.31,997.59c38.71,2.12,78.4.43,114.8-11.5"/><path class="cls-18" d="M1194.4,995.6c37.78-2.83,76.89-7.39,112.06-16.82"/><path class="cls-19" d="M999.23,311.58a3.17,3.17,0,1,0,.39,6.32l-.25-.93c-1.15.53-2.6,1.3-2.73,2.72-.1,1.09.68,2.37,1.89,2.24l-.36-.85a4.82,4.82,0,0,0-1.18,1.8.52.52,0,0,0,.13.49,3.76,3.76,0,0,0,1.82.81l-.22-.84a3.85,3.85,0,0,0,.83,5.79l-.1-.79a5.93,5.93,0,0,0-.88,7.07.5.5,0,0,0,.87-.51,4.88,4.88,0,0,1,.72-5.85.5.5,0,0,0-.11-.78,2.84,2.84,0,0,1-.62-4.22c.23-.24.18-.78-.22-.84a2.78,2.78,0,0,1-1.38-.55l.13.49a3.46,3.46,0,0,1,.92-1.36c.29-.28.09-.9-.35-.86-.82.09-1.06-1-.76-1.57a4.17,4.17,0,0,1,2.1-1.53.5.5,0,0,0-.25-.93,2.17,2.17,0,1,1-.39-4.32c.64,0,.64-1,0-1Z"/></g><g id="nurse1"><path class="cls-12" d="M718.52,948.83l.88.15c20.61,12.23,38.37,27.39,56.88,47.35a2.86,2.86,0,0,1-2,4.81,765.23,765.23,0,0,1-110-7,3.42,3.42,0,0,1-3-3.57c1.24-24.14,2.83-54.85,3.86-74.94,19.23,2.86,37.17,3.37,56,3v.08A272.84,272.84,0,0,1,718.52,948.83Z"/><path class="cls-12" d="M609.13,993.45a2.67,2.67,0,0,1-2.45,4.11,653.14,653.14,0,0,1-113.43-19.15,3.86,3.86,0,0,1-2.67-5c7.42-21.85,17.19-50.63,23.48-69.14a254.16,254.16,0,0,0,57,11.38l0,.64c-2.78,9.89-4.84,15.5-7.4,24C580.41,954.87,597.24,975.1,609.13,993.45Z"/><path class="cls-6" d="M674.93,470.5l-.1.3a84.32,84.32,0,0,1-19.16-8.75l.1-.15a36,36,0,0,0,13-5.13l.31.53C671,463,673,464.76,674.93,470.5Z"/><path class="cls-13" d="M683.18,483.06v.13a21.42,21.42,0,0,1,6.37,2.73c.92.58,1.9,1.5,1.66,2.56s-1.34,1.42-2.31,1.66a46.66,46.66,0,0,1-14.17,1.29h0a26.83,26.83,0,0,1,8.85,2.84,1.48,1.48,0,0,1,.72.79,1.64,1.64,0,0,1-.89,2.13,13.24,13.24,0,0,1-2.47.66,58.17,58.17,0,0,1-7.44.86,18.89,18.89,0,0,0,3.24.53c1.22.23,2.55,1.2,2.33,2.43s-2,1.69-3.36,1.72c-11.63.27-24,.35-33.89-5.76-3.48-2.14-6.48-5-9.81-7.34-7.38-5.27-16.12-9.08-24.8-11.9a84.59,84.59,0,0,1,10.63-27l.38.22c13.58-.43,29.84-.36,43.42-.79a20.31,20.31,0,0,1,6.88.57,7.45,7.45,0,0,1,1.16.44,2.78,2.78,0,0,1,1.28,1c.81,1.41-.72,3-2.11,3.82l-.08,0a36,36,0,0,1-13,5.13l-.1.15a84.32,84.32,0,0,0,19.16,8.75c3.62,1.21,7.27,2.27,10.86,3.26,2.81.78,5.71,1.47,8.12,3.11a3.14,3.14,0,0,1,1.44,1.72c.4,1.76-1.78,2.91-3.55,3.27A44.58,44.58,0,0,1,683.18,483.06Z"/><path class="cls-13" d="M952,298.49c1.36.06,2.08,1.69,2.07,3.05-.08,5.82-1.62,9-5.73,13.45a86.09,86.09,0,0,1-10.94,9.88c-2.82,2.14-5.8,4.12-8.23,6.71-2.66,2.84-18.48,28.85-27,35.61a198.11,198.11,0,0,0-15.27-33.83c6.52-5.87,16.46-18.58,20.24-26.23,2.82-5.68,6.06-12.72,12.38-13.21a8.9,8.9,0,0,0,2.63-.31c1.29-.49,2-1.8,2.76-3a59.11,59.11,0,0,1,24.45-22.74,2.17,2.17,0,0,1,2.3.16c1.11.89.51,2.33-.1,3.41L929.21,311c-1.82,3.22,6,.95,6.82.55,5.27-2.54,8.86-9.11,14.14-12.41A3.26,3.26,0,0,1,952,298.49Z"/><path class="cls-6" d="M650.88,735.09C628,796,615.64,844.79,578.29,916.19c-2.41-.13-4.83-.3-7.24-.5a254.16,254.16,0,0,1-57-11.38c-1.08-.34-2.16-.7-3.23-1.06-1.68-.56-3.36-1.16-5-1.84q38.81-108,68.26-219h.06c2.63-38.35-7.35-76.37-13.39-114.38-5.1-32.12-7-66.35,3.16-96.72l0-.11c17.42,3.35,34.25,6.1,41.72,6.68l1.56.5c8.68,2.82,17.42,6.63,24.8,11.9,3.33,2.37,6.33,5.2,9.81,7.34,9.9,6.11,22.26,6,33.89,5.76,1.37,0,3.12-.37,3.36-1.72s-1.11-2.2-2.33-2.43a18.89,18.89,0,0,1-3.24-.53,58.17,58.17,0,0,0,7.44-.86,13.24,13.24,0,0,0,2.47-.66,1.64,1.64,0,0,0,.89-2.13l.36-.12c19.87,60.41,49.2,175.81,49.79,179.2,10.54,60.3,3,129.54,2.18,244-5.27.22-10.43.39-15.53.5-18.8.41-36.74-.1-56-3-2.59-.37-5.2-.8-7.84-1.27A1288.8,1288.8,0,0,0,650.88,735.09Z"/><path class="cls-6" d="M595.88,389.85a219.46,219.46,0,0,1-38.26,34.29l.17.41a287.7,287.7,0,0,1,32.6,12.55A108.06,108.06,0,0,0,595.88,389.85Zm291-56.49a198.11,198.11,0,0,1,15.27,33.83,12.58,12.58,0,0,1-1.21.86c-24.42,20.52-60.66,45.24-86.74,56.86a3.84,3.84,0,0,1-2.14.28c-43.59-6.58-71.87-17.44-106.83-32.16a56,56,0,0,1-2.39,12.73c-2.39,7.34-7.23,14.25-14.09,17.59a12,12,0,0,0-4.21,3.47,182.9,182.9,0,0,0-16,24.61,20.31,20.31,0,0,0-6.88-.57c-13.58.43-29.84.36-43.42.79l-.38-.22a84.59,84.59,0,0,0-10.63,27l-1.56-.5c-7.47-.58-24.3-3.33-41.72-6.68-20.13-3.87-41-8.57-49.14-11.71-13.7-5.31-26.4-15-32.53-28.17a13,13,0,0,1-1.2-5.48,13.47,13.47,0,0,1,.24-2.53A13.7,13.7,0,0,1,483,419c5.42-9.12,13.59-16.37,21.68-23.33q35.1-30.18,72.08-58.08c6.35-4.78,12.87-9.59,20.42-12.09,6.39-2.11,13.22-2.46,20-2.73a93.19,93.19,0,0,1,28.32,3.67q-2.79,6.65-5.78,13.22l-.22,1.66c-1,0,9.39,20.93,30.75,10.11l.25-.48q1.73-10.92,3.44-21.82c7.54-1,15.4.4,22.65,2.89,9.49,3.27,18.23,8.38,27.21,12.86,25.24,12.58,52.58,20.27,79.74,27.86a4.85,4.85,0,0,0,.76.14l.35,0a4.94,4.94,0,0,0,2.4-.7c31.86-17.66,52.28-27.26,79.57-38.51Z"/><path class="cls-14" d="M675,321.64c-.39,2.49-.79,5-1.18,7.47q-1.73,10.9-3.44,21.82l-.25.48c-21.36,10.82-31.75-10.09-30.75-10.11l.22-1.66q3-6.57,5.78-13.22,3.6-8.57,6.9-17.25l2.54.52c3.49,4,7.12,8.07,11.91,10.32A18,18,0,0,0,675,321.64Z"/><path class="cls-15" d="M658.16,313.27c2,8.4,7.61,13.39,15.52,16.92l.18-1.08c.39-2.49.79-5,1.18-7.47a18,18,0,0,1-8.27-1.63,30.7,30.7,0,0,1-9.18-7.28,28.48,28.48,0,0,0,1.5,5.06,30.93,30.93,0,0,0,2.51,3.39"/><path class="cls-14" d="M695.5,278.09h0q-.24,8.38-.5,16.79c-.17,5.57-.38,11.35-2.89,16.34C688.94,317.5,682,321.4,675,321.64a18,18,0,0,1-8.27-1.63c-4.79-2.25-8.42-6.34-11.91-10.32l-2.54-.52c.56-1.46,1.11-2.94,1.65-4.41-4.68.22-12.91-1.51-17.17-3.47-24.31-11.23-11.38-37.89.66-50.82,5.61-6,17.88-11.09,26.09-11.71,4.59-.35,10.17-.29,14.58,1,7.78,2.33,21.83,5.94,26,12.93S702.21,274.83,695.5,278.09Z"/><path class="cls-16" d="M662.47,288.14c-3.35.77-6.65,8.5-7.45,10.94-1.87,5.75-.35,11,3.77,15.25a29,29,0,0,0,8,5.68,18,18,0,0,0,8.27,1.63c7-.24,13.9-4.14,17.05-10.41a29.81,29.81,0,0,0,2.77-14.5c-2.11-.11-4.17.13-6.24.08-2.69-.06-5.7-1.36-8.25-2.16A134.93,134.93,0,0,1,664,288.29,2.18,2.18,0,0,0,662.47,288.14Z"/><path class="cls-6" d="M704.1,252.72c-4.14-7-18.19-10.6-26-12.93-4.41-1.32-10-1.38-14.58-1-8.21.62-20.48,5.68-26.09,11.71-12,12.93-25,39.59-.66,50.82a41.5,41.5,0,0,0,8.2,2.64c2.24.5,8.2,2.65,9.49-.21a6.26,6.26,0,0,0,.39-2.16,3.65,3.65,0,0,0-.22-1.83c-.73-1.47-4.54-1.79-5.91-2.93a8,8,0,0,1-2.39-8.27c1.48-5,7.19-7.73,11.81-5,4.32,2.52,8.76-.19,13-2.06a102.41,102.41,0,0,0,13.44-7.26,9.47,9.47,0,0,1,4.26-1.83,5.91,5.91,0,0,1,4.39,1.34,8,8,0,0,1,2,3.85.47.47,0,0,0,.23.33.44.44,0,0,0,.39-.1c4.18-2.6,6.37-6.35,8.19-10.87S706.64,257,704.1,252.72Z"/><path class="cls-17" d="M590.39,437.1a108.06,108.06,0,0,0,5.49-47.25c-.23-2.2-.53-4.4-.91-6.58"/><path class="cls-17" d="M668.52,451.43a182.9,182.9,0,0,1,16-24.61,12,12,0,0,1,4.21-3.47c6.86-3.34,11.7-10.25,14.09-17.59,2.64-8.11,2.74-16.81,2.81-25.34"/><path class="cls-17" d="M578.29,916.19C615.63,844.79,628,796,650.88,735.09q9.64-25.67,19-51.43a64.55,64.55,0,0,0,3.83-21.31c.28-27.55-.09-100.13-10.51-151.35"/><path class="cls-17" d="M557.62,424.14a219.46,219.46,0,0,0,38.26-34.29"/><path class="cls-17" d="M605.72,477.91c-16-1.25-75.8-12.53-90.93-18.4-13.7-5.31-26.4-15-32.53-28.17a13,13,0,0,1-1.2-5.48,13.47,13.47,0,0,1,.24-2.53A13.7,13.7,0,0,1,483,419c5.42-9.12,13.59-16.37,21.68-23.33q35.1-30.18,72.08-58.08c6.35-4.78,12.87-9.59,20.42-12.09,6.39-2.11,13.22-2.46,20-2.73a93.19,93.19,0,0,1,28.32,3.67"/><path class="cls-17" d="M618.21,451.64a288.68,288.68,0,0,0-60.43-27.09"/><path class="cls-17" d="M660.94,285c-3.69-4.16-11.51-3.25-14.14,1.65s1.91,11.92,7.42,12.71"/><path class="cls-17" d="M695.48,278.1c6.72-3.25,12.71-18.49,8.62-25.39s-18.19-10.59-26-12.93c-4.41-1.32-10-1.38-14.57-1-8.21.63-20.48,5.69-26.09,11.72-12,12.93-25,39.59-.66,50.82,4.25,2,12.49,3.68,17.17,3.46"/><path class="cls-17" d="M695.48,278.1l-.5,16.78c-.17,5.58-.39,11.36-2.89,16.35-4.44,8.83-16.37,13-25.32,8.77-4.8-2.24-8.43-6.33-11.91-10.31"/><path class="cls-17" d="M694.46,297.43A83.73,83.73,0,0,1,666,289c-1.43-.72-3.21-1.47-4.52-.54a4.28,4.28,0,0,0-1.07,1.31L656,296.84"/><path class="cls-17" d="M695.52,278.45a5.79,5.79,0,0,0-5.83-6.09c-2.23,0-4.18,1.4-6.06,2.61-6.75,4.38-15.33,8.47-23.22,10.07"/><path class="cls-17" d="M654,304.75q-6.53,17.7-14.34,34.88l-.21,1.67c-1,0,9.38,20.92,30.75,10.11l.25-.48L675,321.64"/><path class="cls-17" d="M673.86,329.11c7.54-1,15.4.4,22.65,2.89,9.49,3.27,18.23,8.38,27.21,12.86,25.24,12.58,52.58,20.27,79.73,27.85a3.91,3.91,0,0,0,.76.14h0a4.73,4.73,0,0,0,2.76-.67c31.85-17.67,52.28-27.26,79.57-38.51"/><path class="cls-17" d="M705.23,393c35,14.72,63.24,25.58,106.83,32.16a3.84,3.84,0,0,0,2.14-.28c26.08-11.62,62.32-36.34,86.74-56.86"/><path class="cls-17" d="M886.54,333.67c6.51-5.74,16.72-18.76,20.58-26.54,2.81-5.68,6-12.72,12.37-13.21a9.2,9.2,0,0,0,2.63-.31c1.3-.5,2.06-1.8,2.76-3a59.33,59.33,0,0,1,24.46-22.74,2.19,2.19,0,0,1,2.3.17c1.11.88.51,2.33-.1,3.41L929.2,311c-1.82,3.22,6,.95,6.83.55,5.27-2.55,8.86-9.12,14.14-12.41a3.14,3.14,0,0,1,1.79-.65c1.36.06,2.08,1.68,2.06,3-.08,5.83-1.61,9-5.73,13.46a85.33,85.33,0,0,1-10.93,9.88c-2.83,2.14-5.81,4.12-8.23,6.71-2.8,3-20.08,31.49-28.19,36.47"/><path class="cls-17" d="M886.88,333.36a198.68,198.68,0,0,1,15.29,33.88"/><path class="cls-17" d="M655.64,462c9,5.77,19.78,9.18,30,12,2.81.78,5.72,1.47,8.13,3.11a3.09,3.09,0,0,1,1.43,1.72c.41,1.75-1.78,2.9-3.54,3.27-12.85,2.65-26.16-.89-38.43-5.52"/><path class="cls-17" d="M683.18,483.19a21.53,21.53,0,0,1,6.37,2.73c.91.58,1.89,1.5,1.65,2.56s-1.34,1.41-2.31,1.66c-12.77,3.25-26.39.33-38.59-4.67"/><path class="cls-17" d="M674.72,491.44a26.88,26.88,0,0,1,8.86,2.84,1.61,1.61,0,0,1-.18,2.91,12.36,12.36,0,0,1-2.47.67c-11.28,2-24.55,1-33.9-5.86"/><path class="cls-17" d="M673.08,498.52c1.08.61,2.42.49,3.65.72s2.56,1.21,2.34,2.44-2,1.68-3.36,1.71c-11.63.28-24,.36-33.9-5.75-3.47-2.14-6.48-5-9.8-7.34-7.87-5.62-17.28-9.57-26.51-12.44"/><path class="cls-17" d="M607.21,478.4a84.59,84.59,0,0,1,10.63-27"/><path class="cls-17" d="M669.08,457.29c1.95,5.74,3.9,7.47,5.85,13.21"/><path class="cls-17" d="M655.64,286.72a4.11,4.11,0,0,0-4.11,6.85"/><path class="cls-17" d="M690.76,289.11a12.18,12.18,0,0,0,0,7.62"/><path d="M682.11,290.3h.54a1.14,1.14,0,0,0,.57-.13,1.21,1.21,0,0,0,.49-.31,1.24,1.24,0,0,0,.31-.48,1.29,1.29,0,0,0,.13-.58l-.06-.4a1.45,1.45,0,0,0-.38-.66l-.31-.24a1.5,1.5,0,0,0-.75-.2h-.54a1.06,1.06,0,0,0-.58.13,1.36,1.36,0,0,0-.79.79,1.06,1.06,0,0,0-.13.58l0,.4a1.49,1.49,0,0,0,.39.66l.3.23a1.45,1.45,0,0,0,.76.21Z"/><path d="M693.19,291.61h.54a1.27,1.27,0,0,0,.58-.13,1.24,1.24,0,0,0,.48-.31,1.72,1.72,0,0,0,.44-1.06l-.05-.4a1.47,1.47,0,0,0-.39-.66l-.3-.24a1.57,1.57,0,0,0-.76-.2h-.54a1.06,1.06,0,0,0-.58.13,1.08,1.08,0,0,0-.48.31,1,1,0,0,0-.31.48,1.06,1.06,0,0,0-.13.58l0,.4a1.49,1.49,0,0,0,.39.66l.3.23a1.48,1.48,0,0,0,.76.21Z"/><path class="cls-17" d="M676.81,284.18a7.48,7.48,0,0,1,7.5-.25"/><path class="cls-17" d="M691.76,284.81a4.23,4.23,0,0,1,4,.87"/><path class="cls-18" d="M491.72,970.11l29.73,9.07c28.49,8.68,57.9,15.77,87.46,13.94"/><path class="cls-18" d="M661.56,985c39.3,8.41,76,13,113.77,10.3"/><path class="cls-4" d="M939.19,292.38l5.33-9.75,12.17,7.15a3.74,3.74,0,0,1,1.26,5.6l-2.18,2.77a4.91,4.91,0,0,1-6.38.85Z"/></g></svg>