<?xml version="1.0" encoding="UTF-8"?>
<svg width="542px" height="532px" viewBox="0 0 542 532" version="1.1" xmlns="http://www.w3.org/2000/svg" xmlns:xlink="http://www.w3.org/1999/xlink">
    <!-- Generator: Sketch 53.2 (72643) - https://sketchapp.com -->
    <title>Group 10</title>
    <desc>Created with Sketch.</desc>
    <g id="Page-1" stroke="none" stroke-width="1" fill="none" fill-rule="evenodd">
        <g id="Group-10">
            <g id="2659980-copy-4" fill-rule="nonzero">
                <g id="XMLID_8_" transform="translate(157.000000, 157.000000)" fill="#04092D">
                    <circle id="Oval" cx="109.493036" cy="109.545582" r="109.027945"></circle>
                </g>
                <g id="Group-9">
                    <g id="XMLID_107_" fill="#39417E">
                        <path d="M541.35854,243.333209 C543.336561,268.89049 525.333221,291.579551 501.161138,294.001355 C482.654911,295.853978 465.914375,285.285094 458.181097,268.778886 L436.244066,270.709632 L419.682334,278.689307 C415.893922,280.50845 413.345963,284.124414 412.764849,288.276077 C411.200313,299.469943 408.361798,310.250874 404.416932,320.496107 C403.075901,323.966987 403.310581,327.83964 405.132148,331.076152 L411.032685,341.611554 L427.437963,352.604533 C436.087612,349.301059 446.15652,350.093447 454.437386,355.640158 C468.473509,365.048362 471.837262,384.411629 461.399571,398.038458 C452.414664,409.779182 435.707654,413.004534 422.99021,405.460114 C414.888148,400.661148 409.993386,392.692634 408.797633,384.177261 L390.615489,372.001281 L379.172025,370.606233 C375.238334,370.126337 371.326994,371.476743 368.466128,374.211037 C358.810705,383.396034 347.903654,391.286425 336.046705,397.603203 C332.057138,399.723676 329.498004,403.797216 329.218623,408.294851 L327.765839,431.441489 L334.962705,459.956271 C347.210788,463.371348 357.335571,473.069722 360.665798,486.261297 C365.694664,506.204904 353.290128,526.438681 333.062911,530.936316 C314.813715,534.998696 296.095159,524.37401 290.2952,506.617838 C285.780396,492.756641 289.926416,478.426707 299.470087,469.063144 L292.239695,440.380957 L281.075612,422.457379 C278.080643,417.647253 272.783571,414.801355 267.10654,414.812516 C267.073014,414.812516 267.050664,414.812516 267.017138,414.812516 C257.238788,414.812516 247.672767,413.841562 238.419654,412.02242 C232.910252,410.928702 227.222045,412.669722 223.355406,416.743262 L208.604066,432.289678 L192.087035,466.507416 C195.953674,474.353167 196.300107,483.828333 192.209963,492.321386 C184.856643,507.54415 166.104561,513.593078 151.11854,505.178148 C138.289344,497.95738 132.735241,482.020351 138.32287,468.404682 C142.133633,459.119242 150.03454,452.914068 158.974746,450.838237 L175.592355,416.39729 L178.85553,393.284134 C179.447819,389.020867 177.816231,384.724119 174.463654,382.023306 C161.243324,371.309337 149.911612,358.374452 141.049633,343.776669 C138.848107,340.149544 134.892066,337.950948 130.645468,337.917467 L107.535035,337.69426 L82.2342515,345.640453 C80.4573856,361.354275 69.6844371,375.315915 53.6144165,380.360409 C32.0238186,387.145923 9.02513814,375.293595 2.01825155,353.865657 C-4.98863505,332.448879 6.84596289,309.023232 28.268932,301.947548 C43.2661278,296.992338 59.0232412,301.110519 69.6844371,311.232988 L96.5385814,302.795738 L116.151159,288.834097 C119.067901,286.769426 120.621262,283.309706 120.330705,279.760704 C120.006623,275.821088 119.838994,271.847992 119.838994,267.830253 C119.838994,246.000541 124.644355,225.275707 133.226953,206.637865 C134.478581,203.903571 134.445056,200.756343 133.126375,198.05553 L127.315241,186.192041 L111.546953,174.306232 C102.718499,177.129809 92.7166433,175.779403 84.7598598,169.786276 C71.2601485,159.608006 68.9803959,140.088493 80.1556536,127.064325 C89.7775505,115.848138 106.641014,113.549099 118.922623,121.785463 C126.745303,127.030843 131.193056,135.244886 131.908272,143.816062 L149.386375,156.985315 L166.998581,160.121383 C179.816602,148.235574 194.757922,138.604162 211.174375,131.85213 L215.309221,106.763585 L210.090375,80.8491728 C194.646169,76.8760759 182.10753,65.0572288 178.732602,49.2987661 C173.971942,27.0337992 189.293221,5.34917225 212.962416,0.873858099 C236.620437,-3.60145605 259.663819,10.8066002 264.424478,33.0715671 C267.989386,49.734021 260.311984,66.0616634 246.29821,75.1015748 L251.226499,99.5428167 L263.329303,118.827961 C264.122746,120.089084 265.508478,120.84799 266.994788,120.84799 L267.017138,120.84799 C294.731777,120.84799 320.680726,128.548656 342.841262,141.918796 C344.059365,142.644221 345.556849,142.744665 346.842004,142.142004 L365.795241,133.369942 L387.922252,109.464398 C386.592396,100.893223 389.039777,91.8086703 395.398499,84.9450339 C406.886664,72.5458468 426.555118,72.233356 438.423241,84.6325431 C448.827406,95.5139179 449.229715,112.868316 439.350788,124.229587 C432.95854,131.58428 423.783654,134.977037 414.821097,134.307414 L392.694087,158.212957 L385.508396,177.520423 C385.005509,178.859669 385.229014,180.35516 386.067159,181.51584 C394.795035,193.479772 401.757221,206.805271 406.562581,221.112884 C407.892437,225.041339 411.021509,228.099285 415.022252,229.226483 L433.014416,234.259817 L456.393056,232.195146 C462.125963,215.688937 476.441468,203.200467 494.020148,201.437126 C518.192231,199.015323 539.391695,217.775929 541.35854,243.333209 L541.35854,243.333209 Z" id="Path"></path>
                    </g>
                    <g id="Group-5" transform="translate(52.382643, 8.546185)">
                        <path d="M138.412475,259.056225 C138.412475,204.789107 178.996481,159.835027 231.980276,151.877362 C226.494666,151.053465 220.876613,150.626506 215.156682,150.626506 C154.187849,150.626506 104.765286,199.17082 104.765286,259.056225 C104.765286,318.94163 154.187849,367.485944 215.156682,367.485944 C220.876613,367.485944 226.494666,367.058985 231.980276,366.235088 C178.997613,358.276311 138.412475,313.32223 138.412475,259.056225 Z" id="Path" fill="#31386F"></path>
                        <g id="Group">
                            <ellipse id="Oval" fill="#39417E" cx="31.1315672" cy="31.1574627" rx="31.039915" ry="30.9900755"></ellipse>
                            <ellipse id="Oval" fill="#39417E" cx="22.6470331" cy="439.654888" rx="20.5021483" ry="20.4692289"></ellipse>
                            <ellipse id="Oval" fill="#39417E" cx="387.815637" cy="439.603607" rx="30.1982796" ry="30.1497915"></ellipse>
                            <ellipse id="Oval" fill="#010629" cx="181.0712" cy="229.977807" rx="28.1539886" ry="28.108783"></ellipse>
                            <ellipse id="Oval" fill="#010629" cx="203.67129" cy="317.28588" rx="19.1631321" ry="19.1323627"></ellipse>
                            <ellipse id="Oval" fill="#010629" cx="263.844307" cy="259.989225" rx="16.091666" ry="16.0658283"></ellipse>
                        </g>
                    </g>
                </g>
            </g>
            <g id="Group-8" transform="translate(148.000000, 151.000000)">
                <path d="M233.146274,276.395276 L233.146274,276.404965 C232.636629,276.733316 232.117327,277.062743 231.596953,277.39217 C229.702146,278.591458 227.777296,279.753066 225.814894,280.874841 C223.833179,282.007382 221.811765,283.091478 219.772112,284.127128 C208.772359,289.741387 196.973269,293.994874 184.594792,296.683044 C174.622914,298.846929 164.274434,299.988082 153.655574,299.999925 C107.615838,300.046217 66.5223431,278.778779 39.6173694,245.488323 C19.2573128,220.266682 7.03548496,188.13891 7.00007804,153.149643 C6.91746187,71.9662745 72.4438836,6.08297274 153.355152,6.00007764 C158.641514,5.99469485 163.868864,6.26921757 169.010379,6.81503335 C169.463158,6.86347854 169.915938,6.91084717 170.359061,6.95821579 C171.437363,7.08309672 172.515665,7.22627916 173.585383,7.37053817 C181.884553,8.51169147 189.964843,10.3483024 197.75544,12.8233131 C199.864835,13.4972395 201.94526,14.2099221 204.006372,14.9613607 C204.950557,15.317702 205.885085,15.6740433 206.818541,16.0303846 L206.876479,16.0594517 C261.343064,37.4496167 299.936616,90.6187482 299.999919,152.849283 C300.053566,204.618887 273.430775,250.164899 233.146274,276.395276 Z" id="Fill-37" fill="#4E59AA"></path>
                <path d="M253.999919,181.729699 C254.056895,234.555825 224.113787,283.462568 221.947538,284.519354 C210.265063,290.24819 201.764346,293.872321 188.617574,296.615351 C178.026771,298.823397 167.035992,299.987839 155.758051,299.999923 C106.860765,300.04716 63.2167184,278.345693 34.6418328,244.37584 C13.0180879,218.639472 0.0376874111,185.856031 8.28799319e-05,150.152697 C-0.0876610262,67.312525 69.5057914,0.0846660639 155.438982,7.92287514e-05 C161.053453,-0.00541342288 166.605249,0.27471181 172.065883,0.831666686 C172.546765,0.88110055 173.027647,0.929435885 173.498274,0.977771219 C174.643502,1.10520074 175.788731,1.25130527 176.924844,1.39850833 C185.739118,2.56295048 194.320928,4.43704322 202.595064,6.96256444 C204.835383,7.65024442 207.044934,8.3774715 209.233974,9.14424566 C210.236761,9.5078592 211.229293,9.87147274 212.220685,10.2350863 L212.28222,10.2647466 C270.129384,32.0914456 238.01435,76.2765938 238.081582,139.777139 L253.999919,181.729699 Z" id="Fill-37-Copy" fill="#616ED1"></path>
                <g id="Group-7" transform="translate(32.000000, 19.000000)">
                    <g id="Group-6">
                        <path d="M211.309096,58.936848 C210.800785,66.0097793 208.844895,72.7920422 205.795032,79.1006232 C205.949735,79.5958361 205.894484,80.1556419 205.496676,80.7262132 C204.72316,81.8565904 203.916493,82.976202 203.098776,84.0850482 C199.89421,89.4462655 195.894027,94.3876285 191.319233,98.7476546 C190.744621,99.2859294 190.092658,99.4366464 189.495945,99.3289914 C188.678228,100.071811 187.860511,100.803864 187.031744,101.514387 C174.434484,112.279884 158.953114,119.804966 142.123616,121.247543 C132.288913,122.087251 122.255306,120.806157 113.083616,117.371964 C113.326721,119.686546 113.591927,121.990362 113.823982,124.294178 C114.464895,130.667352 114.741151,137.611097 111.050374,142.907722 C109.624895,144.963932 107.724256,146.567991 105.547361,147.795257 C102.232292,149.689985 98.298411,150.723472 94.4529315,151.132561 C92.5854429,151.32634 90.7179543,151.401699 88.8394155,151.358637 C86.3862648,151.304809 83.9552146,151.035672 81.5573151,150.551224 C81.071105,150.454335 80.584895,150.34668 80.1097352,150.239025 C75.9990502,149.259365 71.921516,147.569182 69.0484566,144.533312 C65.6007854,140.894574 64.2968584,135.576419 65.2140274,130.710414 C66.1422466,125.833644 69.1700091,121.462853 73.1922922,118.416217 C64.1421553,116.586083 56.6058995,109.050235 54.9594155,100.179466 C54.2301005,96.2500594 54.5837078,92.2452946 55.6555799,88.3697158 C56.4290959,85.5491557 57.5672694,82.8039541 58.9374977,80.2094694 C60.8933881,76.516904 63.357589,73.0288831 66.5290046,70.2621505 C71.1811507,66.2250892 77.1261735,63.964335 83.0269954,62.0373111 C88.9167671,60.1102872 94.9722922,58.3985732 100.287452,55.2550482 C103.514119,53.3387898 106.453479,50.7766016 108.530922,47.729966 C109.182886,46.1582035 109.823799,44.586441 110.475763,43.0362095 C113.481425,35.9525127 117.260603,29.4716837 122.741516,23.8951565 C132.233662,14.2708025 145.383434,8.02681441 159.118868,7.31629164 C172.478594,6.62729985 185.83832,11.6547868 195.717224,20.3533081 C206.844804,30.1606755 212.347817,44.4034276 211.309096,58.936848" id="Fill-38" fill="#0E1125"></path>
                        <path d="M229.652475,152.403966 C229.999452,152.722625 230.357479,153.146786 230.239242,153.591401 C230.189516,153.784103 230.070174,153.939126 229.90221,154.045705 C223.535068,152.776453 217.148037,151.537344 210.672603,151.118566 C204.23695,150.699788 197.683059,151.121796 191.556813,153.060662 C195.422183,150.960313 199.39695,149.052667 203.470064,147.358178 L203.76842,148.024562 C208.061434,147.788798 212.364393,147.832937 216.658511,148.147289 C221.299607,148.499321 226.237954,149.316422 229.652475,152.403966" id="Fill-39" fill="#EC923C"></path>
                        <path d="M209.598521,157.331334 C204.264575,158.148435 198.920685,158.96446 193.58674,159.781561 L193.626521,160.022708 C202.392667,160.313377 211.119032,161.318874 219.71832,163.020899 C219.084037,163.513959 218.232064,163.881062 217.468493,164.055463 C213.384329,164.997444 193.626521,169.016204 179.737489,172.054227 C175.346128,173.004821 171.540429,173.86929 169.002192,174.499072 C165.902603,168.986061 162.059333,163.870297 157.592831,159.334793 C156.749699,158.475706 155.835845,157.61662 154.833589,156.931934 C161.744402,146.627201 172.07747,138.51217 183.912265,134.182287 C184.259242,134.05633 184.606219,133.930374 184.963142,133.804418 L184.973087,133.804418 C187.203023,133.04868 189.522466,132.447965 191.862904,132.339234 C192.586694,132.30909 193.320429,132.317703 194.044219,132.384449 C194.460813,132.413516 194.937078,132.519018 195.096201,132.886121 C195.175763,133.078823 195.155872,133.29198 195.106146,133.484683 C194.839836,134.682882 193.909406,135.631323 192.997763,136.481797 C191.16453,138.193511 189.242895,139.818024 187.331205,141.433925 C184.893525,143.493365 182.45695,145.544192 180.019269,147.603631 L180.049105,147.642387 C190.412009,138.812527 201.986018,131.324047 214.354539,125.428861 C214.294868,125.621564 214.225251,125.805654 214.136849,125.969289 C213.284877,127.642248 211.740055,128.851213 210.233909,130.002044 C205.884539,133.319971 201.505333,136.599141 197.086347,139.820177 C193.717132,142.296242 190.329132,144.743239 186.920137,147.162246 L187.05937,147.461527 C196.475269,143.259754 206.456941,140.255103 216.658511,138.544466 C219.25642,138.107387 221.883059,137.757508 224.510804,137.822101 C224.698658,137.83179 224.937342,137.870546 224.987068,138.053559 L224.987068,138.072937 L225.244539,138.063248 C225.265534,138.816833 224.8401,139.599485 224.235653,140.102233 C223.393626,140.798761 222.293023,141.07974 221.222256,141.36072 C215.165626,142.931406 209.228338,144.938094 203.470064,147.358178 C199.39695,149.052667 195.422183,150.960313 191.556813,153.060662 C197.683059,151.121796 204.23695,150.699788 210.672603,151.118566 C217.148037,151.537344 223.535068,152.776453 229.90221,154.045705 C229.624849,154.239484 229.238091,154.326684 228.901059,154.375129 C222.466511,155.356942 216.033068,156.349521 209.598521,157.331334" id="Fill-40" fill="#EBB452"></path>
                        <path d="M225.244539,138.063248 L224.987068,138.072937 L224.987068,138.053559 C224.937342,137.870546 224.698658,137.83179 224.510804,137.822101 C221.883059,137.757508 219.25642,138.107387 216.658511,138.544466 C206.456941,140.255103 196.475269,143.259754 187.05937,147.461527 L186.920137,147.162246 C190.329132,144.743239 193.717132,142.296242 197.086347,139.820177 L197.384703,140.206659 C202.102046,138.347457 206.969671,136.815527 211.915753,135.651777 C215.970082,134.691495 220.560347,134.058484 224.033434,136.306319 C224.410247,136.547466 224.788164,136.846747 225.015799,137.232152 C225.164977,137.492677 225.234594,137.77258 225.244539,138.063248" id="Fill-41" fill="#EC923C"></path>
                        <path d="M220.538247,160.73969 C220.985781,161.589088 220.520566,162.400807 219.71832,163.020899 C211.119032,161.318874 202.392667,160.313377 193.626521,160.022708 L193.58674,159.781561 C198.920685,158.96446 204.264575,158.148435 209.598521,157.331334 C213.069397,157.791021 216.402146,158.50262 218.941489,159.572711 C219.565826,159.833236 220.23105,160.150818 220.538247,160.73969" id="Fill-42" fill="#EC923C"></path>
                        <path d="M197.848813,54.2592397 L197.858758,54.2592397 C199.227881,54.827658 200.409151,55.7642562 201.510858,56.7482226 C203.714274,58.7075429 205.670164,60.9176994 207.327699,63.3302472 L207.674676,63.3302472 C207.681306,59.8820586 207.201726,56.4144922 206.217151,53.0922599 L206.285662,53.1310157 C209.192977,55.0300493 211.2881,57.820466 212.680429,60.9586083 C213.673845,63.1698413 214.321388,65.5651643 214.650685,67.9507984 C215.029708,70.7132248 215.062858,73.5434739 214.500402,76.27791 C213.859489,79.4472722 212.435114,82.4045541 210.881452,85.2455687 C207.051443,92.2345291 202.308685,98.7401187 196.791306,104.551334 C192.908256,108.660524 188.5401,112.549021 186.205187,117.65079 L186.205187,117.660479 C185.977553,117.593733 185.758758,117.52591 185.531123,117.459164 C189.358922,108.538874 192.939196,99.5033925 196.280785,90.3903996 C196.568091,89.9167177 196.835507,89.4430358 197.092977,88.959665 L196.884128,88.7658861 C192.357954,84.8580108 188.53568,80.1674839 185.644941,74.9828208 C184.850429,73.5639283 184.114484,71.9900127 184.370849,70.4053316 C184.508977,69.5839242 184.954301,68.7722058 185.706822,68.3846479 C186.668192,67.8818992 187.779845,68.1801034 188.7821,68.7205314 C189.158913,68.9229227 189.525781,69.1737588 189.863918,69.4149059 C193.624311,72.125658 196.889653,75.4931053 199.472091,79.2965553 L199.560493,79.2868663 C198.245516,72.5261344 194.668557,66.2121706 189.5081,61.5130314 L189.626338,61.396764 C190.736886,60.4494003 192.491662,60.9499959 193.781224,61.6540594 C193.910511,61.7208055 194.039799,61.798317 194.159142,61.8758286 C197.750466,63.9384978 200.520758,67.1143193 203.210384,70.2320071 L203.487744,70.1835624 C202.559525,64.1957931 199.846694,58.4696255 195.796785,53.8749115 C196.49074,53.8361557 197.224475,53.9987147 197.848813,54.2592397" id="Fill-43" fill="#EBB452"></path>
                        <path d="M213.94568,123.796812 C214.481616,124.124083 214.531342,124.809845 214.354539,125.428861 C201.986018,131.324047 190.412009,138.812527 180.049105,147.642387 L180.019269,147.603631 C182.45695,145.544192 184.893525,143.493365 187.331205,141.433925 C189.242895,139.818024 191.16453,138.193511 192.997763,136.481797 C193.909406,135.631323 194.839836,134.682882 195.106146,133.484683 C195.155872,133.29198 195.175763,133.078823 195.096201,132.886121 C194.937078,132.519018 194.460813,132.413516 194.044219,132.384449 C193.320429,132.317703 192.586694,132.30909 191.862904,132.339234 C194.687342,130.587687 197.679744,129.048221 200.63347,127.566889 C204.527571,125.621564 208.61063,123.656861 212.983205,123.613799 C213.311397,123.613799 213.66832,123.633177 213.94568,123.796812" id="Fill-44" fill="#EC923C"></path>
                        <path d="M202.833571,51.6852095 C204.033626,51.8865243 205.195005,52.4269522 206.217151,53.0922599 C207.201726,56.4144922 207.681306,59.8820586 207.674744,63.3302472 L207.327699,63.3302472 C205.670164,60.9176994 203.714274,58.7075429 201.510858,56.7482226 C200.409151,55.7642562 199.227881,54.827658 197.858758,54.2592397 L197.848813,54.2592397 C198.264301,52.7423813 199.908575,51.7164294 201.545114,51.6087745 C201.981598,51.5797076 202.416977,51.6076979 202.833571,51.6852095" id="Fill-45" fill="#EC923C"></path>
                        <path d="M203.487744,70.1835624 L203.210384,70.2320071 C200.520758,67.1143193 197.750466,63.9384978 194.159142,61.8758286 L194.425452,61.4409025 C193.441982,59.847609 193.064064,57.90659 193.388941,56.0807618 C193.467397,55.6264578 193.59558,55.1721538 193.8641,54.7953615 C194.309425,54.1763454 195.023269,53.9050549 195.796785,53.8749115 C199.846694,58.4696255 202.559525,64.1957931 203.487744,70.1835624" id="Fill-46" fill="#EC923C"></path>
                        <path d="M200.244502,248.348226 C200.601425,248.860663 200.989288,249.458148 200.811379,250.048097 C200.663306,250.588525 200.11853,250.908261 199.612429,251.169862 C187.55221,257.547342 174.49747,262.139903 161.025032,264.743 C159.924429,264.956157 158.735425,265.151013 157.713279,264.688096 C156.423717,264.108913 155.807114,262.680331 155.319799,261.37663 C152.038986,252.502631 149.490804,243.375643 147.716137,234.104397 C150.480904,232.159072 152.778247,229.481693 154.471142,226.475966 L154.559543,226.523334 C162.966557,224.989251 169.077333,217.727923 172.599041,210.131789 C174.96379,205.056934 176.485406,199.704329 177.510868,194.236533 C180.991689,213.581054 188.804201,232.179526 200.244502,248.348226" id="Fill-47" fill="#43ADF4"></path>
                        <path d="M188.479324,64.2377786 C188.52905,63.7748622 188.617452,63.3108693 188.765525,62.8662543 C188.923543,62.3828835 189.141233,61.8801348 189.5081,61.5130314 C194.668557,66.2121706 198.245516,72.5261344 199.560493,79.2868663 L199.472091,79.2965553 C196.889653,75.4931053 193.624311,72.125658 189.863918,69.4149059 C189.525781,69.1737588 189.158913,68.9229227 188.7821,68.7205314 L189.287096,68.680699 C188.572146,67.3199403 188.292575,65.754637 188.479324,64.2377786" id="Fill-48" fill="#EC923C"></path>
                        <path d="M196.884128,88.7658861 L197.092977,88.959665 C196.835507,89.4430358 196.568091,89.9167177 196.280785,90.3903996 C196.48853,89.8488951 196.686329,89.3073906 196.884128,88.7658861" id="Fill-49" fill="#EBB452"></path>
                        <path d="M191.717041,97.8325874 C191.551288,98.0263663 191.341333,98.1770833 191.109279,98.2739727 C186.468183,104.657912 181.02042,110.492811 174.909644,115.552595 C173.27421,116.930578 171.594575,118.233204 169.87074,119.482001 C167.594393,121.118357 165.218594,122.679354 162.566539,123.583655 C160.268091,124.358771 157.837041,124.638674 155.405991,124.606378 C154.798228,124.595612 154.190466,124.574081 153.604804,124.509488 C151.085352,124.326475 148.57695,123.777434 146.201151,122.937726 C141.659507,121.322901 137.526721,118.620761 134.366356,115.068147 C129.283251,109.340903 126.7859,101.535918 127.603616,94.0216016 L127.515215,94.0108361 C127.393662,95.0766202 126.951653,96.0993424 126.575945,97.1112991 C124.918411,101.611277 124.332749,106.391157 123.824438,111.149507 C121.769096,107.392348 120.49832,103.183039 119.713753,98.9844955 C118.652932,93.2787823 118.387726,87.4654141 117.791014,81.6843424 C119.614301,78.7345963 121.923799,76.1293462 124.774758,74.0839018 C123.017772,70.7896598 122.244256,67.000205 122.575763,63.2968742 C122.840968,60.3901901 123.813388,57.4942715 125.747178,55.2658137 C127.680968,53.0481214 130.66453,51.6055448 133.648091,51.8746822 C135.869187,52.0792267 137.979781,53.3603208 139.129005,55.1904552 C152.400329,55.0397382 165.5059,50.4428712 175.70526,42.1319078 C176.014667,41.8843013 176.335123,41.7335844 176.65558,41.6582259 C177.296493,41.1091856 197.407909,90.7811871 191.717041,97.8325874" id="Fill-50" fill="#EBB452"></path>
                        <path d="M189.327982,119.658555 C188.745635,121.948376 186.304639,129.920227 184.959826,133.805494 C184.602904,133.931451 184.255927,134.057407 183.90895,134.183363 C172.074155,138.51217 161.741087,146.628277 154.830274,156.933011 C155.833635,157.617696 156.746384,158.475706 157.590621,159.334793 C162.056018,163.871373 165.899288,168.986061 168.998877,174.500148 C171.537114,173.86929 175.342813,173.005897 179.735279,172.054227 C179.346311,179.465195 178.85789,186.961211 177.507553,194.23761 C176.482091,199.705406 174.960475,205.05801 172.595726,210.131789 C171.557005,212.364553 170.300594,214.56825 168.815443,216.608312 C168.270667,217.372662 167.68611,218.116558 167.061772,218.821698 C163.754438,222.660674 159.563087,225.611497 154.556228,226.524411 L154.467826,226.475966 C152.774932,229.482769 150.477589,232.160148 147.713927,234.105473 C145.493936,235.671853 142.966749,236.765628 140.200877,237.155339 C143.812091,239.025305 146.076283,243.109735 145.723781,247.071438 C145.361333,251.040676 142.399872,254.666496 138.514612,255.898068 C141.221918,256.223186 143.960164,257.650691 145.082868,260.083693 C146.205571,262.516696 145.069607,265.908904 142.441863,266.654953 C145.162429,269.280657 147.475242,272.29069 149.312895,275.564478 C139.042813,277.728342 128.384868,278.869485 117.448457,278.881327 C74.0321096,278.924389 34.8866758,261.096727 7.31856621,232.532634 C4.77922374,229.901547 2.33712329,227.177876 -9.9475983e-14,224.370235 C0.613287671,223.481005 14.0757808,192.177094 14.2437443,191.762622 C18.4704566,181.319014 26.3105936,169.467279 23.1535434,158.519845 C18.8395342,143.556881 15.4824749,118.211673 26.8266393,105.150972 C37.1541826,93.2594044 45.0274703,93.6889477 49.0707489,93.1818928 C51.8874521,92.8287845 54.8776438,91.309773 55.5859635,88.6302409 C52.7217443,98.7379656 56.3053333,109.458247 65.4471872,115.270539 C67.7986758,116.765866 70.4275251,117.863947 73.1845571,118.4216 C69.1722192,121.459623 66.1422466,125.83795 65.2151324,130.707184 C64.2880183,135.577495 65.6029954,140.89888 69.0484566,144.537618 C71.9159909,147.567029 75.9935251,149.263671 80.1097352,150.235795 C80.586,150.350986 81.071105,150.456488 81.5573151,150.552301 C83.1540731,150.869883 84.7707215,151.100265 86.3973151,151.224068 C87.2106119,151.300503 88.0228037,151.338182 88.8361005,151.35756 C90.7113242,151.402775 92.5843379,151.324187 94.4485114,151.129332 C98.2950959,150.719166 102.231187,149.692138 105.540731,147.794181 C108.517662,150.264862 111.941023,152.18435 115.600858,153.512813 C121.701689,155.729428 128.454484,156.282775 134.80947,154.895102 C135.166393,154.817591 135.523315,154.73039 135.880237,154.632424 C139.855005,153.615085 143.700484,151.707439 146.066338,148.469177 C148.463132,145.19216 149.023379,140.950555 148.563689,136.913493 C148.512858,136.478567 148.453187,136.043641 148.382466,135.618404 C151.099717,135.71314 153.794868,134.048795 154.863425,131.613639 C155.892201,129.274297 155.364,126.377302 153.597068,124.513794 C154.191571,124.571928 154.797123,124.599918 155.401571,124.609607 C157.652502,124.635444 159.923324,124.401833 162.063753,123.742985 C162.232822,123.69454 162.39084,123.646095 162.559909,123.587962 C163.35221,123.316671 164.125726,122.987247 164.869406,122.609378 C166.435224,121.835339 167.901589,120.878286 169.328174,119.862023 L169.863005,119.485231 C170.487342,119.039539 171.101735,118.585235 171.706183,118.111553 C172.795735,117.289069 173.856557,116.437519 174.906329,115.557978 C178.505388,115.814196 182.075717,116.45905 185.527808,117.459164 C185.755443,117.526987 185.974237,117.59481 186.202977,117.661556 C187.045005,117.922081 187.879297,118.200907 188.712484,118.500188 C188.950064,118.586312 189.207534,118.69289 189.326877,118.914659 C189.456164,119.136429 189.397598,119.417408 189.327982,119.658555" id="Fill-51" fill="#7D56C9"></path>
                        <path d="M185.531123,117.459164 C185.758758,117.52591 185.977553,117.593733 186.205187,117.660479 C187.04832,117.921004 187.881507,118.19983 188.714694,118.499111 C188.953379,118.585235 189.210849,118.691814 189.330192,118.913583 C189.459479,119.135352 189.399808,119.416332 189.331297,119.657479 C188.747845,121.9473 186.307954,129.91915 184.973087,133.804418 L184.963142,133.804418 C184.606219,133.930374 184.259242,134.05633 183.912265,134.182287 C172.07747,138.51217 161.744402,146.627201 154.833589,156.931934 C153.950676,156.323684 152.998146,155.851078 151.947269,155.640075 C151.761626,149.322881 151.240055,143.005688 150.380347,136.72725 L148.5659,136.912417 C148.516174,136.477491 148.455397,136.042565 148.385781,135.618404 C151.103032,135.712064 153.798183,134.047718 154.86674,131.612563 C155.895516,129.27322 155.367315,126.376225 153.600384,124.513794 C154.194886,124.570851 154.800438,124.599918 155.404886,124.608531 C157.833726,124.634368 160.273616,124.362001 162.563224,123.586885 C165.219699,122.676124 167.597708,121.118357 169.86632,119.484154 C171.590155,118.235357 173.27421,116.930578 174.909644,115.556901 C178.508703,115.814196 182.079032,116.457973 185.531123,117.459164" id="Fill-52" fill="#6648B0"></path>
                        <path d="M174.909644,115.556901 C183.459205,108.467822 190.728046,99.9103282 196.280785,90.3903996 C192.939196,99.5033925 189.358922,108.538874 185.531123,117.459164 C182.079032,116.457973 178.508703,115.814196 174.909644,115.556901" id="Fill-53" fill="#EC923C"></path>
                        <path d="M179.737489,172.054227 C179.348521,179.464119 178.861205,186.960134 177.510868,194.236533 C176.485406,199.704329 174.936164,211.19865 172.571416,216.273505 C169.049708,223.869639 162.966557,224.989251 154.559543,226.523334 L154.471142,226.475966 C155.322009,224.958031 156.024804,223.352895 156.548584,221.730535 C158.643708,215.21741 158.49674,208.271511 158.063571,201.41389 C162.819589,198.06582 167.46621,194.57457 171.974703,190.92722 C172.974749,190.115501 174.034466,189.197204 174.300776,187.940871 C174.498575,186.974129 174.180329,185.989086 173.842192,185.052488 C172.529425,181.411597 170.899516,177.88805 169.002192,174.499072 C171.540429,173.86929 175.346128,173.004821 179.737489,172.054227" id="Fill-54" fill="#6648B0"></path>
                        <path d="M160.6659,100.650994 L160.723361,100.598243 C160.92337,100.412 161.127799,100.246212 161.341068,100.077193 L161.521187,99.9361654 C162.906886,98.8908357 164.597571,98.2621307 166.328037,98.3374892 C168.934785,98.4494503 171.469708,100.404465 171.749279,102.931127 C171.955918,104.700974 171.110575,106.414841 170.072959,107.886485 C168.401059,110.268889 166.154548,112.258353 163.562164,113.662174 C163.924612,112.347706 164.156667,111.003096 163.83621,109.686476 C163.637306,108.829542 163.211872,108.044737 162.727872,107.312684 C162.040548,106.250129 161.241616,105.273699 160.350968,104.376933 C159.799562,103.830046 159.158648,103.292847 158.388447,103.183039 L158.364137,103.169044 C159.037096,102.248594 159.809507,101.404579 160.6659,100.650994" id="Fill-55" fill="#181E34"></path>
                        <path d="M162.727872,107.312684 C163.211872,108.044737 163.637306,108.829542 163.83621,109.686476 C164.156667,111.003096 163.924612,112.347706 163.562164,113.662174 C163.373205,113.765522 163.194192,113.866718 163.003023,113.960378 C161.739982,114.590159 160.312292,115.089678 158.943169,114.780709 C157.283425,114.410376 156.09442,112.878445 155.760703,111.258238 C155.438037,109.64449 155.84137,107.953231 156.490018,106.433143 C156.982858,105.275852 157.611616,104.177771 158.364137,103.169044 L158.388447,103.183039 C159.158648,103.292847 159.799562,103.830046 160.350968,104.376933 C161.241616,105.273699 162.040548,106.250129 162.727872,107.312684" id="Fill-56" fill="#E57433"></path>
                        <path d="M123.828858,111.144124 C124.931671,113.191721 126.282009,115.102597 127.900868,116.811081 C132.496658,121.655555 139.62958,124.566545 146.191205,122.956027 L146.201151,122.936649 C148.582475,123.774205 151.080932,124.323245 153.600384,124.513794 C155.367315,126.376225 155.895516,129.27322 154.86674,131.612563 C153.798183,134.047718 151.103032,135.712064 148.385781,135.618404 C148.455397,136.042565 148.516174,136.477491 148.5659,136.912417 C149.026694,140.950555 148.465342,145.191084 146.069653,148.468101 C143.49495,151.997031 139.15442,153.942356 134.81168,154.894026 C124.64105,157.106335 113.473689,154.374052 105.542941,147.794181 C107.724256,146.564761 109.626,144.959625 111.051479,142.909875 C114.744466,137.612174 114.469315,130.667352 113.828402,124.292025 C112.905708,115.203793 111.508959,106.05635 112.619507,96.9842662 C113.2781,91.6510392 114.948895,86.2693674 117.788804,81.6875721 C118.389936,87.463261 118.654037,93.2787823 119.711543,98.9866486 C120.499425,103.187345 121.772411,107.389119 123.828858,111.144124" id="Fill-57" fill="#43ADF4"></path>
                        <path d="M146.201151,122.936649 L146.191205,122.956027 C139.62958,124.566545 132.496658,121.655555 127.900868,116.811081 C126.282009,115.102597 124.931671,113.191721 123.828858,111.144124 C124.329434,106.391157 124.920621,101.609124 126.580365,97.1156053 C126.956073,96.100419 127.391452,95.0766202 127.509689,94.0129892 L127.599196,94.0226781 C126.783689,101.539148 129.281041,109.34198 134.363041,115.065994 C137.531142,118.617532 141.658402,121.327207 146.201151,122.936649" id="Fill-58" fill="#EC923C"></path>
                        <path d="M98.785726,180.219857 L98.8155616,180.287679 C96.0198539,181.450353 93.3346484,182.882164 90.8074612,184.527132 C90.846137,182.961829 90.8538721,181.328703 90.1985936,179.890432 C89.5322648,178.451086 88.0040183,177.275493 86.4083653,177.509105 C84.9607854,177.712572 83.9408493,178.949528 83.0689863,180.090671 C81.1782922,182.54628 79.2964384,185.011579 77.4145845,187.467189 C78.2256712,185.273181 75.021105,183.335391 72.8110594,184.236463 C70.6109589,185.135382 69.5125662,187.52317 68.7512055,189.726867 C67.7821005,192.529125 67.03179,195.407819 66.4991689,198.316656 C65.5499543,181.335162 71.0054521,164.096372 81.5606301,150.551224 C83.9507945,151.032442 86.3906849,151.300503 88.8394155,151.356484 C93.073863,160.644954 96.4055068,170.330671 98.785726,180.219857" id="Fill-59" fill="#6648B0"></path>
                        <path d="M156.382831,201.99092 C146.690676,208.00668 136.72779,213.603662 126.518484,218.746339 C121.415489,221.31714 116.251717,223.775979 111.033799,226.118552 C105.899863,228.423444 100.728356,230.739103 95.3181644,232.367922 C89.9565936,233.982747 84.21379,234.923651 78.6356347,233.867556 C73.5845753,232.91158 69.0086758,230.382765 65.1543562,227.113283 C60.985105,223.576818 57.644621,219.244782 54.6058082,214.776024 C51.4332877,210.111335 48.4386758,205.323918 45.5037352,200.514971 C38.8371324,189.591221 32.6589498,178.387569 26.9725023,166.950305 C26.4155708,165.83177 24.7072055,166.812507 25.2608219,167.927813 C30.4676895,178.400488 36.0867306,188.677231 42.1157352,198.722516 C45.1169772,203.719859 48.2088311,208.668758 51.4178174,213.542298 C54.4466849,218.144548 57.6689315,222.694047 61.6525388,226.570702 C65.244968,230.064106 69.4860457,232.99878 74.2785297,234.696499 C79.4411963,236.524481 85.0060913,236.565389 90.3577169,235.57927 C95.9745479,234.544706 101.318438,232.443281 106.528621,230.207287 C111.924447,227.891629 117.260603,225.442478 122.537087,222.879214 C134.490119,217.072305 146.121589,210.649609 157.386192,203.658496 C158.459169,202.992112 157.463543,201.32023 156.382831,201.99092" id="Fill-60" fill="#53498C"></path>
                        <path d="M149.984749,155.74127 C132.272338,161.524495 115.266037,169.276729 99.3691781,178.83649 C98.2851507,179.487803 99.2818813,181.159684 100.371434,180.504066 C116.126849,171.030429 132.958557,163.335252 150.514055,157.603701 C151.71853,157.210761 151.199169,155.344024 149.984749,155.74127" id="Fill-61" fill="#53498C"></path>
                        <path d="M154.125269,160.231559 C151.095297,161.910976 148.139361,163.71635 145.266301,165.641221 C144.826502,165.936196 144.627598,166.489542 144.912694,166.963224 C145.167954,167.388461 145.826548,167.604848 146.269662,167.308796 C149.141616,165.383926 152.097553,163.578552 155.127525,161.899134 C156.236968,161.283348 155.236922,159.614696 154.125269,160.231559" id="Fill-62" fill="#53498C"></path>
                        <path d="M157.115461,165.799474 C154.668941,168.024702 152.046721,170.048615 149.259854,171.855066 C148.815635,172.143581 148.624466,172.70877 148.906247,173.175992 C149.164822,173.606612 149.81568,173.812233 150.263215,173.521565 C153.187105,171.626837 155.952977,169.498499 158.51884,167.163462 C159.454795,166.312988 158.0481,164.950076 157.115461,165.799474" id="Fill-63" fill="#53498C"></path>
                        <path d="M163.095845,172.653866 C160.853753,174.82419 158.361927,176.716764 155.652411,178.303598 C154.559543,178.944145 155.557379,180.613874 156.654667,179.971174 C159.502311,178.303598 162.14442,176.299063 164.499224,174.017854 C165.406447,173.140466 164.003068,171.775401 163.095845,172.653866" id="Fill-64" fill="#53498C"></path>
                        <path d="M168.866274,178.732065 C168.346913,178.466157 167.840813,178.644864 167.509306,179.079791 C167.315927,179.336009 167.185534,179.499645 166.938009,179.79139 C166.72253,180.045456 166.50042,180.295215 166.27168,180.540668 C165.804256,181.044494 165.310311,181.524635 164.79537,181.982168 C163.766594,182.892929 162.785333,183.601299 161.559863,184.321511 C161.116749,184.582036 160.91232,185.201052 161.206256,185.643514 C161.494667,186.077363 162.088064,186.267913 162.563224,185.98801 C165.169973,184.455003 167.412064,182.435396 169.223196,180.054068 C169.532603,179.647132 169.303863,178.957064 168.866274,178.732065" id="Fill-65" fill="#53498C"></path>
                        <path d="M173.752685,186.330353 C173.342721,185.933106 172.764795,185.998775 172.350411,186.332506 C170.203352,188.058215 168.056292,189.786077 165.908128,191.512863 C165.494849,191.845516 165.556731,192.535585 165.910338,192.879004 C166.319196,193.277327 166.898228,193.210581 167.312612,192.877928 C169.459671,191.150065 171.606731,189.42328 173.75379,187.696494 C174.167068,187.364917 174.106292,186.673772 173.752685,186.330353" id="Fill-66" fill="#53498C"></path>
                        <path d="M44.7081187,116.061803 C44.6639178,115.300682 44.1556073,114.694585 43.6594521,114.147698 C43.0925753,113.522222 42.4792877,112.936579 41.8317443,112.391845 C40.5333425,111.299147 39.1045479,110.367932 37.5729863,109.618653 C36.4348128,109.062077 35.4314521,110.729652 36.5729406,111.287305 C37.7221644,111.849264 38.8260822,112.503806 39.8371781,113.279999 C40.3742192,113.692317 40.8869498,114.139085 41.3753699,114.607384 C41.7742831,114.990636 42.3732055,115.454629 42.6174155,115.954148 C42.736758,116.198525 42.7721187,116.197448 42.496968,116.36216 C42.252758,116.506418 41.9179361,116.566705 41.6394703,116.601154 C41.0482831,116.675436 40.4272603,116.601154 39.8404932,116.525796 C38.5487215,116.358931 37.3221461,116.169458 36.0259543,116.408452 C35.3275799,116.536561 35.0270137,117.578661 35.5894703,118.023276 C37.02821,119.161189 38.3630776,120.41537 39.5631324,121.792277 C39.880274,122.155074 40.1874703,122.52433 40.4825114,122.904353 C40.5985388,123.055069 40.703516,123.230547 40.8294886,123.375881 C40.1841553,123.251001 39.5719726,123.089519 38.9299543,122.863444 C35.3198447,121.587732 31.9373699,119.750062 28.8753516,117.495767 C27.8565205,116.747565 26.8697352,118.424829 27.8753059,119.165496 C29.8201461,120.59623 31.8876438,121.85687 34.0689589,122.917271 C35.1143105,123.424326 36.1828676,123.884013 37.268,124.30602 C38.2536804,124.689272 39.3089772,125.152188 40.3631689,125.3169 C41.2405571,125.452546 42.2417078,125.312594 42.7411781,124.508412 C43.3854064,123.468465 42.590895,122.427441 41.9532968,121.620029 C41.0217626,120.441207 39.9974064,119.345279 38.9023288,118.319327 C39.736621,118.436671 40.5709132,118.590618 41.4052055,118.549709 C42.8682557,118.478657 44.8086758,117.789665 44.7081187,116.061803" id="Fill-67" fill="#53498C"></path>
                        <path d="M136.488,235.39518 C129.410329,235.948527 122.355863,236.731178 115.330128,237.733446 C114.653854,237.830335 114.484785,238.661432 114.738941,239.153415 C115.378749,240.387141 116.87716,240.642283 118.122521,240.976013 C119.788895,241.421705 121.46411,241.836177 123.145954,242.221581 C124.827799,242.604833 126.517379,242.957941 128.213589,243.280906 C129.308667,243.489757 130.45126,243.628632 131.499927,243.996812 C128.769416,245.344652 125.13389,245.686995 123.508402,248.39667 C122.397854,250.249412 124.915096,251.260292 126.329525,251.661845 C128.494265,252.278708 130.794922,252.191508 133.021543,252.0817 C134.29232,252.018183 134.29674,250.086853 133.019333,250.149293 C131.253507,250.235417 129.434639,250.343072 127.688703,249.998576 C127.003589,249.864007 125.916247,249.671305 125.36042,249.200853 L125.397991,249.152408 C125.521753,249.015686 125.653251,248.885424 125.790274,248.761621 C126.036694,248.539851 126.3019,248.350379 126.58368,248.173824 C128.982685,246.67742 131.88779,246.324312 134.176292,244.597527 C134.736539,244.173366 134.417187,243.405786 133.972968,243.080668 C132.831479,242.23773 131.464566,241.922301 130.082183,241.666082 C128.458904,241.366801 126.838941,241.053525 125.225607,240.703646 C123.66863,240.36561 122.118283,240.001736 120.573461,239.613102 C120.02537,239.474227 119.479489,239.327816 118.932502,239.183558 C124.767023,238.409519 130.620329,237.786197 136.49021,237.327587 C137.753251,237.228544 137.762091,235.295061 136.488,235.39518" id="Fill-68" fill="#53498C"></path>
                        <path d="M163.411881,68.4223271 C163.239498,67.9292674 162.728977,67.6052259 162.191936,67.7494836 C161.696886,67.8818992 161.326703,68.441705 161.500192,68.9379944 C162.314594,71.2762603 162.8439,73.6898846 163.09474,76.1433413 C160.791872,75.7934627 158.49011,75.4414309 156.187242,75.0915523 C155.659041,75.0108111 155.122,75.2239679 154.968402,75.7676255 C154.840219,76.2262356 155.13084,76.8743185 155.662356,76.9550597 C158.420493,77.3749141 161.179735,77.7947685 163.937872,78.2156994 C164.527954,78.305053 165.236274,77.9702461 165.192073,77.2823308 C164.997589,74.2669152 164.408612,71.2848727 163.411881,68.4223271" id="Fill-70" fill="#0E1125"></path>
                        <path d="M190.344603,87.8971105 C189.659489,87.3717543 189.00642,86.8097954 188.389817,86.2112338 C188.087041,85.9173357 187.793105,85.6148252 187.508009,85.3037024 L187.29253,85.0614787 L187.390877,85.0022685 C187.703598,84.8138723 188.01632,84.6254761 188.327936,84.4370799 C188.76884,84.1711721 188.977689,83.5607685 188.682648,83.1150769 C188.396447,82.6844571 187.79642,82.4852954 187.32568,82.770581 C186.998594,82.9675896 186.672612,83.1635217 186.345525,83.3605302 C186.000758,83.5693809 185.601845,83.7599302 185.305699,84.0312207 C184.869215,84.4327737 184.822804,85.0819332 185.153205,85.5545385 C185.37863,85.8775034 185.661516,86.1757076 185.924511,86.4706822 C186.838365,87.4923279 187.850566,88.4256964 188.943434,89.2643286 C189.350082,89.576528 189.95453,89.6788002 190.345708,89.2632521 C190.672795,88.91445 190.778877,88.2308409 190.344603,87.8971105" id="Fill-71" fill="#0E1125"></path>
                        <path d="M197.175854,89.1738984 C194.495068,86.4749884 192.244137,83.4175874 190.497096,80.0695179 C189.630758,78.4105549 188.899233,76.6923816 188.305836,74.9236105 C187.756639,73.287255 187.166557,71.3623842 188.341196,69.8605975 C189.113607,68.8723249 187.390877,67.910966 186.627306,68.8873966 C185.429461,70.4193267 185.551014,72.4174029 186.014018,74.1937099 C186.544429,76.2326949 187.395297,78.2264649 188.320201,80.1233454 C190.19432,83.9687808 192.738082,87.4837155 195.774685,90.5411165 C196.663123,91.4368058 198.063187,90.0685112 197.175854,89.1738984" id="Fill-72" fill="#EC923C"></path>
                        <path d="M169.472932,60.0736845 C166.261735,58.9110108 162.903571,58.2640045 159.47579,58.2586217 C157.871297,58.2553921 156.371781,59.0972539 156.160721,60.7831307 C155.983918,62.1923342 157.136457,64.0084735 158.752,64.0117031 C161.684731,64.0181624 164.505854,64.4584712 167.256256,65.4532031 C170.83432,66.7482924 173.076411,61.3763096 169.472932,60.0736845" id="Fill-73" fill="#0E1125"></path>
                        <path d="M180.452438,92.4304612 C180.330886,92.4304612 180.210438,92.4229253 180.089991,92.4089302 C176.970511,92.0278316 175.651114,89.3881318 172.501799,88.849857 C169.41989,88.3234242 165.620822,89.1006931 163.60305,86.6278585 C163.235078,86.1757076 162.894731,85.7881497 162.61295,85.2100426 C162.199671,83.5898353 162.516813,82.1235747 164.595361,81.2515695 C166.189909,80.5830321 167.944685,80.3052823 169.720457,80.3052823 C172.773635,80.3052823 175.892009,81.1266897 178.377205,82.1967801 C181.821562,83.6791889 186.503543,87.5601505 183.344283,91.104152 C182.689005,91.8394354 181.561881,92.4304612 180.452438,92.4304612" id="Fill-74" fill="#E18C53"></path>
                        <path d="M149.868721,65.0473439 C150.03558,64.4477058 149.059845,64.2722282 148.894091,64.8707898 C148.403461,66.6363312 147.833269,69.1812946 145.725991,69.7583252 C144.921534,69.9790179 143.959059,69.80677 143.460694,69.103783 C142.947963,68.3824948 143.03747,67.3888394 143.278365,66.588963 C143.897178,64.5381359 145.667425,63.543404 147.261973,62.2752285 C148.588,61.2212864 149.765954,59.7625616 149.56484,57.9991733 C149.494119,57.3833869 148.504018,57.4533626 148.575845,58.0734552 C148.786904,59.9186613 147.137105,61.1836072 145.782347,62.1654205 C144.300511,63.2408936 142.985534,64.3809597 142.389927,66.1454246 C141.946813,67.454509 141.921397,69.1296202 143.066201,70.1211225 C144.190009,71.0943234 145.922685,70.9672905 147.100639,70.1684907 C148.831105,68.993975 149.349361,66.9151576 149.868721,65.0473439" id="Fill-75" fill="#FFFFFE"></path>
                        <path d="M135.832721,78.9359111 C135.317781,79.8477487 134.737644,80.9221453 133.669087,81.2989376 C132.688932,81.6445101 131.730877,81.1815937 131.63695,80.1287282 C131.544128,79.1038529 132.317644,78.3201247 133.179562,77.8593615 C133.964128,77.4384305 135.102301,77.3619955 135.51779,76.4759951 C135.857032,75.7536303 135.444858,75.0657151 135.188493,74.3928715 C134.78295,73.330317 135.483534,72.5121393 136.388548,71.9738645 C137.92011,71.0620269 140.343425,70.2621505 140.007498,68.0444582 C139.914676,67.432978 138.924575,67.5018771 139.018502,68.1187401 C139.323489,70.131888 136.26147,70.6723159 135.092356,71.7122629 C134.518849,72.2225474 134.062475,72.9309171 134.0459,73.708186 C134.039269,74.0828252 134.140932,74.4370101 134.281269,74.7836591 C134.408347,75.0990881 134.656977,75.4758805 134.656977,75.8214529 C134.658082,76.3123596 134.133196,76.4415456 133.736493,76.5804205 C133.323215,76.722525 132.920986,76.8893902 132.541963,77.1036236 C131.813753,77.5170187 131.149635,78.1360347 130.842438,78.9143801 C130.324183,80.2288473 130.847963,81.9405612 132.364055,82.3152005 C134.472438,82.8384037 135.857032,80.8963081 136.724475,79.3579186 C137.031671,78.8121079 136.138813,78.391177 135.832721,78.9359111" id="Fill-76" fill="#FFFFFE"></path>
                        <path d="M145.665215,75.8376012 C145.467416,75.6685829 145.138119,75.6815015 144.965735,75.8817397 C144.803297,76.0701359 144.640858,76.2585321 144.466265,76.4361628 C144.285041,76.6202528 144.185589,76.7139126 143.982265,76.8549406 C143.773416,76.9991983 143.656283,77.0637913 143.414283,77.1326904 L143.355717,77.1477621 L143.354612,77.1477621 L143.206539,77.1649869 L143.079461,77.16714 L142.994374,77.1563745 L142.868402,77.133767 L142.767845,77.1057767 L142.675023,77.0680975 L142.54684,77.0024279 L142.507059,76.9733611 L142.416447,76.8969261 L142.406502,76.8883137 L142.383297,76.8603234 L142.320311,76.7623574 L142.296,76.6977644 L142.28495,76.6600851 L142.28274,76.6450134 C142.28053,76.5298226 142.28053,76.4889137 142.31147,76.3500388 C142.324731,76.2908286 142.364511,76.1971688 142.412027,76.0927435 C142.472804,75.962481 142.541315,75.8365246 142.607616,75.7084152 C142.923653,75.106624 143.239689,74.5037562 143.555726,73.9019649 C143.677279,73.6694302 143.563461,73.3690728 143.325881,73.2571117 C143.080566,73.1397677 142.785525,73.2463462 142.663973,73.4799574 C142.337991,74.1011266 142.010904,74.7233723 141.684922,75.3445414 C141.406457,75.8785101 141.135726,76.4910668 141.386566,77.0874754 C141.600941,77.599913 142.072785,77.9164186 142.605406,78.0628293 C143.166758,78.216776 143.73916,78.0972789 144.24305,77.8335243 C144.833132,77.5245545 145.286192,77.0121169 145.710521,76.5190571 C145.881799,76.3198954 145.869644,76.0130788 145.665215,75.8376012" id="Fill-77" fill="#FFFFFE"></path>
                        <path d="M165.705909,127.898466 C165.282685,125.409484 164.859461,122.921577 164.436237,120.433671 C164.30916,119.684392 163.314639,119.199945 162.60632,119.423867 C161.773132,119.687622 161.432785,120.403528 161.569808,121.20771 C161.991927,123.695617 162.415151,126.183523 162.838374,128.671429 C162.965452,129.421784 163.961078,129.906232 164.668292,129.682309 C165.501479,129.418555 165.841826,128.701572 165.705909,127.898466" id="Fill-78" fill="#FFFFFE"></path>
                        <path d="M179.55295,127.017849 C177.988237,124.694655 176.42463,122.372537 174.861023,120.049343 C174.435589,119.417408 173.523945,119.09229 172.826676,119.532599 C172.178027,119.940611 171.838785,120.837377 172.29516,121.515603 C173.857662,123.837721 175.421269,126.159839 176.984877,128.483033 C177.411416,129.116044 178.323059,129.440086 179.021434,129.000853 C179.668977,128.592841 180.009324,127.696075 179.55295,127.017849" id="Fill-79" fill="#FFFFFE"></path>
                        <path d="M182.634858,112.174382 C179.930868,111.305606 177.227982,110.436831 174.523991,109.568055 C173.784731,109.330138 172.867562,109.844729 172.696283,110.582165 C172.509534,111.379888 172.944913,112.108712 173.73611,112.362778 C176.4401,113.231554 179.142986,114.100329 181.846977,114.969105 C182.586237,115.207022 183.504511,114.691355 183.674685,113.954995 C183.861434,113.157272 183.426055,112.428448 182.634858,112.174382" id="Fill-80" fill="#FFFFFE"></path>
                        <path d="M187.449443,18.7223353 C183.526612,24.0986243 178.477763,28.6685777 172.720594,32.133991 C166.712584,35.7511979 160.085763,38.0011867 153.124119,39.0745067 C145.511616,40.2490224 137.584183,40.3771318 130.313132,43.1029556 C124.570329,45.2560549 119.06179,48.9992181 116.597589,54.6844768 C114.095817,60.4526299 115.355543,66.8419522 114.354393,72.8706303 C113.879233,75.7299462 112.800731,78.4719182 110.608365,80.5022909 C108.599434,82.3614922 105.986055,83.4606494 103.441187,84.4349268 C98.4641644,86.3404197 92.7025753,88.1554824 90.74779,93.5629914 C89.6074064,96.719435 90.1820183,100.187001 91.1345479,103.313302 C92.200895,106.812088 93.8197534,110.118172 94.9722922,113.587892 C97.2950502,120.575776 98.0785114,128.411981 94.6551507,135.197473 C93.1545297,138.173056 90.8881279,140.827828 87.9244566,142.504016 C85.1475342,144.073625 81.8324658,144.812138 78.6356347,144.423504 C77.0311416,144.227572 75.4863196,143.7259 74.0829406,142.945401 C73.4641279,142.600905 72.9071963,143.531044 73.5249041,143.874463 C79.2500274,147.057821 86.6658356,145.577565 91.380968,141.334883 C96.6209863,136.620672 98.5370959,129.346426 98.00779,122.598612 C97.6994886,118.670283 96.6673973,114.829153 95.2695434,111.143047 C93.9733516,107.729308 92.3898539,104.393081 91.6174429,100.813553 C90.9058082,97.5139287 91.0693516,93.9645444 93.3059178,91.2279552 C94.9888676,89.1685157 97.4663288,87.9315601 99.9128493,86.9357517 C104.958384,84.8816949 110.791799,83.4165108 113.650493,78.4159376 C116.736822,73.0127349 115.559973,66.3844186 116.252822,60.486003 C116.619689,57.364009 117.595425,54.4078036 119.512639,51.8531512 C121.405543,49.3297188 124.005662,47.3607095 126.800265,45.8621524 C133.479023,42.2804716 141.153406,41.6366949 148.58137,40.7560773 C152.461105,40.295314 156.34084,39.7559627 160.108968,38.7203219 C163.35,37.8289388 166.50042,36.6178204 169.502767,35.1311053 C175.524037,32.1479862 180.968484,28.0161886 185.38084,23.0296105 C186.449397,21.8227984 187.454968,20.5643118 188.403078,19.2659929 C188.815251,18.6997278 187.858301,18.1614529 187.449443,18.7223353" id="Fill-81" fill="#252D55"></path>
                        <path d="M179.525324,12.6430594 C177.073279,17.6791587 172.253169,21.0972039 166.97558,22.9714768 C160.541032,25.2569918 153.581598,25.1816333 146.838749,24.7477838 C139.88705,24.2999391 132.902201,23.4559242 125.940557,24.2342696 C119.810995,24.9200317 113.97095,26.9428686 109.276813,30.9271789 C105.108667,34.4657976 102.022338,39.253214 100.641059,44.4744798 C99.8354977,47.5168092 99.8520731,50.6764824 99.1990046,53.7435724 C98.590137,56.6018118 97.1823379,59.0154361 94.9689772,60.9790627 C90.846137,64.638255 85.3497534,66.4403992 80.6688767,69.2835668 C75.7250046,72.2871404 71.2474521,76.1024324 67.8826575,80.7585097 C64.6239452,85.2681763 62.5763379,90.5292745 62.3166575,96.0595101 C62.0702374,101.318455 63.3973699,106.776562 66.5599452,111.097832 C67.3213059,112.137779 68.1776986,113.105597 69.1235982,113.991598 C69.6374338,114.470662 70.41979,113.710618 69.9048493,113.230477 C65.9322922,109.514228 63.8139635,104.324182 63.451516,99.016792 C63.0758082,93.511317 64.5565388,88.1145736 67.4450685,83.3917502 C70.4429954,78.489143 74.7658447,74.4316273 79.5947945,71.2461169 C81.9263927,69.708804 84.3928037,68.4190975 86.8934703,67.1670702 C89.3488311,65.9376505 91.8285023,64.702848 94.0495982,63.0934063 C96.0983105,61.6088443 97.9304384,59.8002409 99.0641918,57.5448693 C100.508457,54.6704817 100.648795,51.447292 101.036658,48.3263745 C101.725087,42.7972155 104.149507,37.6362364 108.063498,33.5647255 C112.262584,29.1950105 117.767808,26.6231333 123.785763,25.6122532 C130.518667,24.4807995 137.390804,25.132112 144.151333,25.6348607 C150.975954,26.1429922 158.018265,26.5488514 164.703653,24.7983816 C169.950301,23.4247043 175.036721,20.7247177 178.401516,16.483112 C179.214813,15.4582367 179.908767,14.358003 180.478959,13.186717 C180.781735,12.5644712 179.829205,12.017584 179.525324,12.6430594" id="Fill-82" fill="#252D55"></path>
                        <path d="M215.988868,39.1713962 C213.940155,33.6756102 209.895772,29.1799388 205.116548,25.7414391 C202.384932,23.7756594 199.409105,22.1543757 196.321671,20.7828514 C195.679653,20.4975657 195.117196,21.424475 195.763635,21.7119137 C200.929616,24.0071176 205.838128,27.0300691 209.673662,31.1532543 C213.541242,35.3119656 216.100475,40.6075134 216.324795,46.2637054 C216.450767,49.4427565 215.813169,52.6164249 214.289342,55.4412913 C213.958941,56.053848 214.912575,56.5985822 215.242977,55.9838723 C218.03979,50.8035153 218.013269,44.6025892 215.988868,39.1713962" id="Fill-85" fill="#252D55"></path>
                        <path d="M197.879753,50.2986135 C192.619845,42.8467367 190.46505,33.4710657 192.037498,24.5486221 C192.15684,23.8714724 191.092703,23.5797274 190.972256,24.2622599 C189.350082,33.465683 191.490511,43.1417114 196.926119,50.8422711 C197.326137,51.4096128 198.284192,50.8724145 197.879753,50.2986135" id="Fill-86" fill="#252D55"></path>
                        <path d="M180.583936,9.91508252 C173.788046,5.48508066 166.171123,2.03796863 158.079041,0.647066467 C150.687543,-0.622185587 143.042995,-0.0774514567 136.085772,2.75495071 C129.553982,5.41510493 123.870849,9.97536931 120.544731,16.1256975 C116.744557,23.1523372 116.036237,31.1930866 114.682584,38.8925698 C113.438329,45.9751901 111.487963,53.5164205 106.223635,58.8464178 C101.559333,63.5692412 95.0319635,65.5500926 88.6095708,66.804273 C81.9783288,68.0982857 75.1514977,68.7151486 68.7401553,70.913463 C65.6494064,71.9738645 62.6912603,73.4089052 60.1154521,75.3951393 C57.3970959,77.492258 55.1527945,80.1728667 53.5151507,83.1462969 C50.2597534,89.0587076 49.369105,96.1628588 51.5349498,102.574789 C53.6543836,108.84569 58.3860913,114.257506 64.4062557,117.291223 C65.8637808,118.025429 67.3953425,118.616455 68.97221,119.058917 C69.6562192,119.250543 69.9490502,118.212749 69.2650411,118.021123 C62.7951324,116.207137 57.3142192,111.680246 54.1803744,105.899174 C50.9426575,99.9253999 50.6498265,92.925674 53.093032,86.6300116 C54.305242,83.5058645 56.1749406,80.6099459 58.562895,78.2135463 C60.886758,75.8806632 63.692411,74.1183514 66.743379,72.8232621 C72.7878539,70.2556912 79.4588767,69.4956471 85.8956347,68.3900306 C92.105863,67.3220934 98.5525662,65.9537987 103.772694,62.3139843 C109.666886,58.2047942 112.76758,51.7562618 114.496941,45.074118 C116.389845,37.7611161 116.732402,30.1412976 118.947973,22.8982715 C120.039735,19.3295093 121.616603,15.8877801 123.949306,12.9175795 C126.054374,10.2358943 128.705324,7.97298693 131.640265,6.18806759 C137.694685,2.50519119 144.879543,0.821467513 151.98705,1.08199253 C160.086868,1.37696714 167.94358,4.01451382 174.98368,7.83195892 C176.707516,8.76640403 178.386046,9.77620762 180.0259,10.8452214 C180.618192,11.2306262 181.171808,10.2994108 180.583936,9.91508252" id="Fill-87" fill="#252D55"></path>
                        <path d="M124.263132,73.8589029 C124.781388,73.3819914 123.999032,72.6219473 123.481881,73.0977823 C118.81758,77.3985982 115.515772,83.0149578 113.926749,89.0694731 C112.27695,95.3575997 112.653763,101.755534 114.612968,107.929547 C116.681571,114.449131 120.030895,120.616684 121.243105,127.382799 C121.821032,130.609218 121.808877,133.955135 120.870712,137.116961 C119.966804,140.159291 118.260648,142.966932 115.987616,145.227686 C110.497863,150.689023 101.941671,152.27478 94.7015616,149.411158 C94.042968,149.150633 93.7567671,150.191657 94.4076256,150.448952 C100.825598,152.987456 108.507717,152.181121 114.130073,148.20004 C119.376721,144.48702 122.572447,138.530471 122.735991,132.220813 C122.915005,125.265226 119.824256,118.745641 117.366685,112.37462 C116.120219,109.141742 114.96105,105.848576 114.369863,102.433761 C113.820667,99.2643984 113.807406,95.9906109 114.282566,92.8115597 C115.352228,85.6352797 118.847416,78.8519403 124.263132,73.8589029" id="Fill-88" fill="#252D55"></path>
                        <path d="M147.392365,125.633406 C146.868584,125.166183 146.085123,125.925151 146.610009,126.395603 C147.923881,127.570119 147.734922,129.587573 146.812228,130.944025 C145.711626,132.561003 143.783361,133.450233 142.055105,134.279176 C141.705918,134.447118 141.736858,134.875585 141.942393,135.124268 C143.75021,137.308587 144.162384,140.536083 142.858457,143.056286 C141.586575,145.518355 138.891425,147.109495 136.075826,147.140715 C135.365297,147.148251 135.363087,148.224801 136.075826,148.217265 C139.323489,148.180662 142.508164,146.313925 143.902703,143.421236 C145.227626,140.673881 144.867388,137.430237 143.144658,134.950943 C145.043087,134.026187 147.063068,132.917341 148.042119,131.019384 C148.933872,129.291522 148.932767,127.012466 147.392365,125.633406" id="Fill-89" fill="#2B84A3"></path>
                        <path d="M137.147699,124.61822 C136.502365,124.344776 135.938804,125.271685 136.590767,125.547282 C138.243881,126.248116 138.719041,128.152532 138.347753,129.754438 C137.878119,131.782658 136.055936,133.202627 134.393982,134.33731 C132.649151,135.52905 130.770612,136.614212 129.408119,138.245185 C128.795936,138.977239 128.297571,139.79434 128.02021,140.702948 C127.677653,141.82256 127.714119,143.005688 127.768265,144.159749 C127.829041,145.484982 127.938438,146.940477 127.282055,148.155901 C126.741699,149.159246 125.564849,149.841778 124.423361,149.401469 C123.762557,149.146327 123.475251,150.187351 124.13053,150.439263 C126.361571,151.300503 128.330721,149.281972 128.745105,147.302198 C129.285461,144.729244 128.199224,142.00665 129.72526,139.642547 C132.211562,135.788499 138.561023,134.730251 139.463826,129.79427 C139.825169,127.818802 139.178731,125.477306 137.147699,124.61822" id="Fill-90" fill="#2B84A3"></path>
                        <path d="M123.354804,145.178165 C123.148164,144.97685 122.779087,144.966085 122.573553,145.178165 C121.571297,146.213806 120.449699,147.00184 119.109306,147.610091 C118.83968,147.732817 118.771169,148.111763 118.911507,148.346451 C119.073945,148.616665 119.395507,148.662956 119.667342,148.539153 C121.049726,147.911525 122.308347,147.021218 123.354804,145.939286 C123.559233,145.728282 123.570283,145.388092 123.354804,145.178165" id="Fill-91" fill="#2B84A3"></path>
                        <path d="M121.003315,144.436422 C120.781205,144.237261 120.440858,144.224342 120.222064,144.436422 C119.423132,145.206155 118.624201,145.974812 117.825269,146.745621 C117.61863,146.943706 117.60537,147.31081 117.825269,147.506742 C118.046274,147.704827 118.386621,147.718822 118.606521,147.506742 C119.405452,146.737009 120.204384,145.967276 121.003315,145.197543 C121.208849,144.998381 121.22211,144.631278 121.003315,144.436422" id="Fill-92" fill="#2B84A3"></path>
                        <path d="M154.061178,239.516212 C153.516402,237.967057 152.972731,236.417902 152.429059,234.869824 C152.331817,234.594227 152.048932,234.413367 151.748365,234.493031 C151.47432,234.566237 151.26547,234.879513 151.362712,235.155109 L152.995936,239.802574 C153.092073,240.078171 153.374959,240.259031 153.675525,240.17829 C153.949571,240.105085 154.15842,239.792885 154.061178,239.516212" id="Fill-93" fill="#2B84A3"></path>
                        <path d="M158.4879,238.073636 C157.850301,236.71503 157.213808,235.356424 156.577315,233.996742 C156.453553,233.732987 156.060164,233.668394 155.821479,233.80404 C155.541909,233.963369 155.498813,234.275568 155.62368,234.5404 C156.260174,235.900082 156.896667,237.257611 157.53316,238.616217 C157.656922,238.881048 158.050311,238.946717 158.288995,238.809996 C158.567461,238.650666 158.611662,238.338467 158.4879,238.073636" id="Fill-94" fill="#2B84A3"></path>
                        <path d="M163.84726,235.173411 C163.250548,233.818035 162.653836,232.463735 162.056018,231.110512 C161.938886,230.843528 161.535553,230.783241 161.300183,230.916733 C161.017297,231.078216 160.984146,231.385032 161.102384,231.653093 C161.699096,233.007393 162.295808,234.361692 162.892521,235.717068 C163.010758,235.984053 163.414091,236.043263 163.648356,235.909771 C163.932347,235.748288 163.965498,235.441472 163.84726,235.173411" id="Fill-95" fill="#2B84A3"></path>
                        <path d="M163.989808,242.14084 C163.403041,241.07075 162.816274,240.001736 162.230612,238.931646 C162.094694,238.684039 161.718986,238.586073 161.474776,238.738943 C161.215096,238.902579 161.131114,239.209395 161.275872,239.475303 C161.862639,240.545394 162.448301,241.614407 163.035068,242.684498 C163.170986,242.933181 163.546694,243.031147 163.790904,242.8772 C164.050584,242.714641 164.134566,242.407824 163.989808,242.14084" id="Fill-97" fill="#2B84A3"></path>
                        <path d="M186.190822,236.040033 L184.116694,233.129043 C183.952046,232.897585 183.626064,232.769475 183.360858,232.935264 C183.125489,233.083828 182.986256,233.425094 183.163059,233.671624 L185.237187,236.583691 C185.400731,236.812996 185.728922,236.942182 185.993023,236.776393 C186.228393,236.628906 186.366521,236.286563 186.190822,236.040033" id="Fill-106" fill="#2B84A3"></path>
                        <path d="M181.948639,237.528901 C181.392813,236.371611 180.836986,235.215396 180.28116,234.058105 C180.154082,233.795427 179.765114,233.727605 179.525324,233.865403 C179.247963,234.023656 179.199342,234.338008 179.32642,234.601763 C179.882247,235.759054 180.438073,236.915268 180.9939,238.071482 C181.120977,238.335237 181.509945,238.40306 181.749735,238.265261 C182.027096,238.108085 182.075717,237.793733 181.948639,237.528901" id="Fill-107" fill="#2B84A3"></path>
                        <path d="M180.358511,229.958604 C179.761799,228.990786 179.166192,228.022968 178.569479,227.05515 C178.421406,226.814003 178.066694,226.704195 177.814749,226.862447 C177.565014,227.019624 177.456721,227.340435 177.615845,227.598807 C178.211452,228.566625 178.808164,229.534444 179.403772,230.502262 C179.55295,230.743409 179.906557,230.853217 180.159607,230.694964 C180.408237,230.537788 180.517635,230.216976 180.358511,229.958604" id="Fill-108" fill="#2B84A3"></path>
                        <path d="M124.347114,115.392189 C124.097379,115.263003 123.729406,115.315754 123.591279,115.584891 C123.149269,116.450437 122.70726,117.314907 122.264146,118.180453 C122.135963,118.432365 122.186795,118.774708 122.461945,118.916813 C122.712785,119.044922 123.080758,118.993248 123.218886,118.72411 C123.660895,117.858564 124.102904,116.994095 124.546018,116.128549 C124.674201,115.876636 124.62337,115.534294 124.347114,115.392189" id="Fill-109" fill="#2B84A3"></path>
                        <path d="M128.0401,118.003898 C127.972694,117.891937 127.842301,117.785359 127.709699,117.756292 C127.442283,117.696005 127.082046,117.83488 127.03011,118.132008 C126.963808,118.516336 126.863251,118.893128 126.727333,119.259155 L126.620146,119.528293 L126.607991,119.553053 L126.539479,119.696235 C126.453288,119.874942 126.356046,120.048266 126.253279,120.219438 C126.105205,120.461661 126.189187,120.820152 126.451078,120.955798 C126.717388,121.092519 127.05,121.021467 127.206913,120.763095 C127.644502,120.04396 127.952804,119.243007 128.096457,118.41837 C128.121872,118.271959 128.120767,118.136314 128.0401,118.003898" id="Fill-110" fill="#2B84A3"></path>
                        <path d="M125.157096,119.658555 C124.899626,119.52614 124.549333,119.587503 124.40126,119.851258 C123.968091,120.62422 123.536027,121.397183 123.102858,122.170146 C122.963626,122.416676 123.031032,122.767631 123.300658,122.906506 C123.559233,123.038921 123.90842,122.977558 124.056493,122.712727 C124.489662,121.940841 124.922831,121.167878 125.356,120.394915 C125.494128,120.148385 125.426721,119.79743 125.157096,119.658555" id="Fill-111" fill="#2B84A3"></path>
                        <path d="M118.006493,126.431129 C117.757863,126.30302 117.386575,126.354694 117.250658,126.623832 C116.87937,127.362345 116.508082,128.100858 116.136795,128.840447 C116.010822,129.09236 116.058338,129.433626 116.335699,129.576807 C116.584329,129.70384 116.955616,129.653242 117.091534,129.383028 C117.462822,128.644515 117.833005,127.906002 118.204292,127.167489 C118.33137,126.9145 118.283854,126.57431 118.006493,126.431129" id="Fill-112" fill="#2B84A3"></path>
                        <path d="M120.082831,129.150494 C119.755744,129.164489 119.571205,129.385181 119.53253,129.683386 L119.53253,129.678003 L119.531425,129.683386 L119.53032,129.688768 L119.52811,129.705993 L119.519269,129.76628 L119.487224,129.941758 C119.464018,130.059102 119.436393,130.175369 119.404347,130.29056 C119.345781,130.50587 119.270639,130.715797 119.186658,130.923571 L119.151297,131.000006 L119.07284,131.161488 L118.921452,131.437085 C118.7999,131.643783 118.662877,131.840791 118.513699,132.030264 C118.338,132.254186 118.470603,132.642821 118.712603,132.766624 C119.004329,132.917341 119.280584,132.812916 119.468438,132.573922 C120.128137,131.734213 120.506055,130.733022 120.635342,129.688768 C120.669598,129.407789 120.356877,129.138652 120.082831,129.150494" id="Fill-113" fill="#2B84A3"></path>
                        <path d="M117.604265,132.913035 C117.351215,132.782772 116.988767,132.838753 116.848429,133.105737 C116.252822,134.235038 115.657215,135.364338 115.061607,136.493639 C114.93011,136.743398 114.986466,137.088971 115.259406,137.229999 C115.512457,137.360261 115.874904,137.304281 116.015242,137.037296 C116.611954,135.906919 117.206457,134.778695 117.802064,133.649395 C117.934667,133.398559 117.878311,133.054063 117.604265,132.913035" id="Fill-114" fill="#2B84A3"></path>
                        <path d="M140.544539,137.34196 C140.406411,137.094354 140.034018,136.995311 139.788703,137.149258 C139.530128,137.31074 139.442831,137.620786 139.589799,137.885618 L139.660521,138.01911 L139.664941,138.029875 L139.679306,138.062172 L139.757763,138.313008 L139.789808,138.459419 L139.797543,138.503557 L139.810804,138.781307 L139.792018,139.06121 L139.794228,139.028913 L139.779863,139.103195 L139.748922,139.230228 L139.711352,139.356184 L139.659416,139.497212 L139.670466,139.471375 L139.63842,139.539198 L139.565489,139.671614 C139.421836,139.91599 139.498082,140.271252 139.763288,140.407973 C140.025178,140.542542 140.36663,140.475796 140.519123,140.214195 C141.035169,139.333577 141.039589,138.232267 140.544539,137.34196" id="Fill-115" fill="#2B84A3"></path>
                        <path d="M138.785342,142.091697 L138.785342,142.091697" id="Fill-116" fill="#2B84A3"></path>
                        <path d="M139.492557,141.650312 C139.176521,141.580336 138.924575,141.743972 138.812968,142.026028 L138.776502,142.117534 L138.785342,142.091697 L138.779817,142.107845 L138.700256,142.268251 C138.6439,142.373753 138.583123,142.477102 138.517927,142.578298 L138.416265,142.725785 L138.357699,142.80545 L138.122329,143.068128 L137.857123,143.315734 L137.723416,143.423389 L137.723416,143.424466 L137.654904,143.471834 C137.44716,143.616091 137.223945,143.739895 136.990785,143.842167 C136.872548,143.893841 136.769781,144.046711 136.73663,144.162979 C136.701269,144.292165 136.71674,144.464413 136.792986,144.578527 C136.968685,144.844435 137.265936,144.896109 137.548822,144.771229 C138.631744,144.296471 139.454986,143.38248 139.879315,142.31239 C139.983187,142.049712 139.764393,141.710599 139.492557,141.650312" id="Fill-117" fill="#2B84A3"></path>
                        <path d="M225.591516,52.0060213 C223.1461,53.625152 220.69958,55.2442827 218.254164,56.8634134 C217.669607,57.2509712 218.222119,58.1843398 218.812201,57.7935523 C221.257616,56.173345 223.703032,54.5552909 226.148447,52.9361602 C226.73411,52.5486023 226.181598,51.6152338 225.591516,52.0060213" id="Fill-120" fill="#0E1125"></path>
                        <path d="M228.702155,59.50096 C225.919708,60.3966494 223.061014,61.0393495 220.157014,61.4215246 C219.859763,61.461357 219.702849,61.829537 219.771361,62.0836027 C219.855342,62.3958021 220.157014,62.4980743 220.45095,62.4593185 C223.35495,62.0771434 226.213644,61.4344432 228.996091,60.5387539 C229.667945,60.3223674 229.380639,59.2824205 228.702155,59.50096" id="Fill-121" fill="#0E1125"></path>
                        <path d="M227.01147,69.7367942 C224.427927,69.2254332 221.844384,68.711919 219.261945,68.1994813 C218.567991,68.061683 218.27074,69.0994768 218.968009,69.2372752 C221.551553,69.7507894 224.133991,70.2621505 226.717534,70.7745881 C227.412594,70.9123865 227.70874,69.8756692 227.01147,69.7367942" id="Fill-122" fill="#0E1125"></path>
                        <path d="M235.557717,153.29535 C235.663799,156.217105 234.681434,159.128096 232.768639,161.387773 C232.318895,161.917436 233.096831,162.683939 233.54989,162.148894 C235.648329,159.6696 236.779872,156.514233 236.66274,153.29535 C236.637324,152.605281 235.532301,152.602052 235.557717,153.29535" id="Fill-123" fill="#0E1125"></path>
                        <path d="M240.720384,155.620697 C240.754639,158.50908 239.711498,161.35763 237.778813,163.551638 C237.318018,164.074841 238.095954,164.839192 238.560064,164.312759 C240.683918,161.901288 241.862977,158.802978 241.825406,155.620697 C241.817671,154.928475 240.712648,154.926322 240.720384,155.620697" id="Fill-124" fill="#0E1125"></path>
                        <path d="M201.936292,173.906969 C199.999187,174.867252 197.807927,175.204212 195.657553,174.924309 C195.361406,174.885553 195.105041,175.198829 195.105041,175.462584 C195.105041,175.785549 195.361406,175.962103 195.657553,176.000858 C198.000201,176.305522 200.39147,175.879208 202.493224,174.836032 C203.127507,174.521679 202.56947,173.592617 201.936292,173.906969" id="Fill-125" fill="#0E1125"></path>
                        <path d="M204.150758,180.252153 C204.077826,179.992705 203.751845,179.772012 203.472274,179.876437 C201.675507,180.546051 199.780393,180.870093 197.857653,180.825954 C197.146018,180.808729 197.146018,181.885279 197.857653,181.902504 C199.868795,181.948795 201.885461,181.615065 203.765105,180.915308 C204.043571,180.810882 204.235845,180.55251 204.150758,180.252153" id="Fill-126" fill="#0E1125"></path>
                        <path d="M151.882073,113.212176 C151.929589,114.746259 152.675479,116.20606 153.928575,117.141582 C155.222557,118.110477 156.971808,118.410834 158.537626,117.974832 C159.390703,117.736914 159.028256,116.437519 158.170758,116.676513 C157.014904,116.998401 155.736393,116.79601 154.765078,116.08441 C153.843489,115.409414 153.296502,114.297338 153.263352,113.212176 C153.237936,112.348783 151.856658,112.344477 151.882073,113.212176" id="Fill-267" fill="#E57433"></path>
                        <path d="M178.284384,77.437354 C176.397005,79.2481105 174.932849,81.4087457 173.977005,83.8169873 C173.235534,85.6815713 172.120566,88.7841875 173.664283,90.5421931 C174.452164,91.4389589 175.631224,91.6079772 176.663315,92.1107259 C177.903151,92.7146703 178.784959,94.1647827 178.033543,95.4631016 C177.286548,96.7549612 175.316292,96.5891725 174.033361,96.3135758 C172.845461,96.0584335 171.612256,95.5115463 171.152566,94.3316479 C170.839845,93.5296184 169.503872,93.8773439 169.821014,94.6890624 C170.766913,97.1177584 173.654338,97.9639264 176.122959,97.8110564 C178.84463,97.6420381 180.604932,95.0680078 179.190502,92.6263932 C178.475553,91.3915907 177.275498,90.9071434 175.989251,90.4087009 C175.222365,90.1104966 174.558247,89.7670773 174.361553,88.9155265 C174.198009,88.2060803 174.372603,87.4148163 174.526201,86.7193652 C175.22568,83.5424671 176.889845,80.6637733 179.261224,78.3890239 C179.895507,77.7807733 178.918667,76.8291034 178.284384,77.437354" id="Fill-268" fill="#E57433"></path>
                        <path d="M128.173808,58.6311079 C129.22137,58.4233338 130.439105,58.1498902 131.471196,58.5622087 C132.212667,58.8582599 132.865735,59.6387584 132.60495,60.4397114 C132.765178,60.2836117 132.926511,60.1264354 133.08674,59.9703357 C130.387169,60.5269119 126.908557,60.7497577 125.496338,63.4928062 C124.928356,64.5941165 124.832219,66.1055922 125.83337,67.0142001 C126.707443,67.8076173 128.341772,67.7064216 128.904228,66.6040347 C129.298721,65.8310721 128.107507,65.1485396 127.711909,65.9247319 C127.599196,66.1454246 127.394767,66.2229361 127.139507,66.1906397 C126.79032,66.1465011 126.590311,65.8665982 126.500804,65.5554754 C126.263224,64.7319149 126.757169,63.8706751 127.338411,63.3054866 C128.923014,61.7606378 131.39053,61.6938917 133.454712,61.267578 C133.692292,61.2191333 133.866886,61.0135123 133.936502,60.7971258 C134.359726,59.4988069 133.551954,58.1574261 132.394995,57.5136494 C130.996037,56.7342274 129.297616,57.0367379 127.806941,57.3338656 C126.936183,57.5061135 127.30526,58.8033559 128.173808,58.6311079" id="Fill-269" fill="#E57433"></path>
                    </g>
                    <path d="M24.7980204,215.396022 C21.7230981,211.845017 17.5952109,208.955972 13.4032398,206.8165 C12.2729324,206.239989 11.2707928,207.915441 12.4044149,208.494115 C15.7931274,210.222566 18.9133505,212.39665 21.6568044,215.003388 C22.2888042,215.604777 23.0180348,216.224553 23.5240767,216.935187 C23.6080487,217.053085 23.7782025,217.26833 23.7881465,217.412188 C23.8047199,217.619861 23.9118947,217.478167 23.761629,217.561453 C23.4445242,217.735596 22.6854615,217.6058 22.3341049,217.600392 C20.1795599,217.571188 18.0625814,217.254269 15.9875889,216.691819 C15.0716311,216.443043 14.2595333,217.659882 15.0252255,218.315352 C16.280386,219.390496 17.7211689,220.409395 18.833798,221.628397 C19.1122315,221.934499 19.7928467,222.713276 19.1906791,223.000991 C18.6967911,223.236787 17.9034766,222.931766 17.4294767,222.784664 C14.3943305,221.832826 11.6000514,220.211456 9.24441563,218.116331 C8.30083543,217.278065 6.89651407,218.648495 7.84340896,219.491088 C9.4223037,220.895049 11.1691425,222.119459 13.0629322,223.084276 C14.7379528,223.936604 16.8217845,224.982544 18.7520358,224.998769 C20.7419514,225.014993 21.986063,223.249767 21.103252,221.461825 C20.6778675,220.599763 19.9508467,219.958354 19.2282455,219.339659 L19.2105672,219.324517 C20.6126787,219.514884 22.0291539,219.600333 23.425741,219.534354 C24.4643422,219.483517 25.5117825,219.119006 25.7648034,218.011413 C25.9868873,217.045514 25.4090273,216.101247 24.7980204,215.396022" id="Fill-69" fill="#53498C"></path>
                    <path d="M215.800134,12.8655065 C208.067263,10.7280056 199.464912,11.9798363 192.774316,16.2350173 C192.188793,16.6063937 192.739097,17.5108414 193.330123,17.1352922 C199.789591,13.0282444 208.037547,11.8066664 215.507373,13.8721869 C216.188649,14.0599615 216.47921,13.0532811 215.800134,12.8655065" id="Fill-83" fill="#252D55"></path>
                    <path d="M214.827363,21.5573644 C209.40349,18.7909924 203.429303,17.302372 197.365817,17.2248635 C196.64695,17.214605 196.64695,18.3544368 197.365817,18.3646953 C203.228378,18.4399242 209.018383,19.8658539 214.264772,22.5421791 C214.904385,22.8681711 215.471441,21.885636 214.827363,21.5573644" id="Fill-84" fill="#252D55"></path>
                    <path d="M158.080637,244.740101 C157.713484,243.681441 157.34633,242.621661 156.978142,241.563001 C156.884027,241.289654 156.625468,241.073441 156.342087,241.170905 C156.095939,241.258286 155.879784,241.566362 155.981139,241.860994 C156.349327,242.919654 156.716481,243.978314 157.083634,245.038094 C157.178784,245.311441 157.437343,245.527654 157.719689,245.42907 C157.966871,245.342809 158.183027,245.033613 158.080637,244.740101" id="Fill-96" fill="#2B84A3"></path>
                    <path d="M163.428209,248.914974 C163.014759,247.852736 162.600386,246.791623 162.186936,245.73051 C162.082651,245.464107 161.75226,245.374182 161.554764,245.529303 C161.330504,245.70578 161.278823,246.013773 161.389569,246.297036 C161.803941,247.359274 162.217391,248.420387 162.631764,249.4815 C162.735127,249.747902 163.065518,249.838951 163.263014,249.683831 C163.487273,249.507354 163.538955,249.200485 163.428209,248.914974" id="Fill-98" fill="#2B84A3"></path>
                    <path d="M163.408475,268.307863 C162.083911,265.96598 161.040213,263.490243 160.289739,260.91384 C160.090886,260.231298 159.006743,260.522236 159.20672,261.208097 C159.983034,263.871892 161.069423,266.44387 162.438926,268.866508 C162.79057,269.487101 163.761243,268.930669 163.408475,268.307863" id="Fill-99" fill="#2B84A3"></path>
                    <path d="M168.829959,266.309229 C167.818556,264.152608 166.808402,261.997052 165.798249,259.839364 C165.67323,259.572852 165.380686,259.385227 165.028132,259.468379 C164.730587,259.537672 164.466797,259.854289 164.591816,260.124 C165.60322,262.279556 166.613373,264.436177 167.624776,266.591733 C167.749795,266.859312 168.04234,267.046937 168.393643,266.964851 C168.691188,266.894491 168.956228,266.576808 168.829959,266.309229" id="Fill-100" fill="#2B84A3"></path>
                    <path d="M175.250177,265.156398 C174.178963,262.975792 173.10886,260.796192 172.038757,258.616592 C171.915412,258.366259 171.517596,258.31197 171.278684,258.435629 C170.994212,258.581404 170.957542,258.876978 171.078665,259.123288 C172.149879,261.302889 173.219982,263.483494 174.291196,265.663095 C174.41343,265.913427 174.811246,265.967716 175.051269,265.844058 C175.334629,265.698282 175.3713,265.403714 175.250177,265.156398" id="Fill-101" fill="#2B84A3"></path>
                    <path d="M181.682927,261.865541 C180.447675,259.863861 179.383244,257.749751 178.5238,255.547462 C178.415969,255.2719 178.16721,255.076803 177.867205,255.162778 C177.613108,255.234424 177.385702,255.562893 177.494601,255.84066 C178.38821,258.133333 179.475061,260.335622 180.761559,262.421073 C181.128825,263.018491 182.053395,262.466265 181.682927,261.865541" id="Fill-102" fill="#2B84A3"></path>
                    <path d="M187.06904,259.715916 C186.010517,257.921159 184.950872,256.125322 183.891226,254.329485 C183.534269,253.724753 182.564424,254.267932 182.922504,254.874823 C183.981027,256.67066 185.040672,258.465417 186.100318,260.261254 C186.456152,260.865986 187.425997,260.322807 187.06904,259.715916" id="Fill-103" fill="#2B84A3"></path>
                    <path d="M192.449503,256.524975 C191.419578,254.71267 190.388423,252.899336 189.358498,251.087031 C189.214702,250.83578 188.785771,250.770907 188.516614,250.902711 C188.210586,251.05305 188.154051,251.354758 188.296618,251.607039 C189.327772,253.419343 190.357698,255.231648 191.388852,257.043953 C191.531419,257.295204 191.96035,257.361106 192.229507,257.228272 C192.535535,257.078963 192.593299,256.777256 192.449503,256.524975" id="Fill-104" fill="#2B84A3"></path>
                    <path d="M197.824365,253.271263 C196.748635,251.828537 195.672905,250.386869 194.596111,248.944144 C194.425867,248.714787 194.135388,248.598524 193.868318,248.753894 C193.64168,248.886012 193.505485,249.246429 193.677857,249.476842 C194.753587,250.919567 195.830381,252.362293 196.906111,253.805018 C197.077419,254.034374 197.366834,254.149581 197.633905,253.995268 C197.860542,253.86315 197.996737,253.501676 197.824365,253.271263" id="Fill-105" fill="#2B84A3"></path>
                    <path d="M12.8537287,144.494074 C10.8941433,139.957339 10.2351857,134.820188 10.9836314,129.876932 C11.08939,129.183973 10.1090889,128.885417 10.0033303,129.584986 C9.2060729,134.844425 9.89045326,140.221744 11.9761354,145.050424 C12.2527349,145.691604 13.1293113,145.13305 12.8537287,144.494074" id="Fill-118" fill="#0E1125"></path>
                    <path d="M10.6137715,146.543813 C8.13139576,143.704268 6.63675525,140.010896 6.42189416,136.170313 C6.38225959,135.472422 5.33924458,135.46806 5.37887915,136.170313 C5.61042849,140.30859 7.20102637,144.254948 9.87635986,147.314765 C10.3300714,147.834912 11.06644,147.061779 10.6137715,146.543813" id="Fill-119" fill="#0E1125"></path>
                </g>
            </g>
        </g>
    </g>
</svg>