<?xml version="1.0" encoding="UTF-8"?>
<svg width="231px" height="305px" viewBox="0 0 231 305" version="1.1" xmlns="http://www.w3.org/2000/svg" xmlns:xlink="http://www.w3.org/1999/xlink">
    <!-- Generator: Sketch 53.2 (72643) - https://sketchapp.com -->
    <title>Group 41</title>
    <desc>Created with Sketch.</desc>
    <defs>
        <polygon id="path-1" points="0.67052122 0.0791563919 183.15045 0.0791563919 183.15045 138 0.67052122 138"></polygon>
        <path d="M31.082,85.68 L31.082,85.68 C14.117,85.68 0.237,71.8 0.237,54.835 L0.237,31.526 C0.237,14.562 14.117,0.681 31.082,0.681 C48.046,0.681 61.927,14.562 61.927,31.526 L61.927,54.835 C61.927,71.8 48.046,85.68 31.082,85.68" id="path-3"></path>
        <linearGradient x1="50%" y1="53.0547418%" x2="50%" y2="24.9219403%" id="linearGradient-5">
            <stop stop-color="#F6C7A9" offset="0%"></stop>
            <stop stop-color="#EFA795" offset="100%"></stop>
        </linearGradient>
        <polygon id="path-6" points="0.234 0.163384538 133.894 0.163384538 133.894 167 0.234 167"></polygon>
    </defs>
    <g id="Page-1" stroke="none" stroke-width="1" fill="none" fill-rule="evenodd">
        <g id="Group-41">
            <g id="2659980-copy-5" transform="translate(149.000000, 256.000000)" fill-rule="nonzero">
                <g id="XMLID_107_" fill="#4B559E">
                    <path d="M49.9408247,22.3833678 C50.123299,24.7342924 48.4624742,26.8213795 46.2325773,27.0441527 C44.5253608,27.214569 42.9810309,26.2423745 42.2676289,24.7240263 L40.2439175,24.9016289 L38.7160825,25.6356512 C38.3665979,25.8029877 38.1315464,26.1356076 38.0779381,26.5175045 C37.9336082,27.5471889 37.6717526,28.538889 37.3078351,29.481312 C37.1841237,29.800586 37.2057732,30.1568178 37.3738144,30.4545331 L37.9181443,31.4236479 L39.4315464,32.4348534 C40.2294845,32.1309784 41.1583505,32.2038673 41.922268,32.7140898 C43.2171134,33.5795175 43.5274227,35.3606765 42.5645361,36.6141607 C41.7356701,37.6941487 40.194433,37.9908374 39.0212371,37.2968527 C38.2738144,36.8554127 37.822268,36.1224171 37.7119588,35.3391178 L36.0346392,34.2190922 L34.9789691,34.0907666 C34.6160825,34.0466226 34.2552577,34.1708417 33.9913402,34.4223599 C33.1006186,35.2672554 32.094433,35.9930649 31.0006186,36.5741231 C30.6325773,36.769178 30.3964948,37.1438886 30.3707216,37.5576103 L30.236701,39.6867882 L30.9006186,42.3097629 C32.0305155,42.6239039 32.9645361,43.5160233 33.2717526,44.7294699 C33.7356701,46.5640123 32.5913402,48.4252465 30.7253608,48.8389681 C29.0418557,49.2126522 27.3150515,48.2353246 26.78,46.6019967 C26.3635052,45.3269538 26.7459794,44.0087935 27.6263918,43.1474723 L26.9593814,40.5090985 L25.9294845,38.8603715 C25.6531959,38.4179049 25.1645361,38.1561208 24.6408247,38.1571474 C24.637732,38.1571474 24.6356701,38.1571474 24.6325773,38.1571474 C23.7305155,38.1571474 22.8480412,38.0678328 21.994433,37.9004962 C21.4861856,37.799889 20.9614433,37.9600393 20.6047423,38.33475 L19.2439175,39.7648101 L17.7202062,42.9123798 C18.0769072,43.6340828 18.108866,44.5056701 17.7315464,45.2869162 C17.0531959,46.6872049 15.323299,47.2436246 13.9408247,46.4695647 C12.7573196,45.8053515 12.2449485,44.3393602 12.7604124,43.0869026 C13.1119588,42.2327676 13.8408247,41.6619754 14.665567,41.471027 L16.1985567,38.3029252 L16.4995876,36.1768271 C16.5542268,35.7846642 16.4037113,35.3894214 16.094433,35.1409831 C14.8748454,34.1554427 13.8294845,32.9656079 13.0119588,31.6228091 C12.808866,31.2891627 12.4439175,31.0869215 12.0521649,31.0838417 L9.92020619,31.0633096 L7.58618557,31.7942521 C7.42226804,33.2397114 6.42845361,34.5239937 4.94597938,34.988019 C2.9542268,35.6121946 0.83257732,34.5219405 0.186185567,32.5508597 C-0.460206186,30.5808055 0.631546392,28.4259625 2.60783505,27.7750951 C3.99134021,27.3192827 5.44494845,27.6980998 6.42845361,28.6292302 L8.9057732,27.8531171 L10.7150515,26.5688348 C10.9841237,26.3789129 11.1274227,26.0606655 11.1006186,25.7342052 C11.0707216,25.3718138 11.0552577,25.0063426 11.0552577,24.6367649 C11.0552577,22.6287263 11.4985567,20.7223216 12.2903093,19.007892 C12.4057732,18.7563738 12.4026804,18.4668713 12.2810309,18.218433 L11.7449485,17.1271523 L10.2903093,16.0338185 C9.47587629,16.2935494 8.55319588,16.1693303 7.81917526,15.6180436 C6.57381443,14.6817802 6.36350515,12.8862488 7.39443299,11.6882012 C8.28206186,10.6564636 9.83773196,10.4449831 10.9707216,11.2026173 C11.6923711,11.6851214 12.1026804,12.4407024 12.1686598,13.2291347 L13.7810309,14.4405281 L15.4057732,14.729004 C16.5882474,13.6356701 17.9665979,12.7497104 19.4810309,12.1286146 L19.8624742,9.82080748 L19.3810309,7.43703163 C17.9562887,7.07156039 16.7995876,5.98438613 16.4882474,4.53482045 C16.0490722,2.4867443 17.4624742,0.49205158 19.6459794,0.0803831393 C21.8284536,-0.331285301 23.9542268,0.994061224 24.3934021,3.04213738 C24.722268,4.57485803 24.0140206,6.07678055 22.7212371,6.90833026 L23.1758763,9.15659431 L24.2923711,10.930567 C24.365567,11.0465734 24.4934021,11.1163825 24.6305155,11.1163825 L24.6325773,11.1163825 C27.1892784,11.1163825 29.5830928,11.8247396 31.6274227,13.0546119 C31.7397938,13.1213412 31.8779381,13.1305807 31.9964948,13.075144 L33.7449485,12.2682328 L35.7861856,10.0692458 C35.6635052,9.28081347 35.8892784,8.44515733 36.4758763,7.81379551 C37.5356701,6.67323781 39.3501031,6.64449288 40.4449485,7.78505058 C41.4047423,8.78599006 41.4418557,10.3823602 40.5305155,11.4274437 C39.9408247,12.1039761 39.094433,12.4160639 38.2676289,12.3544676 L36.2263918,14.5534546 L35.5635052,16.3294806 C35.5171134,16.4526731 35.537732,16.5902381 35.6150515,16.697005 C36.4202062,17.7975251 37.0624742,19.023291 37.5057732,20.3393981 C37.6284536,20.7007629 37.9171134,20.9820526 38.2861856,21.0857396 L39.9459794,21.5487383 L42.1026804,21.3588165 C42.6315464,19.8404683 43.9521649,18.6916977 45.5738144,18.5294942 C47.8037113,18.306721 49.7593814,20.0324433 49.9408247,22.3833678 L49.9408247,22.3833678 Z" id="Path"></path>
                </g>
                <g id="XMLID_8_" transform="translate(14.000000, 15.000000)" fill="#3B4589">
                    <circle id="Oval" cx="10.1772668" cy="10.1821509" r="10.1340371"></circle>
                </g>
                <path d="M17.1738891,25 C17.1738891,19.9951805 21.0021178,15.8492617 26,15.115361 C25.4825506,15.0393765 24.9526081,15 24.4130555,15 C18.6619565,15 14,19.4770304 14,25 C14,30.5229696 18.6619565,35 24.4130555,35 C24.9526081,35 25.4825506,34.9606235 26,34.884639 C21.0022246,34.1506358 17.1738891,30.004717 17.1738891,25 Z" id="Path" fill="#1C2561"></path>
                <g id="Group" transform="translate(5.000000, 1.000000)">
                    <ellipse id="Oval" fill="#4B559E" cx="2.85164024" cy="2.86490794" rx="2.84324493" ry="2.8495168"></ellipse>
                    <ellipse id="Oval" fill="#4B559E" cx="2.07446001" cy="40.425974" rx="1.87798934" ry="1.88213196"></ellipse>
                    <ellipse id="Oval" fill="#4B559E" cx="36.5555236" cy="43.5177475" rx="2.76615144" ry="2.77225324"></ellipse>
                    <ellipse id="Oval" fill="#1C2561" cx="16.5860562" cy="21.1463061" rx="2.57889513" ry="2.58458387"></ellipse>
                    <ellipse id="Oval" fill="#1C2561" cx="18.6562161" cy="29.1742253" rx="1.75533594" ry="1.759208"></ellipse>
                    <ellipse id="Oval" fill="#1C2561" cx="24.1680427" cy="23.905836" rx="1.47399076" ry="1.47724221"></ellipse>
                </g>
            </g>
            <g id="2659980-copy-8" transform="translate(187.000000, 147.000000)" fill-rule="nonzero">
                <g id="XMLID_107_" fill="#D2122C">
                    <path d="M43.9479258,19.7803134 C44.1085031,21.8578392 42.6469773,23.7022103 40.684668,23.8990763 C39.1823175,24.0496742 37.8233072,23.1905402 37.1955134,21.848767 L35.4146474,22.0057155 L34.0701526,22.6543753 C33.7626062,22.8022515 33.5557608,23.0961897 33.5085856,23.4336742 C33.3815753,24.3436124 33.1511423,25.2199835 32.8308948,26.0528082 C32.7220289,26.3349526 32.7410804,26.6497567 32.8889567,26.9128495 L33.367967,27.7692619 L34.6997608,28.6628701 C35.4019464,28.394334 36.2193485,28.4587464 36.8915959,28.909633 C38.0310598,29.6744165 38.304132,31.2484371 37.4567918,32.3561485 C36.7273897,33.3105402 35.371101,33.5727258 34.3386887,32.9594474 C33.6809567,32.5693443 33.2835959,31.9215918 33.1865237,31.2293856 L31.7104825,30.2396124 L30.7814928,30.1262103 C30.4621526,30.0872 30.1446268,30.1969732 29.9123794,30.4192412 C29.1285443,31.1658804 28.243101,31.8072825 27.2805443,32.320767 C26.956668,32.4931381 26.7489155,32.8242722 26.7262351,33.1898804 L26.6082969,35.0714474 L27.1925443,37.3893856 C28.1868536,37.6669938 29.0087918,38.4553649 29.2791423,39.5276948 C29.6873897,41.1488907 28.6803794,42.7936742 27.0383175,43.1592825 C25.556833,43.4895093 24.0372454,42.6258392 23.5664,41.1824577 C23.1998845,40.0556948 23.5364619,38.8908289 24.3112247,38.1296742 L23.7242557,35.7981278 L22.8179464,34.3411381 C22.5748124,33.9501278 22.1447918,33.7187876 21.6839258,33.7196948 C21.6812041,33.7196948 21.6793897,33.7196948 21.676668,33.7196948 C20.8828536,33.7196948 20.1062763,33.640767 19.355101,33.4928907 C18.9078433,33.4039835 18.4460701,33.5455093 18.1321732,33.8766433 L16.9346474,35.1403959 L15.5937814,37.9219216 C15.9076784,38.5596948 15.9358021,39.3299216 15.6037608,40.0203134 C15.0068124,41.2577567 13.4845031,41.749468 12.2679258,41.0654268 C11.2264412,40.4784577 10.7755546,39.1829526 11.2291629,38.0761485 C11.5385237,37.3213443 12.1799258,36.816932 12.905699,36.6481897 L14.2547299,33.8485196 L14.5196371,31.9696742 C14.5677196,31.6231175 14.435266,31.2738392 14.163101,31.0542928 C13.0898639,30.1833649 12.1699464,29.131901 11.4505237,27.9452619 C11.2718021,27.6504165 10.9506474,27.4716948 10.6059052,27.4689732 L8.72978144,27.4508289 L6.6758433,28.096767 C6.53159588,29.3741278 5.65703918,30.5090557 4.35246186,30.9191175 C2.59971959,31.4707052 0.732668041,30.5072412 0.163843299,28.7653856 C-0.404981443,27.0244371 0.555760825,25.1201897 2.29489485,24.5450144 C3.51237938,24.1422103 4.79155464,24.4769732 5.65703918,25.2998186 L7.83708041,24.6139629 L9.42924536,23.4790351 C9.66602887,23.3112 9.79213196,23.0299629 9.76854433,22.741468 C9.74223505,22.4212206 9.7286268,22.0982515 9.7286268,21.7716536 C9.7286268,19.9971381 10.1187299,18.3124371 10.8154722,16.7973856 C10.9170804,16.5751175 10.9143588,16.3192825 10.8073072,16.0997361 L10.3355546,15.1353649 L9.05547216,14.1691794 C8.33877113,14.3987052 7.52681237,14.288932 6.88087423,13.8017567 C5.7849567,12.9743753 5.59988454,11.3876536 6.50710103,10.328932 C7.28821443,9.41717938 8.65720412,9.23029278 9.65423505,9.89981856 C10.2892866,10.3262103 10.6503588,10.9939216 10.7084206,11.6906639 L12.1273072,12.7611794 L13.5570804,13.0161072 C14.5976577,12.0499216 15.8106062,11.2669938 17.1433072,10.7181278 L17.4789773,8.67870515 L17.0553072,6.57214845 C15.801534,6.24917938 14.7836371,5.28843711 14.5096577,4.00744742 C14.1231835,2.19755052 15.3669773,0.434828866 17.2884619,0.0710350515 C19.2090392,-0.292758763 21.0797196,0.878457732 21.4661938,2.68835464 C21.7555959,4.04282887 21.1323381,5.3700866 19.9946887,6.10493196 L20.3947711,8.09173608 L21.3772866,9.65940619 C21.441699,9.76192165 21.5541938,9.82361237 21.6748536,9.82361237 L21.676668,9.82361237 C23.9265649,9.82361237 26.0331216,10.4495918 27.832132,11.5364371 C27.9310186,11.5954062 28.0525856,11.6035711 28.1569155,11.5545814 L29.6955546,10.8415093 L31.4918433,8.89825155 C31.3838845,8.20150928 31.5825649,7.46303505 32.0987711,6.90509691 C33.0313897,5.89717938 34.6280907,5.87177732 35.5915546,6.87969485 C36.4361732,7.76423093 36.468833,9.17495258 35.6668536,10.098499 C35.1479258,10.6963546 34.403101,10.9721485 33.6755134,10.9177155 L31.8792247,12.8609732 L31.2958845,14.4304577 C31.2550598,14.5393237 31.2732041,14.6608907 31.3412454,14.7552412 C32.0497814,15.7277773 32.6149773,16.8109938 33.0050804,17.9740454 C33.1130392,18.2933856 33.3670598,18.5419629 33.6918433,18.6335918 L35.1524619,19.0427464 L37.0503588,18.8749113 C37.5157608,17.5331381 38.6779052,16.5179629 40.1049567,16.3746227 C42.067266,16.1777567 43.7882557,17.7027876 43.9479258,19.7803134 L43.9479258,19.7803134 Z" id="Path"></path>
                </g>
                <g id="XMLID_8_" transform="translate(13.000000, 13.000000)" fill="#D2122C">
                    <circle id="Oval" cx="8.72337155" cy="8.72755794" r="8.68631753"></circle>
                </g>
                <path d="M15.6449075,22 C15.6449075,17.4956624 18.8350981,13.7643355 23,13.1038249 C22.5687922,13.0354389 22.1271734,13 21.6775462,13 C16.8849638,13 13,17.0293273 13,22 C13,26.9706727 16.8849638,31 21.6775462,31 C22.1271734,31 22.5687922,30.9645611 23,30.8961751 C18.8351871,30.2355722 15.6449075,26.5042453 15.6449075,22 Z" id="Path" fill="#7C0E1B"></path>
                <g id="Group" transform="translate(4.000000, 1.000000)">
                    <ellipse id="Oval" fill="#D2122C" cx="2.54984165" cy="2.52302716" rx="2.54233485" ry="2.5094727"></ellipse>
                    <ellipse id="Oval" fill="#D2122C" cx="1.85491299" cy="35.6017829" rx="1.67923546" ry="1.65752972"></ellipse>
                    <ellipse id="Oval" fill="#D2122C" cx="32.6867307" cy="38.3246028" rx="2.47340041" ry="2.44142931"></ellipse>
                    <ellipse id="Oval" fill="#7B0010" cx="14.8306986" cy="18.6228339" rx="2.30596206" ry="2.27615527"></ellipse>
                    <ellipse id="Oval" fill="#7B0010" cx="16.6817666" cy="25.6927498" rx="1.56956289" ry="1.54927476"></ellipse>
                    <ellipse id="Oval" fill="#7B0010" cx="21.6102581" cy="21.0530582" rx="1.3179934" ry="1.30095706"></ellipse>
                </g>
            </g>
            <g id="2659980-copy-6" transform="translate(0.000000, 166.000000)" fill-rule="nonzero">
                <g id="XMLID_107_" fill="#FBCF77">
                    <path d="M48.9420082,22.361835 C49.120833,24.7104979 47.4932247,26.7955773 45.3079258,27.0181362 C43.6348536,27.1883886 42.1214103,26.2171293 41.4222763,24.7002418 L39.4390392,24.8776735 L37.9417608,25.6109897 C37.599266,25.7781652 37.3689155,26.1104651 37.3163794,26.4919947 C37.1749361,27.5206885 36.9183175,28.5114345 36.5616784,29.4529509 C36.4404412,29.7719178 36.4616577,30.1278069 36.6263381,30.4252358 L37.1597814,31.3934183 L38.6429155,32.403651 C39.4248948,32.1000684 40.3351835,32.1728872 41.0838227,32.6826188 C42.3527711,33.547214 42.6568742,35.3266595 41.7132454,36.5789378 C40.9009567,37.6578869 39.3905443,37.9542902 38.2408124,37.2609731 C37.5083381,36.8199578 37.0658227,36.0876673 36.9577196,35.3051215 L35.3139464,34.1861734 L34.2793897,34.0579712 C33.9237608,34.0138697 33.5701526,34.1379694 33.3115134,34.3892455 C32.4386062,35.2333283 31.4525443,35.9584395 30.3806062,36.5389387 C30.0199258,36.733806 29.7885649,37.1081562 29.7633072,37.5214798 L29.631967,39.6486095 L30.2826062,42.2690609 C31.3899052,42.5828997 32.3052454,43.4741609 32.6063175,44.6864401 C33.0609567,46.5192177 31.9395134,48.3786613 30.1108536,48.791985 C28.4610186,49.1653096 26.7687505,48.1889222 26.2444,46.5571655 C25.8362351,45.2833492 26.2110598,43.966457 27.0738639,43.1059644 L26.4201938,40.4701287 L25.4108948,38.8229878 C25.140132,38.3809469 24.6612454,38.1194145 24.1480082,38.1204401 C24.1449773,38.1204401 24.1429567,38.1204401 24.1399258,38.1204401 C23.2559052,38.1204401 22.3910804,38.0312115 21.5545443,37.8640359 C21.0564619,37.7635254 20.5422144,37.9235217 20.1926474,38.2978719 L18.8590392,39.7265564 L17.3658021,42.8710981 C17.7153691,43.5921068 17.7466887,44.4628556 17.3769155,45.2433502 C16.712132,46.6422918 15.016833,47.1981762 13.6620082,46.4248609 C12.5021732,45.7612868 12.0000495,44.2967057 12.5052041,43.045453 C12.8497196,42.1921396 13.5640082,41.6218966 14.3722557,41.4311318 L15.8745856,38.2660778 L16.1695959,36.142025 C16.2231423,35.7502393 16.0756371,35.3553767 15.7725443,35.1071774 C14.5773485,34.1225851 13.5528948,32.933895 12.7517196,31.592388 C12.5526887,31.2590624 12.1950392,31.0570159 11.8111216,31.0539391 L9.72180206,31.0334267 L7.43446186,31.763666 C7.27382268,33.2077347 6.29988454,34.4907816 4.84705979,34.9543605 C2.89514227,35.5779356 0.815925773,34.4887304 0.182461856,32.5195457 C-0.451002062,30.5513867 0.618915464,28.3986167 2.55567835,27.7483755 C3.9115134,27.2930015 5.33604948,27.6714542 6.29988454,28.6016888 L8.72765773,27.8263224 L10.5007505,26.5432755 C10.7644412,26.3535364 10.9048742,26.0355951 10.8786062,25.7094489 C10.8493072,25.3474061 10.8341526,24.9822864 10.8341526,24.6130643 C10.8341526,22.6069575 11.2685856,20.7023867 12.0445031,18.9896063 C12.1576577,18.7383302 12.1546268,18.4491062 12.0354103,18.2009069 L11.5100495,17.110676 L10.0845031,16.0183939 C9.28635876,16.277875 8.38213196,16.1537754 7.66279175,15.603019 C6.44233814,14.6676563 6.23623505,12.8738522 7.24654433,11.6769572 C8.11642062,10.6462121 9.64097732,10.434935 10.7513072,11.1918403 C11.4585237,11.6738803 11.8606268,12.4287344 11.9252866,13.2164083 L13.5054103,14.4266363 L15.0976577,14.7148347 C16.2564825,13.6225526 17.607266,12.7374451 19.0914103,12.1169469 L19.4652247,9.81135986 L18.9934103,7.42987719 C17.5971629,7.06475754 16.4635959,5.97862915 16.1584825,4.53045795 C15.7280907,2.48435205 17.1132247,0.491578226 19.2530598,0.0803058107 C21.3918845,-0.330966604 23.4751423,0.993104936 23.905534,3.03921084 C24.2278227,4.57045701 23.5337402,6.07093468 22.2668124,6.90168444 L22.7123588,9.14778566 L23.8065237,10.9200518 C23.8782557,11.0359465 24.003534,11.1056885 24.1379052,11.1056885 L24.1399258,11.1056885 C26.6454928,11.1056885 28.9914309,11.8133642 30.9948742,13.0420534 C31.1049979,13.1087185 31.2403794,13.117949 31.3565649,13.0625657 L33.0700495,12.2564308 L35.0704619,10.0595592 C34.9502351,9.27188532 35.1714928,8.43703308 35.7463588,7.80627863 C36.7849567,6.66681815 38.563101,6.63810087 39.6360495,7.77756136 C40.5766474,8.77753793 40.6130186,10.3723724 39.7199052,11.4164505 C39.1420082,12.0923321 38.3125443,12.4041196 37.5022763,12.3425826 L35.5018639,14.5394542 L34.8522351,16.3137716 C34.8067711,16.4368456 34.8269773,16.5742783 34.9027505,16.6809425 C35.6918021,17.7804039 36.3212247,19.0049906 36.7556577,20.3198316 C36.8758845,20.6808488 37.1587711,20.9618678 37.5204619,21.0654551 L39.1470598,21.5280084 L41.2606268,21.3382693 C41.7789155,19.8213817 43.0731216,18.6737163 44.6623381,18.5116688 C46.8476371,18.2891099 48.7641938,20.0131721 48.9420082,22.361835 L48.9420082,22.361835 Z" id="Path"></path>
                </g>
                <g id="XMLID_8_" transform="translate(15.000000, 15.000000)" fill="#FBCF77">
                    <circle id="Oval" cx="9.8464864" cy="9.85121178" r="9.80466176"></circle>
                </g>
                <path d="M17.1738891,25 C17.1738891,19.9951805 21.0021178,15.8492617 26,15.115361 C25.4825506,15.0393765 24.9526081,15 24.4130555,15 C18.6619565,15 14,19.4770304 14,25 C14,30.5229696 18.6619565,35 24.4130555,35 C24.9526081,35 25.4825506,34.9606235 26,34.884639 C21.0022246,34.1506358 17.1738891,30.004717 17.1738891,25 Z" id="Path" fill="#C68505"></path>
                <g id="Group" transform="translate(5.000000, 0.000000)">
                    <ellipse id="Oval" fill="#FBCF77" cx="2.80859662" cy="2.88612948" rx="2.80032803" ry="2.87062433"></ellipse>
                    <ellipse id="Oval" fill="#FBCF77" cx="2.0431474" cy="40.7254257" rx="1.84964233" ry="1.89607368"></ellipse>
                    <ellipse id="Oval" fill="#FBCF77" cx="36.0037422" cy="43.8401012" rx="2.72439821" ry="2.79278845"></ellipse>
                    <ellipse id="Oval" fill="#EA9F0B" cx="16.3357006" cy="21.3029454" rx="2.53996841" ry="2.60372893"></ellipse>
                    <ellipse id="Oval" fill="#EA9F0B" cx="18.3746129" cy="29.3903307" rx="1.7288403" ry="1.77223918"></ellipse>
                    <ellipse id="Oval" fill="#EA9F0B" cx="23.803242" cy="24.0829163" rx="1.45174184" ry="1.48818474"></ellipse>
                </g>
            </g>
            <g id="Group-31" transform="translate(15.000000, 0.000000)">
                <path d="M166.09993,83.7442183 C164.70961,83.4976807 163.223247,84.593811 161.95275,86.5496155 L150.286864,84.4893304 C150.323451,83.6259902 150.346318,82.7589841 150.346318,81.8873955 C150.346318,81.0158069 150.323451,80.1488008 150.286864,79.2854607 L161.95275,77.2251756 C163.223247,79.18098 164.70961,80.2771104 166.09993,80.0314892 C168.833922,79.5484953 170.155641,74.0825075 169.054361,67.8219169 C167.952166,61.5613263 164.844068,56.8780269 162.110076,57.3610208 C160.719756,57.606642 159.698053,59.1463568 159.171195,61.4201857 L147.522687,63.4777214 C146.997658,61.8142794 146.403113,60.1829149 145.742711,58.5836277 L155.988093,52.6575585 C157.85039,54.0597988 159.62122,54.580369 160.844153,53.8737499 C163.247029,52.4825075 162.624129,46.8927927 159.452003,41.3873955 C156.279877,35.8819984 151.759506,32.5459495 149.35663,33.9371919 C148.133696,34.643811 147.698307,36.4410615 147.979115,38.7588823 L137.722757,44.691367 C136.666296,43.3157051 135.553125,41.9849515 134.384158,40.7055218 L141.997078,31.6157051 C144.225249,32.2948293 146.067424,32.1775177 146.975706,31.0933018 C148.759341,28.9633629 146.264996,23.9244627 141.405277,19.8378029 C136.545558,15.7520595 131.159895,14.1665198 129.375346,16.2964587 C128.467979,17.379758 128.671953,19.2173344 129.727499,21.2996155 L122.119153,30.3839332 C120.661146,29.4527723 119.159234,28.5839332 117.61982,27.7774159 L121.667299,16.636479 C123.994257,16.5118354 125.684594,15.7703894 126.167547,14.4396358 C127.11699,11.8276196 123.053046,7.94625499 117.091133,5.77232424 C111.130133,3.59839349 105.527691,3.9539943 104.578248,6.56784359 C104.095295,7.89676416 104.914852,9.55287414 106.616165,11.1475788 L102.569601,22.2894322 C100.887496,21.9191674 99.1816092,21.6158069 97.4510261,21.3885157 L97.4510261,9.52812872 C99.5941319,8.61346477 100.929571,7.33678453 100.929571,5.92171324 C100.929571,3.14197801 95.7872149,0.887395524 89.4429629,0.887395524 C83.0987109,0.887395524 77.9554398,3.14197801 77.9554398,5.92171324 C77.9554398,7.33678453 79.2899645,8.61346477 81.4339851,9.52812872 L81.4339851,21.3885157 C79.7034019,21.6158069 77.9966006,21.9191674 76.3163251,22.2894322 L72.268846,11.1475788 C73.9710739,9.55287414 74.7897166,7.89676416 74.3067631,6.56784359 C73.3573206,3.9539943 67.7557925,3.59839349 61.7938786,5.77232424 C55.8319648,7.94625499 51.7689361,11.8276196 52.7174639,14.4396358 C53.2004174,15.7703894 54.8916691,16.5118354 57.2177119,16.636479 L61.2642763,27.7774159 C59.7248622,28.5839332 58.2238649,29.4527723 56.7658577,30.3839332 L49.1575117,21.2996155 C50.212143,19.2173344 50.4170323,17.379758 49.5096653,16.2964587 C47.7260304,14.1665198 42.3394531,15.7520595 37.4797342,19.8378029 C32.6200152,23.9244627 30.1256705,28.9633629 31.91022,31.0933018 C32.8175871,32.1775177 34.6597617,32.2948293 36.8879333,31.6157051 L44.5008527,40.7055218 C43.3318859,41.9849515 42.2196295,43.3157051 41.1613395,44.691367 L30.9058964,38.7588823 C31.1867045,36.4410615 30.7513147,34.643811 29.5283815,33.9371919 C27.1255052,32.5459495 22.6051342,35.8819984 19.4330082,41.3873955 C16.2608822,46.8927927 15.6379821,52.4825075 18.041773,53.8737499 C19.2637916,54.580369 21.0355355,54.0597988 22.8969186,52.6575585 L33.1413854,58.5836277 C32.4818979,60.1829149 31.8864382,61.8142794 31.362324,63.4777214 L19.7138164,61.4201857 C19.1878728,59.1463568 18.1643408,57.606642 16.7740202,57.3610208 C14.0409428,56.8780269 10.9328448,61.5613263 9.83064991,67.8219169 C8.72936972,74.0825075 10.0520036,79.5484953 12.785081,80.0314892 C14.1754015,80.2771104 15.6617638,79.18098 16.9331754,77.2251756 L28.5981473,79.2854607 C28.5615599,80.1488008 28.5386928,81.0158069 28.5386928,81.8873955 C28.5386928,82.7589841 28.5615599,83.6259902 28.5981473,84.4893304 L16.9331754,86.5496155 C15.6617638,84.593811 14.1754015,83.4976807 12.785081,83.7442183 C10.0520036,84.2262957 8.72936972,89.6932 9.83064991,95.9528741 C10.9328448,102.213465 14.0409428,106.896764 16.7740202,106.41377 C18.1643408,106.168149 19.1878728,104.629351 19.7138164,102.354605 L31.362324,100.29707 C31.8864382,101.960512 32.4818979,103.592793 33.1413854,105.191163 L22.8969186,111.118149 C21.0355355,109.714992 19.2637916,109.194422 18.041773,109.901958 C15.6379821,111.292284 16.2608822,116.882915 19.4330082,122.387396 C22.6051342,127.891876 27.1255052,131.228842 29.5283815,129.837599 C30.7513147,129.13098 31.1867045,127.33373 30.9058964,125.016825 L41.1613395,119.083424 C42.2196295,120.459086 43.3318859,121.78984 44.5008527,123.070186 L36.8879333,132.160002 C34.6597617,131.479962 32.8175871,131.597273 31.91022,132.681489 C30.1256705,134.811428 32.6200152,139.850328 37.4797342,143.936988 C42.3394531,148.022732 47.7260304,149.609188 49.5096653,147.479249 C50.4170323,146.395033 50.212143,144.55654 49.1575117,142.476092 L56.7658577,133.390858 C58.2238649,134.322019 59.7248622,135.190858 61.2642763,135.997375 L57.2177119,147.138312 C54.8916691,147.262956 53.2004174,148.005318 52.7174639,149.334239 C51.7689361,151.948088 55.8319648,155.828536 61.7938786,158.002467 C67.7557925,160.176398 73.3573206,159.820797 74.3067631,157.207864 C74.7897166,155.878943 73.9710739,154.221917 72.268846,152.628129 L76.3163251,141.485359 C77.9966006,141.85654 79.7034019,142.158984 81.4339851,142.386275 L81.4339851,154.246662 C79.2899645,155.161326 77.9554398,156.438007 77.9554398,157.853078 C77.9554398,160.632813 83.0987109,162.887396 89.4429629,162.887396 C95.7872149,162.887396 100.929571,160.632813 100.929571,157.853078 C100.929571,156.438007 99.5941319,155.161326 97.4510261,154.246662 L97.4510261,142.386275 C99.1816092,142.158984 100.887496,141.85654 102.569601,141.485359 L106.616165,152.628129 C104.914852,154.221917 104.095295,155.878943 104.578248,157.207864 C105.527691,159.820797 111.130133,160.176398 117.091133,158.002467 C123.053046,155.828536 127.11699,151.948088 126.167547,149.334239 C125.684594,148.005318 123.994257,147.262956 121.667299,147.138312 L117.61982,135.997375 C119.159234,135.190858 120.661146,134.322019 122.119153,133.390858 L129.727499,142.476092 C128.671953,144.55654 128.467979,146.395033 129.375346,147.479249 C131.159895,149.609188 136.545558,148.022732 141.405277,143.936988 C146.264996,139.850328 148.759341,134.811428 146.975706,132.681489 C146.067424,131.597273 144.225249,131.479962 141.997078,132.160002 L134.384158,123.070186 C135.553125,121.78984 136.666296,120.459086 137.722757,119.083424 L147.979115,125.016825 C147.698307,127.33373 148.133696,129.13098 149.35663,129.837599 C151.759506,131.228842 156.279877,127.891876 159.452003,122.387396 C162.624129,116.882915 163.247029,111.292284 160.844153,109.901958 C159.62122,109.194422 157.85039,109.714992 155.988093,111.118149 L145.742711,105.191163 C146.403113,103.592793 146.997658,101.960512 147.522687,100.29707 L159.171195,102.354605 C159.698053,104.629351 160.719756,106.168149 162.110076,106.41377 C164.844068,106.896764 167.952166,102.213465 169.054361,95.9528741 C170.155641,89.6932 168.833922,84.2262957 166.09993,83.7442183" id="Fill-435" fill="#565F9D"></path>
                <g id="Group-438" transform="translate(0.000000, 123.634396)">
                    <mask id="mask-2" fill="white">
                        <use xlink:href="#path-1"></use>
                    </mask>
                    <g id="Clip-437"></g>
                    <path d="M183.06,104.409 C182.367,93.05 172.81,86.404 168.03,76.691 C161.285,62.985 173.426,51.42 157.688,38.143 C141.951,24.865 150.045,18.868 140.602,8.08 C131.16,-2.708 111.986,0.537 111.986,0.537 L72.698,0.537 C72.698,0.537 53.524,-2.708 44.081,8.08 C34.639,18.868 42.733,24.865 26.995,38.143 C11.259,51.42 23.398,62.984 16.655,76.689 C13.819,82.453 9.215,86.861 5.75,92.21 C-10.229,116.879 14.156,147.571 41.885,147.571 L142.797,147.571 C153.869,147.571 164.699,143.198 172.365,135.579 C180.605,127.389 183.742,115.576 183.06,104.409" id="Fill-436" fill="#7D56C9" mask="url(#mask-2)"></path>
                </g>
                <path d="M92.041,106.121396 L74.804,103.372396 C74.804,103.372396 74.804,126.054396 74.804,142.003396 C74.804,157.346396 90.823,160.982396 92.041,161.237396 L92.082,161.245396 L92.082,161.228396 C93.3,160.973396 109.278,157.346396 109.278,142.003396 C109.278,126.054396 109.278,103.372396 109.278,103.372396 L92.041,106.121396" id="Fill-439" fill="#F3B795"></path>
                <path d="M62.997,81.2633955 C62.997,81.2633955 62.149,78.2863955 56.001,78.2863955 C49.854,78.2863955 51.761,99.0343955 62.997,99.0343955 C74.233,99.0343955 69.993,84.2413955 62.997,81.2633955" id="Fill-440" fill="#F2B492"></path>
                <path d="M120.223,81.2633955 C120.223,81.2633955 121.071,78.2863955 127.219,78.2863955 C133.366,78.2863955 131.459,99.0343955 120.223,99.0343955 C108.988,99.0343955 113.227,84.2413955 120.223,81.2633955" id="Fill-441" fill="#F2B492"></path>
                <g id="Group-444" transform="translate(61.000000, 41.634396)">
                    <mask id="mask-4" fill="white">
                        <use xlink:href="#path-3"></use>
                    </mask>
                    <g id="Clip-443"></g>
                    <path d="M31.082,85.68 L31.082,85.68 C14.117,85.68 0.237,71.8 0.237,54.835 L0.237,31.526 C0.237,14.562 14.117,0.681 31.082,0.681 C48.046,0.681 61.927,14.562 61.927,31.526 L61.927,54.835 C61.927,71.8 48.046,85.68 31.082,85.68" id="Fill-442" fill="url(#linearGradient-5)" mask="url(#mask-4)"></path>
                </g>
                <path d="M118.328,94.8003955 C118.328,85.2763955 106.577,88.2943955 92.082,88.2943955 C77.586,88.2943955 65.835,85.2763955 65.835,94.8003955 C65.835,104.325396 77.586,94.8003955 92.082,94.8003955 C106.577,94.8003955 118.328,104.325396 118.328,94.8003955" id="Fill-445" fill="#EFA895"></path>
                <path d="M133.521,69.6233955 C123.553,60.5083955 128.65,60.3493955 125.259,49.9613955 C121.866,39.5753955 108.723,32.7903955 108.723,32.7903955 C108.723,32.7903955 118.037,23.2443955 109.187,15.0963955 C101.37,7.89939552 92,14.6133955 92,14.6133955 C92,14.6133955 82.012,2.68839552 69.924,13.6003955 C59.546,22.9683955 67.704,30.7843955 73.217,34.0863955 C69.32,36.5223955 61.425,42.2473955 58.905,49.9613955 C55.513,60.3493955 60.448,61.2943955 50.48,70.4103955 C40.511,79.5263955 65.526,85.8313955 61.074,95.3983955 C56.623,104.964396 61.711,108.781396 61.711,108.781396 C61.711,108.781396 58.954,102.208396 64.678,97.9693955 C70.402,93.7293955 71.674,88.2933955 64.254,79.2463955 C56.835,70.1983955 96.533,72.0093955 102.575,49.1143955 C108.617,72.0093955 127.166,69.4123955 119.747,78.4593955 C112.327,87.5063955 113.599,92.9433955 119.323,97.1823955 C125.046,101.422396 122.29,107.994396 122.29,107.994396 C122.29,107.994396 127.378,104.178396 122.927,94.6113955 C118.475,85.0443955 143.49,78.7393955 133.521,69.6233955" id="Fill-446" fill="#000C15"></path>
                <path d="M74.575,81.4343955 C74.607,81.4373955 74.881,81.4633955 75.342,81.4633955 C76.265,81.4623955 77.94,81.3623955 79.931,80.7653955 C81.92,80.1683955 84.23,79.0653955 86.363,77.0703955 C86.822,76.6403955 86.846,75.9193955 86.416,75.4593955 C85.987,75.0003955 85.266,74.9763955 84.806,75.4063955 C82.968,77.1243955 80.995,78.0653955 79.275,78.5823955 C77.557,79.0993955 76.097,79.1843955 75.342,79.1843955 C75.153,79.1843955 75.009,79.1793955 74.915,79.1743955 L74.815,79.1683955 L74.795,79.1663955 L74.784,79.2853955 L74.796,79.1663955 L74.795,79.1663955 L74.784,79.2853955 L74.796,79.1663955 C74.17,79.1053955 73.612,79.5633955 73.551,80.1903955 C73.49,80.8163955 73.948,81.3733955 74.575,81.4343955" id="Fill-447" fill="#000C15"></path>
                <path d="M109.026,79.1663955 L109.037,79.2853955 L109.027,79.1663955 L109.026,79.1663955 L109.037,79.2853955 L109.027,79.1663955 C109.005,79.1683955 108.81,79.1843955 108.48,79.1843955 C107.725,79.1843955 106.264,79.0993955 104.546,78.5823955 C102.826,78.0653955 100.854,77.1243955 99.016,75.4063955 C98.556,74.9763955 97.835,75.0003955 97.405,75.4593955 C96.976,75.9193955 97,76.6403955 97.459,77.0703955 C99.592,79.0653955 101.901,80.1683955 103.891,80.7653955 C105.882,81.3623955 107.557,81.4623955 108.48,81.4633955 C108.941,81.4633955 109.215,81.4373955 109.247,81.4343955 C109.873,81.3733955 110.332,80.8163955 110.27,80.1903955 C110.209,79.5633955 109.652,79.1053955 109.026,79.1663955" id="Fill-448" fill="#000C15"></path>
                <path d="M74.527,88.3793955 C74.563,88.3893955 75.687,88.7123955 77.378,88.7133955 C79.654,88.7153955 82.993,88.1143955 85.973,85.3253955 C86.203,85.1103955 86.215,84.7493955 86,84.5193955 C85.785,84.2903955 85.425,84.2783955 85.195,84.4933955 C82.473,87.0373955 79.468,87.5703955 77.378,87.5733955 C76.606,87.5733955 75.963,87.4993955 75.518,87.4253955 C75.295,87.3883955 75.122,87.3523955 75.007,87.3253955 L74.879,87.2943955 L74.844,87.2843955 C74.542,87.1973955 74.226,87.3713955 74.138,87.6733955 C74.051,87.9753955 74.225,88.2913955 74.527,88.3793955" id="Fill-449" fill="#000C15"></path>
                <path d="M108.978,87.2843955 L108.943,87.2943955 C108.75,87.3443955 107.795,87.5733955 106.444,87.5733955 C104.354,87.5703955 101.349,87.0373955 98.627,84.4933955 C98.397,84.2783955 98.036,84.2903955 97.822,84.5193955 C97.607,84.7493955 97.619,85.1103955 97.848,85.3253955 C100.828,88.1143955 104.167,88.7153955 106.444,88.7133955 C108.135,88.7123955 109.258,88.3893955 109.295,88.3793955 C109.597,88.2913955 109.771,87.9753955 109.684,87.6733955 C109.596,87.3713955 109.28,87.1973955 108.978,87.2843955" id="Fill-450" fill="#000C15"></path>
                <path d="M94.916,105.562396 C94.858,104.759396 94.727,103.968396 94.553,103.211396 C93.87,100.247396 90.293,100.247396 89.611,103.211396 C89.436,103.968396 89.306,104.759396 89.248,105.562396 C89.153,106.877396 89.364,107.931396 89.708,108.764396 C90.682,111.122396 93.481,111.122396 94.455,108.764396 C94.8,107.931396 95.011,106.877396 94.916,105.562396" id="Fill-451" fill="#000C15"></path>
                <path d="M91.554,81.5743955 C91.55,81.5853955 90.911,83.1533955 90.269,85.2523955 C89.629,87.3553955 88.98,89.9743955 88.977,92.1593955 C88.98,93.2523955 89.134,94.2523955 89.615,95.0493955 C89.856,95.4453955 90.189,95.7843955 90.611,96.0133955 C91.032,96.2433955 91.53,96.3593955 92.082,96.3583955 C92.396,96.3583955 92.651,96.1033955 92.651,95.7893955 C92.651,95.4743955 92.396,95.2193955 92.082,95.2193955 C91.683,95.2183955 91.389,95.1393955 91.156,95.0133955 C90.812,94.8233955 90.564,94.5113955 90.382,94.0233955 C90.203,93.5383955 90.115,92.8933955 90.116,92.1593955 C90.113,90.1963955 90.732,87.6313955 91.359,85.5853955 C91.672,84.5613955 91.986,83.6633955 92.221,83.0233955 C92.338,82.7023955 92.436,82.4473955 92.504,82.2713955 C92.572,82.0963955 92.609,82.0053955 92.609,82.0043955 C92.728,81.7133955 92.588,81.3813955 92.297,81.2623955 C92.005,81.1433955 91.673,81.2833955 91.554,81.5753955" id="Fill-452" fill="#000C15"></path>
                <path d="M62.705,126.492396 L72.941,147.586396 L82.246,142.633396 L85.968,154.262396 L108.611,150.553396 L115.744,132.247396 C115.744,132.247396 109.688,86.9523955 93.412,86.9523955 C76.322,86.9523955 62.705,126.492396 62.705,126.492396" id="Fill-453" fill="#CDEAF0"></path>
                <path d="M112.966,181.235396 L106.371,142.797396 C106.371,142.797396 101.376,139.300396 101.761,130.043396 C102.146,120.787396 99.427,116.458396 96.679,113.274396 C94.65,111.335396 98.349,107.637396 104.596,121.508396 C102.647,109.761396 96.903,107.948396 97.611,106.515396 C98.319,105.082396 103.795,106.986396 107.203,117.404396 C105.832,107.012396 99.311,103.434396 100.287,101.911396 C101.724,99.6663955 110.445,107.776396 110.638,118.388396 C112.357,107.785396 105.064,103.335396 106.303,100.829396 C107.541,98.3213955 116.617,109.253396 115.036,124.409396 C117.738,119.622396 114.203,112.886396 116.487,112.053396 C118.769,111.220396 122.898,126.583396 115.052,140.932396 C119.638,154.829396 128.976,175.884396 128.976,175.884396 L112.966,181.235396" id="Fill-454" fill="#F3B795"></path>
                <g id="Group-461" transform="translate(27.000000, 94.634396)">
                    <mask id="mask-7" fill="white">
                        <use xlink:href="#path-6"></use>
                    </mask>
                    <g id="Clip-456"></g>
                    <path d="M42.506,80.929 L49.101,42.491 C49.101,42.491 54.096,38.994 53.711,29.738 C53.327,20.481 56.045,16.153 58.794,12.967 C60.822,11.03 57.123,7.331 50.875,21.201 C52.826,9.455 58.569,7.642 57.861,6.209 C57.154,4.777 51.677,6.68 48.269,17.098 C49.64,6.706 56.161,3.128 55.185,1.605 C53.748,-0.639 45.027,7.47 44.834,18.082 C43.115,7.479 50.408,3.03 49.17,0.522 C47.931,-1.985 38.854,8.947 40.436,24.103 C37.735,19.317 41.269,12.58 38.986,11.747 C36.703,10.914 32.574,26.278 40.42,40.626 C35.834,54.523 26.496,75.578 26.496,75.578 L42.506,80.929" id="Fill-455" fill="#F3B795" mask="url(#mask-7)"></path>
                    <path d="M0.75,121.846 C6.281,98.689 0.026,74.65 24.961,65.309 C26.853,64.601 28.968,64.908 30.599,66.101 C35.189,69.456 40.842,70.279 44.386,70.43 C46.704,70.529 48.735,72.014 49.572,74.177 C51.827,80.005 55.024,92.403 51.365,110.445 C46.131,136.254 53.977,165.522 35.705,170.471" id="Fill-457" fill="#7D56C9" mask="url(#mask-7)"></path>
                    <path d="M1.267,121.969 C4.047,110.307 3.867,98.493 6.097,88.512 C7.209,83.52 8.914,78.996 11.858,75.15 C14.803,71.304 18.99,68.115 25.147,65.806 C25.761,65.576 26.401,65.464 27.039,65.464 C28.188,65.464 29.328,65.829 30.286,66.529 C35.015,69.981 40.764,70.804 44.363,70.96 C46.466,71.049 48.314,72.399 49.077,74.369 C50.572,78.232 52.497,85.047 52.497,94.543 C52.497,99.179 52.038,104.455 50.845,110.339 C48.213,123.33 48.87,137.127 47.895,148.234 C47.411,153.786 46.515,158.658 44.649,162.396 C42.776,166.135 39.992,168.751 35.566,169.958 L35.844,170.983 C40.555,169.716 43.641,166.818 45.6,162.87 C48.542,156.948 49.101,148.692 49.458,139.495 C49.809,130.299 49.935,120.162 51.885,110.55 C53.093,104.596 53.559,99.249 53.559,94.543 C53.559,84.903 51.603,77.954 50.067,73.985 C49.155,71.629 46.942,70.008 44.409,69.899 C40.92,69.753 35.363,68.931 30.913,65.672 C29.772,64.839 28.413,64.402 27.039,64.402 C26.277,64.402 25.51,64.536 24.775,64.811 C18.464,67.173 14.082,70.492 11.014,74.504 C6.41,80.526 4.77,88.042 3.739,96.177 C2.711,104.317 2.294,113.102 0.234,121.723 L1.267,121.969" id="Fill-458" fill="#5C36A7" mask="url(#mask-7)"></path>
                    <path d="M133.378,121.846 C127.847,98.689 126.132,74.65 101.197,65.309 C99.305,64.601 97.19,64.908 95.559,66.101 C90.97,69.456 85.316,70.279 81.772,70.43 C79.454,70.529 77.423,72.014 76.586,74.177 C74.331,80.005 71.134,92.403 74.793,110.445 C80.027,136.254 72.181,165.522 90.453,170.471" id="Fill-459" fill="#7D56C9" mask="url(#mask-7)"></path>
                    <path d="M133.894,121.723 C131.133,110.172 129.324,98.35 125.054,88.19 C120.791,78.033 113.996,69.527 101.383,64.812 C100.648,64.536 99.881,64.402 99.119,64.402 C97.745,64.402 96.386,64.839 95.246,65.672 C90.796,68.931 85.238,69.753 81.75,69.899 C79.216,70.008 77.003,71.629 76.091,73.985 C74.555,77.954 72.599,84.904 72.599,94.544 C72.599,99.25 73.065,104.597 74.272,110.55 C76.875,123.368 76.227,137.111 77.205,148.327 C77.698,153.936 78.593,158.922 80.559,162.87 C82.517,166.818 85.604,169.716 90.314,170.983 L90.592,169.958 C86.166,168.751 83.382,166.135 81.509,162.396 C78.705,156.789 78.106,148.63 77.761,139.454 C77.409,130.277 77.289,120.084 75.313,110.339 C74.12,104.455 73.661,99.18 73.661,94.544 C73.661,85.048 75.586,78.232 77.081,74.369 C77.843,72.399 79.692,71.049 81.795,70.96 C85.394,70.804 91.143,69.981 95.872,66.529 C96.83,65.829 97.97,65.464 99.119,65.464 C99.756,65.464 100.396,65.576 101.011,65.806 C113.333,70.431 119.864,78.615 124.075,88.602 C128.278,98.587 130.092,110.363 132.861,121.969 L133.894,121.723" id="Fill-460" fill="#5C36A7" mask="url(#mask-7)"></path>
                </g>
            </g>
        </g>
    </g>
</svg>